<?xml version="1.0" encoding="utf-8" standalone="no"?>
<!DOCTYPE svg PUBLIC "-//W3C//DTD SVG 1.1//EN"
  "http://www.w3.org/Graphics/SVG/1.1/DTD/svg11.dtd">
<svg xmlns:xlink="http://www.w3.org/1999/xlink" width="593.128017pt" height="482.451834pt" viewBox="0 0 593.128017 482.451834" xmlns="http://www.w3.org/2000/svg" version="1.1">
 <metadata>
  <rdf:RDF xmlns:dc="http://purl.org/dc/elements/1.1/" xmlns:cc="http://creativecommons.org/ns#" xmlns:rdf="http://www.w3.org/1999/02/22-rdf-syntax-ns#">
   <cc:Work>
    <dc:type rdf:resource="http://purl.org/dc/dcmitype/StillImage"/>
    <dc:date>2024-10-16T10:20:35.401302</dc:date>
    <dc:format>image/svg+xml</dc:format>
    <dc:creator>
     <cc:Agent>
      <dc:title>Matplotlib v3.7.0, https://matplotlib.org/</dc:title>
     </cc:Agent>
    </dc:creator>
   </cc:Work>
  </rdf:RDF>
 </metadata>
 <defs>
  <style type="text/css">*{stroke-linejoin: round; stroke-linecap: butt}</style>
 </defs>
 <g id="figure_1">
  <g id="patch_1">
   <path d="M 0 482.451834 
L 593.128017 482.451834 
L 593.128017 0 
L 0 0 
z
" style="fill: #ffffff"/>
  </g>
  <g id="axes_1">
   <g id="patch_2">
    <path d="M 72.6125 92.298763 
L 533.951083 92.298763 
L 533.951083 21.83625 
L 72.6125 21.83625 
z
" style="fill: #ffffff"/>
   </g>
   <g id="matplotlib.axis_1"/>
   <g id="matplotlib.axis_2">
    <g id="ytick_1">
     <g id="line2d_1">
      <defs>
       <path id="m38562b88d1" d="M 0 0 
L -3.5 0 
" style="stroke: #000000; stroke-width: 0.8"/>
      </defs>
      <g>
       <use xlink:href="#m38562b88d1" x="72.6125" y="90.479502" style="stroke: #000000; stroke-width: 0.8"/>
      </g>
     </g>
     <g id="text_1">
      <text style="font: 12px 'Arial'; text-anchor: end" x="65.6125" y="94.774189" transform="rotate(-0 65.6125 94.774189)">0</text>
     </g>
    </g>
    <g id="ytick_2">
     <g id="line2d_2">
      <g>
       <use xlink:href="#m38562b88d1" x="72.6125" y="55.915699" style="stroke: #000000; stroke-width: 0.8"/>
      </g>
     </g>
     <g id="text_2">
      <text style="font: 12px 'Arial'; text-anchor: end" x="65.6125" y="60.210387" transform="rotate(-0 65.6125 60.210387)">100</text>
     </g>
    </g>
    <g id="text_3">
     <text style="font: 12px 'Arial'; text-anchor: middle" x="39.0675" y="57.067506" transform="rotate(-90 39.0675 57.067506)">Smjer</text>
    </g>
   </g>
   <g id="line2d_3">
    <path d="M 72.6125 86.426887 
L 89.088878 85.083147 
L 105.565256 83.825424 
L 122.041634 82.943608 
L 204.423524 79.211402 
L 369.187303 73.45937 
L 533.951083 68.486059 
" clip-path="url(#p54cc7093e1)" style="fill: none; stroke-dasharray: 5.55,2.4; stroke-dashoffset: 0; stroke: #6699cc; stroke-width: 1.5"/>
   </g>
   <g id="line2d_4">
    <path d="M 72.6125 86.151915 
L 89.088878 84.879576 
L 105.565256 83.803919 
L 122.041634 82.872894 
L 204.423524 78.89727 
L 369.187303 73.538007 
L 533.951083 69.861157 
" clip-path="url(#p54cc7093e1)" style="fill: none; stroke-dasharray: 1.5,2.475; stroke-dashoffset: 0; stroke: #6699cc; stroke-width: 1.5"/>
   </g>
   <g id="line2d_5">
    <path d="M 72.6125 86.311049 
L 89.088878 84.518052 
L 105.565256 83.191359 
L 122.041634 82.14071 
L 204.423524 78.438322 
L 369.187303 73.18041 
L 533.951083 69.541896 
" clip-path="url(#p54cc7093e1)" style="fill: none; stroke-dasharray: 9.6,2.4,1.5,2.4; stroke-dashoffset: 0; stroke: #6699cc; stroke-width: 1.5"/>
   </g>
   <g id="line2d_6">
    <path d="M 72.6125 86.336538 
L 89.088878 84.853684 
L 105.565256 83.522155 
L 122.041634 82.55135 
L 204.423524 78.562442 
L 369.187303 73.229853 
L 533.951083 69.104086 
" clip-path="url(#p54cc7093e1)" style="fill: none; stroke: #6699cc; stroke-width: 1.5; stroke-linecap: square"/>
   </g>
   <g id="line2d_7">
    <path d="M 72.6125 84.033338 
L 89.088878 81.834577 
L 105.565256 80.386032 
L 122.041634 79.015975 
L 204.423524 73.438548 
L 369.187303 67.142271 
L 533.951083 63.844665 
" clip-path="url(#p54cc7093e1)" style="fill: none; stroke-dasharray: 5.55,2.4; stroke-dashoffset: 0; stroke: #004488; stroke-width: 1.5"/>
   </g>
   <g id="line2d_8">
    <path d="M 72.6125 28.275306 
L 89.088878 28.258453 
L 105.565256 28.241676 
L 122.041634 28.222748 
L 204.423524 28.140313 
L 369.187303 27.929892 
L 533.951083 27.708126 
" clip-path="url(#p54cc7093e1)" style="fill: none; stroke: #004488; stroke-width: 1.5; stroke-linecap: square"/>
   </g>
   <g id="line2d_9">
    <path d="M 72.6125 28.275306 
L 89.088878 28.258453 
L 105.565256 28.241676 
L 122.041634 28.222748 
L 204.423524 28.140313 
L 369.187303 27.929892 
L 533.951083 27.708126 
" clip-path="url(#p54cc7093e1)" style="fill: none; stroke-dasharray: 9.6,2.4,1.5,2.4; stroke-dashoffset: 0; stroke: #004488; stroke-width: 1.5"/>
   </g>
   <g id="line2d_10">
    <path d="M 72.6125 28.275306 
L 89.088878 28.258453 
L 105.565256 28.241676 
L 122.041634 28.222748 
L 204.423524 28.140313 
L 369.187303 27.929892 
L 533.951083 27.708126 
" clip-path="url(#p54cc7093e1)" style="fill: none; stroke-dasharray: 1.5,2.475; stroke-dashoffset: 0; stroke: #004488; stroke-width: 1.5"/>
   </g>
   <g id="line2d_11">
    <path d="M 72.6125 84.441207 
L 89.088878 82.340418 
L 105.565256 79.792245 
L 122.041634 79.324457 
L 204.423524 74.418102 
L 369.187303 68.510129 
L 533.951083 65.290587 
" clip-path="url(#p54cc7093e1)" style="fill: none; stroke-dasharray: 5.55,2.4; stroke-dashoffset: 0; stroke: #ddaa33; stroke-width: 1.5"/>
   </g>
   <g id="line2d_12">
    <path d="M 72.6125 28.275306 
L 89.088878 28.258453 
L 105.565256 28.241676 
L 122.041634 28.222748 
L 204.423524 28.140313 
L 369.187303 27.929892 
L 533.951083 27.708126 
" clip-path="url(#p54cc7093e1)" style="fill: none; stroke: #ddaa33; stroke-width: 1.5; stroke-linecap: square"/>
   </g>
   <g id="line2d_13">
    <path d="M 72.6125 28.275306 
L 89.088878 28.258453 
L 105.565256 28.241676 
L 122.041634 28.222748 
L 204.423524 28.140313 
L 369.187303 27.929892 
L 533.951083 27.708126 
" clip-path="url(#p54cc7093e1)" style="fill: none; stroke-dasharray: 9.6,2.4,1.5,2.4; stroke-dashoffset: 0; stroke: #ddaa33; stroke-width: 1.5"/>
   </g>
   <g id="line2d_14">
    <path d="M 72.6125 28.275306 
L 89.088878 28.258453 
L 105.565256 28.241676 
L 122.041634 28.222748 
L 204.423524 28.140313 
L 369.187303 27.929892 
L 533.951083 27.708126 
" clip-path="url(#p54cc7093e1)" style="fill: none; stroke-dasharray: 1.5,2.475; stroke-dashoffset: 0; stroke: #ddaa33; stroke-width: 1.5"/>
   </g>
   <g id="line2d_15">
    <path d="M 72.6125 84.220014 
L 89.088878 82.168714 
L 105.565256 80.514658 
L 122.041634 79.187125 
L 204.423524 74.041491 
L 369.187303 67.4006 
L 533.951083 64.100448 
" clip-path="url(#p54cc7093e1)" style="fill: none; stroke-dasharray: 5.55,2.4; stroke-dashoffset: 0; stroke: #bb5566; stroke-width: 1.5"/>
   </g>
   <g id="line2d_16">
    <path d="M 72.6125 28.275306 
L 89.088878 28.258453 
L 105.565256 28.241676 
L 122.041634 28.222748 
L 204.423524 28.140313 
L 369.187303 27.929892 
L 533.951083 27.708126 
" clip-path="url(#p54cc7093e1)" style="fill: none; stroke: #bb5566; stroke-width: 1.5; stroke-linecap: square"/>
   </g>
   <g id="line2d_17">
    <path d="M 72.6125 28.275306 
L 89.088878 28.258453 
L 105.565256 28.241676 
L 122.041634 28.222748 
L 204.423524 28.140313 
L 369.187303 27.929892 
L 533.951083 27.708126 
" clip-path="url(#p54cc7093e1)" style="fill: none; stroke-dasharray: 9.6,2.4,1.5,2.4; stroke-dashoffset: 0; stroke: #bb5566; stroke-width: 1.5"/>
   </g>
   <g id="line2d_18">
    <path d="M 72.6125 28.275306 
L 89.088878 28.258453 
L 105.565256 28.241676 
L 122.041634 28.222748 
L 204.423524 28.140313 
L 369.187303 27.929892 
L 533.951083 27.708126 
" clip-path="url(#p54cc7093e1)" style="fill: none; stroke-dasharray: 1.5,2.475; stroke-dashoffset: 0; stroke: #bb5566; stroke-width: 1.5"/>
   </g>
   <g id="line2d_19">
    <path d="M 72.6125 84.916153 
L 89.088878 83.75692 
L 105.565256 82.75038 
L 122.041634 81.860732 
L 204.423524 78.460547 
L 369.187303 74.123412 
L 533.951083 71.256751 
" clip-path="url(#p54cc7093e1)" style="fill: none; stroke: #000000; stroke-width: 1.5; stroke-linecap: square"/>
   </g>
   <g id="patch_3">
    <path d="M 72.6125 92.298763 
L 72.6125 21.83625 
" style="fill: none; stroke: #000000; stroke-width: 0.8; stroke-linejoin: miter; stroke-linecap: square"/>
   </g>
   <g id="patch_4">
    <path d="M 533.951083 92.298763 
L 533.951083 21.83625 
" style="fill: none; stroke: #000000; stroke-width: 0.8; stroke-linejoin: miter; stroke-linecap: square"/>
   </g>
   <g id="patch_5">
    <path d="M 72.6125 92.298763 
L 533.951083 92.298763 
" style="fill: none; stroke: #000000; stroke-width: 0.8; stroke-linejoin: miter; stroke-linecap: square"/>
   </g>
   <g id="patch_6">
    <path d="M 72.6125 21.83625 
L 533.951083 21.83625 
" style="fill: none; stroke: #000000; stroke-width: 0.8; stroke-linejoin: miter; stroke-linecap: square"/>
   </g>
   <g id="text_4">
    <text style="font: 12px 'Arial'; text-anchor: middle" x="303.281791" y="15.83625" transform="rotate(-0 303.281791 15.83625)">Prosječna apsolutna greška</text>
   </g>
  </g>
  <g id="axes_2">
   <g id="patch_7">
    <path d="M 72.6125 176.853778 
L 533.951083 176.853778 
L 533.951083 106.391265 
L 72.6125 106.391265 
z
" style="fill: #ffffff"/>
   </g>
   <g id="matplotlib.axis_3"/>
   <g id="matplotlib.axis_4">
    <g id="ytick_3">
     <g id="line2d_20">
      <g>
       <use xlink:href="#m38562b88d1" x="72.6125" y="146.723764" style="stroke: #000000; stroke-width: 0.8"/>
      </g>
     </g>
     <g id="text_5">
      <text style="font: 12px 'Arial'; text-anchor: end" x="65.6125" y="151.018452" transform="rotate(-0 65.6125 151.018452)">0.0002</text>
     </g>
    </g>
    <g id="ytick_4">
     <g id="line2d_21">
      <g>
       <use xlink:href="#m38562b88d1" x="72.6125" y="113.182964" style="stroke: #000000; stroke-width: 0.8"/>
      </g>
     </g>
     <g id="text_6">
      <text style="font: 12px 'Arial'; text-anchor: end" x="65.6125" y="117.477651" transform="rotate(-0 65.6125 117.477651)">0.0004</text>
     </g>
    </g>
    <g id="text_7">
     <!-- $y$ pomak -->
     <g transform="translate(22.393125 164.902522) rotate(-90)">
      <text>
       <tspan style="font: oblique 12px 'DejaVu Sans'" x="0" y="-0.40625">y</tspan>
       <tspan style="font: 12px 'Arial'" x="7.101562 10.435547 17.109375 23.783203 33.779297 40.453125" y="-0.40625"> pomak</tspan>
      </text>
     </g>
    </g>
   </g>
   <g id="line2d_22">
    <path d="M 72.6125 170.981902 
L 89.088878 167.816239 
L 105.565256 165.428526 
L 122.041634 163.291149 
L 204.423524 145.760567 
L 369.187303 132.89138 
L 533.951083 125.665902 
" clip-path="url(#p1ef2862504)" style="fill: none; stroke-dasharray: 5.55,2.4; stroke-dashoffset: 0; stroke: #6699cc; stroke-width: 1.5"/>
   </g>
   <g id="line2d_23">
    <path d="M 72.6125 169.934279 
L 89.088878 167.075044 
L 105.565256 165.541826 
L 122.041634 163.359488 
L 204.423524 152.661322 
L 369.187303 140.311223 
L 533.951083 130.633049 
" clip-path="url(#p1ef2862504)" style="fill: none; stroke-dasharray: 1.5,2.475; stroke-dashoffset: 0; stroke: #6699cc; stroke-width: 1.5"/>
   </g>
   <g id="line2d_24">
    <path d="M 72.6125 169.478205 
L 89.088878 165.634886 
L 105.565256 162.651061 
L 122.041634 160.358911 
L 204.423524 150.443307 
L 369.187303 137.037789 
L 533.951083 127.776942 
" clip-path="url(#p1ef2862504)" style="fill: none; stroke-dasharray: 9.6,2.4,1.5,2.4; stroke-dashoffset: 0; stroke: #6699cc; stroke-width: 1.5"/>
   </g>
   <g id="line2d_25">
    <path d="M 72.6125 170.473394 
L 89.088878 166.514533 
L 105.565256 163.662739 
L 122.041634 161.252874 
L 204.423524 153.219981 
L 369.187303 135.496474 
L 533.951083 126.003215 
" clip-path="url(#p1ef2862504)" style="fill: none; stroke: #6699cc; stroke-width: 1.5; stroke-linecap: square"/>
   </g>
   <g id="line2d_26">
    <path d="M 72.6125 167.635904 
L 89.088878 160.785983 
L 105.565256 157.654127 
L 122.041634 153.09316 
L 204.423524 138.403147 
L 369.187303 122.859966 
L 533.951083 114.81465 
" clip-path="url(#p1ef2862504)" style="fill: none; stroke-dasharray: 5.55,2.4; stroke-dashoffset: 0; stroke: #004488; stroke-width: 1.5"/>
   </g>
   <g id="line2d_27">
    <path d="M 72.6125 168.272289 
L 89.088878 160.760596 
L 105.565256 155.684627 
L 122.041634 151.627406 
L 204.423524 139.282201 
L 369.187303 122.923733 
L 533.951083 114.055562 
" clip-path="url(#p1ef2862504)" style="fill: none; stroke: #004488; stroke-width: 1.5; stroke-linecap: square"/>
   </g>
   <g id="line2d_28">
    <path d="M 72.6125 165.547287 
L 89.088878 161.109394 
L 105.565256 154.424571 
L 122.041634 152.007805 
L 204.423524 138.619621 
L 369.187303 121.930837 
L 533.951083 113.829252 
" clip-path="url(#p1ef2862504)" style="fill: none; stroke-dasharray: 9.6,2.4,1.5,2.4; stroke-dashoffset: 0; stroke: #004488; stroke-width: 1.5"/>
   </g>
   <g id="line2d_29">
    <path d="M 72.6125 166.921465 
L 89.088878 162.277713 
L 105.565256 155.26566 
L 122.041634 152.555969 
L 204.423524 139.121204 
L 369.187303 122.677022 
L 533.951083 114.828447 
" clip-path="url(#p1ef2862504)" style="fill: none; stroke-dasharray: 1.5,2.475; stroke-dashoffset: 0; stroke: #004488; stroke-width: 1.5"/>
   </g>
   <g id="line2d_30">
    <path d="M 72.6125 163.628867 
L 89.088878 160.957425 
L 105.565256 156.399911 
L 122.041634 151.894844 
L 204.423524 139.775357 
L 369.187303 124.08736 
L 533.951083 114.472147 
" clip-path="url(#p1ef2862504)" style="fill: none; stroke-dasharray: 5.55,2.4; stroke-dashoffset: 0; stroke: #ddaa33; stroke-width: 1.5"/>
   </g>
   <g id="line2d_31">
    <path d="M 72.6125 166.152718 
L 89.088878 159.932609 
L 105.565256 156.414786 
L 122.041634 153.092205 
L 204.423524 139.704034 
L 369.187303 122.429426 
L 533.951083 115.435127 
" clip-path="url(#p1ef2862504)" style="fill: none; stroke: #ddaa33; stroke-width: 1.5; stroke-linecap: square"/>
   </g>
   <g id="line2d_32">
    <path d="M 72.6125 164.370399 
L 89.088878 161.91237 
L 105.565256 155.494017 
L 122.041634 153.02306 
L 204.423524 138.582825 
L 369.187303 121.87776 
L 533.951083 113.36073 
" clip-path="url(#p1ef2862504)" style="fill: none; stroke-dasharray: 9.6,2.4,1.5,2.4; stroke-dashoffset: 0; stroke: #ddaa33; stroke-width: 1.5"/>
   </g>
   <g id="line2d_33">
    <path d="M 72.6125 134.531248 
L 89.088878 133.856874 
L 105.565256 140.780108 
L 122.041634 142.309265 
L 204.423524 138.159927 
L 369.187303 121.156147 
L 533.951083 114.575152 
" clip-path="url(#p1ef2862504)" style="fill: none; stroke-dasharray: 1.5,2.475; stroke-dashoffset: 0; stroke: #ddaa33; stroke-width: 1.5"/>
   </g>
   <g id="line2d_34">
    <path d="M 72.6125 136.449392 
L 89.088878 149.51159 
L 105.565256 144.671809 
L 122.041634 146.508767 
L 204.423524 138.716498 
L 369.187303 121.318924 
L 533.951083 115.251341 
" clip-path="url(#p1ef2862504)" style="fill: none; stroke-dasharray: 5.55,2.4; stroke-dashoffset: 0; stroke: #bb5566; stroke-width: 1.5"/>
   </g>
   <g id="line2d_35">
    <path d="M 72.6125 139.320233 
L 89.088878 136.835824 
L 105.565256 150.497185 
L 122.041634 147.78679 
L 204.423524 137.613393 
L 369.187303 121.689762 
L 533.951083 114.091501 
" clip-path="url(#p1ef2862504)" style="fill: none; stroke: #bb5566; stroke-width: 1.5; stroke-linecap: square"/>
   </g>
   <g id="line2d_36">
    <path d="M 72.6125 149.148026 
L 89.088878 155.321067 
L 105.565256 154.390587 
L 122.041634 152.304204 
L 204.423524 138.470025 
L 369.187303 119.908228 
L 533.951083 112.263141 
" clip-path="url(#p1ef2862504)" style="fill: none; stroke-dasharray: 9.6,2.4,1.5,2.4; stroke-dashoffset: 0; stroke: #bb5566; stroke-width: 1.5"/>
   </g>
   <g id="line2d_37">
    <path d="M 72.6125 113.261921 
L 89.088878 118.390774 
L 105.565256 118.741285 
L 122.041634 121.016123 
L 204.423524 128.627667 
L 369.187303 116.744448 
L 533.951083 113.925712 
" clip-path="url(#p1ef2862504)" style="fill: none; stroke-dasharray: 1.5,2.475; stroke-dashoffset: 0; stroke: #bb5566; stroke-width: 1.5"/>
   </g>
   <g id="line2d_38">
    <path d="M 72.6125 168.283654 
L 89.088878 165.635374 
L 105.565256 163.269741 
L 122.041634 161.126351 
L 204.423524 152.629893 
L 369.187303 141.550288 
L 533.951083 134.6297 
" clip-path="url(#p1ef2862504)" style="fill: none; stroke: #000000; stroke-width: 1.5; stroke-linecap: square"/>
   </g>
   <g id="patch_8">
    <path d="M 72.6125 176.853778 
L 72.6125 106.391265 
" style="fill: none; stroke: #000000; stroke-width: 0.8; stroke-linejoin: miter; stroke-linecap: square"/>
   </g>
   <g id="patch_9">
    <path d="M 533.951083 176.853778 
L 533.951083 106.391265 
" style="fill: none; stroke: #000000; stroke-width: 0.8; stroke-linejoin: miter; stroke-linecap: square"/>
   </g>
   <g id="patch_10">
    <path d="M 72.6125 176.853778 
L 533.951083 176.853778 
" style="fill: none; stroke: #000000; stroke-width: 0.8; stroke-linejoin: miter; stroke-linecap: square"/>
   </g>
   <g id="patch_11">
    <path d="M 72.6125 106.391265 
L 533.951083 106.391265 
" style="fill: none; stroke: #000000; stroke-width: 0.8; stroke-linejoin: miter; stroke-linecap: square"/>
   </g>
  </g>
  <g id="axes_3">
   <g id="patch_12">
    <path d="M 72.6125 261.408794 
L 533.951083 261.408794 
L 533.951083 190.946281 
L 72.6125 190.946281 
z
" style="fill: #ffffff"/>
   </g>
   <g id="matplotlib.axis_5"/>
   <g id="matplotlib.axis_6">
    <g id="ytick_5">
     <g id="line2d_39">
      <g>
       <use xlink:href="#m38562b88d1" x="72.6125" y="231.617211" style="stroke: #000000; stroke-width: 0.8"/>
      </g>
     </g>
     <g id="text_8">
      <text style="font: 12px 'Arial'; text-anchor: end" x="65.6125" y="235.911899" transform="rotate(-0 65.6125 235.911899)">0.00025</text>
     </g>
    </g>
    <g id="ytick_6">
     <g id="line2d_40">
      <g>
       <use xlink:href="#m38562b88d1" x="72.6125" y="198.814708" style="stroke: #000000; stroke-width: 0.8"/>
      </g>
     </g>
     <g id="text_9">
      <text style="font: 12px 'Arial'; text-anchor: end" x="65.6125" y="203.109395" transform="rotate(-0 65.6125 203.109395)">0.00050</text>
     </g>
    </g>
    <g id="text_10">
     <!-- $x$ pomak -->
     <g transform="translate(15.84 249.457537) rotate(-90)">
      <text>
       <tspan style="font: oblique 12px 'DejaVu Sans'" x="0" y="-0.40625">x</tspan>
       <tspan style="font: 12px 'Arial'" x="7.101562 10.435547 17.109375 23.783203 33.779297 40.453125" y="-0.40625"> pomak</tspan>
      </text>
     </g>
    </g>
   </g>
   <g id="line2d_41">
    <path d="M 72.6125 255.536918 
L 89.088878 252.516788 
L 105.565256 249.552715 
L 122.041634 247.744111 
L 204.423524 231.29131 
L 369.187303 214.803946 
L 533.951083 208.762855 
" clip-path="url(#pa056631a66)" style="fill: none; stroke-dasharray: 5.55,2.4; stroke-dashoffset: 0; stroke: #6699cc; stroke-width: 1.5"/>
   </g>
   <g id="line2d_42">
    <path d="M 72.6125 255.084581 
L 89.088878 251.806441 
L 105.565256 249.30656 
L 122.041634 247.286461 
L 204.423524 237.522014 
L 369.187303 222.777716 
L 533.951083 211.377127 
" clip-path="url(#pa056631a66)" style="fill: none; stroke-dasharray: 1.5,2.475; stroke-dashoffset: 0; stroke: #6699cc; stroke-width: 1.5"/>
   </g>
   <g id="line2d_43">
    <path d="M 72.6125 254.3056 
L 89.088878 250.852669 
L 105.565256 248.250551 
L 122.041634 245.516675 
L 204.423524 234.430743 
L 369.187303 218.776255 
L 533.951083 208.130854 
" clip-path="url(#pa056631a66)" style="fill: none; stroke-dasharray: 9.6,2.4,1.5,2.4; stroke-dashoffset: 0; stroke: #6699cc; stroke-width: 1.5"/>
   </g>
   <g id="line2d_44">
    <path d="M 72.6125 255.044113 
L 89.088878 251.272949 
L 105.565256 248.620866 
L 122.041634 245.689703 
L 204.423524 236.30912 
L 369.187303 218.147836 
L 533.951083 207.831269 
" clip-path="url(#pa056631a66)" style="fill: none; stroke: #6699cc; stroke-width: 1.5; stroke-linecap: square"/>
   </g>
   <g id="line2d_45">
    <path d="M 72.6125 252.344332 
L 89.088878 246.617018 
L 105.565256 240.513563 
L 122.041634 238.42123 
L 204.423524 224.274869 
L 369.187303 205.441297 
L 533.951083 197.692882 
" clip-path="url(#pa056631a66)" style="fill: none; stroke-dasharray: 5.55,2.4; stroke-dashoffset: 0; stroke: #004488; stroke-width: 1.5"/>
   </g>
   <g id="line2d_46">
    <path d="M 72.6125 252.049795 
L 89.088878 245.180934 
L 105.565256 241.861169 
L 122.041634 238.276395 
L 204.423524 224.502724 
L 369.187303 206.420479 
L 533.951083 197.663575 
" clip-path="url(#pa056631a66)" style="fill: none; stroke: #004488; stroke-width: 1.5; stroke-linecap: square"/>
   </g>
   <g id="line2d_47">
    <path d="M 72.6125 253.391389 
L 89.088878 245.456193 
L 105.565256 240.04069 
L 122.041634 237.432941 
L 204.423524 223.366274 
L 369.187303 205.509006 
L 533.951083 197.783985 
" clip-path="url(#pa056631a66)" style="fill: none; stroke-dasharray: 9.6,2.4,1.5,2.4; stroke-dashoffset: 0; stroke: #004488; stroke-width: 1.5"/>
   </g>
   <g id="line2d_48">
    <path d="M 72.6125 252.748298 
L 89.088878 245.95871 
L 105.565256 241.600651 
L 122.041634 237.566133 
L 204.423524 224.154217 
L 369.187303 207.257207 
L 533.951083 198.009562 
" clip-path="url(#pa056631a66)" style="fill: none; stroke-dasharray: 1.5,2.475; stroke-dashoffset: 0; stroke: #004488; stroke-width: 1.5"/>
   </g>
   <g id="line2d_49">
    <path d="M 72.6125 252.143512 
L 89.088878 245.904203 
L 105.565256 242.137631 
L 122.041634 236.930312 
L 204.423524 224.0511 
L 369.187303 206.000333 
L 533.951083 199.383365 
" clip-path="url(#pa056631a66)" style="fill: none; stroke-dasharray: 5.55,2.4; stroke-dashoffset: 0; stroke: #ddaa33; stroke-width: 1.5"/>
   </g>
   <g id="line2d_50">
    <path d="M 72.6125 252.215699 
L 89.088878 244.999793 
L 105.565256 240.00866 
L 122.041634 238.118442 
L 204.423524 224.407281 
L 369.187303 207.262362 
L 533.951083 198.148868 
" clip-path="url(#pa056631a66)" style="fill: none; stroke: #ddaa33; stroke-width: 1.5; stroke-linecap: square"/>
   </g>
   <g id="line2d_51">
    <path d="M 72.6125 253.439193 
L 89.088878 244.973573 
L 105.565256 241.313586 
L 122.041634 236.177909 
L 204.423524 224.162893 
L 369.187303 205.95123 
L 533.951083 198.227437 
" clip-path="url(#pa056631a66)" style="fill: none; stroke-dasharray: 9.6,2.4,1.5,2.4; stroke-dashoffset: 0; stroke: #ddaa33; stroke-width: 1.5"/>
   </g>
   <g id="line2d_52">
    <path d="M 72.6125 232.179632 
L 89.088878 241.698241 
L 105.565256 240.907097 
L 122.041634 237.225122 
L 204.423524 224.628248 
L 369.187303 206.484659 
L 533.951083 199.071714 
" clip-path="url(#pa056631a66)" style="fill: none; stroke-dasharray: 1.5,2.475; stroke-dashoffset: 0; stroke: #ddaa33; stroke-width: 1.5"/>
   </g>
   <g id="line2d_53">
    <path d="M 72.6125 231.81239 
L 89.088878 232.300334 
L 105.565256 236.350401 
L 122.041634 236.683714 
L 204.423524 223.508396 
L 369.187303 205.992199 
L 533.951083 197.050742 
" clip-path="url(#pa056631a66)" style="fill: none; stroke-dasharray: 5.55,2.4; stroke-dashoffset: 0; stroke: #bb5566; stroke-width: 1.5"/>
   </g>
   <g id="line2d_54">
    <path d="M 72.6125 230.2271 
L 89.088878 237.355475 
L 105.565256 238.133002 
L 122.041634 234.812968 
L 204.423524 223.860177 
L 369.187303 206.081585 
L 533.951083 197.190657 
" clip-path="url(#pa056631a66)" style="fill: none; stroke: #bb5566; stroke-width: 1.5; stroke-linecap: square"/>
   </g>
   <g id="line2d_55">
    <path d="M 72.6125 246.780811 
L 89.088878 244.42869 
L 105.565256 238.964936 
L 122.041634 234.660627 
L 204.423524 223.895523 
L 369.187303 203.909257 
L 533.951083 196.818157 
" clip-path="url(#pa056631a66)" style="fill: none; stroke-dasharray: 9.6,2.4,1.5,2.4; stroke-dashoffset: 0; stroke: #bb5566; stroke-width: 1.5"/>
   </g>
   <g id="line2d_56">
    <path d="M 72.6125 212.874306 
L 89.088878 216.906534 
L 105.565256 210.12509 
L 122.041634 215.737918 
L 204.423524 217.787373 
L 369.187303 205.19469 
L 533.951083 197.362654 
" clip-path="url(#pa056631a66)" style="fill: none; stroke-dasharray: 1.5,2.475; stroke-dashoffset: 0; stroke: #bb5566; stroke-width: 1.5"/>
   </g>
   <g id="line2d_57">
    <path d="M 72.6125 252.655696 
L 89.088878 250.010155 
L 105.565256 247.649181 
L 122.041634 245.509235 
L 204.423524 236.954461 
L 369.187303 225.631995 
L 533.951083 218.497569 
" clip-path="url(#pa056631a66)" style="fill: none; stroke: #000000; stroke-width: 1.5; stroke-linecap: square"/>
   </g>
   <g id="patch_13">
    <path d="M 72.6125 261.408794 
L 72.6125 190.946281 
" style="fill: none; stroke: #000000; stroke-width: 0.8; stroke-linejoin: miter; stroke-linecap: square"/>
   </g>
   <g id="patch_14">
    <path d="M 533.951083 261.408794 
L 533.951083 190.946281 
" style="fill: none; stroke: #000000; stroke-width: 0.8; stroke-linejoin: miter; stroke-linecap: square"/>
   </g>
   <g id="patch_15">
    <path d="M 72.6125 261.408794 
L 533.951083 261.408794 
" style="fill: none; stroke: #000000; stroke-width: 0.8; stroke-linejoin: miter; stroke-linecap: square"/>
   </g>
   <g id="patch_16">
    <path d="M 72.6125 190.946281 
L 533.951083 190.946281 
" style="fill: none; stroke: #000000; stroke-width: 0.8; stroke-linejoin: miter; stroke-linecap: square"/>
   </g>
  </g>
  <g id="axes_4">
   <g id="patch_17">
    <path d="M 72.6125 345.963809 
L 533.951083 345.963809 
L 533.951083 275.501296 
L 72.6125 275.501296 
z
" style="fill: #ffffff"/>
   </g>
   <g id="matplotlib.axis_7">
    <g id="xtick_1">
     <g id="line2d_58">
      <defs>
       <path id="me62643f291" d="M 0 0 
L 0 3.5 
" style="stroke: #000000; stroke-width: 0.8"/>
      </defs>
      <g>
       <use xlink:href="#me62643f291" x="72.6125" y="345.963809" style="stroke: #000000; stroke-width: 0.8"/>
      </g>
     </g>
     <g id="text_11">
      <text style="font: 12px 'Arial'; text-anchor: middle" x="72.6125" y="361.553184" transform="rotate(-0 72.6125 361.553184)">2</text>
     </g>
    </g>
    <g id="xtick_2">
     <g id="line2d_59">
      <g>
       <use xlink:href="#me62643f291" x="89.088878" y="345.963809" style="stroke: #000000; stroke-width: 0.8"/>
      </g>
     </g>
     <g id="text_12">
      <text style="font: 12px 'Arial'; text-anchor: middle" x="89.088878" y="361.553184" transform="rotate(-0 89.088878 361.553184)">3</text>
     </g>
    </g>
    <g id="xtick_3">
     <g id="line2d_60">
      <g>
       <use xlink:href="#me62643f291" x="105.565256" y="345.963809" style="stroke: #000000; stroke-width: 0.8"/>
      </g>
     </g>
     <g id="text_13">
      <text style="font: 12px 'Arial'; text-anchor: middle" x="105.565256" y="361.553184" transform="rotate(-0 105.565256 361.553184)">4</text>
     </g>
    </g>
    <g id="xtick_4">
     <g id="line2d_61">
      <g>
       <use xlink:href="#me62643f291" x="122.041634" y="345.963809" style="stroke: #000000; stroke-width: 0.8"/>
      </g>
     </g>
     <g id="text_14">
      <text style="font: 12px 'Arial'; text-anchor: middle" x="122.041634" y="361.553184" transform="rotate(-0 122.041634 361.553184)">5</text>
     </g>
    </g>
    <g id="xtick_5">
     <g id="line2d_62">
      <g>
       <use xlink:href="#me62643f291" x="204.423524" y="345.963809" style="stroke: #000000; stroke-width: 0.8"/>
      </g>
     </g>
     <g id="text_15">
      <text style="font: 12px 'Arial'; text-anchor: middle" x="204.423524" y="361.553184" transform="rotate(-0 204.423524 361.553184)">10</text>
     </g>
    </g>
    <g id="xtick_6">
     <g id="line2d_63">
      <g>
       <use xlink:href="#me62643f291" x="369.187303" y="345.963809" style="stroke: #000000; stroke-width: 0.8"/>
      </g>
     </g>
     <g id="text_16">
      <text style="font: 12px 'Arial'; text-anchor: middle" x="369.187303" y="361.553184" transform="rotate(-0 369.187303 361.553184)">20</text>
     </g>
    </g>
    <g id="xtick_7">
     <g id="line2d_64">
      <g>
       <use xlink:href="#me62643f291" x="533.951083" y="345.963809" style="stroke: #000000; stroke-width: 0.8"/>
      </g>
     </g>
     <g id="text_17">
      <text style="font: 12px 'Arial'; text-anchor: middle" x="533.951083" y="361.553184" transform="rotate(-0 533.951083 361.553184)">30</text>
     </g>
    </g>
    <g id="text_18">
     <!-- Vrijeme predviđanja ($s$) -->
     <g transform="translate(241.421791 376.698184)">
      <text>
       <tspan style="font: 12px 'Arial'" x="0 8.003906 12 14.666016 17.332031 24.005859 34.001953 40.675781 44.009766 50.683594 54.679688 61.353516 68.027344 74.027344 76.693359 83.367188 90.041016 96.714844 99.380859 106.054688 109.388672 119.636719" y="-0.265625">Vrijeme predviđanja ()</tspan>
       <tspan style="font: oblique 12px 'DejaVu Sans'" x="113.384766" y="-0.265625">s</tspan>
      </text>
     </g>
    </g>
   </g>
   <g id="matplotlib.axis_8">
    <g id="ytick_7">
     <g id="line2d_65">
      <g>
       <use xlink:href="#m38562b88d1" x="72.6125" y="317.682954" style="stroke: #000000; stroke-width: 0.8"/>
      </g>
     </g>
     <g id="text_19">
      <text style="font: 12px 'Arial'; text-anchor: end" x="65.6125" y="321.977641" transform="rotate(-0 65.6125 321.977641)">10</text>
     </g>
    </g>
    <g id="ytick_8">
     <g id="line2d_66">
      <g>
       <use xlink:href="#m38562b88d1" x="72.6125" y="287.999135" style="stroke: #000000; stroke-width: 0.8"/>
      </g>
     </g>
     <g id="text_20">
      <text style="font: 12px 'Arial'; text-anchor: end" x="65.6125" y="292.293822" transform="rotate(-0 65.6125 292.293822)">20</text>
     </g>
    </g>
    <g id="text_21">
     <text style="font: 12px 'Arial'; text-anchor: middle" x="45.88125" y="310.732553" transform="rotate(-90 45.88125 310.732553)">Brzina</text>
    </g>
   </g>
   <g id="line2d_67">
    <path d="M 72.6125 339.406027 
L 89.088878 336.268288 
L 105.565256 334.646705 
L 122.041634 334.17074 
L 204.423524 330.388109 
L 369.187303 324.55861 
L 533.951083 321.608799 
" clip-path="url(#p362372e0ec)" style="fill: none; stroke-dasharray: 5.55,2.4; stroke-dashoffset: 0; stroke: #6699cc; stroke-width: 1.5"/>
   </g>
   <g id="line2d_68">
    <path d="M 72.6125 339.483616 
L 89.088878 336.417055 
L 105.565256 334.456409 
L 122.041634 332.883834 
L 204.423524 328.919292 
L 369.187303 323.43748 
L 533.951083 320.378024 
" clip-path="url(#p362372e0ec)" style="fill: none; stroke-dasharray: 1.5,2.475; stroke-dashoffset: 0; stroke: #6699cc; stroke-width: 1.5"/>
   </g>
   <g id="line2d_69">
    <path d="M 72.6125 339.442116 
L 89.088878 336.377991 
L 105.565256 334.055193 
L 122.041634 332.030607 
L 204.423524 326.927285 
L 369.187303 322.384856 
L 533.951083 318.463419 
" clip-path="url(#p362372e0ec)" style="fill: none; stroke-dasharray: 9.6,2.4,1.5,2.4; stroke-dashoffset: 0; stroke: #6699cc; stroke-width: 1.5"/>
   </g>
   <g id="line2d_70">
    <path d="M 72.6125 339.281054 
L 89.088878 336.110995 
L 105.565256 333.676553 
L 122.041634 331.743007 
L 204.423524 326.699584 
L 369.187303 322.843144 
L 533.951083 319.028524 
" clip-path="url(#p362372e0ec)" style="fill: none; stroke: #6699cc; stroke-width: 1.5; stroke-linecap: square"/>
   </g>
   <g id="line2d_71">
    <path d="M 72.6125 339.948946 
L 89.088878 337.023519 
L 105.565256 334.542276 
L 122.041634 332.762659 
L 204.423524 326.94031 
L 369.187303 323.574378 
L 533.951083 322.067954 
" clip-path="url(#p362372e0ec)" style="fill: none; stroke-dasharray: 5.55,2.4; stroke-dashoffset: 0; stroke: #004488; stroke-width: 1.5"/>
   </g>
   <g id="line2d_72">
    <path d="M 72.6125 283.187271 
L 89.088878 283.08775 
L 105.565256 283.003474 
L 122.041634 282.915062 
L 204.423524 282.525577 
L 369.187303 281.914887 
L 533.951083 281.373172 
" clip-path="url(#p362372e0ec)" style="fill: none; stroke: #004488; stroke-width: 1.5; stroke-linecap: square"/>
   </g>
   <g id="line2d_73">
    <path d="M 72.6125 283.187265 
L 89.088878 283.087694 
L 105.565256 283.003474 
L 122.041634 282.915061 
L 204.423524 282.525577 
L 369.187303 281.914887 
L 533.951083 281.373172 
" clip-path="url(#p362372e0ec)" style="fill: none; stroke-dasharray: 9.6,2.4,1.5,2.4; stroke-dashoffset: 0; stroke: #004488; stroke-width: 1.5"/>
   </g>
   <g id="line2d_74">
    <path d="M 72.6125 283.187261 
L 89.088878 283.087692 
L 105.565256 283.003474 
L 122.041634 282.915062 
L 204.423524 282.525577 
L 369.187303 281.914887 
L 533.951083 281.373172 
" clip-path="url(#p362372e0ec)" style="fill: none; stroke-dasharray: 1.5,2.475; stroke-dashoffset: 0; stroke: #004488; stroke-width: 1.5"/>
   </g>
   <g id="line2d_75">
    <path d="M 72.6125 340.091933 
L 89.088878 337.259333 
L 105.565256 334.883601 
L 122.041634 332.964323 
L 204.423524 327.34984 
L 369.187303 323.961828 
L 533.951083 322.362327 
" clip-path="url(#p362372e0ec)" style="fill: none; stroke-dasharray: 5.55,2.4; stroke-dashoffset: 0; stroke: #ddaa33; stroke-width: 1.5"/>
   </g>
   <g id="line2d_76">
    <path d="M 72.6125 283.187264 
L 89.088878 283.087719 
L 105.565256 283.003475 
L 122.041634 282.915062 
L 204.423524 282.525577 
L 369.187303 281.914887 
L 533.951083 281.373172 
" clip-path="url(#p362372e0ec)" style="fill: none; stroke: #ddaa33; stroke-width: 1.5; stroke-linecap: square"/>
   </g>
   <g id="line2d_77">
    <path d="M 72.6125 283.18726 
L 89.088878 283.087696 
L 105.565256 283.003475 
L 122.041634 282.915061 
L 204.423524 282.525577 
L 369.187303 281.914887 
L 533.951083 281.373172 
" clip-path="url(#p362372e0ec)" style="fill: none; stroke-dasharray: 9.6,2.4,1.5,2.4; stroke-dashoffset: 0; stroke: #ddaa33; stroke-width: 1.5"/>
   </g>
   <g id="line2d_78">
    <path d="M 72.6125 283.159226 
L 89.088878 283.087693 
L 105.565256 283.003474 
L 122.041634 282.915061 
L 204.423524 282.525577 
L 369.187303 281.914887 
L 533.951083 281.373172 
" clip-path="url(#p362372e0ec)" style="fill: none; stroke-dasharray: 1.5,2.475; stroke-dashoffset: 0; stroke: #ddaa33; stroke-width: 1.5"/>
   </g>
   <g id="line2d_79">
    <path d="M 72.6125 339.779422 
L 89.088878 336.99429 
L 105.565256 334.698976 
L 122.041634 332.868415 
L 204.423524 327.405421 
L 369.187303 324.011677 
L 533.951083 322.398438 
" clip-path="url(#p362372e0ec)" style="fill: none; stroke-dasharray: 5.55,2.4; stroke-dashoffset: 0; stroke: #bb5566; stroke-width: 1.5"/>
   </g>
   <g id="line2d_80">
    <path d="M 72.6125 283.186419 
L 89.088878 283.087694 
L 105.565256 283.003474 
L 122.041634 282.915061 
L 204.423524 282.525577 
L 369.187303 281.914887 
L 533.951083 281.373172 
" clip-path="url(#p362372e0ec)" style="fill: none; stroke: #bb5566; stroke-width: 1.5; stroke-linecap: square"/>
   </g>
   <g id="line2d_81">
    <path d="M 72.6125 283.18726 
L 89.088878 283.087693 
L 105.565256 283.003474 
L 122.041634 282.915054 
L 204.423524 282.525577 
L 369.187303 281.914887 
L 533.951083 281.373172 
" clip-path="url(#p362372e0ec)" style="fill: none; stroke-dasharray: 9.6,2.4,1.5,2.4; stroke-dashoffset: 0; stroke: #bb5566; stroke-width: 1.5"/>
   </g>
   <g id="line2d_82">
    <path d="M 72.6125 283.187257 
L 89.088878 283.087669 
L 105.565256 283.003474 
L 122.041634 282.915061 
L 204.423524 282.525577 
L 369.187303 281.914887 
L 533.951083 281.373172 
" clip-path="url(#p362372e0ec)" style="fill: none; stroke-dasharray: 1.5,2.475; stroke-dashoffset: 0; stroke: #bb5566; stroke-width: 1.5"/>
   </g>
   <g id="line2d_83">
    <path d="M 72.6125 339.221543 
L 89.088878 337.578887 
L 105.565256 336.144398 
L 122.041634 334.884451 
L 204.423524 330.532361 
L 369.187303 326.639144 
L 533.951083 324.765367 
" clip-path="url(#p362372e0ec)" style="fill: none; stroke: #000000; stroke-width: 1.5; stroke-linecap: square"/>
   </g>
   <g id="line2d_84">
    <path d="M 39.659744 351.835685 
" clip-path="url(#p362372e0ec)" style="fill: none; stroke: #004488; stroke-width: 1.5; stroke-linecap: square"/>
   </g>
   <g id="line2d_85">
    <path d="M 39.659744 351.835685 
" clip-path="url(#p362372e0ec)" style="fill: none; stroke-dasharray: 5.55,2.4; stroke-dashoffset: 0; stroke: #004488; stroke-width: 1.5"/>
   </g>
   <g id="line2d_86">
    <path d="M 39.659744 351.835685 
" clip-path="url(#p362372e0ec)" style="fill: none; stroke-dasharray: 5.55,2.4; stroke-dashoffset: 0; stroke: #004488; stroke-width: 1.5"/>
   </g>
   <g id="line2d_87">
    <path d="M 39.659744 351.835685 
" clip-path="url(#p362372e0ec)" style="fill: none; stroke-dasharray: 1.5,2.475; stroke-dashoffset: 0; stroke: #004488; stroke-width: 1.5"/>
   </g>
   <g id="line2d_88">
    <path d="M 39.659744 351.835685 
" clip-path="url(#p362372e0ec)" style="fill: none; stroke-dasharray: 9.6,2.4,1.5,2.4; stroke-dashoffset: 0; stroke: #004488; stroke-width: 1.5"/>
   </g>
   <g id="line2d_89">
    <path d="M 39.659744 351.835685 
" clip-path="url(#p362372e0ec)" style="fill: none; stroke: #004488; stroke-width: 1.5; stroke-linecap: square"/>
   </g>
   <g id="line2d_90">
    <path d="M 39.659744 351.835685 
" clip-path="url(#p362372e0ec)" style="fill: none; stroke: #004488; stroke-width: 1.5; stroke-linecap: square"/>
   </g>
   <g id="line2d_91">
    <path d="M 39.659744 351.835685 
" clip-path="url(#p362372e0ec)" style="fill: none; stroke: #004488; stroke-width: 1.5; stroke-linecap: square"/>
   </g>
   <g id="line2d_92">
    <path d="M 39.659744 351.835685 
" clip-path="url(#p362372e0ec)" style="fill: none; stroke: #ddaa33; stroke-width: 1.5; stroke-linecap: square"/>
   </g>
   <g id="line2d_93">
    <path d="M 39.659744 351.835685 
" clip-path="url(#p362372e0ec)" style="fill: none; stroke-dasharray: 5.55,2.4; stroke-dashoffset: 0; stroke: #ddaa33; stroke-width: 1.5"/>
   </g>
   <g id="line2d_94">
    <path d="M 39.659744 351.835685 
" clip-path="url(#p362372e0ec)" style="fill: none; stroke: #ddaa33; stroke-width: 1.5; stroke-linecap: square"/>
   </g>
   <g id="line2d_95">
    <path d="M 39.659744 351.835685 
" clip-path="url(#p362372e0ec)" style="fill: none; stroke: #ddaa33; stroke-width: 1.5; stroke-linecap: square"/>
   </g>
   <g id="line2d_96">
    <path d="M 39.659744 351.835685 
" clip-path="url(#p362372e0ec)" style="fill: none; stroke: #000000; stroke-width: 1.5; stroke-linecap: square"/>
   </g>
   <g id="line2d_97">
    <path d="M 39.659744 351.835685 
" clip-path="url(#p362372e0ec)" style="fill: none; stroke: #bb5566; stroke-width: 1.5; stroke-linecap: square"/>
   </g>
   <g id="line2d_98">
    <path d="M 39.659744 351.835685 
" clip-path="url(#p362372e0ec)" style="fill: none; stroke-dasharray: 5.55,2.4; stroke-dashoffset: 0; stroke: #bb5566; stroke-width: 1.5"/>
   </g>
   <g id="line2d_99">
    <path d="M 39.659744 351.835685 
" clip-path="url(#p362372e0ec)" style="fill: none; stroke: #bb5566; stroke-width: 1.5; stroke-linecap: square"/>
   </g>
   <g id="line2d_100">
    <path d="M 39.659744 351.835685 
" clip-path="url(#p362372e0ec)" style="fill: none; stroke: #bb5566; stroke-width: 1.5; stroke-linecap: square"/>
   </g>
   <g id="patch_18">
    <path d="M 72.6125 345.963809 
L 72.6125 275.501296 
" style="fill: none; stroke: #000000; stroke-width: 0.8; stroke-linejoin: miter; stroke-linecap: square"/>
   </g>
   <g id="patch_19">
    <path d="M 533.951083 345.963809 
L 533.951083 275.501296 
" style="fill: none; stroke: #000000; stroke-width: 0.8; stroke-linejoin: miter; stroke-linecap: square"/>
   </g>
   <g id="patch_20">
    <path d="M 72.6125 345.963809 
L 533.951083 345.963809 
" style="fill: none; stroke: #000000; stroke-width: 0.8; stroke-linejoin: miter; stroke-linecap: square"/>
   </g>
   <g id="patch_21">
    <path d="M 72.6125 275.501296 
L 533.951083 275.501296 
" style="fill: none; stroke: #000000; stroke-width: 0.8; stroke-linejoin: miter; stroke-linecap: square"/>
   </g>
   <g id="legend_1">
    <g id="patch_22">
     <path d="M 34.878642 475.251834 
L 583.528017 475.251834 
Q 585.928017 475.251834 585.928017 472.851834 
L 585.928017 388.173084 
Q 585.928017 385.773084 583.528017 385.773084 
L 34.878642 385.773084 
Q 32.478642 385.773084 32.478642 388.173084 
L 32.478642 472.851834 
Q 32.478642 475.251834 34.878642 475.251834 
z
" style="fill: #ffffff; opacity: 0.8; stroke: #cccccc; stroke-linejoin: miter"/>
    </g>
    <g id="line2d_101">
     <path d="M 37.278642 395.108709 
L 49.278642 395.108709 
L 61.278642 395.108709 
" style="fill: none; stroke: #004488; stroke-width: 1.5; stroke-linecap: square"/>
    </g>
    <g id="text_22">
     <text style="font: 12px 'Arial'; text-anchor: start" x="70.878642" y="399.308709" transform="rotate(-0 70.878642 399.308709)">GRU Dvaput</text>
    </g>
    <g id="line2d_102">
     <path d="M 37.278642 412.083084 
L 49.278642 412.083084 
L 61.278642 412.083084 
" style="fill: none; stroke-dasharray: 5.55,2.4; stroke-dashoffset: 0; stroke: #004488; stroke-width: 1.5"/>
    </g>
    <g id="text_23">
     <text style="font: 12px 'Arial'; text-anchor: start" x="70.878642" y="416.283084" transform="rotate(-0 70.878642 416.283084)">GRU Linearni</text>
    </g>
    <g id="line2d_103">
     <path d="M 37.278642 429.203709 
L 49.278642 429.203709 
L 61.278642 429.203709 
" style="fill: none; stroke-dasharray: 5.55,2.4; stroke-dashoffset: 0; stroke: #004488; stroke-width: 1.5"/>
    </g>
    <g id="text_24">
     <text style="font: 12px 'Arial'; text-anchor: start" x="70.878642" y="433.403709" transform="rotate(-0 70.878642 433.403709)">GRU Pažnja 1</text>
    </g>
    <g id="line2d_104">
     <path d="M 37.278642 446.464959 
L 49.278642 446.464959 
L 61.278642 446.464959 
" style="fill: none; stroke-dasharray: 1.5,2.475; stroke-dashoffset: 0; stroke: #004488; stroke-width: 1.5"/>
    </g>
    <g id="text_25">
     <text style="font: 12px 'Arial'; text-anchor: start" x="70.878642" y="450.664959" transform="rotate(-0 70.878642 450.664959)">GRU Pažnja 2</text>
    </g>
    <g id="line2d_105">
     <path d="M 37.278642 463.726209 
L 49.278642 463.726209 
L 61.278642 463.726209 
" style="fill: none; stroke-dasharray: 9.6,2.4,1.5,2.4; stroke-dashoffset: 0; stroke: #004488; stroke-width: 1.5"/>
    </g>
    <g id="text_26">
     <text style="font: 12px 'Arial'; text-anchor: start" x="70.878642" y="467.926209" transform="rotate(-0 70.878642 467.926209)">GRU Pažnja 3</text>
    </g>
    <g id="line2d_106">
     <path d="M 171.575517 395.108709 
L 183.575517 395.108709 
L 195.575517 395.108709 
" style="fill: none; stroke: #004488; stroke-width: 1.5; stroke-linecap: square"/>
    </g>
    <g id="text_27">
     <text style="font: 12px 'Arial'; text-anchor: start" x="205.175517" y="399.308709" transform="rotate(-0 205.175517 399.308709)">GRU Pažnja 4</text>
    </g>
    <g id="line2d_107">
     <path d="M 171.575517 412.223709 
L 183.575517 412.223709 
L 195.575517 412.223709 
" style="fill: none; stroke: #004488; stroke-width: 1.5; stroke-linecap: square"/>
    </g>
    <g id="text_28">
     <text style="font: 12px 'Arial'; text-anchor: start" x="205.175517" y="416.423709" transform="rotate(-0 205.175517 416.423709)">GRU Referentni</text>
    </g>
    <g id="line2d_108">
     <path d="M 171.575517 429.198084 
L 183.575517 429.198084 
L 195.575517 429.198084 
" style="fill: none; stroke: #004488; stroke-width: 1.5; stroke-linecap: square"/>
    </g>
    <g id="text_29">
     <text style="font: 12px 'Arial'; text-anchor: start" x="205.175517" y="433.398084" transform="rotate(-0 205.175517 433.398084)">GRU Treći</text>
    </g>
    <g id="line2d_109">
     <path d="M 171.575517 446.318709 
L 183.575517 446.318709 
L 195.575517 446.318709 
" style="fill: none; stroke: #ddaa33; stroke-width: 1.5; stroke-linecap: square"/>
    </g>
    <g id="text_30">
     <text style="font: 12px 'Arial'; text-anchor: start" x="205.175517" y="450.518709" transform="rotate(-0 205.175517 450.518709)">LSTM Dvaput</text>
    </g>
    <g id="line2d_110">
     <path d="M 314.536767 395.108709 
L 326.536767 395.108709 
L 338.536767 395.108709 
" style="fill: none; stroke-dasharray: 5.55,2.4; stroke-dashoffset: 0; stroke: #ddaa33; stroke-width: 1.5"/>
    </g>
    <g id="text_31">
     <text style="font: 12px 'Arial'; text-anchor: start" x="348.136767" y="399.308709" transform="rotate(-0 348.136767 399.308709)">LSTM Linearni</text>
    </g>
    <g id="line2d_111">
     <path d="M 314.536767 412.083084 
L 326.536767 412.083084 
L 338.536767 412.083084 
" style="fill: none; stroke: #ddaa33; stroke-width: 1.5; stroke-linecap: square"/>
    </g>
    <g id="text_32">
     <text style="font: 12px 'Arial'; text-anchor: start" x="348.136767" y="416.283084" transform="rotate(-0 348.136767 416.283084)">LSTM Referentni</text>
    </g>
    <g id="line2d_112">
     <path d="M 314.536767 429.057459 
L 326.536767 429.057459 
L 338.536767 429.057459 
" style="fill: none; stroke: #ddaa33; stroke-width: 1.5; stroke-linecap: square"/>
    </g>
    <g id="text_33">
     <text style="font: 12px 'Arial'; text-anchor: start" x="348.136767" y="433.257459" transform="rotate(-0 348.136767 433.257459)">LSTM Treći</text>
    </g>
    <g id="line2d_113">
     <path d="M 314.536767 446.031834 
L 326.536767 446.031834 
L 338.536767 446.031834 
" style="fill: none; stroke: #000000; stroke-width: 1.5; stroke-linecap: square"/>
    </g>
    <g id="text_34">
     <text style="font: 12px 'Arial'; text-anchor: start" x="348.136767" y="450.231834" transform="rotate(-0 348.136767 450.231834)">Osnovni</text>
    </g>
    <g id="line2d_114">
     <path d="M 462.834267 395.108709 
L 474.834267 395.108709 
L 486.834267 395.108709 
" style="fill: none; stroke: #bb5566; stroke-width: 1.5; stroke-linecap: square"/>
    </g>
    <g id="text_35">
     <text style="font: 12px 'Arial'; text-anchor: start" x="496.434267" y="399.308709" transform="rotate(-0 496.434267 399.308709)">RNN Dvaput</text>
    </g>
    <g id="line2d_115">
     <path d="M 462.834267 412.083084 
L 474.834267 412.083084 
L 486.834267 412.083084 
" style="fill: none; stroke-dasharray: 5.55,2.4; stroke-dashoffset: 0; stroke: #bb5566; stroke-width: 1.5"/>
    </g>
    <g id="text_36">
     <text style="font: 12px 'Arial'; text-anchor: start" x="496.434267" y="416.283084" transform="rotate(-0 496.434267 416.283084)">RNN Linearni</text>
    </g>
    <g id="line2d_116">
     <path d="M 462.834267 429.057459 
L 474.834267 429.057459 
L 486.834267 429.057459 
" style="fill: none; stroke: #bb5566; stroke-width: 1.5; stroke-linecap: square"/>
    </g>
    <g id="text_37">
     <text style="font: 12px 'Arial'; text-anchor: start" x="496.434267" y="433.257459" transform="rotate(-0 496.434267 433.257459)">RNN Referentni</text>
    </g>
    <g id="line2d_117">
     <path d="M 462.834267 446.031834 
L 474.834267 446.031834 
L 486.834267 446.031834 
" style="fill: none; stroke: #bb5566; stroke-width: 1.5; stroke-linecap: square"/>
    </g>
    <g id="text_38">
     <text style="font: 12px 'Arial'; text-anchor: start" x="496.434267" y="450.231834" transform="rotate(-0 496.434267 450.231834)">RNN Treći</text>
    </g>
   </g>
  </g>
 </g>
 <defs>
  <clipPath id="p54cc7093e1">
   <rect x="72.6125" y="21.83625" width="461.338583" height="70.462513"/>
  </clipPath>
  <clipPath id="p1ef2862504">
   <rect x="72.6125" y="106.391265" width="461.338583" height="70.462513"/>
  </clipPath>
  <clipPath id="pa056631a66">
   <rect x="72.6125" y="190.946281" width="461.338583" height="70.462513"/>
  </clipPath>
  <clipPath id="p362372e0ec">
   <rect x="72.6125" y="275.501296" width="461.338583" height="70.462513"/>
  </clipPath>
 </defs>
</svg>
