<?xml version="1.0" encoding="utf-8" standalone="no"?>
<!DOCTYPE svg PUBLIC "-//W3C//DTD SVG 1.1//EN"
  "http://www.w3.org/Graphics/SVG/1.1/DTD/svg11.dtd">
<svg xmlns:xlink="http://www.w3.org/1999/xlink" width="570.230517pt" height="490.885039pt" viewBox="0 0 570.230517 490.885039" xmlns="http://www.w3.org/2000/svg" version="1.1">
 <metadata>
  <rdf:RDF xmlns:dc="http://purl.org/dc/elements/1.1/" xmlns:cc="http://creativecommons.org/ns#" xmlns:rdf="http://www.w3.org/1999/02/22-rdf-syntax-ns#">
   <cc:Work>
    <dc:type rdf:resource="http://purl.org/dc/dcmitype/StillImage"/>
    <dc:date>2024-10-16T10:20:49.856266</dc:date>
    <dc:format>image/svg+xml</dc:format>
    <dc:creator>
     <cc:Agent>
      <dc:title>Matplotlib v3.7.0, https://matplotlib.org/</dc:title>
     </cc:Agent>
    </dc:creator>
   </cc:Work>
  </rdf:RDF>
 </metadata>
 <defs>
  <style type="text/css">*{stroke-linejoin: round; stroke-linecap: butt}</style>
 </defs>
 <g id="figure_1">
  <g id="patch_1">
   <path d="M 0 490.885039 
L 570.230517 490.885039 
L 570.230517 0 
L 0 0 
z
" style="fill: #ffffff"/>
  </g>
  <g id="axes_1">
   <g id="patch_2">
    <path d="M 49.715 171.450709 
L 511.053583 171.450709 
L 511.053583 24.12 
L 49.715 24.12 
z
" style="fill: #ffffff"/>
   </g>
   <g id="matplotlib.axis_1"/>
   <g id="matplotlib.axis_2">
    <g id="ytick_1">
     <g id="line2d_1">
      <defs>
       <path id="mad30254df8" d="M 0 0 
L -3.5 0 
" style="stroke: #000000; stroke-width: 0.8"/>
      </defs>
      <g>
       <use xlink:href="#mad30254df8" x="49.715" y="162.424881" style="stroke: #000000; stroke-width: 0.8"/>
      </g>
     </g>
     <g id="text_1">
      <text style="font: 12px 'Arial'; text-anchor: end" x="42.715" y="166.719569" transform="rotate(-0 42.715 166.719569)">−20</text>
     </g>
    </g>
    <g id="ytick_2">
     <g id="line2d_2">
      <g>
       <use xlink:href="#mad30254df8" x="49.715" y="132.415491" style="stroke: #000000; stroke-width: 0.8"/>
      </g>
     </g>
     <g id="text_2">
      <text style="font: 12px 'Arial'; text-anchor: end" x="42.715" y="136.710178" transform="rotate(-0 42.715 136.710178)">−15</text>
     </g>
    </g>
    <g id="ytick_3">
     <g id="line2d_3">
      <g>
       <use xlink:href="#mad30254df8" x="49.715" y="102.4061" style="stroke: #000000; stroke-width: 0.8"/>
      </g>
     </g>
     <g id="text_3">
      <text style="font: 12px 'Arial'; text-anchor: end" x="42.715" y="106.700787" transform="rotate(-0 42.715 106.700787)">−10</text>
     </g>
    </g>
    <g id="ytick_4">
     <g id="line2d_4">
      <g>
       <use xlink:href="#mad30254df8" x="49.715" y="72.396709" style="stroke: #000000; stroke-width: 0.8"/>
      </g>
     </g>
     <g id="text_4">
      <text style="font: 12px 'Arial'; text-anchor: end" x="42.715" y="76.691396" transform="rotate(-0 42.715 76.691396)">−5</text>
     </g>
    </g>
    <g id="ytick_5">
     <g id="line2d_5">
      <g>
       <use xlink:href="#mad30254df8" x="49.715" y="42.387318" style="stroke: #000000; stroke-width: 0.8"/>
      </g>
     </g>
     <g id="text_5">
      <text style="font: 12px 'Arial'; text-anchor: end" x="42.715" y="46.682006" transform="rotate(-0 42.715 46.682006)">0</text>
     </g>
    </g>
    <g id="text_6">
     <!-- $x$ i $y$ pomak -->
     <g transform="translate(15.84 129.285354) rotate(-90)">
      <text>
       <tspan style="font: oblique 12px 'DejaVu Sans'" x="0 16.435547" y="-0.40625">xy</tspan>
       <tspan style="font: 12px 'Arial'" x="7.101562 10.435547 13.101562 23.537109 26.871094 33.544922 40.21875 50.214844 56.888672" y="-0.40625"> i  pomak</tspan>
      </text>
     </g>
    </g>
   </g>
   <g id="line2d_6">
    <path d="M 49.715 36.400693 
L 66.191378 36.410199 
L 82.667756 36.422625 
L 99.144134 36.463692 
L 181.526024 39.033535 
L 346.289803 41.372663 
L 511.053583 42.212022 
" clip-path="url(#pcc312b29f1)" style="fill: none; stroke-dasharray: 5.55,2.4; stroke-dashoffset: 0; stroke: #6699cc; stroke-width: 1.5"/>
   </g>
   <g id="line2d_7">
    <path d="M 49.715 36.404722 
L 66.191378 36.419842 
L 82.667756 36.433405 
L 99.144134 36.495654 
L 181.526024 36.845808 
L 346.289803 38.395193 
L 511.053583 42.524346 
" clip-path="url(#pcc312b29f1)" style="fill: none; stroke-dasharray: 1.5,2.475; stroke-dashoffset: 0; stroke: #6699cc; stroke-width: 1.5"/>
   </g>
   <g id="line2d_8">
    <path d="M 49.715 36.399546 
L 66.191378 36.414221 
L 82.667756 36.432809 
L 99.144134 36.458205 
L 181.526024 37.138421 
L 346.289803 41.59748 
L 511.053583 44.918548 
" clip-path="url(#pcc312b29f1)" style="fill: none; stroke-dasharray: 9.6,2.4,1.5,2.4; stroke-dashoffset: 0; stroke: #6699cc; stroke-width: 1.5"/>
   </g>
   <g id="line2d_9">
    <path d="M 49.715 36.397559 
L 66.191378 36.405223 
L 82.667756 36.415819 
L 99.144134 36.438873 
L 181.526024 37.247796 
L 346.289803 40.685806 
L 511.053583 42.967683 
" clip-path="url(#pcc312b29f1)" style="fill: none; stroke: #6699cc; stroke-width: 1.5; stroke-linecap: square"/>
   </g>
   <g id="line2d_10">
    <path d="M 49.715 39.133622 
L 66.191378 40.662365 
L 82.667756 39.582804 
L 99.144134 40.513624 
L 181.526024 42.847359 
L 346.289803 44.387933 
L 511.053583 44.626374 
" clip-path="url(#pcc312b29f1)" style="fill: none; stroke-dasharray: 5.55,2.4; stroke-dashoffset: 0; stroke: #004488; stroke-width: 1.5"/>
   </g>
   <g id="line2d_11">
    <path d="M 49.715 39.108142 
L 66.191378 40.72836 
L 82.667756 40.778429 
L 99.144134 40.730005 
L 181.526024 41.788245 
L 346.289803 43.340549 
L 511.053583 43.677153 
" clip-path="url(#pcc312b29f1)" style="fill: none; stroke: #004488; stroke-width: 1.5; stroke-linecap: square"/>
   </g>
   <g id="line2d_12">
    <path d="M 49.715 40.034046 
L 66.191378 41.894899 
L 82.667756 40.502737 
L 99.144134 41.601327 
L 181.526024 41.604873 
L 346.289803 44.13579 
L 511.053583 43.952337 
" clip-path="url(#pcc312b29f1)" style="fill: none; stroke-dasharray: 9.6,2.4,1.5,2.4; stroke-dashoffset: 0; stroke: #004488; stroke-width: 1.5"/>
   </g>
   <g id="line2d_13">
    <path d="M 49.715 38.843877 
L 66.191378 41.046425 
L 82.667756 40.720776 
L 99.144134 41.725913 
L 181.526024 40.269403 
L 346.289803 43.107533 
L 511.053583 44.128477 
" clip-path="url(#pcc312b29f1)" style="fill: none; stroke-dasharray: 1.5,2.475; stroke-dashoffset: 0; stroke: #004488; stroke-width: 1.5"/>
   </g>
   <g id="line2d_14">
    <path d="M 49.715 42.150591 
L 66.191378 40.521586 
L 82.667756 39.677722 
L 99.144134 43.565009 
L 181.526024 42.566934 
L 346.289803 41.147757 
L 511.053583 44.182138 
" clip-path="url(#pcc312b29f1)" style="fill: none; stroke-dasharray: 5.55,2.4; stroke-dashoffset: 0; stroke: #ddaa33; stroke-width: 1.5"/>
   </g>
   <g id="line2d_15">
    <path d="M 49.715 41.434541 
L 66.191378 42.420312 
L 82.667756 41.24821 
L 99.144134 40.313514 
L 181.526024 41.78455 
L 346.289803 42.636345 
L 511.053583 43.594373 
" clip-path="url(#pcc312b29f1)" style="fill: none; stroke: #ddaa33; stroke-width: 1.5; stroke-linecap: square"/>
   </g>
   <g id="line2d_16">
    <path d="M 49.715 41.24259 
L 66.191378 42.9909 
L 82.667756 42.477961 
L 99.144134 43.297133 
L 181.526024 42.183054 
L 346.289803 43.68217 
L 511.053583 44.527529 
" clip-path="url(#pcc312b29f1)" style="fill: none; stroke-dasharray: 9.6,2.4,1.5,2.4; stroke-dashoffset: 0; stroke: #ddaa33; stroke-width: 1.5"/>
   </g>
   <g id="line2d_17">
    <path d="M 49.715 44.789404 
L 66.191378 43.118448 
L 82.667756 43.083844 
L 99.144134 49.358406 
L 181.526024 44.007851 
L 346.289803 46.990754 
L 511.053583 45.804078 
" clip-path="url(#pcc312b29f1)" style="fill: none; stroke-dasharray: 1.5,2.475; stroke-dashoffset: 0; stroke: #ddaa33; stroke-width: 1.5"/>
   </g>
   <g id="line2d_18">
    <path d="M 49.715 100.850256 
L 66.191378 54.034367 
L 82.667756 64.063939 
L 99.144134 48.777506 
L 181.526024 42.020071 
L 346.289803 41.978999 
L 511.053583 43.814341 
" clip-path="url(#pcc312b29f1)" style="fill: none; stroke-dasharray: 5.55,2.4; stroke-dashoffset: 0; stroke: #bb5566; stroke-width: 1.5"/>
   </g>
   <g id="line2d_19">
    <path d="M 49.715 77.640787 
L 66.191378 95.819633 
L 82.667756 45.39504 
L 99.144134 46.59496 
L 181.526024 43.45429 
L 346.289803 42.485634 
L 511.053583 44.332885 
" clip-path="url(#pcc312b29f1)" style="fill: none; stroke: #bb5566; stroke-width: 1.5; stroke-linecap: square"/>
   </g>
   <g id="line2d_20">
    <path d="M 49.715 53.887318 
L 66.191378 44.58654 
L 82.667756 44.271632 
L 99.144134 43.879231 
L 181.526024 42.190684 
L 346.289803 46.344878 
L 511.053583 45.415754 
" clip-path="url(#pcc312b29f1)" style="fill: none; stroke-dasharray: 9.6,2.4,1.5,2.4; stroke-dashoffset: 0; stroke: #bb5566; stroke-width: 1.5"/>
   </g>
   <g id="line2d_21">
    <path d="M 49.715 159.17315 
L 66.191378 120.559039 
L 82.667756 137.694206 
L 99.144134 97.025204 
L 181.526024 57.734929 
L 346.289803 51.409148 
L 511.053583 47.165689 
" clip-path="url(#pcc312b29f1)" style="fill: none; stroke-dasharray: 1.5,2.475; stroke-dashoffset: 0; stroke: #bb5566; stroke-width: 1.5"/>
   </g>
   <g id="line2d_22">
    <path d="M 49.715 36.427223 
L 66.191378 36.422987 
L 82.667756 36.411809 
L 99.144134 36.423836 
L 181.526024 36.483314 
L 346.289803 36.582989 
L 511.053583 36.718454 
" clip-path="url(#pcc312b29f1)" style="fill: none; stroke: #000000; stroke-width: 1.5; stroke-linecap: square"/>
   </g>
   <g id="patch_3">
    <path d="M 49.715 171.450709 
L 49.715 24.12 
" style="fill: none; stroke: #000000; stroke-width: 0.8; stroke-linejoin: miter; stroke-linecap: square"/>
   </g>
   <g id="patch_4">
    <path d="M 511.053583 171.450709 
L 511.053583 24.12 
" style="fill: none; stroke: #000000; stroke-width: 0.8; stroke-linejoin: miter; stroke-linecap: square"/>
   </g>
   <g id="patch_5">
    <path d="M 49.715 171.450709 
L 511.053583 171.450709 
" style="fill: none; stroke: #000000; stroke-width: 0.8; stroke-linejoin: miter; stroke-linecap: square"/>
   </g>
   <g id="patch_6">
    <path d="M 49.715 24.12 
L 511.053583 24.12 
" style="fill: none; stroke: #000000; stroke-width: 0.8; stroke-linejoin: miter; stroke-linecap: square"/>
   </g>
   <g id="text_7">
    <!-- $R^{2}$ (%) -->
    <g transform="translate(261.904291 18.12)">
     <text>
      <tspan style="font: oblique 12px 'DejaVu Sans'" x="0" y="-0.171875">R</tspan>
      <tspan style="font: 8.4px 'DejaVu Sans'" x="9.180078" y="-4.765625">2</tspan>
      <tspan style="font: 12px 'Arial'" x="14.852539 18.186523 22.182617 32.852539" y="-0.171875"> (%)</tspan>
     </text>
    </g>
   </g>
  </g>
  <g id="axes_2">
   <g id="patch_7">
    <path d="M 49.715 348.247559 
L 511.053583 348.247559 
L 511.053583 200.91685 
L 49.715 200.91685 
z
" style="fill: #ffffff"/>
   </g>
   <g id="matplotlib.axis_3">
    <g id="xtick_1">
     <g id="line2d_23">
      <defs>
       <path id="mccd2a77d54" d="M 0 0 
L 0 3.5 
" style="stroke: #000000; stroke-width: 0.8"/>
      </defs>
      <g>
       <use xlink:href="#mccd2a77d54" x="49.715" y="348.247559" style="stroke: #000000; stroke-width: 0.8"/>
      </g>
     </g>
     <g id="text_8">
      <text style="font: 12px 'Arial'; text-anchor: middle" x="49.715" y="363.836934" transform="rotate(-0 49.715 363.836934)">2</text>
     </g>
    </g>
    <g id="xtick_2">
     <g id="line2d_24">
      <g>
       <use xlink:href="#mccd2a77d54" x="66.191378" y="348.247559" style="stroke: #000000; stroke-width: 0.8"/>
      </g>
     </g>
     <g id="text_9">
      <text style="font: 12px 'Arial'; text-anchor: middle" x="66.191378" y="363.836934" transform="rotate(-0 66.191378 363.836934)">3</text>
     </g>
    </g>
    <g id="xtick_3">
     <g id="line2d_25">
      <g>
       <use xlink:href="#mccd2a77d54" x="82.667756" y="348.247559" style="stroke: #000000; stroke-width: 0.8"/>
      </g>
     </g>
     <g id="text_10">
      <text style="font: 12px 'Arial'; text-anchor: middle" x="82.667756" y="363.836934" transform="rotate(-0 82.667756 363.836934)">4</text>
     </g>
    </g>
    <g id="xtick_4">
     <g id="line2d_26">
      <g>
       <use xlink:href="#mccd2a77d54" x="99.144134" y="348.247559" style="stroke: #000000; stroke-width: 0.8"/>
      </g>
     </g>
     <g id="text_11">
      <text style="font: 12px 'Arial'; text-anchor: middle" x="99.144134" y="363.836934" transform="rotate(-0 99.144134 363.836934)">5</text>
     </g>
    </g>
    <g id="xtick_5">
     <g id="line2d_27">
      <g>
       <use xlink:href="#mccd2a77d54" x="181.526024" y="348.247559" style="stroke: #000000; stroke-width: 0.8"/>
      </g>
     </g>
     <g id="text_12">
      <text style="font: 12px 'Arial'; text-anchor: middle" x="181.526024" y="363.836934" transform="rotate(-0 181.526024 363.836934)">10</text>
     </g>
    </g>
    <g id="xtick_6">
     <g id="line2d_28">
      <g>
       <use xlink:href="#mccd2a77d54" x="346.289803" y="348.247559" style="stroke: #000000; stroke-width: 0.8"/>
      </g>
     </g>
     <g id="text_13">
      <text style="font: 12px 'Arial'; text-anchor: middle" x="346.289803" y="363.836934" transform="rotate(-0 346.289803 363.836934)">20</text>
     </g>
    </g>
    <g id="xtick_7">
     <g id="line2d_29">
      <g>
       <use xlink:href="#mccd2a77d54" x="511.053583" y="348.247559" style="stroke: #000000; stroke-width: 0.8"/>
      </g>
     </g>
     <g id="text_14">
      <text style="font: 12px 'Arial'; text-anchor: middle" x="511.053583" y="363.836934" transform="rotate(-0 511.053583 363.836934)">30</text>
     </g>
    </g>
    <g id="text_15">
     <!-- Vrijeme predviđanja ($s$) -->
     <g transform="translate(218.524291 378.981934)">
      <text>
       <tspan style="font: 12px 'Arial'" x="0 8.003906 12 14.666016 17.332031 24.005859 34.001953 40.675781 44.009766 50.683594 54.679688 61.353516 68.027344 74.027344 76.693359 83.367188 90.041016 96.714844 99.380859 106.054688 109.388672 119.636719" y="-0.265625">Vrijeme predviđanja ()</tspan>
       <tspan style="font: oblique 12px 'DejaVu Sans'" x="113.384766" y="-0.265625">s</tspan>
      </text>
     </g>
    </g>
   </g>
   <g id="matplotlib.axis_4">
    <g id="ytick_6">
     <g id="line2d_30">
      <g>
       <use xlink:href="#mad30254df8" x="49.715" y="324.951803" style="stroke: #000000; stroke-width: 0.8"/>
      </g>
     </g>
     <g id="text_16">
      <text style="font: 12px 'Arial'; text-anchor: end" x="42.715" y="329.24649" transform="rotate(-0 42.715 329.24649)">−15</text>
     </g>
    </g>
    <g id="ytick_7">
     <g id="line2d_31">
      <g>
       <use xlink:href="#mad30254df8" x="49.715" y="289.954405" style="stroke: #000000; stroke-width: 0.8"/>
      </g>
     </g>
     <g id="text_17">
      <text style="font: 12px 'Arial'; text-anchor: end" x="42.715" y="294.249093" transform="rotate(-0 42.715 294.249093)">−10</text>
     </g>
    </g>
    <g id="ytick_8">
     <g id="line2d_32">
      <g>
       <use xlink:href="#mad30254df8" x="49.715" y="254.957008" style="stroke: #000000; stroke-width: 0.8"/>
      </g>
     </g>
     <g id="text_18">
      <text style="font: 12px 'Arial'; text-anchor: end" x="42.715" y="259.251696" transform="rotate(-0 42.715 259.251696)">−5</text>
     </g>
    </g>
    <g id="ytick_9">
     <g id="line2d_33">
      <g>
       <use xlink:href="#mad30254df8" x="49.715" y="219.959611" style="stroke: #000000; stroke-width: 0.8"/>
      </g>
     </g>
     <g id="text_19">
      <text style="font: 12px 'Arial'; text-anchor: end" x="42.715" y="224.254299" transform="rotate(-0 42.715 224.254299)">0</text>
     </g>
    </g>
    <g id="text_20">
     <text style="font: 12px 'Arial'; text-anchor: middle" x="15.834375" y="274.582205" transform="rotate(-90 15.834375 274.582205)">Brzina, smjer i vrijeme</text>
    </g>
   </g>
   <g id="line2d_34">
    <path d="M 49.715 213.196807 
L 66.191378 213.207453 
L 82.667756 213.232484 
L 99.144134 213.240183 
L 181.526024 213.319686 
L 346.289803 213.968785 
L 511.053583 226.707847 
" clip-path="url(#p1f78d57965)" style="fill: none; stroke-dasharray: 5.55,2.4; stroke-dashoffset: 0; stroke: #6699cc; stroke-width: 1.5"/>
   </g>
   <g id="line2d_35">
    <path d="M 49.715 213.196018 
L 66.191378 213.2144 
L 82.667756 213.234446 
L 99.144134 213.253234 
L 181.526024 213.359914 
L 346.289803 214.029575 
L 511.053583 215.313454 
" clip-path="url(#p1f78d57965)" style="fill: none; stroke-dasharray: 1.5,2.475; stroke-dashoffset: 0; stroke: #6699cc; stroke-width: 1.5"/>
   </g>
   <g id="line2d_36">
    <path d="M 49.715 213.199347 
L 66.191378 213.214787 
L 82.667756 213.243265 
L 99.144134 213.259831 
L 181.526024 213.384311 
L 346.289803 214.087035 
L 511.053583 215.461208 
" clip-path="url(#p1f78d57965)" style="fill: none; stroke-dasharray: 9.6,2.4,1.5,2.4; stroke-dashoffset: 0; stroke: #6699cc; stroke-width: 1.5"/>
   </g>
   <g id="line2d_37">
    <path d="M 49.715 213.194409 
L 66.191378 213.204856 
L 82.667756 213.231755 
L 99.144134 213.255747 
L 181.526024 213.382395 
L 346.289803 214.045788 
L 511.053583 220.204548 
" clip-path="url(#p1f78d57965)" style="fill: none; stroke: #6699cc; stroke-width: 1.5; stroke-linecap: square"/>
   </g>
   <g id="line2d_38">
    <path d="M 49.715 217.236935 
L 66.191378 220.158275 
L 82.667756 222.305761 
L 99.144134 225.564751 
L 181.526024 254.577952 
L 346.289803 304.324817 
L 511.053583 332.04622 
" clip-path="url(#p1f78d57965)" style="fill: none; stroke-dasharray: 5.55,2.4; stroke-dashoffset: 0; stroke: #004488; stroke-width: 1.5"/>
   </g>
   <g id="line2d_39">
    <path d="M 49.715 220.7485 
L 66.191378 220.748503 
L 82.667756 220.749074 
L 99.144134 220.748023 
L 181.526024 220.749051 
L 346.289803 220.743085 
L 511.053583 220.727047 
" clip-path="url(#p1f78d57965)" style="fill: none; stroke: #004488; stroke-width: 1.5; stroke-linecap: square"/>
   </g>
   <g id="line2d_40">
    <path d="M 49.715 220.748502 
L 66.191378 220.748511 
L 82.667756 220.749075 
L 99.144134 220.748024 
L 181.526024 220.749051 
L 346.289803 220.743085 
L 511.053583 220.727047 
" clip-path="url(#p1f78d57965)" style="fill: none; stroke-dasharray: 9.6,2.4,1.5,2.4; stroke-dashoffset: 0; stroke: #004488; stroke-width: 1.5"/>
   </g>
   <g id="line2d_41">
    <path d="M 49.715 220.748507 
L 66.191378 220.748499 
L 82.667756 220.749075 
L 99.144134 220.748023 
L 181.526024 220.749051 
L 346.289803 220.743085 
L 511.053583 220.727047 
" clip-path="url(#p1f78d57965)" style="fill: none; stroke-dasharray: 1.5,2.475; stroke-dashoffset: 0; stroke: #004488; stroke-width: 1.5"/>
   </g>
   <g id="line2d_42">
    <path d="M 49.715 216.559991 
L 66.191378 219.072688 
L 82.667756 232.225502 
L 99.144134 226.259431 
L 181.526024 247.243033 
L 346.289803 288.895097 
L 511.053583 324.378044 
" clip-path="url(#p1f78d57965)" style="fill: none; stroke-dasharray: 5.55,2.4; stroke-dashoffset: 0; stroke: #ddaa33; stroke-width: 1.5"/>
   </g>
   <g id="line2d_43">
    <path d="M 49.715 220.492101 
L 66.191378 220.748361 
L 82.667756 220.749073 
L 99.144134 220.748024 
L 181.526024 220.749051 
L 346.289803 220.743085 
L 511.053583 220.727047 
" clip-path="url(#p1f78d57965)" style="fill: none; stroke: #ddaa33; stroke-width: 1.5; stroke-linecap: square"/>
   </g>
   <g id="line2d_44">
    <path d="M 49.715 220.748507 
L 66.191378 220.748509 
L 82.667756 220.749073 
L 99.144134 220.748024 
L 181.526024 220.749051 
L 346.289803 220.743085 
L 511.053583 220.727047 
" clip-path="url(#p1f78d57965)" style="fill: none; stroke-dasharray: 9.6,2.4,1.5,2.4; stroke-dashoffset: 0; stroke: #ddaa33; stroke-width: 1.5"/>
   </g>
   <g id="line2d_45">
    <path d="M 49.715 220.751117 
L 66.191378 220.748513 
L 82.667756 220.749075 
L 99.144134 220.748024 
L 181.526024 220.749051 
L 346.289803 220.743085 
L 511.053583 220.727047 
" clip-path="url(#p1f78d57965)" style="fill: none; stroke-dasharray: 1.5,2.475; stroke-dashoffset: 0; stroke: #ddaa33; stroke-width: 1.5"/>
   </g>
   <g id="line2d_46">
    <path d="M 49.715 217.083591 
L 66.191378 220.032761 
L 82.667756 223.283732 
L 99.144134 226.786153 
L 181.526024 249.989309 
L 346.289803 298.689616 
L 511.053583 335.97 
" clip-path="url(#p1f78d57965)" style="fill: none; stroke-dasharray: 5.55,2.4; stroke-dashoffset: 0; stroke: #bb5566; stroke-width: 1.5"/>
   </g>
   <g id="line2d_47">
    <path d="M 49.715 220.748338 
L 66.191378 220.7485 
L 82.667756 220.749074 
L 99.144134 220.748024 
L 181.526024 220.749051 
L 346.289803 220.743085 
L 511.053583 220.727047 
" clip-path="url(#p1f78d57965)" style="fill: none; stroke: #bb5566; stroke-width: 1.5; stroke-linecap: square"/>
   </g>
   <g id="line2d_48">
    <path d="M 49.715 220.748507 
L 66.191378 220.748513 
L 82.667756 220.749075 
L 99.144134 220.748024 
L 181.526024 220.749051 
L 346.289803 220.743085 
L 511.053583 220.727047 
" clip-path="url(#p1f78d57965)" style="fill: none; stroke-dasharray: 9.6,2.4,1.5,2.4; stroke-dashoffset: 0; stroke: #bb5566; stroke-width: 1.5"/>
   </g>
   <g id="line2d_49">
    <path d="M 49.715 220.748497 
L 66.191378 220.748474 
L 82.667756 220.749075 
L 99.144134 220.748024 
L 181.526024 220.749051 
L 346.289803 220.743085 
L 511.053583 220.727047 
" clip-path="url(#p1f78d57965)" style="fill: none; stroke-dasharray: 1.5,2.475; stroke-dashoffset: 0; stroke: #bb5566; stroke-width: 1.5"/>
   </g>
   <g id="line2d_50">
    <path d="M 49.715 213.648553 
L 66.191378 214.127978 
L 82.667756 214.738573 
L 99.144134 215.537004 
L 181.526024 220.600223 
L 346.289803 234.467525 
L 511.053583 251.289684 
" clip-path="url(#p1f78d57965)" style="fill: none; stroke: #000000; stroke-width: 1.5; stroke-linecap: square"/>
   </g>
   <g id="line2d_51">
    <path d="M 16.762244 360.525118 
" clip-path="url(#p1f78d57965)" style="fill: none; stroke: #004488; stroke-width: 1.5; stroke-linecap: square"/>
   </g>
   <g id="line2d_52">
    <path d="M 16.762244 360.525118 
" clip-path="url(#p1f78d57965)" style="fill: none; stroke-dasharray: 5.55,2.4; stroke-dashoffset: 0; stroke: #004488; stroke-width: 1.5"/>
   </g>
   <g id="line2d_53">
    <path d="M 16.762244 360.525118 
" clip-path="url(#p1f78d57965)" style="fill: none; stroke-dasharray: 5.55,2.4; stroke-dashoffset: 0; stroke: #004488; stroke-width: 1.5"/>
   </g>
   <g id="line2d_54">
    <path d="M 16.762244 360.525118 
" clip-path="url(#p1f78d57965)" style="fill: none; stroke-dasharray: 1.5,2.475; stroke-dashoffset: 0; stroke: #004488; stroke-width: 1.5"/>
   </g>
   <g id="line2d_55">
    <path d="M 16.762244 360.525118 
" clip-path="url(#p1f78d57965)" style="fill: none; stroke-dasharray: 9.6,2.4,1.5,2.4; stroke-dashoffset: 0; stroke: #004488; stroke-width: 1.5"/>
   </g>
   <g id="line2d_56">
    <path d="M 16.762244 360.525118 
" clip-path="url(#p1f78d57965)" style="fill: none; stroke: #004488; stroke-width: 1.5; stroke-linecap: square"/>
   </g>
   <g id="line2d_57">
    <path d="M 16.762244 360.525118 
" clip-path="url(#p1f78d57965)" style="fill: none; stroke: #004488; stroke-width: 1.5; stroke-linecap: square"/>
   </g>
   <g id="line2d_58">
    <path d="M 16.762244 360.525118 
" clip-path="url(#p1f78d57965)" style="fill: none; stroke: #004488; stroke-width: 1.5; stroke-linecap: square"/>
   </g>
   <g id="line2d_59">
    <path d="M 16.762244 360.525118 
" clip-path="url(#p1f78d57965)" style="fill: none; stroke: #ddaa33; stroke-width: 1.5; stroke-linecap: square"/>
   </g>
   <g id="line2d_60">
    <path d="M 16.762244 360.525118 
" clip-path="url(#p1f78d57965)" style="fill: none; stroke-dasharray: 5.55,2.4; stroke-dashoffset: 0; stroke: #ddaa33; stroke-width: 1.5"/>
   </g>
   <g id="line2d_61">
    <path d="M 16.762244 360.525118 
" clip-path="url(#p1f78d57965)" style="fill: none; stroke: #ddaa33; stroke-width: 1.5; stroke-linecap: square"/>
   </g>
   <g id="line2d_62">
    <path d="M 16.762244 360.525118 
" clip-path="url(#p1f78d57965)" style="fill: none; stroke: #ddaa33; stroke-width: 1.5; stroke-linecap: square"/>
   </g>
   <g id="line2d_63">
    <path d="M 16.762244 360.525118 
" clip-path="url(#p1f78d57965)" style="fill: none; stroke: #000000; stroke-width: 1.5; stroke-linecap: square"/>
   </g>
   <g id="line2d_64">
    <path d="M 16.762244 360.525118 
" clip-path="url(#p1f78d57965)" style="fill: none; stroke: #bb5566; stroke-width: 1.5; stroke-linecap: square"/>
   </g>
   <g id="line2d_65">
    <path d="M 16.762244 360.525118 
" clip-path="url(#p1f78d57965)" style="fill: none; stroke-dasharray: 5.55,2.4; stroke-dashoffset: 0; stroke: #bb5566; stroke-width: 1.5"/>
   </g>
   <g id="line2d_66">
    <path d="M 16.762244 360.525118 
" clip-path="url(#p1f78d57965)" style="fill: none; stroke: #bb5566; stroke-width: 1.5; stroke-linecap: square"/>
   </g>
   <g id="line2d_67">
    <path d="M 16.762244 360.525118 
" clip-path="url(#p1f78d57965)" style="fill: none; stroke: #bb5566; stroke-width: 1.5; stroke-linecap: square"/>
   </g>
   <g id="patch_8">
    <path d="M 49.715 348.247559 
L 49.715 200.91685 
" style="fill: none; stroke: #000000; stroke-width: 0.8; stroke-linejoin: miter; stroke-linecap: square"/>
   </g>
   <g id="patch_9">
    <path d="M 511.053583 348.247559 
L 511.053583 200.91685 
" style="fill: none; stroke: #000000; stroke-width: 0.8; stroke-linejoin: miter; stroke-linecap: square"/>
   </g>
   <g id="patch_10">
    <path d="M 49.715 348.247559 
L 511.053583 348.247559 
" style="fill: none; stroke: #000000; stroke-width: 0.8; stroke-linejoin: miter; stroke-linecap: square"/>
   </g>
   <g id="patch_11">
    <path d="M 49.715 200.91685 
L 511.053583 200.91685 
" style="fill: none; stroke: #000000; stroke-width: 0.8; stroke-linejoin: miter; stroke-linecap: square"/>
   </g>
   <g id="legend_1">
    <g id="patch_12">
     <path d="M 11.981142 483.685039 
L 560.630517 483.685039 
Q 563.030517 483.685039 563.030517 481.285039 
L 563.030517 396.606289 
Q 563.030517 394.206289 560.630517 394.206289 
L 11.981142 394.206289 
Q 9.581142 394.206289 9.581142 396.606289 
L 9.581142 481.285039 
Q 9.581142 483.685039 11.981142 483.685039 
z
" style="fill: #ffffff; opacity: 0.8; stroke: #cccccc; stroke-linejoin: miter"/>
    </g>
    <g id="line2d_68">
     <path d="M 14.381142 403.541914 
L 26.381142 403.541914 
L 38.381142 403.541914 
" style="fill: none; stroke: #004488; stroke-width: 1.5; stroke-linecap: square"/>
    </g>
    <g id="text_21">
     <text style="font: 12px 'Arial'; text-anchor: start" x="47.981142" y="407.741914" transform="rotate(-0 47.981142 407.741914)">GRU Dvaput</text>
    </g>
    <g id="line2d_69">
     <path d="M 14.381142 420.516289 
L 26.381142 420.516289 
L 38.381142 420.516289 
" style="fill: none; stroke-dasharray: 5.55,2.4; stroke-dashoffset: 0; stroke: #004488; stroke-width: 1.5"/>
    </g>
    <g id="text_22">
     <text style="font: 12px 'Arial'; text-anchor: start" x="47.981142" y="424.716289" transform="rotate(-0 47.981142 424.716289)">GRU Linearni</text>
    </g>
    <g id="line2d_70">
     <path d="M 14.381142 437.636914 
L 26.381142 437.636914 
L 38.381142 437.636914 
" style="fill: none; stroke-dasharray: 5.55,2.4; stroke-dashoffset: 0; stroke: #004488; stroke-width: 1.5"/>
    </g>
    <g id="text_23">
     <text style="font: 12px 'Arial'; text-anchor: start" x="47.981142" y="441.836914" transform="rotate(-0 47.981142 441.836914)">GRU Pažnja 1</text>
    </g>
    <g id="line2d_71">
     <path d="M 14.381142 454.898164 
L 26.381142 454.898164 
L 38.381142 454.898164 
" style="fill: none; stroke-dasharray: 1.5,2.475; stroke-dashoffset: 0; stroke: #004488; stroke-width: 1.5"/>
    </g>
    <g id="text_24">
     <text style="font: 12px 'Arial'; text-anchor: start" x="47.981142" y="459.098164" transform="rotate(-0 47.981142 459.098164)">GRU Pažnja 2</text>
    </g>
    <g id="line2d_72">
     <path d="M 14.381142 472.159414 
L 26.381142 472.159414 
L 38.381142 472.159414 
" style="fill: none; stroke-dasharray: 9.6,2.4,1.5,2.4; stroke-dashoffset: 0; stroke: #004488; stroke-width: 1.5"/>
    </g>
    <g id="text_25">
     <text style="font: 12px 'Arial'; text-anchor: start" x="47.981142" y="476.359414" transform="rotate(-0 47.981142 476.359414)">GRU Pažnja 3</text>
    </g>
    <g id="line2d_73">
     <path d="M 148.678017 403.541914 
L 160.678017 403.541914 
L 172.678017 403.541914 
" style="fill: none; stroke: #004488; stroke-width: 1.5; stroke-linecap: square"/>
    </g>
    <g id="text_26">
     <text style="font: 12px 'Arial'; text-anchor: start" x="182.278017" y="407.741914" transform="rotate(-0 182.278017 407.741914)">GRU Pažnja 4</text>
    </g>
    <g id="line2d_74">
     <path d="M 148.678017 420.656914 
L 160.678017 420.656914 
L 172.678017 420.656914 
" style="fill: none; stroke: #004488; stroke-width: 1.5; stroke-linecap: square"/>
    </g>
    <g id="text_27">
     <text style="font: 12px 'Arial'; text-anchor: start" x="182.278017" y="424.856914" transform="rotate(-0 182.278017 424.856914)">GRU Referentni</text>
    </g>
    <g id="line2d_75">
     <path d="M 148.678017 437.631289 
L 160.678017 437.631289 
L 172.678017 437.631289 
" style="fill: none; stroke: #004488; stroke-width: 1.5; stroke-linecap: square"/>
    </g>
    <g id="text_28">
     <text style="font: 12px 'Arial'; text-anchor: start" x="182.278017" y="441.831289" transform="rotate(-0 182.278017 441.831289)">GRU Treći</text>
    </g>
    <g id="line2d_76">
     <path d="M 148.678017 454.751914 
L 160.678017 454.751914 
L 172.678017 454.751914 
" style="fill: none; stroke: #ddaa33; stroke-width: 1.5; stroke-linecap: square"/>
    </g>
    <g id="text_29">
     <text style="font: 12px 'Arial'; text-anchor: start" x="182.278017" y="458.951914" transform="rotate(-0 182.278017 458.951914)">LSTM Dvaput</text>
    </g>
    <g id="line2d_77">
     <path d="M 291.639267 403.541914 
L 303.639267 403.541914 
L 315.639267 403.541914 
" style="fill: none; stroke-dasharray: 5.55,2.4; stroke-dashoffset: 0; stroke: #ddaa33; stroke-width: 1.5"/>
    </g>
    <g id="text_30">
     <text style="font: 12px 'Arial'; text-anchor: start" x="325.239267" y="407.741914" transform="rotate(-0 325.239267 407.741914)">LSTM Linearni</text>
    </g>
    <g id="line2d_78">
     <path d="M 291.639267 420.516289 
L 303.639267 420.516289 
L 315.639267 420.516289 
" style="fill: none; stroke: #ddaa33; stroke-width: 1.5; stroke-linecap: square"/>
    </g>
    <g id="text_31">
     <text style="font: 12px 'Arial'; text-anchor: start" x="325.239267" y="424.716289" transform="rotate(-0 325.239267 424.716289)">LSTM Referentni</text>
    </g>
    <g id="line2d_79">
     <path d="M 291.639267 437.490664 
L 303.639267 437.490664 
L 315.639267 437.490664 
" style="fill: none; stroke: #ddaa33; stroke-width: 1.5; stroke-linecap: square"/>
    </g>
    <g id="text_32">
     <text style="font: 12px 'Arial'; text-anchor: start" x="325.239267" y="441.690664" transform="rotate(-0 325.239267 441.690664)">LSTM Treći</text>
    </g>
    <g id="line2d_80">
     <path d="M 291.639267 454.465039 
L 303.639267 454.465039 
L 315.639267 454.465039 
" style="fill: none; stroke: #000000; stroke-width: 1.5; stroke-linecap: square"/>
    </g>
    <g id="text_33">
     <text style="font: 12px 'Arial'; text-anchor: start" x="325.239267" y="458.665039" transform="rotate(-0 325.239267 458.665039)">Osnovni</text>
    </g>
    <g id="line2d_81">
     <path d="M 439.936767 403.541914 
L 451.936767 403.541914 
L 463.936767 403.541914 
" style="fill: none; stroke: #bb5566; stroke-width: 1.5; stroke-linecap: square"/>
    </g>
    <g id="text_34">
     <text style="font: 12px 'Arial'; text-anchor: start" x="473.536767" y="407.741914" transform="rotate(-0 473.536767 407.741914)">RNN Dvaput</text>
    </g>
    <g id="line2d_82">
     <path d="M 439.936767 420.516289 
L 451.936767 420.516289 
L 463.936767 420.516289 
" style="fill: none; stroke-dasharray: 5.55,2.4; stroke-dashoffset: 0; stroke: #bb5566; stroke-width: 1.5"/>
    </g>
    <g id="text_35">
     <text style="font: 12px 'Arial'; text-anchor: start" x="473.536767" y="424.716289" transform="rotate(-0 473.536767 424.716289)">RNN Linearni</text>
    </g>
    <g id="line2d_83">
     <path d="M 439.936767 437.490664 
L 451.936767 437.490664 
L 463.936767 437.490664 
" style="fill: none; stroke: #bb5566; stroke-width: 1.5; stroke-linecap: square"/>
    </g>
    <g id="text_36">
     <text style="font: 12px 'Arial'; text-anchor: start" x="473.536767" y="441.690664" transform="rotate(-0 473.536767 441.690664)">RNN Referentni</text>
    </g>
    <g id="line2d_84">
     <path d="M 439.936767 454.465039 
L 451.936767 454.465039 
L 463.936767 454.465039 
" style="fill: none; stroke: #bb5566; stroke-width: 1.5; stroke-linecap: square"/>
    </g>
    <g id="text_37">
     <text style="font: 12px 'Arial'; text-anchor: start" x="473.536767" y="458.665039" transform="rotate(-0 473.536767 458.665039)">RNN Treći</text>
    </g>
   </g>
  </g>
 </g>
 <defs>
  <clipPath id="pcc312b29f1">
   <rect x="49.715" y="24.12" width="461.338583" height="147.330709"/>
  </clipPath>
  <clipPath id="p1f78d57965">
   <rect x="49.715" y="200.91685" width="461.338583" height="147.330709"/>
  </clipPath>
 </defs>
</svg>
