<?xml version="1.0" encoding="utf-8" standalone="no"?>
<!DOCTYPE svg PUBLIC "-//W3C//DTD SVG 1.1//EN"
  "http://www.w3.org/Graphics/SVG/1.1/DTD/svg11.dtd">
<svg xmlns:xlink="http://www.w3.org/1999/xlink" width="573.665517pt" height="484.735584pt" viewBox="0 0 573.665517 484.735584" xmlns="http://www.w3.org/2000/svg" version="1.1">
 <metadata>
  <rdf:RDF xmlns:dc="http://purl.org/dc/elements/1.1/" xmlns:cc="http://creativecommons.org/ns#" xmlns:rdf="http://www.w3.org/1999/02/22-rdf-syntax-ns#">
   <cc:Work>
    <dc:type rdf:resource="http://purl.org/dc/dcmitype/StillImage"/>
    <dc:date>2024-10-16T10:20:37.659266</dc:date>
    <dc:format>image/svg+xml</dc:format>
    <dc:creator>
     <cc:Agent>
      <dc:title>Matplotlib v3.7.0, https://matplotlib.org/</dc:title>
     </cc:Agent>
    </dc:creator>
   </cc:Work>
  </rdf:RDF>
 </metadata>
 <defs>
  <style type="text/css">*{stroke-linejoin: round; stroke-linecap: butt}</style>
 </defs>
 <g id="figure_1">
  <g id="patch_1">
   <path d="M 0 484.735584 
L 573.665517 484.735584 
L 573.665517 0 
L 0 0 
z
" style="fill: #ffffff"/>
  </g>
  <g id="axes_1">
   <g id="patch_2">
    <path d="M 53.15 94.582513 
L 514.488583 94.582513 
L 514.488583 24.12 
L 53.15 24.12 
z
" style="fill: #ffffff"/>
   </g>
   <g id="matplotlib.axis_1"/>
   <g id="matplotlib.axis_2">
    <g id="ytick_1">
     <g id="line2d_1">
      <defs>
       <path id="m6819d3258a" d="M 0 0 
L -3.5 0 
" style="stroke: #000000; stroke-width: 0.8"/>
      </defs>
      <g>
       <use xlink:href="#m6819d3258a" x="53.15" y="80.707212" style="stroke: #000000; stroke-width: 0.8"/>
      </g>
     </g>
     <g id="text_1">
      <text style="font: 12px 'Arial'; text-anchor: end" x="46.15" y="85.001899" transform="rotate(-0 46.15 85.001899)">−2.5</text>
     </g>
    </g>
    <g id="ytick_2">
     <g id="line2d_2">
      <g>
       <use xlink:href="#m6819d3258a" x="53.15" y="42.992319" style="stroke: #000000; stroke-width: 0.8"/>
      </g>
     </g>
     <g id="text_2">
      <text style="font: 12px 'Arial'; text-anchor: end" x="46.15" y="47.287006" transform="rotate(-0 46.15 47.287006)">0.0</text>
     </g>
    </g>
    <g id="text_3">
     <text style="font: 12px 'Arial'; text-anchor: middle" x="15.935625" y="59.351256" transform="rotate(-90 15.935625 59.351256)">Smjer</text>
    </g>
   </g>
   <g id="line2d_3">
    <path d="M 53.15 30.976233 
L 69.626378 31.949638 
L 86.102756 32.910256 
L 102.579134 33.44662 
L 184.961024 36.056973 
L 349.724803 40.213879 
L 514.488583 43.383681 
" clip-path="url(#p4947502b94)" style="fill: none; stroke-dasharray: 5.55,2.4; stroke-dashoffset: 0; stroke: #6699cc; stroke-width: 1.5"/>
   </g>
   <g id="line2d_4">
    <path d="M 53.15 31.144704 
L 69.626378 32.057443 
L 86.102756 32.882914 
L 102.579134 33.488804 
L 184.961024 36.273178 
L 349.724803 40.136327 
L 514.488583 42.739845 
" clip-path="url(#p4947502b94)" style="fill: none; stroke-dasharray: 1.5,2.475; stroke-dashoffset: 0; stroke: #6699cc; stroke-width: 1.5"/>
   </g>
   <g id="line2d_5">
    <path d="M 53.15 30.806186 
L 69.626378 32.28209 
L 86.102756 33.275565 
L 102.579134 34.028974 
L 184.961024 36.62126 
L 349.724803 40.377873 
L 514.488583 42.988237 
" clip-path="url(#p4947502b94)" style="fill: none; stroke-dasharray: 9.6,2.4,1.5,2.4; stroke-dashoffset: 0; stroke: #6699cc; stroke-width: 1.5"/>
   </g>
   <g id="line2d_6">
    <path d="M 53.15 31.032528 
L 69.626378 32.115429 
L 86.102756 33.132352 
L 102.579134 33.733601 
L 184.961024 36.485593 
L 349.724803 40.356971 
L 514.488583 43.186508 
" clip-path="url(#p4947502b94)" style="fill: none; stroke: #6699cc; stroke-width: 1.5; stroke-linecap: square"/>
   </g>
   <g id="line2d_7">
    <path d="M 53.15 30.180012 
L 69.626378 31.282259 
L 86.102756 32.126429 
L 102.579134 32.800894 
L 184.961024 35.356487 
L 349.724803 38.728868 
L 514.488583 40.70941 
" clip-path="url(#p4947502b94)" style="fill: none; stroke-dasharray: 5.55,2.4; stroke-dashoffset: 0; stroke: #004488; stroke-width: 1.5"/>
   </g>
   <g id="line2d_8">
    <path d="M 53.15 87.868019 
L 69.626378 87.86905 
L 86.102756 87.877709 
L 102.579134 87.887096 
L 184.961024 87.946927 
L 349.724803 88.271814 
L 514.488583 88.710637 
" clip-path="url(#p4947502b94)" style="fill: none; stroke: #004488; stroke-width: 1.5; stroke-linecap: square"/>
   </g>
   <g id="line2d_9">
    <path d="M 53.15 87.868019 
L 69.626378 87.86905 
L 86.102756 87.877709 
L 102.579134 87.887096 
L 184.961024 87.946927 
L 349.724803 88.271814 
L 514.488583 88.710637 
" clip-path="url(#p4947502b94)" style="fill: none; stroke-dasharray: 9.6,2.4,1.5,2.4; stroke-dashoffset: 0; stroke: #004488; stroke-width: 1.5"/>
   </g>
   <g id="line2d_10">
    <path d="M 53.15 87.868019 
L 69.626378 87.86905 
L 86.102756 87.877709 
L 102.579134 87.887096 
L 184.961024 87.946927 
L 349.724803 88.271814 
L 514.488583 88.710637 
" clip-path="url(#p4947502b94)" style="fill: none; stroke-dasharray: 1.5,2.475; stroke-dashoffset: 0; stroke: #004488; stroke-width: 1.5"/>
   </g>
   <g id="line2d_11">
    <path d="M 53.15 30.183552 
L 69.626378 31.246491 
L 86.102756 32.619124 
L 102.579134 32.7884 
L 184.961024 35.219263 
L 349.724803 38.294944 
L 514.488583 40.098689 
" clip-path="url(#p4947502b94)" style="fill: none; stroke-dasharray: 5.55,2.4; stroke-dashoffset: 0; stroke: #ddaa33; stroke-width: 1.5"/>
   </g>
   <g id="line2d_12">
    <path d="M 53.15 87.868019 
L 69.626378 87.86905 
L 86.102756 87.877709 
L 102.579134 87.887096 
L 184.961024 87.946927 
L 349.724803 88.271814 
L 514.488583 88.710637 
" clip-path="url(#p4947502b94)" style="fill: none; stroke: #ddaa33; stroke-width: 1.5; stroke-linecap: square"/>
   </g>
   <g id="line2d_13">
    <path d="M 53.15 87.868019 
L 69.626378 87.86905 
L 86.102756 87.877709 
L 102.579134 87.887096 
L 184.961024 87.946927 
L 349.724803 88.271814 
L 514.488583 88.710637 
" clip-path="url(#p4947502b94)" style="fill: none; stroke-dasharray: 9.6,2.4,1.5,2.4; stroke-dashoffset: 0; stroke: #ddaa33; stroke-width: 1.5"/>
   </g>
   <g id="line2d_14">
    <path d="M 53.15 87.868019 
L 69.626378 87.86905 
L 86.102756 87.877709 
L 102.579134 87.887096 
L 184.961024 87.946927 
L 349.724803 88.271814 
L 514.488583 88.710637 
" clip-path="url(#p4947502b94)" style="fill: none; stroke-dasharray: 1.5,2.475; stroke-dashoffset: 0; stroke: #ddaa33; stroke-width: 1.5"/>
   </g>
   <g id="line2d_15">
    <path d="M 53.15 29.991876 
L 69.626378 31.037777 
L 86.102756 31.987586 
L 102.579134 32.663583 
L 184.961024 35.163437 
L 349.724803 38.674159 
L 514.488583 40.517069 
" clip-path="url(#p4947502b94)" style="fill: none; stroke-dasharray: 5.55,2.4; stroke-dashoffset: 0; stroke: #bb5566; stroke-width: 1.5"/>
   </g>
   <g id="line2d_16">
    <path d="M 53.15 87.868019 
L 69.626378 87.86905 
L 86.102756 87.877709 
L 102.579134 87.887096 
L 184.961024 87.946927 
L 349.724803 88.271814 
L 514.488583 88.710637 
" clip-path="url(#p4947502b94)" style="fill: none; stroke: #bb5566; stroke-width: 1.5; stroke-linecap: square"/>
   </g>
   <g id="line2d_17">
    <path d="M 53.15 87.868019 
L 69.626378 87.86905 
L 86.102756 87.877709 
L 102.579134 87.887096 
L 184.961024 87.946927 
L 349.724803 88.271814 
L 514.488583 88.710637 
" clip-path="url(#p4947502b94)" style="fill: none; stroke-dasharray: 9.6,2.4,1.5,2.4; stroke-dashoffset: 0; stroke: #bb5566; stroke-width: 1.5"/>
   </g>
   <g id="line2d_18">
    <path d="M 53.15 87.868019 
L 69.626378 87.86905 
L 86.102756 87.877709 
L 102.579134 87.887096 
L 184.961024 87.946927 
L 349.724803 88.271814 
L 514.488583 88.710637 
" clip-path="url(#p4947502b94)" style="fill: none; stroke-dasharray: 1.5,2.475; stroke-dashoffset: 0; stroke: #bb5566; stroke-width: 1.5"/>
   </g>
   <g id="line2d_19">
    <path d="M 53.15 31.343756 
L 69.626378 31.807158 
L 86.102756 32.240877 
L 102.579134 32.649651 
L 184.961024 34.257611 
L 349.724803 36.321808 
L 514.488583 37.679027 
" clip-path="url(#p4947502b94)" style="fill: none; stroke: #000000; stroke-width: 1.5; stroke-linecap: square"/>
   </g>
   <g id="patch_3">
    <path d="M 53.15 94.582513 
L 53.15 24.12 
" style="fill: none; stroke: #000000; stroke-width: 0.8; stroke-linejoin: miter; stroke-linecap: square"/>
   </g>
   <g id="patch_4">
    <path d="M 514.488583 94.582513 
L 514.488583 24.12 
" style="fill: none; stroke: #000000; stroke-width: 0.8; stroke-linejoin: miter; stroke-linecap: square"/>
   </g>
   <g id="patch_5">
    <path d="M 53.15 94.582513 
L 514.488583 94.582513 
" style="fill: none; stroke: #000000; stroke-width: 0.8; stroke-linejoin: miter; stroke-linecap: square"/>
   </g>
   <g id="patch_6">
    <path d="M 53.15 24.12 
L 514.488583 24.12 
" style="fill: none; stroke: #000000; stroke-width: 0.8; stroke-linejoin: miter; stroke-linecap: square"/>
   </g>
   <g id="text_4">
    <!-- $R^{2}$ (%) -->
    <g transform="translate(265.339291 18.12)">
     <text>
      <tspan style="font: oblique 12px 'DejaVu Sans'" x="0" y="-0.171875">R</tspan>
      <tspan style="font: 8.4px 'DejaVu Sans'" x="9.180078" y="-4.765625">2</tspan>
      <tspan style="font: 12px 'Arial'" x="14.852539 18.186523 22.182617 32.852539" y="-0.171875"> (%)</tspan>
     </text>
    </g>
   </g>
  </g>
  <g id="axes_2">
   <g id="patch_7">
    <path d="M 53.15 179.137528 
L 514.488583 179.137528 
L 514.488583 108.675015 
L 53.15 108.675015 
z
" style="fill: #ffffff"/>
   </g>
   <g id="matplotlib.axis_3"/>
   <g id="matplotlib.axis_4">
    <g id="ytick_3">
     <g id="line2d_20">
      <g>
       <use xlink:href="#m6819d3258a" x="53.15" y="161.899008" style="stroke: #000000; stroke-width: 0.8"/>
      </g>
     </g>
     <g id="text_5">
      <text style="font: 12px 'Arial'; text-anchor: end" x="46.15" y="166.193695" transform="rotate(-0 46.15 166.193695)">0</text>
     </g>
    </g>
    <g id="ytick_4">
     <g id="line2d_21">
      <g>
       <use xlink:href="#m6819d3258a" x="53.15" y="112.361976" style="stroke: #000000; stroke-width: 0.8"/>
      </g>
     </g>
     <g id="text_6">
      <text style="font: 12px 'Arial'; text-anchor: end" x="46.15" y="116.656664" transform="rotate(-0 46.15 116.656664)">1</text>
     </g>
    </g>
    <g id="text_7">
     <!-- $y$ pomak -->
     <g transform="translate(32.956875 167.186272) rotate(-90)">
      <text>
       <tspan style="font: oblique 12px 'DejaVu Sans'" x="0" y="-0.40625">y</tspan>
       <tspan style="font: 12px 'Arial'" x="7.101562 10.435547 17.109375 23.783203 33.779297 40.453125" y="-0.40625"> pomak</tspan>
      </text>
     </g>
    </g>
   </g>
   <g id="line2d_22">
    <path d="M 53.15 115.287097 
L 69.626378 117.025991 
L 86.102756 118.722158 
L 102.579134 120.663894 
L 184.961024 139.575621 
L 349.724803 152.15129 
L 514.488583 158.464292 
" clip-path="url(#pa2add42f93)" style="fill: none; stroke-dasharray: 5.55,2.4; stroke-dashoffset: 0; stroke: #6699cc; stroke-width: 1.5"/>
   </g>
   <g id="line2d_23">
    <path d="M 53.15 115.740885 
L 69.626378 117.343435 
L 86.102756 118.468071 
L 102.579134 120.290372 
L 184.961024 131.360791 
L 349.724803 147.602882 
L 514.488583 160.663534 
" clip-path="url(#pa2add42f93)" style="fill: none; stroke-dasharray: 1.5,2.475; stroke-dashoffset: 0; stroke: #6699cc; stroke-width: 1.5"/>
   </g>
   <g id="line2d_24">
    <path d="M 53.15 115.850288 
L 69.626378 118.173199 
L 86.102756 120.480969 
L 102.579134 122.537591 
L 184.961024 134.042503 
L 349.724803 153.305369 
L 514.488583 165.344395 
" clip-path="url(#pa2add42f93)" style="fill: none; stroke-dasharray: 9.6,2.4,1.5,2.4; stroke-dashoffset: 0; stroke: #6699cc; stroke-width: 1.5"/>
   </g>
   <g id="line2d_25">
    <path d="M 53.15 115.46768 
L 69.626378 117.800455 
L 86.102756 119.913361 
L 102.579134 122.082226 
L 184.961024 131.194332 
L 349.724803 150.067979 
L 514.488583 158.429248 
" clip-path="url(#pa2add42f93)" style="fill: none; stroke: #6699cc; stroke-width: 1.5; stroke-linecap: square"/>
   </g>
   <g id="line2d_26">
    <path d="M 53.15 114.666565 
L 69.626378 118.308947 
L 86.102756 120.928492 
L 102.579134 124.338643 
L 184.961024 139.677125 
L 349.724803 161.13423 
L 514.488583 171.043471 
" clip-path="url(#pa2add42f93)" style="fill: none; stroke-dasharray: 5.55,2.4; stroke-dashoffset: 0; stroke: #004488; stroke-width: 1.5"/>
   </g>
   <g id="line2d_27">
    <path d="M 53.15 114.546891 
L 69.626378 118.563843 
L 86.102756 122.225808 
L 102.579134 125.013062 
L 184.961024 139.183838 
L 349.724803 160.611038 
L 514.488583 172.028356 
" clip-path="url(#pa2add42f93)" style="fill: none; stroke: #004488; stroke-width: 1.5; stroke-linecap: square"/>
   </g>
   <g id="line2d_28">
    <path d="M 53.15 115.195854 
L 69.626378 117.654275 
L 86.102756 122.016689 
L 102.579134 124.970828 
L 184.961024 139.399412 
L 349.724803 161.366669 
L 514.488583 171.810949 
" clip-path="url(#pa2add42f93)" style="fill: none; stroke-dasharray: 9.6,2.4,1.5,2.4; stroke-dashoffset: 0; stroke: #004488; stroke-width: 1.5"/>
   </g>
   <g id="line2d_29">
    <path d="M 53.15 114.755452 
L 69.626378 117.002813 
L 86.102756 121.287652 
L 102.579134 124.550095 
L 184.961024 139.312504 
L 349.724803 160.678097 
L 514.488583 170.809539 
" clip-path="url(#pa2add42f93)" style="fill: none; stroke-dasharray: 1.5,2.475; stroke-dashoffset: 0; stroke: #004488; stroke-width: 1.5"/>
   </g>
   <g id="line2d_30">
    <path d="M 53.15 115.764849 
L 69.626378 117.750617 
L 86.102756 121.208164 
L 102.579134 125.343178 
L 184.961024 138.834414 
L 349.724803 159.350192 
L 514.488583 170.942962 
" clip-path="url(#pa2add42f93)" style="fill: none; stroke-dasharray: 5.55,2.4; stroke-dashoffset: 0; stroke: #ddaa33; stroke-width: 1.5"/>
   </g>
   <g id="line2d_31">
    <path d="M 53.15 115.005483 
L 69.626378 118.305426 
L 86.102756 121.382014 
L 102.579134 124.200313 
L 184.961024 138.733133 
L 349.724803 160.77356 
L 514.488583 170.224344 
" clip-path="url(#pa2add42f93)" style="fill: none; stroke: #ddaa33; stroke-width: 1.5; stroke-linecap: square"/>
   </g>
   <g id="line2d_32">
    <path d="M 53.15 115.408933 
L 69.626378 116.865175 
L 86.102756 120.95507 
L 102.579134 123.640262 
L 184.961024 139.055669 
L 349.724803 161.051211 
L 514.488583 172.020133 
" clip-path="url(#pa2add42f93)" style="fill: none; stroke-dasharray: 9.6,2.4,1.5,2.4; stroke-dashoffset: 0; stroke: #ddaa33; stroke-width: 1.5"/>
   </g>
   <g id="line2d_33">
    <path d="M 53.15 145.309302 
L 69.626378 145.303222 
L 86.102756 138.43994 
L 102.579134 133.856999 
L 184.961024 139.483274 
L 349.724803 160.362234 
L 514.488583 168.141207 
" clip-path="url(#pa2add42f93)" style="fill: none; stroke-dasharray: 1.5,2.475; stroke-dashoffset: 0; stroke: #ddaa33; stroke-width: 1.5"/>
   </g>
   <g id="line2d_34">
    <path d="M 53.15 138.642076 
L 69.626378 123.936003 
L 86.102756 130.635864 
L 102.579134 128.243855 
L 184.961024 139.396991 
L 349.724803 162.186731 
L 514.488583 170.584465 
" clip-path="url(#pa2add42f93)" style="fill: none; stroke-dasharray: 5.55,2.4; stroke-dashoffset: 0; stroke: #bb5566; stroke-width: 1.5"/>
   </g>
   <g id="line2d_35">
    <path d="M 53.15 134.614443 
L 69.626378 141.311578 
L 86.102756 125.612147 
L 102.579134 127.828283 
L 184.961024 140.032143 
L 349.724803 161.622165 
L 514.488583 171.752651 
" clip-path="url(#pa2add42f93)" style="fill: none; stroke: #bb5566; stroke-width: 1.5; stroke-linecap: square"/>
   </g>
   <g id="line2d_36">
    <path d="M 53.15 125.242839 
L 69.626378 120.960849 
L 86.102756 122.078767 
L 102.579134 124.145199 
L 184.961024 139.360446 
L 349.724803 163.322651 
L 514.488583 173.265652 
" clip-path="url(#pa2add42f93)" style="fill: none; stroke-dasharray: 9.6,2.4,1.5,2.4; stroke-dashoffset: 0; stroke: #bb5566; stroke-width: 1.5"/>
   </g>
   <g id="line2d_37">
    <path d="M 53.15 164.121783 
L 69.626378 156.959401 
L 86.102756 156.133896 
L 102.579134 162.602646 
L 184.961024 148.127054 
L 349.724803 167.651123 
L 514.488583 171.648398 
" clip-path="url(#pa2add42f93)" style="fill: none; stroke-dasharray: 1.5,2.475; stroke-dashoffset: 0; stroke: #bb5566; stroke-width: 1.5"/>
   </g>
   <g id="line2d_38">
    <path d="M 53.15 115.988461 
L 69.626378 117.367267 
L 86.102756 118.870478 
L 102.579134 120.42792 
L 184.961024 128.214559 
L 349.724803 141.219924 
L 514.488583 149.875958 
" clip-path="url(#pa2add42f93)" style="fill: none; stroke: #000000; stroke-width: 1.5; stroke-linecap: square"/>
   </g>
   <g id="patch_8">
    <path d="M 53.15 179.137528 
L 53.15 108.675015 
" style="fill: none; stroke: #000000; stroke-width: 0.8; stroke-linejoin: miter; stroke-linecap: square"/>
   </g>
   <g id="patch_9">
    <path d="M 514.488583 179.137528 
L 514.488583 108.675015 
" style="fill: none; stroke: #000000; stroke-width: 0.8; stroke-linejoin: miter; stroke-linecap: square"/>
   </g>
   <g id="patch_10">
    <path d="M 53.15 179.137528 
L 514.488583 179.137528 
" style="fill: none; stroke: #000000; stroke-width: 0.8; stroke-linejoin: miter; stroke-linecap: square"/>
   </g>
   <g id="patch_11">
    <path d="M 53.15 108.675015 
L 514.488583 108.675015 
" style="fill: none; stroke: #000000; stroke-width: 0.8; stroke-linejoin: miter; stroke-linecap: square"/>
   </g>
  </g>
  <g id="axes_3">
   <g id="patch_12">
    <path d="M 53.15 263.692544 
L 514.488583 263.692544 
L 514.488583 193.230031 
L 53.15 193.230031 
z
" style="fill: #ffffff"/>
   </g>
   <g id="matplotlib.axis_5"/>
   <g id="matplotlib.axis_6">
    <g id="ytick_5">
     <g id="line2d_39">
      <g>
       <use xlink:href="#m6819d3258a" x="53.15" y="245.174442" style="stroke: #000000; stroke-width: 0.8"/>
      </g>
     </g>
     <g id="text_8">
      <text style="font: 12px 'Arial'; text-anchor: end" x="46.15" y="249.46913" transform="rotate(-0 46.15 249.46913)">0</text>
     </g>
    </g>
    <g id="ytick_6">
     <g id="line2d_40">
      <g>
       <use xlink:href="#m6819d3258a" x="53.15" y="197.622408" style="stroke: #000000; stroke-width: 0.8"/>
      </g>
     </g>
     <g id="text_9">
      <text style="font: 12px 'Arial'; text-anchor: end" x="46.15" y="201.917095" transform="rotate(-0 46.15 201.917095)">1</text>
     </g>
    </g>
    <g id="text_10">
     <!-- $x$ pomak -->
     <g transform="translate(33.076875 251.741287) rotate(-90)">
      <text>
       <tspan style="font: oblique 12px 'DejaVu Sans'" x="0" y="-0.40625">x</tspan>
       <tspan style="font: 12px 'Arial'" x="7.101562 10.435547 17.109375 23.783203 33.779297 40.453125" y="-0.40625"> pomak</tspan>
      </text>
     </g>
    </g>
   </g>
   <g id="line2d_41">
    <path d="M 53.15 199.865846 
L 69.626378 201.510703 
L 86.102756 203.461437 
L 102.579134 204.953523 
L 184.961024 221.291191 
L 349.724803 238.329048 
L 514.488583 243.786346 
" clip-path="url(#p9808b66fcc)" style="fill: none; stroke-dasharray: 5.55,2.4; stroke-dashoffset: 0; stroke: #6699cc; stroke-width: 1.5"/>
   </g>
   <g id="line2d_42">
    <path d="M 53.15 199.989619 
L 69.626378 201.755259 
L 86.102756 203.414365 
L 102.579134 205.217983 
L 184.961024 214.39606 
L 349.724803 233.735226 
L 514.488583 248.138591 
" clip-path="url(#p9808b66fcc)" style="fill: none; stroke-dasharray: 1.5,2.475; stroke-dashoffset: 0; stroke: #6699cc; stroke-width: 1.5"/>
   </g>
   <g id="line2d_43">
    <path d="M 53.15 200.240125 
L 69.626378 202.070969 
L 86.102756 203.841061 
L 102.579134 206.038443 
L 184.961024 218.18658 
L 349.724803 243.193036 
L 514.488583 256.954506 
" clip-path="url(#p9808b66fcc)" style="fill: none; stroke-dasharray: 9.6,2.4,1.5,2.4; stroke-dashoffset: 0; stroke: #6699cc; stroke-width: 1.5"/>
   </g>
   <g id="line2d_44">
    <path d="M 53.15 199.993202 
L 69.626378 201.978189 
L 86.102756 203.80662 
L 102.579134 206.224414 
L 184.961024 215.899846 
L 349.724803 236.865732 
L 514.488583 250.009936 
" clip-path="url(#p9808b66fcc)" style="fill: none; stroke: #6699cc; stroke-width: 1.5; stroke-linecap: square"/>
   </g>
   <g id="line2d_45">
    <path d="M 53.15 199.720919 
L 69.626378 202.469233 
L 86.102756 206.093723 
L 102.579134 208.3002 
L 184.961024 222.461153 
L 349.724803 246.553976 
L 514.488583 257.057044 
" clip-path="url(#p9808b66fcc)" style="fill: none; stroke-dasharray: 5.55,2.4; stroke-dashoffset: 0; stroke: #004488; stroke-width: 1.5"/>
   </g>
   <g id="line2d_46">
    <path d="M 53.15 199.717078 
L 69.626378 202.962779 
L 86.102756 205.508632 
L 102.579134 208.297424 
L 184.961024 222.329646 
L 349.724803 245.129981 
L 514.488583 257.227831 
" clip-path="url(#p9808b66fcc)" style="fill: none; stroke: #004488; stroke-width: 1.5; stroke-linecap: square"/>
   </g>
   <g id="line2d_47">
    <path d="M 53.15 199.13337 
L 69.626378 202.681588 
L 86.102756 206.298348 
L 102.579134 208.837924 
L 184.961024 223.097778 
L 349.724803 245.933204 
L 514.488583 256.724412 
" clip-path="url(#p9808b66fcc)" style="fill: none; stroke-dasharray: 9.6,2.4,1.5,2.4; stroke-dashoffset: 0; stroke: #004488; stroke-width: 1.5"/>
   </g>
   <g id="line2d_48">
    <path d="M 53.15 199.37383 
L 69.626378 202.510095 
L 86.102756 205.56435 
L 102.579134 208.725878 
L 184.961024 222.837175 
L 349.724803 244.625767 
L 514.488583 256.103903 
" clip-path="url(#p9808b66fcc)" style="fill: none; stroke-dasharray: 1.5,2.475; stroke-dashoffset: 0; stroke: #004488; stroke-width: 1.5"/>
   </g>
   <g id="line2d_49">
    <path d="M 53.15 199.556165 
L 69.626378 202.616192 
L 86.102756 205.353298 
L 102.579134 208.821351 
L 184.961024 222.701184 
L 349.724803 246.126226 
L 514.488583 255.246601 
" clip-path="url(#p9808b66fcc)" style="fill: none; stroke-dasharray: 5.55,2.4; stroke-dashoffset: 0; stroke: #ddaa33; stroke-width: 1.5"/>
   </g>
   <g id="line2d_50">
    <path d="M 53.15 199.492087 
L 69.626378 203.08474 
L 86.102756 206.190016 
L 102.579134 208.421328 
L 184.961024 222.446744 
L 349.724803 244.552448 
L 514.488583 256.385187 
" clip-path="url(#p9808b66fcc)" style="fill: none; stroke: #ddaa33; stroke-width: 1.5; stroke-linecap: square"/>
   </g>
   <g id="line2d_51">
    <path d="M 53.15 199.101907 
L 69.626378 202.374003 
L 86.102756 205.380959 
L 102.579134 208.948622 
L 184.961024 222.488183 
L 349.724803 245.487534 
L 514.488583 255.704046 
" clip-path="url(#p9808b66fcc)" style="fill: none; stroke-dasharray: 9.6,2.4,1.5,2.4; stroke-dashoffset: 0; stroke: #ddaa33; stroke-width: 1.5"/>
   </g>
   <g id="line2d_52">
    <path d="M 53.15 216.886881 
L 69.626378 206.78863 
L 86.102756 205.602104 
L 102.579134 208.271094 
L 184.961024 221.950257 
L 349.724803 244.649172 
L 514.488583 254.564202 
" clip-path="url(#p9808b66fcc)" style="fill: none; stroke-dasharray: 1.5,2.475; stroke-dashoffset: 0; stroke: #ddaa33; stroke-width: 1.5"/>
   </g>
   <g id="line2d_53">
    <path d="M 53.15 210.608378 
L 69.626378 221.271025 
L 86.102756 208.145139 
L 102.579134 208.876426 
L 184.961024 222.713128 
L 349.724803 245.789402 
L 514.488583 257.820668 
" clip-path="url(#p9808b66fcc)" style="fill: none; stroke-dasharray: 5.55,2.4; stroke-dashoffset: 0; stroke: #bb5566; stroke-width: 1.5"/>
   </g>
   <g id="line2d_54">
    <path d="M 53.15 210.498335 
L 69.626378 206.713224 
L 86.102756 207.156985 
L 102.579134 210.091506 
L 184.961024 222.673794 
L 349.724803 245.58173 
L 514.488583 257.743871 
" clip-path="url(#p9808b66fcc)" style="fill: none; stroke: #bb5566; stroke-width: 1.5; stroke-linecap: square"/>
   </g>
   <g id="line2d_55">
    <path d="M 53.15 201.500096 
L 69.626378 202.671674 
L 86.102756 206.470917 
L 102.579134 209.645668 
L 184.961024 222.574058 
L 349.724803 247.412442 
L 514.488583 257.406293 
" clip-path="url(#p9808b66fcc)" style="fill: none; stroke-dasharray: 9.6,2.4,1.5,2.4; stroke-dashoffset: 0; stroke: #bb5566; stroke-width: 1.5"/>
   </g>
   <g id="line2d_56">
    <path d="M 53.15 225.614948 
L 69.626378 223.610828 
L 86.102756 231.650846 
L 102.579134 224.813402 
L 184.961024 226.799251 
L 349.724803 245.894046 
L 514.488583 257.004735 
" clip-path="url(#p9808b66fcc)" style="fill: none; stroke-dasharray: 1.5,2.475; stroke-dashoffset: 0; stroke: #bb5566; stroke-width: 1.5"/>
   </g>
   <g id="line2d_57">
    <path d="M 53.15 200.482428 
L 69.626378 201.824635 
L 86.102756 203.25036 
L 102.579134 204.725887 
L 184.961024 212.130796 
L 349.724803 224.95729 
L 514.488583 234.08759 
" clip-path="url(#p9808b66fcc)" style="fill: none; stroke: #000000; stroke-width: 1.5; stroke-linecap: square"/>
   </g>
   <g id="patch_13">
    <path d="M 53.15 263.692544 
L 53.15 193.230031 
" style="fill: none; stroke: #000000; stroke-width: 0.8; stroke-linejoin: miter; stroke-linecap: square"/>
   </g>
   <g id="patch_14">
    <path d="M 514.488583 263.692544 
L 514.488583 193.230031 
" style="fill: none; stroke: #000000; stroke-width: 0.8; stroke-linejoin: miter; stroke-linecap: square"/>
   </g>
   <g id="patch_15">
    <path d="M 53.15 263.692544 
L 514.488583 263.692544 
" style="fill: none; stroke: #000000; stroke-width: 0.8; stroke-linejoin: miter; stroke-linecap: square"/>
   </g>
   <g id="patch_16">
    <path d="M 53.15 193.230031 
L 514.488583 193.230031 
" style="fill: none; stroke: #000000; stroke-width: 0.8; stroke-linejoin: miter; stroke-linecap: square"/>
   </g>
  </g>
  <g id="axes_4">
   <g id="patch_17">
    <path d="M 53.15 348.247559 
L 514.488583 348.247559 
L 514.488583 277.785046 
L 53.15 277.785046 
z
" style="fill: #ffffff"/>
   </g>
   <g id="matplotlib.axis_7">
    <g id="xtick_1">
     <g id="line2d_58">
      <defs>
       <path id="m06e53e7eee" d="M 0 0 
L 0 3.5 
" style="stroke: #000000; stroke-width: 0.8"/>
      </defs>
      <g>
       <use xlink:href="#m06e53e7eee" x="53.15" y="348.247559" style="stroke: #000000; stroke-width: 0.8"/>
      </g>
     </g>
     <g id="text_11">
      <text style="font: 12px 'Arial'; text-anchor: middle" x="53.15" y="363.836934" transform="rotate(-0 53.15 363.836934)">2</text>
     </g>
    </g>
    <g id="xtick_2">
     <g id="line2d_59">
      <g>
       <use xlink:href="#m06e53e7eee" x="69.626378" y="348.247559" style="stroke: #000000; stroke-width: 0.8"/>
      </g>
     </g>
     <g id="text_12">
      <text style="font: 12px 'Arial'; text-anchor: middle" x="69.626378" y="363.836934" transform="rotate(-0 69.626378 363.836934)">3</text>
     </g>
    </g>
    <g id="xtick_3">
     <g id="line2d_60">
      <g>
       <use xlink:href="#m06e53e7eee" x="86.102756" y="348.247559" style="stroke: #000000; stroke-width: 0.8"/>
      </g>
     </g>
     <g id="text_13">
      <text style="font: 12px 'Arial'; text-anchor: middle" x="86.102756" y="363.836934" transform="rotate(-0 86.102756 363.836934)">4</text>
     </g>
    </g>
    <g id="xtick_4">
     <g id="line2d_61">
      <g>
       <use xlink:href="#m06e53e7eee" x="102.579134" y="348.247559" style="stroke: #000000; stroke-width: 0.8"/>
      </g>
     </g>
     <g id="text_14">
      <text style="font: 12px 'Arial'; text-anchor: middle" x="102.579134" y="363.836934" transform="rotate(-0 102.579134 363.836934)">5</text>
     </g>
    </g>
    <g id="xtick_5">
     <g id="line2d_62">
      <g>
       <use xlink:href="#m06e53e7eee" x="184.961024" y="348.247559" style="stroke: #000000; stroke-width: 0.8"/>
      </g>
     </g>
     <g id="text_15">
      <text style="font: 12px 'Arial'; text-anchor: middle" x="184.961024" y="363.836934" transform="rotate(-0 184.961024 363.836934)">10</text>
     </g>
    </g>
    <g id="xtick_6">
     <g id="line2d_63">
      <g>
       <use xlink:href="#m06e53e7eee" x="349.724803" y="348.247559" style="stroke: #000000; stroke-width: 0.8"/>
      </g>
     </g>
     <g id="text_16">
      <text style="font: 12px 'Arial'; text-anchor: middle" x="349.724803" y="363.836934" transform="rotate(-0 349.724803 363.836934)">20</text>
     </g>
    </g>
    <g id="xtick_7">
     <g id="line2d_64">
      <g>
       <use xlink:href="#m06e53e7eee" x="514.488583" y="348.247559" style="stroke: #000000; stroke-width: 0.8"/>
      </g>
     </g>
     <g id="text_17">
      <text style="font: 12px 'Arial'; text-anchor: middle" x="514.488583" y="363.836934" transform="rotate(-0 514.488583 363.836934)">30</text>
     </g>
    </g>
    <g id="text_18">
     <!-- Vrijeme predviđanja ($s$) -->
     <g transform="translate(221.959291 378.981934)">
      <text>
       <tspan style="font: 12px 'Arial'" x="0 8.003906 12 14.666016 17.332031 24.005859 34.001953 40.675781 44.009766 50.683594 54.679688 61.353516 68.027344 74.027344 76.693359 83.367188 90.041016 96.714844 99.380859 106.054688 109.388672 119.636719" y="-0.265625">Vrijeme predviđanja ()</tspan>
       <tspan style="font: oblique 12px 'DejaVu Sans'" x="113.384766" y="-0.265625">s</tspan>
      </text>
     </g>
    </g>
   </g>
   <g id="matplotlib.axis_8">
    <g id="ytick_7">
     <g id="line2d_65">
      <g>
       <use xlink:href="#m6819d3258a" x="53.15" y="327.113723" style="stroke: #000000; stroke-width: 0.8"/>
      </g>
     </g>
     <g id="text_19">
      <text style="font: 12px 'Arial'; text-anchor: end" x="46.15" y="331.408411" transform="rotate(-0 46.15 331.408411)">−1</text>
     </g>
    </g>
    <g id="ytick_8">
     <g id="line2d_66">
      <g>
       <use xlink:href="#m6819d3258a" x="53.15" y="304.764365" style="stroke: #000000; stroke-width: 0.8"/>
      </g>
     </g>
     <g id="text_20">
      <text style="font: 12px 'Arial'; text-anchor: end" x="46.15" y="309.059053" transform="rotate(-0 46.15 309.059053)">0</text>
     </g>
    </g>
    <g id="ytick_9">
     <g id="line2d_67">
      <g>
       <use xlink:href="#m6819d3258a" x="53.15" y="282.415007" style="stroke: #000000; stroke-width: 0.8"/>
      </g>
     </g>
     <g id="text_21">
      <text style="font: 12px 'Arial'; text-anchor: end" x="46.15" y="286.709695" transform="rotate(-0 46.15 286.709695)">1</text>
     </g>
    </g>
    <g id="text_22">
     <text style="font: 12px 'Arial'; text-anchor: middle" x="26.083125" y="313.016303" transform="rotate(-90 26.083125 313.016303)">Brzina</text>
    </g>
   </g>
   <g id="line2d_68">
    <path d="M 53.15 284.418839 
L 69.626378 286.245374 
L 86.102756 287.504103 
L 102.579134 287.843681 
L 184.961024 290.239029 
L 349.724803 294.881296 
L 514.488583 297.251052 
" clip-path="url(#p58c068e181)" style="fill: none; stroke-dasharray: 5.55,2.4; stroke-dashoffset: 0; stroke: #6699cc; stroke-width: 1.5"/>
   </g>
   <g id="line2d_69">
    <path d="M 53.15 284.341381 
L 69.626378 286.112128 
L 86.102756 287.521522 
L 102.579134 288.85459 
L 184.961024 291.713872 
L 349.724803 296.059281 
L 514.488583 298.571832 
" clip-path="url(#p58c068e181)" style="fill: none; stroke-dasharray: 1.5,2.475; stroke-dashoffset: 0; stroke: #6699cc; stroke-width: 1.5"/>
   </g>
   <g id="line2d_70">
    <path d="M 53.15 284.337024 
L 69.626378 286.018949 
L 86.102756 287.689177 
L 102.579134 289.318368 
L 184.961024 293.614566 
L 349.724803 297.138321 
L 514.488583 300.774984 
" clip-path="url(#p58c068e181)" style="fill: none; stroke-dasharray: 9.6,2.4,1.5,2.4; stroke-dashoffset: 0; stroke: #6699cc; stroke-width: 1.5"/>
   </g>
   <g id="line2d_71">
    <path d="M 53.15 284.432917 
L 69.626378 286.250153 
L 86.102756 288.050031 
L 102.579134 289.668648 
L 184.961024 294.036354 
L 349.724803 296.652028 
L 514.488583 300.14026 
" clip-path="url(#p58c068e181)" style="fill: none; stroke: #6699cc; stroke-width: 1.5; stroke-linecap: square"/>
   </g>
   <g id="line2d_72">
    <path d="M 53.15 283.678692 
L 69.626378 284.867233 
L 86.102756 286.157643 
L 102.579134 287.194608 
L 184.961024 290.76671 
L 349.724803 292.451837 
L 514.488583 293.095451 
" clip-path="url(#p58c068e181)" style="fill: none; stroke-dasharray: 5.55,2.4; stroke-dashoffset: 0; stroke: #004488; stroke-width: 1.5"/>
   </g>
   <g id="line2d_73">
    <path d="M 53.15 340.632333 
L 69.626378 340.751004 
L 86.102756 340.844628 
L 102.579134 340.942278 
L 184.961024 341.340871 
L 349.724803 341.909507 
L 514.488583 342.375683 
" clip-path="url(#p58c068e181)" style="fill: none; stroke: #004488; stroke-width: 1.5; stroke-linecap: square"/>
   </g>
   <g id="line2d_74">
    <path d="M 53.15 340.632333 
L 69.626378 340.751007 
L 86.102756 340.844628 
L 102.579134 340.942278 
L 184.961024 341.340871 
L 349.724803 341.909507 
L 514.488583 342.375683 
" clip-path="url(#p58c068e181)" style="fill: none; stroke-dasharray: 9.6,2.4,1.5,2.4; stroke-dashoffset: 0; stroke: #004488; stroke-width: 1.5"/>
   </g>
   <g id="line2d_75">
    <path d="M 53.15 340.632333 
L 69.626378 340.751008 
L 86.102756 340.844628 
L 102.579134 340.942278 
L 184.961024 341.340871 
L 349.724803 341.909507 
L 514.488583 342.375683 
" clip-path="url(#p58c068e181)" style="fill: none; stroke-dasharray: 1.5,2.475; stroke-dashoffset: 0; stroke: #004488; stroke-width: 1.5"/>
   </g>
   <g id="line2d_76">
    <path d="M 53.15 283.656922 
L 69.626378 284.830096 
L 86.102756 286.032423 
L 102.579134 287.175478 
L 184.961024 290.653612 
L 349.724803 292.38957 
L 514.488583 293.179216 
" clip-path="url(#p58c068e181)" style="fill: none; stroke-dasharray: 5.55,2.4; stroke-dashoffset: 0; stroke: #ddaa33; stroke-width: 1.5"/>
   </g>
   <g id="line2d_77">
    <path d="M 53.15 340.632333 
L 69.626378 340.751006 
L 86.102756 340.844628 
L 102.579134 340.942278 
L 184.961024 341.340871 
L 349.724803 341.909507 
L 514.488583 342.375683 
" clip-path="url(#p58c068e181)" style="fill: none; stroke: #ddaa33; stroke-width: 1.5; stroke-linecap: square"/>
   </g>
   <g id="line2d_78">
    <path d="M 53.15 340.632333 
L 69.626378 340.751007 
L 86.102756 340.844628 
L 102.579134 340.942278 
L 184.961024 341.340871 
L 349.724803 341.909507 
L 514.488583 342.375683 
" clip-path="url(#p58c068e181)" style="fill: none; stroke-dasharray: 9.6,2.4,1.5,2.4; stroke-dashoffset: 0; stroke: #ddaa33; stroke-width: 1.5"/>
   </g>
   <g id="line2d_79">
    <path d="M 53.15 340.64387 
L 69.626378 340.751007 
L 86.102756 340.844628 
L 102.579134 340.942278 
L 184.961024 341.340871 
L 349.724803 341.909507 
L 514.488583 342.375683 
" clip-path="url(#p58c068e181)" style="fill: none; stroke-dasharray: 1.5,2.475; stroke-dashoffset: 0; stroke: #ddaa33; stroke-width: 1.5"/>
   </g>
   <g id="line2d_80">
    <path d="M 53.15 283.677342 
L 69.626378 284.813119 
L 86.102756 286.025238 
L 102.579134 287.033094 
L 184.961024 290.434372 
L 349.724803 292.192243 
L 514.488583 293.010164 
" clip-path="url(#p58c068e181)" style="fill: none; stroke-dasharray: 5.55,2.4; stroke-dashoffset: 0; stroke: #bb5566; stroke-width: 1.5"/>
   </g>
   <g id="line2d_81">
    <path d="M 53.15 340.632421 
L 69.626378 340.751007 
L 86.102756 340.844628 
L 102.579134 340.942278 
L 184.961024 341.340871 
L 349.724803 341.909507 
L 514.488583 342.375683 
" clip-path="url(#p58c068e181)" style="fill: none; stroke: #bb5566; stroke-width: 1.5; stroke-linecap: square"/>
   </g>
   <g id="line2d_82">
    <path d="M 53.15 340.632333 
L 69.626378 340.751007 
L 86.102756 340.844628 
L 102.579134 340.942279 
L 184.961024 341.340871 
L 349.724803 341.909507 
L 514.488583 342.375683 
" clip-path="url(#p58c068e181)" style="fill: none; stroke-dasharray: 9.6,2.4,1.5,2.4; stroke-dashoffset: 0; stroke: #bb5566; stroke-width: 1.5"/>
   </g>
   <g id="line2d_83">
    <path d="M 53.15 340.632333 
L 69.626378 340.75101 
L 86.102756 340.844628 
L 102.579134 340.942278 
L 184.961024 341.340871 
L 349.724803 341.909507 
L 514.488583 342.375683 
" clip-path="url(#p58c068e181)" style="fill: none; stroke-dasharray: 1.5,2.475; stroke-dashoffset: 0; stroke: #bb5566; stroke-width: 1.5"/>
   </g>
   <g id="line2d_84">
    <path d="M 53.15 283.865989 
L 69.626378 284.522161 
L 86.102756 285.191431 
L 102.579134 285.843175 
L 184.961024 288.427711 
L 349.724803 290.947806 
L 514.488583 292.127528 
" clip-path="url(#p58c068e181)" style="fill: none; stroke: #000000; stroke-width: 1.5; stroke-linecap: square"/>
   </g>
   <g id="line2d_85">
    <path d="M 20.197244 354.119435 
" clip-path="url(#p58c068e181)" style="fill: none; stroke: #004488; stroke-width: 1.5; stroke-linecap: square"/>
   </g>
   <g id="line2d_86">
    <path d="M 20.197244 354.119435 
" clip-path="url(#p58c068e181)" style="fill: none; stroke-dasharray: 5.55,2.4; stroke-dashoffset: 0; stroke: #004488; stroke-width: 1.5"/>
   </g>
   <g id="line2d_87">
    <path d="M 20.197244 354.119435 
" clip-path="url(#p58c068e181)" style="fill: none; stroke-dasharray: 5.55,2.4; stroke-dashoffset: 0; stroke: #004488; stroke-width: 1.5"/>
   </g>
   <g id="line2d_88">
    <path d="M 20.197244 354.119435 
" clip-path="url(#p58c068e181)" style="fill: none; stroke-dasharray: 1.5,2.475; stroke-dashoffset: 0; stroke: #004488; stroke-width: 1.5"/>
   </g>
   <g id="line2d_89">
    <path d="M 20.197244 354.119435 
" clip-path="url(#p58c068e181)" style="fill: none; stroke-dasharray: 9.6,2.4,1.5,2.4; stroke-dashoffset: 0; stroke: #004488; stroke-width: 1.5"/>
   </g>
   <g id="line2d_90">
    <path d="M 20.197244 354.119435 
" clip-path="url(#p58c068e181)" style="fill: none; stroke: #004488; stroke-width: 1.5; stroke-linecap: square"/>
   </g>
   <g id="line2d_91">
    <path d="M 20.197244 354.119435 
" clip-path="url(#p58c068e181)" style="fill: none; stroke: #004488; stroke-width: 1.5; stroke-linecap: square"/>
   </g>
   <g id="line2d_92">
    <path d="M 20.197244 354.119435 
" clip-path="url(#p58c068e181)" style="fill: none; stroke: #004488; stroke-width: 1.5; stroke-linecap: square"/>
   </g>
   <g id="line2d_93">
    <path d="M 20.197244 354.119435 
" clip-path="url(#p58c068e181)" style="fill: none; stroke: #ddaa33; stroke-width: 1.5; stroke-linecap: square"/>
   </g>
   <g id="line2d_94">
    <path d="M 20.197244 354.119435 
" clip-path="url(#p58c068e181)" style="fill: none; stroke-dasharray: 5.55,2.4; stroke-dashoffset: 0; stroke: #ddaa33; stroke-width: 1.5"/>
   </g>
   <g id="line2d_95">
    <path d="M 20.197244 354.119435 
" clip-path="url(#p58c068e181)" style="fill: none; stroke: #ddaa33; stroke-width: 1.5; stroke-linecap: square"/>
   </g>
   <g id="line2d_96">
    <path d="M 20.197244 354.119435 
" clip-path="url(#p58c068e181)" style="fill: none; stroke: #ddaa33; stroke-width: 1.5; stroke-linecap: square"/>
   </g>
   <g id="line2d_97">
    <path d="M 20.197244 354.119435 
" clip-path="url(#p58c068e181)" style="fill: none; stroke: #000000; stroke-width: 1.5; stroke-linecap: square"/>
   </g>
   <g id="line2d_98">
    <path d="M 20.197244 354.119435 
" clip-path="url(#p58c068e181)" style="fill: none; stroke: #bb5566; stroke-width: 1.5; stroke-linecap: square"/>
   </g>
   <g id="line2d_99">
    <path d="M 20.197244 354.119435 
" clip-path="url(#p58c068e181)" style="fill: none; stroke-dasharray: 5.55,2.4; stroke-dashoffset: 0; stroke: #bb5566; stroke-width: 1.5"/>
   </g>
   <g id="line2d_100">
    <path d="M 20.197244 354.119435 
" clip-path="url(#p58c068e181)" style="fill: none; stroke: #bb5566; stroke-width: 1.5; stroke-linecap: square"/>
   </g>
   <g id="line2d_101">
    <path d="M 20.197244 354.119435 
" clip-path="url(#p58c068e181)" style="fill: none; stroke: #bb5566; stroke-width: 1.5; stroke-linecap: square"/>
   </g>
   <g id="patch_18">
    <path d="M 53.15 348.247559 
L 53.15 277.785046 
" style="fill: none; stroke: #000000; stroke-width: 0.8; stroke-linejoin: miter; stroke-linecap: square"/>
   </g>
   <g id="patch_19">
    <path d="M 514.488583 348.247559 
L 514.488583 277.785046 
" style="fill: none; stroke: #000000; stroke-width: 0.8; stroke-linejoin: miter; stroke-linecap: square"/>
   </g>
   <g id="patch_20">
    <path d="M 53.15 348.247559 
L 514.488583 348.247559 
" style="fill: none; stroke: #000000; stroke-width: 0.8; stroke-linejoin: miter; stroke-linecap: square"/>
   </g>
   <g id="patch_21">
    <path d="M 53.15 277.785046 
L 514.488583 277.785046 
" style="fill: none; stroke: #000000; stroke-width: 0.8; stroke-linejoin: miter; stroke-linecap: square"/>
   </g>
   <g id="legend_1">
    <g id="patch_22">
     <path d="M 15.416142 477.535584 
L 564.065517 477.535584 
Q 566.465517 477.535584 566.465517 475.135584 
L 566.465517 390.456834 
Q 566.465517 388.056834 564.065517 388.056834 
L 15.416142 388.056834 
Q 13.016142 388.056834 13.016142 390.456834 
L 13.016142 475.135584 
Q 13.016142 477.535584 15.416142 477.535584 
z
" style="fill: #ffffff; opacity: 0.8; stroke: #cccccc; stroke-linejoin: miter"/>
    </g>
    <g id="line2d_102">
     <path d="M 17.816142 397.392459 
L 29.816142 397.392459 
L 41.816142 397.392459 
" style="fill: none; stroke: #004488; stroke-width: 1.5; stroke-linecap: square"/>
    </g>
    <g id="text_23">
     <text style="font: 12px 'Arial'; text-anchor: start" x="51.416142" y="401.592459" transform="rotate(-0 51.416142 401.592459)">GRU Dvaput</text>
    </g>
    <g id="line2d_103">
     <path d="M 17.816142 414.366834 
L 29.816142 414.366834 
L 41.816142 414.366834 
" style="fill: none; stroke-dasharray: 5.55,2.4; stroke-dashoffset: 0; stroke: #004488; stroke-width: 1.5"/>
    </g>
    <g id="text_24">
     <text style="font: 12px 'Arial'; text-anchor: start" x="51.416142" y="418.566834" transform="rotate(-0 51.416142 418.566834)">GRU Linearni</text>
    </g>
    <g id="line2d_104">
     <path d="M 17.816142 431.487459 
L 29.816142 431.487459 
L 41.816142 431.487459 
" style="fill: none; stroke-dasharray: 5.55,2.4; stroke-dashoffset: 0; stroke: #004488; stroke-width: 1.5"/>
    </g>
    <g id="text_25">
     <text style="font: 12px 'Arial'; text-anchor: start" x="51.416142" y="435.687459" transform="rotate(-0 51.416142 435.687459)">GRU Pažnja 1</text>
    </g>
    <g id="line2d_105">
     <path d="M 17.816142 448.748709 
L 29.816142 448.748709 
L 41.816142 448.748709 
" style="fill: none; stroke-dasharray: 1.5,2.475; stroke-dashoffset: 0; stroke: #004488; stroke-width: 1.5"/>
    </g>
    <g id="text_26">
     <text style="font: 12px 'Arial'; text-anchor: start" x="51.416142" y="452.948709" transform="rotate(-0 51.416142 452.948709)">GRU Pažnja 2</text>
    </g>
    <g id="line2d_106">
     <path d="M 17.816142 466.009959 
L 29.816142 466.009959 
L 41.816142 466.009959 
" style="fill: none; stroke-dasharray: 9.6,2.4,1.5,2.4; stroke-dashoffset: 0; stroke: #004488; stroke-width: 1.5"/>
    </g>
    <g id="text_27">
     <text style="font: 12px 'Arial'; text-anchor: start" x="51.416142" y="470.209959" transform="rotate(-0 51.416142 470.209959)">GRU Pažnja 3</text>
    </g>
    <g id="line2d_107">
     <path d="M 152.113017 397.392459 
L 164.113017 397.392459 
L 176.113017 397.392459 
" style="fill: none; stroke: #004488; stroke-width: 1.5; stroke-linecap: square"/>
    </g>
    <g id="text_28">
     <text style="font: 12px 'Arial'; text-anchor: start" x="185.713017" y="401.592459" transform="rotate(-0 185.713017 401.592459)">GRU Pažnja 4</text>
    </g>
    <g id="line2d_108">
     <path d="M 152.113017 414.507459 
L 164.113017 414.507459 
L 176.113017 414.507459 
" style="fill: none; stroke: #004488; stroke-width: 1.5; stroke-linecap: square"/>
    </g>
    <g id="text_29">
     <text style="font: 12px 'Arial'; text-anchor: start" x="185.713017" y="418.707459" transform="rotate(-0 185.713017 418.707459)">GRU Referentni</text>
    </g>
    <g id="line2d_109">
     <path d="M 152.113017 431.481834 
L 164.113017 431.481834 
L 176.113017 431.481834 
" style="fill: none; stroke: #004488; stroke-width: 1.5; stroke-linecap: square"/>
    </g>
    <g id="text_30">
     <text style="font: 12px 'Arial'; text-anchor: start" x="185.713017" y="435.681834" transform="rotate(-0 185.713017 435.681834)">GRU Treći</text>
    </g>
    <g id="line2d_110">
     <path d="M 152.113017 448.602459 
L 164.113017 448.602459 
L 176.113017 448.602459 
" style="fill: none; stroke: #ddaa33; stroke-width: 1.5; stroke-linecap: square"/>
    </g>
    <g id="text_31">
     <text style="font: 12px 'Arial'; text-anchor: start" x="185.713017" y="452.802459" transform="rotate(-0 185.713017 452.802459)">LSTM Dvaput</text>
    </g>
    <g id="line2d_111">
     <path d="M 295.074267 397.392459 
L 307.074267 397.392459 
L 319.074267 397.392459 
" style="fill: none; stroke-dasharray: 5.55,2.4; stroke-dashoffset: 0; stroke: #ddaa33; stroke-width: 1.5"/>
    </g>
    <g id="text_32">
     <text style="font: 12px 'Arial'; text-anchor: start" x="328.674267" y="401.592459" transform="rotate(-0 328.674267 401.592459)">LSTM Linearni</text>
    </g>
    <g id="line2d_112">
     <path d="M 295.074267 414.366834 
L 307.074267 414.366834 
L 319.074267 414.366834 
" style="fill: none; stroke: #ddaa33; stroke-width: 1.5; stroke-linecap: square"/>
    </g>
    <g id="text_33">
     <text style="font: 12px 'Arial'; text-anchor: start" x="328.674267" y="418.566834" transform="rotate(-0 328.674267 418.566834)">LSTM Referentni</text>
    </g>
    <g id="line2d_113">
     <path d="M 295.074267 431.341209 
L 307.074267 431.341209 
L 319.074267 431.341209 
" style="fill: none; stroke: #ddaa33; stroke-width: 1.5; stroke-linecap: square"/>
    </g>
    <g id="text_34">
     <text style="font: 12px 'Arial'; text-anchor: start" x="328.674267" y="435.541209" transform="rotate(-0 328.674267 435.541209)">LSTM Treći</text>
    </g>
    <g id="line2d_114">
     <path d="M 295.074267 448.315584 
L 307.074267 448.315584 
L 319.074267 448.315584 
" style="fill: none; stroke: #000000; stroke-width: 1.5; stroke-linecap: square"/>
    </g>
    <g id="text_35">
     <text style="font: 12px 'Arial'; text-anchor: start" x="328.674267" y="452.515584" transform="rotate(-0 328.674267 452.515584)">Osnovni</text>
    </g>
    <g id="line2d_115">
     <path d="M 443.371767 397.392459 
L 455.371767 397.392459 
L 467.371767 397.392459 
" style="fill: none; stroke: #bb5566; stroke-width: 1.5; stroke-linecap: square"/>
    </g>
    <g id="text_36">
     <text style="font: 12px 'Arial'; text-anchor: start" x="476.971767" y="401.592459" transform="rotate(-0 476.971767 401.592459)">RNN Dvaput</text>
    </g>
    <g id="line2d_116">
     <path d="M 443.371767 414.366834 
L 455.371767 414.366834 
L 467.371767 414.366834 
" style="fill: none; stroke-dasharray: 5.55,2.4; stroke-dashoffset: 0; stroke: #bb5566; stroke-width: 1.5"/>
    </g>
    <g id="text_37">
     <text style="font: 12px 'Arial'; text-anchor: start" x="476.971767" y="418.566834" transform="rotate(-0 476.971767 418.566834)">RNN Linearni</text>
    </g>
    <g id="line2d_117">
     <path d="M 443.371767 431.341209 
L 455.371767 431.341209 
L 467.371767 431.341209 
" style="fill: none; stroke: #bb5566; stroke-width: 1.5; stroke-linecap: square"/>
    </g>
    <g id="text_38">
     <text style="font: 12px 'Arial'; text-anchor: start" x="476.971767" y="435.541209" transform="rotate(-0 476.971767 435.541209)">RNN Referentni</text>
    </g>
    <g id="line2d_118">
     <path d="M 443.371767 448.315584 
L 455.371767 448.315584 
L 467.371767 448.315584 
" style="fill: none; stroke: #bb5566; stroke-width: 1.5; stroke-linecap: square"/>
    </g>
    <g id="text_39">
     <text style="font: 12px 'Arial'; text-anchor: start" x="476.971767" y="452.515584" transform="rotate(-0 476.971767 452.515584)">RNN Treći</text>
    </g>
   </g>
  </g>
 </g>
 <defs>
  <clipPath id="p4947502b94">
   <rect x="53.15" y="24.12" width="461.338583" height="70.462513"/>
  </clipPath>
  <clipPath id="pa2add42f93">
   <rect x="53.15" y="108.675015" width="461.338583" height="70.462513"/>
  </clipPath>
  <clipPath id="p9808b66fcc">
   <rect x="53.15" y="193.230031" width="461.338583" height="70.462513"/>
  </clipPath>
  <clipPath id="p58c068e181">
   <rect x="53.15" y="277.785046" width="461.338583" height="70.462513"/>
  </clipPath>
 </defs>
</svg>
