<?xml version="1.0" encoding="utf-8" standalone="no"?>
<!DOCTYPE svg PUBLIC "-//W3C//DTD SVG 1.1//EN"
  "http://www.w3.org/Graphics/SVG/1.1/DTD/svg11.dtd">
<svg xmlns:xlink="http://www.w3.org/1999/xlink" width="516.276196pt" height="418.366299pt" viewBox="0 0 516.276196 418.366299" xmlns="http://www.w3.org/2000/svg" version="1.1">
 <metadata>
  <rdf:RDF xmlns:dc="http://purl.org/dc/elements/1.1/" xmlns:cc="http://creativecommons.org/ns#" xmlns:rdf="http://www.w3.org/1999/02/22-rdf-syntax-ns#">
   <cc:Work>
    <dc:type rdf:resource="http://purl.org/dc/dcmitype/StillImage"/>
    <dc:date>2024-10-16T10:20:53.293269</dc:date>
    <dc:format>image/svg+xml</dc:format>
    <dc:creator>
     <cc:Agent>
      <dc:title>Matplotlib v3.7.0, https://matplotlib.org/</dc:title>
     </cc:Agent>
    </dc:creator>
   </cc:Work>
  </rdf:RDF>
 </metadata>
 <defs>
  <style type="text/css">*{stroke-linejoin: round; stroke-linecap: butt}</style>
 </defs>
 <g id="figure_1">
  <g id="patch_1">
   <path d="M 0 418.366299 
L 516.276196 418.366299 
L 516.276196 0 
L 0 0 
z
" style="fill: #ffffff"/>
  </g>
  <g id="axes_1">
   <g id="patch_2">
    <path d="M 36.033125 169.650709 
L 497.371708 169.650709 
L 497.371708 22.32 
L 36.033125 22.32 
z
" style="fill: #ffffff"/>
   </g>
   <g id="matplotlib.axis_1"/>
   <g id="matplotlib.axis_2">
    <g id="ytick_1">
     <g id="line2d_1">
      <defs>
       <path id="mf20e74c86a" d="M 0 0 
L -3.5 0 
" style="stroke: #000000; stroke-width: 0.8"/>
      </defs>
      <g>
       <use xlink:href="#mf20e74c86a" x="36.033125" y="163.241424" style="stroke: #000000; stroke-width: 0.8"/>
      </g>
     </g>
     <g id="text_1">
      <text style="font: 12px 'Arial'; text-anchor: end" x="29.033125" y="167.536111" transform="rotate(-0 29.033125 167.536111)">0</text>
     </g>
    </g>
    <g id="ytick_2">
     <g id="line2d_2">
      <g>
       <use xlink:href="#mf20e74c86a" x="36.033125" y="129.264816" style="stroke: #000000; stroke-width: 0.8"/>
      </g>
     </g>
     <g id="text_2">
      <text style="font: 12px 'Arial'; text-anchor: end" x="29.033125" y="133.559503" transform="rotate(-0 29.033125 133.559503)">2</text>
     </g>
    </g>
    <g id="ytick_3">
     <g id="line2d_3">
      <g>
       <use xlink:href="#mf20e74c86a" x="36.033125" y="95.288207" style="stroke: #000000; stroke-width: 0.8"/>
      </g>
     </g>
     <g id="text_3">
      <text style="font: 12px 'Arial'; text-anchor: end" x="29.033125" y="99.582895" transform="rotate(-0 29.033125 99.582895)">4</text>
     </g>
    </g>
    <g id="ytick_4">
     <g id="line2d_4">
      <g>
       <use xlink:href="#mf20e74c86a" x="36.033125" y="61.311599" style="stroke: #000000; stroke-width: 0.8"/>
      </g>
     </g>
     <g id="text_4">
      <text style="font: 12px 'Arial'; text-anchor: end" x="29.033125" y="65.606287" transform="rotate(-0 29.033125 65.606287)">6</text>
     </g>
    </g>
    <g id="ytick_5">
     <g id="line2d_5">
      <g>
       <use xlink:href="#mf20e74c86a" x="36.033125" y="27.334991" style="stroke: #000000; stroke-width: 0.8"/>
      </g>
     </g>
     <g id="text_5">
      <text style="font: 12px 'Arial'; text-anchor: end" x="29.033125" y="31.629679" transform="rotate(-0 29.033125 31.629679)">8</text>
     </g>
    </g>
    <g id="text_6">
     <!-- $x$ i $y$ pomak -->
     <g transform="translate(15.84 127.485354) rotate(-90)">
      <text>
       <tspan style="font: oblique 12px 'DejaVu Sans'" x="0 16.435547" y="-0.40625">xy</tspan>
       <tspan style="font: 12px 'Arial'" x="7.101562 10.435547 13.101562 23.537109 26.871094 33.544922 40.21875 50.214844 56.888672" y="-0.40625"> i  pomak</tspan>
      </text>
     </g>
    </g>
   </g>
   <g id="line2d_6">
    <path d="M 36.033125 157.013558 
L 52.509503 155.550678 
L 68.985881 153.427893 
L 85.462259 150.072692 
L 167.844149 90.00904 
L 332.607928 51.022825 
L 497.371708 38.520938 
" clip-path="url(#p209bba187c)" style="fill: none; stroke-dasharray: 5.55,2.4; stroke-dashoffset: 0; stroke: #6699cc; stroke-width: 1.5"/>
   </g>
   <g id="line2d_7">
    <path d="M 36.033125 157.37315 
L 52.509503 155.54515 
L 68.985881 153.593003 
L 85.462259 151.070329 
L 167.844149 119.43335 
L 332.607928 60.609698 
L 497.371708 34.597559 
" clip-path="url(#p209bba187c)" style="fill: none; stroke: #6699cc; stroke-width: 1.5; stroke-linecap: square"/>
   </g>
   <g id="line2d_8">
    <path d="M 36.033125 154.964124 
L 52.509503 153.976791 
L 68.985881 153.776327 
L 85.462259 152.226384 
L 167.844149 145.287739 
L 332.607928 137.214194 
L 497.371708 128.906755 
" clip-path="url(#p209bba187c)" style="fill: none; stroke: #000000; stroke-width: 1.5; stroke-linecap: square"/>
   </g>
   <g id="patch_3">
    <path d="M 36.033125 169.650709 
L 36.033125 22.32 
" style="fill: none; stroke: #000000; stroke-width: 0.8; stroke-linejoin: miter; stroke-linecap: square"/>
   </g>
   <g id="patch_4">
    <path d="M 497.371708 169.650709 
L 497.371708 22.32 
" style="fill: none; stroke: #000000; stroke-width: 0.8; stroke-linejoin: miter; stroke-linecap: square"/>
   </g>
   <g id="patch_5">
    <path d="M 36.033125 169.650709 
L 497.371708 169.650709 
" style="fill: none; stroke: #000000; stroke-width: 0.8; stroke-linejoin: miter; stroke-linecap: square"/>
   </g>
   <g id="patch_6">
    <path d="M 36.033125 22.32 
L 497.371708 22.32 
" style="fill: none; stroke: #000000; stroke-width: 0.8; stroke-linejoin: miter; stroke-linecap: square"/>
   </g>
   <g id="text_7">
    <!-- Haversineova formula ($km$) -->
    <g transform="translate(193.322416 16.32)">
     <text>
      <tspan style="font: 12px 'Arial'" x="0 8.666016 15.339844 21.339844 28.013672 32.009766 38.009766 40.675781 47.349609 54.023438 60.697266 66.697266 73.371094 76.705078 80.039062 86.712891 90.708984 100.705078 107.378906 110.044922 116.71875 120.052734 142.6875" y="-0.875">Haversineova formula ()</tspan>
      <tspan style="font: oblique 12px 'DejaVu Sans'" x="124.048828 130.998047" y="-0.875">km</tspan>
     </text>
    </g>
   </g>
  </g>
  <g id="axes_2">
   <g id="patch_7">
    <path d="M 36.033125 346.447559 
L 497.371708 346.447559 
L 497.371708 199.11685 
L 36.033125 199.11685 
z
" style="fill: #ffffff"/>
   </g>
   <g id="matplotlib.axis_3">
    <g id="xtick_1">
     <g id="line2d_9">
      <defs>
       <path id="m74744b30e8" d="M 0 0 
L 0 3.5 
" style="stroke: #000000; stroke-width: 0.8"/>
      </defs>
      <g>
       <use xlink:href="#m74744b30e8" x="36.033125" y="346.447559" style="stroke: #000000; stroke-width: 0.8"/>
      </g>
     </g>
     <g id="text_8">
      <text style="font: 12px 'Arial'; text-anchor: middle" x="36.033125" y="362.036934" transform="rotate(-0 36.033125 362.036934)">2</text>
     </g>
    </g>
    <g id="xtick_2">
     <g id="line2d_10">
      <g>
       <use xlink:href="#m74744b30e8" x="52.509503" y="346.447559" style="stroke: #000000; stroke-width: 0.8"/>
      </g>
     </g>
     <g id="text_9">
      <text style="font: 12px 'Arial'; text-anchor: middle" x="52.509503" y="362.036934" transform="rotate(-0 52.509503 362.036934)">3</text>
     </g>
    </g>
    <g id="xtick_3">
     <g id="line2d_11">
      <g>
       <use xlink:href="#m74744b30e8" x="68.985881" y="346.447559" style="stroke: #000000; stroke-width: 0.8"/>
      </g>
     </g>
     <g id="text_10">
      <text style="font: 12px 'Arial'; text-anchor: middle" x="68.985881" y="362.036934" transform="rotate(-0 68.985881 362.036934)">4</text>
     </g>
    </g>
    <g id="xtick_4">
     <g id="line2d_12">
      <g>
       <use xlink:href="#m74744b30e8" x="85.462259" y="346.447559" style="stroke: #000000; stroke-width: 0.8"/>
      </g>
     </g>
     <g id="text_11">
      <text style="font: 12px 'Arial'; text-anchor: middle" x="85.462259" y="362.036934" transform="rotate(-0 85.462259 362.036934)">5</text>
     </g>
    </g>
    <g id="xtick_5">
     <g id="line2d_13">
      <g>
       <use xlink:href="#m74744b30e8" x="167.844149" y="346.447559" style="stroke: #000000; stroke-width: 0.8"/>
      </g>
     </g>
     <g id="text_12">
      <text style="font: 12px 'Arial'; text-anchor: middle" x="167.844149" y="362.036934" transform="rotate(-0 167.844149 362.036934)">10</text>
     </g>
    </g>
    <g id="xtick_6">
     <g id="line2d_14">
      <g>
       <use xlink:href="#m74744b30e8" x="332.607928" y="346.447559" style="stroke: #000000; stroke-width: 0.8"/>
      </g>
     </g>
     <g id="text_13">
      <text style="font: 12px 'Arial'; text-anchor: middle" x="332.607928" y="362.036934" transform="rotate(-0 332.607928 362.036934)">20</text>
     </g>
    </g>
    <g id="xtick_7">
     <g id="line2d_15">
      <g>
       <use xlink:href="#m74744b30e8" x="497.371708" y="346.447559" style="stroke: #000000; stroke-width: 0.8"/>
      </g>
     </g>
     <g id="text_14">
      <text style="font: 12px 'Arial'; text-anchor: middle" x="497.371708" y="362.036934" transform="rotate(-0 497.371708 362.036934)">30</text>
     </g>
    </g>
    <g id="text_15">
     <!-- Vrijeme predviđanja ($s$) -->
     <g transform="translate(204.842416 377.181934)">
      <text>
       <tspan style="font: 12px 'Arial'" x="0 8.003906 12 14.666016 17.332031 24.005859 34.001953 40.675781 44.009766 50.683594 54.679688 61.353516 68.027344 74.027344 76.693359 83.367188 90.041016 96.714844 99.380859 106.054688 109.388672 119.636719" y="-0.265625">Vrijeme predviđanja ()</tspan>
       <tspan style="font: oblique 12px 'DejaVu Sans'" x="113.384766" y="-0.265625">s</tspan>
      </text>
     </g>
    </g>
   </g>
   <g id="matplotlib.axis_4">
    <g id="ytick_6">
     <g id="line2d_16">
      <g>
       <use xlink:href="#mf20e74c86a" x="36.033125" y="324.611407" style="stroke: #000000; stroke-width: 0.8"/>
      </g>
     </g>
     <g id="text_16">
      <text style="font: 12px 'Arial'; text-anchor: end" x="29.033125" y="328.906094" transform="rotate(-0 29.033125 328.906094)">2</text>
     </g>
    </g>
    <g id="ytick_7">
     <g id="line2d_17">
      <g>
       <use xlink:href="#mf20e74c86a" x="36.033125" y="288.620962" style="stroke: #000000; stroke-width: 0.8"/>
      </g>
     </g>
     <g id="text_17">
      <text style="font: 12px 'Arial'; text-anchor: end" x="29.033125" y="292.91565" transform="rotate(-0 29.033125 292.91565)">4</text>
     </g>
    </g>
    <g id="ytick_8">
     <g id="line2d_18">
      <g>
       <use xlink:href="#mf20e74c86a" x="36.033125" y="252.630518" style="stroke: #000000; stroke-width: 0.8"/>
      </g>
     </g>
     <g id="text_18">
      <text style="font: 12px 'Arial'; text-anchor: end" x="29.033125" y="256.925205" transform="rotate(-0 29.033125 256.925205)">6</text>
     </g>
    </g>
    <g id="ytick_9">
     <g id="line2d_19">
      <g>
       <use xlink:href="#mf20e74c86a" x="36.033125" y="216.640073" style="stroke: #000000; stroke-width: 0.8"/>
      </g>
     </g>
     <g id="text_19">
      <text style="font: 12px 'Arial'; text-anchor: end" x="29.033125" y="220.934761" transform="rotate(-0 29.033125 220.934761)">8</text>
     </g>
    </g>
    <g id="text_20">
     <text style="font: 12px 'Arial'; text-anchor: middle" x="15.834375" y="272.782205" transform="rotate(-90 15.834375 272.782205)">Brzina, smjer i vrijeme</text>
    </g>
   </g>
   <g id="line2d_20">
    <path d="M 36.033125 334.035366 
L 52.509503 332.985057 
L 68.985881 331.143855 
L 85.462259 330.578092 
L 167.844149 326.203668 
L 332.607928 305.343941 
L 497.371708 211.394409 
" clip-path="url(#pa36415766a)" style="fill: none; stroke-dasharray: 5.55,2.4; stroke-dashoffset: 0; stroke: #6699cc; stroke-width: 1.5"/>
   </g>
   <g id="line2d_21">
    <path d="M 36.033125 334.102962 
L 52.509503 332.588216 
L 68.985881 331.180062 
L 85.462259 330.317794 
L 167.844149 324.508244 
L 332.607928 304.051371 
L 497.371708 282.248871 
" clip-path="url(#pa36415766a)" style="fill: none; stroke-dasharray: 1.5,2.475; stroke-dashoffset: 0; stroke: #6699cc; stroke-width: 1.5"/>
   </g>
   <g id="line2d_22">
    <path d="M 36.033125 334.17 
L 52.509503 333.240606 
L 68.985881 331.126887 
L 85.462259 329.674186 
L 167.844149 322.787239 
L 332.607928 303.639009 
L 497.371708 256.789828 
" clip-path="url(#pa36415766a)" style="fill: none; stroke: #6699cc; stroke-width: 1.5; stroke-linecap: square"/>
   </g>
   <g id="line2d_23">
    <path d="M 3.080369 358.725118 
" clip-path="url(#pa36415766a)" style="fill: none; stroke-dasharray: 5.55,2.4; stroke-dashoffset: 0; stroke: #004488; stroke-width: 1.5"/>
   </g>
   <g id="line2d_24">
    <path d="M 3.080369 358.725118 
" clip-path="url(#pa36415766a)" style="fill: none; stroke-dasharray: 1.5,2.475; stroke-dashoffset: 0; stroke: #004488; stroke-width: 1.5"/>
   </g>
   <g id="line2d_25">
    <path d="M 3.080369 358.725118 
" clip-path="url(#pa36415766a)" style="fill: none; stroke: #004488; stroke-width: 1.5; stroke-linecap: square"/>
   </g>
   <g id="line2d_26">
    <path d="M 3.080369 358.725118 
" clip-path="url(#pa36415766a)" style="fill: none; stroke: #000000; stroke-width: 1.5; stroke-linecap: square"/>
   </g>
   <g id="patch_8">
    <path d="M 36.033125 346.447559 
L 36.033125 199.11685 
" style="fill: none; stroke: #000000; stroke-width: 0.8; stroke-linejoin: miter; stroke-linecap: square"/>
   </g>
   <g id="patch_9">
    <path d="M 497.371708 346.447559 
L 497.371708 199.11685 
" style="fill: none; stroke: #000000; stroke-width: 0.8; stroke-linejoin: miter; stroke-linecap: square"/>
   </g>
   <g id="patch_10">
    <path d="M 36.033125 346.447559 
L 497.371708 346.447559 
" style="fill: none; stroke: #000000; stroke-width: 0.8; stroke-linejoin: miter; stroke-linecap: square"/>
   </g>
   <g id="patch_11">
    <path d="M 36.033125 199.11685 
L 497.371708 199.11685 
" style="fill: none; stroke: #000000; stroke-width: 0.8; stroke-linejoin: miter; stroke-linecap: square"/>
   </g>
   <g id="legend_1">
    <g id="patch_12">
     <path d="M 21.366196 411.166299 
L 506.676196 411.166299 
Q 509.076196 411.166299 509.076196 408.766299 
L 509.076196 392.705049 
Q 509.076196 390.305049 506.676196 390.305049 
L 21.366196 390.305049 
Q 18.966196 390.305049 18.966196 392.705049 
L 18.966196 408.766299 
Q 18.966196 411.166299 21.366196 411.166299 
z
" style="fill: #ffffff; opacity: 0.8; stroke: #cccccc; stroke-linejoin: miter"/>
    </g>
    <g id="line2d_27">
     <path d="M 23.766196 399.640674 
L 35.766196 399.640674 
L 47.766196 399.640674 
" style="fill: none; stroke-dasharray: 5.55,2.4; stroke-dashoffset: 0; stroke: #004488; stroke-width: 1.5"/>
    </g>
    <g id="text_21">
     <text style="font: 12px 'Arial'; text-anchor: start" x="57.366196" y="403.840674" transform="rotate(-0 57.366196 403.840674)">GRU Pažnja 1</text>
    </g>
    <g id="line2d_28">
     <path d="M 158.063071 399.640674 
L 170.063071 399.640674 
L 182.063071 399.640674 
" style="fill: none; stroke-dasharray: 1.5,2.475; stroke-dashoffset: 0; stroke: #004488; stroke-width: 1.5"/>
    </g>
    <g id="text_22">
     <text style="font: 12px 'Arial'; text-anchor: start" x="191.663071" y="403.840674" transform="rotate(-0 191.663071 403.840674)">GRU Pažnja 2</text>
    </g>
    <g id="line2d_29">
     <path d="M 292.359946 399.640674 
L 304.359946 399.640674 
L 316.359946 399.640674 
" style="fill: none; stroke: #004488; stroke-width: 1.5; stroke-linecap: square"/>
    </g>
    <g id="text_23">
     <text style="font: 12px 'Arial'; text-anchor: start" x="325.959946" y="403.840674" transform="rotate(-0 325.959946 403.840674)">GRU Pažnja 4</text>
    </g>
    <g id="line2d_30">
     <path d="M 426.656821 399.640674 
L 438.656821 399.640674 
L 450.656821 399.640674 
" style="fill: none; stroke: #000000; stroke-width: 1.5; stroke-linecap: square"/>
    </g>
    <g id="text_24">
     <text style="font: 12px 'Arial'; text-anchor: start" x="460.256821" y="403.840674" transform="rotate(-0 460.256821 403.840674)">Osnovni</text>
    </g>
   </g>
  </g>
 </g>
 <defs>
  <clipPath id="p209bba187c">
   <rect x="36.033125" y="22.32" width="461.338583" height="147.330709"/>
  </clipPath>
  <clipPath id="pa36415766a">
   <rect x="36.033125" y="199.11685" width="461.338583" height="147.330709"/>
  </clipPath>
 </defs>
</svg>
