<?xml version="1.0" encoding="utf-8" standalone="no"?>
<!DOCTYPE svg PUBLIC "-//W3C//DTD SVG 1.1//EN"
  "http://www.w3.org/Graphics/SVG/1.1/DTD/svg11.dtd">
<svg xmlns:xlink="http://www.w3.org/1999/xlink" width="554.372446pt" height="434.002574pt" viewBox="0 0 554.372446 434.002574" xmlns="http://www.w3.org/2000/svg" version="1.1">
 <metadata>
  <rdf:RDF xmlns:dc="http://purl.org/dc/elements/1.1/" xmlns:cc="http://creativecommons.org/ns#" xmlns:rdf="http://www.w3.org/1999/02/22-rdf-syntax-ns#">
   <cc:Work>
    <dc:type rdf:resource="http://purl.org/dc/dcmitype/StillImage"/>
    <dc:date>2024-10-16T10:20:38.866266</dc:date>
    <dc:format>image/svg+xml</dc:format>
    <dc:creator>
     <cc:Agent>
      <dc:title>Matplotlib v3.7.0, https://matplotlib.org/</dc:title>
     </cc:Agent>
    </dc:creator>
   </cc:Work>
  </rdf:RDF>
 </metadata>
 <defs>
  <style type="text/css">*{stroke-linejoin: round; stroke-linecap: butt}</style>
 </defs>
 <g id="figure_1">
  <g id="patch_1">
   <path d="M 0 434.002574 
L 554.372446 434.002574 
L 554.372446 -0 
L 0 -0 
z
" style="fill: #ffffff"/>
  </g>
  <g id="axes_1">
   <g id="patch_2">
    <path d="M 52.814375 94.582513 
L 514.152958 94.582513 
L 514.152958 24.12 
L 52.814375 24.12 
z
" style="fill: #ffffff"/>
   </g>
   <g id="matplotlib.axis_1"/>
   <g id="matplotlib.axis_2">
    <g id="ytick_1">
     <g id="line2d_1">
      <defs>
       <path id="md4b35fed89" d="M 0 0 
L -3.5 0 
" style="stroke: #000000; stroke-width: 0.8"/>
      </defs>
      <g>
       <use xlink:href="#md4b35fed89" x="52.814375" y="81.479073" style="stroke: #000000; stroke-width: 0.8"/>
      </g>
     </g>
     <g id="text_1">
      <text style="font: 12px 'Arial'; text-anchor: end" x="45.814375" y="85.773761" transform="rotate(-0 45.814375 85.773761)">0.25</text>
     </g>
    </g>
    <g id="ytick_2">
     <g id="line2d_2">
      <g>
       <use xlink:href="#md4b35fed89" x="52.814375" y="60.438397" style="stroke: #000000; stroke-width: 0.8"/>
      </g>
     </g>
     <g id="text_2">
      <text style="font: 12px 'Arial'; text-anchor: end" x="45.814375" y="64.733085" transform="rotate(-0 45.814375 64.733085)">0.50</text>
     </g>
    </g>
    <g id="ytick_3">
     <g id="line2d_3">
      <g>
       <use xlink:href="#md4b35fed89" x="52.814375" y="39.397722" style="stroke: #000000; stroke-width: 0.8"/>
      </g>
     </g>
     <g id="text_3">
      <text style="font: 12px 'Arial'; text-anchor: end" x="45.814375" y="43.692409" transform="rotate(-0 45.814375 43.692409)">0.75</text>
     </g>
    </g>
    <g id="text_4">
     <text style="font: 12px 'Arial'; text-anchor: middle" x="15.935625" y="59.351256" transform="rotate(-90 15.935625 59.351256)">Smjer</text>
    </g>
   </g>
   <g id="line2d_4">
    <path d="M 52.814375 29.991876 
L 69.290753 35.82683 
L 85.767131 41.125694 
L 102.243509 44.897 
L 184.625399 58.843382 
L 349.389178 78.429267 
L 514.152958 88.710637 
" clip-path="url(#p2b336383d8)" style="fill: none; stroke-dasharray: 5.55,2.4; stroke-dashoffset: 0; stroke: #bb5566; stroke-width: 1.5"/>
   </g>
   <g id="line2d_5">
    <path d="M 52.814375 37.533851 
L 69.290753 40.119112 
L 85.767131 42.538778 
L 102.243509 44.819274 
L 184.625399 53.78989 
L 349.389178 65.305789 
L 514.152958 72.877545 
" clip-path="url(#p2b336383d8)" style="fill: none; stroke: #000000; stroke-width: 1.5; stroke-linecap: square"/>
   </g>
   <g id="patch_3">
    <path d="M 52.814375 94.582513 
L 52.814375 24.12 
" style="fill: none; stroke: #000000; stroke-width: 0.8; stroke-linejoin: miter; stroke-linecap: square"/>
   </g>
   <g id="patch_4">
    <path d="M 514.152958 94.582513 
L 514.152958 24.12 
" style="fill: none; stroke: #000000; stroke-width: 0.8; stroke-linejoin: miter; stroke-linecap: square"/>
   </g>
   <g id="patch_5">
    <path d="M 52.814375 94.582513 
L 514.152958 94.582513 
" style="fill: none; stroke: #000000; stroke-width: 0.8; stroke-linejoin: miter; stroke-linecap: square"/>
   </g>
   <g id="patch_6">
    <path d="M 52.814375 24.12 
L 514.152958 24.12 
" style="fill: none; stroke: #000000; stroke-width: 0.8; stroke-linejoin: miter; stroke-linecap: square"/>
   </g>
   <g id="text_5">
    <!-- $R^{2}$ (%) -->
    <g transform="translate(265.003666 18.12)">
     <text>
      <tspan style="font: oblique 12px 'DejaVu Sans'" x="0" y="-0.171875">R</tspan>
      <tspan style="font: 8.4px 'DejaVu Sans'" x="9.180078" y="-4.765625">2</tspan>
      <tspan style="font: 12px 'Arial'" x="14.852539 18.186523 22.182617 32.852539" y="-0.171875"> (%)</tspan>
     </text>
    </g>
   </g>
  </g>
  <g id="axes_2">
   <g id="patch_7">
    <path d="M 52.814375 179.137528 
L 514.152958 179.137528 
L 514.152958 108.675015 
L 52.814375 108.675015 
z
" style="fill: #ffffff"/>
   </g>
   <g id="matplotlib.axis_3"/>
   <g id="matplotlib.axis_4">
    <g id="ytick_4">
     <g id="line2d_6">
      <g>
       <use xlink:href="#md4b35fed89" x="52.814375" y="162.918268" style="stroke: #000000; stroke-width: 0.8"/>
      </g>
     </g>
     <g id="text_6">
      <text style="font: 12px 'Arial'; text-anchor: end" x="45.814375" y="167.212956" transform="rotate(-0 45.814375 167.212956)">0</text>
     </g>
    </g>
    <g id="ytick_5">
     <g id="line2d_7">
      <g>
       <use xlink:href="#md4b35fed89" x="52.814375" y="112.314945" style="stroke: #000000; stroke-width: 0.8"/>
      </g>
     </g>
     <g id="text_7">
      <text style="font: 12px 'Arial'; text-anchor: end" x="45.814375" y="116.609633" transform="rotate(-0 45.814375 116.609633)">1</text>
     </g>
    </g>
    <g id="text_8">
     <!-- $y$ pomak -->
     <g transform="translate(32.62125 167.186272) rotate(-90)">
      <text>
       <tspan style="font: oblique 12px 'DejaVu Sans'" x="0" y="-0.40625">y</tspan>
       <tspan style="font: 12px 'Arial'" x="7.101562 10.435547 17.109375 23.783203 33.779297 40.453125" y="-0.40625"> pomak</tspan>
      </text>
     </g>
    </g>
   </g>
   <g id="line2d_8">
    <path d="M 52.814375 115.766586 
L 69.290753 117.403631 
L 85.767131 118.552475 
L 102.243509 120.414001 
L 184.625399 131.722712 
L 349.389178 148.314416 
L 514.152958 161.6562 
" clip-path="url(#p5b3906ec4f)" style="fill: none; stroke-dasharray: 1.5,2.475; stroke-dashoffset: 0; stroke: #6699cc; stroke-width: 1.5"/>
   </g>
   <g id="line2d_9">
    <path d="M 52.814375 114.546891 
L 69.290753 118.650308 
L 85.767131 122.391098 
L 102.243509 125.238348 
L 184.625399 139.714152 
L 349.389178 161.602574 
L 514.152958 173.265652 
" clip-path="url(#p5b3906ec4f)" style="fill: none; stroke: #004488; stroke-width: 1.5; stroke-linecap: square"/>
   </g>
   <g id="line2d_10">
    <path d="M 52.814375 115.427489 
L 69.290753 116.915076 
L 85.767131 121.093007 
L 102.243509 123.835998 
L 184.625399 139.583223 
L 349.389178 162.052223 
L 514.152958 173.257252 
" clip-path="url(#p5b3906ec4f)" style="fill: none; stroke-dasharray: 9.6,2.4,1.5,2.4; stroke-dashoffset: 0; stroke: #ddaa33; stroke-width: 1.5"/>
   </g>
   <g id="line2d_11">
    <path d="M 52.814375 116.019491 
L 69.290753 117.427976 
L 85.767131 118.963544 
L 102.243509 120.55451 
L 184.625399 128.508757 
L 349.389178 141.794065 
L 514.152958 150.636421 
" clip-path="url(#p5b3906ec4f)" style="fill: none; stroke: #000000; stroke-width: 1.5; stroke-linecap: square"/>
   </g>
   <g id="patch_8">
    <path d="M 52.814375 179.137528 
L 52.814375 108.675015 
" style="fill: none; stroke: #000000; stroke-width: 0.8; stroke-linejoin: miter; stroke-linecap: square"/>
   </g>
   <g id="patch_9">
    <path d="M 514.152958 179.137528 
L 514.152958 108.675015 
" style="fill: none; stroke: #000000; stroke-width: 0.8; stroke-linejoin: miter; stroke-linecap: square"/>
   </g>
   <g id="patch_10">
    <path d="M 52.814375 179.137528 
L 514.152958 179.137528 
" style="fill: none; stroke: #000000; stroke-width: 0.8; stroke-linejoin: miter; stroke-linecap: square"/>
   </g>
   <g id="patch_11">
    <path d="M 52.814375 108.675015 
L 514.152958 108.675015 
" style="fill: none; stroke: #000000; stroke-width: 0.8; stroke-linejoin: miter; stroke-linecap: square"/>
   </g>
  </g>
  <g id="axes_3">
   <g id="patch_12">
    <path d="M 52.814375 263.692544 
L 514.152958 263.692544 
L 514.152958 193.230031 
L 52.814375 193.230031 
z
" style="fill: #ffffff"/>
   </g>
   <g id="matplotlib.axis_5"/>
   <g id="matplotlib.axis_6">
    <g id="ytick_6">
     <g id="line2d_12">
      <g>
       <use xlink:href="#md4b35fed89" x="52.814375" y="246.897312" style="stroke: #000000; stroke-width: 0.8"/>
      </g>
     </g>
     <g id="text_9">
      <text style="font: 12px 'Arial'; text-anchor: end" x="45.814375" y="251.192" transform="rotate(-0 45.814375 251.192)">0</text>
     </g>
    </g>
    <g id="ytick_7">
     <g id="line2d_13">
      <g>
       <use xlink:href="#md4b35fed89" x="52.814375" y="197.567082" style="stroke: #000000; stroke-width: 0.8"/>
      </g>
     </g>
     <g id="text_10">
      <text style="font: 12px 'Arial'; text-anchor: end" x="45.814375" y="201.86177" transform="rotate(-0 45.814375 201.86177)">1</text>
     </g>
    </g>
    <g id="text_11">
     <!-- $x$ pomak -->
     <g transform="translate(32.74125 251.741287) rotate(-90)">
      <text>
       <tspan style="font: oblique 12px 'DejaVu Sans'" x="0" y="-0.40625">x</tspan>
       <tspan style="font: 12px 'Arial'" x="7.101562 10.435547 17.109375 23.783203 33.779297 40.453125" y="-0.40625"> pomak</tspan>
      </text>
     </g>
    </g>
   </g>
   <g id="line2d_14">
    <path d="M 52.814375 199.894413 
L 69.290753 201.600779 
L 85.767131 203.62446 
L 102.243509 205.172343 
L 184.625399 222.120954 
L 349.389178 239.795937 
L 514.152958 245.457309 
" clip-path="url(#p91bb5af44d)" style="fill: none; stroke-dasharray: 5.55,2.4; stroke-dashoffset: 0; stroke: #6699cc; stroke-width: 1.5"/>
   </g>
   <g id="line2d_15">
    <path d="M 52.814375 199.101907 
L 69.290753 202.496362 
L 85.767131 205.615763 
L 102.243509 209.316837 
L 184.625399 223.362707 
L 349.389178 247.222112 
L 514.152958 257.820668 
" clip-path="url(#p91bb5af44d)" style="fill: none; stroke-dasharray: 9.6,2.4,1.5,2.4; stroke-dashoffset: 0; stroke: #ddaa33; stroke-width: 1.5"/>
   </g>
   <g id="line2d_16">
    <path d="M 52.814375 200.534052 
L 69.290753 201.926451 
L 85.767131 203.40549 
L 102.243509 204.936195 
L 184.625399 212.618008 
L 349.389178 225.924145 
L 514.152958 235.39587 
" clip-path="url(#p91bb5af44d)" style="fill: none; stroke: #000000; stroke-width: 1.5; stroke-linecap: square"/>
   </g>
   <g id="patch_13">
    <path d="M 52.814375 263.692544 
L 52.814375 193.230031 
" style="fill: none; stroke: #000000; stroke-width: 0.8; stroke-linejoin: miter; stroke-linecap: square"/>
   </g>
   <g id="patch_14">
    <path d="M 514.152958 263.692544 
L 514.152958 193.230031 
" style="fill: none; stroke: #000000; stroke-width: 0.8; stroke-linejoin: miter; stroke-linecap: square"/>
   </g>
   <g id="patch_15">
    <path d="M 52.814375 263.692544 
L 514.152958 263.692544 
" style="fill: none; stroke: #000000; stroke-width: 0.8; stroke-linejoin: miter; stroke-linecap: square"/>
   </g>
   <g id="patch_16">
    <path d="M 52.814375 193.230031 
L 514.152958 193.230031 
" style="fill: none; stroke: #000000; stroke-width: 0.8; stroke-linejoin: miter; stroke-linecap: square"/>
   </g>
  </g>
  <g id="axes_4">
   <g id="patch_17">
    <path d="M 52.814375 348.247559 
L 514.152958 348.247559 
L 514.152958 277.785046 
L 52.814375 277.785046 
z
" style="fill: #ffffff"/>
   </g>
   <g id="matplotlib.axis_7">
    <g id="xtick_1">
     <g id="line2d_17">
      <defs>
       <path id="m1e6c286fe4" d="M 0 0 
L 0 3.5 
" style="stroke: #000000; stroke-width: 0.8"/>
      </defs>
      <g>
       <use xlink:href="#m1e6c286fe4" x="52.814375" y="348.247559" style="stroke: #000000; stroke-width: 0.8"/>
      </g>
     </g>
     <g id="text_12">
      <text style="font: 12px 'Arial'; text-anchor: middle" x="52.814375" y="363.836934" transform="rotate(-0 52.814375 363.836934)">2</text>
     </g>
    </g>
    <g id="xtick_2">
     <g id="line2d_18">
      <g>
       <use xlink:href="#m1e6c286fe4" x="69.290753" y="348.247559" style="stroke: #000000; stroke-width: 0.8"/>
      </g>
     </g>
     <g id="text_13">
      <text style="font: 12px 'Arial'; text-anchor: middle" x="69.290753" y="363.836934" transform="rotate(-0 69.290753 363.836934)">3</text>
     </g>
    </g>
    <g id="xtick_3">
     <g id="line2d_19">
      <g>
       <use xlink:href="#m1e6c286fe4" x="85.767131" y="348.247559" style="stroke: #000000; stroke-width: 0.8"/>
      </g>
     </g>
     <g id="text_14">
      <text style="font: 12px 'Arial'; text-anchor: middle" x="85.767131" y="363.836934" transform="rotate(-0 85.767131 363.836934)">4</text>
     </g>
    </g>
    <g id="xtick_4">
     <g id="line2d_20">
      <g>
       <use xlink:href="#m1e6c286fe4" x="102.243509" y="348.247559" style="stroke: #000000; stroke-width: 0.8"/>
      </g>
     </g>
     <g id="text_15">
      <text style="font: 12px 'Arial'; text-anchor: middle" x="102.243509" y="363.836934" transform="rotate(-0 102.243509 363.836934)">5</text>
     </g>
    </g>
    <g id="xtick_5">
     <g id="line2d_21">
      <g>
       <use xlink:href="#m1e6c286fe4" x="184.625399" y="348.247559" style="stroke: #000000; stroke-width: 0.8"/>
      </g>
     </g>
     <g id="text_16">
      <text style="font: 12px 'Arial'; text-anchor: middle" x="184.625399" y="363.836934" transform="rotate(-0 184.625399 363.836934)">10</text>
     </g>
    </g>
    <g id="xtick_6">
     <g id="line2d_22">
      <g>
       <use xlink:href="#m1e6c286fe4" x="349.389178" y="348.247559" style="stroke: #000000; stroke-width: 0.8"/>
      </g>
     </g>
     <g id="text_17">
      <text style="font: 12px 'Arial'; text-anchor: middle" x="349.389178" y="363.836934" transform="rotate(-0 349.389178 363.836934)">20</text>
     </g>
    </g>
    <g id="xtick_7">
     <g id="line2d_23">
      <g>
       <use xlink:href="#m1e6c286fe4" x="514.152958" y="348.247559" style="stroke: #000000; stroke-width: 0.8"/>
      </g>
     </g>
     <g id="text_18">
      <text style="font: 12px 'Arial'; text-anchor: middle" x="514.152958" y="363.836934" transform="rotate(-0 514.152958 363.836934)">30</text>
     </g>
    </g>
    <g id="text_19">
     <!-- Vrijeme predviđanja ($s$) -->
     <g transform="translate(221.623666 378.981934)">
      <text>
       <tspan style="font: 12px 'Arial'" x="0 8.003906 12 14.666016 17.332031 24.005859 34.001953 40.675781 44.009766 50.683594 54.679688 61.353516 68.027344 74.027344 76.693359 83.367188 90.041016 96.714844 99.380859 106.054688 109.388672 119.636719" y="-0.265625">Vrijeme predviđanja ()</tspan>
       <tspan style="font: oblique 12px 'DejaVu Sans'" x="113.384766" y="-0.265625">s</tspan>
      </text>
     </g>
    </g>
   </g>
   <g id="matplotlib.axis_8">
    <g id="ytick_8">
     <g id="line2d_24">
      <g>
       <use xlink:href="#md4b35fed89" x="52.814375" y="344.906827" style="stroke: #000000; stroke-width: 0.8"/>
      </g>
     </g>
     <g id="text_20">
      <text style="font: 12px 'Arial'; text-anchor: end" x="45.814375" y="349.201514" transform="rotate(-0 45.814375 349.201514)">0.50</text>
     </g>
    </g>
    <g id="ytick_9">
     <g id="line2d_25">
      <g>
       <use xlink:href="#md4b35fed89" x="52.814375" y="310.452771" style="stroke: #000000; stroke-width: 0.8"/>
      </g>
     </g>
     <g id="text_21">
      <text style="font: 12px 'Arial'; text-anchor: end" x="45.814375" y="314.747458" transform="rotate(-0 45.814375 314.747458)">0.75</text>
     </g>
    </g>
    <g id="text_22">
     <text style="font: 12px 'Arial'; text-anchor: middle" x="16.07625" y="313.016303" transform="rotate(-90 16.07625 313.016303)">Brzina</text>
    </g>
   </g>
   <g id="line2d_26">
    <path d="M 52.814375 283.656922 
L 69.290753 290.891241 
L 85.767131 298.305333 
L 102.243509 305.353921 
L 184.625399 326.801667 
L 349.389178 337.506371 
L 514.152958 342.375683 
" clip-path="url(#p7a6f0e9a9f)" style="fill: none; stroke-dasharray: 5.55,2.4; stroke-dashoffset: 0; stroke: #ddaa33; stroke-width: 1.5"/>
   </g>
   <g id="line2d_27">
    <path d="M 52.814375 284.946123 
L 69.290753 288.992373 
L 85.767131 293.119397 
L 102.243509 297.138342 
L 184.625399 313.075759 
L 349.389178 328.615804 
L 514.152958 335.8905 
" clip-path="url(#p7a6f0e9a9f)" style="fill: none; stroke: #000000; stroke-width: 1.5; stroke-linecap: square"/>
   </g>
   <g id="line2d_28">
    <path d="M 19.861619 354.119435 
" clip-path="url(#p7a6f0e9a9f)" style="fill: none; stroke-dasharray: 5.55,2.4; stroke-dashoffset: 0; stroke: #004488; stroke-width: 1.5"/>
   </g>
   <g id="line2d_29">
    <path d="M 19.861619 354.119435 
" clip-path="url(#p7a6f0e9a9f)" style="fill: none; stroke-dasharray: 1.5,2.475; stroke-dashoffset: 0; stroke: #004488; stroke-width: 1.5"/>
   </g>
   <g id="line2d_30">
    <path d="M 19.861619 354.119435 
" clip-path="url(#p7a6f0e9a9f)" style="fill: none; stroke: #004488; stroke-width: 1.5; stroke-linecap: square"/>
   </g>
   <g id="line2d_31">
    <path d="M 19.861619 354.119435 
" clip-path="url(#p7a6f0e9a9f)" style="fill: none; stroke-dasharray: 5.55,2.4; stroke-dashoffset: 0; stroke: #ddaa33; stroke-width: 1.5"/>
   </g>
   <g id="line2d_32">
    <path d="M 19.861619 354.119435 
" clip-path="url(#p7a6f0e9a9f)" style="fill: none; stroke: #ddaa33; stroke-width: 1.5; stroke-linecap: square"/>
   </g>
   <g id="line2d_33">
    <path d="M 19.861619 354.119435 
" clip-path="url(#p7a6f0e9a9f)" style="fill: none; stroke: #000000; stroke-width: 1.5; stroke-linecap: square"/>
   </g>
   <g id="line2d_34">
    <path d="M 19.861619 354.119435 
" clip-path="url(#p7a6f0e9a9f)" style="fill: none; stroke-dasharray: 5.55,2.4; stroke-dashoffset: 0; stroke: #bb5566; stroke-width: 1.5"/>
   </g>
   <g id="patch_18">
    <path d="M 52.814375 348.247559 
L 52.814375 277.785046 
" style="fill: none; stroke: #000000; stroke-width: 0.8; stroke-linejoin: miter; stroke-linecap: square"/>
   </g>
   <g id="patch_19">
    <path d="M 514.152958 348.247559 
L 514.152958 277.785046 
" style="fill: none; stroke: #000000; stroke-width: 0.8; stroke-linejoin: miter; stroke-linecap: square"/>
   </g>
   <g id="patch_20">
    <path d="M 52.814375 348.247559 
L 514.152958 348.247559 
" style="fill: none; stroke: #000000; stroke-width: 0.8; stroke-linejoin: miter; stroke-linecap: square"/>
   </g>
   <g id="patch_21">
    <path d="M 52.814375 277.785046 
L 514.152958 277.785046 
" style="fill: none; stroke: #000000; stroke-width: 0.8; stroke-linejoin: miter; stroke-linecap: square"/>
   </g>
   <g id="legend_1">
    <g id="patch_22">
     <path d="M 38.147446 426.802574 
L 544.772446 426.802574 
Q 547.172446 426.802574 547.172446 424.402574 
L 547.172446 391.080074 
Q 547.172446 388.680074 544.772446 388.680074 
L 38.147446 388.680074 
Q 35.747446 388.680074 35.747446 391.080074 
L 35.747446 424.402574 
Q 35.747446 426.802574 38.147446 426.802574 
z
" style="fill: #ffffff; opacity: 0.8; stroke: #cccccc; stroke-linejoin: miter"/>
    </g>
    <g id="line2d_35">
     <path d="M 40.547446 398.015699 
L 52.547446 398.015699 
L 64.547446 398.015699 
" style="fill: none; stroke-dasharray: 5.55,2.4; stroke-dashoffset: 0; stroke: #004488; stroke-width: 1.5"/>
    </g>
    <g id="text_23">
     <text style="font: 12px 'Arial'; text-anchor: start" x="74.147446" y="402.215699" transform="rotate(-0 74.147446 402.215699)">GRU Pažnja 1</text>
    </g>
    <g id="line2d_36">
     <path d="M 40.547446 415.276949 
L 52.547446 415.276949 
L 64.547446 415.276949 
" style="fill: none; stroke-dasharray: 1.5,2.475; stroke-dashoffset: 0; stroke: #004488; stroke-width: 1.5"/>
    </g>
    <g id="text_24">
     <text style="font: 12px 'Arial'; text-anchor: start" x="74.147446" y="419.476949" transform="rotate(-0 74.147446 419.476949)">GRU Pažnja 2</text>
    </g>
    <g id="line2d_37">
     <path d="M 174.844321 398.015699 
L 186.844321 398.015699 
L 198.844321 398.015699 
" style="fill: none; stroke: #004488; stroke-width: 1.5; stroke-linecap: square"/>
    </g>
    <g id="text_25">
     <text style="font: 12px 'Arial'; text-anchor: start" x="208.444321" y="402.215699" transform="rotate(-0 208.444321 402.215699)">GRU Referentni</text>
    </g>
    <g id="line2d_38">
     <path d="M 174.844321 414.990074 
L 186.844321 414.990074 
L 198.844321 414.990074 
" style="fill: none; stroke-dasharray: 5.55,2.4; stroke-dashoffset: 0; stroke: #ddaa33; stroke-width: 1.5"/>
    </g>
    <g id="text_26">
     <text style="font: 12px 'Arial'; text-anchor: start" x="208.444321" y="419.190074" transform="rotate(-0 208.444321 419.190074)">LSTM Linearni</text>
    </g>
    <g id="line2d_39">
     <path d="M 317.805571 398.015699 
L 329.805571 398.015699 
L 341.805571 398.015699 
" style="fill: none; stroke: #ddaa33; stroke-width: 1.5; stroke-linecap: square"/>
    </g>
    <g id="text_27">
     <text style="font: 12px 'Arial'; text-anchor: start" x="351.405571" y="402.215699" transform="rotate(-0 351.405571 402.215699)">LSTM Treći</text>
    </g>
    <g id="line2d_40">
     <path d="M 317.805571 414.990074 
L 329.805571 414.990074 
L 341.805571 414.990074 
" style="fill: none; stroke: #000000; stroke-width: 1.5; stroke-linecap: square"/>
    </g>
    <g id="text_28">
     <text style="font: 12px 'Arial'; text-anchor: start" x="351.405571" y="419.190074" transform="rotate(-0 351.405571 419.190074)">Osnovni</text>
    </g>
    <g id="line2d_41">
     <path d="M 436.746196 398.015699 
L 448.746196 398.015699 
L 460.746196 398.015699 
" style="fill: none; stroke-dasharray: 5.55,2.4; stroke-dashoffset: 0; stroke: #bb5566; stroke-width: 1.5"/>
    </g>
    <g id="text_29">
     <text style="font: 12px 'Arial'; text-anchor: start" x="470.346196" y="402.215699" transform="rotate(-0 470.346196 402.215699)">RNN Linearni</text>
    </g>
   </g>
  </g>
 </g>
 <defs>
  <clipPath id="p2b336383d8">
   <rect x="52.814375" y="24.12" width="461.338583" height="70.462513"/>
  </clipPath>
  <clipPath id="p5b3906ec4f">
   <rect x="52.814375" y="108.675015" width="461.338583" height="70.462513"/>
  </clipPath>
  <clipPath id="p91bb5af44d">
   <rect x="52.814375" y="193.230031" width="461.338583" height="70.462513"/>
  </clipPath>
  <clipPath id="p7a6f0e9a9f">
   <rect x="52.814375" y="277.785046" width="461.338583" height="70.462513"/>
  </clipPath>
 </defs>
</svg>
