<?xml version="1.0" encoding="utf-8" standalone="no"?>
<!DOCTYPE svg PUBLIC "-//W3C//DTD SVG 1.1//EN"
  "http://www.w3.org/Graphics/SVG/1.1/DTD/svg11.dtd">
<svg xmlns:xlink="http://www.w3.org/1999/xlink" width="547.635571pt" height="431.718824pt" viewBox="0 0 547.635571 431.718824" xmlns="http://www.w3.org/2000/svg" version="1.1">
 <metadata>
  <rdf:RDF xmlns:dc="http://purl.org/dc/elements/1.1/" xmlns:cc="http://creativecommons.org/ns#" xmlns:rdf="http://www.w3.org/1999/02/22-rdf-syntax-ns#">
   <cc:Work>
    <dc:type rdf:resource="http://purl.org/dc/dcmitype/StillImage"/>
    <dc:date>2024-10-16T10:20:36.554297</dc:date>
    <dc:format>image/svg+xml</dc:format>
    <dc:creator>
     <cc:Agent>
      <dc:title>Matplotlib v3.7.0, https://matplotlib.org/</dc:title>
     </cc:Agent>
    </dc:creator>
   </cc:Work>
  </rdf:RDF>
 </metadata>
 <defs>
  <style type="text/css">*{stroke-linejoin: round; stroke-linecap: butt}</style>
 </defs>
 <g id="figure_1">
  <g id="patch_1">
   <path d="M 0 431.718824 
L 547.635571 431.718824 
L 547.635571 0 
L 0 0 
z
" style="fill: #ffffff"/>
  </g>
  <g id="axes_1">
   <g id="patch_2">
    <path d="M 66.059375 92.298763 
L 527.397958 92.298763 
L 527.397958 21.83625 
L 66.059375 21.83625 
z
" style="fill: #ffffff"/>
   </g>
   <g id="matplotlib.axis_1"/>
   <g id="matplotlib.axis_2">
    <g id="ytick_1">
     <g id="line2d_1">
      <defs>
       <path id="m2d7a67c5ca" d="M 0 0 
L -3.5 0 
" style="stroke: #000000; stroke-width: 0.8"/>
      </defs>
      <g>
       <use xlink:href="#m2d7a67c5ca" x="66.059375" y="71.409665" style="stroke: #000000; stroke-width: 0.8"/>
      </g>
     </g>
     <g id="text_1">
      <text style="font: 12px 'Arial'; text-anchor: end" x="59.059375" y="75.704353" transform="rotate(-0 59.059375 75.704353)">25</text>
     </g>
    </g>
    <g id="ytick_2">
     <g id="line2d_2">
      <g>
       <use xlink:href="#m2d7a67c5ca" x="66.059375" y="43.12859" style="stroke: #000000; stroke-width: 0.8"/>
      </g>
     </g>
     <g id="text_2">
      <text style="font: 12px 'Arial'; text-anchor: end" x="59.059375" y="47.423277" transform="rotate(-0 59.059375 47.423277)">50</text>
     </g>
    </g>
    <g id="text_3">
     <text style="font: 12px 'Arial'; text-anchor: middle" x="39.1875" y="57.067506" transform="rotate(-90 39.1875 57.067506)">Smjer</text>
    </g>
   </g>
   <g id="line2d_3">
    <path d="M 66.059375 86.426887 
L 82.535753 82.028946 
L 99.012131 77.912526 
L 115.488509 75.026421 
L 197.870399 62.811237 
L 362.634178 43.985337 
L 527.397958 27.708126 
" clip-path="url(#p8198a70df6)" style="fill: none; stroke-dasharray: 5.55,2.4; stroke-dashoffset: 0; stroke: #6699cc; stroke-width: 1.5"/>
   </g>
   <g id="line2d_4">
    <path d="M 66.059375 81.482387 
L 82.535753 77.688321 
L 99.012131 74.394002 
L 115.488509 71.482262 
L 197.870399 60.353754 
L 362.634178 46.158691 
L 527.397958 36.77636 
" clip-path="url(#p8198a70df6)" style="fill: none; stroke: #000000; stroke-width: 1.5; stroke-linecap: square"/>
   </g>
   <g id="patch_3">
    <path d="M 66.059375 92.298763 
L 66.059375 21.83625 
" style="fill: none; stroke: #000000; stroke-width: 0.8; stroke-linejoin: miter; stroke-linecap: square"/>
   </g>
   <g id="patch_4">
    <path d="M 527.397958 92.298763 
L 527.397958 21.83625 
" style="fill: none; stroke: #000000; stroke-width: 0.8; stroke-linejoin: miter; stroke-linecap: square"/>
   </g>
   <g id="patch_5">
    <path d="M 66.059375 92.298763 
L 527.397958 92.298763 
" style="fill: none; stroke: #000000; stroke-width: 0.8; stroke-linejoin: miter; stroke-linecap: square"/>
   </g>
   <g id="patch_6">
    <path d="M 66.059375 21.83625 
L 527.397958 21.83625 
" style="fill: none; stroke: #000000; stroke-width: 0.8; stroke-linejoin: miter; stroke-linecap: square"/>
   </g>
   <g id="text_4">
    <text style="font: 12px 'Arial'; text-anchor: middle" x="296.728666" y="15.83625" transform="rotate(-0 296.728666 15.83625)">Prosječna apsolutna greška</text>
   </g>
  </g>
  <g id="axes_2">
   <g id="patch_7">
    <path d="M 66.059375 176.853778 
L 527.397958 176.853778 
L 527.397958 106.391265 
L 66.059375 106.391265 
z
" style="fill: #ffffff"/>
   </g>
   <g id="matplotlib.axis_3"/>
   <g id="matplotlib.axis_4">
    <g id="ytick_3">
     <g id="line2d_5">
      <g>
       <use xlink:href="#m2d7a67c5ca" x="66.059375" y="161.279575" style="stroke: #000000; stroke-width: 0.8"/>
      </g>
     </g>
     <g id="text_5">
      <text style="font: 12px 'Arial'; text-anchor: end" x="59.059375" y="165.574263" transform="rotate(-0 59.059375 165.574263)">0.0001</text>
     </g>
    </g>
    <g id="ytick_4">
     <g id="line2d_6">
      <g>
       <use xlink:href="#m2d7a67c5ca" x="66.059375" y="139.549124" style="stroke: #000000; stroke-width: 0.8"/>
      </g>
     </g>
     <g id="text_6">
      <text style="font: 12px 'Arial'; text-anchor: end" x="59.059375" y="143.843811" transform="rotate(-0 59.059375 143.843811)">0.0002</text>
     </g>
    </g>
    <g id="ytick_5">
     <g id="line2d_7">
      <g>
       <use xlink:href="#m2d7a67c5ca" x="66.059375" y="117.818673" style="stroke: #000000; stroke-width: 0.8"/>
      </g>
     </g>
     <g id="text_7">
      <text style="font: 12px 'Arial'; text-anchor: end" x="59.059375" y="122.11336" transform="rotate(-0 59.059375 122.11336)">0.0003</text>
     </g>
    </g>
    <g id="text_8">
     <!-- $y$ pomak -->
     <g transform="translate(15.84 164.902522) rotate(-90)">
      <text>
       <tspan style="font: oblique 12px 'DejaVu Sans'" x="0" y="-0.40625">y</tspan>
       <tspan style="font: 12px 'Arial'" x="7.101562 10.435547 17.109375 23.783203 33.779297 40.453125" y="-0.40625"> pomak</tspan>
      </text>
     </g>
    </g>
   </g>
   <g id="line2d_8">
    <path d="M 66.059375 170.981902 
L 82.535753 166.879955 
L 99.012131 163.786047 
L 115.488509 161.016515 
L 197.870399 138.301049 
L 362.634178 121.625643 
L 527.397958 112.263141 
" clip-path="url(#p62a4371b4f)" style="fill: none; stroke-dasharray: 5.55,2.4; stroke-dashoffset: 0; stroke: #6699cc; stroke-width: 1.5"/>
   </g>
   <g id="line2d_9">
    <path d="M 66.059375 169.624432 
L 82.535753 165.919543 
L 99.012131 163.932857 
L 115.488509 161.105067 
L 197.870399 147.242787 
L 362.634178 131.239995 
L 527.397958 118.699382 
" clip-path="url(#p62a4371b4f)" style="fill: none; stroke-dasharray: 1.5,2.475; stroke-dashoffset: 0; stroke: #6699cc; stroke-width: 1.5"/>
   </g>
   <g id="line2d_10">
    <path d="M 66.059375 170.322997 
L 82.535753 165.193254 
L 99.012131 161.498007 
L 115.488509 158.375395 
L 197.870399 147.966676 
L 362.634178 125.001225 
L 527.397958 112.700218 
" clip-path="url(#p62a4371b4f)" style="fill: none; stroke: #6699cc; stroke-width: 1.5; stroke-linecap: square"/>
   </g>
   <g id="line2d_11">
    <path d="M 66.059375 167.485614 
L 82.535753 164.054072 
L 99.012131 160.988775 
L 115.488509 158.211452 
L 197.870399 147.202063 
L 362.634178 132.845529 
L 527.397958 123.878092 
" clip-path="url(#p62a4371b4f)" style="fill: none; stroke: #000000; stroke-width: 1.5; stroke-linecap: square"/>
   </g>
   <g id="patch_8">
    <path d="M 66.059375 176.853778 
L 66.059375 106.391265 
" style="fill: none; stroke: #000000; stroke-width: 0.8; stroke-linejoin: miter; stroke-linecap: square"/>
   </g>
   <g id="patch_9">
    <path d="M 527.397958 176.853778 
L 527.397958 106.391265 
" style="fill: none; stroke: #000000; stroke-width: 0.8; stroke-linejoin: miter; stroke-linecap: square"/>
   </g>
   <g id="patch_10">
    <path d="M 66.059375 176.853778 
L 527.397958 176.853778 
" style="fill: none; stroke: #000000; stroke-width: 0.8; stroke-linejoin: miter; stroke-linecap: square"/>
   </g>
   <g id="patch_11">
    <path d="M 66.059375 106.391265 
L 527.397958 106.391265 
" style="fill: none; stroke: #000000; stroke-width: 0.8; stroke-linejoin: miter; stroke-linecap: square"/>
   </g>
  </g>
  <g id="axes_3">
   <g id="patch_12">
    <path d="M 66.059375 261.408794 
L 527.397958 261.408794 
L 527.397958 190.946281 
L 66.059375 190.946281 
z
" style="fill: #ffffff"/>
   </g>
   <g id="matplotlib.axis_5"/>
   <g id="matplotlib.axis_6">
    <g id="ytick_6">
     <g id="line2d_12">
      <g>
       <use xlink:href="#m2d7a67c5ca" x="66.059375" y="233.74469" style="stroke: #000000; stroke-width: 0.8"/>
      </g>
     </g>
     <g id="text_9">
      <text style="font: 12px 'Arial'; text-anchor: end" x="59.059375" y="238.039377" transform="rotate(-0 59.059375 238.039377)">0.0002</text>
     </g>
    </g>
    <g id="ytick_7">
     <g id="line2d_13">
      <g>
       <use xlink:href="#m2d7a67c5ca" x="66.059375" y="200.801263" style="stroke: #000000; stroke-width: 0.8"/>
      </g>
     </g>
     <g id="text_10">
      <text style="font: 12px 'Arial'; text-anchor: end" x="59.059375" y="205.095951" transform="rotate(-0 59.059375 205.095951)">0.0004</text>
     </g>
    </g>
    <g id="text_11">
     <!-- $x$ pomak -->
     <g transform="translate(15.96 249.457537) rotate(-90)">
      <text>
       <tspan style="font: oblique 12px 'DejaVu Sans'" x="0" y="-0.40625">x</tspan>
       <tspan style="font: 12px 'Arial'" x="7.101562 10.435547 17.109375 23.783203 33.779297 40.453125" y="-0.40625"> pomak</tspan>
      </text>
     </g>
    </g>
   </g>
   <g id="line2d_14">
    <path d="M 66.059375 255.536918 
L 82.535753 251.745537 
L 99.012131 248.024528 
L 115.488509 245.754061 
L 197.870399 225.099706 
L 362.634178 204.401962 
L 527.397958 196.818157 
" clip-path="url(#pe24466d15b)" style="fill: none; stroke-dasharray: 5.55,2.4; stroke-dashoffset: 0; stroke: #6699cc; stroke-width: 1.5"/>
   </g>
   <g id="line2d_15">
    <path d="M 66.059375 254.969068 
L 82.535753 250.853789 
L 99.012131 247.715512 
L 115.488509 245.179541 
L 197.870399 232.921546 
L 362.634178 214.411995 
L 527.397958 200.100036 
" clip-path="url(#pe24466d15b)" style="fill: none; stroke-dasharray: 1.5,2.475; stroke-dashoffset: 0; stroke: #6699cc; stroke-width: 1.5"/>
   </g>
   <g id="line2d_16">
    <path d="M 66.059375 251.919919 
L 82.535753 248.598785 
L 99.012131 245.634889 
L 115.488509 242.948465 
L 197.870399 232.209057 
L 362.634178 217.995171 
L 527.397958 209.038826 
" clip-path="url(#pe24466d15b)" style="fill: none; stroke: #000000; stroke-width: 1.5; stroke-linecap: square"/>
   </g>
   <g id="patch_13">
    <path d="M 66.059375 261.408794 
L 66.059375 190.946281 
" style="fill: none; stroke: #000000; stroke-width: 0.8; stroke-linejoin: miter; stroke-linecap: square"/>
   </g>
   <g id="patch_14">
    <path d="M 527.397958 261.408794 
L 527.397958 190.946281 
" style="fill: none; stroke: #000000; stroke-width: 0.8; stroke-linejoin: miter; stroke-linecap: square"/>
   </g>
   <g id="patch_15">
    <path d="M 66.059375 261.408794 
L 527.397958 261.408794 
" style="fill: none; stroke: #000000; stroke-width: 0.8; stroke-linejoin: miter; stroke-linecap: square"/>
   </g>
   <g id="patch_16">
    <path d="M 66.059375 190.946281 
L 527.397958 190.946281 
" style="fill: none; stroke: #000000; stroke-width: 0.8; stroke-linejoin: miter; stroke-linecap: square"/>
   </g>
  </g>
  <g id="axes_4">
   <g id="patch_17">
    <path d="M 66.059375 345.963809 
L 527.397958 345.963809 
L 527.397958 275.501296 
L 66.059375 275.501296 
z
" style="fill: #ffffff"/>
   </g>
   <g id="matplotlib.axis_7">
    <g id="xtick_1">
     <g id="line2d_17">
      <defs>
       <path id="m4cbdaf2046" d="M 0 0 
L 0 3.5 
" style="stroke: #000000; stroke-width: 0.8"/>
      </defs>
      <g>
       <use xlink:href="#m4cbdaf2046" x="66.059375" y="345.963809" style="stroke: #000000; stroke-width: 0.8"/>
      </g>
     </g>
     <g id="text_12">
      <text style="font: 12px 'Arial'; text-anchor: middle" x="66.059375" y="361.553184" transform="rotate(-0 66.059375 361.553184)">2</text>
     </g>
    </g>
    <g id="xtick_2">
     <g id="line2d_18">
      <g>
       <use xlink:href="#m4cbdaf2046" x="82.535753" y="345.963809" style="stroke: #000000; stroke-width: 0.8"/>
      </g>
     </g>
     <g id="text_13">
      <text style="font: 12px 'Arial'; text-anchor: middle" x="82.535753" y="361.553184" transform="rotate(-0 82.535753 361.553184)">3</text>
     </g>
    </g>
    <g id="xtick_3">
     <g id="line2d_19">
      <g>
       <use xlink:href="#m4cbdaf2046" x="99.012131" y="345.963809" style="stroke: #000000; stroke-width: 0.8"/>
      </g>
     </g>
     <g id="text_14">
      <text style="font: 12px 'Arial'; text-anchor: middle" x="99.012131" y="361.553184" transform="rotate(-0 99.012131 361.553184)">4</text>
     </g>
    </g>
    <g id="xtick_4">
     <g id="line2d_20">
      <g>
       <use xlink:href="#m4cbdaf2046" x="115.488509" y="345.963809" style="stroke: #000000; stroke-width: 0.8"/>
      </g>
     </g>
     <g id="text_15">
      <text style="font: 12px 'Arial'; text-anchor: middle" x="115.488509" y="361.553184" transform="rotate(-0 115.488509 361.553184)">5</text>
     </g>
    </g>
    <g id="xtick_5">
     <g id="line2d_21">
      <g>
       <use xlink:href="#m4cbdaf2046" x="197.870399" y="345.963809" style="stroke: #000000; stroke-width: 0.8"/>
      </g>
     </g>
     <g id="text_16">
      <text style="font: 12px 'Arial'; text-anchor: middle" x="197.870399" y="361.553184" transform="rotate(-0 197.870399 361.553184)">10</text>
     </g>
    </g>
    <g id="xtick_6">
     <g id="line2d_22">
      <g>
       <use xlink:href="#m4cbdaf2046" x="362.634178" y="345.963809" style="stroke: #000000; stroke-width: 0.8"/>
      </g>
     </g>
     <g id="text_17">
      <text style="font: 12px 'Arial'; text-anchor: middle" x="362.634178" y="361.553184" transform="rotate(-0 362.634178 361.553184)">20</text>
     </g>
    </g>
    <g id="xtick_7">
     <g id="line2d_23">
      <g>
       <use xlink:href="#m4cbdaf2046" x="527.397958" y="345.963809" style="stroke: #000000; stroke-width: 0.8"/>
      </g>
     </g>
     <g id="text_18">
      <text style="font: 12px 'Arial'; text-anchor: middle" x="527.397958" y="361.553184" transform="rotate(-0 527.397958 361.553184)">30</text>
     </g>
    </g>
    <g id="text_19">
     <!-- Vrijeme predviđanja ($s$) -->
     <g transform="translate(234.868666 376.698184)">
      <text>
       <tspan style="font: 12px 'Arial'" x="0 8.003906 12 14.666016 17.332031 24.005859 34.001953 40.675781 44.009766 50.683594 54.679688 61.353516 68.027344 74.027344 76.693359 83.367188 90.041016 96.714844 99.380859 106.054688 109.388672 119.636719" y="-0.265625">Vrijeme predviđanja ()</tspan>
       <tspan style="font: oblique 12px 'DejaVu Sans'" x="113.384766" y="-0.265625">s</tspan>
      </text>
     </g>
    </g>
   </g>
   <g id="matplotlib.axis_8">
    <g id="ytick_8">
     <g id="line2d_24">
      <g>
       <use xlink:href="#m2d7a67c5ca" x="66.059375" y="339.608013" style="stroke: #000000; stroke-width: 0.8"/>
      </g>
     </g>
     <g id="text_20">
      <text style="font: 12px 'Arial'; text-anchor: end" x="59.059375" y="343.902701" transform="rotate(-0 59.059375 343.902701)">2.5</text>
     </g>
    </g>
    <g id="ytick_9">
     <g id="line2d_25">
      <g>
       <use xlink:href="#m2d7a67c5ca" x="66.059375" y="315.030521" style="stroke: #000000; stroke-width: 0.8"/>
      </g>
     </g>
     <g id="text_21">
      <text style="font: 12px 'Arial'; text-anchor: end" x="59.059375" y="319.325208" transform="rotate(-0 59.059375 319.325208)">5.0</text>
     </g>
    </g>
    <g id="ytick_10">
     <g id="line2d_26">
      <g>
       <use xlink:href="#m2d7a67c5ca" x="66.059375" y="290.453028" style="stroke: #000000; stroke-width: 0.8"/>
      </g>
     </g>
     <g id="text_22">
      <text style="font: 12px 'Arial'; text-anchor: end" x="59.059375" y="294.747716" transform="rotate(-0 59.059375 294.747716)">7.5</text>
     </g>
    </g>
    <g id="text_23">
     <text style="font: 12px 'Arial'; text-anchor: middle" x="35.994375" y="310.732553" transform="rotate(-90 35.994375 310.732553)">Brzina</text>
    </g>
   </g>
   <g id="line2d_27">
    <path d="M 66.059375 340.091933 
L 82.535753 330.710632 
L 99.012131 322.842436 
L 115.488509 316.48597 
L 197.870399 297.891339 
L 362.634178 286.670567 
L 527.397958 281.373172 
" clip-path="url(#pc721ffa799)" style="fill: none; stroke-dasharray: 5.55,2.4; stroke-dashoffset: 0; stroke: #ddaa33; stroke-width: 1.5"/>
   </g>
   <g id="line2d_28">
    <path d="M 66.059375 337.209284 
L 82.535753 331.768966 
L 99.012131 327.018076 
L 115.488509 322.84525 
L 197.870399 308.431546 
L 362.634178 295.537582 
L 527.397958 289.331812 
" clip-path="url(#pc721ffa799)" style="fill: none; stroke: #000000; stroke-width: 1.5; stroke-linecap: square"/>
   </g>
   <g id="line2d_29">
    <path d="M 33.106619 351.835685 
" clip-path="url(#pc721ffa799)" style="fill: none; stroke-dasharray: 5.55,2.4; stroke-dashoffset: 0; stroke: #004488; stroke-width: 1.5"/>
   </g>
   <g id="line2d_30">
    <path d="M 33.106619 351.835685 
" clip-path="url(#pc721ffa799)" style="fill: none; stroke-dasharray: 1.5,2.475; stroke-dashoffset: 0; stroke: #004488; stroke-width: 1.5"/>
   </g>
   <g id="line2d_31">
    <path d="M 33.106619 351.835685 
" clip-path="url(#pc721ffa799)" style="fill: none; stroke: #004488; stroke-width: 1.5; stroke-linecap: square"/>
   </g>
   <g id="line2d_32">
    <path d="M 33.106619 351.835685 
" clip-path="url(#pc721ffa799)" style="fill: none; stroke-dasharray: 5.55,2.4; stroke-dashoffset: 0; stroke: #ddaa33; stroke-width: 1.5"/>
   </g>
   <g id="line2d_33">
    <path d="M 33.106619 351.835685 
" clip-path="url(#pc721ffa799)" style="fill: none; stroke: #000000; stroke-width: 1.5; stroke-linecap: square"/>
   </g>
   <g id="patch_18">
    <path d="M 66.059375 345.963809 
L 66.059375 275.501296 
" style="fill: none; stroke: #000000; stroke-width: 0.8; stroke-linejoin: miter; stroke-linecap: square"/>
   </g>
   <g id="patch_19">
    <path d="M 527.397958 345.963809 
L 527.397958 275.501296 
" style="fill: none; stroke: #000000; stroke-width: 0.8; stroke-linejoin: miter; stroke-linecap: square"/>
   </g>
   <g id="patch_20">
    <path d="M 66.059375 345.963809 
L 527.397958 345.963809 
" style="fill: none; stroke: #000000; stroke-width: 0.8; stroke-linejoin: miter; stroke-linecap: square"/>
   </g>
   <g id="patch_21">
    <path d="M 66.059375 275.501296 
L 527.397958 275.501296 
" style="fill: none; stroke: #000000; stroke-width: 0.8; stroke-linejoin: miter; stroke-linecap: square"/>
   </g>
   <g id="legend_1">
    <g id="patch_22">
     <path d="M 51.392446 424.518824 
L 538.035571 424.518824 
Q 540.435571 424.518824 540.435571 422.118824 
L 540.435571 388.796324 
Q 540.435571 386.396324 538.035571 386.396324 
L 51.392446 386.396324 
Q 48.992446 386.396324 48.992446 388.796324 
L 48.992446 422.118824 
Q 48.992446 424.518824 51.392446 424.518824 
z
" style="fill: #ffffff; opacity: 0.8; stroke: #cccccc; stroke-linejoin: miter"/>
    </g>
    <g id="line2d_34">
     <path d="M 53.792446 395.731949 
L 65.792446 395.731949 
L 77.792446 395.731949 
" style="fill: none; stroke-dasharray: 5.55,2.4; stroke-dashoffset: 0; stroke: #004488; stroke-width: 1.5"/>
    </g>
    <g id="text_24">
     <text style="font: 12px 'Arial'; text-anchor: start" x="87.392446" y="399.931949" transform="rotate(-0 87.392446 399.931949)">GRU Pažnja 1</text>
    </g>
    <g id="line2d_35">
     <path d="M 53.792446 412.993199 
L 65.792446 412.993199 
L 77.792446 412.993199 
" style="fill: none; stroke-dasharray: 1.5,2.475; stroke-dashoffset: 0; stroke: #004488; stroke-width: 1.5"/>
    </g>
    <g id="text_25">
     <text style="font: 12px 'Arial'; text-anchor: start" x="87.392446" y="417.193199" transform="rotate(-0 87.392446 417.193199)">GRU Pažnja 2</text>
    </g>
    <g id="line2d_36">
     <path d="M 188.089321 395.731949 
L 200.089321 395.731949 
L 212.089321 395.731949 
" style="fill: none; stroke: #004488; stroke-width: 1.5; stroke-linecap: square"/>
    </g>
    <g id="text_26">
     <text style="font: 12px 'Arial'; text-anchor: start" x="221.689321" y="399.931949" transform="rotate(-0 221.689321 399.931949)">GRU Pažnja 4</text>
    </g>
    <g id="line2d_37">
     <path d="M 322.386196 395.731949 
L 334.386196 395.731949 
L 346.386196 395.731949 
" style="fill: none; stroke-dasharray: 5.55,2.4; stroke-dashoffset: 0; stroke: #ddaa33; stroke-width: 1.5"/>
    </g>
    <g id="text_27">
     <text style="font: 12px 'Arial'; text-anchor: start" x="355.986196" y="399.931949" transform="rotate(-0 355.986196 399.931949)">LSTM Linearni</text>
    </g>
    <g id="line2d_38">
     <path d="M 458.016196 395.731949 
L 470.016196 395.731949 
L 482.016196 395.731949 
" style="fill: none; stroke: #000000; stroke-width: 1.5; stroke-linecap: square"/>
    </g>
    <g id="text_28">
     <text style="font: 12px 'Arial'; text-anchor: start" x="491.616196" y="399.931949" transform="rotate(-0 491.616196 399.931949)">Osnovni</text>
    </g>
   </g>
  </g>
 </g>
 <defs>
  <clipPath id="p8198a70df6">
   <rect x="66.059375" y="21.83625" width="461.338583" height="70.462513"/>
  </clipPath>
  <clipPath id="p62a4371b4f">
   <rect x="66.059375" y="106.391265" width="461.338583" height="70.462513"/>
  </clipPath>
  <clipPath id="pe24466d15b">
   <rect x="66.059375" y="190.946281" width="461.338583" height="70.462513"/>
  </clipPath>
  <clipPath id="pc721ffa799">
   <rect x="66.059375" y="275.501296" width="461.338583" height="70.462513"/>
  </clipPath>
 </defs>
</svg>
