<?xml version="1.0" encoding="utf-8" standalone="no"?>
<!DOCTYPE svg PUBLIC "-//W3C//DTD SVG 1.1//EN"
  "http://www.w3.org/Graphics/SVG/1.1/DTD/svg11.dtd">
<svg xmlns:xlink="http://www.w3.org/1999/xlink" width="475.738583pt" height="180.0034pt" viewBox="0 0 475.738583 180.0034" xmlns="http://www.w3.org/2000/svg" version="1.1">
 <metadata>
  <rdf:RDF xmlns:dc="http://purl.org/dc/elements/1.1/" xmlns:cc="http://creativecommons.org/ns#" xmlns:rdf="http://www.w3.org/1999/02/22-rdf-syntax-ns#">
   <cc:Work>
    <dc:type rdf:resource="http://purl.org/dc/dcmitype/StillImage"/>
    <dc:date>2024-10-09T18:22:34.620178</dc:date>
    <dc:format>image/svg+xml</dc:format>
    <dc:creator>
     <cc:Agent>
      <dc:title>Matplotlib v3.7.0, https://matplotlib.org/</dc:title>
     </cc:Agent>
    </dc:creator>
   </cc:Work>
  </rdf:RDF>
 </metadata>
 <defs>
  <style type="text/css">*{stroke-linejoin: round; stroke-linecap: butt}</style>
 </defs>
 <g id="figure_1">
  <g id="patch_1">
   <path d="M 0 180.0034 
L 475.738583 180.0034 
L 475.738583 0 
L 0 0 
z
" style="fill: #ffffff"/>
  </g>
  <g id="axes_1">
   <g id="patch_2">
    <path d="M 7.2 88.633514 
L 107.490996 88.633514 
L 107.490996 27.245719 
L 7.2 27.245719 
z
" style="fill: #ffffff"/>
   </g>
   <g id="PolyCollection_1">
    <defs>
     <path id="m019c42338c" d="M 7.2 -122.063783 
L 7.2 -91.369886 
L 57.345498 -91.369886 
L 57.345498 -122.063783 
L 57.345498 -122.063783 
L 7.2 -122.063783 
z
" style="stroke: #000000"/>
    </defs>
    <g clip-path="url(#pd44d0a850c)">
     <use xlink:href="#m019c42338c" x="0" y="180.0034" style="stroke: #000000"/>
    </g>
   </g>
   <g id="PolyCollection_2">
    <defs>
     <path id="m465669aee0" d="M 7.2 -152.757681 
L 7.2 -122.063783 
L 57.345498 -122.063783 
L 57.345498 -152.757681 
L 57.345498 -152.757681 
L 7.2 -152.757681 
z
" style="stroke: #fbfbfb"/>
    </defs>
    <g clip-path="url(#pd44d0a850c)">
     <use xlink:href="#m465669aee0" x="0" y="180.0034" style="fill: #fbfbfb; stroke: #fbfbfb"/>
    </g>
   </g>
   <g id="PolyCollection_3">
    <defs>
     <path id="m11b3cdb9eb" d="M 57.345498 -122.063783 
L 57.345498 -91.369886 
L 107.490996 -91.369886 
L 107.490996 -122.063783 
L 107.490996 -122.063783 
L 57.345498 -122.063783 
z
" style="stroke: #fbfbfb"/>
    </defs>
    <g clip-path="url(#pd44d0a850c)">
     <use xlink:href="#m11b3cdb9eb" x="0" y="180.0034" style="fill: #fbfbfb; stroke: #fbfbfb"/>
    </g>
   </g>
   <g id="PolyCollection_4">
    <defs>
     <path id="md5b0ba4c2a" d="M 57.345498 -152.757681 
L 57.345498 -122.063783 
L 107.490996 -122.063783 
L 107.490996 -152.757681 
L 107.490996 -152.757681 
L 57.345498 -152.757681 
z
" style="stroke: #000000"/>
    </defs>
    <g clip-path="url(#pd44d0a850c)">
     <use xlink:href="#md5b0ba4c2a" x="0" y="180.0034" style="stroke: #000000"/>
    </g>
   </g>
   <g id="matplotlib.axis_1">
    <g id="text_1">
     <text style="font: 7px 'Arial'; text-anchor: middle" x="57.345498" y="97.664764" transform="rotate(-0 57.345498 97.664764)">Forecasting length 2</text>
    </g>
   </g>
   <g id="matplotlib.axis_2"/>
   <g id="line2d_1">
    <path d="M 7.2 88.633514 
L 7.2 27.245719 
" clip-path="url(#pd44d0a850c)" style="fill: none; stroke: #000000; stroke-width: 1.5; stroke-linecap: square"/>
   </g>
   <g id="line2d_2">
    <path d="M 7.2 88.633514 
L 107.490996 88.633514 
" clip-path="url(#pd44d0a850c)" style="fill: none; stroke: #000000; stroke-width: 1.5; stroke-linecap: square"/>
   </g>
   <g id="line2d_3">
    <path d="M 57.345498 88.633514 
L 57.345498 27.245719 
" clip-path="url(#pd44d0a850c)" style="fill: none; stroke: #000000; stroke-width: 1.5; stroke-linecap: square"/>
   </g>
   <g id="line2d_4">
    <path d="M 7.2 57.939616 
L 107.490996 57.939616 
" clip-path="url(#pd44d0a850c)" style="fill: none; stroke: #000000; stroke-width: 1.5; stroke-linecap: square"/>
   </g>
   <g id="line2d_5">
    <path d="M 107.490996 88.633514 
L 107.490996 27.245719 
" clip-path="url(#pd44d0a850c)" style="fill: none; stroke: #000000; stroke-width: 1.5; stroke-linecap: square"/>
   </g>
   <g id="line2d_6">
    <path d="M 7.2 27.245719 
L 107.490996 27.245719 
" clip-path="url(#pd44d0a850c)" style="fill: none; stroke: #000000; stroke-width: 1.5; stroke-linecap: square"/>
   </g>
   <g id="patch_3">
    <path d="M 7.2 88.633514 
L 7.2 27.245719 
" style="fill: none; stroke: #000000; stroke-width: 0.8; stroke-linejoin: miter; stroke-linecap: square"/>
   </g>
   <g id="patch_4">
    <path d="M 107.490996 88.633514 
L 107.490996 27.245719 
" style="fill: none; stroke: #000000; stroke-width: 0.8; stroke-linejoin: miter; stroke-linecap: square"/>
   </g>
   <g id="patch_5">
    <path d="M 7.2 88.633514 
L 107.490996 88.633514 
" style="fill: none; stroke: #000000; stroke-width: 0.8; stroke-linejoin: miter; stroke-linecap: square"/>
   </g>
   <g id="patch_6">
    <path d="M 7.2 27.245719 
L 107.490996 27.245719 
" style="fill: none; stroke: #000000; stroke-width: 0.8; stroke-linejoin: miter; stroke-linecap: square"/>
   </g>
  </g>
  <g id="axes_2">
   <g id="patch_7">
    <path d="M 127.549195 88.633514 
L 227.840192 88.633514 
L 227.840192 27.245719 
L 127.549195 27.245719 
z
" style="fill: #ffffff"/>
   </g>
   <g id="PolyCollection_5">
    <defs>
     <path id="md7c77d7246" d="M 127.549195 -122.063783 
L 127.549195 -91.369886 
L 177.694694 -91.369886 
L 177.694694 -122.063783 
L 177.694694 -122.063783 
L 127.549195 -122.063783 
z
" style="stroke: #000000"/>
    </defs>
    <g clip-path="url(#p264fc04611)">
     <use xlink:href="#md7c77d7246" x="0" y="180.0034" style="stroke: #000000"/>
    </g>
   </g>
   <g id="PolyCollection_6">
    <defs>
     <path id="m6bb3dd8597" d="M 127.549195 -152.757681 
L 127.549195 -122.063783 
L 177.694694 -122.063783 
L 177.694694 -152.757681 
L 177.694694 -152.757681 
L 127.549195 -152.757681 
z
" style="stroke: #ffffff"/>
    </defs>
    <g clip-path="url(#p264fc04611)">
     <use xlink:href="#m6bb3dd8597" x="0" y="180.0034" style="fill: #ffffff; stroke: #ffffff"/>
    </g>
   </g>
   <g id="PolyCollection_7">
    <defs>
     <path id="m9994c7693a" d="M 177.694694 -122.063783 
L 177.694694 -91.369886 
L 227.840192 -91.369886 
L 227.840192 -122.063783 
L 227.840192 -122.063783 
L 177.694694 -122.063783 
z
" style="stroke: #ffffff"/>
    </defs>
    <g clip-path="url(#p264fc04611)">
     <use xlink:href="#m9994c7693a" x="0" y="180.0034" style="fill: #ffffff; stroke: #ffffff"/>
    </g>
   </g>
   <g id="PolyCollection_8">
    <defs>
     <path id="me3056fcd77" d="M 177.694694 -152.757681 
L 177.694694 -122.063783 
L 227.840192 -122.063783 
L 227.840192 -152.757681 
L 227.840192 -152.757681 
L 177.694694 -152.757681 
z
" style="stroke: #000000"/>
    </defs>
    <g clip-path="url(#p264fc04611)">
     <use xlink:href="#me3056fcd77" x="0" y="180.0034" style="stroke: #000000"/>
    </g>
   </g>
   <g id="matplotlib.axis_3">
    <g id="text_2">
     <text style="font: 7px 'Arial'; text-anchor: middle" x="177.694694" y="97.664764" transform="rotate(-0 177.694694 97.664764)">Forecasting length 3</text>
    </g>
   </g>
   <g id="matplotlib.axis_4"/>
   <g id="line2d_7">
    <path d="M 127.549195 88.633514 
L 127.549195 27.245719 
" clip-path="url(#p264fc04611)" style="fill: none; stroke: #000000; stroke-width: 1.5; stroke-linecap: square"/>
   </g>
   <g id="line2d_8">
    <path d="M 127.549195 88.633514 
L 227.840192 88.633514 
" clip-path="url(#p264fc04611)" style="fill: none; stroke: #000000; stroke-width: 1.5; stroke-linecap: square"/>
   </g>
   <g id="line2d_9">
    <path d="M 177.694694 88.633514 
L 177.694694 27.245719 
" clip-path="url(#p264fc04611)" style="fill: none; stroke: #000000; stroke-width: 1.5; stroke-linecap: square"/>
   </g>
   <g id="line2d_10">
    <path d="M 127.549195 57.939616 
L 227.840192 57.939616 
" clip-path="url(#p264fc04611)" style="fill: none; stroke: #000000; stroke-width: 1.5; stroke-linecap: square"/>
   </g>
   <g id="line2d_11">
    <path d="M 227.840192 88.633514 
L 227.840192 27.245719 
" clip-path="url(#p264fc04611)" style="fill: none; stroke: #000000; stroke-width: 1.5; stroke-linecap: square"/>
   </g>
   <g id="line2d_12">
    <path d="M 127.549195 27.245719 
L 227.840192 27.245719 
" clip-path="url(#p264fc04611)" style="fill: none; stroke: #000000; stroke-width: 1.5; stroke-linecap: square"/>
   </g>
   <g id="patch_8">
    <path d="M 127.549195 88.633514 
L 127.549195 27.245719 
" style="fill: none; stroke: #000000; stroke-width: 0.8; stroke-linejoin: miter; stroke-linecap: square"/>
   </g>
   <g id="patch_9">
    <path d="M 227.840192 88.633514 
L 227.840192 27.245719 
" style="fill: none; stroke: #000000; stroke-width: 0.8; stroke-linejoin: miter; stroke-linecap: square"/>
   </g>
   <g id="patch_10">
    <path d="M 127.549195 88.633514 
L 227.840192 88.633514 
" style="fill: none; stroke: #000000; stroke-width: 0.8; stroke-linejoin: miter; stroke-linecap: square"/>
   </g>
   <g id="patch_11">
    <path d="M 127.549195 27.245719 
L 227.840192 27.245719 
" style="fill: none; stroke: #000000; stroke-width: 0.8; stroke-linejoin: miter; stroke-linecap: square"/>
   </g>
   <g id="text_3">
    <text style="font: 7px 'Arial'" transform="translate(159.216334 12.210469)">GRU Linear</text>
    <!-- $R^{2}$ (%) -->
    <g transform="translate(166.914694 21.245719)">
     <text>
      <tspan style="font: oblique 7px 'DejaVu Sans'" x="0" y="-0.6781249999999996">R</tspan>
      <tspan style="font: 4.9px 'DejaVu Sans'" x="5.355775" y="-3.3578124999999996">2</tspan>
      <tspan style="font: 7px 'Arial'" x="8.66471 10.609535 12.940589 19.16471" y="-0.6781249999999996"> (%)</tspan>
     </text>
    </g>
   </g>
  </g>
  <g id="axes_3">
   <g id="patch_12">
    <path d="M 247.898391 88.633514 
L 348.189387 88.633514 
L 348.189387 27.245719 
L 247.898391 27.245719 
z
" style="fill: #ffffff"/>
   </g>
   <g id="PolyCollection_9">
    <defs>
     <path id="mbec87090f6" d="M 247.898391 -122.063783 
L 247.898391 -91.369886 
L 298.043889 -91.369886 
L 298.043889 -122.063783 
L 298.043889 -122.063783 
L 247.898391 -122.063783 
z
" style="stroke: #000000"/>
    </defs>
    <g clip-path="url(#p807efe98de)">
     <use xlink:href="#mbec87090f6" x="0" y="180.0034" style="stroke: #000000"/>
    </g>
   </g>
   <g id="PolyCollection_10">
    <defs>
     <path id="m428a07d47b" d="M 247.898391 -152.757681 
L 247.898391 -122.063783 
L 298.043889 -122.063783 
L 298.043889 -152.757681 
L 298.043889 -152.757681 
L 247.898391 -152.757681 
z
" style="stroke: #ffffff"/>
    </defs>
    <g clip-path="url(#p807efe98de)">
     <use xlink:href="#m428a07d47b" x="0" y="180.0034" style="fill: #ffffff; stroke: #ffffff"/>
    </g>
   </g>
   <g id="PolyCollection_11">
    <defs>
     <path id="ma0e84f3e9e" d="M 298.043889 -122.063783 
L 298.043889 -91.369886 
L 348.189387 -91.369886 
L 348.189387 -122.063783 
L 348.189387 -122.063783 
L 298.043889 -122.063783 
z
" style="stroke: #ffffff"/>
    </defs>
    <g clip-path="url(#p807efe98de)">
     <use xlink:href="#ma0e84f3e9e" x="0" y="180.0034" style="fill: #ffffff; stroke: #ffffff"/>
    </g>
   </g>
   <g id="PolyCollection_12">
    <defs>
     <path id="mcdc94831d1" d="M 298.043889 -152.757681 
L 298.043889 -122.063783 
L 348.189387 -122.063783 
L 348.189387 -152.757681 
L 348.189387 -152.757681 
L 298.043889 -152.757681 
z
" style="stroke: #000000"/>
    </defs>
    <g clip-path="url(#p807efe98de)">
     <use xlink:href="#mcdc94831d1" x="0" y="180.0034" style="stroke: #000000"/>
    </g>
   </g>
   <g id="matplotlib.axis_5">
    <g id="text_4">
     <text style="font: 7px 'Arial'; text-anchor: middle" x="298.043889" y="97.643983" transform="rotate(-0 298.043889 97.643983)">Forecasting length 4</text>
    </g>
   </g>
   <g id="matplotlib.axis_6"/>
   <g id="line2d_13">
    <path d="M 247.898391 88.633514 
L 247.898391 27.245719 
" clip-path="url(#p807efe98de)" style="fill: none; stroke: #000000; stroke-width: 1.5; stroke-linecap: square"/>
   </g>
   <g id="line2d_14">
    <path d="M 247.898391 88.633514 
L 348.189387 88.633514 
" clip-path="url(#p807efe98de)" style="fill: none; stroke: #000000; stroke-width: 1.5; stroke-linecap: square"/>
   </g>
   <g id="line2d_15">
    <path d="M 298.043889 88.633514 
L 298.043889 27.245719 
" clip-path="url(#p807efe98de)" style="fill: none; stroke: #000000; stroke-width: 1.5; stroke-linecap: square"/>
   </g>
   <g id="line2d_16">
    <path d="M 247.898391 57.939616 
L 348.189387 57.939616 
" clip-path="url(#p807efe98de)" style="fill: none; stroke: #000000; stroke-width: 1.5; stroke-linecap: square"/>
   </g>
   <g id="line2d_17">
    <path d="M 348.189387 88.633514 
L 348.189387 27.245719 
" clip-path="url(#p807efe98de)" style="fill: none; stroke: #000000; stroke-width: 1.5; stroke-linecap: square"/>
   </g>
   <g id="line2d_18">
    <path d="M 247.898391 27.245719 
L 348.189387 27.245719 
" clip-path="url(#p807efe98de)" style="fill: none; stroke: #000000; stroke-width: 1.5; stroke-linecap: square"/>
   </g>
   <g id="patch_13">
    <path d="M 247.898391 88.633514 
L 247.898391 27.245719 
" style="fill: none; stroke: #000000; stroke-width: 0.8; stroke-linejoin: miter; stroke-linecap: square"/>
   </g>
   <g id="patch_14">
    <path d="M 348.189387 88.633514 
L 348.189387 27.245719 
" style="fill: none; stroke: #000000; stroke-width: 0.8; stroke-linejoin: miter; stroke-linecap: square"/>
   </g>
   <g id="patch_15">
    <path d="M 247.898391 88.633514 
L 348.189387 88.633514 
" style="fill: none; stroke: #000000; stroke-width: 0.8; stroke-linejoin: miter; stroke-linecap: square"/>
   </g>
   <g id="patch_16">
    <path d="M 247.898391 27.245719 
L 348.189387 27.245719 
" style="fill: none; stroke: #000000; stroke-width: 0.8; stroke-linejoin: miter; stroke-linecap: square"/>
   </g>
  </g>
  <g id="axes_4">
   <g id="patch_17">
    <path d="M 368.247586 88.633514 
L 468.538583 88.633514 
L 468.538583 27.245719 
L 368.247586 27.245719 
z
" style="fill: #ffffff"/>
   </g>
   <g id="PolyCollection_13">
    <defs>
     <path id="mceae19d340" d="M 368.247586 -122.063783 
L 368.247586 -91.369886 
L 418.393085 -91.369886 
L 418.393085 -122.063783 
L 418.393085 -122.063783 
L 368.247586 -122.063783 
z
" style="stroke: #000000"/>
    </defs>
    <g clip-path="url(#p1e87ea2812)">
     <use xlink:href="#mceae19d340" x="0" y="180.0034" style="stroke: #000000"/>
    </g>
   </g>
   <g id="PolyCollection_14">
    <defs>
     <path id="mc96b6abd55" d="M 368.247586 -152.757681 
L 368.247586 -122.063783 
L 418.393085 -122.063783 
L 418.393085 -152.757681 
L 418.393085 -152.757681 
L 368.247586 -152.757681 
z
" style="stroke: #ffffff"/>
    </defs>
    <g clip-path="url(#p1e87ea2812)">
     <use xlink:href="#mc96b6abd55" x="0" y="180.0034" style="fill: #ffffff; stroke: #ffffff"/>
    </g>
   </g>
   <g id="PolyCollection_15">
    <defs>
     <path id="mbd2f90da68" d="M 418.393085 -122.063783 
L 418.393085 -91.369886 
L 468.538583 -91.369886 
L 468.538583 -122.063783 
L 468.538583 -122.063783 
L 418.393085 -122.063783 
z
" style="stroke: #ffffff"/>
    </defs>
    <g clip-path="url(#p1e87ea2812)">
     <use xlink:href="#mbd2f90da68" x="0" y="180.0034" style="fill: #ffffff; stroke: #ffffff"/>
    </g>
   </g>
   <g id="PolyCollection_16">
    <defs>
     <path id="mead567a427" d="M 418.393085 -152.757681 
L 418.393085 -122.063783 
L 468.538583 -122.063783 
L 468.538583 -152.757681 
L 468.538583 -152.757681 
L 418.393085 -152.757681 
z
" style="stroke: #000000"/>
    </defs>
    <g clip-path="url(#p1e87ea2812)">
     <use xlink:href="#mead567a427" x="0" y="180.0034" style="stroke: #000000"/>
    </g>
   </g>
   <g id="matplotlib.axis_7">
    <g id="text_5">
     <text style="font: 7px 'Arial'; text-anchor: middle" x="418.393085" y="97.643983" transform="rotate(-0 418.393085 97.643983)">Forecasting length 5</text>
    </g>
   </g>
   <g id="matplotlib.axis_8"/>
   <g id="line2d_19">
    <path d="M 368.247586 88.633514 
L 368.247586 27.245719 
" clip-path="url(#p1e87ea2812)" style="fill: none; stroke: #000000; stroke-width: 1.5; stroke-linecap: square"/>
   </g>
   <g id="line2d_20">
    <path d="M 368.247586 88.633514 
L 468.538583 88.633514 
" clip-path="url(#p1e87ea2812)" style="fill: none; stroke: #000000; stroke-width: 1.5; stroke-linecap: square"/>
   </g>
   <g id="line2d_21">
    <path d="M 418.393085 88.633514 
L 418.393085 27.245719 
" clip-path="url(#p1e87ea2812)" style="fill: none; stroke: #000000; stroke-width: 1.5; stroke-linecap: square"/>
   </g>
   <g id="line2d_22">
    <path d="M 368.247586 57.939616 
L 468.538583 57.939616 
" clip-path="url(#p1e87ea2812)" style="fill: none; stroke: #000000; stroke-width: 1.5; stroke-linecap: square"/>
   </g>
   <g id="line2d_23">
    <path d="M 468.538583 88.633514 
L 468.538583 27.245719 
" clip-path="url(#p1e87ea2812)" style="fill: none; stroke: #000000; stroke-width: 1.5; stroke-linecap: square"/>
   </g>
   <g id="line2d_24">
    <path d="M 368.247586 27.245719 
L 468.538583 27.245719 
" clip-path="url(#p1e87ea2812)" style="fill: none; stroke: #000000; stroke-width: 1.5; stroke-linecap: square"/>
   </g>
   <g id="patch_18">
    <path d="M 368.247586 88.633514 
L 368.247586 27.245719 
" style="fill: none; stroke: #000000; stroke-width: 0.8; stroke-linejoin: miter; stroke-linecap: square"/>
   </g>
   <g id="patch_19">
    <path d="M 468.538583 88.633514 
L 468.538583 27.245719 
" style="fill: none; stroke: #000000; stroke-width: 0.8; stroke-linejoin: miter; stroke-linecap: square"/>
   </g>
   <g id="patch_20">
    <path d="M 368.247586 88.633514 
L 468.538583 88.633514 
" style="fill: none; stroke: #000000; stroke-width: 0.8; stroke-linejoin: miter; stroke-linecap: square"/>
   </g>
   <g id="patch_21">
    <path d="M 368.247586 27.245719 
L 468.538583 27.245719 
" style="fill: none; stroke: #000000; stroke-width: 0.8; stroke-linejoin: miter; stroke-linecap: square"/>
   </g>
  </g>
  <g id="axes_5">
   <g id="patch_22">
    <path d="M 7.2 162.298868 
L 107.490996 162.298868 
L 107.490996 100.911073 
L 7.2 100.911073 
z
" style="fill: #ffffff"/>
   </g>
   <g id="PolyCollection_17">
    <defs>
     <path id="me242bff020" d="M 7.2 -48.398429 
L 7.2 -17.704531 
L 57.345498 -17.704531 
L 57.345498 -48.398429 
L 57.345498 -48.398429 
L 7.2 -48.398429 
z
" style="stroke: #000000"/>
    </defs>
    <g clip-path="url(#p8c05540f00)">
     <use xlink:href="#me242bff020" x="0" y="180.0034" style="stroke: #000000"/>
    </g>
   </g>
   <g id="PolyCollection_18">
    <defs>
     <path id="mb5e1680d2a" d="M 7.2 -79.092327 
L 7.2 -48.398429 
L 57.345498 -48.398429 
L 57.345498 -79.092327 
L 57.345498 -79.092327 
L 7.2 -79.092327 
z
" style="stroke: #ffffff"/>
    </defs>
    <g clip-path="url(#p8c05540f00)">
     <use xlink:href="#mb5e1680d2a" x="0" y="180.0034" style="fill: #ffffff; stroke: #ffffff"/>
    </g>
   </g>
   <g id="PolyCollection_19">
    <defs>
     <path id="m7ae115cf24" d="M 57.345498 -48.398429 
L 57.345498 -17.704531 
L 107.490996 -17.704531 
L 107.490996 -48.398429 
L 107.490996 -48.398429 
L 57.345498 -48.398429 
z
" style="stroke: #ffffff"/>
    </defs>
    <g clip-path="url(#p8c05540f00)">
     <use xlink:href="#m7ae115cf24" x="0" y="180.0034" style="fill: #ffffff; stroke: #ffffff"/>
    </g>
   </g>
   <g id="PolyCollection_20">
    <defs>
     <path id="me7a929d753" d="M 57.345498 -79.092327 
L 57.345498 -48.398429 
L 107.490996 -48.398429 
L 107.490996 -79.092327 
L 107.490996 -79.092327 
L 57.345498 -79.092327 
z
" style="stroke: #000000"/>
    </defs>
    <g clip-path="url(#p8c05540f00)">
     <use xlink:href="#me7a929d753" x="0" y="180.0034" style="stroke: #000000"/>
    </g>
   </g>
   <g id="matplotlib.axis_9">
    <g id="text_6">
     <text style="font: 7px 'Arial'; text-anchor: middle" x="57.345498" y="171.330118" transform="rotate(-0 57.345498 171.330118)">Forecasting length 10</text>
    </g>
   </g>
   <g id="matplotlib.axis_10"/>
   <g id="line2d_25">
    <path d="M 7.2 162.298868 
L 7.2 100.911073 
" clip-path="url(#p8c05540f00)" style="fill: none; stroke: #000000; stroke-width: 1.5; stroke-linecap: square"/>
   </g>
   <g id="line2d_26">
    <path d="M 7.2 162.298868 
L 107.490996 162.298868 
" clip-path="url(#p8c05540f00)" style="fill: none; stroke: #000000; stroke-width: 1.5; stroke-linecap: square"/>
   </g>
   <g id="line2d_27">
    <path d="M 57.345498 162.298868 
L 57.345498 100.911073 
" clip-path="url(#p8c05540f00)" style="fill: none; stroke: #000000; stroke-width: 1.5; stroke-linecap: square"/>
   </g>
   <g id="line2d_28">
    <path d="M 7.2 131.604971 
L 107.490996 131.604971 
" clip-path="url(#p8c05540f00)" style="fill: none; stroke: #000000; stroke-width: 1.5; stroke-linecap: square"/>
   </g>
   <g id="line2d_29">
    <path d="M 107.490996 162.298868 
L 107.490996 100.911073 
" clip-path="url(#p8c05540f00)" style="fill: none; stroke: #000000; stroke-width: 1.5; stroke-linecap: square"/>
   </g>
   <g id="line2d_30">
    <path d="M 7.2 100.911073 
L 107.490996 100.911073 
" clip-path="url(#p8c05540f00)" style="fill: none; stroke: #000000; stroke-width: 1.5; stroke-linecap: square"/>
   </g>
   <g id="patch_23">
    <path d="M 7.2 162.298868 
L 7.2 100.911073 
" style="fill: none; stroke: #000000; stroke-width: 0.8; stroke-linejoin: miter; stroke-linecap: square"/>
   </g>
   <g id="patch_24">
    <path d="M 107.490996 162.298868 
L 107.490996 100.911073 
" style="fill: none; stroke: #000000; stroke-width: 0.8; stroke-linejoin: miter; stroke-linecap: square"/>
   </g>
   <g id="patch_25">
    <path d="M 7.2 162.298868 
L 107.490996 162.298868 
" style="fill: none; stroke: #000000; stroke-width: 0.8; stroke-linejoin: miter; stroke-linecap: square"/>
   </g>
   <g id="patch_26">
    <path d="M 7.2 100.911073 
L 107.490996 100.911073 
" style="fill: none; stroke: #000000; stroke-width: 0.8; stroke-linejoin: miter; stroke-linecap: square"/>
   </g>
  </g>
  <g id="axes_6">
   <g id="patch_27">
    <path d="M 127.549195 162.298868 
L 227.840192 162.298868 
L 227.840192 100.911073 
L 127.549195 100.911073 
z
" style="fill: #ffffff"/>
   </g>
   <g id="PolyCollection_21">
    <defs>
     <path id="md2f607c0b7" d="M 127.549195 -48.398429 
L 127.549195 -17.704531 
L 177.694694 -17.704531 
L 177.694694 -48.398429 
L 177.694694 -48.398429 
L 127.549195 -48.398429 
z
" style="stroke: #000000"/>
    </defs>
    <g clip-path="url(#p3961e0042e)">
     <use xlink:href="#md2f607c0b7" x="0" y="180.0034" style="stroke: #000000"/>
    </g>
   </g>
   <g id="PolyCollection_22">
    <defs>
     <path id="mdca9a6e6c8" d="M 127.549195 -79.092327 
L 127.549195 -48.398429 
L 177.694694 -48.398429 
L 177.694694 -79.092327 
L 177.694694 -79.092327 
L 127.549195 -79.092327 
z
" style="stroke: #ffffff"/>
    </defs>
    <g clip-path="url(#p3961e0042e)">
     <use xlink:href="#mdca9a6e6c8" x="0" y="180.0034" style="fill: #ffffff; stroke: #ffffff"/>
    </g>
   </g>
   <g id="PolyCollection_23">
    <defs>
     <path id="m8e591cd7bf" d="M 177.694694 -48.398429 
L 177.694694 -17.704531 
L 227.840192 -17.704531 
L 227.840192 -48.398429 
L 227.840192 -48.398429 
L 177.694694 -48.398429 
z
" style="stroke: #ffffff"/>
    </defs>
    <g clip-path="url(#p3961e0042e)">
     <use xlink:href="#m8e591cd7bf" x="0" y="180.0034" style="fill: #ffffff; stroke: #ffffff"/>
    </g>
   </g>
   <g id="PolyCollection_24">
    <defs>
     <path id="m5fb3946ec5" d="M 177.694694 -79.092327 
L 177.694694 -48.398429 
L 227.840192 -48.398429 
L 227.840192 -79.092327 
L 227.840192 -79.092327 
L 177.694694 -79.092327 
z
" style="stroke: #000000"/>
    </defs>
    <g clip-path="url(#p3961e0042e)">
     <use xlink:href="#m5fb3946ec5" x="0" y="180.0034" style="stroke: #000000"/>
    </g>
   </g>
   <g id="matplotlib.axis_11">
    <g id="text_7">
     <text style="font: 7px 'Arial'; text-anchor: middle" x="177.694694" y="171.330118" transform="rotate(-0 177.694694 171.330118)">Forecasting length 20</text>
    </g>
   </g>
   <g id="matplotlib.axis_12"/>
   <g id="line2d_31">
    <path d="M 127.549195 162.298868 
L 127.549195 100.911073 
" clip-path="url(#p3961e0042e)" style="fill: none; stroke: #000000; stroke-width: 1.5; stroke-linecap: square"/>
   </g>
   <g id="line2d_32">
    <path d="M 127.549195 162.298868 
L 227.840192 162.298868 
" clip-path="url(#p3961e0042e)" style="fill: none; stroke: #000000; stroke-width: 1.5; stroke-linecap: square"/>
   </g>
   <g id="line2d_33">
    <path d="M 177.694694 162.298868 
L 177.694694 100.911073 
" clip-path="url(#p3961e0042e)" style="fill: none; stroke: #000000; stroke-width: 1.5; stroke-linecap: square"/>
   </g>
   <g id="line2d_34">
    <path d="M 127.549195 131.604971 
L 227.840192 131.604971 
" clip-path="url(#p3961e0042e)" style="fill: none; stroke: #000000; stroke-width: 1.5; stroke-linecap: square"/>
   </g>
   <g id="line2d_35">
    <path d="M 227.840192 162.298868 
L 227.840192 100.911073 
" clip-path="url(#p3961e0042e)" style="fill: none; stroke: #000000; stroke-width: 1.5; stroke-linecap: square"/>
   </g>
   <g id="line2d_36">
    <path d="M 127.549195 100.911073 
L 227.840192 100.911073 
" clip-path="url(#p3961e0042e)" style="fill: none; stroke: #000000; stroke-width: 1.5; stroke-linecap: square"/>
   </g>
   <g id="patch_28">
    <path d="M 127.549195 162.298868 
L 127.549195 100.911073 
" style="fill: none; stroke: #000000; stroke-width: 0.8; stroke-linejoin: miter; stroke-linecap: square"/>
   </g>
   <g id="patch_29">
    <path d="M 227.840192 162.298868 
L 227.840192 100.911073 
" style="fill: none; stroke: #000000; stroke-width: 0.8; stroke-linejoin: miter; stroke-linecap: square"/>
   </g>
   <g id="patch_30">
    <path d="M 127.549195 162.298868 
L 227.840192 162.298868 
" style="fill: none; stroke: #000000; stroke-width: 0.8; stroke-linejoin: miter; stroke-linecap: square"/>
   </g>
   <g id="patch_31">
    <path d="M 127.549195 100.911073 
L 227.840192 100.911073 
" style="fill: none; stroke: #000000; stroke-width: 0.8; stroke-linejoin: miter; stroke-linecap: square"/>
   </g>
  </g>
  <g id="axes_7">
   <g id="patch_32">
    <path d="M 247.898391 162.298868 
L 348.189387 162.298868 
L 348.189387 100.911073 
L 247.898391 100.911073 
z
" style="fill: #ffffff"/>
   </g>
   <g id="PolyCollection_25">
    <defs>
     <path id="m9a2e46777a" d="M 247.898391 -48.398429 
L 247.898391 -17.704531 
L 298.043889 -17.704531 
L 298.043889 -48.398429 
L 298.043889 -48.398429 
L 247.898391 -48.398429 
z
" style="stroke: #000000"/>
    </defs>
    <g clip-path="url(#pc58d0e1a61)">
     <use xlink:href="#m9a2e46777a" x="0" y="180.0034" style="stroke: #000000"/>
    </g>
   </g>
   <g id="PolyCollection_26">
    <defs>
     <path id="me950b4d821" d="M 247.898391 -79.092327 
L 247.898391 -48.398429 
L 298.043889 -48.398429 
L 298.043889 -79.092327 
L 298.043889 -79.092327 
L 247.898391 -79.092327 
z
" style="stroke: #ffffff"/>
    </defs>
    <g clip-path="url(#pc58d0e1a61)">
     <use xlink:href="#me950b4d821" x="0" y="180.0034" style="fill: #ffffff; stroke: #ffffff"/>
    </g>
   </g>
   <g id="PolyCollection_27">
    <defs>
     <path id="mf3ec11b855" d="M 298.043889 -48.398429 
L 298.043889 -17.704531 
L 348.189387 -17.704531 
L 348.189387 -48.398429 
L 348.189387 -48.398429 
L 298.043889 -48.398429 
z
" style="stroke: #ffffff"/>
    </defs>
    <g clip-path="url(#pc58d0e1a61)">
     <use xlink:href="#mf3ec11b855" x="0" y="180.0034" style="fill: #ffffff; stroke: #ffffff"/>
    </g>
   </g>
   <g id="PolyCollection_28">
    <defs>
     <path id="md1cec6ce50" d="M 298.043889 -79.092327 
L 298.043889 -48.398429 
L 348.189387 -48.398429 
L 348.189387 -79.092327 
L 348.189387 -79.092327 
L 298.043889 -79.092327 
z
" style="stroke: #000000"/>
    </defs>
    <g clip-path="url(#pc58d0e1a61)">
     <use xlink:href="#md1cec6ce50" x="0" y="180.0034" style="stroke: #000000"/>
    </g>
   </g>
   <g id="matplotlib.axis_13">
    <g id="text_8">
     <text style="font: 7px 'Arial'; text-anchor: middle" x="298.043889" y="171.330118" transform="rotate(-0 298.043889 171.330118)">Forecasting length 30</text>
    </g>
   </g>
   <g id="matplotlib.axis_14">
    <g id="ytick_1">
     <g id="line2d_37">
      <defs>
       <path id="m021605cf2d" d="M 0 0 
L 3.5 0 
" style="stroke: #000000; stroke-width: 0.8"/>
      </defs>
      <g>
       <use xlink:href="#m021605cf2d" x="348.189387" y="146.95192" style="stroke: #000000; stroke-width: 0.8"/>
      </g>
     </g>
     <g id="text_9">
      <text style="font: 7px 'Arial'; text-anchor: start" x="355.189387" y="149.49981" transform="rotate(-0 355.189387 149.49981)">Speed, heading, and time</text>
     </g>
    </g>
    <g id="ytick_2">
     <g id="line2d_38">
      <g>
       <use xlink:href="#m021605cf2d" x="348.189387" y="116.258022" style="stroke: #000000; stroke-width: 0.8"/>
      </g>
     </g>
     <g id="text_10">
      <!-- $x$ and $y$ offset -->
      <g transform="translate(355.189387 118.813022)">
       <text>
        <tspan style="font: oblique 7px 'DejaVu Sans'" x="0 19.711426" y="-0.90625">xy</tspan>
        <tspan style="font: 7px 'Arial'" x="4.142578 6.087402 9.980469 13.873535 17.766602 23.854004 25.798828 29.691895 31.636719 33.581543 37.081543 40.974609" y="-0.90625"> and  offset</tspan>
       </text>
      </g>
     </g>
    </g>
   </g>
   <g id="line2d_39">
    <path d="M 247.898391 162.298868 
L 247.898391 100.911073 
" clip-path="url(#pc58d0e1a61)" style="fill: none; stroke: #000000; stroke-width: 1.5; stroke-linecap: square"/>
   </g>
   <g id="line2d_40">
    <path d="M 247.898391 162.298868 
L 348.189387 162.298868 
" clip-path="url(#pc58d0e1a61)" style="fill: none; stroke: #000000; stroke-width: 1.5; stroke-linecap: square"/>
   </g>
   <g id="line2d_41">
    <path d="M 298.043889 162.298868 
L 298.043889 100.911073 
" clip-path="url(#pc58d0e1a61)" style="fill: none; stroke: #000000; stroke-width: 1.5; stroke-linecap: square"/>
   </g>
   <g id="line2d_42">
    <path d="M 247.898391 131.604971 
L 348.189387 131.604971 
" clip-path="url(#pc58d0e1a61)" style="fill: none; stroke: #000000; stroke-width: 1.5; stroke-linecap: square"/>
   </g>
   <g id="line2d_43">
    <path d="M 348.189387 162.298868 
L 348.189387 100.911073 
" clip-path="url(#pc58d0e1a61)" style="fill: none; stroke: #000000; stroke-width: 1.5; stroke-linecap: square"/>
   </g>
   <g id="line2d_44">
    <path d="M 247.898391 100.911073 
L 348.189387 100.911073 
" clip-path="url(#pc58d0e1a61)" style="fill: none; stroke: #000000; stroke-width: 1.5; stroke-linecap: square"/>
   </g>
   <g id="patch_33">
    <path d="M 247.898391 162.298868 
L 247.898391 100.911073 
" style="fill: none; stroke: #000000; stroke-width: 0.8; stroke-linejoin: miter; stroke-linecap: square"/>
   </g>
   <g id="patch_34">
    <path d="M 348.189387 162.298868 
L 348.189387 100.911073 
" style="fill: none; stroke: #000000; stroke-width: 0.8; stroke-linejoin: miter; stroke-linecap: square"/>
   </g>
   <g id="patch_35">
    <path d="M 247.898391 162.298868 
L 348.189387 162.298868 
" style="fill: none; stroke: #000000; stroke-width: 0.8; stroke-linejoin: miter; stroke-linecap: square"/>
   </g>
   <g id="patch_36">
    <path d="M 247.898391 100.911073 
L 348.189387 100.911073 
" style="fill: none; stroke: #000000; stroke-width: 0.8; stroke-linejoin: miter; stroke-linecap: square"/>
   </g>
  </g>
 </g>
 <defs>
  <clipPath id="pd44d0a850c">
   <rect x="7.2" y="27.245719" width="100.290996" height="61.387795"/>
  </clipPath>
  <clipPath id="p264fc04611">
   <rect x="127.549195" y="27.245719" width="100.290996" height="61.387795"/>
  </clipPath>
  <clipPath id="p807efe98de">
   <rect x="247.898391" y="27.245719" width="100.290996" height="61.387795"/>
  </clipPath>
  <clipPath id="p1e87ea2812">
   <rect x="368.247586" y="27.245719" width="100.290996" height="61.387795"/>
  </clipPath>
  <clipPath id="p8c05540f00">
   <rect x="7.2" y="100.911073" width="100.290996" height="61.387795"/>
  </clipPath>
  <clipPath id="p3961e0042e">
   <rect x="127.549195" y="100.911073" width="100.290996" height="61.387795"/>
  </clipPath>
  <clipPath id="pc58d0e1a61">
   <rect x="247.898391" y="100.911073" width="100.290996" height="61.387795"/>
  </clipPath>
 </defs>
</svg>
