<?xml version="1.0" encoding="utf-8" standalone="no"?>
<!DOCTYPE svg PUBLIC "-//W3C//DTD SVG 1.1//EN"
  "http://www.w3.org/Graphics/SVG/1.1/DTD/svg11.dtd">
<svg xmlns:xlink="http://www.w3.org/1999/xlink" width="475.738583pt" height="178.657431pt" viewBox="0 0 475.738583 178.657431" xmlns="http://www.w3.org/2000/svg" version="1.1">
 <metadata>
  <rdf:RDF xmlns:dc="http://purl.org/dc/elements/1.1/" xmlns:cc="http://creativecommons.org/ns#" xmlns:rdf="http://www.w3.org/1999/02/22-rdf-syntax-ns#">
   <cc:Work>
    <dc:type rdf:resource="http://purl.org/dc/dcmitype/StillImage"/>
    <dc:date>2024-10-14T05:27:51.722074</dc:date>
    <dc:format>image/svg+xml</dc:format>
    <dc:creator>
     <cc:Agent>
      <dc:title>Matplotlib v3.7.0, https://matplotlib.org/</dc:title>
     </cc:Agent>
    </dc:creator>
   </cc:Work>
  </rdf:RDF>
 </metadata>
 <defs>
  <style type="text/css">*{stroke-linejoin: round; stroke-linecap: butt}</style>
 </defs>
 <g id="figure_1">
  <g id="patch_1">
   <path d="M 0 178.657431 
L 475.738583 178.657431 
L 475.738583 0 
L 0 0 
z
" style="fill: #ffffff"/>
  </g>
  <g id="axes_1">
   <g id="patch_2">
    <path d="M 7.2 87.002077 
L 107.490996 87.002077 
L 107.490996 25.614281 
L 7.2 25.614281 
z
" style="fill: #ffffff"/>
   </g>
   <g id="PolyCollection_1">
    <defs>
     <path id="m8cb9d57d03" d="M 7.2 -122.349252 
L 7.2 -91.655354 
L 57.345498 -91.655354 
L 57.345498 -122.349252 
L 57.345498 -122.349252 
L 7.2 -122.349252 
z
" style="stroke: #000000"/>
    </defs>
    <g clip-path="url(#pa959749bae)">
     <use xlink:href="#m8cb9d57d03" x="0" y="178.657431" style="stroke: #000000"/>
    </g>
   </g>
   <g id="PolyCollection_2">
    <defs>
     <path id="m63c5063b11" d="M 7.2 -153.04315 
L 7.2 -122.349252 
L 57.345498 -122.349252 
L 57.345498 -153.04315 
L 57.345498 -153.04315 
L 7.2 -153.04315 
z
" style="stroke: #ffffff"/>
    </defs>
    <g clip-path="url(#pa959749bae)">
     <use xlink:href="#m63c5063b11" x="0" y="178.657431" style="fill: #ffffff; stroke: #ffffff"/>
    </g>
   </g>
   <g id="PolyCollection_3">
    <defs>
     <path id="m7914160d71" d="M 57.345498 -122.349252 
L 57.345498 -91.655354 
L 107.490996 -91.655354 
L 107.490996 -122.349252 
L 107.490996 -122.349252 
L 57.345498 -122.349252 
z
" style="stroke: #ffffff"/>
    </defs>
    <g clip-path="url(#pa959749bae)">
     <use xlink:href="#m7914160d71" x="0" y="178.657431" style="fill: #ffffff; stroke: #ffffff"/>
    </g>
   </g>
   <g id="PolyCollection_4">
    <defs>
     <path id="m8f5457f85b" d="M 57.345498 -153.04315 
L 57.345498 -122.349252 
L 107.490996 -122.349252 
L 107.490996 -153.04315 
L 107.490996 -153.04315 
L 57.345498 -153.04315 
z
" style="stroke: #000000"/>
    </defs>
    <g clip-path="url(#pa959749bae)">
     <use xlink:href="#m8f5457f85b" x="0" y="178.657431" style="stroke: #000000"/>
    </g>
   </g>
   <g id="matplotlib.axis_1">
    <g id="text_1">
     <!-- Forecasting time $2$ $s$ -->
     <g transform="translate(25.460498 96.252077)">
      <text>
       <tspan style="font: 7px 'Arial'" x="0 4.275879 8.168945 10.5 14.393066 17.893066 21.786133 25.286133 27.230957 28.786133 32.679199 36.572266 38.51709 40.461914 42.01709 47.848145 51.741211 58.139648" y="-0.796875">Forecasting time  </tspan>
       <tspan style="font: 7px 'DejaVu Sans'" x="53.686035" y="-0.796875">2</tspan>
       <tspan style="font: oblique 7px 'DejaVu Sans'" x="60.084473" y="-0.796875">s</tspan>
      </text>
     </g>
    </g>
   </g>
   <g id="matplotlib.axis_2"/>
   <g id="line2d_1">
    <path d="M 7.2 87.002077 
L 7.2 25.614281 
" clip-path="url(#pa959749bae)" style="fill: none; stroke: #000000; stroke-width: 1.5; stroke-linecap: square"/>
   </g>
   <g id="line2d_2">
    <path d="M 7.2 87.002077 
L 107.490996 87.002077 
" clip-path="url(#pa959749bae)" style="fill: none; stroke: #000000; stroke-width: 1.5; stroke-linecap: square"/>
   </g>
   <g id="line2d_3">
    <path d="M 57.345498 87.002077 
L 57.345498 25.614281 
" clip-path="url(#pa959749bae)" style="fill: none; stroke: #000000; stroke-width: 1.5; stroke-linecap: square"/>
   </g>
   <g id="line2d_4">
    <path d="M 7.2 56.308179 
L 107.490996 56.308179 
" clip-path="url(#pa959749bae)" style="fill: none; stroke: #000000; stroke-width: 1.5; stroke-linecap: square"/>
   </g>
   <g id="line2d_5">
    <path d="M 107.490996 87.002077 
L 107.490996 25.614281 
" clip-path="url(#pa959749bae)" style="fill: none; stroke: #000000; stroke-width: 1.5; stroke-linecap: square"/>
   </g>
   <g id="line2d_6">
    <path d="M 7.2 25.614281 
L 107.490996 25.614281 
" clip-path="url(#pa959749bae)" style="fill: none; stroke: #000000; stroke-width: 1.5; stroke-linecap: square"/>
   </g>
   <g id="patch_3">
    <path d="M 7.2 87.002077 
L 7.2 25.614281 
" style="fill: none; stroke: #000000; stroke-width: 0.8; stroke-linejoin: miter; stroke-linecap: square"/>
   </g>
   <g id="patch_4">
    <path d="M 107.490996 87.002077 
L 107.490996 25.614281 
" style="fill: none; stroke: #000000; stroke-width: 0.8; stroke-linejoin: miter; stroke-linecap: square"/>
   </g>
   <g id="patch_5">
    <path d="M 7.2 87.002077 
L 107.490996 87.002077 
" style="fill: none; stroke: #000000; stroke-width: 0.8; stroke-linejoin: miter; stroke-linecap: square"/>
   </g>
   <g id="patch_6">
    <path d="M 7.2 25.614281 
L 107.490996 25.614281 
" style="fill: none; stroke: #000000; stroke-width: 0.8; stroke-linejoin: miter; stroke-linecap: square"/>
   </g>
  </g>
  <g id="axes_2">
   <g id="patch_7">
    <path d="M 127.549195 87.002077 
L 227.840192 87.002077 
L 227.840192 25.614281 
L 127.549195 25.614281 
z
" style="fill: #ffffff"/>
   </g>
   <g id="PolyCollection_5">
    <defs>
     <path id="mcb233ff380" d="M 127.549195 -122.349252 
L 127.549195 -91.655354 
L 177.694694 -91.655354 
L 177.694694 -122.349252 
L 177.694694 -122.349252 
L 127.549195 -122.349252 
z
" style="stroke: #000000"/>
    </defs>
    <g clip-path="url(#p58d158b4bd)">
     <use xlink:href="#mcb233ff380" x="0" y="178.657431" style="stroke: #000000"/>
    </g>
   </g>
   <g id="PolyCollection_6">
    <defs>
     <path id="m11cd6548d4" d="M 127.549195 -153.04315 
L 127.549195 -122.349252 
L 177.694694 -122.349252 
L 177.694694 -153.04315 
L 177.694694 -153.04315 
L 127.549195 -153.04315 
z
" style="stroke: #ffffff"/>
    </defs>
    <g clip-path="url(#p58d158b4bd)">
     <use xlink:href="#m11cd6548d4" x="0" y="178.657431" style="fill: #ffffff; stroke: #ffffff"/>
    </g>
   </g>
   <g id="PolyCollection_7">
    <defs>
     <path id="m9f4d3dff0e" d="M 177.694694 -122.349252 
L 177.694694 -91.655354 
L 227.840192 -91.655354 
L 227.840192 -122.349252 
L 227.840192 -122.349252 
L 177.694694 -122.349252 
z
" style="stroke: #ffffff"/>
    </defs>
    <g clip-path="url(#p58d158b4bd)">
     <use xlink:href="#m9f4d3dff0e" x="0" y="178.657431" style="fill: #ffffff; stroke: #ffffff"/>
    </g>
   </g>
   <g id="PolyCollection_8">
    <defs>
     <path id="m894a7a1d2f" d="M 177.694694 -153.04315 
L 177.694694 -122.349252 
L 227.840192 -122.349252 
L 227.840192 -153.04315 
L 227.840192 -153.04315 
L 177.694694 -153.04315 
z
" style="stroke: #000000"/>
    </defs>
    <g clip-path="url(#p58d158b4bd)">
     <use xlink:href="#m894a7a1d2f" x="0" y="178.657431" style="stroke: #000000"/>
    </g>
   </g>
   <g id="matplotlib.axis_3">
    <g id="text_2">
     <!-- Forecasting time $3$ $s$ -->
     <g transform="translate(145.809694 96.252077)">
      <text>
       <tspan style="font: 7px 'Arial'" x="0 4.275879 8.168945 10.5 14.393066 17.893066 21.786133 25.286133 27.230957 28.786133 32.679199 36.572266 38.51709 40.461914 42.01709 47.848145 51.741211 58.139648" y="-0.796875">Forecasting time  </tspan>
       <tspan style="font: 7px 'DejaVu Sans'" x="53.686035" y="-0.796875">3</tspan>
       <tspan style="font: oblique 7px 'DejaVu Sans'" x="60.084473" y="-0.796875">s</tspan>
      </text>
     </g>
    </g>
   </g>
   <g id="matplotlib.axis_4"/>
   <g id="line2d_7">
    <path d="M 127.549195 87.002077 
L 127.549195 25.614281 
" clip-path="url(#p58d158b4bd)" style="fill: none; stroke: #000000; stroke-width: 1.5; stroke-linecap: square"/>
   </g>
   <g id="line2d_8">
    <path d="M 127.549195 87.002077 
L 227.840192 87.002077 
" clip-path="url(#p58d158b4bd)" style="fill: none; stroke: #000000; stroke-width: 1.5; stroke-linecap: square"/>
   </g>
   <g id="line2d_9">
    <path d="M 177.694694 87.002077 
L 177.694694 25.614281 
" clip-path="url(#p58d158b4bd)" style="fill: none; stroke: #000000; stroke-width: 1.5; stroke-linecap: square"/>
   </g>
   <g id="line2d_10">
    <path d="M 127.549195 56.308179 
L 227.840192 56.308179 
" clip-path="url(#p58d158b4bd)" style="fill: none; stroke: #000000; stroke-width: 1.5; stroke-linecap: square"/>
   </g>
   <g id="line2d_11">
    <path d="M 227.840192 87.002077 
L 227.840192 25.614281 
" clip-path="url(#p58d158b4bd)" style="fill: none; stroke: #000000; stroke-width: 1.5; stroke-linecap: square"/>
   </g>
   <g id="line2d_12">
    <path d="M 127.549195 25.614281 
L 227.840192 25.614281 
" clip-path="url(#p58d158b4bd)" style="fill: none; stroke: #000000; stroke-width: 1.5; stroke-linecap: square"/>
   </g>
   <g id="patch_8">
    <path d="M 127.549195 87.002077 
L 127.549195 25.614281 
" style="fill: none; stroke: #000000; stroke-width: 0.8; stroke-linejoin: miter; stroke-linecap: square"/>
   </g>
   <g id="patch_9">
    <path d="M 227.840192 87.002077 
L 227.840192 25.614281 
" style="fill: none; stroke: #000000; stroke-width: 0.8; stroke-linejoin: miter; stroke-linecap: square"/>
   </g>
   <g id="patch_10">
    <path d="M 127.549195 87.002077 
L 227.840192 87.002077 
" style="fill: none; stroke: #000000; stroke-width: 0.8; stroke-linejoin: miter; stroke-linecap: square"/>
   </g>
   <g id="patch_11">
    <path d="M 127.549195 25.614281 
L 227.840192 25.614281 
" style="fill: none; stroke: #000000; stroke-width: 0.8; stroke-linejoin: miter; stroke-linecap: square"/>
   </g>
   <g id="text_3">
    <text style="font: 7px 'Arial'" transform="translate(161.939225 12.210469)">GRU Att 2</text>
    <text style="font: 7px 'Arial'" transform="translate(148.315475 19.614281)">Euclidean distance</text>
   </g>
  </g>
  <g id="axes_3">
   <g id="patch_12">
    <path d="M 247.898391 87.002077 
L 348.189387 87.002077 
L 348.189387 25.614281 
L 247.898391 25.614281 
z
" style="fill: #ffffff"/>
   </g>
   <g id="PolyCollection_9">
    <defs>
     <path id="mc5a51ad1f3" d="M 247.898391 -122.349252 
L 247.898391 -91.655354 
L 298.043889 -91.655354 
L 298.043889 -122.349252 
L 298.043889 -122.349252 
L 247.898391 -122.349252 
z
" style="stroke: #000000"/>
    </defs>
    <g clip-path="url(#p0a50af8a91)">
     <use xlink:href="#mc5a51ad1f3" x="0" y="178.657431" style="stroke: #000000"/>
    </g>
   </g>
   <g id="PolyCollection_10">
    <defs>
     <path id="me548255abd" d="M 247.898391 -153.04315 
L 247.898391 -122.349252 
L 298.043889 -122.349252 
L 298.043889 -153.04315 
L 298.043889 -153.04315 
L 247.898391 -153.04315 
z
" style="stroke: #ffffff"/>
    </defs>
    <g clip-path="url(#p0a50af8a91)">
     <use xlink:href="#me548255abd" x="0" y="178.657431" style="fill: #ffffff; stroke: #ffffff"/>
    </g>
   </g>
   <g id="PolyCollection_11">
    <defs>
     <path id="mf832dde806" d="M 298.043889 -122.349252 
L 298.043889 -91.655354 
L 348.189387 -91.655354 
L 348.189387 -122.349252 
L 348.189387 -122.349252 
L 298.043889 -122.349252 
z
" style="stroke: #ffffff"/>
    </defs>
    <g clip-path="url(#p0a50af8a91)">
     <use xlink:href="#mf832dde806" x="0" y="178.657431" style="fill: #ffffff; stroke: #ffffff"/>
    </g>
   </g>
   <g id="PolyCollection_12">
    <defs>
     <path id="mf5fbf2ecf4" d="M 298.043889 -153.04315 
L 298.043889 -122.349252 
L 348.189387 -122.349252 
L 348.189387 -153.04315 
L 348.189387 -153.04315 
L 298.043889 -153.04315 
z
" style="stroke: #000000"/>
    </defs>
    <g clip-path="url(#p0a50af8a91)">
     <use xlink:href="#mf5fbf2ecf4" x="0" y="178.657431" style="stroke: #000000"/>
    </g>
   </g>
   <g id="matplotlib.axis_5">
    <g id="text_4">
     <!-- Forecasting time $4$ $s$ -->
     <g transform="translate(266.158889 96.112077)">
      <text>
       <tspan style="font: 7px 'Arial'" x="0 4.275879 8.168945 10.5 14.393066 17.893066 21.786133 25.286133 27.230957 28.786133 32.679199 36.572266 38.51709 40.461914 42.01709 47.848145 51.741211 58.139648" y="-0.890625">Forecasting time  </tspan>
       <tspan style="font: 7px 'DejaVu Sans'" x="53.686035" y="-0.890625">4</tspan>
       <tspan style="font: oblique 7px 'DejaVu Sans'" x="60.084473" y="-0.890625">s</tspan>
      </text>
     </g>
    </g>
   </g>
   <g id="matplotlib.axis_6"/>
   <g id="line2d_13">
    <path d="M 247.898391 87.002077 
L 247.898391 25.614281 
" clip-path="url(#p0a50af8a91)" style="fill: none; stroke: #000000; stroke-width: 1.5; stroke-linecap: square"/>
   </g>
   <g id="line2d_14">
    <path d="M 247.898391 87.002077 
L 348.189387 87.002077 
" clip-path="url(#p0a50af8a91)" style="fill: none; stroke: #000000; stroke-width: 1.5; stroke-linecap: square"/>
   </g>
   <g id="line2d_15">
    <path d="M 298.043889 87.002077 
L 298.043889 25.614281 
" clip-path="url(#p0a50af8a91)" style="fill: none; stroke: #000000; stroke-width: 1.5; stroke-linecap: square"/>
   </g>
   <g id="line2d_16">
    <path d="M 247.898391 56.308179 
L 348.189387 56.308179 
" clip-path="url(#p0a50af8a91)" style="fill: none; stroke: #000000; stroke-width: 1.5; stroke-linecap: square"/>
   </g>
   <g id="line2d_17">
    <path d="M 348.189387 87.002077 
L 348.189387 25.614281 
" clip-path="url(#p0a50af8a91)" style="fill: none; stroke: #000000; stroke-width: 1.5; stroke-linecap: square"/>
   </g>
   <g id="line2d_18">
    <path d="M 247.898391 25.614281 
L 348.189387 25.614281 
" clip-path="url(#p0a50af8a91)" style="fill: none; stroke: #000000; stroke-width: 1.5; stroke-linecap: square"/>
   </g>
   <g id="patch_13">
    <path d="M 247.898391 87.002077 
L 247.898391 25.614281 
" style="fill: none; stroke: #000000; stroke-width: 0.8; stroke-linejoin: miter; stroke-linecap: square"/>
   </g>
   <g id="patch_14">
    <path d="M 348.189387 87.002077 
L 348.189387 25.614281 
" style="fill: none; stroke: #000000; stroke-width: 0.8; stroke-linejoin: miter; stroke-linecap: square"/>
   </g>
   <g id="patch_15">
    <path d="M 247.898391 87.002077 
L 348.189387 87.002077 
" style="fill: none; stroke: #000000; stroke-width: 0.8; stroke-linejoin: miter; stroke-linecap: square"/>
   </g>
   <g id="patch_16">
    <path d="M 247.898391 25.614281 
L 348.189387 25.614281 
" style="fill: none; stroke: #000000; stroke-width: 0.8; stroke-linejoin: miter; stroke-linecap: square"/>
   </g>
  </g>
  <g id="axes_4">
   <g id="patch_17">
    <path d="M 368.247586 87.002077 
L 468.538583 87.002077 
L 468.538583 25.614281 
L 368.247586 25.614281 
z
" style="fill: #ffffff"/>
   </g>
   <g id="PolyCollection_13">
    <defs>
     <path id="me756e30bb7" d="M 368.247586 -122.349252 
L 368.247586 -91.655354 
L 418.393085 -91.655354 
L 418.393085 -122.349252 
L 418.393085 -122.349252 
L 368.247586 -122.349252 
z
" style="stroke: #000000"/>
    </defs>
    <g clip-path="url(#p4861f64f8d)">
     <use xlink:href="#me756e30bb7" x="0" y="178.657431" style="stroke: #000000"/>
    </g>
   </g>
   <g id="PolyCollection_14">
    <defs>
     <path id="m7db0f7fe12" d="M 368.247586 -153.04315 
L 368.247586 -122.349252 
L 418.393085 -122.349252 
L 418.393085 -153.04315 
L 418.393085 -153.04315 
L 368.247586 -153.04315 
z
" style="stroke: #ffffff"/>
    </defs>
    <g clip-path="url(#p4861f64f8d)">
     <use xlink:href="#m7db0f7fe12" x="0" y="178.657431" style="fill: #ffffff; stroke: #ffffff"/>
    </g>
   </g>
   <g id="PolyCollection_15">
    <defs>
     <path id="maf73161590" d="M 418.393085 -122.349252 
L 418.393085 -91.655354 
L 468.538583 -91.655354 
L 468.538583 -122.349252 
L 468.538583 -122.349252 
L 418.393085 -122.349252 
z
" style="stroke: #ffffff"/>
    </defs>
    <g clip-path="url(#p4861f64f8d)">
     <use xlink:href="#maf73161590" x="0" y="178.657431" style="fill: #ffffff; stroke: #ffffff"/>
    </g>
   </g>
   <g id="PolyCollection_16">
    <defs>
     <path id="med6d0949b0" d="M 418.393085 -153.04315 
L 418.393085 -122.349252 
L 468.538583 -122.349252 
L 468.538583 -153.04315 
L 468.538583 -153.04315 
L 418.393085 -153.04315 
z
" style="stroke: #000000"/>
    </defs>
    <g clip-path="url(#p4861f64f8d)">
     <use xlink:href="#med6d0949b0" x="0" y="178.657431" style="stroke: #000000"/>
    </g>
   </g>
   <g id="matplotlib.axis_7">
    <g id="text_5">
     <!-- Forecasting time $5$ $s$ -->
     <g transform="translate(386.508085 96.112077)">
      <text>
       <tspan style="font: 7px 'Arial'" x="0 4.275879 8.168945 10.5 14.393066 17.893066 21.786133 25.286133 27.230957 28.786133 32.679199 36.572266 38.51709 40.461914 42.01709 47.848145 51.741211 58.139648" y="-0.890625">Forecasting time  </tspan>
       <tspan style="font: 7px 'DejaVu Sans'" x="53.686035" y="-0.890625">5</tspan>
       <tspan style="font: oblique 7px 'DejaVu Sans'" x="60.084473" y="-0.890625">s</tspan>
      </text>
     </g>
    </g>
   </g>
   <g id="matplotlib.axis_8"/>
   <g id="line2d_19">
    <path d="M 368.247586 87.002077 
L 368.247586 25.614281 
" clip-path="url(#p4861f64f8d)" style="fill: none; stroke: #000000; stroke-width: 1.5; stroke-linecap: square"/>
   </g>
   <g id="line2d_20">
    <path d="M 368.247586 87.002077 
L 468.538583 87.002077 
" clip-path="url(#p4861f64f8d)" style="fill: none; stroke: #000000; stroke-width: 1.5; stroke-linecap: square"/>
   </g>
   <g id="line2d_21">
    <path d="M 418.393085 87.002077 
L 418.393085 25.614281 
" clip-path="url(#p4861f64f8d)" style="fill: none; stroke: #000000; stroke-width: 1.5; stroke-linecap: square"/>
   </g>
   <g id="line2d_22">
    <path d="M 368.247586 56.308179 
L 468.538583 56.308179 
" clip-path="url(#p4861f64f8d)" style="fill: none; stroke: #000000; stroke-width: 1.5; stroke-linecap: square"/>
   </g>
   <g id="line2d_23">
    <path d="M 468.538583 87.002077 
L 468.538583 25.614281 
" clip-path="url(#p4861f64f8d)" style="fill: none; stroke: #000000; stroke-width: 1.5; stroke-linecap: square"/>
   </g>
   <g id="line2d_24">
    <path d="M 368.247586 25.614281 
L 468.538583 25.614281 
" clip-path="url(#p4861f64f8d)" style="fill: none; stroke: #000000; stroke-width: 1.5; stroke-linecap: square"/>
   </g>
   <g id="patch_18">
    <path d="M 368.247586 87.002077 
L 368.247586 25.614281 
" style="fill: none; stroke: #000000; stroke-width: 0.8; stroke-linejoin: miter; stroke-linecap: square"/>
   </g>
   <g id="patch_19">
    <path d="M 468.538583 87.002077 
L 468.538583 25.614281 
" style="fill: none; stroke: #000000; stroke-width: 0.8; stroke-linejoin: miter; stroke-linecap: square"/>
   </g>
   <g id="patch_20">
    <path d="M 368.247586 87.002077 
L 468.538583 87.002077 
" style="fill: none; stroke: #000000; stroke-width: 0.8; stroke-linejoin: miter; stroke-linecap: square"/>
   </g>
   <g id="patch_21">
    <path d="M 368.247586 25.614281 
L 468.538583 25.614281 
" style="fill: none; stroke: #000000; stroke-width: 0.8; stroke-linejoin: miter; stroke-linecap: square"/>
   </g>
  </g>
  <g id="axes_5">
   <g id="patch_22">
    <path d="M 7.2 160.667431 
L 107.490996 160.667431 
L 107.490996 99.279636 
L 7.2 99.279636 
z
" style="fill: #ffffff"/>
   </g>
   <g id="PolyCollection_17">
    <defs>
     <path id="m5c2156c08b" d="M 7.2 -48.683898 
L 7.2 -17.99 
L 57.345498 -17.99 
L 57.345498 -48.683898 
L 57.345498 -48.683898 
L 7.2 -48.683898 
z
" style="stroke: #000000"/>
    </defs>
    <g clip-path="url(#paeebd21baa)">
     <use xlink:href="#m5c2156c08b" x="0" y="178.657431" style="stroke: #000000"/>
    </g>
   </g>
   <g id="PolyCollection_18">
    <defs>
     <path id="ma1f226f125" d="M 7.2 -79.377795 
L 7.2 -48.683898 
L 57.345498 -48.683898 
L 57.345498 -79.377795 
L 57.345498 -79.377795 
L 7.2 -79.377795 
z
" style="stroke: #ffffff"/>
    </defs>
    <g clip-path="url(#paeebd21baa)">
     <use xlink:href="#ma1f226f125" x="0" y="178.657431" style="fill: #ffffff; stroke: #ffffff"/>
    </g>
   </g>
   <g id="PolyCollection_19">
    <defs>
     <path id="m56600fc9ef" d="M 57.345498 -48.683898 
L 57.345498 -17.99 
L 107.490996 -17.99 
L 107.490996 -48.683898 
L 107.490996 -48.683898 
L 57.345498 -48.683898 
z
" style="stroke: #ffffff"/>
    </defs>
    <g clip-path="url(#paeebd21baa)">
     <use xlink:href="#m56600fc9ef" x="0" y="178.657431" style="fill: #ffffff; stroke: #ffffff"/>
    </g>
   </g>
   <g id="PolyCollection_20">
    <defs>
     <path id="mb9e99e5a78" d="M 57.345498 -79.377795 
L 57.345498 -48.683898 
L 107.490996 -48.683898 
L 107.490996 -79.377795 
L 107.490996 -79.377795 
L 57.345498 -79.377795 
z
" style="stroke: #000000"/>
    </defs>
    <g clip-path="url(#paeebd21baa)">
     <use xlink:href="#mb9e99e5a78" x="0" y="178.657431" style="stroke: #000000"/>
    </g>
   </g>
   <g id="matplotlib.axis_9">
    <g id="text_6">
     <!-- Forecasting time $10$ $s$ -->
     <g transform="translate(23.220498 169.917431)">
      <text>
       <tspan style="font: 7px 'Arial'" x="0 4.275879 8.168945 10.5 14.393066 17.893066 21.786133 25.286133 27.230957 28.786133 32.679199 36.572266 38.51709 40.461914 42.01709 47.848145 51.741211 62.593262" y="-0.796875">Forecasting time  </tspan>
       <tspan style="font: 7px 'DejaVu Sans'" x="53.686035 58.139648" y="-0.796875">10</tspan>
       <tspan style="font: oblique 7px 'DejaVu Sans'" x="64.538086" y="-0.796875">s</tspan>
      </text>
     </g>
    </g>
   </g>
   <g id="matplotlib.axis_10"/>
   <g id="line2d_25">
    <path d="M 7.2 160.667431 
L 7.2 99.279636 
" clip-path="url(#paeebd21baa)" style="fill: none; stroke: #000000; stroke-width: 1.5; stroke-linecap: square"/>
   </g>
   <g id="line2d_26">
    <path d="M 7.2 160.667431 
L 107.490996 160.667431 
" clip-path="url(#paeebd21baa)" style="fill: none; stroke: #000000; stroke-width: 1.5; stroke-linecap: square"/>
   </g>
   <g id="line2d_27">
    <path d="M 57.345498 160.667431 
L 57.345498 99.279636 
" clip-path="url(#paeebd21baa)" style="fill: none; stroke: #000000; stroke-width: 1.5; stroke-linecap: square"/>
   </g>
   <g id="line2d_28">
    <path d="M 7.2 129.973533 
L 107.490996 129.973533 
" clip-path="url(#paeebd21baa)" style="fill: none; stroke: #000000; stroke-width: 1.5; stroke-linecap: square"/>
   </g>
   <g id="line2d_29">
    <path d="M 107.490996 160.667431 
L 107.490996 99.279636 
" clip-path="url(#paeebd21baa)" style="fill: none; stroke: #000000; stroke-width: 1.5; stroke-linecap: square"/>
   </g>
   <g id="line2d_30">
    <path d="M 7.2 99.279636 
L 107.490996 99.279636 
" clip-path="url(#paeebd21baa)" style="fill: none; stroke: #000000; stroke-width: 1.5; stroke-linecap: square"/>
   </g>
   <g id="patch_23">
    <path d="M 7.2 160.667431 
L 7.2 99.279636 
" style="fill: none; stroke: #000000; stroke-width: 0.8; stroke-linejoin: miter; stroke-linecap: square"/>
   </g>
   <g id="patch_24">
    <path d="M 107.490996 160.667431 
L 107.490996 99.279636 
" style="fill: none; stroke: #000000; stroke-width: 0.8; stroke-linejoin: miter; stroke-linecap: square"/>
   </g>
   <g id="patch_25">
    <path d="M 7.2 160.667431 
L 107.490996 160.667431 
" style="fill: none; stroke: #000000; stroke-width: 0.8; stroke-linejoin: miter; stroke-linecap: square"/>
   </g>
   <g id="patch_26">
    <path d="M 7.2 99.279636 
L 107.490996 99.279636 
" style="fill: none; stroke: #000000; stroke-width: 0.8; stroke-linejoin: miter; stroke-linecap: square"/>
   </g>
  </g>
  <g id="axes_6">
   <g id="patch_27">
    <path d="M 127.549195 160.667431 
L 227.840192 160.667431 
L 227.840192 99.279636 
L 127.549195 99.279636 
z
" style="fill: #ffffff"/>
   </g>
   <g id="PolyCollection_21">
    <defs>
     <path id="mcece812dce" d="M 127.549195 -48.683898 
L 127.549195 -17.99 
L 177.694694 -17.99 
L 177.694694 -48.683898 
L 177.694694 -48.683898 
L 127.549195 -48.683898 
z
" style="stroke: #000000"/>
    </defs>
    <g clip-path="url(#p1c5dc48b96)">
     <use xlink:href="#mcece812dce" x="0" y="178.657431" style="stroke: #000000"/>
    </g>
   </g>
   <g id="PolyCollection_22">
    <defs>
     <path id="mf60d310666" d="M 127.549195 -79.377795 
L 127.549195 -48.683898 
L 177.694694 -48.683898 
L 177.694694 -79.377795 
L 177.694694 -79.377795 
L 127.549195 -79.377795 
z
" style="stroke: #fdfdfd"/>
    </defs>
    <g clip-path="url(#p1c5dc48b96)">
     <use xlink:href="#mf60d310666" x="0" y="178.657431" style="fill: #fdfdfd; stroke: #fdfdfd"/>
    </g>
   </g>
   <g id="PolyCollection_23">
    <defs>
     <path id="mc38af1e658" d="M 177.694694 -48.683898 
L 177.694694 -17.99 
L 227.840192 -17.99 
L 227.840192 -48.683898 
L 227.840192 -48.683898 
L 177.694694 -48.683898 
z
" style="stroke: #fdfdfd"/>
    </defs>
    <g clip-path="url(#p1c5dc48b96)">
     <use xlink:href="#mc38af1e658" x="0" y="178.657431" style="fill: #fdfdfd; stroke: #fdfdfd"/>
    </g>
   </g>
   <g id="PolyCollection_24">
    <defs>
     <path id="m7e5e0c861b" d="M 177.694694 -79.377795 
L 177.694694 -48.683898 
L 227.840192 -48.683898 
L 227.840192 -79.377795 
L 227.840192 -79.377795 
L 177.694694 -79.377795 
z
" style="stroke: #000000"/>
    </defs>
    <g clip-path="url(#p1c5dc48b96)">
     <use xlink:href="#m7e5e0c861b" x="0" y="178.657431" style="stroke: #000000"/>
    </g>
   </g>
   <g id="matplotlib.axis_11">
    <g id="text_7">
     <!-- Forecasting time $20$ $s$ -->
     <g transform="translate(143.569694 169.917431)">
      <text>
       <tspan style="font: 7px 'Arial'" x="0 4.275879 8.168945 10.5 14.393066 17.893066 21.786133 25.286133 27.230957 28.786133 32.679199 36.572266 38.51709 40.461914 42.01709 47.848145 51.741211 62.593262" y="-0.796875">Forecasting time  </tspan>
       <tspan style="font: 7px 'DejaVu Sans'" x="53.686035 58.139648" y="-0.796875">20</tspan>
       <tspan style="font: oblique 7px 'DejaVu Sans'" x="64.538086" y="-0.796875">s</tspan>
      </text>
     </g>
    </g>
   </g>
   <g id="matplotlib.axis_12"/>
   <g id="line2d_31">
    <path d="M 127.549195 160.667431 
L 127.549195 99.279636 
" clip-path="url(#p1c5dc48b96)" style="fill: none; stroke: #000000; stroke-width: 1.5; stroke-linecap: square"/>
   </g>
   <g id="line2d_32">
    <path d="M 127.549195 160.667431 
L 227.840192 160.667431 
" clip-path="url(#p1c5dc48b96)" style="fill: none; stroke: #000000; stroke-width: 1.5; stroke-linecap: square"/>
   </g>
   <g id="line2d_33">
    <path d="M 177.694694 160.667431 
L 177.694694 99.279636 
" clip-path="url(#p1c5dc48b96)" style="fill: none; stroke: #000000; stroke-width: 1.5; stroke-linecap: square"/>
   </g>
   <g id="line2d_34">
    <path d="M 127.549195 129.973533 
L 227.840192 129.973533 
" clip-path="url(#p1c5dc48b96)" style="fill: none; stroke: #000000; stroke-width: 1.5; stroke-linecap: square"/>
   </g>
   <g id="line2d_35">
    <path d="M 227.840192 160.667431 
L 227.840192 99.279636 
" clip-path="url(#p1c5dc48b96)" style="fill: none; stroke: #000000; stroke-width: 1.5; stroke-linecap: square"/>
   </g>
   <g id="line2d_36">
    <path d="M 127.549195 99.279636 
L 227.840192 99.279636 
" clip-path="url(#p1c5dc48b96)" style="fill: none; stroke: #000000; stroke-width: 1.5; stroke-linecap: square"/>
   </g>
   <g id="patch_28">
    <path d="M 127.549195 160.667431 
L 127.549195 99.279636 
" style="fill: none; stroke: #000000; stroke-width: 0.8; stroke-linejoin: miter; stroke-linecap: square"/>
   </g>
   <g id="patch_29">
    <path d="M 227.840192 160.667431 
L 227.840192 99.279636 
" style="fill: none; stroke: #000000; stroke-width: 0.8; stroke-linejoin: miter; stroke-linecap: square"/>
   </g>
   <g id="patch_30">
    <path d="M 127.549195 160.667431 
L 227.840192 160.667431 
" style="fill: none; stroke: #000000; stroke-width: 0.8; stroke-linejoin: miter; stroke-linecap: square"/>
   </g>
   <g id="patch_31">
    <path d="M 127.549195 99.279636 
L 227.840192 99.279636 
" style="fill: none; stroke: #000000; stroke-width: 0.8; stroke-linejoin: miter; stroke-linecap: square"/>
   </g>
  </g>
  <g id="axes_7">
   <g id="patch_32">
    <path d="M 247.898391 160.667431 
L 348.189387 160.667431 
L 348.189387 99.279636 
L 247.898391 99.279636 
z
" style="fill: #ffffff"/>
   </g>
   <g id="PolyCollection_25">
    <defs>
     <path id="m4d59e76383" d="M 247.898391 -48.683898 
L 247.898391 -17.99 
L 298.043889 -17.99 
L 298.043889 -48.683898 
L 298.043889 -48.683898 
L 247.898391 -48.683898 
z
" style="stroke: #000000"/>
    </defs>
    <g clip-path="url(#p1f9d87f248)">
     <use xlink:href="#m4d59e76383" x="0" y="178.657431" style="stroke: #000000"/>
    </g>
   </g>
   <g id="PolyCollection_26">
    <defs>
     <path id="m1dac118df9" d="M 247.898391 -79.377795 
L 247.898391 -48.683898 
L 298.043889 -48.683898 
L 298.043889 -79.377795 
L 298.043889 -79.377795 
L 247.898391 -79.377795 
z
" style="stroke: #ffffff"/>
    </defs>
    <g clip-path="url(#p1f9d87f248)">
     <use xlink:href="#m1dac118df9" x="0" y="178.657431" style="fill: #ffffff; stroke: #ffffff"/>
    </g>
   </g>
   <g id="PolyCollection_27">
    <defs>
     <path id="me7ece04e98" d="M 298.043889 -48.683898 
L 298.043889 -17.99 
L 348.189387 -17.99 
L 348.189387 -48.683898 
L 348.189387 -48.683898 
L 298.043889 -48.683898 
z
" style="stroke: #ffffff"/>
    </defs>
    <g clip-path="url(#p1f9d87f248)">
     <use xlink:href="#me7ece04e98" x="0" y="178.657431" style="fill: #ffffff; stroke: #ffffff"/>
    </g>
   </g>
   <g id="PolyCollection_28">
    <defs>
     <path id="m16eda4f1b9" d="M 298.043889 -79.377795 
L 298.043889 -48.683898 
L 348.189387 -48.683898 
L 348.189387 -79.377795 
L 348.189387 -79.377795 
L 298.043889 -79.377795 
z
" style="stroke: #000000"/>
    </defs>
    <g clip-path="url(#p1f9d87f248)">
     <use xlink:href="#m16eda4f1b9" x="0" y="178.657431" style="stroke: #000000"/>
    </g>
   </g>
   <g id="matplotlib.axis_13">
    <g id="text_8">
     <!-- Forecasting time $30$ $s$ -->
     <g transform="translate(263.918889 169.917431)">
      <text>
       <tspan style="font: 7px 'Arial'" x="0 4.275879 8.168945 10.5 14.393066 17.893066 21.786133 25.286133 27.230957 28.786133 32.679199 36.572266 38.51709 40.461914 42.01709 47.848145 51.741211 62.593262" y="-0.796875">Forecasting time  </tspan>
       <tspan style="font: 7px 'DejaVu Sans'" x="53.686035 58.139648" y="-0.796875">30</tspan>
       <tspan style="font: oblique 7px 'DejaVu Sans'" x="64.538086" y="-0.796875">s</tspan>
      </text>
     </g>
    </g>
   </g>
   <g id="matplotlib.axis_14">
    <g id="ytick_1">
     <g id="line2d_37">
      <defs>
       <path id="me89b4c11ba" d="M 0 0 
L 3.5 0 
" style="stroke: #000000; stroke-width: 0.8"/>
      </defs>
      <g>
       <use xlink:href="#me89b4c11ba" x="348.189387" y="145.320482" style="stroke: #000000; stroke-width: 0.8"/>
      </g>
     </g>
     <g id="text_9">
      <!-- $x$ and $y$ offset -->
      <g transform="translate(355.189387 147.875482)">
       <text>
        <tspan style="font: oblique 7px 'DejaVu Sans'" x="0 19.711426" y="-0.90625">xy</tspan>
        <tspan style="font: 7px 'Arial'" x="4.142578 6.087402 9.980469 13.873535 17.766602 23.854004 25.798828 29.691895 31.636719 33.581543 37.081543 40.974609" y="-0.90625"> and  offset</tspan>
       </text>
      </g>
     </g>
    </g>
    <g id="ytick_2">
     <g id="line2d_38">
      <g>
       <use xlink:href="#me89b4c11ba" x="348.189387" y="114.626584" style="stroke: #000000; stroke-width: 0.8"/>
      </g>
     </g>
     <g id="text_10">
      <text style="font: 7px 'Arial'; text-anchor: start" x="355.189387" y="117.174475" transform="rotate(-0 355.189387 117.174475)">Speed, heading, and time</text>
     </g>
    </g>
   </g>
   <g id="line2d_39">
    <path d="M 247.898391 160.667431 
L 247.898391 99.279636 
" clip-path="url(#p1f9d87f248)" style="fill: none; stroke: #000000; stroke-width: 1.5; stroke-linecap: square"/>
   </g>
   <g id="line2d_40">
    <path d="M 247.898391 160.667431 
L 348.189387 160.667431 
" clip-path="url(#p1f9d87f248)" style="fill: none; stroke: #000000; stroke-width: 1.5; stroke-linecap: square"/>
   </g>
   <g id="line2d_41">
    <path d="M 298.043889 160.667431 
L 298.043889 99.279636 
" clip-path="url(#p1f9d87f248)" style="fill: none; stroke: #000000; stroke-width: 1.5; stroke-linecap: square"/>
   </g>
   <g id="line2d_42">
    <path d="M 247.898391 129.973533 
L 348.189387 129.973533 
" clip-path="url(#p1f9d87f248)" style="fill: none; stroke: #000000; stroke-width: 1.5; stroke-linecap: square"/>
   </g>
   <g id="line2d_43">
    <path d="M 348.189387 160.667431 
L 348.189387 99.279636 
" clip-path="url(#p1f9d87f248)" style="fill: none; stroke: #000000; stroke-width: 1.5; stroke-linecap: square"/>
   </g>
   <g id="line2d_44">
    <path d="M 247.898391 99.279636 
L 348.189387 99.279636 
" clip-path="url(#p1f9d87f248)" style="fill: none; stroke: #000000; stroke-width: 1.5; stroke-linecap: square"/>
   </g>
   <g id="patch_33">
    <path d="M 247.898391 160.667431 
L 247.898391 99.279636 
" style="fill: none; stroke: #000000; stroke-width: 0.8; stroke-linejoin: miter; stroke-linecap: square"/>
   </g>
   <g id="patch_34">
    <path d="M 348.189387 160.667431 
L 348.189387 99.279636 
" style="fill: none; stroke: #000000; stroke-width: 0.8; stroke-linejoin: miter; stroke-linecap: square"/>
   </g>
   <g id="patch_35">
    <path d="M 247.898391 160.667431 
L 348.189387 160.667431 
" style="fill: none; stroke: #000000; stroke-width: 0.8; stroke-linejoin: miter; stroke-linecap: square"/>
   </g>
   <g id="patch_36">
    <path d="M 247.898391 99.279636 
L 348.189387 99.279636 
" style="fill: none; stroke: #000000; stroke-width: 0.8; stroke-linejoin: miter; stroke-linecap: square"/>
   </g>
  </g>
 </g>
 <defs>
  <clipPath id="pa959749bae">
   <rect x="7.2" y="25.614281" width="100.290996" height="61.387795"/>
  </clipPath>
  <clipPath id="p58d158b4bd">
   <rect x="127.549195" y="25.614281" width="100.290996" height="61.387795"/>
  </clipPath>
  <clipPath id="p0a50af8a91">
   <rect x="247.898391" y="25.614281" width="100.290996" height="61.387795"/>
  </clipPath>
  <clipPath id="p4861f64f8d">
   <rect x="368.247586" y="25.614281" width="100.290996" height="61.387795"/>
  </clipPath>
  <clipPath id="paeebd21baa">
   <rect x="7.2" y="99.279636" width="100.290996" height="61.387795"/>
  </clipPath>
  <clipPath id="p1c5dc48b96">
   <rect x="127.549195" y="99.279636" width="100.290996" height="61.387795"/>
  </clipPath>
  <clipPath id="p1f9d87f248">
   <rect x="247.898391" y="99.279636" width="100.290996" height="61.387795"/>
  </clipPath>
 </defs>
</svg>
