<?xml version="1.0" encoding="utf-8" standalone="no"?>
<!DOCTYPE svg PUBLIC "-//W3C//DTD SVG 1.1//EN"
  "http://www.w3.org/Graphics/SVG/1.1/DTD/svg11.dtd">
<svg xmlns:xlink="http://www.w3.org/1999/xlink" width="475.738583pt" height="180.0034pt" viewBox="0 0 475.738583 180.0034" xmlns="http://www.w3.org/2000/svg" version="1.1">
 <metadata>
  <rdf:RDF xmlns:dc="http://purl.org/dc/elements/1.1/" xmlns:cc="http://creativecommons.org/ns#" xmlns:rdf="http://www.w3.org/1999/02/22-rdf-syntax-ns#">
   <cc:Work>
    <dc:type rdf:resource="http://purl.org/dc/dcmitype/StillImage"/>
    <dc:date>2024-10-09T18:22:40.946883</dc:date>
    <dc:format>image/svg+xml</dc:format>
    <dc:creator>
     <cc:Agent>
      <dc:title>Matplotlib v3.7.0, https://matplotlib.org/</dc:title>
     </cc:Agent>
    </dc:creator>
   </cc:Work>
  </rdf:RDF>
 </metadata>
 <defs>
  <style type="text/css">*{stroke-linejoin: round; stroke-linecap: butt}</style>
 </defs>
 <g id="figure_1">
  <g id="patch_1">
   <path d="M 0 180.0034 
L 475.738583 180.0034 
L 475.738583 0 
L 0 0 
z
" style="fill: #ffffff"/>
  </g>
  <g id="axes_1">
   <g id="patch_2">
    <path d="M 7.2 88.633514 
L 107.490996 88.633514 
L 107.490996 27.245719 
L 7.2 27.245719 
z
" style="fill: #ffffff"/>
   </g>
   <g id="PolyCollection_1">
    <defs>
     <path id="m8107b81140" d="M 7.2 -122.063783 
L 7.2 -91.369886 
L 57.345498 -91.369886 
L 57.345498 -122.063783 
L 57.345498 -122.063783 
L 7.2 -122.063783 
z
" style="stroke: #000000"/>
    </defs>
    <g clip-path="url(#p2fee2c3681)">
     <use xlink:href="#m8107b81140" x="0" y="180.0034" style="stroke: #000000"/>
    </g>
   </g>
   <g id="PolyCollection_2">
    <defs>
     <path id="mefd3a9762a" d="M 7.2 -152.757681 
L 7.2 -122.063783 
L 57.345498 -122.063783 
L 57.345498 -152.757681 
L 57.345498 -152.757681 
L 7.2 -152.757681 
z
" style="stroke: #1f1f1f"/>
    </defs>
    <g clip-path="url(#p2fee2c3681)">
     <use xlink:href="#mefd3a9762a" x="0" y="180.0034" style="fill: #1f1f1f; stroke: #1f1f1f"/>
    </g>
   </g>
   <g id="PolyCollection_3">
    <defs>
     <path id="m571de785b0" d="M 57.345498 -122.063783 
L 57.345498 -91.369886 
L 107.490996 -91.369886 
L 107.490996 -122.063783 
L 107.490996 -122.063783 
L 57.345498 -122.063783 
z
" style="stroke: #1f1f1f"/>
    </defs>
    <g clip-path="url(#p2fee2c3681)">
     <use xlink:href="#m571de785b0" x="0" y="180.0034" style="fill: #1f1f1f; stroke: #1f1f1f"/>
    </g>
   </g>
   <g id="PolyCollection_4">
    <defs>
     <path id="m53e04607f0" d="M 57.345498 -152.757681 
L 57.345498 -122.063783 
L 107.490996 -122.063783 
L 107.490996 -152.757681 
L 107.490996 -152.757681 
L 57.345498 -152.757681 
z
" style="stroke: #000000"/>
    </defs>
    <g clip-path="url(#p2fee2c3681)">
     <use xlink:href="#m53e04607f0" x="0" y="180.0034" style="stroke: #000000"/>
    </g>
   </g>
   <g id="matplotlib.axis_1">
    <g id="text_1">
     <text style="font: 7px 'Arial'; text-anchor: middle" x="57.345498" y="97.664764" transform="rotate(-0 57.345498 97.664764)">Forecasting length 2</text>
    </g>
   </g>
   <g id="matplotlib.axis_2"/>
   <g id="line2d_1">
    <path d="M 7.2 88.633514 
L 7.2 27.245719 
" clip-path="url(#p2fee2c3681)" style="fill: none; stroke: #000000; stroke-width: 1.5; stroke-linecap: square"/>
   </g>
   <g id="line2d_2">
    <path d="M 7.2 88.633514 
L 107.490996 88.633514 
" clip-path="url(#p2fee2c3681)" style="fill: none; stroke: #000000; stroke-width: 1.5; stroke-linecap: square"/>
   </g>
   <g id="line2d_3">
    <path d="M 57.345498 88.633514 
L 57.345498 27.245719 
" clip-path="url(#p2fee2c3681)" style="fill: none; stroke: #000000; stroke-width: 1.5; stroke-linecap: square"/>
   </g>
   <g id="line2d_4">
    <path d="M 7.2 57.939616 
L 107.490996 57.939616 
" clip-path="url(#p2fee2c3681)" style="fill: none; stroke: #000000; stroke-width: 1.5; stroke-linecap: square"/>
   </g>
   <g id="line2d_5">
    <path d="M 107.490996 88.633514 
L 107.490996 27.245719 
" clip-path="url(#p2fee2c3681)" style="fill: none; stroke: #000000; stroke-width: 1.5; stroke-linecap: square"/>
   </g>
   <g id="line2d_6">
    <path d="M 7.2 27.245719 
L 107.490996 27.245719 
" clip-path="url(#p2fee2c3681)" style="fill: none; stroke: #000000; stroke-width: 1.5; stroke-linecap: square"/>
   </g>
   <g id="patch_3">
    <path d="M 7.2 88.633514 
L 7.2 27.245719 
" style="fill: none; stroke: #000000; stroke-width: 0.8; stroke-linejoin: miter; stroke-linecap: square"/>
   </g>
   <g id="patch_4">
    <path d="M 107.490996 88.633514 
L 107.490996 27.245719 
" style="fill: none; stroke: #000000; stroke-width: 0.8; stroke-linejoin: miter; stroke-linecap: square"/>
   </g>
   <g id="patch_5">
    <path d="M 7.2 88.633514 
L 107.490996 88.633514 
" style="fill: none; stroke: #000000; stroke-width: 0.8; stroke-linejoin: miter; stroke-linecap: square"/>
   </g>
   <g id="patch_6">
    <path d="M 7.2 27.245719 
L 107.490996 27.245719 
" style="fill: none; stroke: #000000; stroke-width: 0.8; stroke-linejoin: miter; stroke-linecap: square"/>
   </g>
  </g>
  <g id="axes_2">
   <g id="patch_7">
    <path d="M 127.549195 88.633514 
L 227.840192 88.633514 
L 227.840192 27.245719 
L 127.549195 27.245719 
z
" style="fill: #ffffff"/>
   </g>
   <g id="PolyCollection_5">
    <defs>
     <path id="m0748cdab66" d="M 127.549195 -122.063783 
L 127.549195 -91.369886 
L 177.694694 -91.369886 
L 177.694694 -122.063783 
L 177.694694 -122.063783 
L 127.549195 -122.063783 
z
" style="stroke: #000000"/>
    </defs>
    <g clip-path="url(#p15e96022ea)">
     <use xlink:href="#m0748cdab66" x="0" y="180.0034" style="stroke: #000000"/>
    </g>
   </g>
   <g id="PolyCollection_6">
    <defs>
     <path id="mbeaff63a2f" d="M 127.549195 -152.757681 
L 127.549195 -122.063783 
L 177.694694 -122.063783 
L 177.694694 -152.757681 
L 177.694694 -152.757681 
L 127.549195 -152.757681 
z
" style="stroke: #f5f5f5"/>
    </defs>
    <g clip-path="url(#p15e96022ea)">
     <use xlink:href="#mbeaff63a2f" x="0" y="180.0034" style="fill: #f5f5f5; stroke: #f5f5f5"/>
    </g>
   </g>
   <g id="PolyCollection_7">
    <defs>
     <path id="m7e427fb726" d="M 177.694694 -122.063783 
L 177.694694 -91.369886 
L 227.840192 -91.369886 
L 227.840192 -122.063783 
L 227.840192 -122.063783 
L 177.694694 -122.063783 
z
" style="stroke: #f5f5f5"/>
    </defs>
    <g clip-path="url(#p15e96022ea)">
     <use xlink:href="#m7e427fb726" x="0" y="180.0034" style="fill: #f5f5f5; stroke: #f5f5f5"/>
    </g>
   </g>
   <g id="PolyCollection_8">
    <defs>
     <path id="m612c3e284b" d="M 177.694694 -152.757681 
L 177.694694 -122.063783 
L 227.840192 -122.063783 
L 227.840192 -152.757681 
L 227.840192 -152.757681 
L 177.694694 -152.757681 
z
" style="stroke: #000000"/>
    </defs>
    <g clip-path="url(#p15e96022ea)">
     <use xlink:href="#m612c3e284b" x="0" y="180.0034" style="stroke: #000000"/>
    </g>
   </g>
   <g id="matplotlib.axis_3">
    <g id="text_2">
     <text style="font: 7px 'Arial'; text-anchor: middle" x="177.694694" y="97.664764" transform="rotate(-0 177.694694 97.664764)">Forecasting length 3</text>
    </g>
   </g>
   <g id="matplotlib.axis_4"/>
   <g id="line2d_7">
    <path d="M 127.549195 88.633514 
L 127.549195 27.245719 
" clip-path="url(#p15e96022ea)" style="fill: none; stroke: #000000; stroke-width: 1.5; stroke-linecap: square"/>
   </g>
   <g id="line2d_8">
    <path d="M 127.549195 88.633514 
L 227.840192 88.633514 
" clip-path="url(#p15e96022ea)" style="fill: none; stroke: #000000; stroke-width: 1.5; stroke-linecap: square"/>
   </g>
   <g id="line2d_9">
    <path d="M 177.694694 88.633514 
L 177.694694 27.245719 
" clip-path="url(#p15e96022ea)" style="fill: none; stroke: #000000; stroke-width: 1.5; stroke-linecap: square"/>
   </g>
   <g id="line2d_10">
    <path d="M 127.549195 57.939616 
L 227.840192 57.939616 
" clip-path="url(#p15e96022ea)" style="fill: none; stroke: #000000; stroke-width: 1.5; stroke-linecap: square"/>
   </g>
   <g id="line2d_11">
    <path d="M 227.840192 88.633514 
L 227.840192 27.245719 
" clip-path="url(#p15e96022ea)" style="fill: none; stroke: #000000; stroke-width: 1.5; stroke-linecap: square"/>
   </g>
   <g id="line2d_12">
    <path d="M 127.549195 27.245719 
L 227.840192 27.245719 
" clip-path="url(#p15e96022ea)" style="fill: none; stroke: #000000; stroke-width: 1.5; stroke-linecap: square"/>
   </g>
   <g id="patch_8">
    <path d="M 127.549195 88.633514 
L 127.549195 27.245719 
" style="fill: none; stroke: #000000; stroke-width: 0.8; stroke-linejoin: miter; stroke-linecap: square"/>
   </g>
   <g id="patch_9">
    <path d="M 227.840192 88.633514 
L 227.840192 27.245719 
" style="fill: none; stroke: #000000; stroke-width: 0.8; stroke-linejoin: miter; stroke-linecap: square"/>
   </g>
   <g id="patch_10">
    <path d="M 127.549195 88.633514 
L 227.840192 88.633514 
" style="fill: none; stroke: #000000; stroke-width: 0.8; stroke-linejoin: miter; stroke-linecap: square"/>
   </g>
   <g id="patch_11">
    <path d="M 127.549195 27.245719 
L 227.840192 27.245719 
" style="fill: none; stroke: #000000; stroke-width: 0.8; stroke-linejoin: miter; stroke-linecap: square"/>
   </g>
   <g id="text_3">
    <text style="font: 7px 'Arial'" transform="translate(157.659928 12.210469)">LSTM Linear</text>
    <!-- $R^{2}$ (%) -->
    <g transform="translate(166.914694 21.245719)">
     <text>
      <tspan style="font: oblique 7px 'DejaVu Sans'" x="0" y="-0.6781249999999996">R</tspan>
      <tspan style="font: 4.9px 'DejaVu Sans'" x="5.355775" y="-3.3578124999999996">2</tspan>
      <tspan style="font: 7px 'Arial'" x="8.66471 10.609535 12.940589 19.16471" y="-0.6781249999999996"> (%)</tspan>
     </text>
    </g>
   </g>
  </g>
  <g id="axes_3">
   <g id="patch_12">
    <path d="M 247.898391 88.633514 
L 348.189387 88.633514 
L 348.189387 27.245719 
L 247.898391 27.245719 
z
" style="fill: #ffffff"/>
   </g>
   <g id="PolyCollection_9">
    <defs>
     <path id="m35347b560b" d="M 247.898391 -122.063783 
L 247.898391 -91.369886 
L 298.043889 -91.369886 
L 298.043889 -122.063783 
L 298.043889 -122.063783 
L 247.898391 -122.063783 
z
" style="stroke: #000000"/>
    </defs>
    <g clip-path="url(#p8972f1db59)">
     <use xlink:href="#m35347b560b" x="0" y="180.0034" style="stroke: #000000"/>
    </g>
   </g>
   <g id="PolyCollection_10">
    <defs>
     <path id="ma8fcfed8af" d="M 247.898391 -152.757681 
L 247.898391 -122.063783 
L 298.043889 -122.063783 
L 298.043889 -152.757681 
L 298.043889 -152.757681 
L 247.898391 -152.757681 
z
" style="stroke: #ffffff"/>
    </defs>
    <g clip-path="url(#p8972f1db59)">
     <use xlink:href="#ma8fcfed8af" x="0" y="180.0034" style="fill: #ffffff; stroke: #ffffff"/>
    </g>
   </g>
   <g id="PolyCollection_11">
    <defs>
     <path id="m212511c5be" d="M 298.043889 -122.063783 
L 298.043889 -91.369886 
L 348.189387 -91.369886 
L 348.189387 -122.063783 
L 348.189387 -122.063783 
L 298.043889 -122.063783 
z
" style="stroke: #ffffff"/>
    </defs>
    <g clip-path="url(#p8972f1db59)">
     <use xlink:href="#m212511c5be" x="0" y="180.0034" style="fill: #ffffff; stroke: #ffffff"/>
    </g>
   </g>
   <g id="PolyCollection_12">
    <defs>
     <path id="ma71eba0c50" d="M 298.043889 -152.757681 
L 298.043889 -122.063783 
L 348.189387 -122.063783 
L 348.189387 -152.757681 
L 348.189387 -152.757681 
L 298.043889 -152.757681 
z
" style="stroke: #000000"/>
    </defs>
    <g clip-path="url(#p8972f1db59)">
     <use xlink:href="#ma71eba0c50" x="0" y="180.0034" style="stroke: #000000"/>
    </g>
   </g>
   <g id="matplotlib.axis_5">
    <g id="text_4">
     <text style="font: 7px 'Arial'; text-anchor: middle" x="298.043889" y="97.643983" transform="rotate(-0 298.043889 97.643983)">Forecasting length 4</text>
    </g>
   </g>
   <g id="matplotlib.axis_6"/>
   <g id="line2d_13">
    <path d="M 247.898391 88.633514 
L 247.898391 27.245719 
" clip-path="url(#p8972f1db59)" style="fill: none; stroke: #000000; stroke-width: 1.5; stroke-linecap: square"/>
   </g>
   <g id="line2d_14">
    <path d="M 247.898391 88.633514 
L 348.189387 88.633514 
" clip-path="url(#p8972f1db59)" style="fill: none; stroke: #000000; stroke-width: 1.5; stroke-linecap: square"/>
   </g>
   <g id="line2d_15">
    <path d="M 298.043889 88.633514 
L 298.043889 27.245719 
" clip-path="url(#p8972f1db59)" style="fill: none; stroke: #000000; stroke-width: 1.5; stroke-linecap: square"/>
   </g>
   <g id="line2d_16">
    <path d="M 247.898391 57.939616 
L 348.189387 57.939616 
" clip-path="url(#p8972f1db59)" style="fill: none; stroke: #000000; stroke-width: 1.5; stroke-linecap: square"/>
   </g>
   <g id="line2d_17">
    <path d="M 348.189387 88.633514 
L 348.189387 27.245719 
" clip-path="url(#p8972f1db59)" style="fill: none; stroke: #000000; stroke-width: 1.5; stroke-linecap: square"/>
   </g>
   <g id="line2d_18">
    <path d="M 247.898391 27.245719 
L 348.189387 27.245719 
" clip-path="url(#p8972f1db59)" style="fill: none; stroke: #000000; stroke-width: 1.5; stroke-linecap: square"/>
   </g>
   <g id="patch_13">
    <path d="M 247.898391 88.633514 
L 247.898391 27.245719 
" style="fill: none; stroke: #000000; stroke-width: 0.8; stroke-linejoin: miter; stroke-linecap: square"/>
   </g>
   <g id="patch_14">
    <path d="M 348.189387 88.633514 
L 348.189387 27.245719 
" style="fill: none; stroke: #000000; stroke-width: 0.8; stroke-linejoin: miter; stroke-linecap: square"/>
   </g>
   <g id="patch_15">
    <path d="M 247.898391 88.633514 
L 348.189387 88.633514 
" style="fill: none; stroke: #000000; stroke-width: 0.8; stroke-linejoin: miter; stroke-linecap: square"/>
   </g>
   <g id="patch_16">
    <path d="M 247.898391 27.245719 
L 348.189387 27.245719 
" style="fill: none; stroke: #000000; stroke-width: 0.8; stroke-linejoin: miter; stroke-linecap: square"/>
   </g>
  </g>
  <g id="axes_4">
   <g id="patch_17">
    <path d="M 368.247586 88.633514 
L 468.538583 88.633514 
L 468.538583 27.245719 
L 368.247586 27.245719 
z
" style="fill: #ffffff"/>
   </g>
   <g id="PolyCollection_13">
    <defs>
     <path id="m7781de131f" d="M 368.247586 -122.063783 
L 368.247586 -91.369886 
L 418.393085 -91.369886 
L 418.393085 -122.063783 
L 418.393085 -122.063783 
L 368.247586 -122.063783 
z
" style="stroke: #000000"/>
    </defs>
    <g clip-path="url(#p1ea1ad2006)">
     <use xlink:href="#m7781de131f" x="0" y="180.0034" style="stroke: #000000"/>
    </g>
   </g>
   <g id="PolyCollection_14">
    <defs>
     <path id="m820b8edaa6" d="M 368.247586 -152.757681 
L 368.247586 -122.063783 
L 418.393085 -122.063783 
L 418.393085 -152.757681 
L 418.393085 -152.757681 
L 368.247586 -152.757681 
z
" style="stroke: #ffffff"/>
    </defs>
    <g clip-path="url(#p1ea1ad2006)">
     <use xlink:href="#m820b8edaa6" x="0" y="180.0034" style="fill: #ffffff; stroke: #ffffff"/>
    </g>
   </g>
   <g id="PolyCollection_15">
    <defs>
     <path id="m939d78251b" d="M 418.393085 -122.063783 
L 418.393085 -91.369886 
L 468.538583 -91.369886 
L 468.538583 -122.063783 
L 468.538583 -122.063783 
L 418.393085 -122.063783 
z
" style="stroke: #ffffff"/>
    </defs>
    <g clip-path="url(#p1ea1ad2006)">
     <use xlink:href="#m939d78251b" x="0" y="180.0034" style="fill: #ffffff; stroke: #ffffff"/>
    </g>
   </g>
   <g id="PolyCollection_16">
    <defs>
     <path id="m0c2afaaa97" d="M 418.393085 -152.757681 
L 418.393085 -122.063783 
L 468.538583 -122.063783 
L 468.538583 -152.757681 
L 468.538583 -152.757681 
L 418.393085 -152.757681 
z
" style="stroke: #000000"/>
    </defs>
    <g clip-path="url(#p1ea1ad2006)">
     <use xlink:href="#m0c2afaaa97" x="0" y="180.0034" style="stroke: #000000"/>
    </g>
   </g>
   <g id="matplotlib.axis_7">
    <g id="text_5">
     <text style="font: 7px 'Arial'; text-anchor: middle" x="418.393085" y="97.643983" transform="rotate(-0 418.393085 97.643983)">Forecasting length 5</text>
    </g>
   </g>
   <g id="matplotlib.axis_8"/>
   <g id="line2d_19">
    <path d="M 368.247586 88.633514 
L 368.247586 27.245719 
" clip-path="url(#p1ea1ad2006)" style="fill: none; stroke: #000000; stroke-width: 1.5; stroke-linecap: square"/>
   </g>
   <g id="line2d_20">
    <path d="M 368.247586 88.633514 
L 468.538583 88.633514 
" clip-path="url(#p1ea1ad2006)" style="fill: none; stroke: #000000; stroke-width: 1.5; stroke-linecap: square"/>
   </g>
   <g id="line2d_21">
    <path d="M 418.393085 88.633514 
L 418.393085 27.245719 
" clip-path="url(#p1ea1ad2006)" style="fill: none; stroke: #000000; stroke-width: 1.5; stroke-linecap: square"/>
   </g>
   <g id="line2d_22">
    <path d="M 368.247586 57.939616 
L 468.538583 57.939616 
" clip-path="url(#p1ea1ad2006)" style="fill: none; stroke: #000000; stroke-width: 1.5; stroke-linecap: square"/>
   </g>
   <g id="line2d_23">
    <path d="M 468.538583 88.633514 
L 468.538583 27.245719 
" clip-path="url(#p1ea1ad2006)" style="fill: none; stroke: #000000; stroke-width: 1.5; stroke-linecap: square"/>
   </g>
   <g id="line2d_24">
    <path d="M 368.247586 27.245719 
L 468.538583 27.245719 
" clip-path="url(#p1ea1ad2006)" style="fill: none; stroke: #000000; stroke-width: 1.5; stroke-linecap: square"/>
   </g>
   <g id="patch_18">
    <path d="M 368.247586 88.633514 
L 368.247586 27.245719 
" style="fill: none; stroke: #000000; stroke-width: 0.8; stroke-linejoin: miter; stroke-linecap: square"/>
   </g>
   <g id="patch_19">
    <path d="M 468.538583 88.633514 
L 468.538583 27.245719 
" style="fill: none; stroke: #000000; stroke-width: 0.8; stroke-linejoin: miter; stroke-linecap: square"/>
   </g>
   <g id="patch_20">
    <path d="M 368.247586 88.633514 
L 468.538583 88.633514 
" style="fill: none; stroke: #000000; stroke-width: 0.8; stroke-linejoin: miter; stroke-linecap: square"/>
   </g>
   <g id="patch_21">
    <path d="M 368.247586 27.245719 
L 468.538583 27.245719 
" style="fill: none; stroke: #000000; stroke-width: 0.8; stroke-linejoin: miter; stroke-linecap: square"/>
   </g>
  </g>
  <g id="axes_5">
   <g id="patch_22">
    <path d="M 7.2 162.298868 
L 107.490996 162.298868 
L 107.490996 100.911073 
L 7.2 100.911073 
z
" style="fill: #ffffff"/>
   </g>
   <g id="PolyCollection_17">
    <defs>
     <path id="m6b7ceb59ab" d="M 7.2 -48.398429 
L 7.2 -17.704531 
L 57.345498 -17.704531 
L 57.345498 -48.398429 
L 57.345498 -48.398429 
L 7.2 -48.398429 
z
" style="stroke: #000000"/>
    </defs>
    <g clip-path="url(#pd4b666b5e5)">
     <use xlink:href="#m6b7ceb59ab" x="0" y="180.0034" style="stroke: #000000"/>
    </g>
   </g>
   <g id="PolyCollection_18">
    <defs>
     <path id="mef9b03297d" d="M 7.2 -79.092327 
L 7.2 -48.398429 
L 57.345498 -48.398429 
L 57.345498 -79.092327 
L 57.345498 -79.092327 
L 7.2 -79.092327 
z
" style="stroke: #ffffff"/>
    </defs>
    <g clip-path="url(#pd4b666b5e5)">
     <use xlink:href="#mef9b03297d" x="0" y="180.0034" style="fill: #ffffff; stroke: #ffffff"/>
    </g>
   </g>
   <g id="PolyCollection_19">
    <defs>
     <path id="me8a3ac8554" d="M 57.345498 -48.398429 
L 57.345498 -17.704531 
L 107.490996 -17.704531 
L 107.490996 -48.398429 
L 107.490996 -48.398429 
L 57.345498 -48.398429 
z
" style="stroke: #ffffff"/>
    </defs>
    <g clip-path="url(#pd4b666b5e5)">
     <use xlink:href="#me8a3ac8554" x="0" y="180.0034" style="fill: #ffffff; stroke: #ffffff"/>
    </g>
   </g>
   <g id="PolyCollection_20">
    <defs>
     <path id="m9c9df20f84" d="M 57.345498 -79.092327 
L 57.345498 -48.398429 
L 107.490996 -48.398429 
L 107.490996 -79.092327 
L 107.490996 -79.092327 
L 57.345498 -79.092327 
z
" style="stroke: #000000"/>
    </defs>
    <g clip-path="url(#pd4b666b5e5)">
     <use xlink:href="#m9c9df20f84" x="0" y="180.0034" style="stroke: #000000"/>
    </g>
   </g>
   <g id="matplotlib.axis_9">
    <g id="text_6">
     <text style="font: 7px 'Arial'; text-anchor: middle" x="57.345498" y="171.330118" transform="rotate(-0 57.345498 171.330118)">Forecasting length 10</text>
    </g>
   </g>
   <g id="matplotlib.axis_10"/>
   <g id="line2d_25">
    <path d="M 7.2 162.298868 
L 7.2 100.911073 
" clip-path="url(#pd4b666b5e5)" style="fill: none; stroke: #000000; stroke-width: 1.5; stroke-linecap: square"/>
   </g>
   <g id="line2d_26">
    <path d="M 7.2 162.298868 
L 107.490996 162.298868 
" clip-path="url(#pd4b666b5e5)" style="fill: none; stroke: #000000; stroke-width: 1.5; stroke-linecap: square"/>
   </g>
   <g id="line2d_27">
    <path d="M 57.345498 162.298868 
L 57.345498 100.911073 
" clip-path="url(#pd4b666b5e5)" style="fill: none; stroke: #000000; stroke-width: 1.5; stroke-linecap: square"/>
   </g>
   <g id="line2d_28">
    <path d="M 7.2 131.604971 
L 107.490996 131.604971 
" clip-path="url(#pd4b666b5e5)" style="fill: none; stroke: #000000; stroke-width: 1.5; stroke-linecap: square"/>
   </g>
   <g id="line2d_29">
    <path d="M 107.490996 162.298868 
L 107.490996 100.911073 
" clip-path="url(#pd4b666b5e5)" style="fill: none; stroke: #000000; stroke-width: 1.5; stroke-linecap: square"/>
   </g>
   <g id="line2d_30">
    <path d="M 7.2 100.911073 
L 107.490996 100.911073 
" clip-path="url(#pd4b666b5e5)" style="fill: none; stroke: #000000; stroke-width: 1.5; stroke-linecap: square"/>
   </g>
   <g id="patch_23">
    <path d="M 7.2 162.298868 
L 7.2 100.911073 
" style="fill: none; stroke: #000000; stroke-width: 0.8; stroke-linejoin: miter; stroke-linecap: square"/>
   </g>
   <g id="patch_24">
    <path d="M 107.490996 162.298868 
L 107.490996 100.911073 
" style="fill: none; stroke: #000000; stroke-width: 0.8; stroke-linejoin: miter; stroke-linecap: square"/>
   </g>
   <g id="patch_25">
    <path d="M 7.2 162.298868 
L 107.490996 162.298868 
" style="fill: none; stroke: #000000; stroke-width: 0.8; stroke-linejoin: miter; stroke-linecap: square"/>
   </g>
   <g id="patch_26">
    <path d="M 7.2 100.911073 
L 107.490996 100.911073 
" style="fill: none; stroke: #000000; stroke-width: 0.8; stroke-linejoin: miter; stroke-linecap: square"/>
   </g>
  </g>
  <g id="axes_6">
   <g id="patch_27">
    <path d="M 127.549195 162.298868 
L 227.840192 162.298868 
L 227.840192 100.911073 
L 127.549195 100.911073 
z
" style="fill: #ffffff"/>
   </g>
   <g id="PolyCollection_21">
    <defs>
     <path id="m674d619e8e" d="M 127.549195 -48.398429 
L 127.549195 -17.704531 
L 177.694694 -17.704531 
L 177.694694 -48.398429 
L 177.694694 -48.398429 
L 127.549195 -48.398429 
z
" style="stroke: #000000"/>
    </defs>
    <g clip-path="url(#p89bfb3fc69)">
     <use xlink:href="#m674d619e8e" x="0" y="180.0034" style="stroke: #000000"/>
    </g>
   </g>
   <g id="PolyCollection_22">
    <defs>
     <path id="m22cda1b721" d="M 127.549195 -79.092327 
L 127.549195 -48.398429 
L 177.694694 -48.398429 
L 177.694694 -79.092327 
L 177.694694 -79.092327 
L 127.549195 -79.092327 
z
" style="stroke: #ffffff"/>
    </defs>
    <g clip-path="url(#p89bfb3fc69)">
     <use xlink:href="#m22cda1b721" x="0" y="180.0034" style="fill: #ffffff; stroke: #ffffff"/>
    </g>
   </g>
   <g id="PolyCollection_23">
    <defs>
     <path id="mff46b85072" d="M 177.694694 -48.398429 
L 177.694694 -17.704531 
L 227.840192 -17.704531 
L 227.840192 -48.398429 
L 227.840192 -48.398429 
L 177.694694 -48.398429 
z
" style="stroke: #ffffff"/>
    </defs>
    <g clip-path="url(#p89bfb3fc69)">
     <use xlink:href="#mff46b85072" x="0" y="180.0034" style="fill: #ffffff; stroke: #ffffff"/>
    </g>
   </g>
   <g id="PolyCollection_24">
    <defs>
     <path id="m8ebcb09006" d="M 177.694694 -79.092327 
L 177.694694 -48.398429 
L 227.840192 -48.398429 
L 227.840192 -79.092327 
L 227.840192 -79.092327 
L 177.694694 -79.092327 
z
" style="stroke: #000000"/>
    </defs>
    <g clip-path="url(#p89bfb3fc69)">
     <use xlink:href="#m8ebcb09006" x="0" y="180.0034" style="stroke: #000000"/>
    </g>
   </g>
   <g id="matplotlib.axis_11">
    <g id="text_7">
     <text style="font: 7px 'Arial'; text-anchor: middle" x="177.694694" y="171.330118" transform="rotate(-0 177.694694 171.330118)">Forecasting length 20</text>
    </g>
   </g>
   <g id="matplotlib.axis_12"/>
   <g id="line2d_31">
    <path d="M 127.549195 162.298868 
L 127.549195 100.911073 
" clip-path="url(#p89bfb3fc69)" style="fill: none; stroke: #000000; stroke-width: 1.5; stroke-linecap: square"/>
   </g>
   <g id="line2d_32">
    <path d="M 127.549195 162.298868 
L 227.840192 162.298868 
" clip-path="url(#p89bfb3fc69)" style="fill: none; stroke: #000000; stroke-width: 1.5; stroke-linecap: square"/>
   </g>
   <g id="line2d_33">
    <path d="M 177.694694 162.298868 
L 177.694694 100.911073 
" clip-path="url(#p89bfb3fc69)" style="fill: none; stroke: #000000; stroke-width: 1.5; stroke-linecap: square"/>
   </g>
   <g id="line2d_34">
    <path d="M 127.549195 131.604971 
L 227.840192 131.604971 
" clip-path="url(#p89bfb3fc69)" style="fill: none; stroke: #000000; stroke-width: 1.5; stroke-linecap: square"/>
   </g>
   <g id="line2d_35">
    <path d="M 227.840192 162.298868 
L 227.840192 100.911073 
" clip-path="url(#p89bfb3fc69)" style="fill: none; stroke: #000000; stroke-width: 1.5; stroke-linecap: square"/>
   </g>
   <g id="line2d_36">
    <path d="M 127.549195 100.911073 
L 227.840192 100.911073 
" clip-path="url(#p89bfb3fc69)" style="fill: none; stroke: #000000; stroke-width: 1.5; stroke-linecap: square"/>
   </g>
   <g id="patch_28">
    <path d="M 127.549195 162.298868 
L 127.549195 100.911073 
" style="fill: none; stroke: #000000; stroke-width: 0.8; stroke-linejoin: miter; stroke-linecap: square"/>
   </g>
   <g id="patch_29">
    <path d="M 227.840192 162.298868 
L 227.840192 100.911073 
" style="fill: none; stroke: #000000; stroke-width: 0.8; stroke-linejoin: miter; stroke-linecap: square"/>
   </g>
   <g id="patch_30">
    <path d="M 127.549195 162.298868 
L 227.840192 162.298868 
" style="fill: none; stroke: #000000; stroke-width: 0.8; stroke-linejoin: miter; stroke-linecap: square"/>
   </g>
   <g id="patch_31">
    <path d="M 127.549195 100.911073 
L 227.840192 100.911073 
" style="fill: none; stroke: #000000; stroke-width: 0.8; stroke-linejoin: miter; stroke-linecap: square"/>
   </g>
  </g>
  <g id="axes_7">
   <g id="patch_32">
    <path d="M 247.898391 162.298868 
L 348.189387 162.298868 
L 348.189387 100.911073 
L 247.898391 100.911073 
z
" style="fill: #ffffff"/>
   </g>
   <g id="PolyCollection_25">
    <defs>
     <path id="m254022e31a" d="M 247.898391 -48.398429 
L 247.898391 -17.704531 
L 298.043889 -17.704531 
L 298.043889 -48.398429 
L 298.043889 -48.398429 
L 247.898391 -48.398429 
z
" style="stroke: #000000"/>
    </defs>
    <g clip-path="url(#p62e18c9b06)">
     <use xlink:href="#m254022e31a" x="0" y="180.0034" style="stroke: #000000"/>
    </g>
   </g>
   <g id="PolyCollection_26">
    <defs>
     <path id="m56e12d9365" d="M 247.898391 -79.092327 
L 247.898391 -48.398429 
L 298.043889 -48.398429 
L 298.043889 -79.092327 
L 298.043889 -79.092327 
L 247.898391 -79.092327 
z
" style="stroke: #ffffff"/>
    </defs>
    <g clip-path="url(#p62e18c9b06)">
     <use xlink:href="#m56e12d9365" x="0" y="180.0034" style="fill: #ffffff; stroke: #ffffff"/>
    </g>
   </g>
   <g id="PolyCollection_27">
    <defs>
     <path id="mc580cad228" d="M 298.043889 -48.398429 
L 298.043889 -17.704531 
L 348.189387 -17.704531 
L 348.189387 -48.398429 
L 348.189387 -48.398429 
L 298.043889 -48.398429 
z
" style="stroke: #ffffff"/>
    </defs>
    <g clip-path="url(#p62e18c9b06)">
     <use xlink:href="#mc580cad228" x="0" y="180.0034" style="fill: #ffffff; stroke: #ffffff"/>
    </g>
   </g>
   <g id="PolyCollection_28">
    <defs>
     <path id="m16af84b164" d="M 298.043889 -79.092327 
L 298.043889 -48.398429 
L 348.189387 -48.398429 
L 348.189387 -79.092327 
L 348.189387 -79.092327 
L 298.043889 -79.092327 
z
" style="stroke: #000000"/>
    </defs>
    <g clip-path="url(#p62e18c9b06)">
     <use xlink:href="#m16af84b164" x="0" y="180.0034" style="stroke: #000000"/>
    </g>
   </g>
   <g id="matplotlib.axis_13">
    <g id="text_8">
     <text style="font: 7px 'Arial'; text-anchor: middle" x="298.043889" y="171.330118" transform="rotate(-0 298.043889 171.330118)">Forecasting length 30</text>
    </g>
   </g>
   <g id="matplotlib.axis_14">
    <g id="ytick_1">
     <g id="line2d_37">
      <defs>
       <path id="ma838243265" d="M 0 0 
L 3.5 0 
" style="stroke: #000000; stroke-width: 0.8"/>
      </defs>
      <g>
       <use xlink:href="#ma838243265" x="348.189387" y="146.95192" style="stroke: #000000; stroke-width: 0.8"/>
      </g>
     </g>
     <g id="text_9">
      <text style="font: 7px 'Arial'; text-anchor: start" x="355.189387" y="149.49981" transform="rotate(-0 355.189387 149.49981)">Speed, heading, and time</text>
     </g>
    </g>
    <g id="ytick_2">
     <g id="line2d_38">
      <g>
       <use xlink:href="#ma838243265" x="348.189387" y="116.258022" style="stroke: #000000; stroke-width: 0.8"/>
      </g>
     </g>
     <g id="text_10">
      <!-- $x$ and $y$ offset -->
      <g transform="translate(355.189387 118.813022)">
       <text>
        <tspan style="font: oblique 7px 'DejaVu Sans'" x="0 19.711426" y="-0.90625">xy</tspan>
        <tspan style="font: 7px 'Arial'" x="4.142578 6.087402 9.980469 13.873535 17.766602 23.854004 25.798828 29.691895 31.636719 33.581543 37.081543 40.974609" y="-0.90625"> and  offset</tspan>
       </text>
      </g>
     </g>
    </g>
   </g>
   <g id="line2d_39">
    <path d="M 247.898391 162.298868 
L 247.898391 100.911073 
" clip-path="url(#p62e18c9b06)" style="fill: none; stroke: #000000; stroke-width: 1.5; stroke-linecap: square"/>
   </g>
   <g id="line2d_40">
    <path d="M 247.898391 162.298868 
L 348.189387 162.298868 
" clip-path="url(#p62e18c9b06)" style="fill: none; stroke: #000000; stroke-width: 1.5; stroke-linecap: square"/>
   </g>
   <g id="line2d_41">
    <path d="M 298.043889 162.298868 
L 298.043889 100.911073 
" clip-path="url(#p62e18c9b06)" style="fill: none; stroke: #000000; stroke-width: 1.5; stroke-linecap: square"/>
   </g>
   <g id="line2d_42">
    <path d="M 247.898391 131.604971 
L 348.189387 131.604971 
" clip-path="url(#p62e18c9b06)" style="fill: none; stroke: #000000; stroke-width: 1.5; stroke-linecap: square"/>
   </g>
   <g id="line2d_43">
    <path d="M 348.189387 162.298868 
L 348.189387 100.911073 
" clip-path="url(#p62e18c9b06)" style="fill: none; stroke: #000000; stroke-width: 1.5; stroke-linecap: square"/>
   </g>
   <g id="line2d_44">
    <path d="M 247.898391 100.911073 
L 348.189387 100.911073 
" clip-path="url(#p62e18c9b06)" style="fill: none; stroke: #000000; stroke-width: 1.5; stroke-linecap: square"/>
   </g>
   <g id="patch_33">
    <path d="M 247.898391 162.298868 
L 247.898391 100.911073 
" style="fill: none; stroke: #000000; stroke-width: 0.8; stroke-linejoin: miter; stroke-linecap: square"/>
   </g>
   <g id="patch_34">
    <path d="M 348.189387 162.298868 
L 348.189387 100.911073 
" style="fill: none; stroke: #000000; stroke-width: 0.8; stroke-linejoin: miter; stroke-linecap: square"/>
   </g>
   <g id="patch_35">
    <path d="M 247.898391 162.298868 
L 348.189387 162.298868 
" style="fill: none; stroke: #000000; stroke-width: 0.8; stroke-linejoin: miter; stroke-linecap: square"/>
   </g>
   <g id="patch_36">
    <path d="M 247.898391 100.911073 
L 348.189387 100.911073 
" style="fill: none; stroke: #000000; stroke-width: 0.8; stroke-linejoin: miter; stroke-linecap: square"/>
   </g>
  </g>
 </g>
 <defs>
  <clipPath id="p2fee2c3681">
   <rect x="7.2" y="27.245719" width="100.290996" height="61.387795"/>
  </clipPath>
  <clipPath id="p15e96022ea">
   <rect x="127.549195" y="27.245719" width="100.290996" height="61.387795"/>
  </clipPath>
  <clipPath id="p8972f1db59">
   <rect x="247.898391" y="27.245719" width="100.290996" height="61.387795"/>
  </clipPath>
  <clipPath id="p1ea1ad2006">
   <rect x="368.247586" y="27.245719" width="100.290996" height="61.387795"/>
  </clipPath>
  <clipPath id="pd4b666b5e5">
   <rect x="7.2" y="100.911073" width="100.290996" height="61.387795"/>
  </clipPath>
  <clipPath id="p89bfb3fc69">
   <rect x="127.549195" y="100.911073" width="100.290996" height="61.387795"/>
  </clipPath>
  <clipPath id="p62e18c9b06">
   <rect x="247.898391" y="100.911073" width="100.290996" height="61.387795"/>
  </clipPath>
 </defs>
</svg>
