<?xml version="1.0" encoding="utf-8" standalone="no"?>
<!DOCTYPE svg PUBLIC "-//W3C//DTD SVG 1.1//EN"
  "http://www.w3.org/Graphics/SVG/1.1/DTD/svg11.dtd">
<svg xmlns:xlink="http://www.w3.org/1999/xlink" width="475.738583pt" height="178.371962pt" viewBox="0 0 475.738583 178.371962" xmlns="http://www.w3.org/2000/svg" version="1.1">
 <metadata>
  <rdf:RDF xmlns:dc="http://purl.org/dc/elements/1.1/" xmlns:cc="http://creativecommons.org/ns#" xmlns:rdf="http://www.w3.org/1999/02/22-rdf-syntax-ns#">
   <cc:Work>
    <dc:type rdf:resource="http://purl.org/dc/dcmitype/StillImage"/>
    <dc:date>2024-10-10T16:48:57.014832</dc:date>
    <dc:format>image/svg+xml</dc:format>
    <dc:creator>
     <cc:Agent>
      <dc:title>Matplotlib v3.7.0, https://matplotlib.org/</dc:title>
     </cc:Agent>
    </dc:creator>
   </cc:Work>
  </rdf:RDF>
 </metadata>
 <defs>
  <style type="text/css">*{stroke-linejoin: round; stroke-linecap: butt}</style>
 </defs>
 <g id="figure_1">
  <g id="patch_1">
   <path d="M 0 178.371962 
L 475.738583 178.371962 
L 475.738583 0 
L 0 0 
z
" style="fill: #ffffff"/>
  </g>
  <g id="axes_1">
   <g id="patch_2">
    <path d="M 7.2 87.002077 
L 107.490996 87.002077 
L 107.490996 25.614281 
L 7.2 25.614281 
z
" style="fill: #ffffff"/>
   </g>
   <g id="PolyCollection_1">
    <defs>
     <path id="me535296490" d="M 7.2 -122.063783 
L 7.2 -91.369886 
L 57.345498 -91.369886 
L 57.345498 -122.063783 
L 57.345498 -122.063783 
L 7.2 -122.063783 
z
" style="stroke: #000000"/>
    </defs>
    <g clip-path="url(#p452f93df22)">
     <use xlink:href="#me535296490" x="0" y="178.371962" style="stroke: #000000"/>
    </g>
   </g>
   <g id="PolyCollection_2">
    <defs>
     <path id="m8ca1409961" d="M 7.2 -152.757681 
L 7.2 -122.063783 
L 57.345498 -122.063783 
L 57.345498 -152.757681 
L 57.345498 -152.757681 
L 7.2 -152.757681 
z
" style="stroke: #ffffff"/>
    </defs>
    <g clip-path="url(#p452f93df22)">
     <use xlink:href="#m8ca1409961" x="0" y="178.371962" style="fill: #ffffff; stroke: #ffffff"/>
    </g>
   </g>
   <g id="PolyCollection_3">
    <defs>
     <path id="mb8fd4bf5ed" d="M 57.345498 -122.063783 
L 57.345498 -91.369886 
L 107.490996 -91.369886 
L 107.490996 -122.063783 
L 107.490996 -122.063783 
L 57.345498 -122.063783 
z
" style="stroke: #ffffff"/>
    </defs>
    <g clip-path="url(#p452f93df22)">
     <use xlink:href="#mb8fd4bf5ed" x="0" y="178.371962" style="fill: #ffffff; stroke: #ffffff"/>
    </g>
   </g>
   <g id="PolyCollection_4">
    <defs>
     <path id="m0d5038b53e" d="M 57.345498 -152.757681 
L 57.345498 -122.063783 
L 107.490996 -122.063783 
L 107.490996 -152.757681 
L 107.490996 -152.757681 
L 57.345498 -152.757681 
z
" style="stroke: #000000"/>
    </defs>
    <g clip-path="url(#p452f93df22)">
     <use xlink:href="#m0d5038b53e" x="0" y="178.371962" style="stroke: #000000"/>
    </g>
   </g>
   <g id="matplotlib.axis_1">
    <g id="text_1">
     <text style="font: 7px 'Arial'; text-anchor: middle" x="57.345498" y="96.033327" transform="rotate(-0 57.345498 96.033327)">Forecasting time 2</text>
    </g>
   </g>
   <g id="matplotlib.axis_2"/>
   <g id="line2d_1">
    <path d="M 7.2 87.002077 
L 7.2 25.614281 
" clip-path="url(#p452f93df22)" style="fill: none; stroke: #000000; stroke-width: 1.5; stroke-linecap: square"/>
   </g>
   <g id="line2d_2">
    <path d="M 7.2 87.002077 
L 107.490996 87.002077 
" clip-path="url(#p452f93df22)" style="fill: none; stroke: #000000; stroke-width: 1.5; stroke-linecap: square"/>
   </g>
   <g id="line2d_3">
    <path d="M 57.345498 87.002077 
L 57.345498 25.614281 
" clip-path="url(#p452f93df22)" style="fill: none; stroke: #000000; stroke-width: 1.5; stroke-linecap: square"/>
   </g>
   <g id="line2d_4">
    <path d="M 7.2 56.308179 
L 107.490996 56.308179 
" clip-path="url(#p452f93df22)" style="fill: none; stroke: #000000; stroke-width: 1.5; stroke-linecap: square"/>
   </g>
   <g id="line2d_5">
    <path d="M 107.490996 87.002077 
L 107.490996 25.614281 
" clip-path="url(#p452f93df22)" style="fill: none; stroke: #000000; stroke-width: 1.5; stroke-linecap: square"/>
   </g>
   <g id="line2d_6">
    <path d="M 7.2 25.614281 
L 107.490996 25.614281 
" clip-path="url(#p452f93df22)" style="fill: none; stroke: #000000; stroke-width: 1.5; stroke-linecap: square"/>
   </g>
   <g id="patch_3">
    <path d="M 7.2 87.002077 
L 7.2 25.614281 
" style="fill: none; stroke: #000000; stroke-width: 0.8; stroke-linejoin: miter; stroke-linecap: square"/>
   </g>
   <g id="patch_4">
    <path d="M 107.490996 87.002077 
L 107.490996 25.614281 
" style="fill: none; stroke: #000000; stroke-width: 0.8; stroke-linejoin: miter; stroke-linecap: square"/>
   </g>
   <g id="patch_5">
    <path d="M 7.2 87.002077 
L 107.490996 87.002077 
" style="fill: none; stroke: #000000; stroke-width: 0.8; stroke-linejoin: miter; stroke-linecap: square"/>
   </g>
   <g id="patch_6">
    <path d="M 7.2 25.614281 
L 107.490996 25.614281 
" style="fill: none; stroke: #000000; stroke-width: 0.8; stroke-linejoin: miter; stroke-linecap: square"/>
   </g>
  </g>
  <g id="axes_2">
   <g id="patch_7">
    <path d="M 127.549195 87.002077 
L 227.840192 87.002077 
L 227.840192 25.614281 
L 127.549195 25.614281 
z
" style="fill: #ffffff"/>
   </g>
   <g id="PolyCollection_5">
    <defs>
     <path id="m4e620ca32b" d="M 127.549195 -122.063783 
L 127.549195 -91.369886 
L 177.694694 -91.369886 
L 177.694694 -122.063783 
L 177.694694 -122.063783 
L 127.549195 -122.063783 
z
" style="stroke: #000000"/>
    </defs>
    <g clip-path="url(#pa5082f039b)">
     <use xlink:href="#m4e620ca32b" x="0" y="178.371962" style="stroke: #000000"/>
    </g>
   </g>
   <g id="PolyCollection_6">
    <defs>
     <path id="m1bd5f10d5b" d="M 127.549195 -152.757681 
L 127.549195 -122.063783 
L 177.694694 -122.063783 
L 177.694694 -152.757681 
L 177.694694 -152.757681 
L 127.549195 -152.757681 
z
" style="stroke: #f4f4f4"/>
    </defs>
    <g clip-path="url(#pa5082f039b)">
     <use xlink:href="#m1bd5f10d5b" x="0" y="178.371962" style="fill: #f4f4f4; stroke: #f4f4f4"/>
    </g>
   </g>
   <g id="PolyCollection_7">
    <defs>
     <path id="m485a30140c" d="M 177.694694 -122.063783 
L 177.694694 -91.369886 
L 227.840192 -91.369886 
L 227.840192 -122.063783 
L 227.840192 -122.063783 
L 177.694694 -122.063783 
z
" style="stroke: #f4f4f4"/>
    </defs>
    <g clip-path="url(#pa5082f039b)">
     <use xlink:href="#m485a30140c" x="0" y="178.371962" style="fill: #f4f4f4; stroke: #f4f4f4"/>
    </g>
   </g>
   <g id="PolyCollection_8">
    <defs>
     <path id="m7b6685a63a" d="M 177.694694 -152.757681 
L 177.694694 -122.063783 
L 227.840192 -122.063783 
L 227.840192 -152.757681 
L 227.840192 -152.757681 
L 177.694694 -152.757681 
z
" style="stroke: #000000"/>
    </defs>
    <g clip-path="url(#pa5082f039b)">
     <use xlink:href="#m7b6685a63a" x="0" y="178.371962" style="stroke: #000000"/>
    </g>
   </g>
   <g id="matplotlib.axis_3">
    <g id="text_2">
     <text style="font: 7px 'Arial'; text-anchor: middle" x="177.694694" y="96.033327" transform="rotate(-0 177.694694 96.033327)">Forecasting time 3</text>
    </g>
   </g>
   <g id="matplotlib.axis_4"/>
   <g id="line2d_7">
    <path d="M 127.549195 87.002077 
L 127.549195 25.614281 
" clip-path="url(#pa5082f039b)" style="fill: none; stroke: #000000; stroke-width: 1.5; stroke-linecap: square"/>
   </g>
   <g id="line2d_8">
    <path d="M 127.549195 87.002077 
L 227.840192 87.002077 
" clip-path="url(#pa5082f039b)" style="fill: none; stroke: #000000; stroke-width: 1.5; stroke-linecap: square"/>
   </g>
   <g id="line2d_9">
    <path d="M 177.694694 87.002077 
L 177.694694 25.614281 
" clip-path="url(#pa5082f039b)" style="fill: none; stroke: #000000; stroke-width: 1.5; stroke-linecap: square"/>
   </g>
   <g id="line2d_10">
    <path d="M 127.549195 56.308179 
L 227.840192 56.308179 
" clip-path="url(#pa5082f039b)" style="fill: none; stroke: #000000; stroke-width: 1.5; stroke-linecap: square"/>
   </g>
   <g id="line2d_11">
    <path d="M 227.840192 87.002077 
L 227.840192 25.614281 
" clip-path="url(#pa5082f039b)" style="fill: none; stroke: #000000; stroke-width: 1.5; stroke-linecap: square"/>
   </g>
   <g id="line2d_12">
    <path d="M 127.549195 25.614281 
L 227.840192 25.614281 
" clip-path="url(#pa5082f039b)" style="fill: none; stroke: #000000; stroke-width: 1.5; stroke-linecap: square"/>
   </g>
   <g id="patch_8">
    <path d="M 127.549195 87.002077 
L 127.549195 25.614281 
" style="fill: none; stroke: #000000; stroke-width: 0.8; stroke-linejoin: miter; stroke-linecap: square"/>
   </g>
   <g id="patch_9">
    <path d="M 227.840192 87.002077 
L 227.840192 25.614281 
" style="fill: none; stroke: #000000; stroke-width: 0.8; stroke-linejoin: miter; stroke-linecap: square"/>
   </g>
   <g id="patch_10">
    <path d="M 127.549195 87.002077 
L 227.840192 87.002077 
" style="fill: none; stroke: #000000; stroke-width: 0.8; stroke-linejoin: miter; stroke-linecap: square"/>
   </g>
   <g id="patch_11">
    <path d="M 127.549195 25.614281 
L 227.840192 25.614281 
" style="fill: none; stroke: #000000; stroke-width: 0.8; stroke-linejoin: miter; stroke-linecap: square"/>
   </g>
   <g id="text_3">
    <text style="font: 7px 'Arial'" transform="translate(159.411022 12.210469)">RNN Linear</text>
    <text style="font: 7px 'Arial'" transform="translate(170.110084 19.614281)">MAE</text>
   </g>
  </g>
  <g id="axes_3">
   <g id="patch_12">
    <path d="M 247.898391 87.002077 
L 348.189387 87.002077 
L 348.189387 25.614281 
L 247.898391 25.614281 
z
" style="fill: #ffffff"/>
   </g>
   <g id="PolyCollection_9">
    <defs>
     <path id="m11e2ec90d2" d="M 247.898391 -122.063783 
L 247.898391 -91.369886 
L 298.043889 -91.369886 
L 298.043889 -122.063783 
L 298.043889 -122.063783 
L 247.898391 -122.063783 
z
" style="stroke: #000000"/>
    </defs>
    <g clip-path="url(#pc6a8cfd730)">
     <use xlink:href="#m11e2ec90d2" x="0" y="178.371962" style="stroke: #000000"/>
    </g>
   </g>
   <g id="PolyCollection_10">
    <defs>
     <path id="m7d1bd54f42" d="M 247.898391 -152.757681 
L 247.898391 -122.063783 
L 298.043889 -122.063783 
L 298.043889 -152.757681 
L 298.043889 -152.757681 
L 247.898391 -152.757681 
z
" style="stroke: #f7f7f7"/>
    </defs>
    <g clip-path="url(#pc6a8cfd730)">
     <use xlink:href="#m7d1bd54f42" x="0" y="178.371962" style="fill: #f7f7f7; stroke: #f7f7f7"/>
    </g>
   </g>
   <g id="PolyCollection_11">
    <defs>
     <path id="meee137ca1d" d="M 298.043889 -122.063783 
L 298.043889 -91.369886 
L 348.189387 -91.369886 
L 348.189387 -122.063783 
L 348.189387 -122.063783 
L 298.043889 -122.063783 
z
" style="stroke: #f7f7f7"/>
    </defs>
    <g clip-path="url(#pc6a8cfd730)">
     <use xlink:href="#meee137ca1d" x="0" y="178.371962" style="fill: #f7f7f7; stroke: #f7f7f7"/>
    </g>
   </g>
   <g id="PolyCollection_12">
    <defs>
     <path id="m841675a161" d="M 298.043889 -152.757681 
L 298.043889 -122.063783 
L 348.189387 -122.063783 
L 348.189387 -152.757681 
L 348.189387 -152.757681 
L 298.043889 -152.757681 
z
" style="stroke: #000000"/>
    </defs>
    <g clip-path="url(#pc6a8cfd730)">
     <use xlink:href="#m841675a161" x="0" y="178.371962" style="stroke: #000000"/>
    </g>
   </g>
   <g id="matplotlib.axis_5">
    <g id="text_4">
     <text style="font: 7px 'Arial'; text-anchor: middle" x="298.043889" y="96.012545" transform="rotate(-0 298.043889 96.012545)">Forecasting time 4</text>
    </g>
   </g>
   <g id="matplotlib.axis_6"/>
   <g id="line2d_13">
    <path d="M 247.898391 87.002077 
L 247.898391 25.614281 
" clip-path="url(#pc6a8cfd730)" style="fill: none; stroke: #000000; stroke-width: 1.5; stroke-linecap: square"/>
   </g>
   <g id="line2d_14">
    <path d="M 247.898391 87.002077 
L 348.189387 87.002077 
" clip-path="url(#pc6a8cfd730)" style="fill: none; stroke: #000000; stroke-width: 1.5; stroke-linecap: square"/>
   </g>
   <g id="line2d_15">
    <path d="M 298.043889 87.002077 
L 298.043889 25.614281 
" clip-path="url(#pc6a8cfd730)" style="fill: none; stroke: #000000; stroke-width: 1.5; stroke-linecap: square"/>
   </g>
   <g id="line2d_16">
    <path d="M 247.898391 56.308179 
L 348.189387 56.308179 
" clip-path="url(#pc6a8cfd730)" style="fill: none; stroke: #000000; stroke-width: 1.5; stroke-linecap: square"/>
   </g>
   <g id="line2d_17">
    <path d="M 348.189387 87.002077 
L 348.189387 25.614281 
" clip-path="url(#pc6a8cfd730)" style="fill: none; stroke: #000000; stroke-width: 1.5; stroke-linecap: square"/>
   </g>
   <g id="line2d_18">
    <path d="M 247.898391 25.614281 
L 348.189387 25.614281 
" clip-path="url(#pc6a8cfd730)" style="fill: none; stroke: #000000; stroke-width: 1.5; stroke-linecap: square"/>
   </g>
   <g id="patch_13">
    <path d="M 247.898391 87.002077 
L 247.898391 25.614281 
" style="fill: none; stroke: #000000; stroke-width: 0.8; stroke-linejoin: miter; stroke-linecap: square"/>
   </g>
   <g id="patch_14">
    <path d="M 348.189387 87.002077 
L 348.189387 25.614281 
" style="fill: none; stroke: #000000; stroke-width: 0.8; stroke-linejoin: miter; stroke-linecap: square"/>
   </g>
   <g id="patch_15">
    <path d="M 247.898391 87.002077 
L 348.189387 87.002077 
" style="fill: none; stroke: #000000; stroke-width: 0.8; stroke-linejoin: miter; stroke-linecap: square"/>
   </g>
   <g id="patch_16">
    <path d="M 247.898391 25.614281 
L 348.189387 25.614281 
" style="fill: none; stroke: #000000; stroke-width: 0.8; stroke-linejoin: miter; stroke-linecap: square"/>
   </g>
  </g>
  <g id="axes_4">
   <g id="patch_17">
    <path d="M 368.247586 87.002077 
L 468.538583 87.002077 
L 468.538583 25.614281 
L 368.247586 25.614281 
z
" style="fill: #ffffff"/>
   </g>
   <g id="PolyCollection_13">
    <defs>
     <path id="mf4f0c55523" d="M 368.247586 -122.063783 
L 368.247586 -91.369886 
L 418.393085 -91.369886 
L 418.393085 -122.063783 
L 418.393085 -122.063783 
L 368.247586 -122.063783 
z
" style="stroke: #000000"/>
    </defs>
    <g clip-path="url(#pa790572cf3)">
     <use xlink:href="#mf4f0c55523" x="0" y="178.371962" style="stroke: #000000"/>
    </g>
   </g>
   <g id="PolyCollection_14">
    <defs>
     <path id="ma0de168acc" d="M 368.247586 -152.757681 
L 368.247586 -122.063783 
L 418.393085 -122.063783 
L 418.393085 -152.757681 
L 418.393085 -152.757681 
L 368.247586 -152.757681 
z
" style="stroke: #7a7a7a"/>
    </defs>
    <g clip-path="url(#pa790572cf3)">
     <use xlink:href="#ma0de168acc" x="0" y="178.371962" style="fill: #7a7a7a; stroke: #7a7a7a"/>
    </g>
   </g>
   <g id="PolyCollection_15">
    <defs>
     <path id="m89b12253e6" d="M 418.393085 -122.063783 
L 418.393085 -91.369886 
L 468.538583 -91.369886 
L 468.538583 -122.063783 
L 468.538583 -122.063783 
L 418.393085 -122.063783 
z
" style="stroke: #7a7a7a"/>
    </defs>
    <g clip-path="url(#pa790572cf3)">
     <use xlink:href="#m89b12253e6" x="0" y="178.371962" style="fill: #7a7a7a; stroke: #7a7a7a"/>
    </g>
   </g>
   <g id="PolyCollection_16">
    <defs>
     <path id="m90c3060247" d="M 418.393085 -152.757681 
L 418.393085 -122.063783 
L 468.538583 -122.063783 
L 468.538583 -152.757681 
L 468.538583 -152.757681 
L 418.393085 -152.757681 
z
" style="stroke: #000000"/>
    </defs>
    <g clip-path="url(#pa790572cf3)">
     <use xlink:href="#m90c3060247" x="0" y="178.371962" style="stroke: #000000"/>
    </g>
   </g>
   <g id="matplotlib.axis_7">
    <g id="text_5">
     <text style="font: 7px 'Arial'; text-anchor: middle" x="418.393085" y="96.012545" transform="rotate(-0 418.393085 96.012545)">Forecasting time 5</text>
    </g>
   </g>
   <g id="matplotlib.axis_8"/>
   <g id="line2d_19">
    <path d="M 368.247586 87.002077 
L 368.247586 25.614281 
" clip-path="url(#pa790572cf3)" style="fill: none; stroke: #000000; stroke-width: 1.5; stroke-linecap: square"/>
   </g>
   <g id="line2d_20">
    <path d="M 368.247586 87.002077 
L 468.538583 87.002077 
" clip-path="url(#pa790572cf3)" style="fill: none; stroke: #000000; stroke-width: 1.5; stroke-linecap: square"/>
   </g>
   <g id="line2d_21">
    <path d="M 418.393085 87.002077 
L 418.393085 25.614281 
" clip-path="url(#pa790572cf3)" style="fill: none; stroke: #000000; stroke-width: 1.5; stroke-linecap: square"/>
   </g>
   <g id="line2d_22">
    <path d="M 368.247586 56.308179 
L 468.538583 56.308179 
" clip-path="url(#pa790572cf3)" style="fill: none; stroke: #000000; stroke-width: 1.5; stroke-linecap: square"/>
   </g>
   <g id="line2d_23">
    <path d="M 468.538583 87.002077 
L 468.538583 25.614281 
" clip-path="url(#pa790572cf3)" style="fill: none; stroke: #000000; stroke-width: 1.5; stroke-linecap: square"/>
   </g>
   <g id="line2d_24">
    <path d="M 368.247586 25.614281 
L 468.538583 25.614281 
" clip-path="url(#pa790572cf3)" style="fill: none; stroke: #000000; stroke-width: 1.5; stroke-linecap: square"/>
   </g>
   <g id="patch_18">
    <path d="M 368.247586 87.002077 
L 368.247586 25.614281 
" style="fill: none; stroke: #000000; stroke-width: 0.8; stroke-linejoin: miter; stroke-linecap: square"/>
   </g>
   <g id="patch_19">
    <path d="M 468.538583 87.002077 
L 468.538583 25.614281 
" style="fill: none; stroke: #000000; stroke-width: 0.8; stroke-linejoin: miter; stroke-linecap: square"/>
   </g>
   <g id="patch_20">
    <path d="M 368.247586 87.002077 
L 468.538583 87.002077 
" style="fill: none; stroke: #000000; stroke-width: 0.8; stroke-linejoin: miter; stroke-linecap: square"/>
   </g>
   <g id="patch_21">
    <path d="M 368.247586 25.614281 
L 468.538583 25.614281 
" style="fill: none; stroke: #000000; stroke-width: 0.8; stroke-linejoin: miter; stroke-linecap: square"/>
   </g>
  </g>
  <g id="axes_5">
   <g id="patch_22">
    <path d="M 7.2 160.667431 
L 107.490996 160.667431 
L 107.490996 99.279636 
L 7.2 99.279636 
z
" style="fill: #ffffff"/>
   </g>
   <g id="PolyCollection_17">
    <defs>
     <path id="medbb985f29" d="M 7.2 -48.398429 
L 7.2 -17.704531 
L 57.345498 -17.704531 
L 57.345498 -48.398429 
L 57.345498 -48.398429 
L 7.2 -48.398429 
z
" style="stroke: #000000"/>
    </defs>
    <g clip-path="url(#pa699ebb01a)">
     <use xlink:href="#medbb985f29" x="0" y="178.371962" style="stroke: #000000"/>
    </g>
   </g>
   <g id="PolyCollection_18">
    <defs>
     <path id="m82ffdf43ed" d="M 7.2 -79.092327 
L 7.2 -48.398429 
L 57.345498 -48.398429 
L 57.345498 -79.092327 
L 57.345498 -79.092327 
L 7.2 -79.092327 
z
" style="stroke: #ffffff"/>
    </defs>
    <g clip-path="url(#pa699ebb01a)">
     <use xlink:href="#m82ffdf43ed" x="0" y="178.371962" style="fill: #ffffff; stroke: #ffffff"/>
    </g>
   </g>
   <g id="PolyCollection_19">
    <defs>
     <path id="mf063ec75d5" d="M 57.345498 -48.398429 
L 57.345498 -17.704531 
L 107.490996 -17.704531 
L 107.490996 -48.398429 
L 107.490996 -48.398429 
L 57.345498 -48.398429 
z
" style="stroke: #ffffff"/>
    </defs>
    <g clip-path="url(#pa699ebb01a)">
     <use xlink:href="#mf063ec75d5" x="0" y="178.371962" style="fill: #ffffff; stroke: #ffffff"/>
    </g>
   </g>
   <g id="PolyCollection_20">
    <defs>
     <path id="mb299f22dae" d="M 57.345498 -79.092327 
L 57.345498 -48.398429 
L 107.490996 -48.398429 
L 107.490996 -79.092327 
L 107.490996 -79.092327 
L 57.345498 -79.092327 
z
" style="stroke: #000000"/>
    </defs>
    <g clip-path="url(#pa699ebb01a)">
     <use xlink:href="#mb299f22dae" x="0" y="178.371962" style="stroke: #000000"/>
    </g>
   </g>
   <g id="matplotlib.axis_9">
    <g id="text_6">
     <text style="font: 7px 'Arial'; text-anchor: middle" x="57.345498" y="169.698681" transform="rotate(-0 57.345498 169.698681)">Forecasting time 10</text>
    </g>
   </g>
   <g id="matplotlib.axis_10"/>
   <g id="line2d_25">
    <path d="M 7.2 160.667431 
L 7.2 99.279636 
" clip-path="url(#pa699ebb01a)" style="fill: none; stroke: #000000; stroke-width: 1.5; stroke-linecap: square"/>
   </g>
   <g id="line2d_26">
    <path d="M 7.2 160.667431 
L 107.490996 160.667431 
" clip-path="url(#pa699ebb01a)" style="fill: none; stroke: #000000; stroke-width: 1.5; stroke-linecap: square"/>
   </g>
   <g id="line2d_27">
    <path d="M 57.345498 160.667431 
L 57.345498 99.279636 
" clip-path="url(#pa699ebb01a)" style="fill: none; stroke: #000000; stroke-width: 1.5; stroke-linecap: square"/>
   </g>
   <g id="line2d_28">
    <path d="M 7.2 129.973533 
L 107.490996 129.973533 
" clip-path="url(#pa699ebb01a)" style="fill: none; stroke: #000000; stroke-width: 1.5; stroke-linecap: square"/>
   </g>
   <g id="line2d_29">
    <path d="M 107.490996 160.667431 
L 107.490996 99.279636 
" clip-path="url(#pa699ebb01a)" style="fill: none; stroke: #000000; stroke-width: 1.5; stroke-linecap: square"/>
   </g>
   <g id="line2d_30">
    <path d="M 7.2 99.279636 
L 107.490996 99.279636 
" clip-path="url(#pa699ebb01a)" style="fill: none; stroke: #000000; stroke-width: 1.5; stroke-linecap: square"/>
   </g>
   <g id="patch_23">
    <path d="M 7.2 160.667431 
L 7.2 99.279636 
" style="fill: none; stroke: #000000; stroke-width: 0.8; stroke-linejoin: miter; stroke-linecap: square"/>
   </g>
   <g id="patch_24">
    <path d="M 107.490996 160.667431 
L 107.490996 99.279636 
" style="fill: none; stroke: #000000; stroke-width: 0.8; stroke-linejoin: miter; stroke-linecap: square"/>
   </g>
   <g id="patch_25">
    <path d="M 7.2 160.667431 
L 107.490996 160.667431 
" style="fill: none; stroke: #000000; stroke-width: 0.8; stroke-linejoin: miter; stroke-linecap: square"/>
   </g>
   <g id="patch_26">
    <path d="M 7.2 99.279636 
L 107.490996 99.279636 
" style="fill: none; stroke: #000000; stroke-width: 0.8; stroke-linejoin: miter; stroke-linecap: square"/>
   </g>
  </g>
  <g id="axes_6">
   <g id="patch_27">
    <path d="M 127.549195 160.667431 
L 227.840192 160.667431 
L 227.840192 99.279636 
L 127.549195 99.279636 
z
" style="fill: #ffffff"/>
   </g>
   <g id="PolyCollection_21">
    <defs>
     <path id="m92d0800168" d="M 127.549195 -48.398429 
L 127.549195 -17.704531 
L 177.694694 -17.704531 
L 177.694694 -48.398429 
L 177.694694 -48.398429 
L 127.549195 -48.398429 
z
" style="stroke: #000000"/>
    </defs>
    <g clip-path="url(#p4059fb92ff)">
     <use xlink:href="#m92d0800168" x="0" y="178.371962" style="stroke: #000000"/>
    </g>
   </g>
   <g id="PolyCollection_22">
    <defs>
     <path id="m5673bf3587" d="M 127.549195 -79.092327 
L 127.549195 -48.398429 
L 177.694694 -48.398429 
L 177.694694 -79.092327 
L 177.694694 -79.092327 
L 127.549195 -79.092327 
z
" style="stroke: #ffffff"/>
    </defs>
    <g clip-path="url(#p4059fb92ff)">
     <use xlink:href="#m5673bf3587" x="0" y="178.371962" style="fill: #ffffff; stroke: #ffffff"/>
    </g>
   </g>
   <g id="PolyCollection_23">
    <defs>
     <path id="m27c8047169" d="M 177.694694 -48.398429 
L 177.694694 -17.704531 
L 227.840192 -17.704531 
L 227.840192 -48.398429 
L 227.840192 -48.398429 
L 177.694694 -48.398429 
z
" style="stroke: #ffffff"/>
    </defs>
    <g clip-path="url(#p4059fb92ff)">
     <use xlink:href="#m27c8047169" x="0" y="178.371962" style="fill: #ffffff; stroke: #ffffff"/>
    </g>
   </g>
   <g id="PolyCollection_24">
    <defs>
     <path id="md68fe8fbb7" d="M 177.694694 -79.092327 
L 177.694694 -48.398429 
L 227.840192 -48.398429 
L 227.840192 -79.092327 
L 227.840192 -79.092327 
L 177.694694 -79.092327 
z
" style="stroke: #000000"/>
    </defs>
    <g clip-path="url(#p4059fb92ff)">
     <use xlink:href="#md68fe8fbb7" x="0" y="178.371962" style="stroke: #000000"/>
    </g>
   </g>
   <g id="matplotlib.axis_11">
    <g id="text_7">
     <text style="font: 7px 'Arial'; text-anchor: middle" x="177.694694" y="169.698681" transform="rotate(-0 177.694694 169.698681)">Forecasting time 20</text>
    </g>
   </g>
   <g id="matplotlib.axis_12"/>
   <g id="line2d_31">
    <path d="M 127.549195 160.667431 
L 127.549195 99.279636 
" clip-path="url(#p4059fb92ff)" style="fill: none; stroke: #000000; stroke-width: 1.5; stroke-linecap: square"/>
   </g>
   <g id="line2d_32">
    <path d="M 127.549195 160.667431 
L 227.840192 160.667431 
" clip-path="url(#p4059fb92ff)" style="fill: none; stroke: #000000; stroke-width: 1.5; stroke-linecap: square"/>
   </g>
   <g id="line2d_33">
    <path d="M 177.694694 160.667431 
L 177.694694 99.279636 
" clip-path="url(#p4059fb92ff)" style="fill: none; stroke: #000000; stroke-width: 1.5; stroke-linecap: square"/>
   </g>
   <g id="line2d_34">
    <path d="M 127.549195 129.973533 
L 227.840192 129.973533 
" clip-path="url(#p4059fb92ff)" style="fill: none; stroke: #000000; stroke-width: 1.5; stroke-linecap: square"/>
   </g>
   <g id="line2d_35">
    <path d="M 227.840192 160.667431 
L 227.840192 99.279636 
" clip-path="url(#p4059fb92ff)" style="fill: none; stroke: #000000; stroke-width: 1.5; stroke-linecap: square"/>
   </g>
   <g id="line2d_36">
    <path d="M 127.549195 99.279636 
L 227.840192 99.279636 
" clip-path="url(#p4059fb92ff)" style="fill: none; stroke: #000000; stroke-width: 1.5; stroke-linecap: square"/>
   </g>
   <g id="patch_28">
    <path d="M 127.549195 160.667431 
L 127.549195 99.279636 
" style="fill: none; stroke: #000000; stroke-width: 0.8; stroke-linejoin: miter; stroke-linecap: square"/>
   </g>
   <g id="patch_29">
    <path d="M 227.840192 160.667431 
L 227.840192 99.279636 
" style="fill: none; stroke: #000000; stroke-width: 0.8; stroke-linejoin: miter; stroke-linecap: square"/>
   </g>
   <g id="patch_30">
    <path d="M 127.549195 160.667431 
L 227.840192 160.667431 
" style="fill: none; stroke: #000000; stroke-width: 0.8; stroke-linejoin: miter; stroke-linecap: square"/>
   </g>
   <g id="patch_31">
    <path d="M 127.549195 99.279636 
L 227.840192 99.279636 
" style="fill: none; stroke: #000000; stroke-width: 0.8; stroke-linejoin: miter; stroke-linecap: square"/>
   </g>
  </g>
  <g id="axes_7">
   <g id="patch_32">
    <path d="M 247.898391 160.667431 
L 348.189387 160.667431 
L 348.189387 99.279636 
L 247.898391 99.279636 
z
" style="fill: #ffffff"/>
   </g>
   <g id="PolyCollection_25">
    <defs>
     <path id="mcb05d326c9" d="M 247.898391 -48.398429 
L 247.898391 -17.704531 
L 298.043889 -17.704531 
L 298.043889 -48.398429 
L 298.043889 -48.398429 
L 247.898391 -48.398429 
z
" style="stroke: #000000"/>
    </defs>
    <g clip-path="url(#p58fe934c7b)">
     <use xlink:href="#mcb05d326c9" x="0" y="178.371962" style="stroke: #000000"/>
    </g>
   </g>
   <g id="PolyCollection_26">
    <defs>
     <path id="mf0c59cc1df" d="M 247.898391 -79.092327 
L 247.898391 -48.398429 
L 298.043889 -48.398429 
L 298.043889 -79.092327 
L 298.043889 -79.092327 
L 247.898391 -79.092327 
z
" style="stroke: #ffffff"/>
    </defs>
    <g clip-path="url(#p58fe934c7b)">
     <use xlink:href="#mf0c59cc1df" x="0" y="178.371962" style="fill: #ffffff; stroke: #ffffff"/>
    </g>
   </g>
   <g id="PolyCollection_27">
    <defs>
     <path id="mb2b3e21fd7" d="M 298.043889 -48.398429 
L 298.043889 -17.704531 
L 348.189387 -17.704531 
L 348.189387 -48.398429 
L 348.189387 -48.398429 
L 298.043889 -48.398429 
z
" style="stroke: #ffffff"/>
    </defs>
    <g clip-path="url(#p58fe934c7b)">
     <use xlink:href="#mb2b3e21fd7" x="0" y="178.371962" style="fill: #ffffff; stroke: #ffffff"/>
    </g>
   </g>
   <g id="PolyCollection_28">
    <defs>
     <path id="m6fb49563ee" d="M 298.043889 -79.092327 
L 298.043889 -48.398429 
L 348.189387 -48.398429 
L 348.189387 -79.092327 
L 348.189387 -79.092327 
L 298.043889 -79.092327 
z
" style="stroke: #000000"/>
    </defs>
    <g clip-path="url(#p58fe934c7b)">
     <use xlink:href="#m6fb49563ee" x="0" y="178.371962" style="stroke: #000000"/>
    </g>
   </g>
   <g id="matplotlib.axis_13">
    <g id="text_8">
     <text style="font: 7px 'Arial'; text-anchor: middle" x="298.043889" y="169.698681" transform="rotate(-0 298.043889 169.698681)">Forecasting time 30</text>
    </g>
   </g>
   <g id="matplotlib.axis_14">
    <g id="ytick_1">
     <g id="line2d_37">
      <defs>
       <path id="m1b57379cf1" d="M 0 0 
L 3.5 0 
" style="stroke: #000000; stroke-width: 0.8"/>
      </defs>
      <g>
       <use xlink:href="#m1b57379cf1" x="348.189387" y="145.320482" style="stroke: #000000; stroke-width: 0.8"/>
      </g>
     </g>
     <g id="text_9">
      <!-- $x$ and $y$ offset -->
      <g transform="translate(355.189387 147.875482)">
       <text>
        <tspan style="font: oblique 7px 'DejaVu Sans'" x="0 19.711426" y="-0.90625">xy</tspan>
        <tspan style="font: 7px 'Arial'" x="4.142578 6.087402 9.980469 13.873535 17.766602 23.854004 25.798828 29.691895 31.636719 33.581543 37.081543 40.974609" y="-0.90625"> and  offset</tspan>
       </text>
      </g>
     </g>
    </g>
    <g id="ytick_2">
     <g id="line2d_38">
      <g>
       <use xlink:href="#m1b57379cf1" x="348.189387" y="114.626584" style="stroke: #000000; stroke-width: 0.8"/>
      </g>
     </g>
     <g id="text_10">
      <text style="font: 7px 'Arial'; text-anchor: start" x="355.189387" y="117.174475" transform="rotate(-0 355.189387 117.174475)">Speed, heading, and time</text>
     </g>
    </g>
   </g>
   <g id="line2d_39">
    <path d="M 247.898391 160.667431 
L 247.898391 99.279636 
" clip-path="url(#p58fe934c7b)" style="fill: none; stroke: #000000; stroke-width: 1.5; stroke-linecap: square"/>
   </g>
   <g id="line2d_40">
    <path d="M 247.898391 160.667431 
L 348.189387 160.667431 
" clip-path="url(#p58fe934c7b)" style="fill: none; stroke: #000000; stroke-width: 1.5; stroke-linecap: square"/>
   </g>
   <g id="line2d_41">
    <path d="M 298.043889 160.667431 
L 298.043889 99.279636 
" clip-path="url(#p58fe934c7b)" style="fill: none; stroke: #000000; stroke-width: 1.5; stroke-linecap: square"/>
   </g>
   <g id="line2d_42">
    <path d="M 247.898391 129.973533 
L 348.189387 129.973533 
" clip-path="url(#p58fe934c7b)" style="fill: none; stroke: #000000; stroke-width: 1.5; stroke-linecap: square"/>
   </g>
   <g id="line2d_43">
    <path d="M 348.189387 160.667431 
L 348.189387 99.279636 
" clip-path="url(#p58fe934c7b)" style="fill: none; stroke: #000000; stroke-width: 1.5; stroke-linecap: square"/>
   </g>
   <g id="line2d_44">
    <path d="M 247.898391 99.279636 
L 348.189387 99.279636 
" clip-path="url(#p58fe934c7b)" style="fill: none; stroke: #000000; stroke-width: 1.5; stroke-linecap: square"/>
   </g>
   <g id="patch_33">
    <path d="M 247.898391 160.667431 
L 247.898391 99.279636 
" style="fill: none; stroke: #000000; stroke-width: 0.8; stroke-linejoin: miter; stroke-linecap: square"/>
   </g>
   <g id="patch_34">
    <path d="M 348.189387 160.667431 
L 348.189387 99.279636 
" style="fill: none; stroke: #000000; stroke-width: 0.8; stroke-linejoin: miter; stroke-linecap: square"/>
   </g>
   <g id="patch_35">
    <path d="M 247.898391 160.667431 
L 348.189387 160.667431 
" style="fill: none; stroke: #000000; stroke-width: 0.8; stroke-linejoin: miter; stroke-linecap: square"/>
   </g>
   <g id="patch_36">
    <path d="M 247.898391 99.279636 
L 348.189387 99.279636 
" style="fill: none; stroke: #000000; stroke-width: 0.8; stroke-linejoin: miter; stroke-linecap: square"/>
   </g>
  </g>
 </g>
 <defs>
  <clipPath id="p452f93df22">
   <rect x="7.2" y="25.614281" width="100.290996" height="61.387795"/>
  </clipPath>
  <clipPath id="pa5082f039b">
   <rect x="127.549195" y="25.614281" width="100.290996" height="61.387795"/>
  </clipPath>
  <clipPath id="pc6a8cfd730">
   <rect x="247.898391" y="25.614281" width="100.290996" height="61.387795"/>
  </clipPath>
  <clipPath id="pa790572cf3">
   <rect x="368.247586" y="25.614281" width="100.290996" height="61.387795"/>
  </clipPath>
  <clipPath id="pa699ebb01a">
   <rect x="7.2" y="99.279636" width="100.290996" height="61.387795"/>
  </clipPath>
  <clipPath id="p4059fb92ff">
   <rect x="127.549195" y="99.279636" width="100.290996" height="61.387795"/>
  </clipPath>
  <clipPath id="p58fe934c7b">
   <rect x="247.898391" y="99.279636" width="100.290996" height="61.387795"/>
  </clipPath>
 </defs>
</svg>
