<?xml version="1.0" encoding="utf-8" standalone="no"?>
<!DOCTYPE svg PUBLIC "-//W3C//DTD SVG 1.1//EN"
  "http://www.w3.org/Graphics/SVG/1.1/DTD/svg11.dtd">
<svg xmlns:xlink="http://www.w3.org/1999/xlink" width="475.738583pt" height="313.888862pt" viewBox="0 0 475.738583 313.888862" xmlns="http://www.w3.org/2000/svg" version="1.1">
 <metadata>
  <rdf:RDF xmlns:dc="http://purl.org/dc/elements/1.1/" xmlns:cc="http://creativecommons.org/ns#" xmlns:rdf="http://www.w3.org/1999/02/22-rdf-syntax-ns#">
   <cc:Work>
    <dc:type rdf:resource="http://purl.org/dc/dcmitype/StillImage"/>
    <dc:date>2024-10-28T16:12:13.842775</dc:date>
    <dc:format>image/svg+xml</dc:format>
    <dc:creator>
     <cc:Agent>
      <dc:title>Matplotlib v3.7.0, https://matplotlib.org/</dc:title>
     </cc:Agent>
    </dc:creator>
   </cc:Work>
  </rdf:RDF>
 </metadata>
 <defs>
  <style type="text/css">*{stroke-linejoin: round; stroke-linecap: butt}</style>
 </defs>
 <g id="figure_1">
  <g id="patch_1">
   <path d="M 0 313.888862 
L 475.738583 313.888862 
L 475.738583 0 
L 0 0 
z
" style="fill: #ffffff"/>
  </g>
  <g id="axes_1">
   <g id="patch_2">
    <path d="M 7.2 148.568153 
L 107.490996 148.568153 
L 107.490996 25.792562 
L 7.2 25.792562 
z
" style="fill: #ffffff"/>
   </g>
   <g id="PolyCollection_1">
    <defs>
     <path id="m80f7316d47" d="M 7.2 -226.708504 
L 7.2 -165.320709 
L 57.345498 -165.320709 
L 57.345498 -226.708504 
L 57.345498 -226.708504 
L 7.2 -226.708504 
z
" style="stroke: #000000"/>
    </defs>
    <g clip-path="url(#p4fedd20f3b)">
     <use xlink:href="#m80f7316d47" x="0" y="313.888862" style="stroke: #000000"/>
    </g>
   </g>
   <g id="PolyCollection_2">
    <defs>
     <path id="m9ff81fdd11" d="M 7.2 -288.096299 
L 7.2 -226.708504 
L 57.345498 -226.708504 
L 57.345498 -288.096299 
L 57.345498 -288.096299 
L 7.2 -288.096299 
z
" style="stroke: #fefefe"/>
    </defs>
    <g clip-path="url(#p4fedd20f3b)">
     <use xlink:href="#m9ff81fdd11" x="0" y="313.888862" style="fill: #fefefe; stroke: #fefefe"/>
    </g>
   </g>
   <g id="PolyCollection_3">
    <defs>
     <path id="ma342bf2a60" d="M 57.345498 -226.708504 
L 57.345498 -165.320709 
L 107.490996 -165.320709 
L 107.490996 -226.708504 
L 107.490996 -226.708504 
L 57.345498 -226.708504 
z
" style="stroke: #fefefe"/>
    </defs>
    <g clip-path="url(#p4fedd20f3b)">
     <use xlink:href="#ma342bf2a60" x="0" y="313.888862" style="fill: #fefefe; stroke: #fefefe"/>
    </g>
   </g>
   <g id="PolyCollection_4">
    <defs>
     <path id="m4c91300f47" d="M 57.345498 -288.096299 
L 57.345498 -226.708504 
L 107.490996 -226.708504 
L 107.490996 -288.096299 
L 107.490996 -288.096299 
L 57.345498 -288.096299 
z
" style="stroke: #000000"/>
    </defs>
    <g clip-path="url(#p4fedd20f3b)">
     <use xlink:href="#m4c91300f47" x="0" y="313.888862" style="stroke: #000000"/>
    </g>
   </g>
   <g id="matplotlib.axis_1">
    <g id="text_1">
     <!-- Forecasting time $2$ $s$ -->
     <g transform="translate(25.460498 157.818153)">
      <text>
       <tspan style="font: 7px 'Arial'" x="0 4.275879 8.168945 10.5 14.393066 17.893066 21.786133 25.286133 27.230957 28.786133 32.679199 36.572266 38.51709 40.461914 42.01709 47.848145 51.741211 58.139648" y="-0.796875">Forecasting time  </tspan>
       <tspan style="font: 7px 'DejaVu Sans'" x="53.686035" y="-0.796875">2</tspan>
       <tspan style="font: oblique 7px 'DejaVu Sans'" x="60.084473" y="-0.796875">s</tspan>
      </text>
     </g>
    </g>
   </g>
   <g id="matplotlib.axis_2"/>
   <g id="line2d_1">
    <path d="M 7.2 148.568153 
L 7.2 25.792562 
" clip-path="url(#p4fedd20f3b)" style="fill: none; stroke: #000000; stroke-width: 1.5; stroke-linecap: square"/>
   </g>
   <g id="line2d_2">
    <path d="M 7.2 148.568153 
L 107.490996 148.568153 
" clip-path="url(#p4fedd20f3b)" style="fill: none; stroke: #000000; stroke-width: 1.5; stroke-linecap: square"/>
   </g>
   <g id="line2d_3">
    <path d="M 57.345498 148.568153 
L 57.345498 25.792562 
" clip-path="url(#p4fedd20f3b)" style="fill: none; stroke: #000000; stroke-width: 1.5; stroke-linecap: square"/>
   </g>
   <g id="line2d_4">
    <path d="M 7.2 87.180358 
L 107.490996 87.180358 
" clip-path="url(#p4fedd20f3b)" style="fill: none; stroke: #000000; stroke-width: 1.5; stroke-linecap: square"/>
   </g>
   <g id="line2d_5">
    <path d="M 107.490996 148.568153 
L 107.490996 25.792562 
" clip-path="url(#p4fedd20f3b)" style="fill: none; stroke: #000000; stroke-width: 1.5; stroke-linecap: square"/>
   </g>
   <g id="line2d_6">
    <path d="M 7.2 25.792562 
L 107.490996 25.792562 
" clip-path="url(#p4fedd20f3b)" style="fill: none; stroke: #000000; stroke-width: 1.5; stroke-linecap: square"/>
   </g>
   <g id="patch_3">
    <path d="M 7.2 148.568153 
L 7.2 25.792562 
" style="fill: none; stroke: #000000; stroke-width: 0.8; stroke-linejoin: miter; stroke-linecap: square"/>
   </g>
   <g id="patch_4">
    <path d="M 107.490996 148.568153 
L 107.490996 25.792562 
" style="fill: none; stroke: #000000; stroke-width: 0.8; stroke-linejoin: miter; stroke-linecap: square"/>
   </g>
   <g id="patch_5">
    <path d="M 7.2 148.568153 
L 107.490996 148.568153 
" style="fill: none; stroke: #000000; stroke-width: 0.8; stroke-linejoin: miter; stroke-linecap: square"/>
   </g>
   <g id="patch_6">
    <path d="M 7.2 25.792562 
L 107.490996 25.792562 
" style="fill: none; stroke: #000000; stroke-width: 0.8; stroke-linejoin: miter; stroke-linecap: square"/>
   </g>
   <g id="text_2">
    <text style="fill: #ffffff; font: 7px 'Arial'; text-anchor: start" x="13.468187" y="117.874255" transform="rotate(-0 13.468187 117.874255)">1.0</text>
   </g>
   <g id="text_3">
    <text style="font: 7px 'Arial'; text-anchor: start" x="13.468187" y="56.48646" transform="rotate(-0 13.468187 56.48646)">0.006</text>
   </g>
   <g id="text_4">
    <text style="font: 7px 'Arial'; text-anchor: start" x="63.613685" y="117.874255" transform="rotate(-0 63.613685 117.874255)">0.006</text>
   </g>
   <g id="text_5">
    <text style="fill: #ffffff; font: 7px 'Arial'; text-anchor: start" x="63.613685" y="56.48646" transform="rotate(-0 63.613685 56.48646)">1.0</text>
   </g>
  </g>
  <g id="axes_2">
   <g id="patch_7">
    <path d="M 127.549195 148.568153 
L 227.840192 148.568153 
L 227.840192 25.792562 
L 127.549195 25.792562 
z
" style="fill: #ffffff"/>
   </g>
   <g id="PolyCollection_5">
    <defs>
     <path id="m3059bf154a" d="M 127.549195 -226.708504 
L 127.549195 -165.320709 
L 177.694694 -165.320709 
L 177.694694 -226.708504 
L 177.694694 -226.708504 
L 127.549195 -226.708504 
z
" style="stroke: #000000"/>
    </defs>
    <g clip-path="url(#p9b3f3b069f)">
     <use xlink:href="#m3059bf154a" x="0" y="313.888862" style="stroke: #000000"/>
    </g>
   </g>
   <g id="PolyCollection_6">
    <defs>
     <path id="m791d55dcce" d="M 127.549195 -288.096299 
L 127.549195 -226.708504 
L 177.694694 -226.708504 
L 177.694694 -288.096299 
L 177.694694 -288.096299 
L 127.549195 -288.096299 
z
" style="stroke: #707070"/>
    </defs>
    <g clip-path="url(#p9b3f3b069f)">
     <use xlink:href="#m791d55dcce" x="0" y="313.888862" style="fill: #707070; stroke: #707070"/>
    </g>
   </g>
   <g id="PolyCollection_7">
    <defs>
     <path id="m4b22fd6cdc" d="M 177.694694 -226.708504 
L 177.694694 -165.320709 
L 227.840192 -165.320709 
L 227.840192 -226.708504 
L 227.840192 -226.708504 
L 177.694694 -226.708504 
z
" style="stroke: #707070"/>
    </defs>
    <g clip-path="url(#p9b3f3b069f)">
     <use xlink:href="#m4b22fd6cdc" x="0" y="313.888862" style="fill: #707070; stroke: #707070"/>
    </g>
   </g>
   <g id="PolyCollection_8">
    <defs>
     <path id="m0774c48b59" d="M 177.694694 -288.096299 
L 177.694694 -226.708504 
L 227.840192 -226.708504 
L 227.840192 -288.096299 
L 227.840192 -288.096299 
L 177.694694 -288.096299 
z
" style="stroke: #000000"/>
    </defs>
    <g clip-path="url(#p9b3f3b069f)">
     <use xlink:href="#m0774c48b59" x="0" y="313.888862" style="stroke: #000000"/>
    </g>
   </g>
   <g id="matplotlib.axis_3">
    <g id="text_6">
     <!-- Forecasting time $3$ $s$ -->
     <g transform="translate(145.809694 157.818153)">
      <text>
       <tspan style="font: 7px 'Arial'" x="0 4.275879 8.168945 10.5 14.393066 17.893066 21.786133 25.286133 27.230957 28.786133 32.679199 36.572266 38.51709 40.461914 42.01709 47.848145 51.741211 58.139648" y="-0.796875">Forecasting time  </tspan>
       <tspan style="font: 7px 'DejaVu Sans'" x="53.686035" y="-0.796875">3</tspan>
       <tspan style="font: oblique 7px 'DejaVu Sans'" x="60.084473" y="-0.796875">s</tspan>
      </text>
     </g>
    </g>
   </g>
   <g id="matplotlib.axis_4"/>
   <g id="line2d_7">
    <path d="M 127.549195 148.568153 
L 127.549195 25.792562 
" clip-path="url(#p9b3f3b069f)" style="fill: none; stroke: #000000; stroke-width: 1.5; stroke-linecap: square"/>
   </g>
   <g id="line2d_8">
    <path d="M 127.549195 148.568153 
L 227.840192 148.568153 
" clip-path="url(#p9b3f3b069f)" style="fill: none; stroke: #000000; stroke-width: 1.5; stroke-linecap: square"/>
   </g>
   <g id="line2d_9">
    <path d="M 177.694694 148.568153 
L 177.694694 25.792562 
" clip-path="url(#p9b3f3b069f)" style="fill: none; stroke: #000000; stroke-width: 1.5; stroke-linecap: square"/>
   </g>
   <g id="line2d_10">
    <path d="M 127.549195 87.180358 
L 227.840192 87.180358 
" clip-path="url(#p9b3f3b069f)" style="fill: none; stroke: #000000; stroke-width: 1.5; stroke-linecap: square"/>
   </g>
   <g id="line2d_11">
    <path d="M 227.840192 148.568153 
L 227.840192 25.792562 
" clip-path="url(#p9b3f3b069f)" style="fill: none; stroke: #000000; stroke-width: 1.5; stroke-linecap: square"/>
   </g>
   <g id="line2d_12">
    <path d="M 127.549195 25.792562 
L 227.840192 25.792562 
" clip-path="url(#p9b3f3b069f)" style="fill: none; stroke: #000000; stroke-width: 1.5; stroke-linecap: square"/>
   </g>
   <g id="patch_8">
    <path d="M 127.549195 148.568153 
L 127.549195 25.792562 
" style="fill: none; stroke: #000000; stroke-width: 0.8; stroke-linejoin: miter; stroke-linecap: square"/>
   </g>
   <g id="patch_9">
    <path d="M 227.840192 148.568153 
L 227.840192 25.792562 
" style="fill: none; stroke: #000000; stroke-width: 0.8; stroke-linejoin: miter; stroke-linecap: square"/>
   </g>
   <g id="patch_10">
    <path d="M 127.549195 148.568153 
L 227.840192 148.568153 
" style="fill: none; stroke: #000000; stroke-width: 0.8; stroke-linejoin: miter; stroke-linecap: square"/>
   </g>
   <g id="patch_11">
    <path d="M 127.549195 25.792562 
L 227.840192 25.792562 
" style="fill: none; stroke: #000000; stroke-width: 0.8; stroke-linejoin: miter; stroke-linecap: square"/>
   </g>
   <g id="text_7">
    <text style="fill: #ffffff; font: 7px 'Arial'; text-anchor: start" x="133.817383" y="117.874255" transform="rotate(-0 133.817383 117.874255)">1.0</text>
   </g>
   <g id="text_8">
    <text style="fill: #ffffff; font: 7px 'Arial'; text-anchor: start" x="133.817383" y="56.48646" transform="rotate(-0 133.817383 56.48646)">0.561</text>
   </g>
   <g id="text_9">
    <text style="fill: #ffffff; font: 7px 'Arial'; text-anchor: start" x="183.962881" y="117.874255" transform="rotate(-0 183.962881 117.874255)">0.561</text>
   </g>
   <g id="text_10">
    <text style="fill: #ffffff; font: 7px 'Arial'; text-anchor: start" x="183.962881" y="56.48646" transform="rotate(-0 183.962881 56.48646)">1.0</text>
   </g>
   <g id="text_11">
    <!-- $x$ and $y$ offset -->
    <g transform="translate(156.204694 12.31)">
     <text>
      <tspan style="font: oblique 7px 'DejaVu Sans'" x="0 19.711426" y="-0.90625">xy</tspan>
      <tspan style="font: 7px 'Arial'" x="4.142578 6.087402 9.980469 13.873535 17.766602 23.854004 25.798828 29.691895 31.636719 33.581543 37.081543 40.974609" y="-0.90625"> and  offset</tspan>
     </text>
    </g>
    <text style="font: 7px 'Arial'" transform="translate(167.582428 19.792562)">RMSE</text>
   </g>
  </g>
  <g id="axes_3">
   <g id="patch_12">
    <path d="M 247.898391 148.568153 
L 348.189387 148.568153 
L 348.189387 25.792562 
L 247.898391 25.792562 
z
" style="fill: #ffffff"/>
   </g>
   <g id="PolyCollection_9">
    <defs>
     <path id="md1108ff01f" d="M 247.898391 -226.708504 
L 247.898391 -165.320709 
L 298.043889 -165.320709 
L 298.043889 -226.708504 
L 298.043889 -226.708504 
L 247.898391 -226.708504 
z
" style="stroke: #000000"/>
    </defs>
    <g clip-path="url(#p98ae6f4902)">
     <use xlink:href="#md1108ff01f" x="0" y="313.888862" style="stroke: #000000"/>
    </g>
   </g>
   <g id="PolyCollection_10">
    <defs>
     <path id="md68e2adecc" d="M 247.898391 -288.096299 
L 247.898391 -226.708504 
L 298.043889 -226.708504 
L 298.043889 -288.096299 
L 298.043889 -288.096299 
L 247.898391 -288.096299 
z
" style="stroke: #e0e0e0"/>
    </defs>
    <g clip-path="url(#p98ae6f4902)">
     <use xlink:href="#md68e2adecc" x="0" y="313.888862" style="fill: #e0e0e0; stroke: #e0e0e0"/>
    </g>
   </g>
   <g id="PolyCollection_11">
    <defs>
     <path id="m212bc8afc4" d="M 298.043889 -226.708504 
L 298.043889 -165.320709 
L 348.189387 -165.320709 
L 348.189387 -226.708504 
L 348.189387 -226.708504 
L 298.043889 -226.708504 
z
" style="stroke: #e0e0e0"/>
    </defs>
    <g clip-path="url(#p98ae6f4902)">
     <use xlink:href="#m212bc8afc4" x="0" y="313.888862" style="fill: #e0e0e0; stroke: #e0e0e0"/>
    </g>
   </g>
   <g id="PolyCollection_12">
    <defs>
     <path id="m8d20075e71" d="M 298.043889 -288.096299 
L 298.043889 -226.708504 
L 348.189387 -226.708504 
L 348.189387 -288.096299 
L 348.189387 -288.096299 
L 298.043889 -288.096299 
z
" style="stroke: #000000"/>
    </defs>
    <g clip-path="url(#p98ae6f4902)">
     <use xlink:href="#m8d20075e71" x="0" y="313.888862" style="stroke: #000000"/>
    </g>
   </g>
   <g id="matplotlib.axis_5">
    <g id="text_12">
     <!-- Forecasting time $4$ $s$ -->
     <g transform="translate(266.158889 157.678153)">
      <text>
       <tspan style="font: 7px 'Arial'" x="0 4.275879 8.168945 10.5 14.393066 17.893066 21.786133 25.286133 27.230957 28.786133 32.679199 36.572266 38.51709 40.461914 42.01709 47.848145 51.741211 58.139648" y="-0.890625">Forecasting time  </tspan>
       <tspan style="font: 7px 'DejaVu Sans'" x="53.686035" y="-0.890625">4</tspan>
       <tspan style="font: oblique 7px 'DejaVu Sans'" x="60.084473" y="-0.890625">s</tspan>
      </text>
     </g>
    </g>
   </g>
   <g id="matplotlib.axis_6"/>
   <g id="line2d_13">
    <path d="M 247.898391 148.568153 
L 247.898391 25.792562 
" clip-path="url(#p98ae6f4902)" style="fill: none; stroke: #000000; stroke-width: 1.5; stroke-linecap: square"/>
   </g>
   <g id="line2d_14">
    <path d="M 247.898391 148.568153 
L 348.189387 148.568153 
" clip-path="url(#p98ae6f4902)" style="fill: none; stroke: #000000; stroke-width: 1.5; stroke-linecap: square"/>
   </g>
   <g id="line2d_15">
    <path d="M 298.043889 148.568153 
L 298.043889 25.792562 
" clip-path="url(#p98ae6f4902)" style="fill: none; stroke: #000000; stroke-width: 1.5; stroke-linecap: square"/>
   </g>
   <g id="line2d_16">
    <path d="M 247.898391 87.180358 
L 348.189387 87.180358 
" clip-path="url(#p98ae6f4902)" style="fill: none; stroke: #000000; stroke-width: 1.5; stroke-linecap: square"/>
   </g>
   <g id="line2d_17">
    <path d="M 348.189387 148.568153 
L 348.189387 25.792562 
" clip-path="url(#p98ae6f4902)" style="fill: none; stroke: #000000; stroke-width: 1.5; stroke-linecap: square"/>
   </g>
   <g id="line2d_18">
    <path d="M 247.898391 25.792562 
L 348.189387 25.792562 
" clip-path="url(#p98ae6f4902)" style="fill: none; stroke: #000000; stroke-width: 1.5; stroke-linecap: square"/>
   </g>
   <g id="patch_13">
    <path d="M 247.898391 148.568153 
L 247.898391 25.792562 
" style="fill: none; stroke: #000000; stroke-width: 0.8; stroke-linejoin: miter; stroke-linecap: square"/>
   </g>
   <g id="patch_14">
    <path d="M 348.189387 148.568153 
L 348.189387 25.792562 
" style="fill: none; stroke: #000000; stroke-width: 0.8; stroke-linejoin: miter; stroke-linecap: square"/>
   </g>
   <g id="patch_15">
    <path d="M 247.898391 148.568153 
L 348.189387 148.568153 
" style="fill: none; stroke: #000000; stroke-width: 0.8; stroke-linejoin: miter; stroke-linecap: square"/>
   </g>
   <g id="patch_16">
    <path d="M 247.898391 25.792562 
L 348.189387 25.792562 
" style="fill: none; stroke: #000000; stroke-width: 0.8; stroke-linejoin: miter; stroke-linecap: square"/>
   </g>
   <g id="text_13">
    <text style="fill: #ffffff; font: 7px 'Arial'; text-anchor: start" x="254.166578" y="117.874255" transform="rotate(-0 254.166578 117.874255)">1.0</text>
   </g>
   <g id="text_14">
    <text style="font: 7px 'Arial'; text-anchor: start" x="254.166578" y="56.48646" transform="rotate(-0 254.166578 56.48646)">0.121</text>
   </g>
   <g id="text_15">
    <text style="font: 7px 'Arial'; text-anchor: start" x="304.312076" y="117.874255" transform="rotate(-0 304.312076 117.874255)">0.121</text>
   </g>
   <g id="text_16">
    <text style="fill: #ffffff; font: 7px 'Arial'; text-anchor: start" x="304.312076" y="56.48646" transform="rotate(-0 304.312076 56.48646)">1.0</text>
   </g>
  </g>
  <g id="axes_4">
   <g id="patch_17">
    <path d="M 368.247586 148.568153 
L 468.538583 148.568153 
L 468.538583 25.792562 
L 368.247586 25.792562 
z
" style="fill: #ffffff"/>
   </g>
   <g id="PolyCollection_13">
    <defs>
     <path id="m1c1809c81d" d="M 368.247586 -226.708504 
L 368.247586 -165.320709 
L 418.393085 -165.320709 
L 418.393085 -226.708504 
L 418.393085 -226.708504 
L 368.247586 -226.708504 
z
" style="stroke: #000000"/>
    </defs>
    <g clip-path="url(#p7496392123)">
     <use xlink:href="#m1c1809c81d" x="0" y="313.888862" style="stroke: #000000"/>
    </g>
   </g>
   <g id="PolyCollection_14">
    <defs>
     <path id="mf64688fa9a" d="M 368.247586 -288.096299 
L 368.247586 -226.708504 
L 418.393085 -226.708504 
L 418.393085 -288.096299 
L 418.393085 -288.096299 
L 368.247586 -288.096299 
z
" style="stroke: #ffffff"/>
    </defs>
    <g clip-path="url(#p7496392123)">
     <use xlink:href="#mf64688fa9a" x="0" y="313.888862" style="fill: #ffffff; stroke: #ffffff"/>
    </g>
   </g>
   <g id="PolyCollection_15">
    <defs>
     <path id="m7593f07f21" d="M 418.393085 -226.708504 
L 418.393085 -165.320709 
L 468.538583 -165.320709 
L 468.538583 -226.708504 
L 468.538583 -226.708504 
L 418.393085 -226.708504 
z
" style="stroke: #ffffff"/>
    </defs>
    <g clip-path="url(#p7496392123)">
     <use xlink:href="#m7593f07f21" x="0" y="313.888862" style="fill: #ffffff; stroke: #ffffff"/>
    </g>
   </g>
   <g id="PolyCollection_16">
    <defs>
     <path id="m7b66e1a979" d="M 418.393085 -288.096299 
L 418.393085 -226.708504 
L 468.538583 -226.708504 
L 468.538583 -288.096299 
L 468.538583 -288.096299 
L 418.393085 -288.096299 
z
" style="stroke: #000000"/>
    </defs>
    <g clip-path="url(#p7496392123)">
     <use xlink:href="#m7b66e1a979" x="0" y="313.888862" style="stroke: #000000"/>
    </g>
   </g>
   <g id="matplotlib.axis_7">
    <g id="text_17">
     <!-- Forecasting time $5$ $s$ -->
     <g transform="translate(386.508085 157.678153)">
      <text>
       <tspan style="font: 7px 'Arial'" x="0 4.275879 8.168945 10.5 14.393066 17.893066 21.786133 25.286133 27.230957 28.786133 32.679199 36.572266 38.51709 40.461914 42.01709 47.848145 51.741211 58.139648" y="-0.890625">Forecasting time  </tspan>
       <tspan style="font: 7px 'DejaVu Sans'" x="53.686035" y="-0.890625">5</tspan>
       <tspan style="font: oblique 7px 'DejaVu Sans'" x="60.084473" y="-0.890625">s</tspan>
      </text>
     </g>
    </g>
   </g>
   <g id="matplotlib.axis_8"/>
   <g id="line2d_19">
    <path d="M 368.247586 148.568153 
L 368.247586 25.792562 
" clip-path="url(#p7496392123)" style="fill: none; stroke: #000000; stroke-width: 1.5; stroke-linecap: square"/>
   </g>
   <g id="line2d_20">
    <path d="M 368.247586 148.568153 
L 468.538583 148.568153 
" clip-path="url(#p7496392123)" style="fill: none; stroke: #000000; stroke-width: 1.5; stroke-linecap: square"/>
   </g>
   <g id="line2d_21">
    <path d="M 418.393085 148.568153 
L 418.393085 25.792562 
" clip-path="url(#p7496392123)" style="fill: none; stroke: #000000; stroke-width: 1.5; stroke-linecap: square"/>
   </g>
   <g id="line2d_22">
    <path d="M 368.247586 87.180358 
L 468.538583 87.180358 
" clip-path="url(#p7496392123)" style="fill: none; stroke: #000000; stroke-width: 1.5; stroke-linecap: square"/>
   </g>
   <g id="line2d_23">
    <path d="M 468.538583 148.568153 
L 468.538583 25.792562 
" clip-path="url(#p7496392123)" style="fill: none; stroke: #000000; stroke-width: 1.5; stroke-linecap: square"/>
   </g>
   <g id="line2d_24">
    <path d="M 368.247586 25.792562 
L 468.538583 25.792562 
" clip-path="url(#p7496392123)" style="fill: none; stroke: #000000; stroke-width: 1.5; stroke-linecap: square"/>
   </g>
   <g id="patch_18">
    <path d="M 368.247586 148.568153 
L 368.247586 25.792562 
" style="fill: none; stroke: #000000; stroke-width: 0.8; stroke-linejoin: miter; stroke-linecap: square"/>
   </g>
   <g id="patch_19">
    <path d="M 468.538583 148.568153 
L 468.538583 25.792562 
" style="fill: none; stroke: #000000; stroke-width: 0.8; stroke-linejoin: miter; stroke-linecap: square"/>
   </g>
   <g id="patch_20">
    <path d="M 368.247586 148.568153 
L 468.538583 148.568153 
" style="fill: none; stroke: #000000; stroke-width: 0.8; stroke-linejoin: miter; stroke-linecap: square"/>
   </g>
   <g id="patch_21">
    <path d="M 368.247586 25.792562 
L 468.538583 25.792562 
" style="fill: none; stroke: #000000; stroke-width: 0.8; stroke-linejoin: miter; stroke-linecap: square"/>
   </g>
   <g id="text_18">
    <text style="fill: #ffffff; font: 7px 'Arial'; text-anchor: start" x="374.515774" y="117.874255" transform="rotate(-0 374.515774 117.874255)">1.0</text>
   </g>
   <g id="text_19">
    <text style="font: 7px 'Arial'; text-anchor: start" x="374.515774" y="56.48646" transform="rotate(-0 374.515774 56.48646)">0.001</text>
   </g>
   <g id="text_20">
    <text style="font: 7px 'Arial'; text-anchor: start" x="424.661272" y="117.874255" transform="rotate(-0 424.661272 117.874255)">0.001</text>
   </g>
   <g id="text_21">
    <text style="fill: #ffffff; font: 7px 'Arial'; text-anchor: start" x="424.661272" y="56.48646" transform="rotate(-0 424.661272 56.48646)">1.0</text>
   </g>
  </g>
  <g id="axes_5">
   <g id="patch_22">
    <path d="M 7.2 295.898862 
L 107.490996 295.898862 
L 107.490996 173.123271 
L 7.2 173.123271 
z
" style="fill: #ffffff"/>
   </g>
   <g id="PolyCollection_17">
    <defs>
     <path id="mf08107b831" d="M 7.2 -79.377795 
L 7.2 -17.99 
L 57.345498 -17.99 
L 57.345498 -79.377795 
L 57.345498 -79.377795 
L 7.2 -79.377795 
z
" style="stroke: #000000"/>
    </defs>
    <g clip-path="url(#pe6d52a3cbe)">
     <use xlink:href="#mf08107b831" x="0" y="313.888862" style="stroke: #000000"/>
    </g>
   </g>
   <g id="PolyCollection_18">
    <defs>
     <path id="mcc1513c789" d="M 7.2 -140.765591 
L 7.2 -79.377795 
L 57.345498 -79.377795 
L 57.345498 -140.765591 
L 57.345498 -140.765591 
L 7.2 -140.765591 
z
" style="stroke: #ffffff"/>
    </defs>
    <g clip-path="url(#pe6d52a3cbe)">
     <use xlink:href="#mcc1513c789" x="0" y="313.888862" style="fill: #ffffff; stroke: #ffffff"/>
    </g>
   </g>
   <g id="PolyCollection_19">
    <defs>
     <path id="m142fb580b2" d="M 57.345498 -79.377795 
L 57.345498 -17.99 
L 107.490996 -17.99 
L 107.490996 -79.377795 
L 107.490996 -79.377795 
L 57.345498 -79.377795 
z
" style="stroke: #ffffff"/>
    </defs>
    <g clip-path="url(#pe6d52a3cbe)">
     <use xlink:href="#m142fb580b2" x="0" y="313.888862" style="fill: #ffffff; stroke: #ffffff"/>
    </g>
   </g>
   <g id="PolyCollection_20">
    <defs>
     <path id="mcf2f7e95ad" d="M 57.345498 -140.765591 
L 57.345498 -79.377795 
L 107.490996 -79.377795 
L 107.490996 -140.765591 
L 107.490996 -140.765591 
L 57.345498 -140.765591 
z
" style="stroke: #000000"/>
    </defs>
    <g clip-path="url(#pe6d52a3cbe)">
     <use xlink:href="#mcf2f7e95ad" x="0" y="313.888862" style="stroke: #000000"/>
    </g>
   </g>
   <g id="matplotlib.axis_9">
    <g id="text_22">
     <!-- Forecasting time $10$ $s$ -->
     <g transform="translate(23.220498 305.148862)">
      <text>
       <tspan style="font: 7px 'Arial'" x="0 4.275879 8.168945 10.5 14.393066 17.893066 21.786133 25.286133 27.230957 28.786133 32.679199 36.572266 38.51709 40.461914 42.01709 47.848145 51.741211 62.593262" y="-0.796875">Forecasting time  </tspan>
       <tspan style="font: 7px 'DejaVu Sans'" x="53.686035 58.139648" y="-0.796875">10</tspan>
       <tspan style="font: oblique 7px 'DejaVu Sans'" x="64.538086" y="-0.796875">s</tspan>
      </text>
     </g>
    </g>
   </g>
   <g id="matplotlib.axis_10"/>
   <g id="line2d_25">
    <path d="M 7.2 295.898862 
L 7.2 173.123271 
" clip-path="url(#pe6d52a3cbe)" style="fill: none; stroke: #000000; stroke-width: 1.5; stroke-linecap: square"/>
   </g>
   <g id="line2d_26">
    <path d="M 7.2 295.898862 
L 107.490996 295.898862 
" clip-path="url(#pe6d52a3cbe)" style="fill: none; stroke: #000000; stroke-width: 1.5; stroke-linecap: square"/>
   </g>
   <g id="line2d_27">
    <path d="M 57.345498 295.898862 
L 57.345498 173.123271 
" clip-path="url(#pe6d52a3cbe)" style="fill: none; stroke: #000000; stroke-width: 1.5; stroke-linecap: square"/>
   </g>
   <g id="line2d_28">
    <path d="M 7.2 234.511066 
L 107.490996 234.511066 
" clip-path="url(#pe6d52a3cbe)" style="fill: none; stroke: #000000; stroke-width: 1.5; stroke-linecap: square"/>
   </g>
   <g id="line2d_29">
    <path d="M 107.490996 295.898862 
L 107.490996 173.123271 
" clip-path="url(#pe6d52a3cbe)" style="fill: none; stroke: #000000; stroke-width: 1.5; stroke-linecap: square"/>
   </g>
   <g id="line2d_30">
    <path d="M 7.2 173.123271 
L 107.490996 173.123271 
" clip-path="url(#pe6d52a3cbe)" style="fill: none; stroke: #000000; stroke-width: 1.5; stroke-linecap: square"/>
   </g>
   <g id="patch_23">
    <path d="M 7.2 295.898862 
L 7.2 173.123271 
" style="fill: none; stroke: #000000; stroke-width: 0.8; stroke-linejoin: miter; stroke-linecap: square"/>
   </g>
   <g id="patch_24">
    <path d="M 107.490996 295.898862 
L 107.490996 173.123271 
" style="fill: none; stroke: #000000; stroke-width: 0.8; stroke-linejoin: miter; stroke-linecap: square"/>
   </g>
   <g id="patch_25">
    <path d="M 7.2 295.898862 
L 107.490996 295.898862 
" style="fill: none; stroke: #000000; stroke-width: 0.8; stroke-linejoin: miter; stroke-linecap: square"/>
   </g>
   <g id="patch_26">
    <path d="M 7.2 173.123271 
L 107.490996 173.123271 
" style="fill: none; stroke: #000000; stroke-width: 0.8; stroke-linejoin: miter; stroke-linecap: square"/>
   </g>
   <g id="text_23">
    <text style="fill: #ffffff; font: 7px 'Arial'; text-anchor: start" x="13.468187" y="265.204964" transform="rotate(-0 13.468187 265.204964)">1.0</text>
   </g>
   <g id="text_24">
    <text style="font: 7px 'Arial'; text-anchor: start" x="13.468187" y="203.817169" transform="rotate(-0 13.468187 203.817169)">0.0</text>
   </g>
   <g id="text_25">
    <text style="font: 7px 'Arial'; text-anchor: start" x="63.613685" y="265.204964" transform="rotate(-0 63.613685 265.204964)">0.0</text>
   </g>
   <g id="text_26">
    <text style="fill: #ffffff; font: 7px 'Arial'; text-anchor: start" x="63.613685" y="203.817169" transform="rotate(-0 63.613685 203.817169)">1.0</text>
   </g>
  </g>
  <g id="axes_6">
   <g id="patch_27">
    <path d="M 127.549195 295.898862 
L 227.840192 295.898862 
L 227.840192 173.123271 
L 127.549195 173.123271 
z
" style="fill: #ffffff"/>
   </g>
   <g id="PolyCollection_21">
    <defs>
     <path id="m2a2daa046f" d="M 127.549195 -79.377795 
L 127.549195 -17.99 
L 177.694694 -17.99 
L 177.694694 -79.377795 
L 177.694694 -79.377795 
L 127.549195 -79.377795 
z
" style="stroke: #000000"/>
    </defs>
    <g clip-path="url(#p7d35272b98)">
     <use xlink:href="#m2a2daa046f" x="0" y="313.888862" style="stroke: #000000"/>
    </g>
   </g>
   <g id="PolyCollection_22">
    <defs>
     <path id="m914e8b78e8" d="M 127.549195 -140.765591 
L 127.549195 -79.377795 
L 177.694694 -79.377795 
L 177.694694 -140.765591 
L 177.694694 -140.765591 
L 127.549195 -140.765591 
z
" style="stroke: #ffffff"/>
    </defs>
    <g clip-path="url(#p7d35272b98)">
     <use xlink:href="#m914e8b78e8" x="0" y="313.888862" style="fill: #ffffff; stroke: #ffffff"/>
    </g>
   </g>
   <g id="PolyCollection_23">
    <defs>
     <path id="m243deafd4a" d="M 177.694694 -79.377795 
L 177.694694 -17.99 
L 227.840192 -17.99 
L 227.840192 -79.377795 
L 227.840192 -79.377795 
L 177.694694 -79.377795 
z
" style="stroke: #ffffff"/>
    </defs>
    <g clip-path="url(#p7d35272b98)">
     <use xlink:href="#m243deafd4a" x="0" y="313.888862" style="fill: #ffffff; stroke: #ffffff"/>
    </g>
   </g>
   <g id="PolyCollection_24">
    <defs>
     <path id="m52a93cc028" d="M 177.694694 -140.765591 
L 177.694694 -79.377795 
L 227.840192 -79.377795 
L 227.840192 -140.765591 
L 227.840192 -140.765591 
L 177.694694 -140.765591 
z
" style="stroke: #000000"/>
    </defs>
    <g clip-path="url(#p7d35272b98)">
     <use xlink:href="#m52a93cc028" x="0" y="313.888862" style="stroke: #000000"/>
    </g>
   </g>
   <g id="matplotlib.axis_11">
    <g id="text_27">
     <!-- Forecasting time $20$ $s$ -->
     <g transform="translate(143.569694 305.148862)">
      <text>
       <tspan style="font: 7px 'Arial'" x="0 4.275879 8.168945 10.5 14.393066 17.893066 21.786133 25.286133 27.230957 28.786133 32.679199 36.572266 38.51709 40.461914 42.01709 47.848145 51.741211 62.593262" y="-0.796875">Forecasting time  </tspan>
       <tspan style="font: 7px 'DejaVu Sans'" x="53.686035 58.139648" y="-0.796875">20</tspan>
       <tspan style="font: oblique 7px 'DejaVu Sans'" x="64.538086" y="-0.796875">s</tspan>
      </text>
     </g>
    </g>
   </g>
   <g id="matplotlib.axis_12"/>
   <g id="line2d_31">
    <path d="M 127.549195 295.898862 
L 127.549195 173.123271 
" clip-path="url(#p7d35272b98)" style="fill: none; stroke: #000000; stroke-width: 1.5; stroke-linecap: square"/>
   </g>
   <g id="line2d_32">
    <path d="M 127.549195 295.898862 
L 227.840192 295.898862 
" clip-path="url(#p7d35272b98)" style="fill: none; stroke: #000000; stroke-width: 1.5; stroke-linecap: square"/>
   </g>
   <g id="line2d_33">
    <path d="M 177.694694 295.898862 
L 177.694694 173.123271 
" clip-path="url(#p7d35272b98)" style="fill: none; stroke: #000000; stroke-width: 1.5; stroke-linecap: square"/>
   </g>
   <g id="line2d_34">
    <path d="M 127.549195 234.511066 
L 227.840192 234.511066 
" clip-path="url(#p7d35272b98)" style="fill: none; stroke: #000000; stroke-width: 1.5; stroke-linecap: square"/>
   </g>
   <g id="line2d_35">
    <path d="M 227.840192 295.898862 
L 227.840192 173.123271 
" clip-path="url(#p7d35272b98)" style="fill: none; stroke: #000000; stroke-width: 1.5; stroke-linecap: square"/>
   </g>
   <g id="line2d_36">
    <path d="M 127.549195 173.123271 
L 227.840192 173.123271 
" clip-path="url(#p7d35272b98)" style="fill: none; stroke: #000000; stroke-width: 1.5; stroke-linecap: square"/>
   </g>
   <g id="patch_28">
    <path d="M 127.549195 295.898862 
L 127.549195 173.123271 
" style="fill: none; stroke: #000000; stroke-width: 0.8; stroke-linejoin: miter; stroke-linecap: square"/>
   </g>
   <g id="patch_29">
    <path d="M 227.840192 295.898862 
L 227.840192 173.123271 
" style="fill: none; stroke: #000000; stroke-width: 0.8; stroke-linejoin: miter; stroke-linecap: square"/>
   </g>
   <g id="patch_30">
    <path d="M 127.549195 295.898862 
L 227.840192 295.898862 
" style="fill: none; stroke: #000000; stroke-width: 0.8; stroke-linejoin: miter; stroke-linecap: square"/>
   </g>
   <g id="patch_31">
    <path d="M 127.549195 173.123271 
L 227.840192 173.123271 
" style="fill: none; stroke: #000000; stroke-width: 0.8; stroke-linejoin: miter; stroke-linecap: square"/>
   </g>
   <g id="text_28">
    <text style="fill: #ffffff; font: 7px 'Arial'; text-anchor: start" x="133.817383" y="265.204964" transform="rotate(-0 133.817383 265.204964)">1.0</text>
   </g>
   <g id="text_29">
    <text style="font: 7px 'Arial'; text-anchor: start" x="133.817383" y="203.817169" transform="rotate(-0 133.817383 203.817169)">0.0</text>
   </g>
   <g id="text_30">
    <text style="font: 7px 'Arial'; text-anchor: start" x="183.962881" y="265.204964" transform="rotate(-0 183.962881 265.204964)">0.0</text>
   </g>
   <g id="text_31">
    <text style="fill: #ffffff; font: 7px 'Arial'; text-anchor: start" x="183.962881" y="203.817169" transform="rotate(-0 183.962881 203.817169)">1.0</text>
   </g>
  </g>
  <g id="axes_7">
   <g id="patch_32">
    <path d="M 247.898391 295.898862 
L 348.189387 295.898862 
L 348.189387 173.123271 
L 247.898391 173.123271 
z
" style="fill: #ffffff"/>
   </g>
   <g id="PolyCollection_25">
    <defs>
     <path id="m6e1740ad7d" d="M 247.898391 -79.377795 
L 247.898391 -17.99 
L 298.043889 -17.99 
L 298.043889 -79.377795 
L 298.043889 -79.377795 
L 247.898391 -79.377795 
z
" style="stroke: #000000"/>
    </defs>
    <g clip-path="url(#pb2fe1285c5)">
     <use xlink:href="#m6e1740ad7d" x="0" y="313.888862" style="stroke: #000000"/>
    </g>
   </g>
   <g id="PolyCollection_26">
    <defs>
     <path id="mbb318b190f" d="M 247.898391 -140.765591 
L 247.898391 -79.377795 
L 298.043889 -79.377795 
L 298.043889 -140.765591 
L 298.043889 -140.765591 
L 247.898391 -140.765591 
z
" style="stroke: #ffffff"/>
    </defs>
    <g clip-path="url(#pb2fe1285c5)">
     <use xlink:href="#mbb318b190f" x="0" y="313.888862" style="fill: #ffffff; stroke: #ffffff"/>
    </g>
   </g>
   <g id="PolyCollection_27">
    <defs>
     <path id="m2588f1d443" d="M 298.043889 -79.377795 
L 298.043889 -17.99 
L 348.189387 -17.99 
L 348.189387 -79.377795 
L 348.189387 -79.377795 
L 298.043889 -79.377795 
z
" style="stroke: #ffffff"/>
    </defs>
    <g clip-path="url(#pb2fe1285c5)">
     <use xlink:href="#m2588f1d443" x="0" y="313.888862" style="fill: #ffffff; stroke: #ffffff"/>
    </g>
   </g>
   <g id="PolyCollection_28">
    <defs>
     <path id="m7213ef53fd" d="M 298.043889 -140.765591 
L 298.043889 -79.377795 
L 348.189387 -79.377795 
L 348.189387 -140.765591 
L 348.189387 -140.765591 
L 298.043889 -140.765591 
z
" style="stroke: #000000"/>
    </defs>
    <g clip-path="url(#pb2fe1285c5)">
     <use xlink:href="#m7213ef53fd" x="0" y="313.888862" style="stroke: #000000"/>
    </g>
   </g>
   <g id="matplotlib.axis_13">
    <g id="text_32">
     <!-- Forecasting time $30$ $s$ -->
     <g transform="translate(263.918889 305.148862)">
      <text>
       <tspan style="font: 7px 'Arial'" x="0 4.275879 8.168945 10.5 14.393066 17.893066 21.786133 25.286133 27.230957 28.786133 32.679199 36.572266 38.51709 40.461914 42.01709 47.848145 51.741211 62.593262" y="-0.796875">Forecasting time  </tspan>
       <tspan style="font: 7px 'DejaVu Sans'" x="53.686035 58.139648" y="-0.796875">30</tspan>
       <tspan style="font: oblique 7px 'DejaVu Sans'" x="64.538086" y="-0.796875">s</tspan>
      </text>
     </g>
    </g>
   </g>
   <g id="matplotlib.axis_14">
    <g id="ytick_1">
     <g id="line2d_37">
      <defs>
       <path id="m5a05096e2c" d="M 0 0 
L 3.5 0 
" style="stroke: #000000; stroke-width: 0.8"/>
      </defs>
      <g>
       <use xlink:href="#m5a05096e2c" x="348.189387" y="265.204964" style="stroke: #000000; stroke-width: 0.8"/>
      </g>
     </g>
     <g id="text_33">
      <text style="font: 7px 'Arial'; text-anchor: start" x="355.189387" y="267.710198" transform="rotate(-0 355.189387 267.710198)">GRU Att 4</text>
     </g>
    </g>
    <g id="ytick_2">
     <g id="line2d_38">
      <g>
       <use xlink:href="#m5a05096e2c" x="348.189387" y="203.817169" style="stroke: #000000; stroke-width: 0.8"/>
      </g>
     </g>
     <g id="text_34">
      <text style="font: 7px 'Arial'; text-anchor: start" x="355.189387" y="206.322403" transform="rotate(-0 355.189387 206.322403)">UniTS</text>
     </g>
    </g>
   </g>
   <g id="line2d_39">
    <path d="M 247.898391 295.898862 
L 247.898391 173.123271 
" clip-path="url(#pb2fe1285c5)" style="fill: none; stroke: #000000; stroke-width: 1.5; stroke-linecap: square"/>
   </g>
   <g id="line2d_40">
    <path d="M 247.898391 295.898862 
L 348.189387 295.898862 
" clip-path="url(#pb2fe1285c5)" style="fill: none; stroke: #000000; stroke-width: 1.5; stroke-linecap: square"/>
   </g>
   <g id="line2d_41">
    <path d="M 298.043889 295.898862 
L 298.043889 173.123271 
" clip-path="url(#pb2fe1285c5)" style="fill: none; stroke: #000000; stroke-width: 1.5; stroke-linecap: square"/>
   </g>
   <g id="line2d_42">
    <path d="M 247.898391 234.511066 
L 348.189387 234.511066 
" clip-path="url(#pb2fe1285c5)" style="fill: none; stroke: #000000; stroke-width: 1.5; stroke-linecap: square"/>
   </g>
   <g id="line2d_43">
    <path d="M 348.189387 295.898862 
L 348.189387 173.123271 
" clip-path="url(#pb2fe1285c5)" style="fill: none; stroke: #000000; stroke-width: 1.5; stroke-linecap: square"/>
   </g>
   <g id="line2d_44">
    <path d="M 247.898391 173.123271 
L 348.189387 173.123271 
" clip-path="url(#pb2fe1285c5)" style="fill: none; stroke: #000000; stroke-width: 1.5; stroke-linecap: square"/>
   </g>
   <g id="patch_33">
    <path d="M 247.898391 295.898862 
L 247.898391 173.123271 
" style="fill: none; stroke: #000000; stroke-width: 0.8; stroke-linejoin: miter; stroke-linecap: square"/>
   </g>
   <g id="patch_34">
    <path d="M 348.189387 295.898862 
L 348.189387 173.123271 
" style="fill: none; stroke: #000000; stroke-width: 0.8; stroke-linejoin: miter; stroke-linecap: square"/>
   </g>
   <g id="patch_35">
    <path d="M 247.898391 295.898862 
L 348.189387 295.898862 
" style="fill: none; stroke: #000000; stroke-width: 0.8; stroke-linejoin: miter; stroke-linecap: square"/>
   </g>
   <g id="patch_36">
    <path d="M 247.898391 173.123271 
L 348.189387 173.123271 
" style="fill: none; stroke: #000000; stroke-width: 0.8; stroke-linejoin: miter; stroke-linecap: square"/>
   </g>
   <g id="text_35">
    <text style="fill: #ffffff; font: 7px 'Arial'; text-anchor: start" x="254.166578" y="265.204964" transform="rotate(-0 254.166578 265.204964)">1.0</text>
   </g>
   <g id="text_36">
    <text style="font: 7px 'Arial'; text-anchor: start" x="254.166578" y="203.817169" transform="rotate(-0 254.166578 203.817169)">0.0</text>
   </g>
   <g id="text_37">
    <text style="font: 7px 'Arial'; text-anchor: start" x="304.312076" y="265.204964" transform="rotate(-0 304.312076 265.204964)">0.0</text>
   </g>
   <g id="text_38">
    <text style="fill: #ffffff; font: 7px 'Arial'; text-anchor: start" x="304.312076" y="203.817169" transform="rotate(-0 304.312076 203.817169)">1.0</text>
   </g>
  </g>
 </g>
 <defs>
  <clipPath id="p4fedd20f3b">
   <rect x="7.2" y="25.792562" width="100.290996" height="122.775591"/>
  </clipPath>
  <clipPath id="p9b3f3b069f">
   <rect x="127.549195" y="25.792562" width="100.290996" height="122.775591"/>
  </clipPath>
  <clipPath id="p98ae6f4902">
   <rect x="247.898391" y="25.792562" width="100.290996" height="122.775591"/>
  </clipPath>
  <clipPath id="p7496392123">
   <rect x="368.247586" y="25.792562" width="100.290996" height="122.775591"/>
  </clipPath>
  <clipPath id="pe6d52a3cbe">
   <rect x="7.2" y="173.123271" width="100.290996" height="122.775591"/>
  </clipPath>
  <clipPath id="p7d35272b98">
   <rect x="127.549195" y="173.123271" width="100.290996" height="122.775591"/>
  </clipPath>
  <clipPath id="pb2fe1285c5">
   <rect x="247.898391" y="173.123271" width="100.290996" height="122.775591"/>
  </clipPath>
 </defs>
</svg>
