<?xml version="1.0" encoding="utf-8" standalone="no"?>
<!DOCTYPE svg PUBLIC "-//W3C//DTD SVG 1.1//EN"
  "http://www.w3.org/Graphics/SVG/1.1/DTD/svg11.dtd">
<svg xmlns:xlink="http://www.w3.org/1999/xlink" width="475.738583pt" height="313.792612pt" viewBox="0 0 475.738583 313.792612" xmlns="http://www.w3.org/2000/svg" version="1.1">
 <metadata>
  <rdf:RDF xmlns:dc="http://purl.org/dc/elements/1.1/" xmlns:cc="http://creativecommons.org/ns#" xmlns:rdf="http://www.w3.org/1999/02/22-rdf-syntax-ns#">
   <cc:Work>
    <dc:type rdf:resource="http://purl.org/dc/dcmitype/StillImage"/>
    <dc:date>2024-10-28T16:23:32.047132</dc:date>
    <dc:format>image/svg+xml</dc:format>
    <dc:creator>
     <cc:Agent>
      <dc:title>Matplotlib v3.7.0, https://matplotlib.org/</dc:title>
     </cc:Agent>
    </dc:creator>
   </cc:Work>
  </rdf:RDF>
 </metadata>
 <defs>
  <style type="text/css">*{stroke-linejoin: round; stroke-linecap: butt}</style>
 </defs>
 <g id="figure_1">
  <g id="patch_1">
   <path d="M 0 313.792612 
L 475.738583 313.792612 
L 475.738583 0 
L 0 0 
z
" style="fill: #ffffff"/>
  </g>
  <g id="axes_1">
   <g id="patch_2">
    <path d="M 7.2 148.471903 
L 107.490996 148.471903 
L 107.490996 25.696312 
L 7.2 25.696312 
z
" style="fill: #ffffff"/>
   </g>
   <g id="PolyCollection_1">
    <defs>
     <path id="mc4c7b7ded5" d="M 7.2 -226.708504 
L 7.2 -165.320709 
L 57.345498 -165.320709 
L 57.345498 -226.708504 
L 57.345498 -226.708504 
L 7.2 -226.708504 
z
" style="stroke: #000000"/>
    </defs>
    <g clip-path="url(#pf762ef1f43)">
     <use xlink:href="#mc4c7b7ded5" x="0" y="313.792612" style="stroke: #000000"/>
    </g>
   </g>
   <g id="PolyCollection_2">
    <defs>
     <path id="md358ec1159" d="M 7.2 -288.096299 
L 7.2 -226.708504 
L 57.345498 -226.708504 
L 57.345498 -288.096299 
L 57.345498 -288.096299 
L 7.2 -288.096299 
z
" style="stroke: #ffffff"/>
    </defs>
    <g clip-path="url(#pf762ef1f43)">
     <use xlink:href="#md358ec1159" x="0" y="313.792612" style="fill: #ffffff; stroke: #ffffff"/>
    </g>
   </g>
   <g id="PolyCollection_3">
    <defs>
     <path id="mb0dc3ad4c0" d="M 57.345498 -226.708504 
L 57.345498 -165.320709 
L 107.490996 -165.320709 
L 107.490996 -226.708504 
L 107.490996 -226.708504 
L 57.345498 -226.708504 
z
" style="stroke: #ffffff"/>
    </defs>
    <g clip-path="url(#pf762ef1f43)">
     <use xlink:href="#mb0dc3ad4c0" x="0" y="313.792612" style="fill: #ffffff; stroke: #ffffff"/>
    </g>
   </g>
   <g id="PolyCollection_4">
    <defs>
     <path id="mb1f1725db2" d="M 57.345498 -288.096299 
L 57.345498 -226.708504 
L 107.490996 -226.708504 
L 107.490996 -288.096299 
L 107.490996 -288.096299 
L 57.345498 -288.096299 
z
" style="stroke: #000000"/>
    </defs>
    <g clip-path="url(#pf762ef1f43)">
     <use xlink:href="#mb1f1725db2" x="0" y="313.792612" style="stroke: #000000"/>
    </g>
   </g>
   <g id="matplotlib.axis_1">
    <g id="text_1">
     <!-- Forecasting time $2$ $s$ -->
     <g transform="translate(25.460498 157.721903)">
      <text>
       <tspan style="font: 7px 'Arial'" x="0 4.275879 8.168945 10.5 14.393066 17.893066 21.786133 25.286133 27.230957 28.786133 32.679199 36.572266 38.51709 40.461914 42.01709 47.848145 51.741211 58.139648" y="-0.796875">Forecasting time  </tspan>
       <tspan style="font: 7px 'DejaVu Sans'" x="53.686035" y="-0.796875">2</tspan>
       <tspan style="font: oblique 7px 'DejaVu Sans'" x="60.084473" y="-0.796875">s</tspan>
      </text>
     </g>
    </g>
   </g>
   <g id="matplotlib.axis_2"/>
   <g id="line2d_1">
    <path d="M 7.2 148.471903 
L 7.2 25.696312 
" clip-path="url(#pf762ef1f43)" style="fill: none; stroke: #000000; stroke-width: 1.5; stroke-linecap: square"/>
   </g>
   <g id="line2d_2">
    <path d="M 7.2 148.471903 
L 107.490996 148.471903 
" clip-path="url(#pf762ef1f43)" style="fill: none; stroke: #000000; stroke-width: 1.5; stroke-linecap: square"/>
   </g>
   <g id="line2d_3">
    <path d="M 57.345498 148.471903 
L 57.345498 25.696312 
" clip-path="url(#pf762ef1f43)" style="fill: none; stroke: #000000; stroke-width: 1.5; stroke-linecap: square"/>
   </g>
   <g id="line2d_4">
    <path d="M 7.2 87.084108 
L 107.490996 87.084108 
" clip-path="url(#pf762ef1f43)" style="fill: none; stroke: #000000; stroke-width: 1.5; stroke-linecap: square"/>
   </g>
   <g id="line2d_5">
    <path d="M 107.490996 148.471903 
L 107.490996 25.696312 
" clip-path="url(#pf762ef1f43)" style="fill: none; stroke: #000000; stroke-width: 1.5; stroke-linecap: square"/>
   </g>
   <g id="line2d_6">
    <path d="M 7.2 25.696312 
L 107.490996 25.696312 
" clip-path="url(#pf762ef1f43)" style="fill: none; stroke: #000000; stroke-width: 1.5; stroke-linecap: square"/>
   </g>
   <g id="patch_3">
    <path d="M 7.2 148.471903 
L 7.2 25.696312 
" style="fill: none; stroke: #000000; stroke-width: 0.8; stroke-linejoin: miter; stroke-linecap: square"/>
   </g>
   <g id="patch_4">
    <path d="M 107.490996 148.471903 
L 107.490996 25.696312 
" style="fill: none; stroke: #000000; stroke-width: 0.8; stroke-linejoin: miter; stroke-linecap: square"/>
   </g>
   <g id="patch_5">
    <path d="M 7.2 148.471903 
L 107.490996 148.471903 
" style="fill: none; stroke: #000000; stroke-width: 0.8; stroke-linejoin: miter; stroke-linecap: square"/>
   </g>
   <g id="patch_6">
    <path d="M 7.2 25.696312 
L 107.490996 25.696312 
" style="fill: none; stroke: #000000; stroke-width: 0.8; stroke-linejoin: miter; stroke-linecap: square"/>
   </g>
   <g id="text_2">
    <text style="fill: #ffffff; font: 7px 'Arial'; text-anchor: start" x="10.334094" y="117.778005" transform="rotate(-0 10.334094 117.778005)">1.0</text>
   </g>
   <g id="text_3">
    <!-- $1.416$ -->
    <g transform="translate(10.334094 48.85646)">
     <text>
      <tspan style="font: 7px 'DejaVu Sans'" x="0 4.453613 6.678711 11.132324 15.585938" y="-0.796875">1.416</tspan>
     </text>
    </g>
    <!-- $\times 10^{-9}$ -->
    <g transform="translate(10.334094 56.39021)">
     <text>
      <tspan style="font: 7px 'DejaVu Sans'" x="0 5.865234 10.318848" y="-0.6781249999999996">×10</tspan>
      <tspan style="font: 4.9px 'DejaVu Sans'" x="14.839453 18.945117" y="-3.3578124999999996">−9</tspan>
     </text>
    </g>
   </g>
   <g id="text_4">
    <!-- $1.416$ -->
    <g transform="translate(60.479592 110.244255)">
     <text>
      <tspan style="font: 7px 'DejaVu Sans'" x="0 4.453613 6.678711 11.132324 15.585938" y="-0.796875">1.416</tspan>
     </text>
    </g>
    <!-- $\times 10^{-9}$ -->
    <g transform="translate(60.479592 117.778005)">
     <text>
      <tspan style="font: 7px 'DejaVu Sans'" x="0 5.865234 10.318848" y="-0.6781249999999996">×10</tspan>
      <tspan style="font: 4.9px 'DejaVu Sans'" x="14.839453 18.945117" y="-3.3578124999999996">−9</tspan>
     </text>
    </g>
   </g>
   <g id="text_5">
    <text style="fill: #ffffff; font: 7px 'Arial'; text-anchor: start" x="60.479592" y="56.39021" transform="rotate(-0 60.479592 56.39021)">1.0</text>
   </g>
  </g>
  <g id="axes_2">
   <g id="patch_7">
    <path d="M 127.549195 148.471903 
L 227.840192 148.471903 
L 227.840192 25.696312 
L 127.549195 25.696312 
z
" style="fill: #ffffff"/>
   </g>
   <g id="PolyCollection_5">
    <defs>
     <path id="m32109235ca" d="M 127.549195 -226.708504 
L 127.549195 -165.320709 
L 177.694694 -165.320709 
L 177.694694 -226.708504 
L 177.694694 -226.708504 
L 127.549195 -226.708504 
z
" style="stroke: #000000"/>
    </defs>
    <g clip-path="url(#p413a63447c)">
     <use xlink:href="#m32109235ca" x="0" y="313.792612" style="stroke: #000000"/>
    </g>
   </g>
   <g id="PolyCollection_6">
    <defs>
     <path id="mff41430eef" d="M 127.549195 -288.096299 
L 127.549195 -226.708504 
L 177.694694 -226.708504 
L 177.694694 -288.096299 
L 177.694694 -288.096299 
L 127.549195 -288.096299 
z
" style="stroke: #ffffff"/>
    </defs>
    <g clip-path="url(#p413a63447c)">
     <use xlink:href="#mff41430eef" x="0" y="313.792612" style="fill: #ffffff; stroke: #ffffff"/>
    </g>
   </g>
   <g id="PolyCollection_7">
    <defs>
     <path id="mf2031a5610" d="M 177.694694 -226.708504 
L 177.694694 -165.320709 
L 227.840192 -165.320709 
L 227.840192 -226.708504 
L 227.840192 -226.708504 
L 177.694694 -226.708504 
z
" style="stroke: #ffffff"/>
    </defs>
    <g clip-path="url(#p413a63447c)">
     <use xlink:href="#mf2031a5610" x="0" y="313.792612" style="fill: #ffffff; stroke: #ffffff"/>
    </g>
   </g>
   <g id="PolyCollection_8">
    <defs>
     <path id="m9a1e452c41" d="M 177.694694 -288.096299 
L 177.694694 -226.708504 
L 227.840192 -226.708504 
L 227.840192 -288.096299 
L 227.840192 -288.096299 
L 177.694694 -288.096299 
z
" style="stroke: #000000"/>
    </defs>
    <g clip-path="url(#p413a63447c)">
     <use xlink:href="#m9a1e452c41" x="0" y="313.792612" style="stroke: #000000"/>
    </g>
   </g>
   <g id="matplotlib.axis_3">
    <g id="text_6">
     <!-- Forecasting time $3$ $s$ -->
     <g transform="translate(145.809694 157.721903)">
      <text>
       <tspan style="font: 7px 'Arial'" x="0 4.275879 8.168945 10.5 14.393066 17.893066 21.786133 25.286133 27.230957 28.786133 32.679199 36.572266 38.51709 40.461914 42.01709 47.848145 51.741211 58.139648" y="-0.796875">Forecasting time  </tspan>
       <tspan style="font: 7px 'DejaVu Sans'" x="53.686035" y="-0.796875">3</tspan>
       <tspan style="font: oblique 7px 'DejaVu Sans'" x="60.084473" y="-0.796875">s</tspan>
      </text>
     </g>
    </g>
   </g>
   <g id="matplotlib.axis_4"/>
   <g id="line2d_7">
    <path d="M 127.549195 148.471903 
L 127.549195 25.696312 
" clip-path="url(#p413a63447c)" style="fill: none; stroke: #000000; stroke-width: 1.5; stroke-linecap: square"/>
   </g>
   <g id="line2d_8">
    <path d="M 127.549195 148.471903 
L 227.840192 148.471903 
" clip-path="url(#p413a63447c)" style="fill: none; stroke: #000000; stroke-width: 1.5; stroke-linecap: square"/>
   </g>
   <g id="line2d_9">
    <path d="M 177.694694 148.471903 
L 177.694694 25.696312 
" clip-path="url(#p413a63447c)" style="fill: none; stroke: #000000; stroke-width: 1.5; stroke-linecap: square"/>
   </g>
   <g id="line2d_10">
    <path d="M 127.549195 87.084108 
L 227.840192 87.084108 
" clip-path="url(#p413a63447c)" style="fill: none; stroke: #000000; stroke-width: 1.5; stroke-linecap: square"/>
   </g>
   <g id="line2d_11">
    <path d="M 227.840192 148.471903 
L 227.840192 25.696312 
" clip-path="url(#p413a63447c)" style="fill: none; stroke: #000000; stroke-width: 1.5; stroke-linecap: square"/>
   </g>
   <g id="line2d_12">
    <path d="M 127.549195 25.696312 
L 227.840192 25.696312 
" clip-path="url(#p413a63447c)" style="fill: none; stroke: #000000; stroke-width: 1.5; stroke-linecap: square"/>
   </g>
   <g id="patch_8">
    <path d="M 127.549195 148.471903 
L 127.549195 25.696312 
" style="fill: none; stroke: #000000; stroke-width: 0.8; stroke-linejoin: miter; stroke-linecap: square"/>
   </g>
   <g id="patch_9">
    <path d="M 227.840192 148.471903 
L 227.840192 25.696312 
" style="fill: none; stroke: #000000; stroke-width: 0.8; stroke-linejoin: miter; stroke-linecap: square"/>
   </g>
   <g id="patch_10">
    <path d="M 127.549195 148.471903 
L 227.840192 148.471903 
" style="fill: none; stroke: #000000; stroke-width: 0.8; stroke-linejoin: miter; stroke-linecap: square"/>
   </g>
   <g id="patch_11">
    <path d="M 127.549195 25.696312 
L 227.840192 25.696312 
" style="fill: none; stroke: #000000; stroke-width: 0.8; stroke-linejoin: miter; stroke-linecap: square"/>
   </g>
   <g id="text_7">
    <text style="fill: #ffffff; font: 7px 'Arial'; text-anchor: start" x="130.683289" y="117.778005" transform="rotate(-0 130.683289 117.778005)">1.0</text>
   </g>
   <g id="text_8">
    <!-- $1.059$ -->
    <g transform="translate(130.683289 48.94046)">
     <text>
      <tspan style="font: 7px 'DejaVu Sans'" x="0 4.453613 6.678711 11.132324 15.210938" y="-0.796875">1.059</tspan>
     </text>
    </g>
    <!-- $\times 10^{-7}$ -->
    <g transform="translate(130.683289 56.39021)">
     <text>
      <tspan style="font: 7px 'DejaVu Sans'" x="0 5.865234 10.318848" y="-0.7437500000000004">×10</tspan>
      <tspan style="font: 4.9px 'DejaVu Sans'" x="14.839453 18.945117" y="-3.4234375000000004">−7</tspan>
     </text>
    </g>
   </g>
   <g id="text_9">
    <!-- $1.059$ -->
    <g transform="translate(180.828787 110.328255)">
     <text>
      <tspan style="font: 7px 'DejaVu Sans'" x="0 4.453613 6.678711 11.132324 15.210938" y="-0.796875">1.059</tspan>
     </text>
    </g>
    <!-- $\times 10^{-7}$ -->
    <g transform="translate(180.828787 117.778005)">
     <text>
      <tspan style="font: 7px 'DejaVu Sans'" x="0 5.865234 10.318848" y="-0.7437500000000004">×10</tspan>
      <tspan style="font: 4.9px 'DejaVu Sans'" x="14.839453 18.945117" y="-3.4234375000000004">−7</tspan>
     </text>
    </g>
   </g>
   <g id="text_10">
    <text style="fill: #ffffff; font: 7px 'Arial'; text-anchor: start" x="180.828787" y="56.39021" transform="rotate(-0 180.828787 56.39021)">1.0</text>
   </g>
   <g id="text_11">
    <text style="font: 7px 'Arial'" transform="translate(164.65774 12.210469)">Heading</text>
    <text style="font: 7px 'Arial'" transform="translate(170.110084 19.696312)">MSE</text>
   </g>
  </g>
  <g id="axes_3">
   <g id="patch_12">
    <path d="M 247.898391 148.471903 
L 348.189387 148.471903 
L 348.189387 25.696312 
L 247.898391 25.696312 
z
" style="fill: #ffffff"/>
   </g>
   <g id="PolyCollection_9">
    <defs>
     <path id="mea835fed61" d="M 247.898391 -226.708504 
L 247.898391 -165.320709 
L 298.043889 -165.320709 
L 298.043889 -226.708504 
L 298.043889 -226.708504 
L 247.898391 -226.708504 
z
" style="stroke: #000000"/>
    </defs>
    <g clip-path="url(#pe5b69733ac)">
     <use xlink:href="#mea835fed61" x="0" y="313.792612" style="stroke: #000000"/>
    </g>
   </g>
   <g id="PolyCollection_10">
    <defs>
     <path id="m8a77e5f80f" d="M 247.898391 -288.096299 
L 247.898391 -226.708504 
L 298.043889 -226.708504 
L 298.043889 -288.096299 
L 298.043889 -288.096299 
L 247.898391 -288.096299 
z
" style="stroke: #fafafa"/>
    </defs>
    <g clip-path="url(#pe5b69733ac)">
     <use xlink:href="#m8a77e5f80f" x="0" y="313.792612" style="fill: #fafafa; stroke: #fafafa"/>
    </g>
   </g>
   <g id="PolyCollection_11">
    <defs>
     <path id="m95aa229152" d="M 298.043889 -226.708504 
L 298.043889 -165.320709 
L 348.189387 -165.320709 
L 348.189387 -226.708504 
L 348.189387 -226.708504 
L 298.043889 -226.708504 
z
" style="stroke: #fafafa"/>
    </defs>
    <g clip-path="url(#pe5b69733ac)">
     <use xlink:href="#m95aa229152" x="0" y="313.792612" style="fill: #fafafa; stroke: #fafafa"/>
    </g>
   </g>
   <g id="PolyCollection_12">
    <defs>
     <path id="mb2b3922e4e" d="M 298.043889 -288.096299 
L 298.043889 -226.708504 
L 348.189387 -226.708504 
L 348.189387 -288.096299 
L 348.189387 -288.096299 
L 298.043889 -288.096299 
z
" style="stroke: #000000"/>
    </defs>
    <g clip-path="url(#pe5b69733ac)">
     <use xlink:href="#mb2b3922e4e" x="0" y="313.792612" style="stroke: #000000"/>
    </g>
   </g>
   <g id="matplotlib.axis_5">
    <g id="text_12">
     <!-- Forecasting time $4$ $s$ -->
     <g transform="translate(266.158889 157.581903)">
      <text>
       <tspan style="font: 7px 'Arial'" x="0 4.275879 8.168945 10.5 14.393066 17.893066 21.786133 25.286133 27.230957 28.786133 32.679199 36.572266 38.51709 40.461914 42.01709 47.848145 51.741211 58.139648" y="-0.890625">Forecasting time  </tspan>
       <tspan style="font: 7px 'DejaVu Sans'" x="53.686035" y="-0.890625">4</tspan>
       <tspan style="font: oblique 7px 'DejaVu Sans'" x="60.084473" y="-0.890625">s</tspan>
      </text>
     </g>
    </g>
   </g>
   <g id="matplotlib.axis_6"/>
   <g id="line2d_13">
    <path d="M 247.898391 148.471903 
L 247.898391 25.696312 
" clip-path="url(#pe5b69733ac)" style="fill: none; stroke: #000000; stroke-width: 1.5; stroke-linecap: square"/>
   </g>
   <g id="line2d_14">
    <path d="M 247.898391 148.471903 
L 348.189387 148.471903 
" clip-path="url(#pe5b69733ac)" style="fill: none; stroke: #000000; stroke-width: 1.5; stroke-linecap: square"/>
   </g>
   <g id="line2d_15">
    <path d="M 298.043889 148.471903 
L 298.043889 25.696312 
" clip-path="url(#pe5b69733ac)" style="fill: none; stroke: #000000; stroke-width: 1.5; stroke-linecap: square"/>
   </g>
   <g id="line2d_16">
    <path d="M 247.898391 87.084108 
L 348.189387 87.084108 
" clip-path="url(#pe5b69733ac)" style="fill: none; stroke: #000000; stroke-width: 1.5; stroke-linecap: square"/>
   </g>
   <g id="line2d_17">
    <path d="M 348.189387 148.471903 
L 348.189387 25.696312 
" clip-path="url(#pe5b69733ac)" style="fill: none; stroke: #000000; stroke-width: 1.5; stroke-linecap: square"/>
   </g>
   <g id="line2d_18">
    <path d="M 247.898391 25.696312 
L 348.189387 25.696312 
" clip-path="url(#pe5b69733ac)" style="fill: none; stroke: #000000; stroke-width: 1.5; stroke-linecap: square"/>
   </g>
   <g id="patch_13">
    <path d="M 247.898391 148.471903 
L 247.898391 25.696312 
" style="fill: none; stroke: #000000; stroke-width: 0.8; stroke-linejoin: miter; stroke-linecap: square"/>
   </g>
   <g id="patch_14">
    <path d="M 348.189387 148.471903 
L 348.189387 25.696312 
" style="fill: none; stroke: #000000; stroke-width: 0.8; stroke-linejoin: miter; stroke-linecap: square"/>
   </g>
   <g id="patch_15">
    <path d="M 247.898391 148.471903 
L 348.189387 148.471903 
" style="fill: none; stroke: #000000; stroke-width: 0.8; stroke-linejoin: miter; stroke-linecap: square"/>
   </g>
   <g id="patch_16">
    <path d="M 247.898391 25.696312 
L 348.189387 25.696312 
" style="fill: none; stroke: #000000; stroke-width: 0.8; stroke-linejoin: miter; stroke-linecap: square"/>
   </g>
   <g id="text_13">
    <text style="fill: #ffffff; font: 7px 'Arial'; text-anchor: start" x="251.032485" y="117.778005" transform="rotate(-0 251.032485 117.778005)">1.0</text>
   </g>
   <g id="text_14">
    <!-- $1.793$ -->
    <g transform="translate(251.032485 48.85646)">
     <text>
      <tspan style="font: 7px 'DejaVu Sans'" x="0 4.453613 6.178711 10.632324 15.085938" y="-0.796875">1.793</tspan>
     </text>
    </g>
    <!-- $\times 10^{-2}$ -->
    <g transform="translate(251.032485 56.39021)">
     <text>
      <tspan style="font: 7px 'DejaVu Sans'" x="0 5.865234 10.318848" y="-0.6781249999999996">×10</tspan>
      <tspan style="font: 4.9px 'DejaVu Sans'" x="14.839453 18.945117" y="-3.3578124999999996">−2</tspan>
     </text>
    </g>
   </g>
   <g id="text_15">
    <!-- $1.793$ -->
    <g transform="translate(301.177983 110.244255)">
     <text>
      <tspan style="font: 7px 'DejaVu Sans'" x="0 4.453613 6.178711 10.632324 15.085938" y="-0.796875">1.793</tspan>
     </text>
    </g>
    <!-- $\times 10^{-2}$ -->
    <g transform="translate(301.177983 117.778005)">
     <text>
      <tspan style="font: 7px 'DejaVu Sans'" x="0 5.865234 10.318848" y="-0.6781249999999996">×10</tspan>
      <tspan style="font: 4.9px 'DejaVu Sans'" x="14.839453 18.945117" y="-3.3578124999999996">−2</tspan>
     </text>
    </g>
   </g>
   <g id="text_16">
    <text style="fill: #ffffff; font: 7px 'Arial'; text-anchor: start" x="301.177983" y="56.39021" transform="rotate(-0 301.177983 56.39021)">1.0</text>
   </g>
  </g>
  <g id="axes_4">
   <g id="patch_17">
    <path d="M 368.247586 148.471903 
L 468.538583 148.471903 
L 468.538583 25.696312 
L 368.247586 25.696312 
z
" style="fill: #ffffff"/>
   </g>
   <g id="PolyCollection_13">
    <defs>
     <path id="m9030ce27b1" d="M 368.247586 -226.708504 
L 368.247586 -165.320709 
L 418.393085 -165.320709 
L 418.393085 -226.708504 
L 418.393085 -226.708504 
L 368.247586 -226.708504 
z
" style="stroke: #000000"/>
    </defs>
    <g clip-path="url(#p7a09bd82cc)">
     <use xlink:href="#m9030ce27b1" x="0" y="313.792612" style="stroke: #000000"/>
    </g>
   </g>
   <g id="PolyCollection_14">
    <defs>
     <path id="m1445b58bee" d="M 368.247586 -288.096299 
L 368.247586 -226.708504 
L 418.393085 -226.708504 
L 418.393085 -288.096299 
L 418.393085 -288.096299 
L 368.247586 -288.096299 
z
" style="stroke: #888888"/>
    </defs>
    <g clip-path="url(#p7a09bd82cc)">
     <use xlink:href="#m1445b58bee" x="0" y="313.792612" style="fill: #888888; stroke: #888888"/>
    </g>
   </g>
   <g id="PolyCollection_15">
    <defs>
     <path id="m7a03c5ecd0" d="M 418.393085 -226.708504 
L 418.393085 -165.320709 
L 468.538583 -165.320709 
L 468.538583 -226.708504 
L 468.538583 -226.708504 
L 418.393085 -226.708504 
z
" style="stroke: #888888"/>
    </defs>
    <g clip-path="url(#p7a09bd82cc)">
     <use xlink:href="#m7a03c5ecd0" x="0" y="313.792612" style="fill: #888888; stroke: #888888"/>
    </g>
   </g>
   <g id="PolyCollection_16">
    <defs>
     <path id="m1fc686d739" d="M 418.393085 -288.096299 
L 418.393085 -226.708504 
L 468.538583 -226.708504 
L 468.538583 -288.096299 
L 468.538583 -288.096299 
L 418.393085 -288.096299 
z
" style="stroke: #000000"/>
    </defs>
    <g clip-path="url(#p7a09bd82cc)">
     <use xlink:href="#m1fc686d739" x="0" y="313.792612" style="stroke: #000000"/>
    </g>
   </g>
   <g id="matplotlib.axis_7">
    <g id="text_17">
     <!-- Forecasting time $5$ $s$ -->
     <g transform="translate(386.508085 157.581903)">
      <text>
       <tspan style="font: 7px 'Arial'" x="0 4.275879 8.168945 10.5 14.393066 17.893066 21.786133 25.286133 27.230957 28.786133 32.679199 36.572266 38.51709 40.461914 42.01709 47.848145 51.741211 58.139648" y="-0.890625">Forecasting time  </tspan>
       <tspan style="font: 7px 'DejaVu Sans'" x="53.686035" y="-0.890625">5</tspan>
       <tspan style="font: oblique 7px 'DejaVu Sans'" x="60.084473" y="-0.890625">s</tspan>
      </text>
     </g>
    </g>
   </g>
   <g id="matplotlib.axis_8"/>
   <g id="line2d_19">
    <path d="M 368.247586 148.471903 
L 368.247586 25.696312 
" clip-path="url(#p7a09bd82cc)" style="fill: none; stroke: #000000; stroke-width: 1.5; stroke-linecap: square"/>
   </g>
   <g id="line2d_20">
    <path d="M 368.247586 148.471903 
L 468.538583 148.471903 
" clip-path="url(#p7a09bd82cc)" style="fill: none; stroke: #000000; stroke-width: 1.5; stroke-linecap: square"/>
   </g>
   <g id="line2d_21">
    <path d="M 418.393085 148.471903 
L 418.393085 25.696312 
" clip-path="url(#p7a09bd82cc)" style="fill: none; stroke: #000000; stroke-width: 1.5; stroke-linecap: square"/>
   </g>
   <g id="line2d_22">
    <path d="M 368.247586 87.084108 
L 468.538583 87.084108 
" clip-path="url(#p7a09bd82cc)" style="fill: none; stroke: #000000; stroke-width: 1.5; stroke-linecap: square"/>
   </g>
   <g id="line2d_23">
    <path d="M 468.538583 148.471903 
L 468.538583 25.696312 
" clip-path="url(#p7a09bd82cc)" style="fill: none; stroke: #000000; stroke-width: 1.5; stroke-linecap: square"/>
   </g>
   <g id="line2d_24">
    <path d="M 368.247586 25.696312 
L 468.538583 25.696312 
" clip-path="url(#p7a09bd82cc)" style="fill: none; stroke: #000000; stroke-width: 1.5; stroke-linecap: square"/>
   </g>
   <g id="patch_18">
    <path d="M 368.247586 148.471903 
L 368.247586 25.696312 
" style="fill: none; stroke: #000000; stroke-width: 0.8; stroke-linejoin: miter; stroke-linecap: square"/>
   </g>
   <g id="patch_19">
    <path d="M 468.538583 148.471903 
L 468.538583 25.696312 
" style="fill: none; stroke: #000000; stroke-width: 0.8; stroke-linejoin: miter; stroke-linecap: square"/>
   </g>
   <g id="patch_20">
    <path d="M 368.247586 148.471903 
L 468.538583 148.471903 
" style="fill: none; stroke: #000000; stroke-width: 0.8; stroke-linejoin: miter; stroke-linecap: square"/>
   </g>
   <g id="patch_21">
    <path d="M 368.247586 25.696312 
L 468.538583 25.696312 
" style="fill: none; stroke: #000000; stroke-width: 0.8; stroke-linejoin: miter; stroke-linecap: square"/>
   </g>
   <g id="text_18">
    <text style="fill: #ffffff; font: 7px 'Arial'; text-anchor: start" x="371.38168" y="117.778005" transform="rotate(-0 371.38168 117.778005)">1.0</text>
   </g>
   <g id="text_19">
    <!-- $9.69$ -->
    <g style="fill: #ffffff" transform="translate(371.38168 48.94046)">
     <text>
      <tspan style="font: 7px 'DejaVu Sans'" x="0 4.453613 6.678711 11.132324" y="-0.796875">9.69</tspan>
     </text>
    </g>
    <!-- $\times 10^{-1}$ -->
    <g style="fill: #ffffff" transform="translate(371.38168 56.39021)">
     <text>
      <tspan style="font: 7px 'DejaVu Sans'" x="0 5.865234 10.318848" y="-0.7437500000000004">×10</tspan>
      <tspan style="font: 4.9px 'DejaVu Sans'" x="14.839453 18.945117" y="-3.4234375000000004">−1</tspan>
     </text>
    </g>
   </g>
   <g id="text_20">
    <!-- $9.69$ -->
    <g style="fill: #ffffff" transform="translate(421.527178 110.328255)">
     <text>
      <tspan style="font: 7px 'DejaVu Sans'" x="0 4.453613 6.678711 11.132324" y="-0.796875">9.69</tspan>
     </text>
    </g>
    <!-- $\times 10^{-1}$ -->
    <g style="fill: #ffffff" transform="translate(421.527178 117.778005)">
     <text>
      <tspan style="font: 7px 'DejaVu Sans'" x="0 5.865234 10.318848" y="-0.7437500000000004">×10</tspan>
      <tspan style="font: 4.9px 'DejaVu Sans'" x="14.839453 18.945117" y="-3.4234375000000004">−1</tspan>
     </text>
    </g>
   </g>
   <g id="text_21">
    <text style="fill: #ffffff; font: 7px 'Arial'; text-anchor: start" x="421.527178" y="56.39021" transform="rotate(-0 421.527178 56.39021)">1.0</text>
   </g>
  </g>
  <g id="axes_5">
   <g id="patch_22">
    <path d="M 7.2 295.802612 
L 107.490996 295.802612 
L 107.490996 173.027021 
L 7.2 173.027021 
z
" style="fill: #ffffff"/>
   </g>
   <g id="PolyCollection_17">
    <defs>
     <path id="m3bef5715e3" d="M 7.2 -79.377795 
L 7.2 -17.99 
L 57.345498 -17.99 
L 57.345498 -79.377795 
L 57.345498 -79.377795 
L 7.2 -79.377795 
z
" style="stroke: #000000"/>
    </defs>
    <g clip-path="url(#pe19d008b3c)">
     <use xlink:href="#m3bef5715e3" x="0" y="313.792612" style="stroke: #000000"/>
    </g>
   </g>
   <g id="PolyCollection_18">
    <defs>
     <path id="mb42fe32800" d="M 7.2 -140.765591 
L 7.2 -79.377795 
L 57.345498 -79.377795 
L 57.345498 -140.765591 
L 57.345498 -140.765591 
L 7.2 -140.765591 
z
" style="stroke: #ffffff"/>
    </defs>
    <g clip-path="url(#pe19d008b3c)">
     <use xlink:href="#mb42fe32800" x="0" y="313.792612" style="fill: #ffffff; stroke: #ffffff"/>
    </g>
   </g>
   <g id="PolyCollection_19">
    <defs>
     <path id="m7aa8c30ff5" d="M 57.345498 -79.377795 
L 57.345498 -17.99 
L 107.490996 -17.99 
L 107.490996 -79.377795 
L 107.490996 -79.377795 
L 57.345498 -79.377795 
z
" style="stroke: #ffffff"/>
    </defs>
    <g clip-path="url(#pe19d008b3c)">
     <use xlink:href="#m7aa8c30ff5" x="0" y="313.792612" style="fill: #ffffff; stroke: #ffffff"/>
    </g>
   </g>
   <g id="PolyCollection_20">
    <defs>
     <path id="m7778e205f4" d="M 57.345498 -140.765591 
L 57.345498 -79.377795 
L 107.490996 -79.377795 
L 107.490996 -140.765591 
L 107.490996 -140.765591 
L 57.345498 -140.765591 
z
" style="stroke: #000000"/>
    </defs>
    <g clip-path="url(#pe19d008b3c)">
     <use xlink:href="#m7778e205f4" x="0" y="313.792612" style="stroke: #000000"/>
    </g>
   </g>
   <g id="matplotlib.axis_9">
    <g id="text_22">
     <!-- Forecasting time $10$ $s$ -->
     <g transform="translate(23.220498 305.052612)">
      <text>
       <tspan style="font: 7px 'Arial'" x="0 4.275879 8.168945 10.5 14.393066 17.893066 21.786133 25.286133 27.230957 28.786133 32.679199 36.572266 38.51709 40.461914 42.01709 47.848145 51.741211 62.593262" y="-0.796875">Forecasting time  </tspan>
       <tspan style="font: 7px 'DejaVu Sans'" x="53.686035 58.139648" y="-0.796875">10</tspan>
       <tspan style="font: oblique 7px 'DejaVu Sans'" x="64.538086" y="-0.796875">s</tspan>
      </text>
     </g>
    </g>
   </g>
   <g id="matplotlib.axis_10"/>
   <g id="line2d_25">
    <path d="M 7.2 295.802612 
L 7.2 173.027021 
" clip-path="url(#pe19d008b3c)" style="fill: none; stroke: #000000; stroke-width: 1.5; stroke-linecap: square"/>
   </g>
   <g id="line2d_26">
    <path d="M 7.2 295.802612 
L 107.490996 295.802612 
" clip-path="url(#pe19d008b3c)" style="fill: none; stroke: #000000; stroke-width: 1.5; stroke-linecap: square"/>
   </g>
   <g id="line2d_27">
    <path d="M 57.345498 295.802612 
L 57.345498 173.027021 
" clip-path="url(#pe19d008b3c)" style="fill: none; stroke: #000000; stroke-width: 1.5; stroke-linecap: square"/>
   </g>
   <g id="line2d_28">
    <path d="M 7.2 234.414816 
L 107.490996 234.414816 
" clip-path="url(#pe19d008b3c)" style="fill: none; stroke: #000000; stroke-width: 1.5; stroke-linecap: square"/>
   </g>
   <g id="line2d_29">
    <path d="M 107.490996 295.802612 
L 107.490996 173.027021 
" clip-path="url(#pe19d008b3c)" style="fill: none; stroke: #000000; stroke-width: 1.5; stroke-linecap: square"/>
   </g>
   <g id="line2d_30">
    <path d="M 7.2 173.027021 
L 107.490996 173.027021 
" clip-path="url(#pe19d008b3c)" style="fill: none; stroke: #000000; stroke-width: 1.5; stroke-linecap: square"/>
   </g>
   <g id="patch_23">
    <path d="M 7.2 295.802612 
L 7.2 173.027021 
" style="fill: none; stroke: #000000; stroke-width: 0.8; stroke-linejoin: miter; stroke-linecap: square"/>
   </g>
   <g id="patch_24">
    <path d="M 107.490996 295.802612 
L 107.490996 173.027021 
" style="fill: none; stroke: #000000; stroke-width: 0.8; stroke-linejoin: miter; stroke-linecap: square"/>
   </g>
   <g id="patch_25">
    <path d="M 7.2 295.802612 
L 107.490996 295.802612 
" style="fill: none; stroke: #000000; stroke-width: 0.8; stroke-linejoin: miter; stroke-linecap: square"/>
   </g>
   <g id="patch_26">
    <path d="M 7.2 173.027021 
L 107.490996 173.027021 
" style="fill: none; stroke: #000000; stroke-width: 0.8; stroke-linejoin: miter; stroke-linecap: square"/>
   </g>
   <g id="text_23">
    <text style="fill: #ffffff; font: 7px 'Arial'; text-anchor: start" x="10.334094" y="265.108714" transform="rotate(-0 10.334094 265.108714)">1.0</text>
   </g>
   <g id="text_24">
    <!-- $6.147$ -->
    <g transform="translate(10.334094 196.271169)">
     <text>
      <tspan style="font: 7px 'DejaVu Sans'" x="0 4.453613 6.678711 11.132324 15.585938" y="-0.796875">6.147</tspan>
     </text>
    </g>
    <!-- $\times 10^{-7}$ -->
    <g transform="translate(10.334094 203.720919)">
     <text>
      <tspan style="font: 7px 'DejaVu Sans'" x="0 5.865234 10.318848" y="-0.7437500000000004">×10</tspan>
      <tspan style="font: 4.9px 'DejaVu Sans'" x="14.839453 18.945117" y="-3.4234375000000004">−7</tspan>
     </text>
    </g>
   </g>
   <g id="text_25">
    <!-- $6.147$ -->
    <g transform="translate(60.479592 257.658964)">
     <text>
      <tspan style="font: 7px 'DejaVu Sans'" x="0 4.453613 6.678711 11.132324 15.585938" y="-0.796875">6.147</tspan>
     </text>
    </g>
    <!-- $\times 10^{-7}$ -->
    <g transform="translate(60.479592 265.108714)">
     <text>
      <tspan style="font: 7px 'DejaVu Sans'" x="0 5.865234 10.318848" y="-0.7437500000000004">×10</tspan>
      <tspan style="font: 4.9px 'DejaVu Sans'" x="14.839453 18.945117" y="-3.4234375000000004">−7</tspan>
     </text>
    </g>
   </g>
   <g id="text_26">
    <text style="fill: #ffffff; font: 7px 'Arial'; text-anchor: start" x="60.479592" y="203.720919" transform="rotate(-0 60.479592 203.720919)">1.0</text>
   </g>
  </g>
  <g id="axes_6">
   <g id="patch_27">
    <path d="M 127.549195 295.802612 
L 227.840192 295.802612 
L 227.840192 173.027021 
L 127.549195 173.027021 
z
" style="fill: #ffffff"/>
   </g>
   <g id="PolyCollection_21">
    <defs>
     <path id="m0ff3d738ff" d="M 127.549195 -79.377795 
L 127.549195 -17.99 
L 177.694694 -17.99 
L 177.694694 -79.377795 
L 177.694694 -79.377795 
L 127.549195 -79.377795 
z
" style="stroke: #000000"/>
    </defs>
    <g clip-path="url(#p6c51e89363)">
     <use xlink:href="#m0ff3d738ff" x="0" y="313.792612" style="stroke: #000000"/>
    </g>
   </g>
   <g id="PolyCollection_22">
    <defs>
     <path id="m6391e6540e" d="M 127.549195 -140.765591 
L 127.549195 -79.377795 
L 177.694694 -79.377795 
L 177.694694 -140.765591 
L 177.694694 -140.765591 
L 127.549195 -140.765591 
z
" style="stroke: #ffffff"/>
    </defs>
    <g clip-path="url(#p6c51e89363)">
     <use xlink:href="#m6391e6540e" x="0" y="313.792612" style="fill: #ffffff; stroke: #ffffff"/>
    </g>
   </g>
   <g id="PolyCollection_23">
    <defs>
     <path id="md7a0b3bcae" d="M 177.694694 -79.377795 
L 177.694694 -17.99 
L 227.840192 -17.99 
L 227.840192 -79.377795 
L 227.840192 -79.377795 
L 177.694694 -79.377795 
z
" style="stroke: #ffffff"/>
    </defs>
    <g clip-path="url(#p6c51e89363)">
     <use xlink:href="#md7a0b3bcae" x="0" y="313.792612" style="fill: #ffffff; stroke: #ffffff"/>
    </g>
   </g>
   <g id="PolyCollection_24">
    <defs>
     <path id="mf604ae34b4" d="M 177.694694 -140.765591 
L 177.694694 -79.377795 
L 227.840192 -79.377795 
L 227.840192 -140.765591 
L 227.840192 -140.765591 
L 177.694694 -140.765591 
z
" style="stroke: #000000"/>
    </defs>
    <g clip-path="url(#p6c51e89363)">
     <use xlink:href="#mf604ae34b4" x="0" y="313.792612" style="stroke: #000000"/>
    </g>
   </g>
   <g id="matplotlib.axis_11">
    <g id="text_27">
     <!-- Forecasting time $20$ $s$ -->
     <g transform="translate(143.569694 305.052612)">
      <text>
       <tspan style="font: 7px 'Arial'" x="0 4.275879 8.168945 10.5 14.393066 17.893066 21.786133 25.286133 27.230957 28.786133 32.679199 36.572266 38.51709 40.461914 42.01709 47.848145 51.741211 62.593262" y="-0.796875">Forecasting time  </tspan>
       <tspan style="font: 7px 'DejaVu Sans'" x="53.686035 58.139648" y="-0.796875">20</tspan>
       <tspan style="font: oblique 7px 'DejaVu Sans'" x="64.538086" y="-0.796875">s</tspan>
      </text>
     </g>
    </g>
   </g>
   <g id="matplotlib.axis_12"/>
   <g id="line2d_31">
    <path d="M 127.549195 295.802612 
L 127.549195 173.027021 
" clip-path="url(#p6c51e89363)" style="fill: none; stroke: #000000; stroke-width: 1.5; stroke-linecap: square"/>
   </g>
   <g id="line2d_32">
    <path d="M 127.549195 295.802612 
L 227.840192 295.802612 
" clip-path="url(#p6c51e89363)" style="fill: none; stroke: #000000; stroke-width: 1.5; stroke-linecap: square"/>
   </g>
   <g id="line2d_33">
    <path d="M 177.694694 295.802612 
L 177.694694 173.027021 
" clip-path="url(#p6c51e89363)" style="fill: none; stroke: #000000; stroke-width: 1.5; stroke-linecap: square"/>
   </g>
   <g id="line2d_34">
    <path d="M 127.549195 234.414816 
L 227.840192 234.414816 
" clip-path="url(#p6c51e89363)" style="fill: none; stroke: #000000; stroke-width: 1.5; stroke-linecap: square"/>
   </g>
   <g id="line2d_35">
    <path d="M 227.840192 295.802612 
L 227.840192 173.027021 
" clip-path="url(#p6c51e89363)" style="fill: none; stroke: #000000; stroke-width: 1.5; stroke-linecap: square"/>
   </g>
   <g id="line2d_36">
    <path d="M 127.549195 173.027021 
L 227.840192 173.027021 
" clip-path="url(#p6c51e89363)" style="fill: none; stroke: #000000; stroke-width: 1.5; stroke-linecap: square"/>
   </g>
   <g id="patch_28">
    <path d="M 127.549195 295.802612 
L 127.549195 173.027021 
" style="fill: none; stroke: #000000; stroke-width: 0.8; stroke-linejoin: miter; stroke-linecap: square"/>
   </g>
   <g id="patch_29">
    <path d="M 227.840192 295.802612 
L 227.840192 173.027021 
" style="fill: none; stroke: #000000; stroke-width: 0.8; stroke-linejoin: miter; stroke-linecap: square"/>
   </g>
   <g id="patch_30">
    <path d="M 127.549195 295.802612 
L 227.840192 295.802612 
" style="fill: none; stroke: #000000; stroke-width: 0.8; stroke-linejoin: miter; stroke-linecap: square"/>
   </g>
   <g id="patch_31">
    <path d="M 127.549195 173.027021 
L 227.840192 173.027021 
" style="fill: none; stroke: #000000; stroke-width: 0.8; stroke-linejoin: miter; stroke-linecap: square"/>
   </g>
   <g id="text_28">
    <text style="fill: #ffffff; font: 7px 'Arial'; text-anchor: start" x="130.683289" y="265.108714" transform="rotate(-0 130.683289 265.108714)">1.0</text>
   </g>
   <g id="text_29">
    <!-- $1.416$ -->
    <g transform="translate(130.683289 196.187169)">
     <text>
      <tspan style="font: 7px 'DejaVu Sans'" x="0 4.453613 6.678711 11.132324 15.585938" y="-0.796875">1.416</tspan>
     </text>
    </g>
    <!-- $\times 10^{-9}$ -->
    <g transform="translate(130.683289 203.720919)">
     <text>
      <tspan style="font: 7px 'DejaVu Sans'" x="0 5.865234 10.318848" y="-0.6781249999999996">×10</tspan>
      <tspan style="font: 4.9px 'DejaVu Sans'" x="14.839453 18.945117" y="-3.3578124999999996">−9</tspan>
     </text>
    </g>
   </g>
   <g id="text_30">
    <!-- $1.416$ -->
    <g transform="translate(180.828787 257.574964)">
     <text>
      <tspan style="font: 7px 'DejaVu Sans'" x="0 4.453613 6.678711 11.132324 15.585938" y="-0.796875">1.416</tspan>
     </text>
    </g>
    <!-- $\times 10^{-9}$ -->
    <g transform="translate(180.828787 265.108714)">
     <text>
      <tspan style="font: 7px 'DejaVu Sans'" x="0 5.865234 10.318848" y="-0.6781249999999996">×10</tspan>
      <tspan style="font: 4.9px 'DejaVu Sans'" x="14.839453 18.945117" y="-3.3578124999999996">−9</tspan>
     </text>
    </g>
   </g>
   <g id="text_31">
    <text style="fill: #ffffff; font: 7px 'Arial'; text-anchor: start" x="180.828787" y="203.720919" transform="rotate(-0 180.828787 203.720919)">1.0</text>
   </g>
  </g>
  <g id="axes_7">
   <g id="patch_32">
    <path d="M 247.898391 295.802612 
L 348.189387 295.802612 
L 348.189387 173.027021 
L 247.898391 173.027021 
z
" style="fill: #ffffff"/>
   </g>
   <g id="PolyCollection_25">
    <defs>
     <path id="med9778366e" d="M 247.898391 -79.377795 
L 247.898391 -17.99 
L 298.043889 -17.99 
L 298.043889 -79.377795 
L 298.043889 -79.377795 
L 247.898391 -79.377795 
z
" style="stroke: #000000"/>
    </defs>
    <g clip-path="url(#p32a4523c8d)">
     <use xlink:href="#med9778366e" x="0" y="313.792612" style="stroke: #000000"/>
    </g>
   </g>
   <g id="PolyCollection_26">
    <defs>
     <path id="m5886f0ff79" d="M 247.898391 -140.765591 
L 247.898391 -79.377795 
L 298.043889 -79.377795 
L 298.043889 -140.765591 
L 298.043889 -140.765591 
L 247.898391 -140.765591 
z
" style="stroke: #ffffff"/>
    </defs>
    <g clip-path="url(#p32a4523c8d)">
     <use xlink:href="#m5886f0ff79" x="0" y="313.792612" style="fill: #ffffff; stroke: #ffffff"/>
    </g>
   </g>
   <g id="PolyCollection_27">
    <defs>
     <path id="mf969cf8f14" d="M 298.043889 -79.377795 
L 298.043889 -17.99 
L 348.189387 -17.99 
L 348.189387 -79.377795 
L 348.189387 -79.377795 
L 298.043889 -79.377795 
z
" style="stroke: #ffffff"/>
    </defs>
    <g clip-path="url(#p32a4523c8d)">
     <use xlink:href="#mf969cf8f14" x="0" y="313.792612" style="fill: #ffffff; stroke: #ffffff"/>
    </g>
   </g>
   <g id="PolyCollection_28">
    <defs>
     <path id="m3c24549750" d="M 298.043889 -140.765591 
L 298.043889 -79.377795 
L 348.189387 -79.377795 
L 348.189387 -140.765591 
L 348.189387 -140.765591 
L 298.043889 -140.765591 
z
" style="stroke: #000000"/>
    </defs>
    <g clip-path="url(#p32a4523c8d)">
     <use xlink:href="#m3c24549750" x="0" y="313.792612" style="stroke: #000000"/>
    </g>
   </g>
   <g id="matplotlib.axis_13">
    <g id="text_32">
     <!-- Forecasting time $30$ $s$ -->
     <g transform="translate(263.918889 305.052612)">
      <text>
       <tspan style="font: 7px 'Arial'" x="0 4.275879 8.168945 10.5 14.393066 17.893066 21.786133 25.286133 27.230957 28.786133 32.679199 36.572266 38.51709 40.461914 42.01709 47.848145 51.741211 62.593262" y="-0.796875">Forecasting time  </tspan>
       <tspan style="font: 7px 'DejaVu Sans'" x="53.686035 58.139648" y="-0.796875">30</tspan>
       <tspan style="font: oblique 7px 'DejaVu Sans'" x="64.538086" y="-0.796875">s</tspan>
      </text>
     </g>
    </g>
   </g>
   <g id="matplotlib.axis_14">
    <g id="ytick_1">
     <g id="line2d_37">
      <defs>
       <path id="mb3971300df" d="M 0 0 
L 3.5 0 
" style="stroke: #000000; stroke-width: 0.8"/>
      </defs>
      <g>
       <use xlink:href="#mb3971300df" x="348.189387" y="265.108714" style="stroke: #000000; stroke-width: 0.8"/>
      </g>
     </g>
     <g id="text_33">
      <text style="font: 7px 'Arial'; text-anchor: start" x="355.189387" y="267.613948" transform="rotate(-0 355.189387 267.613948)">RNN Linear</text>
     </g>
    </g>
    <g id="ytick_2">
     <g id="line2d_38">
      <g>
       <use xlink:href="#mb3971300df" x="348.189387" y="203.720919" style="stroke: #000000; stroke-width: 0.8"/>
      </g>
     </g>
     <g id="text_34">
      <text style="font: 7px 'Arial'; text-anchor: start" x="355.189387" y="206.226153" transform="rotate(-0 355.189387 206.226153)">UniTS</text>
     </g>
    </g>
   </g>
   <g id="line2d_39">
    <path d="M 247.898391 295.802612 
L 247.898391 173.027021 
" clip-path="url(#p32a4523c8d)" style="fill: none; stroke: #000000; stroke-width: 1.5; stroke-linecap: square"/>
   </g>
   <g id="line2d_40">
    <path d="M 247.898391 295.802612 
L 348.189387 295.802612 
" clip-path="url(#p32a4523c8d)" style="fill: none; stroke: #000000; stroke-width: 1.5; stroke-linecap: square"/>
   </g>
   <g id="line2d_41">
    <path d="M 298.043889 295.802612 
L 298.043889 173.027021 
" clip-path="url(#p32a4523c8d)" style="fill: none; stroke: #000000; stroke-width: 1.5; stroke-linecap: square"/>
   </g>
   <g id="line2d_42">
    <path d="M 247.898391 234.414816 
L 348.189387 234.414816 
" clip-path="url(#p32a4523c8d)" style="fill: none; stroke: #000000; stroke-width: 1.5; stroke-linecap: square"/>
   </g>
   <g id="line2d_43">
    <path d="M 348.189387 295.802612 
L 348.189387 173.027021 
" clip-path="url(#p32a4523c8d)" style="fill: none; stroke: #000000; stroke-width: 1.5; stroke-linecap: square"/>
   </g>
   <g id="line2d_44">
    <path d="M 247.898391 173.027021 
L 348.189387 173.027021 
" clip-path="url(#p32a4523c8d)" style="fill: none; stroke: #000000; stroke-width: 1.5; stroke-linecap: square"/>
   </g>
   <g id="patch_33">
    <path d="M 247.898391 295.802612 
L 247.898391 173.027021 
" style="fill: none; stroke: #000000; stroke-width: 0.8; stroke-linejoin: miter; stroke-linecap: square"/>
   </g>
   <g id="patch_34">
    <path d="M 348.189387 295.802612 
L 348.189387 173.027021 
" style="fill: none; stroke: #000000; stroke-width: 0.8; stroke-linejoin: miter; stroke-linecap: square"/>
   </g>
   <g id="patch_35">
    <path d="M 247.898391 295.802612 
L 348.189387 295.802612 
" style="fill: none; stroke: #000000; stroke-width: 0.8; stroke-linejoin: miter; stroke-linecap: square"/>
   </g>
   <g id="patch_36">
    <path d="M 247.898391 173.027021 
L 348.189387 173.027021 
" style="fill: none; stroke: #000000; stroke-width: 0.8; stroke-linejoin: miter; stroke-linecap: square"/>
   </g>
   <g id="text_35">
    <text style="fill: #ffffff; font: 7px 'Arial'; text-anchor: start" x="251.032485" y="265.108714" transform="rotate(-0 251.032485 265.108714)">1.0</text>
   </g>
   <g id="text_36">
    <!-- $1.416$ -->
    <g transform="translate(251.032485 196.187169)">
     <text>
      <tspan style="font: 7px 'DejaVu Sans'" x="0 4.453613 6.678711 11.132324 15.585938" y="-0.796875">1.416</tspan>
     </text>
    </g>
    <!-- $\times 10^{-9}$ -->
    <g transform="translate(251.032485 203.720919)">
     <text>
      <tspan style="font: 7px 'DejaVu Sans'" x="0 5.865234 10.318848" y="-0.6781249999999996">×10</tspan>
      <tspan style="font: 4.9px 'DejaVu Sans'" x="14.839453 18.945117" y="-3.3578124999999996">−9</tspan>
     </text>
    </g>
   </g>
   <g id="text_37">
    <!-- $1.416$ -->
    <g transform="translate(301.177983 257.574964)">
     <text>
      <tspan style="font: 7px 'DejaVu Sans'" x="0 4.453613 6.678711 11.132324 15.585938" y="-0.796875">1.416</tspan>
     </text>
    </g>
    <!-- $\times 10^{-9}$ -->
    <g transform="translate(301.177983 265.108714)">
     <text>
      <tspan style="font: 7px 'DejaVu Sans'" x="0 5.865234 10.318848" y="-0.6781249999999996">×10</tspan>
      <tspan style="font: 4.9px 'DejaVu Sans'" x="14.839453 18.945117" y="-3.3578124999999996">−9</tspan>
     </text>
    </g>
   </g>
   <g id="text_38">
    <text style="fill: #ffffff; font: 7px 'Arial'; text-anchor: start" x="301.177983" y="203.720919" transform="rotate(-0 301.177983 203.720919)">1.0</text>
   </g>
  </g>
 </g>
 <defs>
  <clipPath id="pf762ef1f43">
   <rect x="7.2" y="25.696312" width="100.290996" height="122.775591"/>
  </clipPath>
  <clipPath id="p413a63447c">
   <rect x="127.549195" y="25.696312" width="100.290996" height="122.775591"/>
  </clipPath>
  <clipPath id="pe5b69733ac">
   <rect x="247.898391" y="25.696312" width="100.290996" height="122.775591"/>
  </clipPath>
  <clipPath id="p7a09bd82cc">
   <rect x="368.247586" y="25.696312" width="100.290996" height="122.775591"/>
  </clipPath>
  <clipPath id="pe19d008b3c">
   <rect x="7.2" y="173.027021" width="100.290996" height="122.775591"/>
  </clipPath>
  <clipPath id="p6c51e89363">
   <rect x="127.549195" y="173.027021" width="100.290996" height="122.775591"/>
  </clipPath>
  <clipPath id="p32a4523c8d">
   <rect x="247.898391" y="173.027021" width="100.290996" height="122.775591"/>
  </clipPath>
 </defs>
</svg>
