<?xml version="1.0" encoding="utf-8" standalone="no"?>
<!DOCTYPE svg PUBLIC "-//W3C//DTD SVG 1.1//EN"
  "http://www.w3.org/Graphics/SVG/1.1/DTD/svg11.dtd">
<svg xmlns:xlink="http://www.w3.org/1999/xlink" width="475.738583pt" height="315.42733pt" viewBox="0 0 475.738583 315.42733" xmlns="http://www.w3.org/2000/svg" version="1.1">
 <metadata>
  <rdf:RDF xmlns:dc="http://purl.org/dc/elements/1.1/" xmlns:cc="http://creativecommons.org/ns#" xmlns:rdf="http://www.w3.org/1999/02/22-rdf-syntax-ns#">
   <cc:Work>
    <dc:type rdf:resource="http://purl.org/dc/dcmitype/StillImage"/>
    <dc:date>2024-10-28T16:10:52.447157</dc:date>
    <dc:format>image/svg+xml</dc:format>
    <dc:creator>
     <cc:Agent>
      <dc:title>Matplotlib v3.7.0, https://matplotlib.org/</dc:title>
     </cc:Agent>
    </dc:creator>
   </cc:Work>
  </rdf:RDF>
 </metadata>
 <defs>
  <style type="text/css">*{stroke-linejoin: round; stroke-linecap: butt}</style>
 </defs>
 <g id="figure_1">
  <g id="patch_1">
   <path d="M 0 315.42733 
L 475.738583 315.42733 
L 475.738583 0 
L 0 0 
z
" style="fill: #ffffff"/>
  </g>
  <g id="axes_1">
   <g id="patch_2">
    <path d="M 7.2 150.106622 
L 107.490996 150.106622 
L 107.490996 27.331031 
L 7.2 27.331031 
z
" style="fill: #ffffff"/>
   </g>
   <g id="PolyCollection_1">
    <defs>
     <path id="m6933ba8935" d="M 7.2 -226.708504 
L 7.2 -165.320709 
L 57.345498 -165.320709 
L 57.345498 -226.708504 
L 57.345498 -226.708504 
L 7.2 -226.708504 
z
" style="stroke: #000000"/>
    </defs>
    <g clip-path="url(#p8ffe8f9b11)">
     <use xlink:href="#m6933ba8935" x="0" y="315.42733" style="stroke: #000000"/>
    </g>
   </g>
   <g id="PolyCollection_2">
    <defs>
     <path id="mf22f55b643" d="M 7.2 -288.096299 
L 7.2 -226.708504 
L 57.345498 -226.708504 
L 57.345498 -288.096299 
L 57.345498 -288.096299 
L 7.2 -288.096299 
z
" style="stroke: #ffffff"/>
    </defs>
    <g clip-path="url(#p8ffe8f9b11)">
     <use xlink:href="#mf22f55b643" x="0" y="315.42733" style="fill: #ffffff; stroke: #ffffff"/>
    </g>
   </g>
   <g id="PolyCollection_3">
    <defs>
     <path id="m271b9f107e" d="M 57.345498 -226.708504 
L 57.345498 -165.320709 
L 107.490996 -165.320709 
L 107.490996 -226.708504 
L 107.490996 -226.708504 
L 57.345498 -226.708504 
z
" style="stroke: #ffffff"/>
    </defs>
    <g clip-path="url(#p8ffe8f9b11)">
     <use xlink:href="#m271b9f107e" x="0" y="315.42733" style="fill: #ffffff; stroke: #ffffff"/>
    </g>
   </g>
   <g id="PolyCollection_4">
    <defs>
     <path id="m51180166f3" d="M 57.345498 -288.096299 
L 57.345498 -226.708504 
L 107.490996 -226.708504 
L 107.490996 -288.096299 
L 107.490996 -288.096299 
L 57.345498 -288.096299 
z
" style="stroke: #000000"/>
    </defs>
    <g clip-path="url(#p8ffe8f9b11)">
     <use xlink:href="#m51180166f3" x="0" y="315.42733" style="stroke: #000000"/>
    </g>
   </g>
   <g id="matplotlib.axis_1">
    <g id="text_1">
     <!-- Forecasting time $2$ $s$ -->
     <g transform="translate(25.460498 159.356622)">
      <text>
       <tspan style="font: 7px 'Arial'" x="0 4.275879 8.168945 10.5 14.393066 17.893066 21.786133 25.286133 27.230957 28.786133 32.679199 36.572266 38.51709 40.461914 42.01709 47.848145 51.741211 58.139648" y="-0.796875">Forecasting time  </tspan>
       <tspan style="font: 7px 'DejaVu Sans'" x="53.686035" y="-0.796875">2</tspan>
       <tspan style="font: oblique 7px 'DejaVu Sans'" x="60.084473" y="-0.796875">s</tspan>
      </text>
     </g>
    </g>
   </g>
   <g id="matplotlib.axis_2"/>
   <g id="line2d_1">
    <path d="M 7.2 150.106622 
L 7.2 27.331031 
" clip-path="url(#p8ffe8f9b11)" style="fill: none; stroke: #000000; stroke-width: 1.5; stroke-linecap: square"/>
   </g>
   <g id="line2d_2">
    <path d="M 7.2 150.106622 
L 107.490996 150.106622 
" clip-path="url(#p8ffe8f9b11)" style="fill: none; stroke: #000000; stroke-width: 1.5; stroke-linecap: square"/>
   </g>
   <g id="line2d_3">
    <path d="M 57.345498 150.106622 
L 57.345498 27.331031 
" clip-path="url(#p8ffe8f9b11)" style="fill: none; stroke: #000000; stroke-width: 1.5; stroke-linecap: square"/>
   </g>
   <g id="line2d_4">
    <path d="M 7.2 88.718827 
L 107.490996 88.718827 
" clip-path="url(#p8ffe8f9b11)" style="fill: none; stroke: #000000; stroke-width: 1.5; stroke-linecap: square"/>
   </g>
   <g id="line2d_5">
    <path d="M 107.490996 150.106622 
L 107.490996 27.331031 
" clip-path="url(#p8ffe8f9b11)" style="fill: none; stroke: #000000; stroke-width: 1.5; stroke-linecap: square"/>
   </g>
   <g id="line2d_6">
    <path d="M 7.2 27.331031 
L 107.490996 27.331031 
" clip-path="url(#p8ffe8f9b11)" style="fill: none; stroke: #000000; stroke-width: 1.5; stroke-linecap: square"/>
   </g>
   <g id="patch_3">
    <path d="M 7.2 150.106622 
L 7.2 27.331031 
" style="fill: none; stroke: #000000; stroke-width: 0.8; stroke-linejoin: miter; stroke-linecap: square"/>
   </g>
   <g id="patch_4">
    <path d="M 107.490996 150.106622 
L 107.490996 27.331031 
" style="fill: none; stroke: #000000; stroke-width: 0.8; stroke-linejoin: miter; stroke-linecap: square"/>
   </g>
   <g id="patch_5">
    <path d="M 7.2 150.106622 
L 107.490996 150.106622 
" style="fill: none; stroke: #000000; stroke-width: 0.8; stroke-linejoin: miter; stroke-linecap: square"/>
   </g>
   <g id="patch_6">
    <path d="M 7.2 27.331031 
L 107.490996 27.331031 
" style="fill: none; stroke: #000000; stroke-width: 0.8; stroke-linejoin: miter; stroke-linecap: square"/>
   </g>
   <g id="text_2">
    <text style="fill: #ffffff; font: 7px 'Arial'; text-anchor: start" x="13.468187" y="119.412724" transform="rotate(-0 13.468187 119.412724)">1.0</text>
   </g>
   <g id="text_3">
    <text style="font: 7px 'Arial'; text-anchor: start" x="13.468187" y="58.024929" transform="rotate(-0 13.468187 58.024929)">0.0</text>
   </g>
   <g id="text_4">
    <text style="font: 7px 'Arial'; text-anchor: start" x="63.613685" y="119.412724" transform="rotate(-0 63.613685 119.412724)">0.0</text>
   </g>
   <g id="text_5">
    <text style="fill: #ffffff; font: 7px 'Arial'; text-anchor: start" x="63.613685" y="58.024929" transform="rotate(-0 63.613685 58.024929)">1.0</text>
   </g>
  </g>
  <g id="axes_2">
   <g id="patch_7">
    <path d="M 127.549195 150.106622 
L 227.840192 150.106622 
L 227.840192 27.331031 
L 127.549195 27.331031 
z
" style="fill: #ffffff"/>
   </g>
   <g id="PolyCollection_5">
    <defs>
     <path id="m13362e00cd" d="M 127.549195 -226.708504 
L 127.549195 -165.320709 
L 177.694694 -165.320709 
L 177.694694 -226.708504 
L 177.694694 -226.708504 
L 127.549195 -226.708504 
z
" style="stroke: #000000"/>
    </defs>
    <g clip-path="url(#p1867a6dc60)">
     <use xlink:href="#m13362e00cd" x="0" y="315.42733" style="stroke: #000000"/>
    </g>
   </g>
   <g id="PolyCollection_6">
    <defs>
     <path id="m017d9a18b0" d="M 127.549195 -288.096299 
L 127.549195 -226.708504 
L 177.694694 -226.708504 
L 177.694694 -288.096299 
L 177.694694 -288.096299 
L 127.549195 -288.096299 
z
" style="stroke: #ffffff"/>
    </defs>
    <g clip-path="url(#p1867a6dc60)">
     <use xlink:href="#m017d9a18b0" x="0" y="315.42733" style="fill: #ffffff; stroke: #ffffff"/>
    </g>
   </g>
   <g id="PolyCollection_7">
    <defs>
     <path id="m1c013638e9" d="M 177.694694 -226.708504 
L 177.694694 -165.320709 
L 227.840192 -165.320709 
L 227.840192 -226.708504 
L 227.840192 -226.708504 
L 177.694694 -226.708504 
z
" style="stroke: #ffffff"/>
    </defs>
    <g clip-path="url(#p1867a6dc60)">
     <use xlink:href="#m1c013638e9" x="0" y="315.42733" style="fill: #ffffff; stroke: #ffffff"/>
    </g>
   </g>
   <g id="PolyCollection_8">
    <defs>
     <path id="ma172113207" d="M 177.694694 -288.096299 
L 177.694694 -226.708504 
L 227.840192 -226.708504 
L 227.840192 -288.096299 
L 227.840192 -288.096299 
L 177.694694 -288.096299 
z
" style="stroke: #000000"/>
    </defs>
    <g clip-path="url(#p1867a6dc60)">
     <use xlink:href="#ma172113207" x="0" y="315.42733" style="stroke: #000000"/>
    </g>
   </g>
   <g id="matplotlib.axis_3">
    <g id="text_6">
     <!-- Forecasting time $3$ $s$ -->
     <g transform="translate(145.809694 159.356622)">
      <text>
       <tspan style="font: 7px 'Arial'" x="0 4.275879 8.168945 10.5 14.393066 17.893066 21.786133 25.286133 27.230957 28.786133 32.679199 36.572266 38.51709 40.461914 42.01709 47.848145 51.741211 58.139648" y="-0.796875">Forecasting time  </tspan>
       <tspan style="font: 7px 'DejaVu Sans'" x="53.686035" y="-0.796875">3</tspan>
       <tspan style="font: oblique 7px 'DejaVu Sans'" x="60.084473" y="-0.796875">s</tspan>
      </text>
     </g>
    </g>
   </g>
   <g id="matplotlib.axis_4"/>
   <g id="line2d_7">
    <path d="M 127.549195 150.106622 
L 127.549195 27.331031 
" clip-path="url(#p1867a6dc60)" style="fill: none; stroke: #000000; stroke-width: 1.5; stroke-linecap: square"/>
   </g>
   <g id="line2d_8">
    <path d="M 127.549195 150.106622 
L 227.840192 150.106622 
" clip-path="url(#p1867a6dc60)" style="fill: none; stroke: #000000; stroke-width: 1.5; stroke-linecap: square"/>
   </g>
   <g id="line2d_9">
    <path d="M 177.694694 150.106622 
L 177.694694 27.331031 
" clip-path="url(#p1867a6dc60)" style="fill: none; stroke: #000000; stroke-width: 1.5; stroke-linecap: square"/>
   </g>
   <g id="line2d_10">
    <path d="M 127.549195 88.718827 
L 227.840192 88.718827 
" clip-path="url(#p1867a6dc60)" style="fill: none; stroke: #000000; stroke-width: 1.5; stroke-linecap: square"/>
   </g>
   <g id="line2d_11">
    <path d="M 227.840192 150.106622 
L 227.840192 27.331031 
" clip-path="url(#p1867a6dc60)" style="fill: none; stroke: #000000; stroke-width: 1.5; stroke-linecap: square"/>
   </g>
   <g id="line2d_12">
    <path d="M 127.549195 27.331031 
L 227.840192 27.331031 
" clip-path="url(#p1867a6dc60)" style="fill: none; stroke: #000000; stroke-width: 1.5; stroke-linecap: square"/>
   </g>
   <g id="patch_8">
    <path d="M 127.549195 150.106622 
L 127.549195 27.331031 
" style="fill: none; stroke: #000000; stroke-width: 0.8; stroke-linejoin: miter; stroke-linecap: square"/>
   </g>
   <g id="patch_9">
    <path d="M 227.840192 150.106622 
L 227.840192 27.331031 
" style="fill: none; stroke: #000000; stroke-width: 0.8; stroke-linejoin: miter; stroke-linecap: square"/>
   </g>
   <g id="patch_10">
    <path d="M 127.549195 150.106622 
L 227.840192 150.106622 
" style="fill: none; stroke: #000000; stroke-width: 0.8; stroke-linejoin: miter; stroke-linecap: square"/>
   </g>
   <g id="patch_11">
    <path d="M 127.549195 27.331031 
L 227.840192 27.331031 
" style="fill: none; stroke: #000000; stroke-width: 0.8; stroke-linejoin: miter; stroke-linecap: square"/>
   </g>
   <g id="text_7">
    <text style="fill: #ffffff; font: 7px 'Arial'; text-anchor: start" x="133.817383" y="119.412724" transform="rotate(-0 133.817383 119.412724)">1.0</text>
   </g>
   <g id="text_8">
    <text style="font: 7px 'Arial'; text-anchor: start" x="133.817383" y="58.024929" transform="rotate(-0 133.817383 58.024929)">0.0</text>
   </g>
   <g id="text_9">
    <text style="font: 7px 'Arial'; text-anchor: start" x="183.962881" y="119.412724" transform="rotate(-0 183.962881 119.412724)">0.0</text>
   </g>
   <g id="text_10">
    <text style="fill: #ffffff; font: 7px 'Arial'; text-anchor: start" x="183.962881" y="58.024929" transform="rotate(-0 183.962881 58.024929)">1.0</text>
   </g>
   <g id="text_11">
    <text style="font: 7px 'Arial'" transform="translate(167.574772 12.295781)">Speed</text>
    <!-- $R^{2}$ (%) -->
    <g transform="translate(166.914694 21.331031)">
     <text>
      <tspan style="font: oblique 7px 'DejaVu Sans'" x="0" y="-0.6781249999999996">R</tspan>
      <tspan style="font: 4.9px 'DejaVu Sans'" x="5.355775" y="-3.3578124999999996">2</tspan>
      <tspan style="font: 7px 'Arial'" x="8.66471 10.609535 12.940589 19.16471" y="-0.6781249999999996"> (%)</tspan>
     </text>
    </g>
   </g>
  </g>
  <g id="axes_3">
   <g id="patch_12">
    <path d="M 247.898391 150.106622 
L 348.189387 150.106622 
L 348.189387 27.331031 
L 247.898391 27.331031 
z
" style="fill: #ffffff"/>
   </g>
   <g id="PolyCollection_9">
    <defs>
     <path id="m330313fc41" d="M 247.898391 -226.708504 
L 247.898391 -165.320709 
L 298.043889 -165.320709 
L 298.043889 -226.708504 
L 298.043889 -226.708504 
L 247.898391 -226.708504 
z
" style="stroke: #000000"/>
    </defs>
    <g clip-path="url(#pdfc9ed6bdf)">
     <use xlink:href="#m330313fc41" x="0" y="315.42733" style="stroke: #000000"/>
    </g>
   </g>
   <g id="PolyCollection_10">
    <defs>
     <path id="m8b7402a19f" d="M 247.898391 -288.096299 
L 247.898391 -226.708504 
L 298.043889 -226.708504 
L 298.043889 -288.096299 
L 298.043889 -288.096299 
L 247.898391 -288.096299 
z
" style="stroke: #ffffff"/>
    </defs>
    <g clip-path="url(#pdfc9ed6bdf)">
     <use xlink:href="#m8b7402a19f" x="0" y="315.42733" style="fill: #ffffff; stroke: #ffffff"/>
    </g>
   </g>
   <g id="PolyCollection_11">
    <defs>
     <path id="m841f3cccd2" d="M 298.043889 -226.708504 
L 298.043889 -165.320709 
L 348.189387 -165.320709 
L 348.189387 -226.708504 
L 348.189387 -226.708504 
L 298.043889 -226.708504 
z
" style="stroke: #ffffff"/>
    </defs>
    <g clip-path="url(#pdfc9ed6bdf)">
     <use xlink:href="#m841f3cccd2" x="0" y="315.42733" style="fill: #ffffff; stroke: #ffffff"/>
    </g>
   </g>
   <g id="PolyCollection_12">
    <defs>
     <path id="m67de77e79c" d="M 298.043889 -288.096299 
L 298.043889 -226.708504 
L 348.189387 -226.708504 
L 348.189387 -288.096299 
L 348.189387 -288.096299 
L 298.043889 -288.096299 
z
" style="stroke: #000000"/>
    </defs>
    <g clip-path="url(#pdfc9ed6bdf)">
     <use xlink:href="#m67de77e79c" x="0" y="315.42733" style="stroke: #000000"/>
    </g>
   </g>
   <g id="matplotlib.axis_5">
    <g id="text_12">
     <!-- Forecasting time $4$ $s$ -->
     <g transform="translate(266.158889 159.216622)">
      <text>
       <tspan style="font: 7px 'Arial'" x="0 4.275879 8.168945 10.5 14.393066 17.893066 21.786133 25.286133 27.230957 28.786133 32.679199 36.572266 38.51709 40.461914 42.01709 47.848145 51.741211 58.139648" y="-0.890625">Forecasting time  </tspan>
       <tspan style="font: 7px 'DejaVu Sans'" x="53.686035" y="-0.890625">4</tspan>
       <tspan style="font: oblique 7px 'DejaVu Sans'" x="60.084473" y="-0.890625">s</tspan>
      </text>
     </g>
    </g>
   </g>
   <g id="matplotlib.axis_6"/>
   <g id="line2d_13">
    <path d="M 247.898391 150.106622 
L 247.898391 27.331031 
" clip-path="url(#pdfc9ed6bdf)" style="fill: none; stroke: #000000; stroke-width: 1.5; stroke-linecap: square"/>
   </g>
   <g id="line2d_14">
    <path d="M 247.898391 150.106622 
L 348.189387 150.106622 
" clip-path="url(#pdfc9ed6bdf)" style="fill: none; stroke: #000000; stroke-width: 1.5; stroke-linecap: square"/>
   </g>
   <g id="line2d_15">
    <path d="M 298.043889 150.106622 
L 298.043889 27.331031 
" clip-path="url(#pdfc9ed6bdf)" style="fill: none; stroke: #000000; stroke-width: 1.5; stroke-linecap: square"/>
   </g>
   <g id="line2d_16">
    <path d="M 247.898391 88.718827 
L 348.189387 88.718827 
" clip-path="url(#pdfc9ed6bdf)" style="fill: none; stroke: #000000; stroke-width: 1.5; stroke-linecap: square"/>
   </g>
   <g id="line2d_17">
    <path d="M 348.189387 150.106622 
L 348.189387 27.331031 
" clip-path="url(#pdfc9ed6bdf)" style="fill: none; stroke: #000000; stroke-width: 1.5; stroke-linecap: square"/>
   </g>
   <g id="line2d_18">
    <path d="M 247.898391 27.331031 
L 348.189387 27.331031 
" clip-path="url(#pdfc9ed6bdf)" style="fill: none; stroke: #000000; stroke-width: 1.5; stroke-linecap: square"/>
   </g>
   <g id="patch_13">
    <path d="M 247.898391 150.106622 
L 247.898391 27.331031 
" style="fill: none; stroke: #000000; stroke-width: 0.8; stroke-linejoin: miter; stroke-linecap: square"/>
   </g>
   <g id="patch_14">
    <path d="M 348.189387 150.106622 
L 348.189387 27.331031 
" style="fill: none; stroke: #000000; stroke-width: 0.8; stroke-linejoin: miter; stroke-linecap: square"/>
   </g>
   <g id="patch_15">
    <path d="M 247.898391 150.106622 
L 348.189387 150.106622 
" style="fill: none; stroke: #000000; stroke-width: 0.8; stroke-linejoin: miter; stroke-linecap: square"/>
   </g>
   <g id="patch_16">
    <path d="M 247.898391 27.331031 
L 348.189387 27.331031 
" style="fill: none; stroke: #000000; stroke-width: 0.8; stroke-linejoin: miter; stroke-linecap: square"/>
   </g>
   <g id="text_13">
    <text style="fill: #ffffff; font: 7px 'Arial'; text-anchor: start" x="254.166578" y="119.412724" transform="rotate(-0 254.166578 119.412724)">1.0</text>
   </g>
   <g id="text_14">
    <text style="font: 7px 'Arial'; text-anchor: start" x="254.166578" y="58.024929" transform="rotate(-0 254.166578 58.024929)">0.0</text>
   </g>
   <g id="text_15">
    <text style="font: 7px 'Arial'; text-anchor: start" x="304.312076" y="119.412724" transform="rotate(-0 304.312076 119.412724)">0.0</text>
   </g>
   <g id="text_16">
    <text style="fill: #ffffff; font: 7px 'Arial'; text-anchor: start" x="304.312076" y="58.024929" transform="rotate(-0 304.312076 58.024929)">1.0</text>
   </g>
  </g>
  <g id="axes_4">
   <g id="patch_17">
    <path d="M 368.247586 150.106622 
L 468.538583 150.106622 
L 468.538583 27.331031 
L 368.247586 27.331031 
z
" style="fill: #ffffff"/>
   </g>
   <g id="PolyCollection_13">
    <defs>
     <path id="mad8713bdb5" d="M 368.247586 -226.708504 
L 368.247586 -165.320709 
L 418.393085 -165.320709 
L 418.393085 -226.708504 
L 418.393085 -226.708504 
L 368.247586 -226.708504 
z
" style="stroke: #000000"/>
    </defs>
    <g clip-path="url(#p96f8bff170)">
     <use xlink:href="#mad8713bdb5" x="0" y="315.42733" style="stroke: #000000"/>
    </g>
   </g>
   <g id="PolyCollection_14">
    <defs>
     <path id="m323bb79c53" d="M 368.247586 -288.096299 
L 368.247586 -226.708504 
L 418.393085 -226.708504 
L 418.393085 -288.096299 
L 418.393085 -288.096299 
L 368.247586 -288.096299 
z
" style="stroke: #ffffff"/>
    </defs>
    <g clip-path="url(#p96f8bff170)">
     <use xlink:href="#m323bb79c53" x="0" y="315.42733" style="fill: #ffffff; stroke: #ffffff"/>
    </g>
   </g>
   <g id="PolyCollection_15">
    <defs>
     <path id="maa0c21ccdc" d="M 418.393085 -226.708504 
L 418.393085 -165.320709 
L 468.538583 -165.320709 
L 468.538583 -226.708504 
L 468.538583 -226.708504 
L 418.393085 -226.708504 
z
" style="stroke: #ffffff"/>
    </defs>
    <g clip-path="url(#p96f8bff170)">
     <use xlink:href="#maa0c21ccdc" x="0" y="315.42733" style="fill: #ffffff; stroke: #ffffff"/>
    </g>
   </g>
   <g id="PolyCollection_16">
    <defs>
     <path id="m13be5dd9f8" d="M 418.393085 -288.096299 
L 418.393085 -226.708504 
L 468.538583 -226.708504 
L 468.538583 -288.096299 
L 468.538583 -288.096299 
L 418.393085 -288.096299 
z
" style="stroke: #000000"/>
    </defs>
    <g clip-path="url(#p96f8bff170)">
     <use xlink:href="#m13be5dd9f8" x="0" y="315.42733" style="stroke: #000000"/>
    </g>
   </g>
   <g id="matplotlib.axis_7">
    <g id="text_17">
     <!-- Forecasting time $5$ $s$ -->
     <g transform="translate(386.508085 159.216622)">
      <text>
       <tspan style="font: 7px 'Arial'" x="0 4.275879 8.168945 10.5 14.393066 17.893066 21.786133 25.286133 27.230957 28.786133 32.679199 36.572266 38.51709 40.461914 42.01709 47.848145 51.741211 58.139648" y="-0.890625">Forecasting time  </tspan>
       <tspan style="font: 7px 'DejaVu Sans'" x="53.686035" y="-0.890625">5</tspan>
       <tspan style="font: oblique 7px 'DejaVu Sans'" x="60.084473" y="-0.890625">s</tspan>
      </text>
     </g>
    </g>
   </g>
   <g id="matplotlib.axis_8"/>
   <g id="line2d_19">
    <path d="M 368.247586 150.106622 
L 368.247586 27.331031 
" clip-path="url(#p96f8bff170)" style="fill: none; stroke: #000000; stroke-width: 1.5; stroke-linecap: square"/>
   </g>
   <g id="line2d_20">
    <path d="M 368.247586 150.106622 
L 468.538583 150.106622 
" clip-path="url(#p96f8bff170)" style="fill: none; stroke: #000000; stroke-width: 1.5; stroke-linecap: square"/>
   </g>
   <g id="line2d_21">
    <path d="M 418.393085 150.106622 
L 418.393085 27.331031 
" clip-path="url(#p96f8bff170)" style="fill: none; stroke: #000000; stroke-width: 1.5; stroke-linecap: square"/>
   </g>
   <g id="line2d_22">
    <path d="M 368.247586 88.718827 
L 468.538583 88.718827 
" clip-path="url(#p96f8bff170)" style="fill: none; stroke: #000000; stroke-width: 1.5; stroke-linecap: square"/>
   </g>
   <g id="line2d_23">
    <path d="M 468.538583 150.106622 
L 468.538583 27.331031 
" clip-path="url(#p96f8bff170)" style="fill: none; stroke: #000000; stroke-width: 1.5; stroke-linecap: square"/>
   </g>
   <g id="line2d_24">
    <path d="M 368.247586 27.331031 
L 468.538583 27.331031 
" clip-path="url(#p96f8bff170)" style="fill: none; stroke: #000000; stroke-width: 1.5; stroke-linecap: square"/>
   </g>
   <g id="patch_18">
    <path d="M 368.247586 150.106622 
L 368.247586 27.331031 
" style="fill: none; stroke: #000000; stroke-width: 0.8; stroke-linejoin: miter; stroke-linecap: square"/>
   </g>
   <g id="patch_19">
    <path d="M 468.538583 150.106622 
L 468.538583 27.331031 
" style="fill: none; stroke: #000000; stroke-width: 0.8; stroke-linejoin: miter; stroke-linecap: square"/>
   </g>
   <g id="patch_20">
    <path d="M 368.247586 150.106622 
L 468.538583 150.106622 
" style="fill: none; stroke: #000000; stroke-width: 0.8; stroke-linejoin: miter; stroke-linecap: square"/>
   </g>
   <g id="patch_21">
    <path d="M 368.247586 27.331031 
L 468.538583 27.331031 
" style="fill: none; stroke: #000000; stroke-width: 0.8; stroke-linejoin: miter; stroke-linecap: square"/>
   </g>
   <g id="text_18">
    <text style="fill: #ffffff; font: 7px 'Arial'; text-anchor: start" x="374.515774" y="119.412724" transform="rotate(-0 374.515774 119.412724)">1.0</text>
   </g>
   <g id="text_19">
    <text style="font: 7px 'Arial'; text-anchor: start" x="374.515774" y="58.024929" transform="rotate(-0 374.515774 58.024929)">0.0</text>
   </g>
   <g id="text_20">
    <text style="font: 7px 'Arial'; text-anchor: start" x="424.661272" y="119.412724" transform="rotate(-0 424.661272 119.412724)">0.0</text>
   </g>
   <g id="text_21">
    <text style="fill: #ffffff; font: 7px 'Arial'; text-anchor: start" x="424.661272" y="58.024929" transform="rotate(-0 424.661272 58.024929)">1.0</text>
   </g>
  </g>
  <g id="axes_5">
   <g id="patch_22">
    <path d="M 7.2 297.43733 
L 107.490996 297.43733 
L 107.490996 174.66174 
L 7.2 174.66174 
z
" style="fill: #ffffff"/>
   </g>
   <g id="PolyCollection_17">
    <defs>
     <path id="m8009c8ebec" d="M 7.2 -79.377795 
L 7.2 -17.99 
L 57.345498 -17.99 
L 57.345498 -79.377795 
L 57.345498 -79.377795 
L 7.2 -79.377795 
z
" style="stroke: #000000"/>
    </defs>
    <g clip-path="url(#pec10f1f79b)">
     <use xlink:href="#m8009c8ebec" x="0" y="315.42733" style="stroke: #000000"/>
    </g>
   </g>
   <g id="PolyCollection_18">
    <defs>
     <path id="m10355003f3" d="M 7.2 -140.765591 
L 7.2 -79.377795 
L 57.345498 -79.377795 
L 57.345498 -140.765591 
L 57.345498 -140.765591 
L 7.2 -140.765591 
z
" style="stroke: #ffffff"/>
    </defs>
    <g clip-path="url(#pec10f1f79b)">
     <use xlink:href="#m10355003f3" x="0" y="315.42733" style="fill: #ffffff; stroke: #ffffff"/>
    </g>
   </g>
   <g id="PolyCollection_19">
    <defs>
     <path id="mbf26bb5845" d="M 57.345498 -79.377795 
L 57.345498 -17.99 
L 107.490996 -17.99 
L 107.490996 -79.377795 
L 107.490996 -79.377795 
L 57.345498 -79.377795 
z
" style="stroke: #ffffff"/>
    </defs>
    <g clip-path="url(#pec10f1f79b)">
     <use xlink:href="#mbf26bb5845" x="0" y="315.42733" style="fill: #ffffff; stroke: #ffffff"/>
    </g>
   </g>
   <g id="PolyCollection_20">
    <defs>
     <path id="mc58e5a315c" d="M 57.345498 -140.765591 
L 57.345498 -79.377795 
L 107.490996 -79.377795 
L 107.490996 -140.765591 
L 107.490996 -140.765591 
L 57.345498 -140.765591 
z
" style="stroke: #000000"/>
    </defs>
    <g clip-path="url(#pec10f1f79b)">
     <use xlink:href="#mc58e5a315c" x="0" y="315.42733" style="stroke: #000000"/>
    </g>
   </g>
   <g id="matplotlib.axis_9">
    <g id="text_22">
     <!-- Forecasting time $10$ $s$ -->
     <g transform="translate(23.220498 306.68733)">
      <text>
       <tspan style="font: 7px 'Arial'" x="0 4.275879 8.168945 10.5 14.393066 17.893066 21.786133 25.286133 27.230957 28.786133 32.679199 36.572266 38.51709 40.461914 42.01709 47.848145 51.741211 62.593262" y="-0.796875">Forecasting time  </tspan>
       <tspan style="font: 7px 'DejaVu Sans'" x="53.686035 58.139648" y="-0.796875">10</tspan>
       <tspan style="font: oblique 7px 'DejaVu Sans'" x="64.538086" y="-0.796875">s</tspan>
      </text>
     </g>
    </g>
   </g>
   <g id="matplotlib.axis_10"/>
   <g id="line2d_25">
    <path d="M 7.2 297.43733 
L 7.2 174.66174 
" clip-path="url(#pec10f1f79b)" style="fill: none; stroke: #000000; stroke-width: 1.5; stroke-linecap: square"/>
   </g>
   <g id="line2d_26">
    <path d="M 7.2 297.43733 
L 107.490996 297.43733 
" clip-path="url(#pec10f1f79b)" style="fill: none; stroke: #000000; stroke-width: 1.5; stroke-linecap: square"/>
   </g>
   <g id="line2d_27">
    <path d="M 57.345498 297.43733 
L 57.345498 174.66174 
" clip-path="url(#pec10f1f79b)" style="fill: none; stroke: #000000; stroke-width: 1.5; stroke-linecap: square"/>
   </g>
   <g id="line2d_28">
    <path d="M 7.2 236.049535 
L 107.490996 236.049535 
" clip-path="url(#pec10f1f79b)" style="fill: none; stroke: #000000; stroke-width: 1.5; stroke-linecap: square"/>
   </g>
   <g id="line2d_29">
    <path d="M 107.490996 297.43733 
L 107.490996 174.66174 
" clip-path="url(#pec10f1f79b)" style="fill: none; stroke: #000000; stroke-width: 1.5; stroke-linecap: square"/>
   </g>
   <g id="line2d_30">
    <path d="M 7.2 174.66174 
L 107.490996 174.66174 
" clip-path="url(#pec10f1f79b)" style="fill: none; stroke: #000000; stroke-width: 1.5; stroke-linecap: square"/>
   </g>
   <g id="patch_23">
    <path d="M 7.2 297.43733 
L 7.2 174.66174 
" style="fill: none; stroke: #000000; stroke-width: 0.8; stroke-linejoin: miter; stroke-linecap: square"/>
   </g>
   <g id="patch_24">
    <path d="M 107.490996 297.43733 
L 107.490996 174.66174 
" style="fill: none; stroke: #000000; stroke-width: 0.8; stroke-linejoin: miter; stroke-linecap: square"/>
   </g>
   <g id="patch_25">
    <path d="M 7.2 297.43733 
L 107.490996 297.43733 
" style="fill: none; stroke: #000000; stroke-width: 0.8; stroke-linejoin: miter; stroke-linecap: square"/>
   </g>
   <g id="patch_26">
    <path d="M 7.2 174.66174 
L 107.490996 174.66174 
" style="fill: none; stroke: #000000; stroke-width: 0.8; stroke-linejoin: miter; stroke-linecap: square"/>
   </g>
   <g id="text_23">
    <text style="fill: #ffffff; font: 7px 'Arial'; text-anchor: start" x="13.468187" y="266.743433" transform="rotate(-0 13.468187 266.743433)">1.0</text>
   </g>
   <g id="text_24">
    <text style="font: 7px 'Arial'; text-anchor: start" x="13.468187" y="205.355638" transform="rotate(-0 13.468187 205.355638)">0.0</text>
   </g>
   <g id="text_25">
    <text style="font: 7px 'Arial'; text-anchor: start" x="63.613685" y="266.743433" transform="rotate(-0 63.613685 266.743433)">0.0</text>
   </g>
   <g id="text_26">
    <text style="fill: #ffffff; font: 7px 'Arial'; text-anchor: start" x="63.613685" y="205.355638" transform="rotate(-0 63.613685 205.355638)">1.0</text>
   </g>
  </g>
  <g id="axes_6">
   <g id="patch_27">
    <path d="M 127.549195 297.43733 
L 227.840192 297.43733 
L 227.840192 174.66174 
L 127.549195 174.66174 
z
" style="fill: #ffffff"/>
   </g>
   <g id="PolyCollection_21">
    <defs>
     <path id="m373b2b56ae" d="M 127.549195 -79.377795 
L 127.549195 -17.99 
L 177.694694 -17.99 
L 177.694694 -79.377795 
L 177.694694 -79.377795 
L 127.549195 -79.377795 
z
" style="stroke: #000000"/>
    </defs>
    <g clip-path="url(#pe5e7c839e1)">
     <use xlink:href="#m373b2b56ae" x="0" y="315.42733" style="stroke: #000000"/>
    </g>
   </g>
   <g id="PolyCollection_22">
    <defs>
     <path id="m72deeee60a" d="M 127.549195 -140.765591 
L 127.549195 -79.377795 
L 177.694694 -79.377795 
L 177.694694 -140.765591 
L 177.694694 -140.765591 
L 127.549195 -140.765591 
z
" style="stroke: #ffffff"/>
    </defs>
    <g clip-path="url(#pe5e7c839e1)">
     <use xlink:href="#m72deeee60a" x="0" y="315.42733" style="fill: #ffffff; stroke: #ffffff"/>
    </g>
   </g>
   <g id="PolyCollection_23">
    <defs>
     <path id="m9ba352b535" d="M 177.694694 -79.377795 
L 177.694694 -17.99 
L 227.840192 -17.99 
L 227.840192 -79.377795 
L 227.840192 -79.377795 
L 177.694694 -79.377795 
z
" style="stroke: #ffffff"/>
    </defs>
    <g clip-path="url(#pe5e7c839e1)">
     <use xlink:href="#m9ba352b535" x="0" y="315.42733" style="fill: #ffffff; stroke: #ffffff"/>
    </g>
   </g>
   <g id="PolyCollection_24">
    <defs>
     <path id="m61be0a38ec" d="M 177.694694 -140.765591 
L 177.694694 -79.377795 
L 227.840192 -79.377795 
L 227.840192 -140.765591 
L 227.840192 -140.765591 
L 177.694694 -140.765591 
z
" style="stroke: #000000"/>
    </defs>
    <g clip-path="url(#pe5e7c839e1)">
     <use xlink:href="#m61be0a38ec" x="0" y="315.42733" style="stroke: #000000"/>
    </g>
   </g>
   <g id="matplotlib.axis_11">
    <g id="text_27">
     <!-- Forecasting time $20$ $s$ -->
     <g transform="translate(143.569694 306.68733)">
      <text>
       <tspan style="font: 7px 'Arial'" x="0 4.275879 8.168945 10.5 14.393066 17.893066 21.786133 25.286133 27.230957 28.786133 32.679199 36.572266 38.51709 40.461914 42.01709 47.848145 51.741211 62.593262" y="-0.796875">Forecasting time  </tspan>
       <tspan style="font: 7px 'DejaVu Sans'" x="53.686035 58.139648" y="-0.796875">20</tspan>
       <tspan style="font: oblique 7px 'DejaVu Sans'" x="64.538086" y="-0.796875">s</tspan>
      </text>
     </g>
    </g>
   </g>
   <g id="matplotlib.axis_12"/>
   <g id="line2d_31">
    <path d="M 127.549195 297.43733 
L 127.549195 174.66174 
" clip-path="url(#pe5e7c839e1)" style="fill: none; stroke: #000000; stroke-width: 1.5; stroke-linecap: square"/>
   </g>
   <g id="line2d_32">
    <path d="M 127.549195 297.43733 
L 227.840192 297.43733 
" clip-path="url(#pe5e7c839e1)" style="fill: none; stroke: #000000; stroke-width: 1.5; stroke-linecap: square"/>
   </g>
   <g id="line2d_33">
    <path d="M 177.694694 297.43733 
L 177.694694 174.66174 
" clip-path="url(#pe5e7c839e1)" style="fill: none; stroke: #000000; stroke-width: 1.5; stroke-linecap: square"/>
   </g>
   <g id="line2d_34">
    <path d="M 127.549195 236.049535 
L 227.840192 236.049535 
" clip-path="url(#pe5e7c839e1)" style="fill: none; stroke: #000000; stroke-width: 1.5; stroke-linecap: square"/>
   </g>
   <g id="line2d_35">
    <path d="M 227.840192 297.43733 
L 227.840192 174.66174 
" clip-path="url(#pe5e7c839e1)" style="fill: none; stroke: #000000; stroke-width: 1.5; stroke-linecap: square"/>
   </g>
   <g id="line2d_36">
    <path d="M 127.549195 174.66174 
L 227.840192 174.66174 
" clip-path="url(#pe5e7c839e1)" style="fill: none; stroke: #000000; stroke-width: 1.5; stroke-linecap: square"/>
   </g>
   <g id="patch_28">
    <path d="M 127.549195 297.43733 
L 127.549195 174.66174 
" style="fill: none; stroke: #000000; stroke-width: 0.8; stroke-linejoin: miter; stroke-linecap: square"/>
   </g>
   <g id="patch_29">
    <path d="M 227.840192 297.43733 
L 227.840192 174.66174 
" style="fill: none; stroke: #000000; stroke-width: 0.8; stroke-linejoin: miter; stroke-linecap: square"/>
   </g>
   <g id="patch_30">
    <path d="M 127.549195 297.43733 
L 227.840192 297.43733 
" style="fill: none; stroke: #000000; stroke-width: 0.8; stroke-linejoin: miter; stroke-linecap: square"/>
   </g>
   <g id="patch_31">
    <path d="M 127.549195 174.66174 
L 227.840192 174.66174 
" style="fill: none; stroke: #000000; stroke-width: 0.8; stroke-linejoin: miter; stroke-linecap: square"/>
   </g>
   <g id="text_28">
    <text style="fill: #ffffff; font: 7px 'Arial'; text-anchor: start" x="133.817383" y="266.743433" transform="rotate(-0 133.817383 266.743433)">1.0</text>
   </g>
   <g id="text_29">
    <text style="font: 7px 'Arial'; text-anchor: start" x="133.817383" y="205.355638" transform="rotate(-0 133.817383 205.355638)">0.0</text>
   </g>
   <g id="text_30">
    <text style="font: 7px 'Arial'; text-anchor: start" x="183.962881" y="266.743433" transform="rotate(-0 183.962881 266.743433)">0.0</text>
   </g>
   <g id="text_31">
    <text style="fill: #ffffff; font: 7px 'Arial'; text-anchor: start" x="183.962881" y="205.355638" transform="rotate(-0 183.962881 205.355638)">1.0</text>
   </g>
  </g>
  <g id="axes_7">
   <g id="patch_32">
    <path d="M 247.898391 297.43733 
L 348.189387 297.43733 
L 348.189387 174.66174 
L 247.898391 174.66174 
z
" style="fill: #ffffff"/>
   </g>
   <g id="PolyCollection_25">
    <defs>
     <path id="mf91d597b9e" d="M 247.898391 -79.377795 
L 247.898391 -17.99 
L 298.043889 -17.99 
L 298.043889 -79.377795 
L 298.043889 -79.377795 
L 247.898391 -79.377795 
z
" style="stroke: #000000"/>
    </defs>
    <g clip-path="url(#p2ef5b3f17c)">
     <use xlink:href="#mf91d597b9e" x="0" y="315.42733" style="stroke: #000000"/>
    </g>
   </g>
   <g id="PolyCollection_26">
    <defs>
     <path id="m90898423cc" d="M 247.898391 -140.765591 
L 247.898391 -79.377795 
L 298.043889 -79.377795 
L 298.043889 -140.765591 
L 298.043889 -140.765591 
L 247.898391 -140.765591 
z
" style="stroke: #ffffff"/>
    </defs>
    <g clip-path="url(#p2ef5b3f17c)">
     <use xlink:href="#m90898423cc" x="0" y="315.42733" style="fill: #ffffff; stroke: #ffffff"/>
    </g>
   </g>
   <g id="PolyCollection_27">
    <defs>
     <path id="maebadd9469" d="M 298.043889 -79.377795 
L 298.043889 -17.99 
L 348.189387 -17.99 
L 348.189387 -79.377795 
L 348.189387 -79.377795 
L 298.043889 -79.377795 
z
" style="stroke: #ffffff"/>
    </defs>
    <g clip-path="url(#p2ef5b3f17c)">
     <use xlink:href="#maebadd9469" x="0" y="315.42733" style="fill: #ffffff; stroke: #ffffff"/>
    </g>
   </g>
   <g id="PolyCollection_28">
    <defs>
     <path id="m27eaeb3611" d="M 298.043889 -140.765591 
L 298.043889 -79.377795 
L 348.189387 -79.377795 
L 348.189387 -140.765591 
L 348.189387 -140.765591 
L 298.043889 -140.765591 
z
" style="stroke: #000000"/>
    </defs>
    <g clip-path="url(#p2ef5b3f17c)">
     <use xlink:href="#m27eaeb3611" x="0" y="315.42733" style="stroke: #000000"/>
    </g>
   </g>
   <g id="matplotlib.axis_13">
    <g id="text_32">
     <!-- Forecasting time $30$ $s$ -->
     <g transform="translate(263.918889 306.68733)">
      <text>
       <tspan style="font: 7px 'Arial'" x="0 4.275879 8.168945 10.5 14.393066 17.893066 21.786133 25.286133 27.230957 28.786133 32.679199 36.572266 38.51709 40.461914 42.01709 47.848145 51.741211 62.593262" y="-0.796875">Forecasting time  </tspan>
       <tspan style="font: 7px 'DejaVu Sans'" x="53.686035 58.139648" y="-0.796875">30</tspan>
       <tspan style="font: oblique 7px 'DejaVu Sans'" x="64.538086" y="-0.796875">s</tspan>
      </text>
     </g>
    </g>
   </g>
   <g id="matplotlib.axis_14">
    <g id="ytick_1">
     <g id="line2d_37">
      <defs>
       <path id="m104caee552" d="M 0 0 
L 3.5 0 
" style="stroke: #000000; stroke-width: 0.8"/>
      </defs>
      <g>
       <use xlink:href="#m104caee552" x="348.189387" y="266.743433" style="stroke: #000000; stroke-width: 0.8"/>
      </g>
     </g>
     <g id="text_33">
      <text style="font: 7px 'Arial'; text-anchor: start" x="355.189387" y="269.248667" transform="rotate(-0 355.189387 269.248667)">LSTM Linear</text>
     </g>
    </g>
    <g id="ytick_2">
     <g id="line2d_38">
      <g>
       <use xlink:href="#m104caee552" x="348.189387" y="205.355638" style="stroke: #000000; stroke-width: 0.8"/>
      </g>
     </g>
     <g id="text_34">
      <text style="font: 7px 'Arial'; text-anchor: start" x="355.189387" y="207.860872" transform="rotate(-0 355.189387 207.860872)">UniTS</text>
     </g>
    </g>
   </g>
   <g id="line2d_39">
    <path d="M 247.898391 297.43733 
L 247.898391 174.66174 
" clip-path="url(#p2ef5b3f17c)" style="fill: none; stroke: #000000; stroke-width: 1.5; stroke-linecap: square"/>
   </g>
   <g id="line2d_40">
    <path d="M 247.898391 297.43733 
L 348.189387 297.43733 
" clip-path="url(#p2ef5b3f17c)" style="fill: none; stroke: #000000; stroke-width: 1.5; stroke-linecap: square"/>
   </g>
   <g id="line2d_41">
    <path d="M 298.043889 297.43733 
L 298.043889 174.66174 
" clip-path="url(#p2ef5b3f17c)" style="fill: none; stroke: #000000; stroke-width: 1.5; stroke-linecap: square"/>
   </g>
   <g id="line2d_42">
    <path d="M 247.898391 236.049535 
L 348.189387 236.049535 
" clip-path="url(#p2ef5b3f17c)" style="fill: none; stroke: #000000; stroke-width: 1.5; stroke-linecap: square"/>
   </g>
   <g id="line2d_43">
    <path d="M 348.189387 297.43733 
L 348.189387 174.66174 
" clip-path="url(#p2ef5b3f17c)" style="fill: none; stroke: #000000; stroke-width: 1.5; stroke-linecap: square"/>
   </g>
   <g id="line2d_44">
    <path d="M 247.898391 174.66174 
L 348.189387 174.66174 
" clip-path="url(#p2ef5b3f17c)" style="fill: none; stroke: #000000; stroke-width: 1.5; stroke-linecap: square"/>
   </g>
   <g id="patch_33">
    <path d="M 247.898391 297.43733 
L 247.898391 174.66174 
" style="fill: none; stroke: #000000; stroke-width: 0.8; stroke-linejoin: miter; stroke-linecap: square"/>
   </g>
   <g id="patch_34">
    <path d="M 348.189387 297.43733 
L 348.189387 174.66174 
" style="fill: none; stroke: #000000; stroke-width: 0.8; stroke-linejoin: miter; stroke-linecap: square"/>
   </g>
   <g id="patch_35">
    <path d="M 247.898391 297.43733 
L 348.189387 297.43733 
" style="fill: none; stroke: #000000; stroke-width: 0.8; stroke-linejoin: miter; stroke-linecap: square"/>
   </g>
   <g id="patch_36">
    <path d="M 247.898391 174.66174 
L 348.189387 174.66174 
" style="fill: none; stroke: #000000; stroke-width: 0.8; stroke-linejoin: miter; stroke-linecap: square"/>
   </g>
   <g id="text_35">
    <text style="fill: #ffffff; font: 7px 'Arial'; text-anchor: start" x="254.166578" y="266.743433" transform="rotate(-0 254.166578 266.743433)">1.0</text>
   </g>
   <g id="text_36">
    <text style="font: 7px 'Arial'; text-anchor: start" x="254.166578" y="205.355638" transform="rotate(-0 254.166578 205.355638)">0.0</text>
   </g>
   <g id="text_37">
    <text style="font: 7px 'Arial'; text-anchor: start" x="304.312076" y="266.743433" transform="rotate(-0 304.312076 266.743433)">0.0</text>
   </g>
   <g id="text_38">
    <text style="fill: #ffffff; font: 7px 'Arial'; text-anchor: start" x="304.312076" y="205.355638" transform="rotate(-0 304.312076 205.355638)">1.0</text>
   </g>
  </g>
 </g>
 <defs>
  <clipPath id="p8ffe8f9b11">
   <rect x="7.2" y="27.331031" width="100.290996" height="122.775591"/>
  </clipPath>
  <clipPath id="p1867a6dc60">
   <rect x="127.549195" y="27.331031" width="100.290996" height="122.775591"/>
  </clipPath>
  <clipPath id="pdfc9ed6bdf">
   <rect x="247.898391" y="27.331031" width="100.290996" height="122.775591"/>
  </clipPath>
  <clipPath id="p96f8bff170">
   <rect x="368.247586" y="27.331031" width="100.290996" height="122.775591"/>
  </clipPath>
  <clipPath id="pec10f1f79b">
   <rect x="7.2" y="174.66174" width="100.290996" height="122.775591"/>
  </clipPath>
  <clipPath id="pe5e7c839e1">
   <rect x="127.549195" y="174.66174" width="100.290996" height="122.775591"/>
  </clipPath>
  <clipPath id="p2ef5b3f17c">
   <rect x="247.898391" y="174.66174" width="100.290996" height="122.775591"/>
  </clipPath>
 </defs>
</svg>
