<?xml version="1.0" encoding="utf-8" standalone="no"?>
<!DOCTYPE svg PUBLIC "-//W3C//DTD SVG 1.1//EN"
  "http://www.w3.org/Graphics/SVG/1.1/DTD/svg11.dtd">
<svg xmlns:xlink="http://www.w3.org/1999/xlink" width="475.738583pt" height="313.795893pt" viewBox="0 0 475.738583 313.795893" xmlns="http://www.w3.org/2000/svg" version="1.1">
 <metadata>
  <rdf:RDF xmlns:dc="http://purl.org/dc/elements/1.1/" xmlns:cc="http://creativecommons.org/ns#" xmlns:rdf="http://www.w3.org/1999/02/22-rdf-syntax-ns#">
   <cc:Work>
    <dc:type rdf:resource="http://purl.org/dc/dcmitype/StillImage"/>
    <dc:date>2024-10-28T16:23:30.624132</dc:date>
    <dc:format>image/svg+xml</dc:format>
    <dc:creator>
     <cc:Agent>
      <dc:title>Matplotlib v3.7.0, https://matplotlib.org/</dc:title>
     </cc:Agent>
    </dc:creator>
   </cc:Work>
  </rdf:RDF>
 </metadata>
 <defs>
  <style type="text/css">*{stroke-linejoin: round; stroke-linecap: butt}</style>
 </defs>
 <g id="figure_1">
  <g id="patch_1">
   <path d="M 0 313.795893 
L 475.738583 313.795893 
L 475.738583 0 
L 0 0 
z
" style="fill: #ffffff"/>
  </g>
  <g id="axes_1">
   <g id="patch_2">
    <path d="M 7.2 148.475184 
L 107.490996 148.475184 
L 107.490996 25.699594 
L 7.2 25.699594 
z
" style="fill: #ffffff"/>
   </g>
   <g id="PolyCollection_1">
    <defs>
     <path id="m79a0363f9c" d="M 7.2 -226.708504 
L 7.2 -165.320709 
L 57.345498 -165.320709 
L 57.345498 -226.708504 
L 57.345498 -226.708504 
L 7.2 -226.708504 
z
" style="stroke: #000000"/>
    </defs>
    <g clip-path="url(#p807d45166f)">
     <use xlink:href="#m79a0363f9c" x="0" y="313.795893" style="stroke: #000000"/>
    </g>
   </g>
   <g id="PolyCollection_2">
    <defs>
     <path id="m89b4ea63ba" d="M 7.2 -288.096299 
L 7.2 -226.708504 
L 57.345498 -226.708504 
L 57.345498 -288.096299 
L 57.345498 -288.096299 
L 7.2 -288.096299 
z
" style="stroke: #fefefe"/>
    </defs>
    <g clip-path="url(#p807d45166f)">
     <use xlink:href="#m89b4ea63ba" x="0" y="313.795893" style="fill: #fefefe; stroke: #fefefe"/>
    </g>
   </g>
   <g id="PolyCollection_3">
    <defs>
     <path id="m6508fb6c6e" d="M 57.345498 -226.708504 
L 57.345498 -165.320709 
L 107.490996 -165.320709 
L 107.490996 -226.708504 
L 107.490996 -226.708504 
L 57.345498 -226.708504 
z
" style="stroke: #fefefe"/>
    </defs>
    <g clip-path="url(#p807d45166f)">
     <use xlink:href="#m6508fb6c6e" x="0" y="313.795893" style="fill: #fefefe; stroke: #fefefe"/>
    </g>
   </g>
   <g id="PolyCollection_4">
    <defs>
     <path id="me1839957f6" d="M 57.345498 -288.096299 
L 57.345498 -226.708504 
L 107.490996 -226.708504 
L 107.490996 -288.096299 
L 107.490996 -288.096299 
L 57.345498 -288.096299 
z
" style="stroke: #000000"/>
    </defs>
    <g clip-path="url(#p807d45166f)">
     <use xlink:href="#me1839957f6" x="0" y="313.795893" style="stroke: #000000"/>
    </g>
   </g>
   <g id="matplotlib.axis_1">
    <g id="text_1">
     <!-- Forecasting time $2$ $s$ -->
     <g transform="translate(25.460498 157.725184)">
      <text>
       <tspan style="font: 7px 'Arial'" x="0 4.275879 8.168945 10.5 14.393066 17.893066 21.786133 25.286133 27.230957 28.786133 32.679199 36.572266 38.51709 40.461914 42.01709 47.848145 51.741211 58.139648" y="-0.796875">Forecasting time  </tspan>
       <tspan style="font: 7px 'DejaVu Sans'" x="53.686035" y="-0.796875">2</tspan>
       <tspan style="font: oblique 7px 'DejaVu Sans'" x="60.084473" y="-0.796875">s</tspan>
      </text>
     </g>
    </g>
   </g>
   <g id="matplotlib.axis_2"/>
   <g id="line2d_1">
    <path d="M 7.2 148.475184 
L 7.2 25.699594 
" clip-path="url(#p807d45166f)" style="fill: none; stroke: #000000; stroke-width: 1.5; stroke-linecap: square"/>
   </g>
   <g id="line2d_2">
    <path d="M 7.2 148.475184 
L 107.490996 148.475184 
" clip-path="url(#p807d45166f)" style="fill: none; stroke: #000000; stroke-width: 1.5; stroke-linecap: square"/>
   </g>
   <g id="line2d_3">
    <path d="M 57.345498 148.475184 
L 57.345498 25.699594 
" clip-path="url(#p807d45166f)" style="fill: none; stroke: #000000; stroke-width: 1.5; stroke-linecap: square"/>
   </g>
   <g id="line2d_4">
    <path d="M 7.2 87.087389 
L 107.490996 87.087389 
" clip-path="url(#p807d45166f)" style="fill: none; stroke: #000000; stroke-width: 1.5; stroke-linecap: square"/>
   </g>
   <g id="line2d_5">
    <path d="M 107.490996 148.475184 
L 107.490996 25.699594 
" clip-path="url(#p807d45166f)" style="fill: none; stroke: #000000; stroke-width: 1.5; stroke-linecap: square"/>
   </g>
   <g id="line2d_6">
    <path d="M 7.2 25.699594 
L 107.490996 25.699594 
" clip-path="url(#p807d45166f)" style="fill: none; stroke: #000000; stroke-width: 1.5; stroke-linecap: square"/>
   </g>
   <g id="patch_3">
    <path d="M 7.2 148.475184 
L 7.2 25.699594 
" style="fill: none; stroke: #000000; stroke-width: 0.8; stroke-linejoin: miter; stroke-linecap: square"/>
   </g>
   <g id="patch_4">
    <path d="M 107.490996 148.475184 
L 107.490996 25.699594 
" style="fill: none; stroke: #000000; stroke-width: 0.8; stroke-linejoin: miter; stroke-linecap: square"/>
   </g>
   <g id="patch_5">
    <path d="M 7.2 148.475184 
L 107.490996 148.475184 
" style="fill: none; stroke: #000000; stroke-width: 0.8; stroke-linejoin: miter; stroke-linecap: square"/>
   </g>
   <g id="patch_6">
    <path d="M 7.2 25.699594 
L 107.490996 25.699594 
" style="fill: none; stroke: #000000; stroke-width: 0.8; stroke-linejoin: miter; stroke-linecap: square"/>
   </g>
   <g id="text_2">
    <text style="fill: #ffffff; font: 7px 'Arial'; text-anchor: start" x="10.334094" y="117.781287" transform="rotate(-0 10.334094 117.781287)">1.0</text>
   </g>
   <g id="text_3">
    <!-- $2.035$ -->
    <g transform="translate(10.334094 48.859741)">
     <text>
      <tspan style="font: 7px 'DejaVu Sans'" x="0 4.453613 6.678711 11.132324 15.585938" y="-0.796875">2.035</tspan>
     </text>
    </g>
    <!-- $\times 10^{-3}$ -->
    <g transform="translate(10.334094 56.393491)">
     <text>
      <tspan style="font: 7px 'DejaVu Sans'" x="0 5.865234 10.318848" y="-0.6781249999999996">×10</tspan>
      <tspan style="font: 4.9px 'DejaVu Sans'" x="14.839453 18.945117" y="-3.3578124999999996">−3</tspan>
     </text>
    </g>
   </g>
   <g id="text_4">
    <!-- $2.035$ -->
    <g transform="translate(60.479592 110.247537)">
     <text>
      <tspan style="font: 7px 'DejaVu Sans'" x="0 4.453613 6.678711 11.132324 15.585938" y="-0.796875">2.035</tspan>
     </text>
    </g>
    <!-- $\times 10^{-3}$ -->
    <g transform="translate(60.479592 117.781287)">
     <text>
      <tspan style="font: 7px 'DejaVu Sans'" x="0 5.865234 10.318848" y="-0.6781249999999996">×10</tspan>
      <tspan style="font: 4.9px 'DejaVu Sans'" x="14.839453 18.945117" y="-3.3578124999999996">−3</tspan>
     </text>
    </g>
   </g>
   <g id="text_5">
    <text style="fill: #ffffff; font: 7px 'Arial'; text-anchor: start" x="60.479592" y="56.393491" transform="rotate(-0 60.479592 56.393491)">1.0</text>
   </g>
  </g>
  <g id="axes_2">
   <g id="patch_7">
    <path d="M 127.549195 148.475184 
L 227.840192 148.475184 
L 227.840192 25.699594 
L 127.549195 25.699594 
z
" style="fill: #ffffff"/>
   </g>
   <g id="PolyCollection_5">
    <defs>
     <path id="m874b4a008e" d="M 127.549195 -226.708504 
L 127.549195 -165.320709 
L 177.694694 -165.320709 
L 177.694694 -226.708504 
L 177.694694 -226.708504 
L 127.549195 -226.708504 
z
" style="stroke: #000000"/>
    </defs>
    <g clip-path="url(#pc196e57f96)">
     <use xlink:href="#m874b4a008e" x="0" y="313.795893" style="stroke: #000000"/>
    </g>
   </g>
   <g id="PolyCollection_6">
    <defs>
     <path id="m447ec03c67" d="M 127.549195 -288.096299 
L 127.549195 -226.708504 
L 177.694694 -226.708504 
L 177.694694 -288.096299 
L 177.694694 -288.096299 
L 127.549195 -288.096299 
z
" style="stroke: #fcfcfc"/>
    </defs>
    <g clip-path="url(#pc196e57f96)">
     <use xlink:href="#m447ec03c67" x="0" y="313.795893" style="fill: #fcfcfc; stroke: #fcfcfc"/>
    </g>
   </g>
   <g id="PolyCollection_7">
    <defs>
     <path id="m866a09b07b" d="M 177.694694 -226.708504 
L 177.694694 -165.320709 
L 227.840192 -165.320709 
L 227.840192 -226.708504 
L 227.840192 -226.708504 
L 177.694694 -226.708504 
z
" style="stroke: #fcfcfc"/>
    </defs>
    <g clip-path="url(#pc196e57f96)">
     <use xlink:href="#m866a09b07b" x="0" y="313.795893" style="fill: #fcfcfc; stroke: #fcfcfc"/>
    </g>
   </g>
   <g id="PolyCollection_8">
    <defs>
     <path id="m9153842f1b" d="M 177.694694 -288.096299 
L 177.694694 -226.708504 
L 227.840192 -226.708504 
L 227.840192 -288.096299 
L 227.840192 -288.096299 
L 177.694694 -288.096299 
z
" style="stroke: #000000"/>
    </defs>
    <g clip-path="url(#pc196e57f96)">
     <use xlink:href="#m9153842f1b" x="0" y="313.795893" style="stroke: #000000"/>
    </g>
   </g>
   <g id="matplotlib.axis_3">
    <g id="text_6">
     <!-- Forecasting time $3$ $s$ -->
     <g transform="translate(145.809694 157.725184)">
      <text>
       <tspan style="font: 7px 'Arial'" x="0 4.275879 8.168945 10.5 14.393066 17.893066 21.786133 25.286133 27.230957 28.786133 32.679199 36.572266 38.51709 40.461914 42.01709 47.848145 51.741211 58.139648" y="-0.796875">Forecasting time  </tspan>
       <tspan style="font: 7px 'DejaVu Sans'" x="53.686035" y="-0.796875">3</tspan>
       <tspan style="font: oblique 7px 'DejaVu Sans'" x="60.084473" y="-0.796875">s</tspan>
      </text>
     </g>
    </g>
   </g>
   <g id="matplotlib.axis_4"/>
   <g id="line2d_7">
    <path d="M 127.549195 148.475184 
L 127.549195 25.699594 
" clip-path="url(#pc196e57f96)" style="fill: none; stroke: #000000; stroke-width: 1.5; stroke-linecap: square"/>
   </g>
   <g id="line2d_8">
    <path d="M 127.549195 148.475184 
L 227.840192 148.475184 
" clip-path="url(#pc196e57f96)" style="fill: none; stroke: #000000; stroke-width: 1.5; stroke-linecap: square"/>
   </g>
   <g id="line2d_9">
    <path d="M 177.694694 148.475184 
L 177.694694 25.699594 
" clip-path="url(#pc196e57f96)" style="fill: none; stroke: #000000; stroke-width: 1.5; stroke-linecap: square"/>
   </g>
   <g id="line2d_10">
    <path d="M 127.549195 87.087389 
L 227.840192 87.087389 
" clip-path="url(#pc196e57f96)" style="fill: none; stroke: #000000; stroke-width: 1.5; stroke-linecap: square"/>
   </g>
   <g id="line2d_11">
    <path d="M 227.840192 148.475184 
L 227.840192 25.699594 
" clip-path="url(#pc196e57f96)" style="fill: none; stroke: #000000; stroke-width: 1.5; stroke-linecap: square"/>
   </g>
   <g id="line2d_12">
    <path d="M 127.549195 25.699594 
L 227.840192 25.699594 
" clip-path="url(#pc196e57f96)" style="fill: none; stroke: #000000; stroke-width: 1.5; stroke-linecap: square"/>
   </g>
   <g id="patch_8">
    <path d="M 127.549195 148.475184 
L 127.549195 25.699594 
" style="fill: none; stroke: #000000; stroke-width: 0.8; stroke-linejoin: miter; stroke-linecap: square"/>
   </g>
   <g id="patch_9">
    <path d="M 227.840192 148.475184 
L 227.840192 25.699594 
" style="fill: none; stroke: #000000; stroke-width: 0.8; stroke-linejoin: miter; stroke-linecap: square"/>
   </g>
   <g id="patch_10">
    <path d="M 127.549195 148.475184 
L 227.840192 148.475184 
" style="fill: none; stroke: #000000; stroke-width: 0.8; stroke-linejoin: miter; stroke-linecap: square"/>
   </g>
   <g id="patch_11">
    <path d="M 127.549195 25.699594 
L 227.840192 25.699594 
" style="fill: none; stroke: #000000; stroke-width: 0.8; stroke-linejoin: miter; stroke-linecap: square"/>
   </g>
   <g id="text_7">
    <text style="fill: #ffffff; font: 7px 'Arial'; text-anchor: start" x="130.683289" y="117.781287" transform="rotate(-0 130.683289 117.781287)">1.0</text>
   </g>
   <g id="text_8">
    <!-- $1.043$ -->
    <g transform="translate(130.683289 48.859741)">
     <text>
      <tspan style="font: 7px 'DejaVu Sans'" x="0 4.453613 6.678711 11.132324 15.585938" y="-0.796875">1.043</tspan>
     </text>
    </g>
    <!-- $\times 10^{-2}$ -->
    <g transform="translate(130.683289 56.393491)">
     <text>
      <tspan style="font: 7px 'DejaVu Sans'" x="0 5.865234 10.318848" y="-0.6781249999999996">×10</tspan>
      <tspan style="font: 4.9px 'DejaVu Sans'" x="14.839453 18.945117" y="-3.3578124999999996">−2</tspan>
     </text>
    </g>
   </g>
   <g id="text_9">
    <!-- $1.043$ -->
    <g transform="translate(180.828787 110.247537)">
     <text>
      <tspan style="font: 7px 'DejaVu Sans'" x="0 4.453613 6.678711 11.132324 15.585938" y="-0.796875">1.043</tspan>
     </text>
    </g>
    <!-- $\times 10^{-2}$ -->
    <g transform="translate(180.828787 117.781287)">
     <text>
      <tspan style="font: 7px 'DejaVu Sans'" x="0 5.865234 10.318848" y="-0.6781249999999996">×10</tspan>
      <tspan style="font: 4.9px 'DejaVu Sans'" x="14.839453 18.945117" y="-3.3578124999999996">−2</tspan>
     </text>
    </g>
   </g>
   <g id="text_10">
    <text style="fill: #ffffff; font: 7px 'Arial'; text-anchor: start" x="180.828787" y="56.393491" transform="rotate(-0 180.828787 56.393491)">1.0</text>
   </g>
   <g id="text_11">
    <text style="font: 7px 'Arial'" transform="translate(167.574772 12.295781)">Speed</text>
    <text style="font: 7px 'Arial'" transform="translate(170.110084 19.699594)">MSE</text>
   </g>
  </g>
  <g id="axes_3">
   <g id="patch_12">
    <path d="M 247.898391 148.475184 
L 348.189387 148.475184 
L 348.189387 25.699594 
L 247.898391 25.699594 
z
" style="fill: #ffffff"/>
   </g>
   <g id="PolyCollection_9">
    <defs>
     <path id="m6f8478ad15" d="M 247.898391 -226.708504 
L 247.898391 -165.320709 
L 298.043889 -165.320709 
L 298.043889 -226.708504 
L 298.043889 -226.708504 
L 247.898391 -226.708504 
z
" style="stroke: #000000"/>
    </defs>
    <g clip-path="url(#p0c3964ac61)">
     <use xlink:href="#m6f8478ad15" x="0" y="313.795893" style="stroke: #000000"/>
    </g>
   </g>
   <g id="PolyCollection_10">
    <defs>
     <path id="m1045229585" d="M 247.898391 -288.096299 
L 247.898391 -226.708504 
L 298.043889 -226.708504 
L 298.043889 -288.096299 
L 298.043889 -288.096299 
L 247.898391 -288.096299 
z
" style="stroke: #ffffff"/>
    </defs>
    <g clip-path="url(#p0c3964ac61)">
     <use xlink:href="#m1045229585" x="0" y="313.795893" style="fill: #ffffff; stroke: #ffffff"/>
    </g>
   </g>
   <g id="PolyCollection_11">
    <defs>
     <path id="ma3e0be5915" d="M 298.043889 -226.708504 
L 298.043889 -165.320709 
L 348.189387 -165.320709 
L 348.189387 -226.708504 
L 348.189387 -226.708504 
L 298.043889 -226.708504 
z
" style="stroke: #ffffff"/>
    </defs>
    <g clip-path="url(#p0c3964ac61)">
     <use xlink:href="#ma3e0be5915" x="0" y="313.795893" style="fill: #ffffff; stroke: #ffffff"/>
    </g>
   </g>
   <g id="PolyCollection_12">
    <defs>
     <path id="m297cefce41" d="M 298.043889 -288.096299 
L 298.043889 -226.708504 
L 348.189387 -226.708504 
L 348.189387 -288.096299 
L 348.189387 -288.096299 
L 298.043889 -288.096299 
z
" style="stroke: #000000"/>
    </defs>
    <g clip-path="url(#p0c3964ac61)">
     <use xlink:href="#m297cefce41" x="0" y="313.795893" style="stroke: #000000"/>
    </g>
   </g>
   <g id="matplotlib.axis_5">
    <g id="text_12">
     <!-- Forecasting time $4$ $s$ -->
     <g transform="translate(266.158889 157.585184)">
      <text>
       <tspan style="font: 7px 'Arial'" x="0 4.275879 8.168945 10.5 14.393066 17.893066 21.786133 25.286133 27.230957 28.786133 32.679199 36.572266 38.51709 40.461914 42.01709 47.848145 51.741211 58.139648" y="-0.890625">Forecasting time  </tspan>
       <tspan style="font: 7px 'DejaVu Sans'" x="53.686035" y="-0.890625">4</tspan>
       <tspan style="font: oblique 7px 'DejaVu Sans'" x="60.084473" y="-0.890625">s</tspan>
      </text>
     </g>
    </g>
   </g>
   <g id="matplotlib.axis_6"/>
   <g id="line2d_13">
    <path d="M 247.898391 148.475184 
L 247.898391 25.699594 
" clip-path="url(#p0c3964ac61)" style="fill: none; stroke: #000000; stroke-width: 1.5; stroke-linecap: square"/>
   </g>
   <g id="line2d_14">
    <path d="M 247.898391 148.475184 
L 348.189387 148.475184 
" clip-path="url(#p0c3964ac61)" style="fill: none; stroke: #000000; stroke-width: 1.5; stroke-linecap: square"/>
   </g>
   <g id="line2d_15">
    <path d="M 298.043889 148.475184 
L 298.043889 25.699594 
" clip-path="url(#p0c3964ac61)" style="fill: none; stroke: #000000; stroke-width: 1.5; stroke-linecap: square"/>
   </g>
   <g id="line2d_16">
    <path d="M 247.898391 87.087389 
L 348.189387 87.087389 
" clip-path="url(#p0c3964ac61)" style="fill: none; stroke: #000000; stroke-width: 1.5; stroke-linecap: square"/>
   </g>
   <g id="line2d_17">
    <path d="M 348.189387 148.475184 
L 348.189387 25.699594 
" clip-path="url(#p0c3964ac61)" style="fill: none; stroke: #000000; stroke-width: 1.5; stroke-linecap: square"/>
   </g>
   <g id="line2d_18">
    <path d="M 247.898391 25.699594 
L 348.189387 25.699594 
" clip-path="url(#p0c3964ac61)" style="fill: none; stroke: #000000; stroke-width: 1.5; stroke-linecap: square"/>
   </g>
   <g id="patch_13">
    <path d="M 247.898391 148.475184 
L 247.898391 25.699594 
" style="fill: none; stroke: #000000; stroke-width: 0.8; stroke-linejoin: miter; stroke-linecap: square"/>
   </g>
   <g id="patch_14">
    <path d="M 348.189387 148.475184 
L 348.189387 25.699594 
" style="fill: none; stroke: #000000; stroke-width: 0.8; stroke-linejoin: miter; stroke-linecap: square"/>
   </g>
   <g id="patch_15">
    <path d="M 247.898391 148.475184 
L 348.189387 148.475184 
" style="fill: none; stroke: #000000; stroke-width: 0.8; stroke-linejoin: miter; stroke-linecap: square"/>
   </g>
   <g id="patch_16">
    <path d="M 247.898391 25.699594 
L 348.189387 25.699594 
" style="fill: none; stroke: #000000; stroke-width: 0.8; stroke-linejoin: miter; stroke-linecap: square"/>
   </g>
   <g id="text_13">
    <text style="fill: #ffffff; font: 7px 'Arial'; text-anchor: start" x="251.032485" y="117.781287" transform="rotate(-0 251.032485 117.781287)">1.0</text>
   </g>
   <g id="text_14">
    <!-- $4.256$ -->
    <g transform="translate(251.032485 48.859741)">
     <text>
      <tspan style="font: 7px 'DejaVu Sans'" x="0 4.453613 6.303711 10.757324 15.210938" y="-0.796875">4.256</tspan>
     </text>
    </g>
    <!-- $\times 10^{-6}$ -->
    <g transform="translate(251.032485 56.393491)">
     <text>
      <tspan style="font: 7px 'DejaVu Sans'" x="0 5.865234 10.318848" y="-0.6781249999999996">×10</tspan>
      <tspan style="font: 4.9px 'DejaVu Sans'" x="14.839453 18.945117" y="-3.3578124999999996">−6</tspan>
     </text>
    </g>
   </g>
   <g id="text_15">
    <!-- $4.256$ -->
    <g transform="translate(301.177983 110.247537)">
     <text>
      <tspan style="font: 7px 'DejaVu Sans'" x="0 4.453613 6.303711 10.757324 15.210938" y="-0.796875">4.256</tspan>
     </text>
    </g>
    <!-- $\times 10^{-6}$ -->
    <g transform="translate(301.177983 117.781287)">
     <text>
      <tspan style="font: 7px 'DejaVu Sans'" x="0 5.865234 10.318848" y="-0.6781249999999996">×10</tspan>
      <tspan style="font: 4.9px 'DejaVu Sans'" x="14.839453 18.945117" y="-3.3578124999999996">−6</tspan>
     </text>
    </g>
   </g>
   <g id="text_16">
    <text style="fill: #ffffff; font: 7px 'Arial'; text-anchor: start" x="301.177983" y="56.393491" transform="rotate(-0 301.177983 56.393491)">1.0</text>
   </g>
  </g>
  <g id="axes_4">
   <g id="patch_17">
    <path d="M 368.247586 148.475184 
L 468.538583 148.475184 
L 468.538583 25.699594 
L 368.247586 25.699594 
z
" style="fill: #ffffff"/>
   </g>
   <g id="PolyCollection_13">
    <defs>
     <path id="mb7989bfc19" d="M 368.247586 -226.708504 
L 368.247586 -165.320709 
L 418.393085 -165.320709 
L 418.393085 -226.708504 
L 418.393085 -226.708504 
L 368.247586 -226.708504 
z
" style="stroke: #000000"/>
    </defs>
    <g clip-path="url(#pd23a556d96)">
     <use xlink:href="#mb7989bfc19" x="0" y="313.795893" style="stroke: #000000"/>
    </g>
   </g>
   <g id="PolyCollection_14">
    <defs>
     <path id="mfb3b956558" d="M 368.247586 -288.096299 
L 368.247586 -226.708504 
L 418.393085 -226.708504 
L 418.393085 -288.096299 
L 418.393085 -288.096299 
L 368.247586 -288.096299 
z
" style="stroke: #ffffff"/>
    </defs>
    <g clip-path="url(#pd23a556d96)">
     <use xlink:href="#mfb3b956558" x="0" y="313.795893" style="fill: #ffffff; stroke: #ffffff"/>
    </g>
   </g>
   <g id="PolyCollection_15">
    <defs>
     <path id="m41d2312806" d="M 418.393085 -226.708504 
L 418.393085 -165.320709 
L 468.538583 -165.320709 
L 468.538583 -226.708504 
L 468.538583 -226.708504 
L 418.393085 -226.708504 
z
" style="stroke: #ffffff"/>
    </defs>
    <g clip-path="url(#pd23a556d96)">
     <use xlink:href="#m41d2312806" x="0" y="313.795893" style="fill: #ffffff; stroke: #ffffff"/>
    </g>
   </g>
   <g id="PolyCollection_16">
    <defs>
     <path id="m83412f0fbf" d="M 418.393085 -288.096299 
L 418.393085 -226.708504 
L 468.538583 -226.708504 
L 468.538583 -288.096299 
L 468.538583 -288.096299 
L 418.393085 -288.096299 
z
" style="stroke: #000000"/>
    </defs>
    <g clip-path="url(#pd23a556d96)">
     <use xlink:href="#m83412f0fbf" x="0" y="313.795893" style="stroke: #000000"/>
    </g>
   </g>
   <g id="matplotlib.axis_7">
    <g id="text_17">
     <!-- Forecasting time $5$ $s$ -->
     <g transform="translate(386.508085 157.585184)">
      <text>
       <tspan style="font: 7px 'Arial'" x="0 4.275879 8.168945 10.5 14.393066 17.893066 21.786133 25.286133 27.230957 28.786133 32.679199 36.572266 38.51709 40.461914 42.01709 47.848145 51.741211 58.139648" y="-0.890625">Forecasting time  </tspan>
       <tspan style="font: 7px 'DejaVu Sans'" x="53.686035" y="-0.890625">5</tspan>
       <tspan style="font: oblique 7px 'DejaVu Sans'" x="60.084473" y="-0.890625">s</tspan>
      </text>
     </g>
    </g>
   </g>
   <g id="matplotlib.axis_8"/>
   <g id="line2d_19">
    <path d="M 368.247586 148.475184 
L 368.247586 25.699594 
" clip-path="url(#pd23a556d96)" style="fill: none; stroke: #000000; stroke-width: 1.5; stroke-linecap: square"/>
   </g>
   <g id="line2d_20">
    <path d="M 368.247586 148.475184 
L 468.538583 148.475184 
" clip-path="url(#pd23a556d96)" style="fill: none; stroke: #000000; stroke-width: 1.5; stroke-linecap: square"/>
   </g>
   <g id="line2d_21">
    <path d="M 418.393085 148.475184 
L 418.393085 25.699594 
" clip-path="url(#pd23a556d96)" style="fill: none; stroke: #000000; stroke-width: 1.5; stroke-linecap: square"/>
   </g>
   <g id="line2d_22">
    <path d="M 368.247586 87.087389 
L 468.538583 87.087389 
" clip-path="url(#pd23a556d96)" style="fill: none; stroke: #000000; stroke-width: 1.5; stroke-linecap: square"/>
   </g>
   <g id="line2d_23">
    <path d="M 468.538583 148.475184 
L 468.538583 25.699594 
" clip-path="url(#pd23a556d96)" style="fill: none; stroke: #000000; stroke-width: 1.5; stroke-linecap: square"/>
   </g>
   <g id="line2d_24">
    <path d="M 368.247586 25.699594 
L 468.538583 25.699594 
" clip-path="url(#pd23a556d96)" style="fill: none; stroke: #000000; stroke-width: 1.5; stroke-linecap: square"/>
   </g>
   <g id="patch_18">
    <path d="M 368.247586 148.475184 
L 368.247586 25.699594 
" style="fill: none; stroke: #000000; stroke-width: 0.8; stroke-linejoin: miter; stroke-linecap: square"/>
   </g>
   <g id="patch_19">
    <path d="M 468.538583 148.475184 
L 468.538583 25.699594 
" style="fill: none; stroke: #000000; stroke-width: 0.8; stroke-linejoin: miter; stroke-linecap: square"/>
   </g>
   <g id="patch_20">
    <path d="M 368.247586 148.475184 
L 468.538583 148.475184 
" style="fill: none; stroke: #000000; stroke-width: 0.8; stroke-linejoin: miter; stroke-linecap: square"/>
   </g>
   <g id="patch_21">
    <path d="M 368.247586 25.699594 
L 468.538583 25.699594 
" style="fill: none; stroke: #000000; stroke-width: 0.8; stroke-linejoin: miter; stroke-linecap: square"/>
   </g>
   <g id="text_18">
    <text style="fill: #ffffff; font: 7px 'Arial'; text-anchor: start" x="371.38168" y="117.781287" transform="rotate(-0 371.38168 117.781287)">1.0</text>
   </g>
   <g id="text_19">
    <!-- $2.568$ -->
    <g transform="translate(371.38168 48.859741)">
     <text>
      <tspan style="font: 7px 'DejaVu Sans'" x="0 4.453613 6.678711 11.132324 15.585938" y="-0.796875">2.568</tspan>
     </text>
    </g>
    <!-- $\times 10^{-8}$ -->
    <g transform="translate(371.38168 56.393491)">
     <text>
      <tspan style="font: 7px 'DejaVu Sans'" x="0 5.865234 10.318848" y="-0.6781249999999996">×10</tspan>
      <tspan style="font: 4.9px 'DejaVu Sans'" x="14.839453 18.945117" y="-3.3578124999999996">−8</tspan>
     </text>
    </g>
   </g>
   <g id="text_20">
    <!-- $2.568$ -->
    <g transform="translate(421.527178 110.247537)">
     <text>
      <tspan style="font: 7px 'DejaVu Sans'" x="0 4.453613 6.678711 11.132324 15.585938" y="-0.796875">2.568</tspan>
     </text>
    </g>
    <!-- $\times 10^{-8}$ -->
    <g transform="translate(421.527178 117.781287)">
     <text>
      <tspan style="font: 7px 'DejaVu Sans'" x="0 5.865234 10.318848" y="-0.6781249999999996">×10</tspan>
      <tspan style="font: 4.9px 'DejaVu Sans'" x="14.839453 18.945117" y="-3.3578124999999996">−8</tspan>
     </text>
    </g>
   </g>
   <g id="text_21">
    <text style="fill: #ffffff; font: 7px 'Arial'; text-anchor: start" x="421.527178" y="56.393491" transform="rotate(-0 421.527178 56.393491)">1.0</text>
   </g>
  </g>
  <g id="axes_5">
   <g id="patch_22">
    <path d="M 7.2 295.805893 
L 107.490996 295.805893 
L 107.490996 173.030302 
L 7.2 173.030302 
z
" style="fill: #ffffff"/>
   </g>
   <g id="PolyCollection_17">
    <defs>
     <path id="m300284391f" d="M 7.2 -79.377795 
L 7.2 -17.99 
L 57.345498 -17.99 
L 57.345498 -79.377795 
L 57.345498 -79.377795 
L 7.2 -79.377795 
z
" style="stroke: #000000"/>
    </defs>
    <g clip-path="url(#pc011935c7b)">
     <use xlink:href="#m300284391f" x="0" y="313.795893" style="stroke: #000000"/>
    </g>
   </g>
   <g id="PolyCollection_18">
    <defs>
     <path id="me3c906a505" d="M 7.2 -140.765591 
L 7.2 -79.377795 
L 57.345498 -79.377795 
L 57.345498 -140.765591 
L 57.345498 -140.765591 
L 7.2 -140.765591 
z
" style="stroke: #ffffff"/>
    </defs>
    <g clip-path="url(#pc011935c7b)">
     <use xlink:href="#me3c906a505" x="0" y="313.795893" style="fill: #ffffff; stroke: #ffffff"/>
    </g>
   </g>
   <g id="PolyCollection_19">
    <defs>
     <path id="m415a3ec31c" d="M 57.345498 -79.377795 
L 57.345498 -17.99 
L 107.490996 -17.99 
L 107.490996 -79.377795 
L 107.490996 -79.377795 
L 57.345498 -79.377795 
z
" style="stroke: #ffffff"/>
    </defs>
    <g clip-path="url(#pc011935c7b)">
     <use xlink:href="#m415a3ec31c" x="0" y="313.795893" style="fill: #ffffff; stroke: #ffffff"/>
    </g>
   </g>
   <g id="PolyCollection_20">
    <defs>
     <path id="ma7e70bb4de" d="M 57.345498 -140.765591 
L 57.345498 -79.377795 
L 107.490996 -79.377795 
L 107.490996 -140.765591 
L 107.490996 -140.765591 
L 57.345498 -140.765591 
z
" style="stroke: #000000"/>
    </defs>
    <g clip-path="url(#pc011935c7b)">
     <use xlink:href="#ma7e70bb4de" x="0" y="313.795893" style="stroke: #000000"/>
    </g>
   </g>
   <g id="matplotlib.axis_9">
    <g id="text_22">
     <!-- Forecasting time $10$ $s$ -->
     <g transform="translate(23.220498 305.055893)">
      <text>
       <tspan style="font: 7px 'Arial'" x="0 4.275879 8.168945 10.5 14.393066 17.893066 21.786133 25.286133 27.230957 28.786133 32.679199 36.572266 38.51709 40.461914 42.01709 47.848145 51.741211 62.593262" y="-0.796875">Forecasting time  </tspan>
       <tspan style="font: 7px 'DejaVu Sans'" x="53.686035 58.139648" y="-0.796875">10</tspan>
       <tspan style="font: oblique 7px 'DejaVu Sans'" x="64.538086" y="-0.796875">s</tspan>
      </text>
     </g>
    </g>
   </g>
   <g id="matplotlib.axis_10"/>
   <g id="line2d_25">
    <path d="M 7.2 295.805893 
L 7.2 173.030302 
" clip-path="url(#pc011935c7b)" style="fill: none; stroke: #000000; stroke-width: 1.5; stroke-linecap: square"/>
   </g>
   <g id="line2d_26">
    <path d="M 7.2 295.805893 
L 107.490996 295.805893 
" clip-path="url(#pc011935c7b)" style="fill: none; stroke: #000000; stroke-width: 1.5; stroke-linecap: square"/>
   </g>
   <g id="line2d_27">
    <path d="M 57.345498 295.805893 
L 57.345498 173.030302 
" clip-path="url(#pc011935c7b)" style="fill: none; stroke: #000000; stroke-width: 1.5; stroke-linecap: square"/>
   </g>
   <g id="line2d_28">
    <path d="M 7.2 234.418098 
L 107.490996 234.418098 
" clip-path="url(#pc011935c7b)" style="fill: none; stroke: #000000; stroke-width: 1.5; stroke-linecap: square"/>
   </g>
   <g id="line2d_29">
    <path d="M 107.490996 295.805893 
L 107.490996 173.030302 
" clip-path="url(#pc011935c7b)" style="fill: none; stroke: #000000; stroke-width: 1.5; stroke-linecap: square"/>
   </g>
   <g id="line2d_30">
    <path d="M 7.2 173.030302 
L 107.490996 173.030302 
" clip-path="url(#pc011935c7b)" style="fill: none; stroke: #000000; stroke-width: 1.5; stroke-linecap: square"/>
   </g>
   <g id="patch_23">
    <path d="M 7.2 295.805893 
L 7.2 173.030302 
" style="fill: none; stroke: #000000; stroke-width: 0.8; stroke-linejoin: miter; stroke-linecap: square"/>
   </g>
   <g id="patch_24">
    <path d="M 107.490996 295.805893 
L 107.490996 173.030302 
" style="fill: none; stroke: #000000; stroke-width: 0.8; stroke-linejoin: miter; stroke-linecap: square"/>
   </g>
   <g id="patch_25">
    <path d="M 7.2 295.805893 
L 107.490996 295.805893 
" style="fill: none; stroke: #000000; stroke-width: 0.8; stroke-linejoin: miter; stroke-linecap: square"/>
   </g>
   <g id="patch_26">
    <path d="M 7.2 173.030302 
L 107.490996 173.030302 
" style="fill: none; stroke: #000000; stroke-width: 0.8; stroke-linejoin: miter; stroke-linecap: square"/>
   </g>
   <g id="text_23">
    <text style="fill: #ffffff; font: 7px 'Arial'; text-anchor: start" x="10.334094" y="265.111995" transform="rotate(-0 10.334094 265.111995)">1.0</text>
   </g>
   <g id="text_24">
    <!-- $2.568$ -->
    <g transform="translate(10.334094 196.19045)">
     <text>
      <tspan style="font: 7px 'DejaVu Sans'" x="0 4.453613 6.678711 11.132324 15.585938" y="-0.796875">2.568</tspan>
     </text>
    </g>
    <!-- $\times 10^{-8}$ -->
    <g transform="translate(10.334094 203.7242)">
     <text>
      <tspan style="font: 7px 'DejaVu Sans'" x="0 5.865234 10.318848" y="-0.6781249999999996">×10</tspan>
      <tspan style="font: 4.9px 'DejaVu Sans'" x="14.839453 18.945117" y="-3.3578124999999996">−8</tspan>
     </text>
    </g>
   </g>
   <g id="text_25">
    <!-- $2.568$ -->
    <g transform="translate(60.479592 257.578245)">
     <text>
      <tspan style="font: 7px 'DejaVu Sans'" x="0 4.453613 6.678711 11.132324 15.585938" y="-0.796875">2.568</tspan>
     </text>
    </g>
    <!-- $\times 10^{-8}$ -->
    <g transform="translate(60.479592 265.111995)">
     <text>
      <tspan style="font: 7px 'DejaVu Sans'" x="0 5.865234 10.318848" y="-0.6781249999999996">×10</tspan>
      <tspan style="font: 4.9px 'DejaVu Sans'" x="14.839453 18.945117" y="-3.3578124999999996">−8</tspan>
     </text>
    </g>
   </g>
   <g id="text_26">
    <text style="fill: #ffffff; font: 7px 'Arial'; text-anchor: start" x="60.479592" y="203.7242" transform="rotate(-0 60.479592 203.7242)">1.0</text>
   </g>
  </g>
  <g id="axes_6">
   <g id="patch_27">
    <path d="M 127.549195 295.805893 
L 227.840192 295.805893 
L 227.840192 173.030302 
L 127.549195 173.030302 
z
" style="fill: #ffffff"/>
   </g>
   <g id="PolyCollection_21">
    <defs>
     <path id="m3559c31d3a" d="M 127.549195 -79.377795 
L 127.549195 -17.99 
L 177.694694 -17.99 
L 177.694694 -79.377795 
L 177.694694 -79.377795 
L 127.549195 -79.377795 
z
" style="stroke: #000000"/>
    </defs>
    <g clip-path="url(#pbf23347462)">
     <use xlink:href="#m3559c31d3a" x="0" y="313.795893" style="stroke: #000000"/>
    </g>
   </g>
   <g id="PolyCollection_22">
    <defs>
     <path id="m349ec50e09" d="M 127.549195 -140.765591 
L 127.549195 -79.377795 
L 177.694694 -79.377795 
L 177.694694 -140.765591 
L 177.694694 -140.765591 
L 127.549195 -140.765591 
z
" style="stroke: #ffffff"/>
    </defs>
    <g clip-path="url(#pbf23347462)">
     <use xlink:href="#m349ec50e09" x="0" y="313.795893" style="fill: #ffffff; stroke: #ffffff"/>
    </g>
   </g>
   <g id="PolyCollection_23">
    <defs>
     <path id="ma97d6c3a2e" d="M 177.694694 -79.377795 
L 177.694694 -17.99 
L 227.840192 -17.99 
L 227.840192 -79.377795 
L 227.840192 -79.377795 
L 177.694694 -79.377795 
z
" style="stroke: #ffffff"/>
    </defs>
    <g clip-path="url(#pbf23347462)">
     <use xlink:href="#ma97d6c3a2e" x="0" y="313.795893" style="fill: #ffffff; stroke: #ffffff"/>
    </g>
   </g>
   <g id="PolyCollection_24">
    <defs>
     <path id="mb4d4c34ea8" d="M 177.694694 -140.765591 
L 177.694694 -79.377795 
L 227.840192 -79.377795 
L 227.840192 -140.765591 
L 227.840192 -140.765591 
L 177.694694 -140.765591 
z
" style="stroke: #000000"/>
    </defs>
    <g clip-path="url(#pbf23347462)">
     <use xlink:href="#mb4d4c34ea8" x="0" y="313.795893" style="stroke: #000000"/>
    </g>
   </g>
   <g id="matplotlib.axis_11">
    <g id="text_27">
     <!-- Forecasting time $20$ $s$ -->
     <g transform="translate(143.569694 305.055893)">
      <text>
       <tspan style="font: 7px 'Arial'" x="0 4.275879 8.168945 10.5 14.393066 17.893066 21.786133 25.286133 27.230957 28.786133 32.679199 36.572266 38.51709 40.461914 42.01709 47.848145 51.741211 62.593262" y="-0.796875">Forecasting time  </tspan>
       <tspan style="font: 7px 'DejaVu Sans'" x="53.686035 58.139648" y="-0.796875">20</tspan>
       <tspan style="font: oblique 7px 'DejaVu Sans'" x="64.538086" y="-0.796875">s</tspan>
      </text>
     </g>
    </g>
   </g>
   <g id="matplotlib.axis_12"/>
   <g id="line2d_31">
    <path d="M 127.549195 295.805893 
L 127.549195 173.030302 
" clip-path="url(#pbf23347462)" style="fill: none; stroke: #000000; stroke-width: 1.5; stroke-linecap: square"/>
   </g>
   <g id="line2d_32">
    <path d="M 127.549195 295.805893 
L 227.840192 295.805893 
" clip-path="url(#pbf23347462)" style="fill: none; stroke: #000000; stroke-width: 1.5; stroke-linecap: square"/>
   </g>
   <g id="line2d_33">
    <path d="M 177.694694 295.805893 
L 177.694694 173.030302 
" clip-path="url(#pbf23347462)" style="fill: none; stroke: #000000; stroke-width: 1.5; stroke-linecap: square"/>
   </g>
   <g id="line2d_34">
    <path d="M 127.549195 234.418098 
L 227.840192 234.418098 
" clip-path="url(#pbf23347462)" style="fill: none; stroke: #000000; stroke-width: 1.5; stroke-linecap: square"/>
   </g>
   <g id="line2d_35">
    <path d="M 227.840192 295.805893 
L 227.840192 173.030302 
" clip-path="url(#pbf23347462)" style="fill: none; stroke: #000000; stroke-width: 1.5; stroke-linecap: square"/>
   </g>
   <g id="line2d_36">
    <path d="M 127.549195 173.030302 
L 227.840192 173.030302 
" clip-path="url(#pbf23347462)" style="fill: none; stroke: #000000; stroke-width: 1.5; stroke-linecap: square"/>
   </g>
   <g id="patch_28">
    <path d="M 127.549195 295.805893 
L 127.549195 173.030302 
" style="fill: none; stroke: #000000; stroke-width: 0.8; stroke-linejoin: miter; stroke-linecap: square"/>
   </g>
   <g id="patch_29">
    <path d="M 227.840192 295.805893 
L 227.840192 173.030302 
" style="fill: none; stroke: #000000; stroke-width: 0.8; stroke-linejoin: miter; stroke-linecap: square"/>
   </g>
   <g id="patch_30">
    <path d="M 127.549195 295.805893 
L 227.840192 295.805893 
" style="fill: none; stroke: #000000; stroke-width: 0.8; stroke-linejoin: miter; stroke-linecap: square"/>
   </g>
   <g id="patch_31">
    <path d="M 127.549195 173.030302 
L 227.840192 173.030302 
" style="fill: none; stroke: #000000; stroke-width: 0.8; stroke-linejoin: miter; stroke-linecap: square"/>
   </g>
   <g id="text_28">
    <text style="fill: #ffffff; font: 7px 'Arial'; text-anchor: start" x="130.683289" y="265.111995" transform="rotate(-0 130.683289 265.111995)">1.0</text>
   </g>
   <g id="text_29">
    <!-- $9.07$ -->
    <g transform="translate(130.683289 196.27445)">
     <text>
      <tspan style="font: 7px 'DejaVu Sans'" x="0 4.453613 6.678711 11.132324" y="-0.796875">9.07</tspan>
     </text>
    </g>
    <!-- $\times 10^{-4}$ -->
    <g transform="translate(130.683289 203.7242)">
     <text>
      <tspan style="font: 7px 'DejaVu Sans'" x="0 5.865234 10.318848" y="-0.7437500000000004">×10</tspan>
      <tspan style="font: 4.9px 'DejaVu Sans'" x="14.839453 18.945117" y="-3.4234375000000004">−4</tspan>
     </text>
    </g>
   </g>
   <g id="text_30">
    <!-- $9.07$ -->
    <g transform="translate(180.828787 257.662245)">
     <text>
      <tspan style="font: 7px 'DejaVu Sans'" x="0 4.453613 6.678711 11.132324" y="-0.796875">9.07</tspan>
     </text>
    </g>
    <!-- $\times 10^{-4}$ -->
    <g transform="translate(180.828787 265.111995)">
     <text>
      <tspan style="font: 7px 'DejaVu Sans'" x="0 5.865234 10.318848" y="-0.7437500000000004">×10</tspan>
      <tspan style="font: 4.9px 'DejaVu Sans'" x="14.839453 18.945117" y="-3.4234375000000004">−4</tspan>
     </text>
    </g>
   </g>
   <g id="text_31">
    <text style="fill: #ffffff; font: 7px 'Arial'; text-anchor: start" x="180.828787" y="203.7242" transform="rotate(-0 180.828787 203.7242)">1.0</text>
   </g>
  </g>
  <g id="axes_7">
   <g id="patch_32">
    <path d="M 247.898391 295.805893 
L 348.189387 295.805893 
L 348.189387 173.030302 
L 247.898391 173.030302 
z
" style="fill: #ffffff"/>
   </g>
   <g id="PolyCollection_25">
    <defs>
     <path id="m46456aaceb" d="M 247.898391 -79.377795 
L 247.898391 -17.99 
L 298.043889 -17.99 
L 298.043889 -79.377795 
L 298.043889 -79.377795 
L 247.898391 -79.377795 
z
" style="stroke: #000000"/>
    </defs>
    <g clip-path="url(#p47d369433a)">
     <use xlink:href="#m46456aaceb" x="0" y="313.795893" style="stroke: #000000"/>
    </g>
   </g>
   <g id="PolyCollection_26">
    <defs>
     <path id="m8cb5b7381d" d="M 247.898391 -140.765591 
L 247.898391 -79.377795 
L 298.043889 -79.377795 
L 298.043889 -140.765591 
L 298.043889 -140.765591 
L 247.898391 -140.765591 
z
" style="stroke: #fdfdfd"/>
    </defs>
    <g clip-path="url(#p47d369433a)">
     <use xlink:href="#m8cb5b7381d" x="0" y="313.795893" style="fill: #fdfdfd; stroke: #fdfdfd"/>
    </g>
   </g>
   <g id="PolyCollection_27">
    <defs>
     <path id="m71dd627675" d="M 298.043889 -79.377795 
L 298.043889 -17.99 
L 348.189387 -17.99 
L 348.189387 -79.377795 
L 348.189387 -79.377795 
L 298.043889 -79.377795 
z
" style="stroke: #fdfdfd"/>
    </defs>
    <g clip-path="url(#p47d369433a)">
     <use xlink:href="#m71dd627675" x="0" y="313.795893" style="fill: #fdfdfd; stroke: #fdfdfd"/>
    </g>
   </g>
   <g id="PolyCollection_28">
    <defs>
     <path id="mf9ad79a76a" d="M 298.043889 -140.765591 
L 298.043889 -79.377795 
L 348.189387 -79.377795 
L 348.189387 -140.765591 
L 348.189387 -140.765591 
L 298.043889 -140.765591 
z
" style="stroke: #000000"/>
    </defs>
    <g clip-path="url(#p47d369433a)">
     <use xlink:href="#mf9ad79a76a" x="0" y="313.795893" style="stroke: #000000"/>
    </g>
   </g>
   <g id="matplotlib.axis_13">
    <g id="text_32">
     <!-- Forecasting time $30$ $s$ -->
     <g transform="translate(263.918889 305.055893)">
      <text>
       <tspan style="font: 7px 'Arial'" x="0 4.275879 8.168945 10.5 14.393066 17.893066 21.786133 25.286133 27.230957 28.786133 32.679199 36.572266 38.51709 40.461914 42.01709 47.848145 51.741211 62.593262" y="-0.796875">Forecasting time  </tspan>
       <tspan style="font: 7px 'DejaVu Sans'" x="53.686035 58.139648" y="-0.796875">30</tspan>
       <tspan style="font: oblique 7px 'DejaVu Sans'" x="64.538086" y="-0.796875">s</tspan>
      </text>
     </g>
    </g>
   </g>
   <g id="matplotlib.axis_14">
    <g id="ytick_1">
     <g id="line2d_37">
      <defs>
       <path id="md15cd8c723" d="M 0 0 
L 3.5 0 
" style="stroke: #000000; stroke-width: 0.8"/>
      </defs>
      <g>
       <use xlink:href="#md15cd8c723" x="348.189387" y="265.111995" style="stroke: #000000; stroke-width: 0.8"/>
      </g>
     </g>
     <g id="text_33">
      <text style="font: 7px 'Arial'; text-anchor: start" x="355.189387" y="267.61723" transform="rotate(-0 355.189387 267.61723)">LSTM Linear</text>
     </g>
    </g>
    <g id="ytick_2">
     <g id="line2d_38">
      <g>
       <use xlink:href="#md15cd8c723" x="348.189387" y="203.7242" style="stroke: #000000; stroke-width: 0.8"/>
      </g>
     </g>
     <g id="text_34">
      <text style="font: 7px 'Arial'; text-anchor: start" x="355.189387" y="206.229434" transform="rotate(-0 355.189387 206.229434)">UniTS</text>
     </g>
    </g>
   </g>
   <g id="line2d_39">
    <path d="M 247.898391 295.805893 
L 247.898391 173.030302 
" clip-path="url(#p47d369433a)" style="fill: none; stroke: #000000; stroke-width: 1.5; stroke-linecap: square"/>
   </g>
   <g id="line2d_40">
    <path d="M 247.898391 295.805893 
L 348.189387 295.805893 
" clip-path="url(#p47d369433a)" style="fill: none; stroke: #000000; stroke-width: 1.5; stroke-linecap: square"/>
   </g>
   <g id="line2d_41">
    <path d="M 298.043889 295.805893 
L 298.043889 173.030302 
" clip-path="url(#p47d369433a)" style="fill: none; stroke: #000000; stroke-width: 1.5; stroke-linecap: square"/>
   </g>
   <g id="line2d_42">
    <path d="M 247.898391 234.418098 
L 348.189387 234.418098 
" clip-path="url(#p47d369433a)" style="fill: none; stroke: #000000; stroke-width: 1.5; stroke-linecap: square"/>
   </g>
   <g id="line2d_43">
    <path d="M 348.189387 295.805893 
L 348.189387 173.030302 
" clip-path="url(#p47d369433a)" style="fill: none; stroke: #000000; stroke-width: 1.5; stroke-linecap: square"/>
   </g>
   <g id="line2d_44">
    <path d="M 247.898391 173.030302 
L 348.189387 173.030302 
" clip-path="url(#p47d369433a)" style="fill: none; stroke: #000000; stroke-width: 1.5; stroke-linecap: square"/>
   </g>
   <g id="patch_33">
    <path d="M 247.898391 295.805893 
L 247.898391 173.030302 
" style="fill: none; stroke: #000000; stroke-width: 0.8; stroke-linejoin: miter; stroke-linecap: square"/>
   </g>
   <g id="patch_34">
    <path d="M 348.189387 295.805893 
L 348.189387 173.030302 
" style="fill: none; stroke: #000000; stroke-width: 0.8; stroke-linejoin: miter; stroke-linecap: square"/>
   </g>
   <g id="patch_35">
    <path d="M 247.898391 295.805893 
L 348.189387 295.805893 
" style="fill: none; stroke: #000000; stroke-width: 0.8; stroke-linejoin: miter; stroke-linecap: square"/>
   </g>
   <g id="patch_36">
    <path d="M 247.898391 173.030302 
L 348.189387 173.030302 
" style="fill: none; stroke: #000000; stroke-width: 0.8; stroke-linejoin: miter; stroke-linecap: square"/>
   </g>
   <g id="text_35">
    <text style="fill: #ffffff; font: 7px 'Arial'; text-anchor: start" x="251.032485" y="265.111995" transform="rotate(-0 251.032485 265.111995)">1.0</text>
   </g>
   <g id="text_36">
    <!-- $7.856$ -->
    <g transform="translate(251.032485 196.19045)">
     <text>
      <tspan style="font: 7px 'DejaVu Sans'" x="0 4.453613 6.553711 11.007324 15.460938" y="-0.796875">7.856</tspan>
     </text>
    </g>
    <!-- $\times 10^{-3}$ -->
    <g transform="translate(251.032485 203.7242)">
     <text>
      <tspan style="font: 7px 'DejaVu Sans'" x="0 5.865234 10.318848" y="-0.6781249999999996">×10</tspan>
      <tspan style="font: 4.9px 'DejaVu Sans'" x="14.839453 18.945117" y="-3.3578124999999996">−3</tspan>
     </text>
    </g>
   </g>
   <g id="text_37">
    <!-- $7.856$ -->
    <g transform="translate(301.177983 257.578245)">
     <text>
      <tspan style="font: 7px 'DejaVu Sans'" x="0 4.453613 6.553711 11.007324 15.460938" y="-0.796875">7.856</tspan>
     </text>
    </g>
    <!-- $\times 10^{-3}$ -->
    <g transform="translate(301.177983 265.111995)">
     <text>
      <tspan style="font: 7px 'DejaVu Sans'" x="0 5.865234 10.318848" y="-0.6781249999999996">×10</tspan>
      <tspan style="font: 4.9px 'DejaVu Sans'" x="14.839453 18.945117" y="-3.3578124999999996">−3</tspan>
     </text>
    </g>
   </g>
   <g id="text_38">
    <text style="fill: #ffffff; font: 7px 'Arial'; text-anchor: start" x="301.177983" y="203.7242" transform="rotate(-0 301.177983 203.7242)">1.0</text>
   </g>
  </g>
 </g>
 <defs>
  <clipPath id="p807d45166f">
   <rect x="7.2" y="25.699594" width="100.290996" height="122.775591"/>
  </clipPath>
  <clipPath id="pc196e57f96">
   <rect x="127.549195" y="25.699594" width="100.290996" height="122.775591"/>
  </clipPath>
  <clipPath id="p0c3964ac61">
   <rect x="247.898391" y="25.699594" width="100.290996" height="122.775591"/>
  </clipPath>
  <clipPath id="pd23a556d96">
   <rect x="368.247586" y="25.699594" width="100.290996" height="122.775591"/>
  </clipPath>
  <clipPath id="pc011935c7b">
   <rect x="7.2" y="173.030302" width="100.290996" height="122.775591"/>
  </clipPath>
  <clipPath id="pbf23347462">
   <rect x="127.549195" y="173.030302" width="100.290996" height="122.775591"/>
  </clipPath>
  <clipPath id="p47d369433a">
   <rect x="247.898391" y="173.030302" width="100.290996" height="122.775591"/>
  </clipPath>
 </defs>
</svg>
