<?xml version="1.0" encoding="utf-8" standalone="no"?>
<!DOCTYPE svg PUBLIC "-//W3C//DTD SVG 1.1//EN"
  "http://www.w3.org/Graphics/SVG/1.1/DTD/svg11.dtd">
<svg xmlns:xlink="http://www.w3.org/1999/xlink" width="516.57827pt" height="501.491089pt" viewBox="0 0 516.57827 501.491089" xmlns="http://www.w3.org/2000/svg" version="1.1">
 <metadata>
  <rdf:RDF xmlns:dc="http://purl.org/dc/elements/1.1/" xmlns:cc="http://creativecommons.org/ns#" xmlns:rdf="http://www.w3.org/1999/02/22-rdf-syntax-ns#">
   <cc:Work>
    <dc:type rdf:resource="http://purl.org/dc/dcmitype/StillImage"/>
    <dc:date>2024-10-11T15:36:47.526480</dc:date>
    <dc:format>image/svg+xml</dc:format>
    <dc:creator>
     <cc:Agent>
      <dc:title>Matplotlib v3.7.0, https://matplotlib.org/</dc:title>
     </cc:Agent>
    </dc:creator>
   </cc:Work>
  </rdf:RDF>
 </metadata>
 <defs>
  <style type="text/css">*{stroke-linejoin: round; stroke-linecap: butt}</style>
 </defs>
 <g id="figure_1">
  <g id="patch_1">
   <path d="M 0 501.491089 
L 516.57827 501.491089 
L 516.57827 0 
L 0 0 
z
" style="fill: #ffffff"/>
  </g>
  <g id="axes_1">
   <g id="patch_2">
    <path d="M 48.039687 143.38805 
L 257.739043 143.38805 
L 257.739043 7.2 
L 48.039687 7.2 
z
" style="fill: #ffffff"/>
   </g>
   <g id="patch_3">
    <path d="M 57.571476 143.38805 
L 76.635054 143.38805 
L 76.635054 35.876844 
L 57.571476 35.876844 
z
" clip-path="url(#p35d6f3e439)" style="fill: #004488"/>
   </g>
   <g id="patch_4">
    <path d="M 76.635054 143.38805 
L 95.698632 143.38805 
L 95.698632 40.145407 
L 76.635054 40.145407 
z
" clip-path="url(#p35d6f3e439)" style="fill: #004488"/>
   </g>
   <g id="patch_5">
    <path d="M 95.698632 143.38805 
L 114.76221 143.38805 
L 114.76221 30.455734 
L 95.698632 30.455734 
z
" clip-path="url(#p35d6f3e439)" style="fill: #004488"/>
   </g>
   <g id="patch_6">
    <path d="M 114.76221 143.38805 
L 133.825788 143.38805 
L 133.825788 38.737506 
L 114.76221 38.737506 
z
" clip-path="url(#p35d6f3e439)" style="fill: #004488"/>
   </g>
   <g id="patch_7">
    <path d="M 133.825788 143.38805 
L 152.889365 143.38805 
L 152.889365 67.071519 
L 133.825788 67.071519 
z
" clip-path="url(#p35d6f3e439)" style="fill: #004488"/>
   </g>
   <g id="patch_8">
    <path d="M 152.889365 143.38805 
L 171.952943 143.38805 
L 171.952943 32.343288 
L 152.889365 32.343288 
z
" clip-path="url(#p35d6f3e439)" style="fill: #004488"/>
   </g>
   <g id="patch_9">
    <path d="M 171.952943 143.38805 
L 191.016521 143.38805 
L 191.016521 43.047478 
L 171.952943 43.047478 
z
" clip-path="url(#p35d6f3e439)" style="fill: #004488"/>
   </g>
   <g id="patch_10">
    <path d="M 191.016521 143.38805 
L 210.080099 143.38805 
L 210.080099 13.685145 
L 191.016521 13.685145 
z
" clip-path="url(#p35d6f3e439)" style="fill: #004488"/>
   </g>
   <g id="patch_11">
    <path d="M 210.080099 143.38805 
L 229.143677 143.38805 
L 229.143677 19.913728 
L 210.080099 19.913728 
z
" clip-path="url(#p35d6f3e439)" style="fill: #004488"/>
   </g>
   <g id="patch_12">
    <path d="M 229.143677 143.38805 
L 248.207254 143.38805 
L 248.207254 54.414211 
L 229.143677 54.414211 
z
" clip-path="url(#p35d6f3e439)" style="fill: #004488"/>
   </g>
   <g id="matplotlib.axis_1">
    <g id="xtick_1">
     <g id="line2d_1">
      <defs>
       <path id="m5e5e448ba0" d="M 0 0 
L 0 3.5 
" style="stroke: #000000; stroke-width: 0.8"/>
      </defs>
      <g>
       <use xlink:href="#m5e5e448ba0" x="57.571476" y="143.38805" style="stroke: #000000; stroke-width: 0.8"/>
      </g>
     </g>
     <g id="text_1">
      <text style="font: 7px 'Arial'; text-anchor: middle" x="57.571476" y="155.398519" transform="rotate(-0 57.571476 155.398519)">0</text>
     </g>
    </g>
    <g id="xtick_2">
     <g id="line2d_2">
      <g>
       <use xlink:href="#m5e5e448ba0" x="84.048668" y="143.38805" style="stroke: #000000; stroke-width: 0.8"/>
      </g>
     </g>
     <g id="text_2">
      <text style="font: 7px 'Arial'; text-anchor: middle" x="84.048668" y="155.398519" transform="rotate(-0 84.048668 155.398519)">50</text>
     </g>
    </g>
    <g id="xtick_3">
     <g id="line2d_3">
      <g>
       <use xlink:href="#m5e5e448ba0" x="110.525859" y="143.38805" style="stroke: #000000; stroke-width: 0.8"/>
      </g>
     </g>
     <g id="text_3">
      <text style="font: 7px 'Arial'; text-anchor: middle" x="110.525859" y="155.398519" transform="rotate(-0 110.525859 155.398519)">100</text>
     </g>
    </g>
    <g id="xtick_4">
     <g id="line2d_4">
      <g>
       <use xlink:href="#m5e5e448ba0" x="137.003051" y="143.38805" style="stroke: #000000; stroke-width: 0.8"/>
      </g>
     </g>
     <g id="text_4">
      <text style="font: 7px 'Arial'; text-anchor: middle" x="137.003051" y="155.398519" transform="rotate(-0 137.003051 155.398519)">150</text>
     </g>
    </g>
    <g id="xtick_5">
     <g id="line2d_5">
      <g>
       <use xlink:href="#m5e5e448ba0" x="163.480242" y="143.38805" style="stroke: #000000; stroke-width: 0.8"/>
      </g>
     </g>
     <g id="text_5">
      <text style="font: 7px 'Arial'; text-anchor: middle" x="163.480242" y="155.398519" transform="rotate(-0 163.480242 155.398519)">200</text>
     </g>
    </g>
    <g id="xtick_6">
     <g id="line2d_6">
      <g>
       <use xlink:href="#m5e5e448ba0" x="189.957433" y="143.38805" style="stroke: #000000; stroke-width: 0.8"/>
      </g>
     </g>
     <g id="text_6">
      <text style="font: 7px 'Arial'; text-anchor: middle" x="189.957433" y="155.398519" transform="rotate(-0 189.957433 155.398519)">250</text>
     </g>
    </g>
    <g id="xtick_7">
     <g id="line2d_7">
      <g>
       <use xlink:href="#m5e5e448ba0" x="216.434625" y="143.38805" style="stroke: #000000; stroke-width: 0.8"/>
      </g>
     </g>
     <g id="text_7">
      <text style="font: 7px 'Arial'; text-anchor: middle" x="216.434625" y="155.398519" transform="rotate(-0 216.434625 155.398519)">300</text>
     </g>
    </g>
    <g id="xtick_8">
     <g id="line2d_8">
      <g>
       <use xlink:href="#m5e5e448ba0" x="242.911816" y="143.38805" style="stroke: #000000; stroke-width: 0.8"/>
      </g>
     </g>
     <g id="text_8">
      <text style="font: 7px 'Arial'; text-anchor: middle" x="242.911816" y="155.398519" transform="rotate(-0 242.911816 155.398519)">350</text>
     </g>
    </g>
    <g id="text_9">
     <!-- Heading ($\degree$) -->
     <g transform="translate(134.794365 166.039769)">
      <text>
       <tspan style="font: 7px 'Arial'" x="0 5.055176 8.948242 12.841309 16.734375 18.289551 22.182617 26.075684 28.020508 33.851562" y="-0.796875">Heading ()</tspan>
       <tspan style="font: 7px 'DejaVu Sans'" x="30.351562" y="-0.796875">°</tspan>
      </text>
     </g>
    </g>
   </g>
   <g id="matplotlib.axis_2">
    <g id="ytick_1">
     <g id="line2d_9">
      <defs>
       <path id="m31c2abfead" d="M 0 0 
L -3.5 0 
" style="stroke: #000000; stroke-width: 0.8"/>
      </defs>
      <g>
       <use xlink:href="#m31c2abfead" x="48.039687" y="143.38805" style="stroke: #000000; stroke-width: 0.8"/>
      </g>
     </g>
     <g id="text_10">
      <text style="font: 7px 'Arial'; text-anchor: end" x="41.039687" y="145.893284" transform="rotate(-0 41.039687 145.893284)">0</text>
     </g>
    </g>
    <g id="ytick_2">
     <g id="line2d_10">
      <g>
       <use xlink:href="#m31c2abfead" x="48.039687" y="126.134358" style="stroke: #000000; stroke-width: 0.8"/>
      </g>
     </g>
     <g id="text_11">
      <text style="font: 7px 'Arial'; text-anchor: end" x="41.039687" y="128.639592" transform="rotate(-0 41.039687 128.639592)">5000</text>
     </g>
    </g>
    <g id="ytick_3">
     <g id="line2d_11">
      <g>
       <use xlink:href="#m31c2abfead" x="48.039687" y="108.880666" style="stroke: #000000; stroke-width: 0.8"/>
      </g>
     </g>
     <g id="text_12">
      <text style="font: 7px 'Arial'; text-anchor: end" x="41.039687" y="111.3859" transform="rotate(-0 41.039687 111.3859)">10000</text>
     </g>
    </g>
    <g id="ytick_4">
     <g id="line2d_12">
      <g>
       <use xlink:href="#m31c2abfead" x="48.039687" y="91.626974" style="stroke: #000000; stroke-width: 0.8"/>
      </g>
     </g>
     <g id="text_13">
      <text style="font: 7px 'Arial'; text-anchor: end" x="41.039687" y="94.132208" transform="rotate(-0 41.039687 94.132208)">15000</text>
     </g>
    </g>
    <g id="ytick_5">
     <g id="line2d_13">
      <g>
       <use xlink:href="#m31c2abfead" x="48.039687" y="74.373282" style="stroke: #000000; stroke-width: 0.8"/>
      </g>
     </g>
     <g id="text_14">
      <text style="font: 7px 'Arial'; text-anchor: end" x="41.039687" y="76.878516" transform="rotate(-0 41.039687 76.878516)">20000</text>
     </g>
    </g>
    <g id="ytick_6">
     <g id="line2d_14">
      <g>
       <use xlink:href="#m31c2abfead" x="48.039687" y="57.11959" style="stroke: #000000; stroke-width: 0.8"/>
      </g>
     </g>
     <g id="text_15">
      <text style="font: 7px 'Arial'; text-anchor: end" x="41.039687" y="59.624824" transform="rotate(-0 41.039687 59.624824)">25000</text>
     </g>
    </g>
    <g id="ytick_7">
     <g id="line2d_15">
      <g>
       <use xlink:href="#m31c2abfead" x="48.039687" y="39.865898" style="stroke: #000000; stroke-width: 0.8"/>
      </g>
     </g>
     <g id="text_16">
      <text style="font: 7px 'Arial'; text-anchor: end" x="41.039687" y="42.371132" transform="rotate(-0 41.039687 42.371132)">30000</text>
     </g>
    </g>
    <g id="ytick_8">
     <g id="line2d_16">
      <g>
       <use xlink:href="#m31c2abfead" x="48.039687" y="22.612206" style="stroke: #000000; stroke-width: 0.8"/>
      </g>
     </g>
     <g id="text_17">
      <text style="font: 7px 'Arial'; text-anchor: end" x="41.039687" y="25.11744" transform="rotate(-0 41.039687 25.11744)">35000</text>
     </g>
    </g>
    <g id="text_18">
     <text style="font: 7px 'Arial'; text-anchor: middle" x="16.103125" y="75.294025" transform="rotate(-90 16.103125 75.294025)">Frequency</text>
    </g>
   </g>
   <g id="patch_13">
    <path d="M 48.039687 143.38805 
L 48.039687 7.2 
" style="fill: none; stroke: #000000; stroke-width: 0.8; stroke-linejoin: miter; stroke-linecap: square"/>
   </g>
   <g id="patch_14">
    <path d="M 257.739043 143.38805 
L 257.739043 7.2 
" style="fill: none; stroke: #000000; stroke-width: 0.8; stroke-linejoin: miter; stroke-linecap: square"/>
   </g>
   <g id="patch_15">
    <path d="M 48.039687 143.38805 
L 257.739043 143.38805 
" style="fill: none; stroke: #000000; stroke-width: 0.8; stroke-linejoin: miter; stroke-linecap: square"/>
   </g>
   <g id="patch_16">
    <path d="M 48.039687 7.2 
L 257.739043 7.2 
" style="fill: none; stroke: #000000; stroke-width: 0.8; stroke-linejoin: miter; stroke-linecap: square"/>
   </g>
  </g>
  <g id="axes_2">
   <g id="patch_17">
    <path d="M 299.678914 143.38805 
L 509.37827 143.38805 
L 509.37827 7.2 
L 299.678914 7.2 
z
" style="fill: #ffffff"/>
   </g>
   <g id="patch_18">
    <path d="M 309.210703 143.38805 
L 328.274281 143.38805 
L 328.274281 143.380895 
L 309.210703 143.380895 
z
" clip-path="url(#p959c14fce8)" style="fill: #004488"/>
   </g>
   <g id="patch_19">
    <path d="M 328.274281 143.38805 
L 347.337859 143.38805 
L 347.337859 13.685145 
L 328.274281 13.685145 
z
" clip-path="url(#p959c14fce8)" style="fill: #004488"/>
   </g>
   <g id="patch_20">
    <path d="M 347.337859 143.38805 
L 366.401437 143.38805 
L 366.401437 116.571682 
L 347.337859 116.571682 
z
" clip-path="url(#p959c14fce8)" style="fill: #004488"/>
   </g>
   <g id="patch_21">
    <path d="M 366.401437 143.38805 
L 385.465014 143.38805 
L 385.465014 143.386517 
L 366.401437 143.386517 
z
" clip-path="url(#p959c14fce8)" style="fill: #004488"/>
   </g>
   <g id="patch_22">
    <path d="M 385.465014 143.38805 
L 404.528592 143.38805 
L 404.528592 143.387539 
L 385.465014 143.387539 
z
" clip-path="url(#p959c14fce8)" style="fill: #004488"/>
   </g>
   <g id="patch_23">
    <path d="M 404.528592 143.38805 
L 423.59217 143.38805 
L 423.59217 143.387539 
L 404.528592 143.387539 
z
" clip-path="url(#p959c14fce8)" style="fill: #004488"/>
   </g>
   <g id="patch_24">
    <path d="M 423.59217 143.38805 
L 442.655748 143.38805 
L 442.655748 143.38805 
L 423.59217 143.38805 
z
" clip-path="url(#p959c14fce8)" style="fill: #004488"/>
   </g>
   <g id="patch_25">
    <path d="M 442.655748 143.38805 
L 461.719326 143.38805 
L 461.719326 143.38805 
L 442.655748 143.38805 
z
" clip-path="url(#p959c14fce8)" style="fill: #004488"/>
   </g>
   <g id="patch_26">
    <path d="M 461.719326 143.38805 
L 480.782903 143.38805 
L 480.782903 143.38805 
L 461.719326 143.38805 
z
" clip-path="url(#p959c14fce8)" style="fill: #004488"/>
   </g>
   <g id="patch_27">
    <path d="M 480.782903 143.38805 
L 499.846481 143.38805 
L 499.846481 143.387539 
L 480.782903 143.387539 
z
" clip-path="url(#p959c14fce8)" style="fill: #004488"/>
   </g>
   <g id="matplotlib.axis_3">
    <g id="xtick_9">
     <g id="line2d_17">
      <g>
       <use xlink:href="#m5e5e448ba0" x="307.617544" y="143.38805" style="stroke: #000000; stroke-width: 0.8"/>
      </g>
     </g>
     <g id="text_19">
      <text style="font: 7px 'Arial'; text-anchor: middle" x="307.617544" y="155.398519" transform="rotate(-0 307.617544 155.398519)">−0.005</text>
     </g>
    </g>
    <g id="xtick_10">
     <g id="line2d_18">
      <g>
       <use xlink:href="#m5e5e448ba0" x="344.326275" y="143.38805" style="stroke: #000000; stroke-width: 0.8"/>
      </g>
     </g>
     <g id="text_20">
      <text style="font: 7px 'Arial'; text-anchor: middle" x="344.326275" y="155.398519" transform="rotate(-0 344.326275 155.398519)">0.000</text>
     </g>
    </g>
    <g id="xtick_11">
     <g id="line2d_19">
      <g>
       <use xlink:href="#m5e5e448ba0" x="381.035005" y="143.38805" style="stroke: #000000; stroke-width: 0.8"/>
      </g>
     </g>
     <g id="text_21">
      <text style="font: 7px 'Arial'; text-anchor: middle" x="381.035005" y="155.398519" transform="rotate(-0 381.035005 155.398519)">0.005</text>
     </g>
    </g>
    <g id="xtick_12">
     <g id="line2d_20">
      <g>
       <use xlink:href="#m5e5e448ba0" x="417.743735" y="143.38805" style="stroke: #000000; stroke-width: 0.8"/>
      </g>
     </g>
     <g id="text_22">
      <text style="font: 7px 'Arial'; text-anchor: middle" x="417.743735" y="155.398519" transform="rotate(-0 417.743735 155.398519)">0.010</text>
     </g>
    </g>
    <g id="xtick_13">
     <g id="line2d_21">
      <g>
       <use xlink:href="#m5e5e448ba0" x="454.452465" y="143.38805" style="stroke: #000000; stroke-width: 0.8"/>
      </g>
     </g>
     <g id="text_23">
      <text style="font: 7px 'Arial'; text-anchor: middle" x="454.452465" y="155.398519" transform="rotate(-0 454.452465 155.398519)">0.015</text>
     </g>
    </g>
    <g id="xtick_14">
     <g id="line2d_22">
      <g>
       <use xlink:href="#m5e5e448ba0" x="491.161196" y="143.38805" style="stroke: #000000; stroke-width: 0.8"/>
      </g>
     </g>
     <g id="text_24">
      <text style="font: 7px 'Arial'; text-anchor: middle" x="491.161196" y="155.398519" transform="rotate(-0 491.161196 155.398519)">0.020</text>
     </g>
    </g>
    <g id="text_25">
     <!-- $y$ offset ($\degree$) -->
     <g transform="translate(387.868592 166.039769)">
      <text>
       <tspan style="font: oblique 7px 'DejaVu Sans'" x="0" y="-0.796875">y</tspan>
       <tspan style="font: 7px 'Arial'" x="4.142578 6.087402 9.980469 11.925293 13.870117 17.370117 21.263184 23.208008 25.152832 30.983887" y="-0.796875"> offset ()</tspan>
       <tspan style="font: 7px 'DejaVu Sans'" x="27.483887" y="-0.796875">°</tspan>
      </text>
     </g>
    </g>
   </g>
   <g id="matplotlib.axis_4">
    <g id="ytick_9">
     <g id="line2d_23">
      <g>
       <use xlink:href="#m31c2abfead" x="299.678914" y="143.38805" style="stroke: #000000; stroke-width: 0.8"/>
      </g>
     </g>
     <g id="text_26">
      <text style="font: 7px 'Arial'; text-anchor: end" x="292.678914" y="145.893284" transform="rotate(-0 292.678914 145.893284)">0</text>
     </g>
    </g>
    <g id="ytick_10">
     <g id="line2d_24">
      <g>
       <use xlink:href="#m31c2abfead" x="299.678914" y="117.83405" style="stroke: #000000; stroke-width: 0.8"/>
      </g>
     </g>
     <g id="text_27">
      <text style="font: 7px 'Arial'; text-anchor: end" x="292.678914" y="120.339284" transform="rotate(-0 292.678914 120.339284)">50000</text>
     </g>
    </g>
    <g id="ytick_11">
     <g id="line2d_25">
      <g>
       <use xlink:href="#m31c2abfead" x="299.678914" y="92.28005" style="stroke: #000000; stroke-width: 0.8"/>
      </g>
     </g>
     <g id="text_28">
      <text style="font: 7px 'Arial'; text-anchor: end" x="292.678914" y="94.785284" transform="rotate(-0 292.678914 94.785284)">100000</text>
     </g>
    </g>
    <g id="ytick_12">
     <g id="line2d_26">
      <g>
       <use xlink:href="#m31c2abfead" x="299.678914" y="66.72605" style="stroke: #000000; stroke-width: 0.8"/>
      </g>
     </g>
     <g id="text_29">
      <text style="font: 7px 'Arial'; text-anchor: end" x="292.678914" y="69.231284" transform="rotate(-0 292.678914 69.231284)">150000</text>
     </g>
    </g>
    <g id="ytick_13">
     <g id="line2d_27">
      <g>
       <use xlink:href="#m31c2abfead" x="299.678914" y="41.17205" style="stroke: #000000; stroke-width: 0.8"/>
      </g>
     </g>
     <g id="text_30">
      <text style="font: 7px 'Arial'; text-anchor: end" x="292.678914" y="43.677284" transform="rotate(-0 292.678914 43.677284)">200000</text>
     </g>
    </g>
    <g id="ytick_14">
     <g id="line2d_28">
      <g>
       <use xlink:href="#m31c2abfead" x="299.678914" y="15.61805" style="stroke: #000000; stroke-width: 0.8"/>
      </g>
     </g>
     <g id="text_31">
      <text style="font: 7px 'Arial'; text-anchor: end" x="292.678914" y="18.123284" transform="rotate(-0 292.678914 18.123284)">250000</text>
     </g>
    </g>
    <g id="text_32">
     <text style="font: 7px 'Arial'; text-anchor: middle" x="263.849696" y="75.294025" transform="rotate(-90 263.849696 75.294025)">Frequency</text>
    </g>
   </g>
   <g id="patch_28">
    <path d="M 299.678914 143.38805 
L 299.678914 7.2 
" style="fill: none; stroke: #000000; stroke-width: 0.8; stroke-linejoin: miter; stroke-linecap: square"/>
   </g>
   <g id="patch_29">
    <path d="M 509.37827 143.38805 
L 509.37827 7.2 
" style="fill: none; stroke: #000000; stroke-width: 0.8; stroke-linejoin: miter; stroke-linecap: square"/>
   </g>
   <g id="patch_30">
    <path d="M 299.678914 143.38805 
L 509.37827 143.38805 
" style="fill: none; stroke: #000000; stroke-width: 0.8; stroke-linejoin: miter; stroke-linecap: square"/>
   </g>
   <g id="patch_31">
    <path d="M 299.678914 7.2 
L 509.37827 7.2 
" style="fill: none; stroke: #000000; stroke-width: 0.8; stroke-linejoin: miter; stroke-linecap: square"/>
   </g>
  </g>
  <g id="axes_3">
   <g id="patch_32">
    <path d="M 48.039687 306.81371 
L 257.739043 306.81371 
L 257.739043 170.62566 
L 48.039687 170.62566 
z
" style="fill: #ffffff"/>
   </g>
   <g id="patch_33">
    <path d="M 57.571476 306.81371 
L 76.635054 306.81371 
L 76.635054 306.813227 
L 57.571476 306.813227 
z
" clip-path="url(#p3437afdc0b)" style="fill: #004488"/>
   </g>
   <g id="patch_34">
    <path d="M 76.635054 306.81371 
L 95.698632 306.81371 
L 95.698632 306.81371 
L 76.635054 306.81371 
z
" clip-path="url(#p3437afdc0b)" style="fill: #004488"/>
   </g>
   <g id="patch_35">
    <path d="M 95.698632 306.81371 
L 114.76221 306.81371 
L 114.76221 306.81371 
L 95.698632 306.81371 
z
" clip-path="url(#p3437afdc0b)" style="fill: #004488"/>
   </g>
   <g id="patch_36">
    <path d="M 114.76221 306.81371 
L 133.825788 306.81371 
L 133.825788 306.811296 
L 114.76221 306.811296 
z
" clip-path="url(#p3437afdc0b)" style="fill: #004488"/>
   </g>
   <g id="patch_37">
    <path d="M 133.825788 306.81371 
L 152.889365 306.81371 
L 152.889365 298.425724 
L 133.825788 298.425724 
z
" clip-path="url(#p3437afdc0b)" style="fill: #004488"/>
   </g>
   <g id="patch_38">
    <path d="M 152.889365 306.81371 
L 171.952943 306.81371 
L 171.952943 177.110805 
L 152.889365 177.110805 
z
" clip-path="url(#p3437afdc0b)" style="fill: #004488"/>
   </g>
   <g id="patch_39">
    <path d="M 171.952943 306.81371 
L 191.016521 306.81371 
L 191.016521 297.061518 
L 171.952943 297.061518 
z
" clip-path="url(#p3437afdc0b)" style="fill: #004488"/>
   </g>
   <g id="patch_40">
    <path d="M 191.016521 306.81371 
L 210.080099 306.81371 
L 210.080099 306.812262 
L 191.016521 306.812262 
z
" clip-path="url(#p3437afdc0b)" style="fill: #004488"/>
   </g>
   <g id="patch_41">
    <path d="M 210.080099 306.81371 
L 229.143677 306.81371 
L 229.143677 306.81371 
L 210.080099 306.81371 
z
" clip-path="url(#p3437afdc0b)" style="fill: #004488"/>
   </g>
   <g id="patch_42">
    <path d="M 229.143677 306.81371 
L 248.207254 306.81371 
L 248.207254 306.813227 
L 229.143677 306.813227 
z
" clip-path="url(#p3437afdc0b)" style="fill: #004488"/>
   </g>
   <g id="matplotlib.axis_5">
    <g id="xtick_15">
     <g id="line2d_29">
      <g>
       <use xlink:href="#m5e5e448ba0" x="72.345659" y="306.81371" style="stroke: #000000; stroke-width: 0.8"/>
      </g>
     </g>
     <g id="text_33">
      <text style="font: 7px 'Arial'; text-anchor: middle" x="72.345659" y="318.824179" transform="rotate(-0 72.345659 318.824179)">−0.010</text>
     </g>
    </g>
    <g id="xtick_16">
     <g id="line2d_30">
      <g>
       <use xlink:href="#m5e5e448ba0" x="117.554295" y="306.81371" style="stroke: #000000; stroke-width: 0.8"/>
      </g>
     </g>
     <g id="text_34">
      <text style="font: 7px 'Arial'; text-anchor: middle" x="117.554295" y="318.824179" transform="rotate(-0 117.554295 318.824179)">−0.005</text>
     </g>
    </g>
    <g id="xtick_17">
     <g id="line2d_31">
      <g>
       <use xlink:href="#m5e5e448ba0" x="162.762932" y="306.81371" style="stroke: #000000; stroke-width: 0.8"/>
      </g>
     </g>
     <g id="text_35">
      <text style="font: 7px 'Arial'; text-anchor: middle" x="162.762932" y="318.824179" transform="rotate(-0 162.762932 318.824179)">0.000</text>
     </g>
    </g>
    <g id="xtick_18">
     <g id="line2d_32">
      <g>
       <use xlink:href="#m5e5e448ba0" x="207.971568" y="306.81371" style="stroke: #000000; stroke-width: 0.8"/>
      </g>
     </g>
     <g id="text_36">
      <text style="font: 7px 'Arial'; text-anchor: middle" x="207.971568" y="318.824179" transform="rotate(-0 207.971568 318.824179)">0.005</text>
     </g>
    </g>
    <g id="xtick_19">
     <g id="line2d_33">
      <g>
       <use xlink:href="#m5e5e448ba0" x="253.180204" y="306.81371" style="stroke: #000000; stroke-width: 0.8"/>
      </g>
     </g>
     <g id="text_37">
      <text style="font: 7px 'Arial'; text-anchor: middle" x="253.180204" y="318.824179" transform="rotate(-0 253.180204 318.824179)">0.010</text>
     </g>
    </g>
    <g id="text_38">
     <!-- $x$ offset ($\degree$) -->
     <g transform="translate(136.229365 329.465429)">
      <text>
       <tspan style="font: oblique 7px 'DejaVu Sans'" x="0" y="-0.796875">x</tspan>
       <tspan style="font: 7px 'Arial'" x="4.142578 6.087402 9.980469 11.925293 13.870117 17.370117 21.263184 23.208008 25.152832 30.983887" y="-0.796875"> offset ()</tspan>
       <tspan style="font: 7px 'DejaVu Sans'" x="27.483887" y="-0.796875">°</tspan>
      </text>
     </g>
    </g>
   </g>
   <g id="matplotlib.axis_6">
    <g id="ytick_15">
     <g id="line2d_34">
      <g>
       <use xlink:href="#m31c2abfead" x="48.039687" y="306.81371" style="stroke: #000000; stroke-width: 0.8"/>
      </g>
     </g>
     <g id="text_39">
      <text style="font: 7px 'Arial'; text-anchor: end" x="41.039687" y="309.318944" transform="rotate(-0 41.039687 309.318944)">0</text>
     </g>
    </g>
    <g id="ytick_16">
     <g id="line2d_35">
      <g>
       <use xlink:href="#m31c2abfead" x="48.039687" y="282.67701" style="stroke: #000000; stroke-width: 0.8"/>
      </g>
     </g>
     <g id="text_40">
      <text style="font: 7px 'Arial'; text-anchor: end" x="41.039687" y="285.182244" transform="rotate(-0 41.039687 285.182244)">50000</text>
     </g>
    </g>
    <g id="ytick_17">
     <g id="line2d_36">
      <g>
       <use xlink:href="#m31c2abfead" x="48.039687" y="258.540309" style="stroke: #000000; stroke-width: 0.8"/>
      </g>
     </g>
     <g id="text_41">
      <text style="font: 7px 'Arial'; text-anchor: end" x="41.039687" y="261.045543" transform="rotate(-0 41.039687 261.045543)">100000</text>
     </g>
    </g>
    <g id="ytick_18">
     <g id="line2d_37">
      <g>
       <use xlink:href="#m31c2abfead" x="48.039687" y="234.403609" style="stroke: #000000; stroke-width: 0.8"/>
      </g>
     </g>
     <g id="text_42">
      <text style="font: 7px 'Arial'; text-anchor: end" x="41.039687" y="236.908843" transform="rotate(-0 41.039687 236.908843)">150000</text>
     </g>
    </g>
    <g id="ytick_19">
     <g id="line2d_38">
      <g>
       <use xlink:href="#m31c2abfead" x="48.039687" y="210.266908" style="stroke: #000000; stroke-width: 0.8"/>
      </g>
     </g>
     <g id="text_43">
      <text style="font: 7px 'Arial'; text-anchor: end" x="41.039687" y="212.772142" transform="rotate(-0 41.039687 212.772142)">200000</text>
     </g>
    </g>
    <g id="ytick_20">
     <g id="line2d_39">
      <g>
       <use xlink:href="#m31c2abfead" x="48.039687" y="186.130208" style="stroke: #000000; stroke-width: 0.8"/>
      </g>
     </g>
     <g id="text_44">
      <text style="font: 7px 'Arial'; text-anchor: end" x="41.039687" y="188.635442" transform="rotate(-0 41.039687 188.635442)">250000</text>
     </g>
    </g>
    <g id="text_45">
     <text style="font: 7px 'Arial'; text-anchor: middle" x="12.210469" y="238.719685" transform="rotate(-90 12.210469 238.719685)">Frequency</text>
    </g>
   </g>
   <g id="patch_43">
    <path d="M 48.039687 306.81371 
L 48.039687 170.62566 
" style="fill: none; stroke: #000000; stroke-width: 0.8; stroke-linejoin: miter; stroke-linecap: square"/>
   </g>
   <g id="patch_44">
    <path d="M 257.739043 306.81371 
L 257.739043 170.62566 
" style="fill: none; stroke: #000000; stroke-width: 0.8; stroke-linejoin: miter; stroke-linecap: square"/>
   </g>
   <g id="patch_45">
    <path d="M 48.039687 306.81371 
L 257.739043 306.81371 
" style="fill: none; stroke: #000000; stroke-width: 0.8; stroke-linejoin: miter; stroke-linecap: square"/>
   </g>
   <g id="patch_46">
    <path d="M 48.039687 170.62566 
L 257.739043 170.62566 
" style="fill: none; stroke: #000000; stroke-width: 0.8; stroke-linejoin: miter; stroke-linecap: square"/>
   </g>
  </g>
  <g id="axes_4">
   <g id="patch_47">
    <path d="M 299.678914 306.81371 
L 509.37827 306.81371 
L 509.37827 170.62566 
L 299.678914 170.62566 
z
" style="fill: #ffffff"/>
   </g>
   <g id="patch_48">
    <path d="M 309.210703 306.81371 
L 328.274281 306.81371 
L 328.274281 177.110805 
L 309.210703 177.110805 
z
" clip-path="url(#peb8a4a1b4a)" style="fill: #004488"/>
   </g>
   <g id="patch_49">
    <path d="M 328.274281 306.81371 
L 347.337859 306.81371 
L 347.337859 186.328407 
L 328.274281 186.328407 
z
" clip-path="url(#peb8a4a1b4a)" style="fill: #004488"/>
   </g>
   <g id="patch_50">
    <path d="M 347.337859 306.81371 
L 366.401437 306.81371 
L 366.401437 238.328105 
L 347.337859 238.328105 
z
" clip-path="url(#peb8a4a1b4a)" style="fill: #004488"/>
   </g>
   <g id="patch_51">
    <path d="M 366.401437 306.81371 
L 385.465014 306.81371 
L 385.465014 242.176328 
L 366.401437 242.176328 
z
" clip-path="url(#peb8a4a1b4a)" style="fill: #004488"/>
   </g>
   <g id="patch_52">
    <path d="M 385.465014 306.81371 
L 404.528592 306.81371 
L 404.528592 259.348938 
L 385.465014 259.348938 
z
" clip-path="url(#peb8a4a1b4a)" style="fill: #004488"/>
   </g>
   <g id="patch_53">
    <path d="M 404.528592 306.81371 
L 423.59217 306.81371 
L 423.59217 271.078294 
L 404.528592 271.078294 
z
" clip-path="url(#peb8a4a1b4a)" style="fill: #004488"/>
   </g>
   <g id="patch_54">
    <path d="M 423.59217 306.81371 
L 442.655748 306.81371 
L 442.655748 279.538676 
L 423.59217 279.538676 
z
" clip-path="url(#peb8a4a1b4a)" style="fill: #004488"/>
   </g>
   <g id="patch_55">
    <path d="M 442.655748 306.81371 
L 461.719326 306.81371 
L 461.719326 291.88086 
L 442.655748 291.88086 
z
" clip-path="url(#peb8a4a1b4a)" style="fill: #004488"/>
   </g>
   <g id="patch_56">
    <path d="M 461.719326 306.81371 
L 480.782903 306.81371 
L 480.782903 300.943995 
L 461.719326 300.943995 
z
" clip-path="url(#peb8a4a1b4a)" style="fill: #004488"/>
   </g>
   <g id="patch_57">
    <path d="M 480.782903 306.81371 
L 499.846481 306.81371 
L 499.846481 306.53332 
L 480.782903 306.53332 
z
" clip-path="url(#peb8a4a1b4a)" style="fill: #004488"/>
   </g>
   <g id="matplotlib.axis_7">
    <g id="xtick_20">
     <g id="line2d_40">
      <g>
       <use xlink:href="#m5e5e448ba0" x="309.210703" y="306.81371" style="stroke: #000000; stroke-width: 0.8"/>
      </g>
     </g>
     <g id="text_46">
      <text style="font: 7px 'Arial'; text-anchor: middle" x="309.210703" y="318.824179" transform="rotate(-0 309.210703 318.824179)">0</text>
     </g>
    </g>
    <g id="xtick_21">
     <g id="line2d_41">
      <g>
       <use xlink:href="#m5e5e448ba0" x="355.147035" y="306.81371" style="stroke: #000000; stroke-width: 0.8"/>
      </g>
     </g>
     <g id="text_47">
      <text style="font: 7px 'Arial'; text-anchor: middle" x="355.147035" y="318.824179" transform="rotate(-0 355.147035 318.824179)">20</text>
     </g>
    </g>
    <g id="xtick_22">
     <g id="line2d_42">
      <g>
       <use xlink:href="#m5e5e448ba0" x="401.083367" y="306.81371" style="stroke: #000000; stroke-width: 0.8"/>
      </g>
     </g>
     <g id="text_48">
      <text style="font: 7px 'Arial'; text-anchor: middle" x="401.083367" y="318.824179" transform="rotate(-0 401.083367 318.824179)">40</text>
     </g>
    </g>
    <g id="xtick_23">
     <g id="line2d_43">
      <g>
       <use xlink:href="#m5e5e448ba0" x="447.019699" y="306.81371" style="stroke: #000000; stroke-width: 0.8"/>
      </g>
     </g>
     <g id="text_49">
      <text style="font: 7px 'Arial'; text-anchor: middle" x="447.019699" y="318.824179" transform="rotate(-0 447.019699 318.824179)">60</text>
     </g>
    </g>
    <g id="xtick_24">
     <g id="line2d_44">
      <g>
       <use xlink:href="#m5e5e448ba0" x="492.956031" y="306.81371" style="stroke: #000000; stroke-width: 0.8"/>
      </g>
     </g>
     <g id="text_50">
      <text style="font: 7px 'Arial'; text-anchor: middle" x="492.956031" y="318.824179" transform="rotate(-0 492.956031 318.824179)">80</text>
     </g>
    </g>
    <g id="text_51">
     <!-- Speed ($km/h$) -->
     <g transform="translate(382.268592 329.535429)">
      <text>
       <tspan style="font: 7px 'Arial'" x="0 4.668945 8.562012 12.455078 16.348145 20.241211 22.186035 42.18457" y="-0.6875">Speed ()</tspan>
       <tspan style="font: oblique 7px 'DejaVu Sans'" x="24.51709 28.570801 37.748047" y="-0.6875">kmh</tspan>
       <tspan style="font: 7px 'DejaVu Sans'" x="35.389648" y="-0.6875">/</tspan>
      </text>
     </g>
    </g>
   </g>
   <g id="matplotlib.axis_8">
    <g id="ytick_21">
     <g id="line2d_45">
      <g>
       <use xlink:href="#m31c2abfead" x="299.678914" y="306.81371" style="stroke: #000000; stroke-width: 0.8"/>
      </g>
     </g>
     <g id="text_52">
      <text style="font: 7px 'Arial'; text-anchor: end" x="292.678914" y="309.318944" transform="rotate(-0 292.678914 309.318944)">0</text>
     </g>
    </g>
    <g id="ytick_22">
     <g id="line2d_46">
      <g>
       <use xlink:href="#m31c2abfead" x="299.678914" y="290.023907" style="stroke: #000000; stroke-width: 0.8"/>
      </g>
     </g>
     <g id="text_53">
      <text style="font: 7px 'Arial'; text-anchor: end" x="292.678914" y="292.529142" transform="rotate(-0 292.678914 292.529142)">10000</text>
     </g>
    </g>
    <g id="ytick_23">
     <g id="line2d_47">
      <g>
       <use xlink:href="#m31c2abfead" x="299.678914" y="273.234105" style="stroke: #000000; stroke-width: 0.8"/>
      </g>
     </g>
     <g id="text_54">
      <text style="font: 7px 'Arial'; text-anchor: end" x="292.678914" y="275.739339" transform="rotate(-0 292.678914 275.739339)">20000</text>
     </g>
    </g>
    <g id="ytick_24">
     <g id="line2d_48">
      <g>
       <use xlink:href="#m31c2abfead" x="299.678914" y="256.444302" style="stroke: #000000; stroke-width: 0.8"/>
      </g>
     </g>
     <g id="text_55">
      <text style="font: 7px 'Arial'; text-anchor: end" x="292.678914" y="258.949536" transform="rotate(-0 292.678914 258.949536)">30000</text>
     </g>
    </g>
    <g id="ytick_25">
     <g id="line2d_49">
      <g>
       <use xlink:href="#m31c2abfead" x="299.678914" y="239.654499" style="stroke: #000000; stroke-width: 0.8"/>
      </g>
     </g>
     <g id="text_56">
      <text style="font: 7px 'Arial'; text-anchor: end" x="292.678914" y="242.159734" transform="rotate(-0 292.678914 242.159734)">40000</text>
     </g>
    </g>
    <g id="ytick_26">
     <g id="line2d_50">
      <g>
       <use xlink:href="#m31c2abfead" x="299.678914" y="222.864697" style="stroke: #000000; stroke-width: 0.8"/>
      </g>
     </g>
     <g id="text_57">
      <text style="font: 7px 'Arial'; text-anchor: end" x="292.678914" y="225.369931" transform="rotate(-0 292.678914 225.369931)">50000</text>
     </g>
    </g>
    <g id="ytick_27">
     <g id="line2d_51">
      <g>
       <use xlink:href="#m31c2abfead" x="299.678914" y="206.074894" style="stroke: #000000; stroke-width: 0.8"/>
      </g>
     </g>
     <g id="text_58">
      <text style="font: 7px 'Arial'; text-anchor: end" x="292.678914" y="208.580128" transform="rotate(-0 292.678914 208.580128)">60000</text>
     </g>
    </g>
    <g id="ytick_28">
     <g id="line2d_52">
      <g>
       <use xlink:href="#m31c2abfead" x="299.678914" y="189.285091" style="stroke: #000000; stroke-width: 0.8"/>
      </g>
     </g>
     <g id="text_59">
      <text style="font: 7px 'Arial'; text-anchor: end" x="292.678914" y="191.790326" transform="rotate(-0 292.678914 191.790326)">70000</text>
     </g>
    </g>
    <g id="ytick_29">
     <g id="line2d_53">
      <g>
       <use xlink:href="#m31c2abfead" x="299.678914" y="172.495289" style="stroke: #000000; stroke-width: 0.8"/>
      </g>
     </g>
     <g id="text_60">
      <text style="font: 7px 'Arial'; text-anchor: end" x="292.678914" y="175.000523" transform="rotate(-0 292.678914 175.000523)">80000</text>
     </g>
    </g>
    <g id="text_61">
     <text style="font: 7px 'Arial'; text-anchor: middle" x="267.742352" y="238.719685" transform="rotate(-90 267.742352 238.719685)">Frequency</text>
    </g>
   </g>
   <g id="patch_58">
    <path d="M 299.678914 306.81371 
L 299.678914 170.62566 
" style="fill: none; stroke: #000000; stroke-width: 0.8; stroke-linejoin: miter; stroke-linecap: square"/>
   </g>
   <g id="patch_59">
    <path d="M 509.37827 306.81371 
L 509.37827 170.62566 
" style="fill: none; stroke: #000000; stroke-width: 0.8; stroke-linejoin: miter; stroke-linecap: square"/>
   </g>
   <g id="patch_60">
    <path d="M 299.678914 306.81371 
L 509.37827 306.81371 
" style="fill: none; stroke: #000000; stroke-width: 0.8; stroke-linejoin: miter; stroke-linecap: square"/>
   </g>
   <g id="patch_61">
    <path d="M 299.678914 170.62566 
L 509.37827 170.62566 
" style="fill: none; stroke: #000000; stroke-width: 0.8; stroke-linejoin: miter; stroke-linecap: square"/>
   </g>
  </g>
  <g id="axes_5">
   <g id="patch_62">
    <path d="M 48.039687 470.23937 
L 257.739043 470.23937 
L 257.739043 334.05132 
L 48.039687 334.05132 
z
" style="fill: #ffffff"/>
   </g>
   <g id="patch_63">
    <path d="M 57.571476 470.23937 
L 76.635054 470.23937 
L 76.635054 468.381937 
L 57.571476 468.381937 
z
" clip-path="url(#p9d10610de5)" style="fill: #004488"/>
   </g>
   <g id="patch_64">
    <path d="M 76.635054 470.23937 
L 95.698632 470.23937 
L 95.698632 418.69963 
L 76.635054 418.69963 
z
" clip-path="url(#p9d10610de5)" style="fill: #004488"/>
   </g>
   <g id="patch_65">
    <path d="M 95.698632 470.23937 
L 114.76221 470.23937 
L 114.76221 340.536465 
L 95.698632 340.536465 
z
" clip-path="url(#p9d10610de5)" style="fill: #004488"/>
   </g>
   <g id="patch_66">
    <path d="M 114.76221 470.23937 
L 133.825788 470.23937 
L 133.825788 456.914754 
L 114.76221 456.914754 
z
" clip-path="url(#p9d10610de5)" style="fill: #004488"/>
   </g>
   <g id="patch_67">
    <path d="M 133.825788 470.23937 
L 152.889365 470.23937 
L 152.889365 469.309686 
L 133.825788 469.309686 
z
" clip-path="url(#p9d10610de5)" style="fill: #004488"/>
   </g>
   <g id="patch_68">
    <path d="M 152.889365 470.23937 
L 171.952943 470.23937 
L 171.952943 470.095498 
L 152.889365 470.095498 
z
" clip-path="url(#p9d10610de5)" style="fill: #004488"/>
   </g>
   <g id="patch_69">
    <path d="M 171.952943 470.23937 
L 191.016521 470.23937 
L 191.016521 470.183886 
L 171.952943 470.183886 
z
" clip-path="url(#p9d10610de5)" style="fill: #004488"/>
   </g>
   <g id="patch_70">
    <path d="M 191.016521 470.23937 
L 210.080099 470.23937 
L 210.080099 470.216789 
L 191.016521 470.216789 
z
" clip-path="url(#p9d10610de5)" style="fill: #004488"/>
   </g>
   <g id="patch_71">
    <path d="M 210.080099 470.23937 
L 229.143677 470.23937 
L 229.143677 470.223886 
L 210.080099 470.223886 
z
" clip-path="url(#p9d10610de5)" style="fill: #004488"/>
   </g>
   <g id="patch_72">
    <path d="M 229.143677 470.23937 
L 248.207254 470.23937 
L 248.207254 470.234854 
L 229.143677 470.234854 
z
" clip-path="url(#p9d10610de5)" style="fill: #004488"/>
   </g>
   <g id="matplotlib.axis_9">
    <g id="xtick_25">
     <g id="line2d_54">
      <g>
       <use xlink:href="#m5e5e448ba0" x="57.531207" y="470.23937" style="stroke: #000000; stroke-width: 0.8"/>
      </g>
     </g>
     <g id="text_62">
      <text style="font: 7px 'Arial'; text-anchor: middle" x="57.531207" y="482.249839" transform="rotate(-0 57.531207 482.249839)">0</text>
     </g>
    </g>
    <g id="xtick_26">
     <g id="line2d_55">
      <g>
       <use xlink:href="#m5e5e448ba0" x="97.8007" y="470.23937" style="stroke: #000000; stroke-width: 0.8"/>
      </g>
     </g>
     <g id="text_63">
      <text style="font: 7px 'Arial'; text-anchor: middle" x="97.8007" y="482.249839" transform="rotate(-0 97.8007 482.249839)">1</text>
     </g>
    </g>
    <g id="xtick_27">
     <g id="line2d_56">
      <g>
       <use xlink:href="#m5e5e448ba0" x="138.070192" y="470.23937" style="stroke: #000000; stroke-width: 0.8"/>
      </g>
     </g>
     <g id="text_64">
      <text style="font: 7px 'Arial'; text-anchor: middle" x="138.070192" y="482.249839" transform="rotate(-0 138.070192 482.249839)">2</text>
     </g>
    </g>
    <g id="xtick_28">
     <g id="line2d_57">
      <g>
       <use xlink:href="#m5e5e448ba0" x="178.339685" y="470.23937" style="stroke: #000000; stroke-width: 0.8"/>
      </g>
     </g>
     <g id="text_65">
      <text style="font: 7px 'Arial'; text-anchor: middle" x="178.339685" y="482.249839" transform="rotate(-0 178.339685 482.249839)">3</text>
     </g>
    </g>
    <g id="xtick_29">
     <g id="line2d_58">
      <g>
       <use xlink:href="#m5e5e448ba0" x="218.609177" y="470.23937" style="stroke: #000000; stroke-width: 0.8"/>
      </g>
     </g>
     <g id="text_66">
      <text style="font: 7px 'Arial'; text-anchor: middle" x="218.609177" y="482.249839" transform="rotate(-0 218.609177 482.249839)">4</text>
     </g>
    </g>
    <g id="text_67">
     <!-- Time ($s$) -->
     <g transform="translate(139.974365 492.751089)">
      <text>
       <tspan style="font: 7px 'Arial'" x="0 4.275879 5.831055 11.662109 15.555176 17.5 23.478027" y="-0.90625">Time ()</tspan>
       <tspan style="font: oblique 7px 'DejaVu Sans'" x="19.831055" y="-0.90625">s</tspan>
      </text>
     </g>
    </g>
   </g>
   <g id="matplotlib.axis_10">
    <g id="ytick_30">
     <g id="line2d_59">
      <g>
       <use xlink:href="#m31c2abfead" x="48.039687" y="470.23937" style="stroke: #000000; stroke-width: 0.8"/>
      </g>
     </g>
     <g id="text_68">
      <text style="font: 7px 'Arial'; text-anchor: end" x="41.039687" y="472.744604" transform="rotate(-0 41.039687 472.744604)">0</text>
     </g>
    </g>
    <g id="ytick_31">
     <g id="line2d_60">
      <g>
       <use xlink:href="#m31c2abfead" x="48.039687" y="454.110217" style="stroke: #000000; stroke-width: 0.8"/>
      </g>
     </g>
     <g id="text_69">
      <text style="font: 7px 'Arial'; text-anchor: end" x="41.039687" y="456.615452" transform="rotate(-0 41.039687 456.615452)">25000</text>
     </g>
    </g>
    <g id="ytick_32">
     <g id="line2d_61">
      <g>
       <use xlink:href="#m31c2abfead" x="48.039687" y="437.981064" style="stroke: #000000; stroke-width: 0.8"/>
      </g>
     </g>
     <g id="text_70">
      <text style="font: 7px 'Arial'; text-anchor: end" x="41.039687" y="440.486299" transform="rotate(-0 41.039687 440.486299)">50000</text>
     </g>
    </g>
    <g id="ytick_33">
     <g id="line2d_62">
      <g>
       <use xlink:href="#m31c2abfead" x="48.039687" y="421.851912" style="stroke: #000000; stroke-width: 0.8"/>
      </g>
     </g>
     <g id="text_71">
      <text style="font: 7px 'Arial'; text-anchor: end" x="41.039687" y="424.357146" transform="rotate(-0 41.039687 424.357146)">75000</text>
     </g>
    </g>
    <g id="ytick_34">
     <g id="line2d_63">
      <g>
       <use xlink:href="#m31c2abfead" x="48.039687" y="405.722759" style="stroke: #000000; stroke-width: 0.8"/>
      </g>
     </g>
     <g id="text_72">
      <text style="font: 7px 'Arial'; text-anchor: end" x="41.039687" y="408.227993" transform="rotate(-0 41.039687 408.227993)">100000</text>
     </g>
    </g>
    <g id="ytick_35">
     <g id="line2d_64">
      <g>
       <use xlink:href="#m31c2abfead" x="48.039687" y="389.593606" style="stroke: #000000; stroke-width: 0.8"/>
      </g>
     </g>
     <g id="text_73">
      <text style="font: 7px 'Arial'; text-anchor: end" x="41.039687" y="392.09884" transform="rotate(-0 41.039687 392.09884)">125000</text>
     </g>
    </g>
    <g id="ytick_36">
     <g id="line2d_65">
      <g>
       <use xlink:href="#m31c2abfead" x="48.039687" y="373.464453" style="stroke: #000000; stroke-width: 0.8"/>
      </g>
     </g>
     <g id="text_74">
      <text style="font: 7px 'Arial'; text-anchor: end" x="41.039687" y="375.969688" transform="rotate(-0 41.039687 375.969688)">150000</text>
     </g>
    </g>
    <g id="ytick_37">
     <g id="line2d_66">
      <g>
       <use xlink:href="#m31c2abfead" x="48.039687" y="357.335301" style="stroke: #000000; stroke-width: 0.8"/>
      </g>
     </g>
     <g id="text_75">
      <text style="font: 7px 'Arial'; text-anchor: end" x="41.039687" y="359.840535" transform="rotate(-0 41.039687 359.840535)">175000</text>
     </g>
    </g>
    <g id="ytick_38">
     <g id="line2d_67">
      <g>
       <use xlink:href="#m31c2abfead" x="48.039687" y="341.206148" style="stroke: #000000; stroke-width: 0.8"/>
      </g>
     </g>
     <g id="text_76">
      <text style="font: 7px 'Arial'; text-anchor: end" x="41.039687" y="343.711382" transform="rotate(-0 41.039687 343.711382)">200000</text>
     </g>
    </g>
    <g id="text_77">
     <text style="font: 7px 'Arial'; text-anchor: middle" x="12.210469" y="402.145345" transform="rotate(-90 12.210469 402.145345)">Frequency</text>
    </g>
   </g>
   <g id="patch_73">
    <path d="M 48.039687 470.23937 
L 48.039687 334.05132 
" style="fill: none; stroke: #000000; stroke-width: 0.8; stroke-linejoin: miter; stroke-linecap: square"/>
   </g>
   <g id="patch_74">
    <path d="M 257.739043 470.23937 
L 257.739043 334.05132 
" style="fill: none; stroke: #000000; stroke-width: 0.8; stroke-linejoin: miter; stroke-linecap: square"/>
   </g>
   <g id="patch_75">
    <path d="M 48.039687 470.23937 
L 257.739043 470.23937 
" style="fill: none; stroke: #000000; stroke-width: 0.8; stroke-linejoin: miter; stroke-linecap: square"/>
   </g>
   <g id="patch_76">
    <path d="M 48.039687 334.05132 
L 257.739043 334.05132 
" style="fill: none; stroke: #000000; stroke-width: 0.8; stroke-linejoin: miter; stroke-linecap: square"/>
   </g>
  </g>
 </g>
 <defs>
  <clipPath id="p35d6f3e439">
   <rect x="48.039687" y="7.2" width="209.699356" height="136.18805"/>
  </clipPath>
  <clipPath id="p959c14fce8">
   <rect x="299.678914" y="7.2" width="209.699356" height="136.18805"/>
  </clipPath>
  <clipPath id="p3437afdc0b">
   <rect x="48.039687" y="170.62566" width="209.699356" height="136.18805"/>
  </clipPath>
  <clipPath id="peb8a4a1b4a">
   <rect x="299.678914" y="170.62566" width="209.699356" height="136.18805"/>
  </clipPath>
  <clipPath id="p9d10610de5">
   <rect x="48.039687" y="334.05132" width="209.699356" height="136.18805"/>
  </clipPath>
 </defs>
</svg>
