<?xml version="1.0" encoding="utf-8" standalone="no"?>
<!DOCTYPE svg PUBLIC "-//W3C//DTD SVG 1.1//EN"
  "http://www.w3.org/Graphics/SVG/1.1/DTD/svg11.dtd">
<svg xmlns:xlink="http://www.w3.org/1999/xlink" width="560.176767pt" height="484.735584pt" viewBox="0 0 560.176767 484.735584" xmlns="http://www.w3.org/2000/svg" version="1.1">
 <metadata>
  <rdf:RDF xmlns:dc="http://purl.org/dc/elements/1.1/" xmlns:cc="http://creativecommons.org/ns#" xmlns:rdf="http://www.w3.org/1999/02/22-rdf-syntax-ns#">
   <cc:Work>
    <dc:type rdf:resource="http://purl.org/dc/dcmitype/StillImage"/>
    <dc:date>2024-10-16T10:12:34.832820</dc:date>
    <dc:format>image/svg+xml</dc:format>
    <dc:creator>
     <cc:Agent>
      <dc:title>Matplotlib v3.7.0, https://matplotlib.org/</dc:title>
     </cc:Agent>
    </dc:creator>
   </cc:Work>
  </rdf:RDF>
 </metadata>
 <defs>
  <style type="text/css">*{stroke-linejoin: round; stroke-linecap: butt}</style>
 </defs>
 <g id="figure_1">
  <g id="patch_1">
   <path d="M 0 484.735584 
L 560.176767 484.735584 
L 560.176767 0 
L 0 0 
z
" style="fill: #ffffff"/>
  </g>
  <g id="axes_1">
   <g id="patch_2">
    <path d="M 53.00375 94.582513 
L 514.342333 94.582513 
L 514.342333 24.12 
L 53.00375 24.12 
z
" style="fill: #ffffff"/>
   </g>
   <g id="matplotlib.axis_1"/>
   <g id="matplotlib.axis_2">
    <g id="ytick_1">
     <g id="line2d_1">
      <defs>
       <path id="m828e2cd8ef" d="M 0 0 
L -3.5 0 
" style="stroke: #000000; stroke-width: 0.8"/>
      </defs>
      <g>
       <use xlink:href="#m828e2cd8ef" x="53.00375" y="80.707212" style="stroke: #000000; stroke-width: 0.8"/>
      </g>
     </g>
     <g id="text_1">
      <text style="font: 12px 'Arial'; text-anchor: end" x="46.00375" y="85.001899" transform="rotate(-0 46.00375 85.001899)">−2.5</text>
     </g>
    </g>
    <g id="ytick_2">
     <g id="line2d_2">
      <g>
       <use xlink:href="#m828e2cd8ef" x="53.00375" y="42.992319" style="stroke: #000000; stroke-width: 0.8"/>
      </g>
     </g>
     <g id="text_2">
      <text style="font: 12px 'Arial'; text-anchor: end" x="46.00375" y="47.287006" transform="rotate(-0 46.00375 47.287006)">0.0</text>
     </g>
    </g>
    <g id="text_3">
     <text style="font: 12px 'Arial'; text-anchor: middle" x="15.789375" y="59.351256" transform="rotate(-90 15.789375 59.351256)">Heading</text>
    </g>
   </g>
   <g id="line2d_3">
    <path d="M 53.00375 30.976233 
L 69.480128 31.949638 
L 85.956506 32.910256 
L 102.432884 33.44662 
L 184.814774 36.056973 
L 349.578553 40.213879 
L 514.342333 43.383681 
" clip-path="url(#p9191e9bcea)" style="fill: none; stroke-dasharray: 5.55,2.4; stroke-dashoffset: 0; stroke: #6699cc; stroke-width: 1.5"/>
   </g>
   <g id="line2d_4">
    <path d="M 53.00375 31.144704 
L 69.480128 32.057443 
L 85.956506 32.882914 
L 102.432884 33.488804 
L 184.814774 36.273178 
L 349.578553 40.136327 
L 514.342333 42.739845 
" clip-path="url(#p9191e9bcea)" style="fill: none; stroke-dasharray: 1.5,2.475; stroke-dashoffset: 0; stroke: #6699cc; stroke-width: 1.5"/>
   </g>
   <g id="line2d_5">
    <path d="M 53.00375 30.806186 
L 69.480128 32.28209 
L 85.956506 33.275565 
L 102.432884 34.028974 
L 184.814774 36.62126 
L 349.578553 40.377873 
L 514.342333 42.988237 
" clip-path="url(#p9191e9bcea)" style="fill: none; stroke-dasharray: 9.6,2.4,1.5,2.4; stroke-dashoffset: 0; stroke: #6699cc; stroke-width: 1.5"/>
   </g>
   <g id="line2d_6">
    <path d="M 53.00375 31.032528 
L 69.480128 32.115429 
L 85.956506 33.132352 
L 102.432884 33.733601 
L 184.814774 36.485593 
L 349.578553 40.356971 
L 514.342333 43.186508 
" clip-path="url(#p9191e9bcea)" style="fill: none; stroke: #6699cc; stroke-width: 1.5; stroke-linecap: square"/>
   </g>
   <g id="line2d_7">
    <path d="M 53.00375 30.180012 
L 69.480128 31.282259 
L 85.956506 32.126429 
L 102.432884 32.800894 
L 184.814774 35.356487 
L 349.578553 38.728868 
L 514.342333 40.70941 
" clip-path="url(#p9191e9bcea)" style="fill: none; stroke-dasharray: 5.55,2.4; stroke-dashoffset: 0; stroke: #004488; stroke-width: 1.5"/>
   </g>
   <g id="line2d_8">
    <path d="M 53.00375 87.868019 
L 69.480128 87.86905 
L 85.956506 87.877709 
L 102.432884 87.887096 
L 184.814774 87.946927 
L 349.578553 88.271814 
L 514.342333 88.710637 
" clip-path="url(#p9191e9bcea)" style="fill: none; stroke: #004488; stroke-width: 1.5; stroke-linecap: square"/>
   </g>
   <g id="line2d_9">
    <path d="M 53.00375 87.868019 
L 69.480128 87.86905 
L 85.956506 87.877709 
L 102.432884 87.887096 
L 184.814774 87.946927 
L 349.578553 88.271814 
L 514.342333 88.710637 
" clip-path="url(#p9191e9bcea)" style="fill: none; stroke-dasharray: 9.6,2.4,1.5,2.4; stroke-dashoffset: 0; stroke: #004488; stroke-width: 1.5"/>
   </g>
   <g id="line2d_10">
    <path d="M 53.00375 87.868019 
L 69.480128 87.86905 
L 85.956506 87.877709 
L 102.432884 87.887096 
L 184.814774 87.946927 
L 349.578553 88.271814 
L 514.342333 88.710637 
" clip-path="url(#p9191e9bcea)" style="fill: none; stroke-dasharray: 1.5,2.475; stroke-dashoffset: 0; stroke: #004488; stroke-width: 1.5"/>
   </g>
   <g id="line2d_11">
    <path d="M 53.00375 30.183552 
L 69.480128 31.246491 
L 85.956506 32.619124 
L 102.432884 32.7884 
L 184.814774 35.219263 
L 349.578553 38.294944 
L 514.342333 40.098689 
" clip-path="url(#p9191e9bcea)" style="fill: none; stroke-dasharray: 5.55,2.4; stroke-dashoffset: 0; stroke: #ddaa33; stroke-width: 1.5"/>
   </g>
   <g id="line2d_12">
    <path d="M 53.00375 87.868019 
L 69.480128 87.86905 
L 85.956506 87.877709 
L 102.432884 87.887096 
L 184.814774 87.946927 
L 349.578553 88.271814 
L 514.342333 88.710637 
" clip-path="url(#p9191e9bcea)" style="fill: none; stroke: #ddaa33; stroke-width: 1.5; stroke-linecap: square"/>
   </g>
   <g id="line2d_13">
    <path d="M 53.00375 87.868019 
L 69.480128 87.86905 
L 85.956506 87.877709 
L 102.432884 87.887096 
L 184.814774 87.946927 
L 349.578553 88.271814 
L 514.342333 88.710637 
" clip-path="url(#p9191e9bcea)" style="fill: none; stroke-dasharray: 9.6,2.4,1.5,2.4; stroke-dashoffset: 0; stroke: #ddaa33; stroke-width: 1.5"/>
   </g>
   <g id="line2d_14">
    <path d="M 53.00375 87.868019 
L 69.480128 87.86905 
L 85.956506 87.877709 
L 102.432884 87.887096 
L 184.814774 87.946927 
L 349.578553 88.271814 
L 514.342333 88.710637 
" clip-path="url(#p9191e9bcea)" style="fill: none; stroke-dasharray: 1.5,2.475; stroke-dashoffset: 0; stroke: #ddaa33; stroke-width: 1.5"/>
   </g>
   <g id="line2d_15">
    <path d="M 53.00375 29.991876 
L 69.480128 31.037777 
L 85.956506 31.987586 
L 102.432884 32.663583 
L 184.814774 35.163437 
L 349.578553 38.674159 
L 514.342333 40.517069 
" clip-path="url(#p9191e9bcea)" style="fill: none; stroke-dasharray: 5.55,2.4; stroke-dashoffset: 0; stroke: #bb5566; stroke-width: 1.5"/>
   </g>
   <g id="line2d_16">
    <path d="M 53.00375 87.868019 
L 69.480128 87.86905 
L 85.956506 87.877709 
L 102.432884 87.887096 
L 184.814774 87.946927 
L 349.578553 88.271814 
L 514.342333 88.710637 
" clip-path="url(#p9191e9bcea)" style="fill: none; stroke: #bb5566; stroke-width: 1.5; stroke-linecap: square"/>
   </g>
   <g id="line2d_17">
    <path d="M 53.00375 87.868019 
L 69.480128 87.86905 
L 85.956506 87.877709 
L 102.432884 87.887096 
L 184.814774 87.946927 
L 349.578553 88.271814 
L 514.342333 88.710637 
" clip-path="url(#p9191e9bcea)" style="fill: none; stroke-dasharray: 9.6,2.4,1.5,2.4; stroke-dashoffset: 0; stroke: #bb5566; stroke-width: 1.5"/>
   </g>
   <g id="line2d_18">
    <path d="M 53.00375 87.868019 
L 69.480128 87.86905 
L 85.956506 87.877709 
L 102.432884 87.887096 
L 184.814774 87.946927 
L 349.578553 88.271814 
L 514.342333 88.710637 
" clip-path="url(#p9191e9bcea)" style="fill: none; stroke-dasharray: 1.5,2.475; stroke-dashoffset: 0; stroke: #bb5566; stroke-width: 1.5"/>
   </g>
   <g id="line2d_19">
    <path d="M 53.00375 31.343756 
L 69.480128 31.807158 
L 85.956506 32.240877 
L 102.432884 32.649651 
L 184.814774 34.257611 
L 349.578553 36.321808 
L 514.342333 37.679027 
" clip-path="url(#p9191e9bcea)" style="fill: none; stroke: #000000; stroke-width: 1.5; stroke-linecap: square"/>
   </g>
   <g id="patch_3">
    <path d="M 53.00375 94.582513 
L 53.00375 24.12 
" style="fill: none; stroke: #000000; stroke-width: 0.8; stroke-linejoin: miter; stroke-linecap: square"/>
   </g>
   <g id="patch_4">
    <path d="M 514.342333 94.582513 
L 514.342333 24.12 
" style="fill: none; stroke: #000000; stroke-width: 0.8; stroke-linejoin: miter; stroke-linecap: square"/>
   </g>
   <g id="patch_5">
    <path d="M 53.00375 94.582513 
L 514.342333 94.582513 
" style="fill: none; stroke: #000000; stroke-width: 0.8; stroke-linejoin: miter; stroke-linecap: square"/>
   </g>
   <g id="patch_6">
    <path d="M 53.00375 24.12 
L 514.342333 24.12 
" style="fill: none; stroke: #000000; stroke-width: 0.8; stroke-linejoin: miter; stroke-linecap: square"/>
   </g>
   <g id="text_4">
    <!-- $R^{2}$ (%) -->
    <g transform="translate(265.193041 18.12)">
     <text>
      <tspan style="font: oblique 12px 'DejaVu Sans'" x="0" y="-0.171875">R</tspan>
      <tspan style="font: 8.4px 'DejaVu Sans'" x="9.180078" y="-4.765625">2</tspan>
      <tspan style="font: 12px 'Arial'" x="14.852539 18.186523 22.182617 32.852539" y="-0.171875"> (%)</tspan>
     </text>
    </g>
   </g>
  </g>
  <g id="axes_2">
   <g id="patch_7">
    <path d="M 53.00375 179.137528 
L 514.342333 179.137528 
L 514.342333 108.675015 
L 53.00375 108.675015 
z
" style="fill: #ffffff"/>
   </g>
   <g id="matplotlib.axis_3"/>
   <g id="matplotlib.axis_4">
    <g id="ytick_3">
     <g id="line2d_20">
      <g>
       <use xlink:href="#m828e2cd8ef" x="53.00375" y="161.899008" style="stroke: #000000; stroke-width: 0.8"/>
      </g>
     </g>
     <g id="text_5">
      <text style="font: 12px 'Arial'; text-anchor: end" x="46.00375" y="166.193695" transform="rotate(-0 46.00375 166.193695)">0</text>
     </g>
    </g>
    <g id="ytick_4">
     <g id="line2d_21">
      <g>
       <use xlink:href="#m828e2cd8ef" x="53.00375" y="112.361976" style="stroke: #000000; stroke-width: 0.8"/>
      </g>
     </g>
     <g id="text_6">
      <text style="font: 12px 'Arial'; text-anchor: end" x="46.00375" y="116.656664" transform="rotate(-0 46.00375 116.656664)">1</text>
     </g>
    </g>
    <g id="text_7">
     <!-- $y$ offset -->
     <g transform="translate(32.810625 163.826272) rotate(-90)">
      <text>
       <tspan style="font: oblique 12px 'DejaVu Sans'" x="0" y="-0.265625">y</tspan>
       <tspan style="font: 12px 'Arial'" x="7.101562 10.435547 17.109375 20.443359 23.777344 29.777344 36.451172" y="-0.265625"> offset</tspan>
      </text>
     </g>
    </g>
   </g>
   <g id="line2d_22">
    <path d="M 53.00375 115.287097 
L 69.480128 117.025991 
L 85.956506 118.722158 
L 102.432884 120.663894 
L 184.814774 139.575621 
L 349.578553 152.15129 
L 514.342333 158.464292 
" clip-path="url(#p4aa53bd908)" style="fill: none; stroke-dasharray: 5.55,2.4; stroke-dashoffset: 0; stroke: #6699cc; stroke-width: 1.5"/>
   </g>
   <g id="line2d_23">
    <path d="M 53.00375 115.740885 
L 69.480128 117.343435 
L 85.956506 118.468071 
L 102.432884 120.290372 
L 184.814774 131.360791 
L 349.578553 147.602882 
L 514.342333 160.663534 
" clip-path="url(#p4aa53bd908)" style="fill: none; stroke-dasharray: 1.5,2.475; stroke-dashoffset: 0; stroke: #6699cc; stroke-width: 1.5"/>
   </g>
   <g id="line2d_24">
    <path d="M 53.00375 115.850288 
L 69.480128 118.173199 
L 85.956506 120.480969 
L 102.432884 122.537591 
L 184.814774 134.042503 
L 349.578553 153.305369 
L 514.342333 165.344395 
" clip-path="url(#p4aa53bd908)" style="fill: none; stroke-dasharray: 9.6,2.4,1.5,2.4; stroke-dashoffset: 0; stroke: #6699cc; stroke-width: 1.5"/>
   </g>
   <g id="line2d_25">
    <path d="M 53.00375 115.46768 
L 69.480128 117.800455 
L 85.956506 119.913361 
L 102.432884 122.082226 
L 184.814774 131.194332 
L 349.578553 150.067979 
L 514.342333 158.429248 
" clip-path="url(#p4aa53bd908)" style="fill: none; stroke: #6699cc; stroke-width: 1.5; stroke-linecap: square"/>
   </g>
   <g id="line2d_26">
    <path d="M 53.00375 114.666565 
L 69.480128 118.308947 
L 85.956506 120.928492 
L 102.432884 124.338643 
L 184.814774 139.677125 
L 349.578553 161.13423 
L 514.342333 171.043471 
" clip-path="url(#p4aa53bd908)" style="fill: none; stroke-dasharray: 5.55,2.4; stroke-dashoffset: 0; stroke: #004488; stroke-width: 1.5"/>
   </g>
   <g id="line2d_27">
    <path d="M 53.00375 114.546891 
L 69.480128 118.563843 
L 85.956506 122.225808 
L 102.432884 125.013062 
L 184.814774 139.183838 
L 349.578553 160.611038 
L 514.342333 172.028356 
" clip-path="url(#p4aa53bd908)" style="fill: none; stroke: #004488; stroke-width: 1.5; stroke-linecap: square"/>
   </g>
   <g id="line2d_28">
    <path d="M 53.00375 115.195854 
L 69.480128 117.654275 
L 85.956506 122.016689 
L 102.432884 124.970828 
L 184.814774 139.399412 
L 349.578553 161.366669 
L 514.342333 171.810949 
" clip-path="url(#p4aa53bd908)" style="fill: none; stroke-dasharray: 9.6,2.4,1.5,2.4; stroke-dashoffset: 0; stroke: #004488; stroke-width: 1.5"/>
   </g>
   <g id="line2d_29">
    <path d="M 53.00375 114.755452 
L 69.480128 117.002813 
L 85.956506 121.287652 
L 102.432884 124.550095 
L 184.814774 139.312504 
L 349.578553 160.678097 
L 514.342333 170.809539 
" clip-path="url(#p4aa53bd908)" style="fill: none; stroke-dasharray: 1.5,2.475; stroke-dashoffset: 0; stroke: #004488; stroke-width: 1.5"/>
   </g>
   <g id="line2d_30">
    <path d="M 53.00375 115.764849 
L 69.480128 117.750617 
L 85.956506 121.208164 
L 102.432884 125.343178 
L 184.814774 138.834414 
L 349.578553 159.350192 
L 514.342333 170.942962 
" clip-path="url(#p4aa53bd908)" style="fill: none; stroke-dasharray: 5.55,2.4; stroke-dashoffset: 0; stroke: #ddaa33; stroke-width: 1.5"/>
   </g>
   <g id="line2d_31">
    <path d="M 53.00375 115.005483 
L 69.480128 118.305426 
L 85.956506 121.382014 
L 102.432884 124.200313 
L 184.814774 138.733133 
L 349.578553 160.77356 
L 514.342333 170.224344 
" clip-path="url(#p4aa53bd908)" style="fill: none; stroke: #ddaa33; stroke-width: 1.5; stroke-linecap: square"/>
   </g>
   <g id="line2d_32">
    <path d="M 53.00375 115.408933 
L 69.480128 116.865175 
L 85.956506 120.95507 
L 102.432884 123.640262 
L 184.814774 139.055669 
L 349.578553 161.051211 
L 514.342333 172.020133 
" clip-path="url(#p4aa53bd908)" style="fill: none; stroke-dasharray: 9.6,2.4,1.5,2.4; stroke-dashoffset: 0; stroke: #ddaa33; stroke-width: 1.5"/>
   </g>
   <g id="line2d_33">
    <path d="M 53.00375 145.309302 
L 69.480128 145.303222 
L 85.956506 138.43994 
L 102.432884 133.856999 
L 184.814774 139.483274 
L 349.578553 160.362234 
L 514.342333 168.141207 
" clip-path="url(#p4aa53bd908)" style="fill: none; stroke-dasharray: 1.5,2.475; stroke-dashoffset: 0; stroke: #ddaa33; stroke-width: 1.5"/>
   </g>
   <g id="line2d_34">
    <path d="M 53.00375 138.642076 
L 69.480128 123.936003 
L 85.956506 130.635864 
L 102.432884 128.243855 
L 184.814774 139.396991 
L 349.578553 162.186731 
L 514.342333 170.584465 
" clip-path="url(#p4aa53bd908)" style="fill: none; stroke-dasharray: 5.55,2.4; stroke-dashoffset: 0; stroke: #bb5566; stroke-width: 1.5"/>
   </g>
   <g id="line2d_35">
    <path d="M 53.00375 134.614443 
L 69.480128 141.311578 
L 85.956506 125.612147 
L 102.432884 127.828283 
L 184.814774 140.032143 
L 349.578553 161.622165 
L 514.342333 171.752651 
" clip-path="url(#p4aa53bd908)" style="fill: none; stroke: #bb5566; stroke-width: 1.5; stroke-linecap: square"/>
   </g>
   <g id="line2d_36">
    <path d="M 53.00375 125.242839 
L 69.480128 120.960849 
L 85.956506 122.078767 
L 102.432884 124.145199 
L 184.814774 139.360446 
L 349.578553 163.322651 
L 514.342333 173.265652 
" clip-path="url(#p4aa53bd908)" style="fill: none; stroke-dasharray: 9.6,2.4,1.5,2.4; stroke-dashoffset: 0; stroke: #bb5566; stroke-width: 1.5"/>
   </g>
   <g id="line2d_37">
    <path d="M 53.00375 164.121783 
L 69.480128 156.959401 
L 85.956506 156.133896 
L 102.432884 162.602646 
L 184.814774 148.127054 
L 349.578553 167.651123 
L 514.342333 171.648398 
" clip-path="url(#p4aa53bd908)" style="fill: none; stroke-dasharray: 1.5,2.475; stroke-dashoffset: 0; stroke: #bb5566; stroke-width: 1.5"/>
   </g>
   <g id="line2d_38">
    <path d="M 53.00375 115.988461 
L 69.480128 117.367267 
L 85.956506 118.870478 
L 102.432884 120.42792 
L 184.814774 128.214559 
L 349.578553 141.219924 
L 514.342333 149.875958 
" clip-path="url(#p4aa53bd908)" style="fill: none; stroke: #000000; stroke-width: 1.5; stroke-linecap: square"/>
   </g>
   <g id="patch_8">
    <path d="M 53.00375 179.137528 
L 53.00375 108.675015 
" style="fill: none; stroke: #000000; stroke-width: 0.8; stroke-linejoin: miter; stroke-linecap: square"/>
   </g>
   <g id="patch_9">
    <path d="M 514.342333 179.137528 
L 514.342333 108.675015 
" style="fill: none; stroke: #000000; stroke-width: 0.8; stroke-linejoin: miter; stroke-linecap: square"/>
   </g>
   <g id="patch_10">
    <path d="M 53.00375 179.137528 
L 514.342333 179.137528 
" style="fill: none; stroke: #000000; stroke-width: 0.8; stroke-linejoin: miter; stroke-linecap: square"/>
   </g>
   <g id="patch_11">
    <path d="M 53.00375 108.675015 
L 514.342333 108.675015 
" style="fill: none; stroke: #000000; stroke-width: 0.8; stroke-linejoin: miter; stroke-linecap: square"/>
   </g>
  </g>
  <g id="axes_3">
   <g id="patch_12">
    <path d="M 53.00375 263.692544 
L 514.342333 263.692544 
L 514.342333 193.230031 
L 53.00375 193.230031 
z
" style="fill: #ffffff"/>
   </g>
   <g id="matplotlib.axis_5"/>
   <g id="matplotlib.axis_6">
    <g id="ytick_5">
     <g id="line2d_39">
      <g>
       <use xlink:href="#m828e2cd8ef" x="53.00375" y="245.174442" style="stroke: #000000; stroke-width: 0.8"/>
      </g>
     </g>
     <g id="text_8">
      <text style="font: 12px 'Arial'; text-anchor: end" x="46.00375" y="249.46913" transform="rotate(-0 46.00375 249.46913)">0</text>
     </g>
    </g>
    <g id="ytick_6">
     <g id="line2d_40">
      <g>
       <use xlink:href="#m828e2cd8ef" x="53.00375" y="197.622408" style="stroke: #000000; stroke-width: 0.8"/>
      </g>
     </g>
     <g id="text_9">
      <text style="font: 12px 'Arial'; text-anchor: end" x="46.00375" y="201.917095" transform="rotate(-0 46.00375 201.917095)">1</text>
     </g>
    </g>
    <g id="text_10">
     <!-- $x$ offset -->
     <g transform="translate(32.945625 248.381287) rotate(-90)">
      <text>
       <tspan style="font: oblique 12px 'DejaVu Sans'" x="0" y="-0.265625">x</tspan>
       <tspan style="font: 12px 'Arial'" x="7.101562 10.435547 17.109375 20.443359 23.777344 29.777344 36.451172" y="-0.265625"> offset</tspan>
      </text>
     </g>
    </g>
   </g>
   <g id="line2d_41">
    <path d="M 53.00375 199.865846 
L 69.480128 201.510703 
L 85.956506 203.461437 
L 102.432884 204.953523 
L 184.814774 221.291191 
L 349.578553 238.329048 
L 514.342333 243.786346 
" clip-path="url(#pa16dd5cfc8)" style="fill: none; stroke-dasharray: 5.55,2.4; stroke-dashoffset: 0; stroke: #6699cc; stroke-width: 1.5"/>
   </g>
   <g id="line2d_42">
    <path d="M 53.00375 199.989619 
L 69.480128 201.755259 
L 85.956506 203.414365 
L 102.432884 205.217983 
L 184.814774 214.39606 
L 349.578553 233.735226 
L 514.342333 248.138591 
" clip-path="url(#pa16dd5cfc8)" style="fill: none; stroke-dasharray: 1.5,2.475; stroke-dashoffset: 0; stroke: #6699cc; stroke-width: 1.5"/>
   </g>
   <g id="line2d_43">
    <path d="M 53.00375 200.240125 
L 69.480128 202.070969 
L 85.956506 203.841061 
L 102.432884 206.038443 
L 184.814774 218.18658 
L 349.578553 243.193036 
L 514.342333 256.954506 
" clip-path="url(#pa16dd5cfc8)" style="fill: none; stroke-dasharray: 9.6,2.4,1.5,2.4; stroke-dashoffset: 0; stroke: #6699cc; stroke-width: 1.5"/>
   </g>
   <g id="line2d_44">
    <path d="M 53.00375 199.993202 
L 69.480128 201.978189 
L 85.956506 203.80662 
L 102.432884 206.224414 
L 184.814774 215.899846 
L 349.578553 236.865732 
L 514.342333 250.009936 
" clip-path="url(#pa16dd5cfc8)" style="fill: none; stroke: #6699cc; stroke-width: 1.5; stroke-linecap: square"/>
   </g>
   <g id="line2d_45">
    <path d="M 53.00375 199.720919 
L 69.480128 202.469233 
L 85.956506 206.093723 
L 102.432884 208.3002 
L 184.814774 222.461153 
L 349.578553 246.553976 
L 514.342333 257.057044 
" clip-path="url(#pa16dd5cfc8)" style="fill: none; stroke-dasharray: 5.55,2.4; stroke-dashoffset: 0; stroke: #004488; stroke-width: 1.5"/>
   </g>
   <g id="line2d_46">
    <path d="M 53.00375 199.717078 
L 69.480128 202.962779 
L 85.956506 205.508632 
L 102.432884 208.297424 
L 184.814774 222.329646 
L 349.578553 245.129981 
L 514.342333 257.227831 
" clip-path="url(#pa16dd5cfc8)" style="fill: none; stroke: #004488; stroke-width: 1.5; stroke-linecap: square"/>
   </g>
   <g id="line2d_47">
    <path d="M 53.00375 199.13337 
L 69.480128 202.681588 
L 85.956506 206.298348 
L 102.432884 208.837924 
L 184.814774 223.097778 
L 349.578553 245.933204 
L 514.342333 256.724412 
" clip-path="url(#pa16dd5cfc8)" style="fill: none; stroke-dasharray: 9.6,2.4,1.5,2.4; stroke-dashoffset: 0; stroke: #004488; stroke-width: 1.5"/>
   </g>
   <g id="line2d_48">
    <path d="M 53.00375 199.37383 
L 69.480128 202.510095 
L 85.956506 205.56435 
L 102.432884 208.725878 
L 184.814774 222.837175 
L 349.578553 244.625767 
L 514.342333 256.103903 
" clip-path="url(#pa16dd5cfc8)" style="fill: none; stroke-dasharray: 1.5,2.475; stroke-dashoffset: 0; stroke: #004488; stroke-width: 1.5"/>
   </g>
   <g id="line2d_49">
    <path d="M 53.00375 199.556165 
L 69.480128 202.616192 
L 85.956506 205.353298 
L 102.432884 208.821351 
L 184.814774 222.701184 
L 349.578553 246.126226 
L 514.342333 255.246601 
" clip-path="url(#pa16dd5cfc8)" style="fill: none; stroke-dasharray: 5.55,2.4; stroke-dashoffset: 0; stroke: #ddaa33; stroke-width: 1.5"/>
   </g>
   <g id="line2d_50">
    <path d="M 53.00375 199.492087 
L 69.480128 203.08474 
L 85.956506 206.190016 
L 102.432884 208.421328 
L 184.814774 222.446744 
L 349.578553 244.552448 
L 514.342333 256.385187 
" clip-path="url(#pa16dd5cfc8)" style="fill: none; stroke: #ddaa33; stroke-width: 1.5; stroke-linecap: square"/>
   </g>
   <g id="line2d_51">
    <path d="M 53.00375 199.101907 
L 69.480128 202.374003 
L 85.956506 205.380959 
L 102.432884 208.948622 
L 184.814774 222.488183 
L 349.578553 245.487534 
L 514.342333 255.704046 
" clip-path="url(#pa16dd5cfc8)" style="fill: none; stroke-dasharray: 9.6,2.4,1.5,2.4; stroke-dashoffset: 0; stroke: #ddaa33; stroke-width: 1.5"/>
   </g>
   <g id="line2d_52">
    <path d="M 53.00375 216.886881 
L 69.480128 206.78863 
L 85.956506 205.602104 
L 102.432884 208.271094 
L 184.814774 221.950257 
L 349.578553 244.649172 
L 514.342333 254.564202 
" clip-path="url(#pa16dd5cfc8)" style="fill: none; stroke-dasharray: 1.5,2.475; stroke-dashoffset: 0; stroke: #ddaa33; stroke-width: 1.5"/>
   </g>
   <g id="line2d_53">
    <path d="M 53.00375 210.608378 
L 69.480128 221.271025 
L 85.956506 208.145139 
L 102.432884 208.876426 
L 184.814774 222.713128 
L 349.578553 245.789402 
L 514.342333 257.820668 
" clip-path="url(#pa16dd5cfc8)" style="fill: none; stroke-dasharray: 5.55,2.4; stroke-dashoffset: 0; stroke: #bb5566; stroke-width: 1.5"/>
   </g>
   <g id="line2d_54">
    <path d="M 53.00375 210.498335 
L 69.480128 206.713224 
L 85.956506 207.156985 
L 102.432884 210.091506 
L 184.814774 222.673794 
L 349.578553 245.58173 
L 514.342333 257.743871 
" clip-path="url(#pa16dd5cfc8)" style="fill: none; stroke: #bb5566; stroke-width: 1.5; stroke-linecap: square"/>
   </g>
   <g id="line2d_55">
    <path d="M 53.00375 201.500096 
L 69.480128 202.671674 
L 85.956506 206.470917 
L 102.432884 209.645668 
L 184.814774 222.574058 
L 349.578553 247.412442 
L 514.342333 257.406293 
" clip-path="url(#pa16dd5cfc8)" style="fill: none; stroke-dasharray: 9.6,2.4,1.5,2.4; stroke-dashoffset: 0; stroke: #bb5566; stroke-width: 1.5"/>
   </g>
   <g id="line2d_56">
    <path d="M 53.00375 225.614948 
L 69.480128 223.610828 
L 85.956506 231.650846 
L 102.432884 224.813402 
L 184.814774 226.799251 
L 349.578553 245.894046 
L 514.342333 257.004735 
" clip-path="url(#pa16dd5cfc8)" style="fill: none; stroke-dasharray: 1.5,2.475; stroke-dashoffset: 0; stroke: #bb5566; stroke-width: 1.5"/>
   </g>
   <g id="line2d_57">
    <path d="M 53.00375 200.482428 
L 69.480128 201.824635 
L 85.956506 203.25036 
L 102.432884 204.725887 
L 184.814774 212.130796 
L 349.578553 224.95729 
L 514.342333 234.08759 
" clip-path="url(#pa16dd5cfc8)" style="fill: none; stroke: #000000; stroke-width: 1.5; stroke-linecap: square"/>
   </g>
   <g id="patch_13">
    <path d="M 53.00375 263.692544 
L 53.00375 193.230031 
" style="fill: none; stroke: #000000; stroke-width: 0.8; stroke-linejoin: miter; stroke-linecap: square"/>
   </g>
   <g id="patch_14">
    <path d="M 514.342333 263.692544 
L 514.342333 193.230031 
" style="fill: none; stroke: #000000; stroke-width: 0.8; stroke-linejoin: miter; stroke-linecap: square"/>
   </g>
   <g id="patch_15">
    <path d="M 53.00375 263.692544 
L 514.342333 263.692544 
" style="fill: none; stroke: #000000; stroke-width: 0.8; stroke-linejoin: miter; stroke-linecap: square"/>
   </g>
   <g id="patch_16">
    <path d="M 53.00375 193.230031 
L 514.342333 193.230031 
" style="fill: none; stroke: #000000; stroke-width: 0.8; stroke-linejoin: miter; stroke-linecap: square"/>
   </g>
  </g>
  <g id="axes_4">
   <g id="patch_17">
    <path d="M 53.00375 348.247559 
L 514.342333 348.247559 
L 514.342333 277.785046 
L 53.00375 277.785046 
z
" style="fill: #ffffff"/>
   </g>
   <g id="matplotlib.axis_7">
    <g id="xtick_1">
     <g id="line2d_58">
      <defs>
       <path id="m32bed39946" d="M 0 0 
L 0 3.5 
" style="stroke: #000000; stroke-width: 0.8"/>
      </defs>
      <g>
       <use xlink:href="#m32bed39946" x="53.00375" y="348.247559" style="stroke: #000000; stroke-width: 0.8"/>
      </g>
     </g>
     <g id="text_11">
      <text style="font: 12px 'Arial'; text-anchor: middle" x="53.00375" y="363.836934" transform="rotate(-0 53.00375 363.836934)">2</text>
     </g>
    </g>
    <g id="xtick_2">
     <g id="line2d_59">
      <g>
       <use xlink:href="#m32bed39946" x="69.480128" y="348.247559" style="stroke: #000000; stroke-width: 0.8"/>
      </g>
     </g>
     <g id="text_12">
      <text style="font: 12px 'Arial'; text-anchor: middle" x="69.480128" y="363.836934" transform="rotate(-0 69.480128 363.836934)">3</text>
     </g>
    </g>
    <g id="xtick_3">
     <g id="line2d_60">
      <g>
       <use xlink:href="#m32bed39946" x="85.956506" y="348.247559" style="stroke: #000000; stroke-width: 0.8"/>
      </g>
     </g>
     <g id="text_13">
      <text style="font: 12px 'Arial'; text-anchor: middle" x="85.956506" y="363.836934" transform="rotate(-0 85.956506 363.836934)">4</text>
     </g>
    </g>
    <g id="xtick_4">
     <g id="line2d_61">
      <g>
       <use xlink:href="#m32bed39946" x="102.432884" y="348.247559" style="stroke: #000000; stroke-width: 0.8"/>
      </g>
     </g>
     <g id="text_14">
      <text style="font: 12px 'Arial'; text-anchor: middle" x="102.432884" y="363.836934" transform="rotate(-0 102.432884 363.836934)">5</text>
     </g>
    </g>
    <g id="xtick_5">
     <g id="line2d_62">
      <g>
       <use xlink:href="#m32bed39946" x="184.814774" y="348.247559" style="stroke: #000000; stroke-width: 0.8"/>
      </g>
     </g>
     <g id="text_15">
      <text style="font: 12px 'Arial'; text-anchor: middle" x="184.814774" y="363.836934" transform="rotate(-0 184.814774 363.836934)">10</text>
     </g>
    </g>
    <g id="xtick_6">
     <g id="line2d_63">
      <g>
       <use xlink:href="#m32bed39946" x="349.578553" y="348.247559" style="stroke: #000000; stroke-width: 0.8"/>
      </g>
     </g>
     <g id="text_16">
      <text style="font: 12px 'Arial'; text-anchor: middle" x="349.578553" y="363.836934" transform="rotate(-0 349.578553 363.836934)">20</text>
     </g>
    </g>
    <g id="xtick_7">
     <g id="line2d_64">
      <g>
       <use xlink:href="#m32bed39946" x="514.342333" y="348.247559" style="stroke: #000000; stroke-width: 0.8"/>
      </g>
     </g>
     <g id="text_17">
      <text style="font: 12px 'Arial'; text-anchor: middle" x="514.342333" y="363.836934" transform="rotate(-0 514.342333 363.836934)">30</text>
     </g>
    </g>
    <g id="text_18">
     <!-- Forecasting time ($s$) -->
     <g transform="translate(230.513041 378.981934)">
      <text>
       <tspan style="font: 12px 'Arial'" x="0 7.330078 14.003906 18 24.673828 30.673828 37.347656 43.347656 46.681641 49.347656 56.021484 62.695312 66.029297 69.363281 72.029297 82.025391 88.699219 92.033203 102.28125" y="-0.265625">Forecasting time ()</tspan>
       <tspan style="font: oblique 12px 'DejaVu Sans'" x="96.029297" y="-0.265625">s</tspan>
      </text>
     </g>
    </g>
   </g>
   <g id="matplotlib.axis_8">
    <g id="ytick_7">
     <g id="line2d_65">
      <g>
       <use xlink:href="#m828e2cd8ef" x="53.00375" y="327.113723" style="stroke: #000000; stroke-width: 0.8"/>
      </g>
     </g>
     <g id="text_19">
      <text style="font: 12px 'Arial'; text-anchor: end" x="46.00375" y="331.408411" transform="rotate(-0 46.00375 331.408411)">−1</text>
     </g>
    </g>
    <g id="ytick_8">
     <g id="line2d_66">
      <g>
       <use xlink:href="#m828e2cd8ef" x="53.00375" y="304.764365" style="stroke: #000000; stroke-width: 0.8"/>
      </g>
     </g>
     <g id="text_20">
      <text style="font: 12px 'Arial'; text-anchor: end" x="46.00375" y="309.059053" transform="rotate(-0 46.00375 309.059053)">0</text>
     </g>
    </g>
    <g id="ytick_9">
     <g id="line2d_67">
      <g>
       <use xlink:href="#m828e2cd8ef" x="53.00375" y="282.415007" style="stroke: #000000; stroke-width: 0.8"/>
      </g>
     </g>
     <g id="text_21">
      <text style="font: 12px 'Arial'; text-anchor: end" x="46.00375" y="286.709695" transform="rotate(-0 46.00375 286.709695)">1</text>
     </g>
    </g>
    <g id="text_22">
     <text style="font: 12px 'Arial'; text-anchor: middle" x="25.936875" y="313.016303" transform="rotate(-90 25.936875 313.016303)">Speed</text>
    </g>
   </g>
   <g id="line2d_68">
    <path d="M 53.00375 284.418839 
L 69.480128 286.245374 
L 85.956506 287.504103 
L 102.432884 287.843681 
L 184.814774 290.239029 
L 349.578553 294.881296 
L 514.342333 297.251052 
" clip-path="url(#p12d3270fe1)" style="fill: none; stroke-dasharray: 5.55,2.4; stroke-dashoffset: 0; stroke: #6699cc; stroke-width: 1.5"/>
   </g>
   <g id="line2d_69">
    <path d="M 53.00375 284.341381 
L 69.480128 286.112128 
L 85.956506 287.521522 
L 102.432884 288.85459 
L 184.814774 291.713872 
L 349.578553 296.059281 
L 514.342333 298.571832 
" clip-path="url(#p12d3270fe1)" style="fill: none; stroke-dasharray: 1.5,2.475; stroke-dashoffset: 0; stroke: #6699cc; stroke-width: 1.5"/>
   </g>
   <g id="line2d_70">
    <path d="M 53.00375 284.337024 
L 69.480128 286.018949 
L 85.956506 287.689177 
L 102.432884 289.318368 
L 184.814774 293.614566 
L 349.578553 297.138321 
L 514.342333 300.774984 
" clip-path="url(#p12d3270fe1)" style="fill: none; stroke-dasharray: 9.6,2.4,1.5,2.4; stroke-dashoffset: 0; stroke: #6699cc; stroke-width: 1.5"/>
   </g>
   <g id="line2d_71">
    <path d="M 53.00375 284.432917 
L 69.480128 286.250153 
L 85.956506 288.050031 
L 102.432884 289.668648 
L 184.814774 294.036354 
L 349.578553 296.652028 
L 514.342333 300.14026 
" clip-path="url(#p12d3270fe1)" style="fill: none; stroke: #6699cc; stroke-width: 1.5; stroke-linecap: square"/>
   </g>
   <g id="line2d_72">
    <path d="M 53.00375 283.678692 
L 69.480128 284.867233 
L 85.956506 286.157643 
L 102.432884 287.194608 
L 184.814774 290.76671 
L 349.578553 292.451837 
L 514.342333 293.095451 
" clip-path="url(#p12d3270fe1)" style="fill: none; stroke-dasharray: 5.55,2.4; stroke-dashoffset: 0; stroke: #004488; stroke-width: 1.5"/>
   </g>
   <g id="line2d_73">
    <path d="M 53.00375 340.632333 
L 69.480128 340.751004 
L 85.956506 340.844628 
L 102.432884 340.942278 
L 184.814774 341.340871 
L 349.578553 341.909507 
L 514.342333 342.375683 
" clip-path="url(#p12d3270fe1)" style="fill: none; stroke: #004488; stroke-width: 1.5; stroke-linecap: square"/>
   </g>
   <g id="line2d_74">
    <path d="M 53.00375 340.632333 
L 69.480128 340.751007 
L 85.956506 340.844628 
L 102.432884 340.942278 
L 184.814774 341.340871 
L 349.578553 341.909507 
L 514.342333 342.375683 
" clip-path="url(#p12d3270fe1)" style="fill: none; stroke-dasharray: 9.6,2.4,1.5,2.4; stroke-dashoffset: 0; stroke: #004488; stroke-width: 1.5"/>
   </g>
   <g id="line2d_75">
    <path d="M 53.00375 340.632333 
L 69.480128 340.751008 
L 85.956506 340.844628 
L 102.432884 340.942278 
L 184.814774 341.340871 
L 349.578553 341.909507 
L 514.342333 342.375683 
" clip-path="url(#p12d3270fe1)" style="fill: none; stroke-dasharray: 1.5,2.475; stroke-dashoffset: 0; stroke: #004488; stroke-width: 1.5"/>
   </g>
   <g id="line2d_76">
    <path d="M 53.00375 283.656922 
L 69.480128 284.830096 
L 85.956506 286.032423 
L 102.432884 287.175478 
L 184.814774 290.653612 
L 349.578553 292.38957 
L 514.342333 293.179216 
" clip-path="url(#p12d3270fe1)" style="fill: none; stroke-dasharray: 5.55,2.4; stroke-dashoffset: 0; stroke: #ddaa33; stroke-width: 1.5"/>
   </g>
   <g id="line2d_77">
    <path d="M 53.00375 340.632333 
L 69.480128 340.751006 
L 85.956506 340.844628 
L 102.432884 340.942278 
L 184.814774 341.340871 
L 349.578553 341.909507 
L 514.342333 342.375683 
" clip-path="url(#p12d3270fe1)" style="fill: none; stroke: #ddaa33; stroke-width: 1.5; stroke-linecap: square"/>
   </g>
   <g id="line2d_78">
    <path d="M 53.00375 340.632333 
L 69.480128 340.751007 
L 85.956506 340.844628 
L 102.432884 340.942278 
L 184.814774 341.340871 
L 349.578553 341.909507 
L 514.342333 342.375683 
" clip-path="url(#p12d3270fe1)" style="fill: none; stroke-dasharray: 9.6,2.4,1.5,2.4; stroke-dashoffset: 0; stroke: #ddaa33; stroke-width: 1.5"/>
   </g>
   <g id="line2d_79">
    <path d="M 53.00375 340.64387 
L 69.480128 340.751007 
L 85.956506 340.844628 
L 102.432884 340.942278 
L 184.814774 341.340871 
L 349.578553 341.909507 
L 514.342333 342.375683 
" clip-path="url(#p12d3270fe1)" style="fill: none; stroke-dasharray: 1.5,2.475; stroke-dashoffset: 0; stroke: #ddaa33; stroke-width: 1.5"/>
   </g>
   <g id="line2d_80">
    <path d="M 53.00375 283.677342 
L 69.480128 284.813119 
L 85.956506 286.025238 
L 102.432884 287.033094 
L 184.814774 290.434372 
L 349.578553 292.192243 
L 514.342333 293.010164 
" clip-path="url(#p12d3270fe1)" style="fill: none; stroke-dasharray: 5.55,2.4; stroke-dashoffset: 0; stroke: #bb5566; stroke-width: 1.5"/>
   </g>
   <g id="line2d_81">
    <path d="M 53.00375 340.632421 
L 69.480128 340.751007 
L 85.956506 340.844628 
L 102.432884 340.942278 
L 184.814774 341.340871 
L 349.578553 341.909507 
L 514.342333 342.375683 
" clip-path="url(#p12d3270fe1)" style="fill: none; stroke: #bb5566; stroke-width: 1.5; stroke-linecap: square"/>
   </g>
   <g id="line2d_82">
    <path d="M 53.00375 340.632333 
L 69.480128 340.751007 
L 85.956506 340.844628 
L 102.432884 340.942279 
L 184.814774 341.340871 
L 349.578553 341.909507 
L 514.342333 342.375683 
" clip-path="url(#p12d3270fe1)" style="fill: none; stroke-dasharray: 9.6,2.4,1.5,2.4; stroke-dashoffset: 0; stroke: #bb5566; stroke-width: 1.5"/>
   </g>
   <g id="line2d_83">
    <path d="M 53.00375 340.632333 
L 69.480128 340.75101 
L 85.956506 340.844628 
L 102.432884 340.942278 
L 184.814774 341.340871 
L 349.578553 341.909507 
L 514.342333 342.375683 
" clip-path="url(#p12d3270fe1)" style="fill: none; stroke-dasharray: 1.5,2.475; stroke-dashoffset: 0; stroke: #bb5566; stroke-width: 1.5"/>
   </g>
   <g id="line2d_84">
    <path d="M 53.00375 283.865989 
L 69.480128 284.522161 
L 85.956506 285.191431 
L 102.432884 285.843175 
L 184.814774 288.427711 
L 349.578553 290.947806 
L 514.342333 292.127528 
" clip-path="url(#p12d3270fe1)" style="fill: none; stroke: #000000; stroke-width: 1.5; stroke-linecap: square"/>
   </g>
   <g id="line2d_85">
    <path d="M 20.050994 354.119435 
" clip-path="url(#p12d3270fe1)" style="fill: none; stroke-dasharray: 5.55,2.4; stroke-dashoffset: 0; stroke: #6699cc; stroke-width: 1.5"/>
   </g>
   <g id="line2d_86">
    <path d="M 20.050994 354.119435 
" clip-path="url(#p12d3270fe1)" style="fill: none; stroke-dasharray: 1.5,2.475; stroke-dashoffset: 0; stroke: #6699cc; stroke-width: 1.5"/>
   </g>
   <g id="line2d_87">
    <path d="M 20.050994 354.119435 
" clip-path="url(#p12d3270fe1)" style="fill: none; stroke-dasharray: 9.6,2.4,1.5,2.4; stroke-dashoffset: 0; stroke: #6699cc; stroke-width: 1.5"/>
   </g>
   <g id="line2d_88">
    <path d="M 20.050994 354.119435 
" clip-path="url(#p12d3270fe1)" style="fill: none; stroke: #6699cc; stroke-width: 1.5; stroke-linecap: square"/>
   </g>
   <g id="line2d_89">
    <path d="M 20.050994 354.119435 
" clip-path="url(#p12d3270fe1)" style="fill: none; stroke-dasharray: 5.55,2.4; stroke-dashoffset: 0; stroke: #004488; stroke-width: 1.5"/>
   </g>
   <g id="line2d_90">
    <path d="M 20.050994 354.119435 
" clip-path="url(#p12d3270fe1)" style="fill: none; stroke: #004488; stroke-width: 1.5; stroke-linecap: square"/>
   </g>
   <g id="line2d_91">
    <path d="M 20.050994 354.119435 
" clip-path="url(#p12d3270fe1)" style="fill: none; stroke-dasharray: 9.6,2.4,1.5,2.4; stroke-dashoffset: 0; stroke: #004488; stroke-width: 1.5"/>
   </g>
   <g id="line2d_92">
    <path d="M 20.050994 354.119435 
" clip-path="url(#p12d3270fe1)" style="fill: none; stroke-dasharray: 1.5,2.475; stroke-dashoffset: 0; stroke: #004488; stroke-width: 1.5"/>
   </g>
   <g id="line2d_93">
    <path d="M 20.050994 354.119435 
" clip-path="url(#p12d3270fe1)" style="fill: none; stroke-dasharray: 5.55,2.4; stroke-dashoffset: 0; stroke: #ddaa33; stroke-width: 1.5"/>
   </g>
   <g id="line2d_94">
    <path d="M 20.050994 354.119435 
" clip-path="url(#p12d3270fe1)" style="fill: none; stroke: #ddaa33; stroke-width: 1.5; stroke-linecap: square"/>
   </g>
   <g id="line2d_95">
    <path d="M 20.050994 354.119435 
" clip-path="url(#p12d3270fe1)" style="fill: none; stroke-dasharray: 9.6,2.4,1.5,2.4; stroke-dashoffset: 0; stroke: #ddaa33; stroke-width: 1.5"/>
   </g>
   <g id="line2d_96">
    <path d="M 20.050994 354.119435 
" clip-path="url(#p12d3270fe1)" style="fill: none; stroke-dasharray: 1.5,2.475; stroke-dashoffset: 0; stroke: #ddaa33; stroke-width: 1.5"/>
   </g>
   <g id="line2d_97">
    <path d="M 20.050994 354.119435 
" clip-path="url(#p12d3270fe1)" style="fill: none; stroke-dasharray: 5.55,2.4; stroke-dashoffset: 0; stroke: #bb5566; stroke-width: 1.5"/>
   </g>
   <g id="line2d_98">
    <path d="M 20.050994 354.119435 
" clip-path="url(#p12d3270fe1)" style="fill: none; stroke: #bb5566; stroke-width: 1.5; stroke-linecap: square"/>
   </g>
   <g id="line2d_99">
    <path d="M 20.050994 354.119435 
" clip-path="url(#p12d3270fe1)" style="fill: none; stroke-dasharray: 9.6,2.4,1.5,2.4; stroke-dashoffset: 0; stroke: #bb5566; stroke-width: 1.5"/>
   </g>
   <g id="line2d_100">
    <path d="M 20.050994 354.119435 
" clip-path="url(#p12d3270fe1)" style="fill: none; stroke-dasharray: 1.5,2.475; stroke-dashoffset: 0; stroke: #bb5566; stroke-width: 1.5"/>
   </g>
   <g id="line2d_101">
    <path d="M 20.050994 354.119435 
" clip-path="url(#p12d3270fe1)" style="fill: none; stroke: #000000; stroke-width: 1.5; stroke-linecap: square"/>
   </g>
   <g id="patch_18">
    <path d="M 53.00375 348.247559 
L 53.00375 277.785046 
" style="fill: none; stroke: #000000; stroke-width: 0.8; stroke-linejoin: miter; stroke-linecap: square"/>
   </g>
   <g id="patch_19">
    <path d="M 514.342333 348.247559 
L 514.342333 277.785046 
" style="fill: none; stroke: #000000; stroke-width: 0.8; stroke-linejoin: miter; stroke-linecap: square"/>
   </g>
   <g id="patch_20">
    <path d="M 53.00375 348.247559 
L 514.342333 348.247559 
" style="fill: none; stroke: #000000; stroke-width: 0.8; stroke-linejoin: miter; stroke-linecap: square"/>
   </g>
   <g id="patch_21">
    <path d="M 53.00375 277.785046 
L 514.342333 277.785046 
" style="fill: none; stroke: #000000; stroke-width: 0.8; stroke-linejoin: miter; stroke-linecap: square"/>
   </g>
   <g id="legend_1">
    <g id="patch_22">
     <path d="M 15.269892 477.535584 
L 550.576767 477.535584 
Q 552.976767 477.535584 552.976767 475.135584 
L 552.976767 391.463709 
Q 552.976767 389.063709 550.576767 389.063709 
L 15.269892 389.063709 
Q 12.869892 389.063709 12.869892 391.463709 
L 12.869892 475.135584 
Q 12.869892 477.535584 15.269892 477.535584 
z
" style="fill: #ffffff; opacity: 0.8; stroke: #cccccc; stroke-linejoin: miter"/>
    </g>
    <g id="line2d_102">
     <path d="M 17.669892 398.253084 
L 29.669892 398.253084 
L 41.669892 398.253084 
" style="fill: none; stroke-dasharray: 5.55,2.4; stroke-dashoffset: 0; stroke: #6699cc; stroke-width: 1.5"/>
    </g>
    <g id="text_23">
     <text style="font: 12px 'Arial'; text-anchor: start" x="51.269892" y="402.453084" transform="rotate(-0 51.269892 402.453084)">GRU Att 1</text>
    </g>
    <g id="line2d_103">
     <path d="M 17.669892 415.227459 
L 29.669892 415.227459 
L 41.669892 415.227459 
" style="fill: none; stroke-dasharray: 1.5,2.475; stroke-dashoffset: 0; stroke: #6699cc; stroke-width: 1.5"/>
    </g>
    <g id="text_24">
     <text style="font: 12px 'Arial'; text-anchor: start" x="51.269892" y="419.427459" transform="rotate(-0 51.269892 419.427459)">GRU Att 2</text>
    </g>
    <g id="line2d_104">
     <path d="M 17.669892 432.201834 
L 29.669892 432.201834 
L 41.669892 432.201834 
" style="fill: none; stroke-dasharray: 9.6,2.4,1.5,2.4; stroke-dashoffset: 0; stroke: #6699cc; stroke-width: 1.5"/>
    </g>
    <g id="text_25">
     <text style="font: 12px 'Arial'; text-anchor: start" x="51.269892" y="436.401834" transform="rotate(-0 51.269892 436.401834)">GRU Att 3</text>
    </g>
    <g id="line2d_105">
     <path d="M 17.669892 449.176209 
L 29.669892 449.176209 
L 41.669892 449.176209 
" style="fill: none; stroke: #6699cc; stroke-width: 1.5; stroke-linecap: square"/>
    </g>
    <g id="text_26">
     <text style="font: 12px 'Arial'; text-anchor: start" x="51.269892" y="453.376209" transform="rotate(-0 51.269892 453.376209)">GRU Att 4</text>
    </g>
    <g id="line2d_106">
     <path d="M 17.669892 466.150584 
L 29.669892 466.150584 
L 41.669892 466.150584 
" style="fill: none; stroke-dasharray: 5.55,2.4; stroke-dashoffset: 0; stroke: #004488; stroke-width: 1.5"/>
    </g>
    <g id="text_27">
     <text style="font: 12px 'Arial'; text-anchor: start" x="51.269892" y="470.350584" transform="rotate(-0 51.269892 470.350584)">GRU Linear</text>
    </g>
    <g id="line2d_107">
     <path d="M 138.624267 398.253084 
L 150.624267 398.253084 
L 162.624267 398.253084 
" style="fill: none; stroke: #004488; stroke-width: 1.5; stroke-linecap: square"/>
    </g>
    <g id="text_28">
     <text style="font: 12px 'Arial'; text-anchor: start" x="172.224267" y="402.453084" transform="rotate(-0 172.224267 402.453084)">GRU Reference</text>
    </g>
    <g id="line2d_108">
     <path d="M 138.624267 415.227459 
L 150.624267 415.227459 
L 162.624267 415.227459 
" style="fill: none; stroke-dasharray: 9.6,2.4,1.5,2.4; stroke-dashoffset: 0; stroke: #004488; stroke-width: 1.5"/>
    </g>
    <g id="text_29">
     <text style="font: 12px 'Arial'; text-anchor: start" x="172.224267" y="419.427459" transform="rotate(-0 172.224267 419.427459)">GRU Third</text>
    </g>
    <g id="line2d_109">
     <path d="M 138.624267 432.201834 
L 150.624267 432.201834 
L 162.624267 432.201834 
" style="fill: none; stroke-dasharray: 1.5,2.475; stroke-dashoffset: 0; stroke: #004488; stroke-width: 1.5"/>
    </g>
    <g id="text_30">
     <text style="font: 12px 'Arial'; text-anchor: start" x="172.224267" y="436.401834" transform="rotate(-0 172.224267 436.401834)">GRU Twice</text>
    </g>
    <g id="line2d_110">
     <path d="M 138.624267 449.176209 
L 150.624267 449.176209 
L 162.624267 449.176209 
" style="fill: none; stroke-dasharray: 5.55,2.4; stroke-dashoffset: 0; stroke: #ddaa33; stroke-width: 1.5"/>
    </g>
    <g id="text_31">
     <text style="font: 12px 'Arial'; text-anchor: start" x="172.224267" y="453.376209" transform="rotate(-0 172.224267 453.376209)">LSTM Linear</text>
    </g>
    <g id="line2d_111">
     <path d="M 281.585517 398.253084 
L 293.585517 398.253084 
L 305.585517 398.253084 
" style="fill: none; stroke: #ddaa33; stroke-width: 1.5; stroke-linecap: square"/>
    </g>
    <g id="text_32">
     <text style="font: 12px 'Arial'; text-anchor: start" x="315.185517" y="402.453084" transform="rotate(-0 315.185517 402.453084)">LSTM Reference</text>
    </g>
    <g id="line2d_112">
     <path d="M 281.585517 415.227459 
L 293.585517 415.227459 
L 305.585517 415.227459 
" style="fill: none; stroke-dasharray: 9.6,2.4,1.5,2.4; stroke-dashoffset: 0; stroke: #ddaa33; stroke-width: 1.5"/>
    </g>
    <g id="text_33">
     <text style="font: 12px 'Arial'; text-anchor: start" x="315.185517" y="419.427459" transform="rotate(-0 315.185517 419.427459)">LSTM Third</text>
    </g>
    <g id="line2d_113">
     <path d="M 281.585517 432.201834 
L 293.585517 432.201834 
L 305.585517 432.201834 
" style="fill: none; stroke-dasharray: 1.5,2.475; stroke-dashoffset: 0; stroke: #ddaa33; stroke-width: 1.5"/>
    </g>
    <g id="text_34">
     <text style="font: 12px 'Arial'; text-anchor: start" x="315.185517" y="436.401834" transform="rotate(-0 315.185517 436.401834)">LSTM Twice</text>
    </g>
    <g id="line2d_114">
     <path d="M 281.585517 449.176209 
L 293.585517 449.176209 
L 305.585517 449.176209 
" style="fill: none; stroke-dasharray: 5.55,2.4; stroke-dashoffset: 0; stroke: #bb5566; stroke-width: 1.5"/>
    </g>
    <g id="text_35">
     <text style="font: 12px 'Arial'; text-anchor: start" x="315.185517" y="453.376209" transform="rotate(-0 315.185517 453.376209)">RNN Linear</text>
    </g>
    <g id="line2d_115">
     <path d="M 429.883017 398.253084 
L 441.883017 398.253084 
L 453.883017 398.253084 
" style="fill: none; stroke: #bb5566; stroke-width: 1.5; stroke-linecap: square"/>
    </g>
    <g id="text_36">
     <text style="font: 12px 'Arial'; text-anchor: start" x="463.483017" y="402.453084" transform="rotate(-0 463.483017 402.453084)">RNN Reference</text>
    </g>
    <g id="line2d_116">
     <path d="M 429.883017 415.227459 
L 441.883017 415.227459 
L 453.883017 415.227459 
" style="fill: none; stroke-dasharray: 9.6,2.4,1.5,2.4; stroke-dashoffset: 0; stroke: #bb5566; stroke-width: 1.5"/>
    </g>
    <g id="text_37">
     <text style="font: 12px 'Arial'; text-anchor: start" x="463.483017" y="419.427459" transform="rotate(-0 463.483017 419.427459)">RNN Third</text>
    </g>
    <g id="line2d_117">
     <path d="M 429.883017 432.201834 
L 441.883017 432.201834 
L 453.883017 432.201834 
" style="fill: none; stroke-dasharray: 1.5,2.475; stroke-dashoffset: 0; stroke: #bb5566; stroke-width: 1.5"/>
    </g>
    <g id="text_38">
     <text style="font: 12px 'Arial'; text-anchor: start" x="463.483017" y="436.401834" transform="rotate(-0 463.483017 436.401834)">RNN Twice</text>
    </g>
    <g id="line2d_118">
     <path d="M 429.883017 449.176209 
L 441.883017 449.176209 
L 453.883017 449.176209 
" style="fill: none; stroke: #000000; stroke-width: 1.5; stroke-linecap: square"/>
    </g>
    <g id="text_39">
     <text style="font: 12px 'Arial'; text-anchor: start" x="463.483017" y="453.376209" transform="rotate(-0 463.483017 453.376209)">UniTS</text>
    </g>
   </g>
  </g>
 </g>
 <defs>
  <clipPath id="p9191e9bcea">
   <rect x="53.00375" y="24.12" width="461.338583" height="70.462513"/>
  </clipPath>
  <clipPath id="p4aa53bd908">
   <rect x="53.00375" y="108.675015" width="461.338583" height="70.462513"/>
  </clipPath>
  <clipPath id="pa16dd5cfc8">
   <rect x="53.00375" y="193.230031" width="461.338583" height="70.462513"/>
  </clipPath>
  <clipPath id="p12d3270fe1">
   <rect x="53.00375" y="277.785046" width="461.338583" height="70.462513"/>
  </clipPath>
 </defs>
</svg>
