<?xml version="1.0" encoding="utf-8" standalone="no"?>
<!DOCTYPE svg PUBLIC "-//W3C//DTD SVG 1.1//EN"
  "http://www.w3.org/Graphics/SVG/1.1/DTD/svg11.dtd">
<svg xmlns:xlink="http://www.w3.org/1999/xlink" width="559.987392pt" height="488.965039pt" viewBox="0 0 559.987392 488.965039" xmlns="http://www.w3.org/2000/svg" version="1.1">
 <metadata>
  <rdf:RDF xmlns:dc="http://purl.org/dc/elements/1.1/" xmlns:cc="http://creativecommons.org/ns#" xmlns:rdf="http://www.w3.org/1999/02/22-rdf-syntax-ns#">
   <cc:Work>
    <dc:type rdf:resource="http://purl.org/dc/dcmitype/StillImage"/>
    <dc:date>2024-10-14T06:45:11.819482</dc:date>
    <dc:format>image/svg+xml</dc:format>
    <dc:creator>
     <cc:Agent>
      <dc:title>Matplotlib v3.7.0, https://matplotlib.org/</dc:title>
     </cc:Agent>
    </dc:creator>
   </cc:Work>
  </rdf:RDF>
 </metadata>
 <defs>
  <style type="text/css">*{stroke-linejoin: round; stroke-linecap: butt}</style>
 </defs>
 <g id="figure_1">
  <g id="patch_1">
   <path d="M 0 488.965039 
L 559.987392 488.965039 
L 559.987392 0 
L 0 0 
z
" style="fill: #ffffff"/>
  </g>
  <g id="axes_1">
   <g id="patch_2">
    <path d="M 52.814375 169.530709 
L 514.152958 169.530709 
L 514.152958 22.2 
L 52.814375 22.2 
z
" style="fill: #ffffff"/>
   </g>
   <g id="matplotlib.axis_1"/>
   <g id="matplotlib.axis_2">
    <g id="ytick_1">
     <g id="line2d_1">
      <defs>
       <path id="mb9e7287b36" d="M 0 0 
L -3.5 0 
" style="stroke: #000000; stroke-width: 0.8"/>
      </defs>
      <g>
       <use xlink:href="#mb9e7287b36" x="52.814375" y="158.683163" style="stroke: #000000; stroke-width: 0.8"/>
      </g>
     </g>
     <g id="text_1">
      <text style="font: 12px 'Arial'; text-anchor: end" x="45.814375" y="162.977851" transform="rotate(-0 45.814375 162.977851)">0.0</text>
     </g>
    </g>
    <g id="ytick_2">
     <g id="line2d_2">
      <g>
       <use xlink:href="#mb9e7287b36" x="52.814375" y="112.650586" style="stroke: #000000; stroke-width: 0.8"/>
      </g>
     </g>
     <g id="text_2">
      <text style="font: 12px 'Arial'; text-anchor: end" x="45.814375" y="116.945273" transform="rotate(-0 45.814375 116.945273)">0.1</text>
     </g>
    </g>
    <g id="ytick_3">
     <g id="line2d_3">
      <g>
       <use xlink:href="#mb9e7287b36" x="52.814375" y="66.618008" style="stroke: #000000; stroke-width: 0.8"/>
      </g>
     </g>
     <g id="text_3">
      <text style="font: 12px 'Arial'; text-anchor: end" x="45.814375" y="70.912696" transform="rotate(-0 45.814375 70.912696)">0.2</text>
     </g>
    </g>
    <g id="text_4">
     <!-- $x$ and $y$ offset -->
     <g transform="translate(22.614375 132.705354) rotate(-90)">
      <text>
       <tspan style="font: oblique 12px 'DejaVu Sans'" x="0 33.791016" y="-0.265625">xy</tspan>
       <tspan style="font: 12px 'Arial'" x="7.101562 10.435547 17.109375 23.783203 30.457031 40.892578 44.226562 50.900391 54.234375 57.568359 63.568359 70.242188" y="-0.265625"> and  offset</tspan>
      </text>
     </g>
    </g>
   </g>
   <g id="line2d_4">
    <path d="M 52.814375 157.165522 
L 69.290753 156.809039 
L 85.767131 156.291748 
L 102.243509 155.474133 
L 184.625399 140.837487 
L 349.389178 131.337109 
L 514.152958 128.29058 
" clip-path="url(#pa0784b04e4)" style="fill: none; stroke-dasharray: 5.55,2.4; stroke-dashoffset: 0; stroke: #6699cc; stroke-width: 1.5"/>
   </g>
   <g id="line2d_5">
    <path d="M 52.814375 156.967297 
L 69.290753 156.454831 
L 85.767131 156.015891 
L 102.243509 154.972207 
L 184.625399 150.924291 
L 349.389178 141.838126 
L 514.152958 128.241514 
" clip-path="url(#pa0784b04e4)" style="fill: none; stroke-dasharray: 1.5,2.475; stroke-dashoffset: 0; stroke: #6699cc; stroke-width: 1.5"/>
   </g>
   <g id="line2d_6">
    <path d="M 52.814375 157.111297 
L 69.290753 156.449781 
L 85.767131 155.953586 
L 102.243509 155.332718 
L 184.625399 148.361201 
L 349.389178 134.120495 
L 514.152958 124.995676 
" clip-path="url(#pa0784b04e4)" style="fill: none; stroke-dasharray: 9.6,2.4,1.5,2.4; stroke-dashoffset: 0; stroke: #6699cc; stroke-width: 1.5"/>
   </g>
   <g id="line2d_7">
    <path d="M 52.814375 157.25315 
L 69.290753 156.807693 
L 85.767131 156.331982 
L 102.243509 155.717243 
L 184.625399 148.007766 
L 349.389178 133.67329 
L 514.152958 127.334509 
" clip-path="url(#pa0784b04e4)" style="fill: none; stroke: #6699cc; stroke-width: 1.5; stroke-linecap: square"/>
   </g>
   <g id="line2d_8">
    <path d="M 52.814375 138.398501 
L 69.290753 135.78668 
L 85.767131 136.539203 
L 102.243509 133.95943 
L 184.625399 127.636195 
L 349.389178 121.147674 
L 514.152958 120.367816 
" clip-path="url(#pa0784b04e4)" style="fill: none; stroke-dasharray: 5.55,2.4; stroke-dashoffset: 0; stroke: #004488; stroke-width: 1.5"/>
   </g>
   <g id="line2d_9">
    <path d="M 52.814375 138.733028 
L 69.290753 133.244881 
L 85.767131 133.964715 
L 102.243509 133.108824 
L 184.625399 129.727418 
L 349.389178 124.023163 
L 514.152958 123.090133 
" clip-path="url(#pa0784b04e4)" style="fill: none; stroke: #004488; stroke-width: 1.5; stroke-linecap: square"/>
   </g>
   <g id="line2d_10">
    <path d="M 52.814375 138.231771 
L 69.290753 132.455524 
L 85.767131 134.355964 
L 102.243509 131.455852 
L 184.625399 129.290959 
L 349.389178 123.398884 
L 514.152958 122.557912 
" clip-path="url(#pa0784b04e4)" style="fill: none; stroke-dasharray: 9.6,2.4,1.5,2.4; stroke-dashoffset: 0; stroke: #004488; stroke-width: 1.5"/>
   </g>
   <g id="line2d_11">
    <path d="M 52.814375 140.564088 
L 69.290753 132.760016 
L 85.767131 132.925885 
L 102.243509 130.812794 
L 184.625399 133.155033 
L 349.389178 124.652532 
L 514.152958 121.372664 
" clip-path="url(#pa0784b04e4)" style="fill: none; stroke-dasharray: 1.5,2.475; stroke-dashoffset: 0; stroke: #004488; stroke-width: 1.5"/>
   </g>
   <g id="line2d_12">
    <path d="M 52.814375 132.137026 
L 69.290753 133.212623 
L 85.767131 136.450765 
L 102.243509 125.392322 
L 184.625399 126.526419 
L 349.389178 129.540158 
L 514.152958 124.26342 
" clip-path="url(#pa0784b04e4)" style="fill: none; stroke-dasharray: 5.55,2.4; stroke-dashoffset: 0; stroke: #ddaa33; stroke-width: 1.5"/>
   </g>
   <g id="line2d_13">
    <path d="M 69.290753 -1 
L 69.290753 129.441503 
L 85.767131 131.377544 
L 102.243509 134.511529 
L 184.625399 130.481879 
L 349.389178 126.343046 
L 514.152958 123.364787 
" clip-path="url(#pa0784b04e4)" style="fill: none; stroke: #ddaa33; stroke-width: 1.5; stroke-linecap: square"/>
   </g>
   <g id="line2d_14">
    <path d="M 52.814375 134.745306 
L 69.290753 128.736793 
L 85.767131 130.925633 
L 102.243509 126.825022 
L 184.625399 128.782326 
L 349.389178 122.100232 
L 514.152958 121.200696 
" clip-path="url(#pa0784b04e4)" style="fill: none; stroke-dasharray: 9.6,2.4,1.5,2.4; stroke-dashoffset: 0; stroke: #ddaa33; stroke-width: 1.5"/>
   </g>
   <g id="line2d_15">
    <path d="M 52.814375 123.150077 
L 69.290753 126.568449 
L 85.767131 127.816573 
L 102.243509 119.5856 
L 184.625399 125.818214 
L 349.389178 116.871532 
L 514.152958 119.059107 
" clip-path="url(#pa0784b04e4)" style="fill: none; stroke-dasharray: 1.5,2.475; stroke-dashoffset: 0; stroke: #ddaa33; stroke-width: 1.5"/>
   </g>
   <g id="line2d_16">
    <path d="M 52.814375 76.734713 
L 69.290753 110.690407 
L 85.767131 103.947828 
L 102.243509 120.40184 
L 184.625399 128.458802 
L 349.389178 126.783762 
L 514.152958 122.598566 
" clip-path="url(#pa0784b04e4)" style="fill: none; stroke-dasharray: 5.55,2.4; stroke-dashoffset: 0; stroke: #bb5566; stroke-width: 1.5"/>
   </g>
   <g id="line2d_17">
    <path d="M 52.814375 81.043739 
L 69.290753 83.85436 
L 85.767131 124.635045 
L 102.243509 120.963499 
L 184.625399 127.711942 
L 349.389178 125.897259 
L 514.152958 121.512215 
" clip-path="url(#pa0784b04e4)" style="fill: none; stroke: #bb5566; stroke-width: 1.5; stroke-linecap: square"/>
   </g>
   <g id="line2d_18">
    <path d="M 52.814375 113.158035 
L 69.290753 126.403945 
L 85.767131 125.967424 
L 102.243509 124.879261 
L 184.625399 127.727008 
L 349.389178 115.712865 
L 514.152958 118.922744 
" clip-path="url(#pa0784b04e4)" style="fill: none; stroke-dasharray: 9.6,2.4,1.5,2.4; stroke-dashoffset: 0; stroke: #bb5566; stroke-width: 1.5"/>
   </g>
   <g id="line2d_19">
    <path d="M 52.814375 34.477559 
L 69.290753 55.137822 
L 85.767131 41.203934 
L 102.243509 68.577827 
L 184.625399 105.076561 
L 349.389178 113.105437 
L 514.152958 117.829583 
" clip-path="url(#pa0784b04e4)" style="fill: none; stroke-dasharray: 1.5,2.475; stroke-dashoffset: 0; stroke: #bb5566; stroke-width: 1.5"/>
   </g>
   <g id="line2d_20">
    <path d="M 52.814375 156.666105 
L 69.290753 156.425506 
L 85.767131 156.376656 
L 102.243509 155.998957 
L 184.625399 154.308109 
L 349.389178 152.340703 
L 514.152958 150.3163 
" clip-path="url(#pa0784b04e4)" style="fill: none; stroke: #000000; stroke-width: 1.5; stroke-linecap: square"/>
   </g>
   <g id="patch_3">
    <path d="M 52.814375 169.530709 
L 52.814375 22.2 
" style="fill: none; stroke: #000000; stroke-width: 0.8; stroke-linejoin: miter; stroke-linecap: square"/>
   </g>
   <g id="patch_4">
    <path d="M 514.152958 169.530709 
L 514.152958 22.2 
" style="fill: none; stroke: #000000; stroke-width: 0.8; stroke-linejoin: miter; stroke-linecap: square"/>
   </g>
   <g id="patch_5">
    <path d="M 52.814375 169.530709 
L 514.152958 169.530709 
" style="fill: none; stroke: #000000; stroke-width: 0.8; stroke-linejoin: miter; stroke-linecap: square"/>
   </g>
   <g id="patch_6">
    <path d="M 52.814375 22.2 
L 514.152958 22.2 
" style="fill: none; stroke: #000000; stroke-width: 0.8; stroke-linejoin: miter; stroke-linecap: square"/>
   </g>
   <g id="text_5">
    <!-- Euclidean distance ($\degree$) -->
    <g transform="translate(224.443666 16.2)">
     <text>
      <tspan style="font: 12px 'Arial'" x="0 8.003906 14.677734 20.677734 23.34375 26.009766 32.683594 39.357422 46.03125 52.705078 56.039062 62.712891 65.378906 71.378906 74.712891 81.386719 88.060547 94.060547 100.734375 104.068359 114.064453" y="-0.09375">Euclidean distance ()</tspan>
      <tspan style="font: 12px 'DejaVu Sans'" x="108.064453" y="-0.09375">°</tspan>
     </text>
    </g>
   </g>
  </g>
  <g id="axes_2">
   <g id="patch_7">
    <path d="M 52.814375 346.327559 
L 514.152958 346.327559 
L 514.152958 198.99685 
L 52.814375 198.99685 
z
" style="fill: #ffffff"/>
   </g>
   <g id="matplotlib.axis_3">
    <g id="xtick_1">
     <g id="line2d_21">
      <defs>
       <path id="m6e99159732" d="M 0 0 
L 0 3.5 
" style="stroke: #000000; stroke-width: 0.8"/>
      </defs>
      <g>
       <use xlink:href="#m6e99159732" x="52.814375" y="346.327559" style="stroke: #000000; stroke-width: 0.8"/>
      </g>
     </g>
     <g id="text_6">
      <text style="font: 12px 'Arial'; text-anchor: middle" x="52.814375" y="361.916934" transform="rotate(-0 52.814375 361.916934)">2</text>
     </g>
    </g>
    <g id="xtick_2">
     <g id="line2d_22">
      <g>
       <use xlink:href="#m6e99159732" x="69.290753" y="346.327559" style="stroke: #000000; stroke-width: 0.8"/>
      </g>
     </g>
     <g id="text_7">
      <text style="font: 12px 'Arial'; text-anchor: middle" x="69.290753" y="361.916934" transform="rotate(-0 69.290753 361.916934)">3</text>
     </g>
    </g>
    <g id="xtick_3">
     <g id="line2d_23">
      <g>
       <use xlink:href="#m6e99159732" x="85.767131" y="346.327559" style="stroke: #000000; stroke-width: 0.8"/>
      </g>
     </g>
     <g id="text_8">
      <text style="font: 12px 'Arial'; text-anchor: middle" x="85.767131" y="361.916934" transform="rotate(-0 85.767131 361.916934)">4</text>
     </g>
    </g>
    <g id="xtick_4">
     <g id="line2d_24">
      <g>
       <use xlink:href="#m6e99159732" x="102.243509" y="346.327559" style="stroke: #000000; stroke-width: 0.8"/>
      </g>
     </g>
     <g id="text_9">
      <text style="font: 12px 'Arial'; text-anchor: middle" x="102.243509" y="361.916934" transform="rotate(-0 102.243509 361.916934)">5</text>
     </g>
    </g>
    <g id="xtick_5">
     <g id="line2d_25">
      <g>
       <use xlink:href="#m6e99159732" x="184.625399" y="346.327559" style="stroke: #000000; stroke-width: 0.8"/>
      </g>
     </g>
     <g id="text_10">
      <text style="font: 12px 'Arial'; text-anchor: middle" x="184.625399" y="361.916934" transform="rotate(-0 184.625399 361.916934)">10</text>
     </g>
    </g>
    <g id="xtick_6">
     <g id="line2d_26">
      <g>
       <use xlink:href="#m6e99159732" x="349.389178" y="346.327559" style="stroke: #000000; stroke-width: 0.8"/>
      </g>
     </g>
     <g id="text_11">
      <text style="font: 12px 'Arial'; text-anchor: middle" x="349.389178" y="361.916934" transform="rotate(-0 349.389178 361.916934)">20</text>
     </g>
    </g>
    <g id="xtick_7">
     <g id="line2d_27">
      <g>
       <use xlink:href="#m6e99159732" x="514.152958" y="346.327559" style="stroke: #000000; stroke-width: 0.8"/>
      </g>
     </g>
     <g id="text_12">
      <text style="font: 12px 'Arial'; text-anchor: middle" x="514.152958" y="361.916934" transform="rotate(-0 514.152958 361.916934)">30</text>
     </g>
    </g>
    <g id="text_13">
     <text style="font: 12px 'Arial'; text-anchor: middle" x="283.483666" y="376.891309" transform="rotate(-0 283.483666 376.891309)">Forecasting time</text>
    </g>
   </g>
   <g id="matplotlib.axis_4">
    <g id="ytick_4">
     <g id="line2d_28">
      <g>
       <use xlink:href="#mb9e7287b36" x="52.814375" y="341.08194" style="stroke: #000000; stroke-width: 0.8"/>
      </g>
     </g>
     <g id="text_14">
      <text style="font: 12px 'Arial'; text-anchor: end" x="45.814375" y="345.376627" transform="rotate(-0 45.814375 345.376627)">0.00</text>
     </g>
    </g>
    <g id="ytick_5">
     <g id="line2d_29">
      <g>
       <use xlink:href="#mb9e7287b36" x="52.814375" y="314.464893" style="stroke: #000000; stroke-width: 0.8"/>
      </g>
     </g>
     <g id="text_15">
      <text style="font: 12px 'Arial'; text-anchor: end" x="45.814375" y="318.75958" transform="rotate(-0 45.814375 318.75958)">0.05</text>
     </g>
    </g>
    <g id="ytick_6">
     <g id="line2d_30">
      <g>
       <use xlink:href="#mb9e7287b36" x="52.814375" y="287.847846" style="stroke: #000000; stroke-width: 0.8"/>
      </g>
     </g>
     <g id="text_16">
      <text style="font: 12px 'Arial'; text-anchor: end" x="45.814375" y="292.142534" transform="rotate(-0 45.814375 292.142534)">0.10</text>
     </g>
    </g>
    <g id="ytick_7">
     <g id="line2d_31">
      <g>
       <use xlink:href="#mb9e7287b36" x="52.814375" y="261.2308" style="stroke: #000000; stroke-width: 0.8"/>
      </g>
     </g>
     <g id="text_17">
      <text style="font: 12px 'Arial'; text-anchor: end" x="45.814375" y="265.525487" transform="rotate(-0 45.814375 265.525487)">0.15</text>
     </g>
    </g>
    <g id="ytick_8">
     <g id="line2d_32">
      <g>
       <use xlink:href="#mb9e7287b36" x="52.814375" y="234.613753" style="stroke: #000000; stroke-width: 0.8"/>
      </g>
     </g>
     <g id="text_18">
      <text style="font: 12px 'Arial'; text-anchor: end" x="45.814375" y="238.90844" transform="rotate(-0 45.814375 238.90844)">0.20</text>
     </g>
    </g>
    <g id="ytick_9">
     <g id="line2d_33">
      <g>
       <use xlink:href="#mb9e7287b36" x="52.814375" y="207.996706" style="stroke: #000000; stroke-width: 0.8"/>
      </g>
     </g>
     <g id="text_19">
      <text style="font: 12px 'Arial'; text-anchor: end" x="45.814375" y="212.291394" transform="rotate(-0 45.814375 212.291394)">0.25</text>
     </g>
    </g>
    <g id="text_20">
     <text style="font: 12px 'Arial'; text-anchor: middle" x="15.935625" y="272.662205" transform="rotate(-90 15.935625 272.662205)">Speed, heading, and time</text>
    </g>
   </g>
   <g id="line2d_34">
    <path d="M 52.814375 334.014182 
L 69.290753 333.734757 
L 85.767131 333.244923 
L 102.243509 333.094408 
L 184.625399 331.930636 
L 349.389178 326.381112 
L 514.152958 301.38672 
" clip-path="url(#pd2ccd936aa)" style="fill: none; stroke-dasharray: 5.55,2.4; stroke-dashoffset: 0; stroke: #6699cc; stroke-width: 1.5"/>
   </g>
   <g id="line2d_35">
    <path d="M 52.814375 334.032165 
L 69.290753 333.629181 
L 85.767131 333.254556 
L 102.243509 333.025158 
L 184.625399 331.479584 
L 349.389178 326.037237 
L 514.152958 320.236897 
" clip-path="url(#pd2ccd936aa)" style="fill: none; stroke-dasharray: 1.5,2.475; stroke-dashoffset: 0; stroke: #6699cc; stroke-width: 1.5"/>
   </g>
   <g id="line2d_36">
    <path d="M 52.814375 333.959857 
L 69.290753 333.583746 
L 85.767131 333.105833 
L 102.243509 332.857833 
L 184.625399 331.084671 
L 349.389178 325.723381 
L 514.152958 319.746761 
" clip-path="url(#pd2ccd936aa)" style="fill: none; stroke-dasharray: 9.6,2.4,1.5,2.4; stroke-dashoffset: 0; stroke: #6699cc; stroke-width: 1.5"/>
   </g>
   <g id="line2d_37">
    <path d="M 52.814375 334.05 
L 69.290753 333.802743 
L 85.767131 333.240409 
L 102.243509 332.853933 
L 184.625399 331.021728 
L 349.389178 325.927532 
L 514.152958 313.463757 
" clip-path="url(#pd2ccd936aa)" style="fill: none; stroke: #6699cc; stroke-width: 1.5; stroke-linecap: square"/>
   </g>
   <g id="line2d_38">
    <path d="M 52.814375 317.834453 
L 69.290753 310.981673 
L 85.767131 306.90698 
L 102.243509 301.274071 
L 184.625399 265.990559 
L 349.389178 228.553088 
L 514.152958 213.106582 
" clip-path="url(#pd2ccd936aa)" style="fill: none; stroke-dasharray: 5.55,2.4; stroke-dashoffset: 0; stroke: #004488; stroke-width: 1.5"/>
   </g>
   <g id="line2d_39">
    <path d="M 52.814375 302.225922 
L 69.290753 302.202242 
L 85.767131 302.178722 
L 102.243509 302.163968 
L 184.625399 302.198352 
L 349.389178 302.525134 
L 514.152958 303.014375 
" clip-path="url(#pd2ccd936aa)" style="fill: none; stroke: #004488; stroke-width: 1.5; stroke-linecap: square"/>
   </g>
   <g id="line2d_40">
    <path d="M 52.814375 302.225902 
L 69.290753 302.20214 
L 85.767131 302.178721 
L 102.243509 302.163963 
L 184.625399 302.198352 
L 349.389178 302.525134 
L 514.152958 303.014375 
" clip-path="url(#pd2ccd936aa)" style="fill: none; stroke-dasharray: 9.6,2.4,1.5,2.4; stroke-dashoffset: 0; stroke: #004488; stroke-width: 1.5"/>
   </g>
   <g id="line2d_41">
    <path d="M 52.814375 302.225883 
L 69.290753 302.202193 
L 85.767131 302.178721 
L 102.243509 302.163966 
L 184.625399 302.198352 
L 349.389178 302.525134 
L 514.152958 303.014375 
" clip-path="url(#pd2ccd936aa)" style="fill: none; stroke-dasharray: 1.5,2.475; stroke-dashoffset: 0; stroke: #004488; stroke-width: 1.5"/>
   </g>
   <g id="line2d_42">
    <path d="M 52.814375 319.756597 
L 69.290753 313.707325 
L 85.767131 300.852374 
L 102.243509 300.039088 
L 184.625399 274.611107 
L 349.389178 239.650859 
L 514.152958 219.18935 
" clip-path="url(#pd2ccd936aa)" style="fill: none; stroke-dasharray: 5.55,2.4; stroke-dashoffset: 0; stroke: #ddaa33; stroke-width: 1.5"/>
   </g>
   <g id="line2d_43">
    <path d="M 69.290753 -1 
L 69.290753 302.203127 
L 85.767131 302.178727 
L 102.243509 302.163964 
L 184.625399 302.198352 
L 349.389178 302.525134 
L 514.152958 303.014375 
" clip-path="url(#pd2ccd936aa)" style="fill: none; stroke: #ddaa33; stroke-width: 1.5; stroke-linecap: square"/>
   </g>
   <g id="line2d_44">
    <path d="M 52.814375 302.225882 
L 69.290753 302.20215 
L 85.767131 302.178727 
L 102.243509 302.163963 
L 184.625399 302.198352 
L 349.389178 302.525134 
L 514.152958 303.014375 
" clip-path="url(#pd2ccd936aa)" style="fill: none; stroke-dasharray: 9.6,2.4,1.5,2.4; stroke-dashoffset: 0; stroke: #ddaa33; stroke-width: 1.5"/>
   </g>
   <g id="line2d_45">
    <path d="M 52.814375 302.232393 
L 69.290753 302.202131 
L 85.767131 302.178722 
L 102.243509 302.163963 
L 184.625399 302.198352 
L 349.389178 302.525134 
L 514.152958 303.014375 
" clip-path="url(#pd2ccd936aa)" style="fill: none; stroke-dasharray: 1.5,2.475; stroke-dashoffset: 0; stroke: #ddaa33; stroke-width: 1.5"/>
   </g>
   <g id="line2d_46">
    <path d="M 52.814375 318.652327 
L 69.290753 311.140665 
L 85.767131 305.159699 
L 102.243509 299.141307 
L 184.625399 271.248735 
L 349.389178 232.150979 
L 514.152958 211.274409 
" clip-path="url(#pd2ccd936aa)" style="fill: none; stroke-dasharray: 5.55,2.4; stroke-dashoffset: 0; stroke: #bb5566; stroke-width: 1.5"/>
   </g>
   <g id="line2d_47">
    <path d="M 52.814375 302.227644 
L 69.290753 302.202334 
L 85.767131 302.178722 
L 102.243509 302.163963 
L 184.625399 302.198352 
L 349.389178 302.525134 
L 514.152958 303.014375 
" clip-path="url(#pd2ccd936aa)" style="fill: none; stroke: #bb5566; stroke-width: 1.5; stroke-linecap: square"/>
   </g>
   <g id="line2d_48">
    <path d="M 52.814375 302.225882 
L 69.290753 302.20213 
L 85.767131 302.178721 
L 102.243509 302.163971 
L 184.625399 302.198352 
L 349.389178 302.525134 
L 514.152958 303.014375 
" clip-path="url(#pd2ccd936aa)" style="fill: none; stroke-dasharray: 9.6,2.4,1.5,2.4; stroke-dashoffset: 0; stroke: #bb5566; stroke-width: 1.5"/>
   </g>
   <g id="line2d_49">
    <path d="M 52.814375 302.225924 
L 69.290753 302.202304 
L 85.767131 302.178721 
L 102.243509 302.163963 
L 184.625399 302.198352 
L 349.389178 302.525134 
L 514.152958 303.014375 
" clip-path="url(#pd2ccd936aa)" style="fill: none; stroke-dasharray: 1.5,2.475; stroke-dashoffset: 0; stroke: #bb5566; stroke-width: 1.5"/>
   </g>
   <g id="line2d_50">
    <path d="M 52.814375 330.042869 
L 69.290753 327.169825 
L 85.767131 324.651753 
L 102.243509 321.745443 
L 184.625399 309.395089 
L 349.389178 288.283877 
L 514.152958 270.797391 
" clip-path="url(#pd2ccd936aa)" style="fill: none; stroke: #000000; stroke-width: 1.5; stroke-linecap: square"/>
   </g>
   <g id="line2d_51">
    <path d="M 19.861619 358.605118 
" clip-path="url(#pd2ccd936aa)" style="fill: none; stroke-dasharray: 5.55,2.4; stroke-dashoffset: 0; stroke: #6699cc; stroke-width: 1.5"/>
   </g>
   <g id="line2d_52">
    <path d="M 19.861619 358.605118 
" clip-path="url(#pd2ccd936aa)" style="fill: none; stroke-dasharray: 1.5,2.475; stroke-dashoffset: 0; stroke: #6699cc; stroke-width: 1.5"/>
   </g>
   <g id="line2d_53">
    <path d="M 19.861619 358.605118 
" clip-path="url(#pd2ccd936aa)" style="fill: none; stroke-dasharray: 9.6,2.4,1.5,2.4; stroke-dashoffset: 0; stroke: #6699cc; stroke-width: 1.5"/>
   </g>
   <g id="line2d_54">
    <path d="M 19.861619 358.605118 
" clip-path="url(#pd2ccd936aa)" style="fill: none; stroke: #6699cc; stroke-width: 1.5; stroke-linecap: square"/>
   </g>
   <g id="line2d_55">
    <path d="M 19.861619 358.605118 
" clip-path="url(#pd2ccd936aa)" style="fill: none; stroke-dasharray: 5.55,2.4; stroke-dashoffset: 0; stroke: #004488; stroke-width: 1.5"/>
   </g>
   <g id="line2d_56">
    <path d="M 19.861619 358.605118 
" clip-path="url(#pd2ccd936aa)" style="fill: none; stroke: #004488; stroke-width: 1.5; stroke-linecap: square"/>
   </g>
   <g id="line2d_57">
    <path d="M 19.861619 358.605118 
" clip-path="url(#pd2ccd936aa)" style="fill: none; stroke-dasharray: 9.6,2.4,1.5,2.4; stroke-dashoffset: 0; stroke: #004488; stroke-width: 1.5"/>
   </g>
   <g id="line2d_58">
    <path d="M 19.861619 358.605118 
" clip-path="url(#pd2ccd936aa)" style="fill: none; stroke-dasharray: 1.5,2.475; stroke-dashoffset: 0; stroke: #004488; stroke-width: 1.5"/>
   </g>
   <g id="line2d_59">
    <path d="M 19.861619 358.605118 
" clip-path="url(#pd2ccd936aa)" style="fill: none; stroke-dasharray: 5.55,2.4; stroke-dashoffset: 0; stroke: #ddaa33; stroke-width: 1.5"/>
   </g>
   <g id="line2d_60">
    <path d="M 19.861619 358.605118 
" clip-path="url(#pd2ccd936aa)" style="fill: none; stroke: #ddaa33; stroke-width: 1.5; stroke-linecap: square"/>
   </g>
   <g id="line2d_61">
    <path d="M 19.861619 358.605118 
" clip-path="url(#pd2ccd936aa)" style="fill: none; stroke-dasharray: 9.6,2.4,1.5,2.4; stroke-dashoffset: 0; stroke: #ddaa33; stroke-width: 1.5"/>
   </g>
   <g id="line2d_62">
    <path d="M 19.861619 358.605118 
" clip-path="url(#pd2ccd936aa)" style="fill: none; stroke-dasharray: 1.5,2.475; stroke-dashoffset: 0; stroke: #ddaa33; stroke-width: 1.5"/>
   </g>
   <g id="line2d_63">
    <path d="M 19.861619 358.605118 
" clip-path="url(#pd2ccd936aa)" style="fill: none; stroke-dasharray: 5.55,2.4; stroke-dashoffset: 0; stroke: #bb5566; stroke-width: 1.5"/>
   </g>
   <g id="line2d_64">
    <path d="M 19.861619 358.605118 
" clip-path="url(#pd2ccd936aa)" style="fill: none; stroke: #bb5566; stroke-width: 1.5; stroke-linecap: square"/>
   </g>
   <g id="line2d_65">
    <path d="M 19.861619 358.605118 
" clip-path="url(#pd2ccd936aa)" style="fill: none; stroke-dasharray: 9.6,2.4,1.5,2.4; stroke-dashoffset: 0; stroke: #bb5566; stroke-width: 1.5"/>
   </g>
   <g id="line2d_66">
    <path d="M 19.861619 358.605118 
" clip-path="url(#pd2ccd936aa)" style="fill: none; stroke-dasharray: 1.5,2.475; stroke-dashoffset: 0; stroke: #bb5566; stroke-width: 1.5"/>
   </g>
   <g id="line2d_67">
    <path d="M 19.861619 358.605118 
" clip-path="url(#pd2ccd936aa)" style="fill: none; stroke: #000000; stroke-width: 1.5; stroke-linecap: square"/>
   </g>
   <g id="patch_8">
    <path d="M 52.814375 346.327559 
L 52.814375 198.99685 
" style="fill: none; stroke: #000000; stroke-width: 0.8; stroke-linejoin: miter; stroke-linecap: square"/>
   </g>
   <g id="patch_9">
    <path d="M 514.152958 346.327559 
L 514.152958 198.99685 
" style="fill: none; stroke: #000000; stroke-width: 0.8; stroke-linejoin: miter; stroke-linecap: square"/>
   </g>
   <g id="patch_10">
    <path d="M 52.814375 346.327559 
L 514.152958 346.327559 
" style="fill: none; stroke: #000000; stroke-width: 0.8; stroke-linejoin: miter; stroke-linecap: square"/>
   </g>
   <g id="patch_11">
    <path d="M 52.814375 198.99685 
L 514.152958 198.99685 
" style="fill: none; stroke: #000000; stroke-width: 0.8; stroke-linejoin: miter; stroke-linecap: square"/>
   </g>
   <g id="legend_1">
    <g id="patch_12">
     <path d="M 15.080517 481.765039 
L 550.387392 481.765039 
Q 552.787392 481.765039 552.787392 479.365039 
L 552.787392 395.693164 
Q 552.787392 393.293164 550.387392 393.293164 
L 15.080517 393.293164 
Q 12.680517 393.293164 12.680517 395.693164 
L 12.680517 479.365039 
Q 12.680517 481.765039 15.080517 481.765039 
z
" style="fill: #ffffff; opacity: 0.8; stroke: #cccccc; stroke-linejoin: miter"/>
    </g>
    <g id="line2d_68">
     <path d="M 17.480517 402.482539 
L 29.480517 402.482539 
L 41.480517 402.482539 
" style="fill: none; stroke-dasharray: 5.55,2.4; stroke-dashoffset: 0; stroke: #6699cc; stroke-width: 1.5"/>
    </g>
    <g id="text_21">
     <text style="font: 12px 'Arial'; text-anchor: start" x="51.080517" y="406.682539" transform="rotate(-0 51.080517 406.682539)">GRU Att 1</text>
    </g>
    <g id="line2d_69">
     <path d="M 17.480517 419.456914 
L 29.480517 419.456914 
L 41.480517 419.456914 
" style="fill: none; stroke-dasharray: 1.5,2.475; stroke-dashoffset: 0; stroke: #6699cc; stroke-width: 1.5"/>
    </g>
    <g id="text_22">
     <text style="font: 12px 'Arial'; text-anchor: start" x="51.080517" y="423.656914" transform="rotate(-0 51.080517 423.656914)">GRU Att 2</text>
    </g>
    <g id="line2d_70">
     <path d="M 17.480517 436.431289 
L 29.480517 436.431289 
L 41.480517 436.431289 
" style="fill: none; stroke-dasharray: 9.6,2.4,1.5,2.4; stroke-dashoffset: 0; stroke: #6699cc; stroke-width: 1.5"/>
    </g>
    <g id="text_23">
     <text style="font: 12px 'Arial'; text-anchor: start" x="51.080517" y="440.631289" transform="rotate(-0 51.080517 440.631289)">GRU Att 3</text>
    </g>
    <g id="line2d_71">
     <path d="M 17.480517 453.405664 
L 29.480517 453.405664 
L 41.480517 453.405664 
" style="fill: none; stroke: #6699cc; stroke-width: 1.5; stroke-linecap: square"/>
    </g>
    <g id="text_24">
     <text style="font: 12px 'Arial'; text-anchor: start" x="51.080517" y="457.605664" transform="rotate(-0 51.080517 457.605664)">GRU Att 4</text>
    </g>
    <g id="line2d_72">
     <path d="M 17.480517 470.380039 
L 29.480517 470.380039 
L 41.480517 470.380039 
" style="fill: none; stroke-dasharray: 5.55,2.4; stroke-dashoffset: 0; stroke: #004488; stroke-width: 1.5"/>
    </g>
    <g id="text_25">
     <text style="font: 12px 'Arial'; text-anchor: start" x="51.080517" y="474.580039" transform="rotate(-0 51.080517 474.580039)">GRU Linear</text>
    </g>
    <g id="line2d_73">
     <path d="M 138.434892 402.482539 
L 150.434892 402.482539 
L 162.434892 402.482539 
" style="fill: none; stroke: #004488; stroke-width: 1.5; stroke-linecap: square"/>
    </g>
    <g id="text_26">
     <text style="font: 12px 'Arial'; text-anchor: start" x="172.034892" y="406.682539" transform="rotate(-0 172.034892 406.682539)">GRU Reference</text>
    </g>
    <g id="line2d_74">
     <path d="M 138.434892 419.456914 
L 150.434892 419.456914 
L 162.434892 419.456914 
" style="fill: none; stroke-dasharray: 9.6,2.4,1.5,2.4; stroke-dashoffset: 0; stroke: #004488; stroke-width: 1.5"/>
    </g>
    <g id="text_27">
     <text style="font: 12px 'Arial'; text-anchor: start" x="172.034892" y="423.656914" transform="rotate(-0 172.034892 423.656914)">GRU Third</text>
    </g>
    <g id="line2d_75">
     <path d="M 138.434892 436.431289 
L 150.434892 436.431289 
L 162.434892 436.431289 
" style="fill: none; stroke-dasharray: 1.5,2.475; stroke-dashoffset: 0; stroke: #004488; stroke-width: 1.5"/>
    </g>
    <g id="text_28">
     <text style="font: 12px 'Arial'; text-anchor: start" x="172.034892" y="440.631289" transform="rotate(-0 172.034892 440.631289)">GRU Twice</text>
    </g>
    <g id="line2d_76">
     <path d="M 138.434892 453.405664 
L 150.434892 453.405664 
L 162.434892 453.405664 
" style="fill: none; stroke-dasharray: 5.55,2.4; stroke-dashoffset: 0; stroke: #ddaa33; stroke-width: 1.5"/>
    </g>
    <g id="text_29">
     <text style="font: 12px 'Arial'; text-anchor: start" x="172.034892" y="457.605664" transform="rotate(-0 172.034892 457.605664)">LSTM Linear</text>
    </g>
    <g id="line2d_77">
     <path d="M 281.396142 402.482539 
L 293.396142 402.482539 
L 305.396142 402.482539 
" style="fill: none; stroke: #ddaa33; stroke-width: 1.5; stroke-linecap: square"/>
    </g>
    <g id="text_30">
     <text style="font: 12px 'Arial'; text-anchor: start" x="314.996142" y="406.682539" transform="rotate(-0 314.996142 406.682539)">LSTM Reference</text>
    </g>
    <g id="line2d_78">
     <path d="M 281.396142 419.456914 
L 293.396142 419.456914 
L 305.396142 419.456914 
" style="fill: none; stroke-dasharray: 9.6,2.4,1.5,2.4; stroke-dashoffset: 0; stroke: #ddaa33; stroke-width: 1.5"/>
    </g>
    <g id="text_31">
     <text style="font: 12px 'Arial'; text-anchor: start" x="314.996142" y="423.656914" transform="rotate(-0 314.996142 423.656914)">LSTM Third</text>
    </g>
    <g id="line2d_79">
     <path d="M 281.396142 436.431289 
L 293.396142 436.431289 
L 305.396142 436.431289 
" style="fill: none; stroke-dasharray: 1.5,2.475; stroke-dashoffset: 0; stroke: #ddaa33; stroke-width: 1.5"/>
    </g>
    <g id="text_32">
     <text style="font: 12px 'Arial'; text-anchor: start" x="314.996142" y="440.631289" transform="rotate(-0 314.996142 440.631289)">LSTM Twice</text>
    </g>
    <g id="line2d_80">
     <path d="M 281.396142 453.405664 
L 293.396142 453.405664 
L 305.396142 453.405664 
" style="fill: none; stroke-dasharray: 5.55,2.4; stroke-dashoffset: 0; stroke: #bb5566; stroke-width: 1.5"/>
    </g>
    <g id="text_33">
     <text style="font: 12px 'Arial'; text-anchor: start" x="314.996142" y="457.605664" transform="rotate(-0 314.996142 457.605664)">RNN Linear</text>
    </g>
    <g id="line2d_81">
     <path d="M 429.693642 402.482539 
L 441.693642 402.482539 
L 453.693642 402.482539 
" style="fill: none; stroke: #bb5566; stroke-width: 1.5; stroke-linecap: square"/>
    </g>
    <g id="text_34">
     <text style="font: 12px 'Arial'; text-anchor: start" x="463.293642" y="406.682539" transform="rotate(-0 463.293642 406.682539)">RNN Reference</text>
    </g>
    <g id="line2d_82">
     <path d="M 429.693642 419.456914 
L 441.693642 419.456914 
L 453.693642 419.456914 
" style="fill: none; stroke-dasharray: 9.6,2.4,1.5,2.4; stroke-dashoffset: 0; stroke: #bb5566; stroke-width: 1.5"/>
    </g>
    <g id="text_35">
     <text style="font: 12px 'Arial'; text-anchor: start" x="463.293642" y="423.656914" transform="rotate(-0 463.293642 423.656914)">RNN Third</text>
    </g>
    <g id="line2d_83">
     <path d="M 429.693642 436.431289 
L 441.693642 436.431289 
L 453.693642 436.431289 
" style="fill: none; stroke-dasharray: 1.5,2.475; stroke-dashoffset: 0; stroke: #bb5566; stroke-width: 1.5"/>
    </g>
    <g id="text_36">
     <text style="font: 12px 'Arial'; text-anchor: start" x="463.293642" y="440.631289" transform="rotate(-0 463.293642 440.631289)">RNN Twice</text>
    </g>
    <g id="line2d_84">
     <path d="M 429.693642 453.405664 
L 441.693642 453.405664 
L 453.693642 453.405664 
" style="fill: none; stroke: #000000; stroke-width: 1.5; stroke-linecap: square"/>
    </g>
    <g id="text_37">
     <text style="font: 12px 'Arial'; text-anchor: start" x="463.293642" y="457.605664" transform="rotate(-0 463.293642 457.605664)">UniTS</text>
    </g>
   </g>
  </g>
 </g>
 <defs>
  <clipPath id="pa0784b04e4">
   <rect x="52.814375" y="22.2" width="461.338583" height="147.330709"/>
  </clipPath>
  <clipPath id="pd2ccd936aa">
   <rect x="52.814375" y="198.99685" width="461.338583" height="147.330709"/>
  </clipPath>
 </defs>
</svg>
