<?xml version="1.0" encoding="utf-8" standalone="no"?>
<!DOCTYPE svg PUBLIC "-//W3C//DTD SVG 1.1//EN"
  "http://www.w3.org/Graphics/SVG/1.1/DTD/svg11.dtd">
<svg xmlns:xlink="http://www.w3.org/1999/xlink" width="560.006142pt" height="488.554414pt" viewBox="0 0 560.006142 488.554414" xmlns="http://www.w3.org/2000/svg" version="1.1">
 <metadata>
  <rdf:RDF xmlns:dc="http://purl.org/dc/elements/1.1/" xmlns:cc="http://creativecommons.org/ns#" xmlns:rdf="http://www.w3.org/1999/02/22-rdf-syntax-ns#">
   <cc:Work>
    <dc:type rdf:resource="http://purl.org/dc/dcmitype/StillImage"/>
    <dc:date>2024-10-28T14:46:40.591391</dc:date>
    <dc:format>image/svg+xml</dc:format>
    <dc:creator>
     <cc:Agent>
      <dc:title>Matplotlib v3.7.0, https://matplotlib.org/</dc:title>
     </cc:Agent>
    </dc:creator>
   </cc:Work>
  </rdf:RDF>
 </metadata>
 <defs>
  <style type="text/css">*{stroke-linejoin: round; stroke-linecap: butt}</style>
 </defs>
 <g id="figure_1">
  <g id="patch_1">
   <path d="M 0 488.554414 
L 560.006142 488.554414 
L 560.006142 0 
L 0 0 
z
" style="fill: #ffffff"/>
  </g>
  <g id="axes_1">
   <g id="patch_2">
    <path d="M 52.833125 169.120084 
L 514.171708 169.120084 
L 514.171708 21.789375 
L 52.833125 21.789375 
z
" style="fill: #ffffff"/>
   </g>
   <g id="matplotlib.axis_1"/>
   <g id="matplotlib.axis_2">
    <g id="ytick_1">
     <g id="line2d_1">
      <defs>
       <path id="m3cc744352e" d="M 0 0 
L -3.5 0 
" style="stroke: #000000; stroke-width: 0.8"/>
      </defs>
      <g>
       <use xlink:href="#m3cc744352e" x="52.833125" y="156.855725" style="stroke: #000000; stroke-width: 0.8"/>
      </g>
     </g>
     <g id="text_1">
      <text style="font: 12px 'Arial'; text-anchor: end" x="45.833125" y="161.150412" transform="rotate(-0 45.833125 161.150412)">0.00</text>
     </g>
    </g>
    <g id="ytick_2">
     <g id="line2d_2">
      <g>
       <use xlink:href="#m3cc744352e" x="52.833125" y="128.970265" style="stroke: #000000; stroke-width: 0.8"/>
      </g>
     </g>
     <g id="text_2">
      <text style="font: 12px 'Arial'; text-anchor: end" x="45.833125" y="133.264953" transform="rotate(-0 45.833125 133.264953)">0.02</text>
     </g>
    </g>
    <g id="ytick_3">
     <g id="line2d_3">
      <g>
       <use xlink:href="#m3cc744352e" x="52.833125" y="101.084806" style="stroke: #000000; stroke-width: 0.8"/>
      </g>
     </g>
     <g id="text_3">
      <text style="font: 12px 'Arial'; text-anchor: end" x="45.833125" y="105.379493" transform="rotate(-0 45.833125 105.379493)">0.04</text>
     </g>
    </g>
    <g id="ytick_4">
     <g id="line2d_4">
      <g>
       <use xlink:href="#m3cc744352e" x="52.833125" y="73.199346" style="stroke: #000000; stroke-width: 0.8"/>
      </g>
     </g>
     <g id="text_4">
      <text style="font: 12px 'Arial'; text-anchor: end" x="45.833125" y="77.494033" transform="rotate(-0 45.833125 77.494033)">0.06</text>
     </g>
    </g>
    <g id="ytick_5">
     <g id="line2d_5">
      <g>
       <use xlink:href="#m3cc744352e" x="52.833125" y="45.313886" style="stroke: #000000; stroke-width: 0.8"/>
      </g>
     </g>
     <g id="text_5">
      <text style="font: 12px 'Arial'; text-anchor: end" x="45.833125" y="49.608574" transform="rotate(-0 45.833125 49.608574)">0.08</text>
     </g>
    </g>
    <g id="text_6">
     <!-- $x$ and $y$ offset -->
     <g transform="translate(15.96 132.294729) rotate(-90)">
      <text>
       <tspan style="font: oblique 12px 'DejaVu Sans'" x="0 33.791016" y="-0.265625">xy</tspan>
       <tspan style="font: 12px 'Arial'" x="7.101562 10.435547 17.109375 23.783203 30.457031 40.892578 44.226562 50.900391 54.234375 57.568359 63.568359 70.242188" y="-0.265625"> and  offset</tspan>
      </text>
     </g>
    </g>
   </g>
   <g id="line2d_6">
    <path d="M 52.833125 156.837726 
L 69.309503 156.824843 
L 85.785881 156.812164 
L 102.262259 156.762953 
L 184.644149 154.057658 
L 349.407928 150.711652 
L 514.171708 150.101014 
" clip-path="url(#pb7cf8d26a1)" style="fill: none; stroke-dasharray: 5.55,2.4; stroke-dashoffset: 0; stroke: #6699cc; stroke-width: 1.5"/>
   </g>
   <g id="line2d_7">
    <path d="M 52.833125 156.833678 
L 69.309503 156.813847 
L 85.785881 156.799965 
L 102.262259 156.71969 
L 184.644149 156.269804 
L 349.407928 154.349274 
L 514.171708 148.438054 
" clip-path="url(#pb7cf8d26a1)" style="fill: none; stroke-dasharray: 1.5,2.475; stroke-dashoffset: 0; stroke: #6699cc; stroke-width: 1.5"/>
   </g>
   <g id="line2d_8">
    <path d="M 52.833125 156.840104 
L 69.309503 156.824052 
L 85.785881 156.806686 
L 102.262259 156.776402 
L 184.644149 155.899162 
L 349.407928 149.440664 
L 514.171708 146.174904 
" clip-path="url(#pb7cf8d26a1)" style="fill: none; stroke-dasharray: 9.6,2.4,1.5,2.4; stroke-dashoffset: 0; stroke: #6699cc; stroke-width: 1.5"/>
   </g>
   <g id="line2d_9">
    <path d="M 52.833125 156.842525 
L 69.309503 156.834406 
L 85.785881 156.822515 
L 102.262259 156.798036 
L 184.644149 155.812747 
L 349.407928 151.814875 
L 514.171708 148.972369 
" clip-path="url(#pb7cf8d26a1)" style="fill: none; stroke: #6699cc; stroke-width: 1.5; stroke-linecap: square"/>
   </g>
   <g id="line2d_10">
    <path d="M 52.833125 154.17196 
L 69.309503 152.743308 
L 85.785881 153.088159 
L 102.262259 152.758498 
L 184.644149 150.036188 
L 349.407928 147.184749 
L 514.171708 147.368262 
" clip-path="url(#pb7cf8d26a1)" style="fill: none; stroke-dasharray: 5.55,2.4; stroke-dashoffset: 0; stroke: #004488; stroke-width: 1.5"/>
   </g>
   <g id="line2d_11">
    <path d="M 52.833125 154.009638 
L 69.309503 152.289329 
L 85.785881 152.365692 
L 102.262259 152.534352 
L 184.644149 151.253844 
L 349.407928 149.235327 
L 514.171708 149.057652 
" clip-path="url(#pb7cf8d26a1)" style="fill: none; stroke: #004488; stroke-width: 1.5; stroke-linecap: square"/>
   </g>
   <g id="line2d_12">
    <path d="M 52.833125 153.4975 
L 69.309503 151.132395 
L 85.785881 152.300867 
L 102.262259 151.931195 
L 184.644149 150.94385 
L 349.407928 148.576117 
L 514.171708 148.733873 
" clip-path="url(#pb7cf8d26a1)" style="fill: none; stroke-dasharray: 9.6,2.4,1.5,2.4; stroke-dashoffset: 0; stroke: #004488; stroke-width: 1.5"/>
   </g>
   <g id="line2d_13">
    <path d="M 52.833125 154.586222 
L 69.309503 151.991409 
L 85.785881 152.700441 
L 102.262259 151.360885 
L 184.644149 152.275078 
L 349.407928 149.686007 
L 514.171708 148.033604 
" clip-path="url(#pb7cf8d26a1)" style="fill: none; stroke-dasharray: 1.5,2.475; stroke-dashoffset: 0; stroke: #004488; stroke-width: 1.5"/>
   </g>
   <g id="line2d_14">
    <path d="M 52.833125 151.468016 
L 69.309503 152.664087 
L 85.785881 153.572975 
L 102.262259 149.417733 
L 184.644149 149.908462 
L 349.407928 151.251981 
L 514.171708 149.318754 
" clip-path="url(#pb7cf8d26a1)" style="fill: none; stroke-dasharray: 5.55,2.4; stroke-dashoffset: 0; stroke: #ddaa33; stroke-width: 1.5"/>
   </g>
   <g id="line2d_15">
    <path d="M 69.309503 -1 
L 69.309503 150.836727 
L 85.785881 151.442425 
L 102.262259 152.71625 
L 184.644149 151.096261 
L 349.407928 150.423644 
L 514.171708 149.166026 
" clip-path="url(#pb7cf8d26a1)" style="fill: none; stroke: #ddaa33; stroke-width: 1.5; stroke-linecap: square"/>
   </g>
   <g id="line2d_16">
    <path d="M 52.833125 152.571053 
L 69.309503 149.378966 
L 85.785881 151.269908 
L 102.262259 149.285704 
L 184.644149 151.029672 
L 349.407928 148.584843 
L 514.171708 147.894532 
" clip-path="url(#pb7cf8d26a1)" style="fill: none; stroke-dasharray: 9.6,2.4,1.5,2.4; stroke-dashoffset: 0; stroke: #ddaa33; stroke-width: 1.5"/>
   </g>
   <g id="line2d_17">
    <path d="M 52.833125 148.447154 
L 69.309503 149.930385 
L 85.785881 150.220118 
L 102.262259 145.02925 
L 184.644149 149.575342 
L 349.407928 145.900216 
L 514.171708 146.709594 
" clip-path="url(#pb7cf8d26a1)" style="fill: none; stroke-dasharray: 1.5,2.475; stroke-dashoffset: 0; stroke: #ddaa33; stroke-width: 1.5"/>
   </g>
   <g id="line2d_18">
    <path d="M 52.833125 96.971526 
L 69.309503 137.069114 
L 85.785881 132.181804 
L 102.262259 145.312251 
L 184.644149 150.749359 
L 349.407928 150.516525 
L 514.171708 148.36795 
" clip-path="url(#pb7cf8d26a1)" style="fill: none; stroke-dasharray: 5.55,2.4; stroke-dashoffset: 0; stroke: #bb5566; stroke-width: 1.5"/>
   </g>
   <g id="line2d_19">
    <path d="M 52.833125 109.839488 
L 69.309503 106.007469 
L 85.785881 147.477336 
L 102.262259 144.576006 
L 184.644149 150.202159 
L 349.407928 150.019896 
L 514.171708 148.087715 
" clip-path="url(#pb7cf8d26a1)" style="fill: none; stroke: #bb5566; stroke-width: 1.5; stroke-linecap: square"/>
   </g>
   <g id="line2d_20">
    <path d="M 52.833125 141.903021 
L 69.309503 148.611418 
L 85.785881 148.94982 
L 102.262259 146.953798 
L 184.644149 150.850125 
L 349.407928 145.041651 
L 514.171708 146.351753 
" clip-path="url(#pb7cf8d26a1)" style="fill: none; stroke-dasharray: 9.6,2.4,1.5,2.4; stroke-dashoffset: 0; stroke: #bb5566; stroke-width: 1.5"/>
   </g>
   <g id="line2d_21">
    <path d="M 52.833125 34.066934 
L 69.309503 79.321379 
L 85.785881 53.649358 
L 102.262259 94.78697 
L 184.644149 133.199333 
L 349.407928 142.17731 
L 514.171708 145.751785 
" clip-path="url(#pb7cf8d26a1)" style="fill: none; stroke-dasharray: 1.5,2.475; stroke-dashoffset: 0; stroke: #bb5566; stroke-width: 1.5"/>
   </g>
   <g id="line2d_22">
    <path d="M 52.833125 156.812025 
L 69.309503 156.814815 
L 85.785881 156.826606 
L 102.262259 156.813447 
L 184.644149 156.744695 
L 349.407928 156.638146 
L 514.171708 156.474796 
" clip-path="url(#pb7cf8d26a1)" style="fill: none; stroke: #000000; stroke-width: 1.5; stroke-linecap: square"/>
   </g>
   <g id="patch_3">
    <path d="M 52.833125 169.120084 
L 52.833125 21.789375 
" style="fill: none; stroke: #000000; stroke-width: 0.8; stroke-linejoin: miter; stroke-linecap: square"/>
   </g>
   <g id="patch_4">
    <path d="M 514.171708 169.120084 
L 514.171708 21.789375 
" style="fill: none; stroke: #000000; stroke-width: 0.8; stroke-linejoin: miter; stroke-linecap: square"/>
   </g>
   <g id="patch_5">
    <path d="M 52.833125 169.120084 
L 514.171708 169.120084 
" style="fill: none; stroke: #000000; stroke-width: 0.8; stroke-linejoin: miter; stroke-linecap: square"/>
   </g>
   <g id="patch_6">
    <path d="M 52.833125 21.789375 
L 514.171708 21.789375 
" style="fill: none; stroke: #000000; stroke-width: 0.8; stroke-linejoin: miter; stroke-linecap: square"/>
   </g>
   <g id="text_7">
    <text style="font: 12px 'Arial'; text-anchor: middle" x="283.502416" y="15.789375" transform="rotate(-0 283.502416 15.789375)">MSE</text>
   </g>
  </g>
  <g id="axes_2">
   <g id="patch_7">
    <path d="M 52.833125 345.916934 
L 514.171708 345.916934 
L 514.171708 198.586225 
L 52.833125 198.586225 
z
" style="fill: #ffffff"/>
   </g>
   <g id="matplotlib.axis_3">
    <g id="xtick_1">
     <g id="line2d_23">
      <defs>
       <path id="m17b6830ce3" d="M 0 0 
L 0 3.5 
" style="stroke: #000000; stroke-width: 0.8"/>
      </defs>
      <g>
       <use xlink:href="#m17b6830ce3" x="52.833125" y="345.916934" style="stroke: #000000; stroke-width: 0.8"/>
      </g>
     </g>
     <g id="text_8">
      <text style="font: 12px 'Arial'; text-anchor: middle" x="52.833125" y="361.506309" transform="rotate(-0 52.833125 361.506309)">2</text>
     </g>
    </g>
    <g id="xtick_2">
     <g id="line2d_24">
      <g>
       <use xlink:href="#m17b6830ce3" x="69.309503" y="345.916934" style="stroke: #000000; stroke-width: 0.8"/>
      </g>
     </g>
     <g id="text_9">
      <text style="font: 12px 'Arial'; text-anchor: middle" x="69.309503" y="361.506309" transform="rotate(-0 69.309503 361.506309)">3</text>
     </g>
    </g>
    <g id="xtick_3">
     <g id="line2d_25">
      <g>
       <use xlink:href="#m17b6830ce3" x="85.785881" y="345.916934" style="stroke: #000000; stroke-width: 0.8"/>
      </g>
     </g>
     <g id="text_10">
      <text style="font: 12px 'Arial'; text-anchor: middle" x="85.785881" y="361.506309" transform="rotate(-0 85.785881 361.506309)">4</text>
     </g>
    </g>
    <g id="xtick_4">
     <g id="line2d_26">
      <g>
       <use xlink:href="#m17b6830ce3" x="102.262259" y="345.916934" style="stroke: #000000; stroke-width: 0.8"/>
      </g>
     </g>
     <g id="text_11">
      <text style="font: 12px 'Arial'; text-anchor: middle" x="102.262259" y="361.506309" transform="rotate(-0 102.262259 361.506309)">5</text>
     </g>
    </g>
    <g id="xtick_5">
     <g id="line2d_27">
      <g>
       <use xlink:href="#m17b6830ce3" x="184.644149" y="345.916934" style="stroke: #000000; stroke-width: 0.8"/>
      </g>
     </g>
     <g id="text_12">
      <text style="font: 12px 'Arial'; text-anchor: middle" x="184.644149" y="361.506309" transform="rotate(-0 184.644149 361.506309)">10</text>
     </g>
    </g>
    <g id="xtick_6">
     <g id="line2d_28">
      <g>
       <use xlink:href="#m17b6830ce3" x="349.407928" y="345.916934" style="stroke: #000000; stroke-width: 0.8"/>
      </g>
     </g>
     <g id="text_13">
      <text style="font: 12px 'Arial'; text-anchor: middle" x="349.407928" y="361.506309" transform="rotate(-0 349.407928 361.506309)">20</text>
     </g>
    </g>
    <g id="xtick_7">
     <g id="line2d_29">
      <g>
       <use xlink:href="#m17b6830ce3" x="514.171708" y="345.916934" style="stroke: #000000; stroke-width: 0.8"/>
      </g>
     </g>
     <g id="text_14">
      <text style="font: 12px 'Arial'; text-anchor: middle" x="514.171708" y="361.506309" transform="rotate(-0 514.171708 361.506309)">30</text>
     </g>
    </g>
    <g id="text_15">
     <!-- Forecasting time ($s$) -->
     <g transform="translate(230.342416 376.651309)">
      <text>
       <tspan style="font: 12px 'Arial'" x="0 7.330078 14.003906 18 24.673828 30.673828 37.347656 43.347656 46.681641 49.347656 56.021484 62.695312 66.029297 69.363281 72.029297 82.025391 88.699219 92.033203 102.28125" y="-0.265625">Forecasting time ()</tspan>
       <tspan style="font: oblique 12px 'DejaVu Sans'" x="96.029297" y="-0.265625">s</tspan>
      </text>
     </g>
    </g>
   </g>
   <g id="matplotlib.axis_4">
    <g id="ytick_6">
     <g id="line2d_30">
      <g>
       <use xlink:href="#m3cc744352e" x="52.833125" y="334.140727" style="stroke: #000000; stroke-width: 0.8"/>
      </g>
     </g>
     <g id="text_16">
      <text style="font: 12px 'Arial'; text-anchor: end" x="45.833125" y="338.435415" transform="rotate(-0 45.833125 338.435415)">0.00</text>
     </g>
    </g>
    <g id="ytick_7">
     <g id="line2d_31">
      <g>
       <use xlink:href="#m3cc744352e" x="52.833125" y="289.639146" style="stroke: #000000; stroke-width: 0.8"/>
      </g>
     </g>
     <g id="text_17">
      <text style="font: 12px 'Arial'; text-anchor: end" x="45.833125" y="293.933834" transform="rotate(-0 45.833125 293.933834)">0.02</text>
     </g>
    </g>
    <g id="ytick_8">
     <g id="line2d_32">
      <g>
       <use xlink:href="#m3cc744352e" x="52.833125" y="245.137565" style="stroke: #000000; stroke-width: 0.8"/>
      </g>
     </g>
     <g id="text_18">
      <text style="font: 12px 'Arial'; text-anchor: end" x="45.833125" y="249.432253" transform="rotate(-0 45.833125 249.432253)">0.04</text>
     </g>
    </g>
    <g id="ytick_9">
     <g id="line2d_33">
      <g>
       <use xlink:href="#m3cc744352e" x="52.833125" y="200.635984" style="stroke: #000000; stroke-width: 0.8"/>
      </g>
     </g>
     <g id="text_19">
      <text style="font: 12px 'Arial'; text-anchor: end" x="45.833125" y="204.930672" transform="rotate(-0 45.833125 204.930672)">0.06</text>
     </g>
    </g>
    <g id="text_20">
     <text style="font: 12px 'Arial'; text-anchor: middle" x="15.954375" y="272.25158" transform="rotate(-90 15.954375 272.25158)">Speed, heading, and time</text>
    </g>
   </g>
   <g id="line2d_34">
    <path d="M 52.833125 333.63374 
L 69.309503 333.619225 
L 85.785881 333.576309 
L 102.262259 333.567989 
L 184.644149 333.458011 
L 349.407928 332.567516 
L 514.171708 312.354512 
" clip-path="url(#p5efbe36a4a)" style="fill: none; stroke-dasharray: 5.55,2.4; stroke-dashoffset: 0; stroke: #6699cc; stroke-width: 1.5"/>
   </g>
   <g id="line2d_35">
    <path d="M 52.833125 333.637378 
L 69.309503 333.609019 
L 85.785881 333.575796 
L 102.262259 333.554237 
L 184.644149 333.395364 
L 349.407928 332.489638 
L 514.171708 330.708501 
" clip-path="url(#p5efbe36a4a)" style="fill: none; stroke-dasharray: 1.5,2.475; stroke-dashoffset: 0; stroke: #6699cc; stroke-width: 1.5"/>
   </g>
   <g id="line2d_36">
    <path d="M 52.833125 333.630416 
L 69.309503 333.608448 
L 85.785881 333.563796 
L 102.262259 333.553098 
L 184.644149 333.371774 
L 349.407928 332.43006 
L 514.171708 330.561098 
" clip-path="url(#p5efbe36a4a)" style="fill: none; stroke-dasharray: 9.6,2.4,1.5,2.4; stroke-dashoffset: 0; stroke: #6699cc; stroke-width: 1.5"/>
   </g>
   <g id="line2d_37">
    <path d="M 52.833125 333.639375 
L 69.309503 333.625068 
L 85.785881 333.57997 
L 102.262259 333.554893 
L 184.644149 333.381082 
L 349.407928 332.468578 
L 514.171708 323.648645 
" clip-path="url(#p5efbe36a4a)" style="fill: none; stroke: #6699cc; stroke-width: 1.5; stroke-linecap: square"/>
   </g>
   <g id="line2d_38">
    <path d="M 52.833125 329.262439 
L 69.309503 326.049755 
L 85.785881 323.737872 
L 102.262259 320.361844 
L 184.644149 290.178371 
L 349.407928 239.829107 
L 514.171708 214.87326 
" clip-path="url(#p5efbe36a4a)" style="fill: none; stroke-dasharray: 5.55,2.4; stroke-dashoffset: 0; stroke: #004488; stroke-width: 1.5"/>
   </g>
   <g id="line2d_39">
    <path d="M 52.833125 321.876806 
L 69.309503 321.866534 
L 85.785881 321.858638 
L 102.262259 321.843619 
L 184.644149 321.846835 
L 349.407928 321.909636 
L 514.171708 322.0388 
" clip-path="url(#p5efbe36a4a)" style="fill: none; stroke: #004488; stroke-width: 1.5; stroke-linecap: square"/>
   </g>
   <g id="line2d_40">
    <path d="M 52.833125 321.876804 
L 69.309503 321.866527 
L 85.785881 321.858638 
L 102.262259 321.843618 
L 184.644149 321.846835 
L 349.407928 321.909636 
L 514.171708 322.0388 
" clip-path="url(#p5efbe36a4a)" style="fill: none; stroke-dasharray: 9.6,2.4,1.5,2.4; stroke-dashoffset: 0; stroke: #004488; stroke-width: 1.5"/>
   </g>
   <g id="line2d_41">
    <path d="M 52.833125 321.8768 
L 69.309503 321.866539 
L 85.785881 321.858638 
L 102.262259 321.843619 
L 184.644149 321.846835 
L 349.407928 321.909636 
L 514.171708 322.0388 
" clip-path="url(#p5efbe36a4a)" style="fill: none; stroke-dasharray: 1.5,2.475; stroke-dashoffset: 0; stroke: #004488; stroke-width: 1.5"/>
   </g>
   <g id="line2d_42">
    <path d="M 52.833125 330.003174 
L 69.309503 327.378324 
L 85.785881 313.807117 
L 102.262259 319.773185 
L 184.644149 298.066367 
L 349.407928 255.911779 
L 514.171708 222.542282 
" clip-path="url(#p5efbe36a4a)" style="fill: none; stroke-dasharray: 5.55,2.4; stroke-dashoffset: 0; stroke: #ddaa33; stroke-width: 1.5"/>
   </g>
   <g id="line2d_43">
    <path d="M 69.309503 -1 
L 69.309503 321.866678 
L 85.785881 321.858639 
L 102.262259 321.843618 
L 184.644149 321.846835 
L 349.407928 321.909636 
L 514.171708 322.0388 
" clip-path="url(#p5efbe36a4a)" style="fill: none; stroke: #ddaa33; stroke-width: 1.5; stroke-linecap: square"/>
   </g>
   <g id="line2d_44">
    <path d="M 52.833125 321.876799 
L 69.309503 321.866529 
L 85.785881 321.85864 
L 102.262259 321.843618 
L 184.644149 321.846835 
L 349.407928 321.909636 
L 514.171708 322.0388 
" clip-path="url(#p5efbe36a4a)" style="fill: none; stroke-dasharray: 9.6,2.4,1.5,2.4; stroke-dashoffset: 0; stroke: #ddaa33; stroke-width: 1.5"/>
   </g>
   <g id="line2d_45">
    <path d="M 52.833125 321.874255 
L 69.309503 321.866525 
L 85.785881 321.858638 
L 102.262259 321.843618 
L 184.644149 321.846835 
L 349.407928 321.909636 
L 514.171708 322.0388 
" clip-path="url(#p5efbe36a4a)" style="fill: none; stroke-dasharray: 1.5,2.475; stroke-dashoffset: 0; stroke: #ddaa33; stroke-width: 1.5"/>
   </g>
   <g id="line2d_46">
    <path d="M 52.833125 329.403318 
L 69.309503 326.315371 
L 85.785881 322.803076 
L 102.262259 319.103846 
L 184.644149 295.177547 
L 349.407928 245.982374 
L 514.171708 210.863784 
" clip-path="url(#p5efbe36a4a)" style="fill: none; stroke-dasharray: 5.55,2.4; stroke-dashoffset: 0; stroke: #bb5566; stroke-width: 1.5"/>
   </g>
   <g id="line2d_47">
    <path d="M 52.833125 321.876968 
L 69.309503 321.866538 
L 85.785881 321.858638 
L 102.262259 321.843618 
L 184.644149 321.846835 
L 349.407928 321.909636 
L 514.171708 322.0388 
" clip-path="url(#p5efbe36a4a)" style="fill: none; stroke: #bb5566; stroke-width: 1.5; stroke-linecap: square"/>
   </g>
   <g id="line2d_48">
    <path d="M 52.833125 321.876799 
L 69.309503 321.866524 
L 85.785881 321.858638 
L 102.262259 321.843618 
L 184.644149 321.846835 
L 349.407928 321.909636 
L 514.171708 322.0388 
" clip-path="url(#p5efbe36a4a)" style="fill: none; stroke-dasharray: 9.6,2.4,1.5,2.4; stroke-dashoffset: 0; stroke: #bb5566; stroke-width: 1.5"/>
   </g>
   <g id="line2d_49">
    <path d="M 52.833125 321.876809 
L 69.309503 321.866564 
L 85.785881 321.858638 
L 102.262259 321.843618 
L 184.644149 321.846835 
L 349.407928 321.909636 
L 514.171708 322.0388 
" clip-path="url(#p5efbe36a4a)" style="fill: none; stroke-dasharray: 1.5,2.475; stroke-dashoffset: 0; stroke: #bb5566; stroke-width: 1.5"/>
   </g>
   <g id="line2d_50">
    <path d="M 52.833125 333.145958 
L 69.309503 332.639977 
L 85.785881 332.005663 
L 102.262259 331.170309 
L 184.644149 325.909977 
L 349.407928 311.130419 
L 514.171708 293.286284 
" clip-path="url(#p5efbe36a4a)" style="fill: none; stroke: #000000; stroke-width: 1.5; stroke-linecap: square"/>
   </g>
   <g id="line2d_51">
    <path d="M 19.880369 358.194493 
" clip-path="url(#p5efbe36a4a)" style="fill: none; stroke-dasharray: 5.55,2.4; stroke-dashoffset: 0; stroke: #6699cc; stroke-width: 1.5"/>
   </g>
   <g id="line2d_52">
    <path d="M 19.880369 358.194493 
" clip-path="url(#p5efbe36a4a)" style="fill: none; stroke-dasharray: 1.5,2.475; stroke-dashoffset: 0; stroke: #6699cc; stroke-width: 1.5"/>
   </g>
   <g id="line2d_53">
    <path d="M 19.880369 358.194493 
" clip-path="url(#p5efbe36a4a)" style="fill: none; stroke-dasharray: 9.6,2.4,1.5,2.4; stroke-dashoffset: 0; stroke: #6699cc; stroke-width: 1.5"/>
   </g>
   <g id="line2d_54">
    <path d="M 19.880369 358.194493 
" clip-path="url(#p5efbe36a4a)" style="fill: none; stroke: #6699cc; stroke-width: 1.5; stroke-linecap: square"/>
   </g>
   <g id="line2d_55">
    <path d="M 19.880369 358.194493 
" clip-path="url(#p5efbe36a4a)" style="fill: none; stroke-dasharray: 5.55,2.4; stroke-dashoffset: 0; stroke: #004488; stroke-width: 1.5"/>
   </g>
   <g id="line2d_56">
    <path d="M 19.880369 358.194493 
" clip-path="url(#p5efbe36a4a)" style="fill: none; stroke: #004488; stroke-width: 1.5; stroke-linecap: square"/>
   </g>
   <g id="line2d_57">
    <path d="M 19.880369 358.194493 
" clip-path="url(#p5efbe36a4a)" style="fill: none; stroke-dasharray: 9.6,2.4,1.5,2.4; stroke-dashoffset: 0; stroke: #004488; stroke-width: 1.5"/>
   </g>
   <g id="line2d_58">
    <path d="M 19.880369 358.194493 
" clip-path="url(#p5efbe36a4a)" style="fill: none; stroke-dasharray: 1.5,2.475; stroke-dashoffset: 0; stroke: #004488; stroke-width: 1.5"/>
   </g>
   <g id="line2d_59">
    <path d="M 19.880369 358.194493 
" clip-path="url(#p5efbe36a4a)" style="fill: none; stroke-dasharray: 5.55,2.4; stroke-dashoffset: 0; stroke: #ddaa33; stroke-width: 1.5"/>
   </g>
   <g id="line2d_60">
    <path d="M 19.880369 358.194493 
" clip-path="url(#p5efbe36a4a)" style="fill: none; stroke: #ddaa33; stroke-width: 1.5; stroke-linecap: square"/>
   </g>
   <g id="line2d_61">
    <path d="M 19.880369 358.194493 
" clip-path="url(#p5efbe36a4a)" style="fill: none; stroke-dasharray: 9.6,2.4,1.5,2.4; stroke-dashoffset: 0; stroke: #ddaa33; stroke-width: 1.5"/>
   </g>
   <g id="line2d_62">
    <path d="M 19.880369 358.194493 
" clip-path="url(#p5efbe36a4a)" style="fill: none; stroke-dasharray: 1.5,2.475; stroke-dashoffset: 0; stroke: #ddaa33; stroke-width: 1.5"/>
   </g>
   <g id="line2d_63">
    <path d="M 19.880369 358.194493 
" clip-path="url(#p5efbe36a4a)" style="fill: none; stroke-dasharray: 5.55,2.4; stroke-dashoffset: 0; stroke: #bb5566; stroke-width: 1.5"/>
   </g>
   <g id="line2d_64">
    <path d="M 19.880369 358.194493 
" clip-path="url(#p5efbe36a4a)" style="fill: none; stroke: #bb5566; stroke-width: 1.5; stroke-linecap: square"/>
   </g>
   <g id="line2d_65">
    <path d="M 19.880369 358.194493 
" clip-path="url(#p5efbe36a4a)" style="fill: none; stroke-dasharray: 9.6,2.4,1.5,2.4; stroke-dashoffset: 0; stroke: #bb5566; stroke-width: 1.5"/>
   </g>
   <g id="line2d_66">
    <path d="M 19.880369 358.194493 
" clip-path="url(#p5efbe36a4a)" style="fill: none; stroke-dasharray: 1.5,2.475; stroke-dashoffset: 0; stroke: #bb5566; stroke-width: 1.5"/>
   </g>
   <g id="line2d_67">
    <path d="M 19.880369 358.194493 
" clip-path="url(#p5efbe36a4a)" style="fill: none; stroke: #000000; stroke-width: 1.5; stroke-linecap: square"/>
   </g>
   <g id="patch_8">
    <path d="M 52.833125 345.916934 
L 52.833125 198.586225 
" style="fill: none; stroke: #000000; stroke-width: 0.8; stroke-linejoin: miter; stroke-linecap: square"/>
   </g>
   <g id="patch_9">
    <path d="M 514.171708 345.916934 
L 514.171708 198.586225 
" style="fill: none; stroke: #000000; stroke-width: 0.8; stroke-linejoin: miter; stroke-linecap: square"/>
   </g>
   <g id="patch_10">
    <path d="M 52.833125 345.916934 
L 514.171708 345.916934 
" style="fill: none; stroke: #000000; stroke-width: 0.8; stroke-linejoin: miter; stroke-linecap: square"/>
   </g>
   <g id="patch_11">
    <path d="M 52.833125 198.586225 
L 514.171708 198.586225 
" style="fill: none; stroke: #000000; stroke-width: 0.8; stroke-linejoin: miter; stroke-linecap: square"/>
   </g>
   <g id="legend_1">
    <g id="patch_12">
     <path d="M 15.099267 481.354414 
L 550.406142 481.354414 
Q 552.806142 481.354414 552.806142 478.954414 
L 552.806142 395.282539 
Q 552.806142 392.882539 550.406142 392.882539 
L 15.099267 392.882539 
Q 12.699267 392.882539 12.699267 395.282539 
L 12.699267 478.954414 
Q 12.699267 481.354414 15.099267 481.354414 
z
" style="fill: #ffffff; opacity: 0.8; stroke: #cccccc; stroke-linejoin: miter"/>
    </g>
    <g id="line2d_68">
     <path d="M 17.499267 402.071914 
L 29.499267 402.071914 
L 41.499267 402.071914 
" style="fill: none; stroke-dasharray: 5.55,2.4; stroke-dashoffset: 0; stroke: #6699cc; stroke-width: 1.5"/>
    </g>
    <g id="text_21">
     <text style="font: 12px 'Arial'; text-anchor: start" x="51.099267" y="406.271914" transform="rotate(-0 51.099267 406.271914)">GRU Att 1</text>
    </g>
    <g id="line2d_69">
     <path d="M 17.499267 419.046289 
L 29.499267 419.046289 
L 41.499267 419.046289 
" style="fill: none; stroke-dasharray: 1.5,2.475; stroke-dashoffset: 0; stroke: #6699cc; stroke-width: 1.5"/>
    </g>
    <g id="text_22">
     <text style="font: 12px 'Arial'; text-anchor: start" x="51.099267" y="423.246289" transform="rotate(-0 51.099267 423.246289)">GRU Att 2</text>
    </g>
    <g id="line2d_70">
     <path d="M 17.499267 436.020664 
L 29.499267 436.020664 
L 41.499267 436.020664 
" style="fill: none; stroke-dasharray: 9.6,2.4,1.5,2.4; stroke-dashoffset: 0; stroke: #6699cc; stroke-width: 1.5"/>
    </g>
    <g id="text_23">
     <text style="font: 12px 'Arial'; text-anchor: start" x="51.099267" y="440.220664" transform="rotate(-0 51.099267 440.220664)">GRU Att 3</text>
    </g>
    <g id="line2d_71">
     <path d="M 17.499267 452.995039 
L 29.499267 452.995039 
L 41.499267 452.995039 
" style="fill: none; stroke: #6699cc; stroke-width: 1.5; stroke-linecap: square"/>
    </g>
    <g id="text_24">
     <text style="font: 12px 'Arial'; text-anchor: start" x="51.099267" y="457.195039" transform="rotate(-0 51.099267 457.195039)">GRU Att 4</text>
    </g>
    <g id="line2d_72">
     <path d="M 17.499267 469.969414 
L 29.499267 469.969414 
L 41.499267 469.969414 
" style="fill: none; stroke-dasharray: 5.55,2.4; stroke-dashoffset: 0; stroke: #004488; stroke-width: 1.5"/>
    </g>
    <g id="text_25">
     <text style="font: 12px 'Arial'; text-anchor: start" x="51.099267" y="474.169414" transform="rotate(-0 51.099267 474.169414)">GRU Linear</text>
    </g>
    <g id="line2d_73">
     <path d="M 138.453642 402.071914 
L 150.453642 402.071914 
L 162.453642 402.071914 
" style="fill: none; stroke: #004488; stroke-width: 1.5; stroke-linecap: square"/>
    </g>
    <g id="text_26">
     <text style="font: 12px 'Arial'; text-anchor: start" x="172.053642" y="406.271914" transform="rotate(-0 172.053642 406.271914)">GRU Reference</text>
    </g>
    <g id="line2d_74">
     <path d="M 138.453642 419.046289 
L 150.453642 419.046289 
L 162.453642 419.046289 
" style="fill: none; stroke-dasharray: 9.6,2.4,1.5,2.4; stroke-dashoffset: 0; stroke: #004488; stroke-width: 1.5"/>
    </g>
    <g id="text_27">
     <text style="font: 12px 'Arial'; text-anchor: start" x="172.053642" y="423.246289" transform="rotate(-0 172.053642 423.246289)">GRU Third</text>
    </g>
    <g id="line2d_75">
     <path d="M 138.453642 436.020664 
L 150.453642 436.020664 
L 162.453642 436.020664 
" style="fill: none; stroke-dasharray: 1.5,2.475; stroke-dashoffset: 0; stroke: #004488; stroke-width: 1.5"/>
    </g>
    <g id="text_28">
     <text style="font: 12px 'Arial'; text-anchor: start" x="172.053642" y="440.220664" transform="rotate(-0 172.053642 440.220664)">GRU Twice</text>
    </g>
    <g id="line2d_76">
     <path d="M 138.453642 452.995039 
L 150.453642 452.995039 
L 162.453642 452.995039 
" style="fill: none; stroke-dasharray: 5.55,2.4; stroke-dashoffset: 0; stroke: #ddaa33; stroke-width: 1.5"/>
    </g>
    <g id="text_29">
     <text style="font: 12px 'Arial'; text-anchor: start" x="172.053642" y="457.195039" transform="rotate(-0 172.053642 457.195039)">LSTM Linear</text>
    </g>
    <g id="line2d_77">
     <path d="M 281.414892 402.071914 
L 293.414892 402.071914 
L 305.414892 402.071914 
" style="fill: none; stroke: #ddaa33; stroke-width: 1.5; stroke-linecap: square"/>
    </g>
    <g id="text_30">
     <text style="font: 12px 'Arial'; text-anchor: start" x="315.014892" y="406.271914" transform="rotate(-0 315.014892 406.271914)">LSTM Reference</text>
    </g>
    <g id="line2d_78">
     <path d="M 281.414892 419.046289 
L 293.414892 419.046289 
L 305.414892 419.046289 
" style="fill: none; stroke-dasharray: 9.6,2.4,1.5,2.4; stroke-dashoffset: 0; stroke: #ddaa33; stroke-width: 1.5"/>
    </g>
    <g id="text_31">
     <text style="font: 12px 'Arial'; text-anchor: start" x="315.014892" y="423.246289" transform="rotate(-0 315.014892 423.246289)">LSTM Third</text>
    </g>
    <g id="line2d_79">
     <path d="M 281.414892 436.020664 
L 293.414892 436.020664 
L 305.414892 436.020664 
" style="fill: none; stroke-dasharray: 1.5,2.475; stroke-dashoffset: 0; stroke: #ddaa33; stroke-width: 1.5"/>
    </g>
    <g id="text_32">
     <text style="font: 12px 'Arial'; text-anchor: start" x="315.014892" y="440.220664" transform="rotate(-0 315.014892 440.220664)">LSTM Twice</text>
    </g>
    <g id="line2d_80">
     <path d="M 281.414892 452.995039 
L 293.414892 452.995039 
L 305.414892 452.995039 
" style="fill: none; stroke-dasharray: 5.55,2.4; stroke-dashoffset: 0; stroke: #bb5566; stroke-width: 1.5"/>
    </g>
    <g id="text_33">
     <text style="font: 12px 'Arial'; text-anchor: start" x="315.014892" y="457.195039" transform="rotate(-0 315.014892 457.195039)">RNN Linear</text>
    </g>
    <g id="line2d_81">
     <path d="M 429.712392 402.071914 
L 441.712392 402.071914 
L 453.712392 402.071914 
" style="fill: none; stroke: #bb5566; stroke-width: 1.5; stroke-linecap: square"/>
    </g>
    <g id="text_34">
     <text style="font: 12px 'Arial'; text-anchor: start" x="463.312392" y="406.271914" transform="rotate(-0 463.312392 406.271914)">RNN Reference</text>
    </g>
    <g id="line2d_82">
     <path d="M 429.712392 419.046289 
L 441.712392 419.046289 
L 453.712392 419.046289 
" style="fill: none; stroke-dasharray: 9.6,2.4,1.5,2.4; stroke-dashoffset: 0; stroke: #bb5566; stroke-width: 1.5"/>
    </g>
    <g id="text_35">
     <text style="font: 12px 'Arial'; text-anchor: start" x="463.312392" y="423.246289" transform="rotate(-0 463.312392 423.246289)">RNN Third</text>
    </g>
    <g id="line2d_83">
     <path d="M 429.712392 436.020664 
L 441.712392 436.020664 
L 453.712392 436.020664 
" style="fill: none; stroke-dasharray: 1.5,2.475; stroke-dashoffset: 0; stroke: #bb5566; stroke-width: 1.5"/>
    </g>
    <g id="text_36">
     <text style="font: 12px 'Arial'; text-anchor: start" x="463.312392" y="440.220664" transform="rotate(-0 463.312392 440.220664)">RNN Twice</text>
    </g>
    <g id="line2d_84">
     <path d="M 429.712392 452.995039 
L 441.712392 452.995039 
L 453.712392 452.995039 
" style="fill: none; stroke: #000000; stroke-width: 1.5; stroke-linecap: square"/>
    </g>
    <g id="text_37">
     <text style="font: 12px 'Arial'; text-anchor: start" x="463.312392" y="457.195039" transform="rotate(-0 463.312392 457.195039)">UniTS</text>
    </g>
   </g>
  </g>
 </g>
 <defs>
  <clipPath id="pb7cf8d26a1">
   <rect x="52.833125" y="21.789375" width="461.338583" height="147.330709"/>
  </clipPath>
  <clipPath id="p5efbe36a4a">
   <rect x="52.833125" y="198.586225" width="461.338583" height="147.330709"/>
  </clipPath>
 </defs>
</svg>
