<?xml version="1.0" encoding="utf-8" standalone="no"?>
<!DOCTYPE svg PUBLIC "-//W3C//DTD SVG 1.1//EN"
  "http://www.w3.org/Graphics/SVG/1.1/DTD/svg11.dtd">
<svg xmlns:xlink="http://www.w3.org/1999/xlink" width="538.152031pt" height="416.756768pt" viewBox="0 0 538.152031 416.756768" xmlns="http://www.w3.org/2000/svg" version="1.1">
 <metadata>
  <rdf:RDF xmlns:dc="http://purl.org/dc/elements/1.1/" xmlns:cc="http://creativecommons.org/ns#" xmlns:rdf="http://www.w3.org/1999/02/22-rdf-syntax-ns#">
   <cc:Work>
    <dc:type rdf:resource="http://purl.org/dc/dcmitype/StillImage"/>
    <dc:date>2024-10-09T11:40:43.686251</dc:date>
    <dc:format>image/svg+xml</dc:format>
    <dc:creator>
     <cc:Agent>
      <dc:title>Matplotlib v3.7.0, https://matplotlib.org/</dc:title>
     </cc:Agent>
    </dc:creator>
   </cc:Work>
  </rdf:RDF>
 </metadata>
 <defs>
  <style type="text/css">*{stroke-linejoin: round; stroke-linecap: butt}</style>
 </defs>
 <g id="figure_1">
  <g id="patch_1">
   <path d="M 0 416.756768 
L 538.152031 416.756768 
L 538.152031 0 
L 0 0 
z
" style="fill: #ffffff"/>
  </g>
  <g id="axes_1">
   <g id="patch_2">
    <path d="M 49.833858 165.541177 
L 511.172441 165.541177 
L 511.172441 18.210469 
L 49.833858 18.210469 
z
" style="fill: #ffffff"/>
   </g>
   <g id="matplotlib.axis_1"/>
   <g id="matplotlib.axis_2">
    <g id="ytick_1">
     <g id="line2d_1">
      <defs>
       <path id="mabaafece91" d="M 0 0 
L -3.5 0 
" style="stroke: #000000; stroke-width: 0.8"/>
      </defs>
      <g>
       <use xlink:href="#mabaafece91" x="49.833858" y="154.624464" style="stroke: #000000; stroke-width: 0.8"/>
      </g>
     </g>
     <g id="text_1">
      <text style="font: 7px 'Arial'; text-anchor: end" x="42.833858" y="157.129699" transform="rotate(-0 42.833858 157.129699)">0.000</text>
     </g>
    </g>
    <g id="ytick_2">
     <g id="line2d_2">
      <g>
       <use xlink:href="#mabaafece91" x="49.833858" y="137.155243" style="stroke: #000000; stroke-width: 0.8"/>
      </g>
     </g>
     <g id="text_2">
      <text style="font: 7px 'Arial'; text-anchor: end" x="42.833858" y="139.660478" transform="rotate(-0 42.833858 139.660478)">0.025</text>
     </g>
    </g>
    <g id="ytick_3">
     <g id="line2d_3">
      <g>
       <use xlink:href="#mabaafece91" x="49.833858" y="119.686022" style="stroke: #000000; stroke-width: 0.8"/>
      </g>
     </g>
     <g id="text_3">
      <text style="font: 7px 'Arial'; text-anchor: end" x="42.833858" y="122.191257" transform="rotate(-0 42.833858 122.191257)">0.050</text>
     </g>
    </g>
    <g id="ytick_4">
     <g id="line2d_4">
      <g>
       <use xlink:href="#mabaafece91" x="49.833858" y="102.216802" style="stroke: #000000; stroke-width: 0.8"/>
      </g>
     </g>
     <g id="text_4">
      <text style="font: 7px 'Arial'; text-anchor: end" x="42.833858" y="104.722036" transform="rotate(-0 42.833858 104.722036)">0.075</text>
     </g>
    </g>
    <g id="ytick_5">
     <g id="line2d_5">
      <g>
       <use xlink:href="#mabaafece91" x="49.833858" y="84.747581" style="stroke: #000000; stroke-width: 0.8"/>
      </g>
     </g>
     <g id="text_5">
      <text style="font: 7px 'Arial'; text-anchor: end" x="42.833858" y="87.252815" transform="rotate(-0 42.833858 87.252815)">0.100</text>
     </g>
    </g>
    <g id="ytick_6">
     <g id="line2d_6">
      <g>
       <use xlink:href="#mabaafece91" x="49.833858" y="67.27836" style="stroke: #000000; stroke-width: 0.8"/>
      </g>
     </g>
     <g id="text_6">
      <text style="font: 7px 'Arial'; text-anchor: end" x="42.833858" y="69.783594" transform="rotate(-0 42.833858 69.783594)">0.125</text>
     </g>
    </g>
    <g id="ytick_7">
     <g id="line2d_7">
      <g>
       <use xlink:href="#mabaafece91" x="49.833858" y="49.809139" style="stroke: #000000; stroke-width: 0.8"/>
      </g>
     </g>
     <g id="text_7">
      <text style="font: 7px 'Arial'; text-anchor: end" x="42.833858" y="52.314373" transform="rotate(-0 42.833858 52.314373)">0.150</text>
     </g>
    </g>
    <g id="ytick_8">
     <g id="line2d_8">
      <g>
       <use xlink:href="#mabaafece91" x="49.833858" y="32.339918" style="stroke: #000000; stroke-width: 0.8"/>
      </g>
     </g>
     <g id="text_8">
      <text style="font: 7px 'Arial'; text-anchor: end" x="42.833858" y="34.845152" transform="rotate(-0 42.833858 34.845152)">0.175</text>
     </g>
    </g>
    <g id="text_9">
     <!-- $x$ and $y$ offset -->
     <g transform="translate(19.848546 113.365823) rotate(-90)">
      <text>
       <tspan style="font: oblique 7px 'DejaVu Sans'" x="0 19.711426" y="-0.90625">xy</tspan>
       <tspan style="font: 7px 'Arial'" x="4.142578 6.087402 9.980469 13.873535 17.766602 23.854004 25.798828 29.691895 31.636719 33.581543 37.081543 40.974609" y="-0.90625"> and  offset</tspan>
      </text>
     </g>
    </g>
   </g>
   <g id="line2d_9">
    <path d="M 49.833858 153.185433 
L 66.310236 152.849925 
L 82.786614 152.355839 
L 99.262992 151.593772 
L 181.644882 137.887948 
L 346.408661 129.176055 
L 511.172441 125.791352 
" clip-path="url(#p041ad4d010)" style="fill: none; stroke-dasharray: 5.55,2.4; stroke-dashoffset: 0; stroke: #6699cc; stroke-width: 1.5"/>
   </g>
   <g id="line2d_10">
    <path d="M 49.833858 152.996827 
L 66.310236 152.509572 
L 82.786614 152.107725 
L 99.262992 151.155564 
L 181.644882 147.362025 
L 346.408661 138.859958 
L 511.172441 126.829676 
" clip-path="url(#p041ad4d010)" style="fill: none; stroke-dasharray: 1.5,2.475; stroke-dashoffset: 0; stroke: #6699cc; stroke-width: 1.5"/>
   </g>
   <g id="line2d_11">
    <path d="M 49.833858 153.120271 
L 66.310236 152.502522 
L 82.786614 152.014104 
L 99.262992 151.420855 
L 181.644882 145.080203 
L 346.408661 132.438064 
L 511.172441 123.663955 
" clip-path="url(#p041ad4d010)" style="fill: none; stroke-dasharray: 9.6,2.4,1.5,2.4; stroke-dashoffset: 0; stroke: #6699cc; stroke-width: 1.5"/>
   </g>
   <g id="line2d_12">
    <path d="M 49.833858 153.263618 
L 66.310236 152.828941 
L 82.786614 152.374848 
L 99.262992 151.784986 
L 181.644882 144.746143 
L 346.408661 131.250518 
L 511.172441 125.409592 
" clip-path="url(#p041ad4d010)" style="fill: none; stroke: #6699cc; stroke-width: 1.5; stroke-linecap: square"/>
   </g>
   <g id="line2d_13">
    <path d="M 49.833858 134.624066 
L 66.310236 133.097023 
L 82.786614 133.498303 
L 99.262992 130.886668 
L 181.644882 123.886563 
L 346.408661 118.627782 
L 511.172441 117.938259 
" clip-path="url(#p041ad4d010)" style="fill: none; stroke-dasharray: 5.55,2.4; stroke-dashoffset: 0; stroke: #004488; stroke-width: 1.5"/>
   </g>
   <g id="line2d_14">
    <path d="M 49.833858 134.910633 
L 66.310236 129.177476 
L 82.786614 130.552297 
L 99.262992 129.317844 
L 181.644882 126.216554 
L 346.408661 121.029368 
L 511.172441 119.978603 
" clip-path="url(#p041ad4d010)" style="fill: none; stroke: #004488; stroke-width: 1.5; stroke-linecap: square"/>
   </g>
   <g id="line2d_15">
    <path d="M 49.833858 134.701754 
L 66.310236 129.104069 
L 82.786614 130.718649 
L 99.262992 128.936243 
L 181.644882 126.650485 
L 346.408661 120.96079 
L 511.172441 119.942761 
" clip-path="url(#p041ad4d010)" style="fill: none; stroke-dasharray: 9.6,2.4,1.5,2.4; stroke-dashoffset: 0; stroke: #004488; stroke-width: 1.5"/>
   </g>
   <g id="line2d_16">
    <path d="M 49.833858 137.060724 
L 66.310236 130.09029 
L 82.786614 129.771891 
L 99.262992 128.863154 
L 181.644882 130.317373 
L 346.408661 121.792525 
L 511.172441 119.139723 
" clip-path="url(#p041ad4d010)" style="fill: none; stroke-dasharray: 1.5,2.475; stroke-dashoffset: 0; stroke: #004488; stroke-width: 1.5"/>
   </g>
   <g id="line2d_17">
    <path d="M 49.833858 128.366666 
L 66.310236 130.083988 
L 82.786614 132.244708 
L 99.262992 123.305212 
L 181.644882 123.858267 
L 346.408661 127.002756 
L 511.172441 121.096713 
" clip-path="url(#p041ad4d010)" style="fill: none; stroke-dasharray: 5.55,2.4; stroke-dashoffset: 0; stroke: #ddaa33; stroke-width: 1.5"/>
   </g>
   <g id="line2d_18">
    <path d="M 66.310236 -1 
L 66.310236 126.999157 
L 82.786614 128.20375 
L 99.262992 131.588511 
L 181.644882 127.134887 
L 346.408661 123.785488 
L 511.172441 120.603738 
" clip-path="url(#p041ad4d010)" style="fill: none; stroke: #ddaa33; stroke-width: 1.5; stroke-linecap: square"/>
   </g>
   <g id="line2d_19">
    <path d="M 49.833858 132.672895 
L 66.310236 125.705685 
L 82.786614 127.911423 
L 99.262992 123.116602 
L 181.644882 125.790834 
L 346.408661 119.03495 
L 511.172441 118.230061 
" clip-path="url(#p041ad4d010)" style="fill: none; stroke-dasharray: 9.6,2.4,1.5,2.4; stroke-dashoffset: 0; stroke: #ddaa33; stroke-width: 1.5"/>
   </g>
   <g id="line2d_20">
    <path d="M 49.833858 121.239155 
L 66.310236 124.183683 
L 82.786614 125.161962 
L 99.262992 117.66449 
L 181.644882 122.809616 
L 346.408661 113.880069 
L 511.172441 115.994487 
" clip-path="url(#p041ad4d010)" style="fill: none; stroke-dasharray: 1.5,2.475; stroke-dashoffset: 0; stroke: #ddaa33; stroke-width: 1.5"/>
   </g>
   <g id="line2d_21">
    <path d="M 49.833858 75.375469 
L 66.310236 110.081878 
L 82.786614 102.379796 
L 99.262992 116.43126 
L 181.644882 125.048114 
L 346.408661 124.375388 
L 511.172441 119.656478 
" clip-path="url(#p041ad4d010)" style="fill: none; stroke-dasharray: 5.55,2.4; stroke-dashoffset: 0; stroke: #bb5566; stroke-width: 1.5"/>
   </g>
   <g id="line2d_22">
    <path d="M 49.833858 82.906049 
L 66.310236 85.114571 
L 82.786614 122.00541 
L 99.262992 120.54547 
L 181.644882 125.510513 
L 346.408661 122.613183 
L 511.172441 118.717409 
" clip-path="url(#p041ad4d010)" style="fill: none; stroke: #bb5566; stroke-width: 1.5; stroke-linecap: square"/>
   </g>
   <g id="line2d_23">
    <path d="M 49.833858 112.768303 
L 66.310236 123.381441 
L 82.786614 123.664994 
L 99.262992 122.370906 
L 181.644882 124.966966 
L 346.408661 113.788397 
L 511.172441 116.373246 
" clip-path="url(#p041ad4d010)" style="fill: none; stroke-dasharray: 9.6,2.4,1.5,2.4; stroke-dashoffset: 0; stroke: #bb5566; stroke-width: 1.5"/>
   </g>
   <g id="line2d_24">
    <path d="M 49.833858 30.488028 
L 66.310236 56.51079 
L 82.786614 39.481853 
L 99.262992 70.469645 
L 181.644882 104.955798 
L 346.408661 111.170973 
L 511.172441 114.965747 
" clip-path="url(#p041ad4d010)" style="fill: none; stroke-dasharray: 1.5,2.475; stroke-dashoffset: 0; stroke: #bb5566; stroke-width: 1.5"/>
   </g>
   <g id="line2d_25">
    <path d="M 49.833858 152.633788 
L 66.310236 152.428136 
L 82.786614 152.416508 
L 99.262992 152.025413 
L 181.644882 150.43935 
L 346.408661 148.548174 
L 511.172441 146.593176 
" clip-path="url(#p041ad4d010)" style="fill: none; stroke: #000000; stroke-width: 1.5; stroke-linecap: square"/>
   </g>
   <g id="patch_3">
    <path d="M 49.833858 165.541177 
L 49.833858 18.210469 
" style="fill: none; stroke: #000000; stroke-width: 0.8; stroke-linejoin: miter; stroke-linecap: square"/>
   </g>
   <g id="patch_4">
    <path d="M 511.172441 165.541177 
L 511.172441 18.210469 
" style="fill: none; stroke: #000000; stroke-width: 0.8; stroke-linejoin: miter; stroke-linecap: square"/>
   </g>
   <g id="patch_5">
    <path d="M 49.833858 165.541177 
L 511.172441 165.541177 
" style="fill: none; stroke: #000000; stroke-width: 0.8; stroke-linejoin: miter; stroke-linecap: square"/>
   </g>
   <g id="patch_6">
    <path d="M 49.833858 18.210469 
L 511.172441 18.210469 
" style="fill: none; stroke: #000000; stroke-width: 0.8; stroke-linejoin: miter; stroke-linecap: square"/>
   </g>
   <g id="text_10">
    <text style="font: 7px 'Arial'; text-anchor: middle" x="280.50315" y="12.210469" transform="rotate(-0 280.50315 12.210469)">MAE</text>
   </g>
  </g>
  <g id="axes_2">
   <g id="patch_7">
    <path d="M 49.833858 342.338028 
L 511.172441 342.338028 
L 511.172441 195.007319 
L 49.833858 195.007319 
z
" style="fill: #ffffff"/>
   </g>
   <g id="matplotlib.axis_3">
    <g id="xtick_1">
     <g id="line2d_26">
      <defs>
       <path id="m96590c502d" d="M 0 0 
L 0 3.5 
" style="stroke: #000000; stroke-width: 0.8"/>
      </defs>
      <g>
       <use xlink:href="#m96590c502d" x="49.833858" y="342.338028" style="stroke: #000000; stroke-width: 0.8"/>
      </g>
     </g>
     <g id="text_11">
      <text style="font: 7px 'Arial'; text-anchor: middle" x="49.833858" y="354.348497" transform="rotate(-0 49.833858 354.348497)">2</text>
     </g>
    </g>
    <g id="xtick_2">
     <g id="line2d_27">
      <g>
       <use xlink:href="#m96590c502d" x="66.310236" y="342.338028" style="stroke: #000000; stroke-width: 0.8"/>
      </g>
     </g>
     <g id="text_12">
      <text style="font: 7px 'Arial'; text-anchor: middle" x="66.310236" y="354.348497" transform="rotate(-0 66.310236 354.348497)">3</text>
     </g>
    </g>
    <g id="xtick_3">
     <g id="line2d_28">
      <g>
       <use xlink:href="#m96590c502d" x="82.786614" y="342.338028" style="stroke: #000000; stroke-width: 0.8"/>
      </g>
     </g>
     <g id="text_13">
      <text style="font: 7px 'Arial'; text-anchor: middle" x="82.786614" y="354.348497" transform="rotate(-0 82.786614 354.348497)">4</text>
     </g>
    </g>
    <g id="xtick_4">
     <g id="line2d_29">
      <g>
       <use xlink:href="#m96590c502d" x="99.262992" y="342.338028" style="stroke: #000000; stroke-width: 0.8"/>
      </g>
     </g>
     <g id="text_14">
      <text style="font: 7px 'Arial'; text-anchor: middle" x="99.262992" y="354.348497" transform="rotate(-0 99.262992 354.348497)">5</text>
     </g>
    </g>
    <g id="xtick_5">
     <g id="line2d_30">
      <g>
       <use xlink:href="#m96590c502d" x="181.644882" y="342.338028" style="stroke: #000000; stroke-width: 0.8"/>
      </g>
     </g>
     <g id="text_15">
      <text style="font: 7px 'Arial'; text-anchor: middle" x="181.644882" y="354.348497" transform="rotate(-0 181.644882 354.348497)">10</text>
     </g>
    </g>
    <g id="xtick_6">
     <g id="line2d_31">
      <g>
       <use xlink:href="#m96590c502d" x="346.408661" y="342.338028" style="stroke: #000000; stroke-width: 0.8"/>
      </g>
     </g>
     <g id="text_16">
      <text style="font: 7px 'Arial'; text-anchor: middle" x="346.408661" y="354.348497" transform="rotate(-0 346.408661 354.348497)">20</text>
     </g>
    </g>
    <g id="xtick_7">
     <g id="line2d_32">
      <g>
       <use xlink:href="#m96590c502d" x="511.172441" y="342.338028" style="stroke: #000000; stroke-width: 0.8"/>
      </g>
     </g>
     <g id="text_17">
      <text style="font: 7px 'Arial'; text-anchor: middle" x="511.172441" y="354.348497" transform="rotate(-0 511.172441 354.348497)">30</text>
     </g>
    </g>
    <g id="text_18">
     <text style="font: 7px 'Arial'; text-anchor: middle" x="280.50315" y="364.750215" transform="rotate(-0 280.50315 364.750215)">Forecasting length</text>
    </g>
   </g>
   <g id="matplotlib.axis_4">
    <g id="ytick_9">
     <g id="line2d_33">
      <g>
       <use xlink:href="#mabaafece91" x="49.833858" y="336.783568" style="stroke: #000000; stroke-width: 0.8"/>
      </g>
     </g>
     <g id="text_19">
      <text style="font: 7px 'Arial'; text-anchor: end" x="42.833858" y="339.288802" transform="rotate(-0 42.833858 339.288802)">0.00</text>
     </g>
    </g>
    <g id="ytick_10">
     <g id="line2d_34">
      <g>
       <use xlink:href="#mabaafece91" x="49.833858" y="318.302785" style="stroke: #000000; stroke-width: 0.8"/>
      </g>
     </g>
     <g id="text_20">
      <text style="font: 7px 'Arial'; text-anchor: end" x="42.833858" y="320.808019" transform="rotate(-0 42.833858 320.808019)">0.02</text>
     </g>
    </g>
    <g id="ytick_11">
     <g id="line2d_35">
      <g>
       <use xlink:href="#mabaafece91" x="49.833858" y="299.822002" style="stroke: #000000; stroke-width: 0.8"/>
      </g>
     </g>
     <g id="text_21">
      <text style="font: 7px 'Arial'; text-anchor: end" x="42.833858" y="302.327236" transform="rotate(-0 42.833858 302.327236)">0.04</text>
     </g>
    </g>
    <g id="ytick_12">
     <g id="line2d_36">
      <g>
       <use xlink:href="#mabaafece91" x="49.833858" y="281.341219" style="stroke: #000000; stroke-width: 0.8"/>
      </g>
     </g>
     <g id="text_22">
      <text style="font: 7px 'Arial'; text-anchor: end" x="42.833858" y="283.846453" transform="rotate(-0 42.833858 283.846453)">0.06</text>
     </g>
    </g>
    <g id="ytick_13">
     <g id="line2d_37">
      <g>
       <use xlink:href="#mabaafece91" x="49.833858" y="262.860435" style="stroke: #000000; stroke-width: 0.8"/>
      </g>
     </g>
     <g id="text_23">
      <text style="font: 7px 'Arial'; text-anchor: end" x="42.833858" y="265.36567" transform="rotate(-0 42.833858 265.36567)">0.08</text>
     </g>
    </g>
    <g id="ytick_14">
     <g id="line2d_38">
      <g>
       <use xlink:href="#mabaafece91" x="49.833858" y="244.379652" style="stroke: #000000; stroke-width: 0.8"/>
      </g>
     </g>
     <g id="text_24">
      <text style="font: 7px 'Arial'; text-anchor: end" x="42.833858" y="246.884887" transform="rotate(-0 42.833858 246.884887)">0.10</text>
     </g>
    </g>
    <g id="ytick_15">
     <g id="line2d_39">
      <g>
       <use xlink:href="#mabaafece91" x="49.833858" y="225.898869" style="stroke: #000000; stroke-width: 0.8"/>
      </g>
     </g>
     <g id="text_25">
      <text style="font: 7px 'Arial'; text-anchor: end" x="42.833858" y="228.404104" transform="rotate(-0 42.833858 228.404104)">0.12</text>
     </g>
    </g>
    <g id="ytick_16">
     <g id="line2d_40">
      <g>
       <use xlink:href="#mabaafece91" x="49.833858" y="207.418086" style="stroke: #000000; stroke-width: 0.8"/>
      </g>
     </g>
     <g id="text_26">
      <text style="font: 7px 'Arial'; text-anchor: end" x="42.833858" y="209.923321" transform="rotate(-0 42.833858 209.923321)">0.14</text>
     </g>
    </g>
    <g id="text_27">
     <text style="font: 7px 'Arial'; text-anchor: middle" x="23.737921" y="268.672673" transform="rotate(-90 23.737921 268.672673)">speed, heading, and time</text>
    </g>
   </g>
   <g id="line2d_41">
    <path d="M 49.833858 330.030543 
L 66.310236 329.596136 
L 82.786614 329.004611 
L 99.262992 328.789787 
L 181.644882 327.315892 
L 346.408661 320.999546 
L 511.172441 292.09506 
" clip-path="url(#p25b7759b38)" style="fill: none; stroke-dasharray: 5.55,2.4; stroke-dashoffset: 0; stroke: #6699cc; stroke-width: 1.5"/>
   </g>
   <g id="line2d_42">
    <path d="M 49.833858 330.022356 
L 66.310236 329.449361 
L 82.786614 328.976903 
L 99.262992 328.644593 
L 181.644882 326.801901 
L 346.408661 320.611388 
L 511.172441 314.153091 
" clip-path="url(#p25b7759b38)" style="fill: none; stroke-dasharray: 1.5,2.475; stroke-dashoffset: 0; stroke: #6699cc; stroke-width: 1.5"/>
   </g>
   <g id="line2d_43">
    <path d="M 49.833858 329.949862 
L 66.310236 329.414356 
L 82.786614 328.823236 
L 99.262992 328.397186 
L 181.644882 326.295181 
L 346.408661 320.229067 
L 511.172441 313.612911 
" clip-path="url(#p25b7759b38)" style="fill: none; stroke-dasharray: 9.6,2.4,1.5,2.4; stroke-dashoffset: 0; stroke: #6699cc; stroke-width: 1.5"/>
   </g>
   <g id="line2d_44">
    <path d="M 49.833858 330.060469 
L 66.310236 329.684372 
L 82.786614 328.984864 
L 99.262992 328.432451 
L 181.644882 326.266683 
L 346.408661 320.41786 
L 511.172441 306.477352 
" clip-path="url(#p25b7759b38)" style="fill: none; stroke: #6699cc; stroke-width: 1.5; stroke-linecap: square"/>
   </g>
   <g id="line2d_45">
    <path d="M 49.833858 311.537033 
L 66.310236 304.133949 
L 82.786614 299.876283 
L 99.262992 294.552322 
L 181.644882 259.16714 
L 346.408661 222.748877 
L 511.172441 209.52074 
" clip-path="url(#p25b7759b38)" style="fill: none; stroke-dasharray: 5.55,2.4; stroke-dashoffset: 0; stroke: #004488; stroke-width: 1.5"/>
   </g>
   <g id="line2d_46">
    <path d="M 49.833858 293.845232 
L 66.310236 293.817507 
L 82.786614 293.789668 
L 99.262992 293.772103 
L 181.644882 293.804689 
L 346.408661 294.166391 
L 511.172441 294.726764 
" clip-path="url(#p25b7759b38)" style="fill: none; stroke: #004488; stroke-width: 1.5; stroke-linecap: square"/>
   </g>
   <g id="line2d_47">
    <path d="M 49.833858 293.845212 
L 66.310236 293.817409 
L 82.786614 293.789668 
L 99.262992 293.772099 
L 181.644882 293.804689 
L 346.408661 294.166391 
L 511.172441 294.726764 
" clip-path="url(#p25b7759b38)" style="fill: none; stroke-dasharray: 9.6,2.4,1.5,2.4; stroke-dashoffset: 0; stroke: #004488; stroke-width: 1.5"/>
   </g>
   <g id="line2d_48">
    <path d="M 49.833858 293.845194 
L 66.310236 293.817461 
L 82.786614 293.789668 
L 99.262992 293.772102 
L 181.644882 293.804689 
L 346.408661 294.166391 
L 511.172441 294.726764 
" clip-path="url(#p25b7759b38)" style="fill: none; stroke-dasharray: 1.5,2.475; stroke-dashoffset: 0; stroke: #004488; stroke-width: 1.5"/>
   </g>
   <g id="line2d_49">
    <path d="M 49.833858 313.698597 
L 66.310236 307.436583 
L 82.786614 294.705942 
L 99.262992 293.487973 
L 181.644882 268.415969 
L 346.408661 234.218666 
L 511.172441 215.367177 
" clip-path="url(#p25b7759b38)" style="fill: none; stroke-dasharray: 5.55,2.4; stroke-dashoffset: 0; stroke: #ddaa33; stroke-width: 1.5"/>
   </g>
   <g id="line2d_50">
    <path d="M 66.310236 -1 
L 66.310236 293.818371 
L 82.786614 293.789673 
L 99.262992 293.7721 
L 181.644882 293.804689 
L 346.408661 294.166391 
L 511.172441 294.726764 
" clip-path="url(#p25b7759b38)" style="fill: none; stroke: #ddaa33; stroke-width: 1.5; stroke-linecap: square"/>
   </g>
   <g id="line2d_51">
    <path d="M 49.833858 293.845192 
L 66.310236 293.817418 
L 82.786614 293.789673 
L 99.262992 293.772099 
L 181.644882 293.804689 
L 346.408661 294.166391 
L 511.172441 294.726764 
" clip-path="url(#p25b7759b38)" style="fill: none; stroke-dasharray: 9.6,2.4,1.5,2.4; stroke-dashoffset: 0; stroke: #ddaa33; stroke-width: 1.5"/>
   </g>
   <g id="line2d_52">
    <path d="M 49.833858 293.853471 
L 66.310236 293.817401 
L 82.786614 293.789668 
L 99.262992 293.772099 
L 181.644882 293.804689 
L 346.408661 294.166391 
L 511.172441 294.726764 
" clip-path="url(#p25b7759b38)" style="fill: none; stroke-dasharray: 1.5,2.475; stroke-dashoffset: 0; stroke: #ddaa33; stroke-width: 1.5"/>
   </g>
   <g id="line2d_53">
    <path d="M 49.833858 312.291596 
L 66.310236 304.605308 
L 82.786614 298.305965 
L 99.262992 292.35955 
L 181.644882 265.077943 
L 346.408661 227.249596 
L 511.172441 207.284878 
" clip-path="url(#p25b7759b38)" style="fill: none; stroke-dasharray: 5.55,2.4; stroke-dashoffset: 0; stroke: #bb5566; stroke-width: 1.5"/>
   </g>
   <g id="line2d_54">
    <path d="M 49.833858 293.847601 
L 66.310236 293.817576 
L 82.786614 293.789668 
L 99.262992 293.772099 
L 181.644882 293.804689 
L 346.408661 294.166391 
L 511.172441 294.726764 
" clip-path="url(#p25b7759b38)" style="fill: none; stroke: #bb5566; stroke-width: 1.5; stroke-linecap: square"/>
   </g>
   <g id="line2d_55">
    <path d="M 49.833858 293.845192 
L 66.310236 293.8174 
L 82.786614 293.789668 
L 99.262992 293.772104 
L 181.644882 293.804689 
L 346.408661 294.166391 
L 511.172441 294.726764 
" clip-path="url(#p25b7759b38)" style="fill: none; stroke-dasharray: 9.6,2.4,1.5,2.4; stroke-dashoffset: 0; stroke: #bb5566; stroke-width: 1.5"/>
   </g>
   <g id="line2d_56">
    <path d="M 49.833858 293.845234 
L 66.310236 293.817568 
L 82.786614 293.789668 
L 99.262992 293.772099 
L 181.644882 293.804689 
L 346.408661 294.166391 
L 511.172441 294.726764 
" clip-path="url(#p25b7759b38)" style="fill: none; stroke-dasharray: 1.5,2.475; stroke-dashoffset: 0; stroke: #bb5566; stroke-width: 1.5"/>
   </g>
   <g id="line2d_57">
    <path d="M 49.833858 325.258255 
L 66.310236 322.151372 
L 82.786614 319.6312 
L 99.262992 316.521364 
L 181.644882 304.195629 
L 346.408661 282.179681 
L 511.172441 264.023895 
" clip-path="url(#p25b7759b38)" style="fill: none; stroke: #000000; stroke-width: 1.5; stroke-linecap: square"/>
   </g>
   <g id="line2d_58">
    <path d="M 16.881102 354.615587 
" clip-path="url(#p25b7759b38)" style="fill: none; stroke-dasharray: 5.55,2.4; stroke-dashoffset: 0; stroke: #6699cc; stroke-width: 1.5"/>
   </g>
   <g id="line2d_59">
    <path d="M 16.881102 354.615587 
" clip-path="url(#p25b7759b38)" style="fill: none; stroke-dasharray: 1.5,2.475; stroke-dashoffset: 0; stroke: #6699cc; stroke-width: 1.5"/>
   </g>
   <g id="line2d_60">
    <path d="M 16.881102 354.615587 
" clip-path="url(#p25b7759b38)" style="fill: none; stroke-dasharray: 9.6,2.4,1.5,2.4; stroke-dashoffset: 0; stroke: #6699cc; stroke-width: 1.5"/>
   </g>
   <g id="line2d_61">
    <path d="M 16.881102 354.615587 
" clip-path="url(#p25b7759b38)" style="fill: none; stroke: #6699cc; stroke-width: 1.5; stroke-linecap: square"/>
   </g>
   <g id="line2d_62">
    <path d="M 16.881102 354.615587 
" clip-path="url(#p25b7759b38)" style="fill: none; stroke-dasharray: 5.55,2.4; stroke-dashoffset: 0; stroke: #004488; stroke-width: 1.5"/>
   </g>
   <g id="line2d_63">
    <path d="M 16.881102 354.615587 
" clip-path="url(#p25b7759b38)" style="fill: none; stroke: #004488; stroke-width: 1.5; stroke-linecap: square"/>
   </g>
   <g id="line2d_64">
    <path d="M 16.881102 354.615587 
" clip-path="url(#p25b7759b38)" style="fill: none; stroke-dasharray: 9.6,2.4,1.5,2.4; stroke-dashoffset: 0; stroke: #004488; stroke-width: 1.5"/>
   </g>
   <g id="line2d_65">
    <path d="M 16.881102 354.615587 
" clip-path="url(#p25b7759b38)" style="fill: none; stroke-dasharray: 1.5,2.475; stroke-dashoffset: 0; stroke: #004488; stroke-width: 1.5"/>
   </g>
   <g id="line2d_66">
    <path d="M 16.881102 354.615587 
" clip-path="url(#p25b7759b38)" style="fill: none; stroke-dasharray: 5.55,2.4; stroke-dashoffset: 0; stroke: #ddaa33; stroke-width: 1.5"/>
   </g>
   <g id="line2d_67">
    <path d="M 16.881102 354.615587 
" clip-path="url(#p25b7759b38)" style="fill: none; stroke: #ddaa33; stroke-width: 1.5; stroke-linecap: square"/>
   </g>
   <g id="line2d_68">
    <path d="M 16.881102 354.615587 
" clip-path="url(#p25b7759b38)" style="fill: none; stroke-dasharray: 9.6,2.4,1.5,2.4; stroke-dashoffset: 0; stroke: #ddaa33; stroke-width: 1.5"/>
   </g>
   <g id="line2d_69">
    <path d="M 16.881102 354.615587 
" clip-path="url(#p25b7759b38)" style="fill: none; stroke-dasharray: 1.5,2.475; stroke-dashoffset: 0; stroke: #ddaa33; stroke-width: 1.5"/>
   </g>
   <g id="line2d_70">
    <path d="M 16.881102 354.615587 
" clip-path="url(#p25b7759b38)" style="fill: none; stroke-dasharray: 5.55,2.4; stroke-dashoffset: 0; stroke: #bb5566; stroke-width: 1.5"/>
   </g>
   <g id="line2d_71">
    <path d="M 16.881102 354.615587 
" clip-path="url(#p25b7759b38)" style="fill: none; stroke: #bb5566; stroke-width: 1.5; stroke-linecap: square"/>
   </g>
   <g id="line2d_72">
    <path d="M 16.881102 354.615587 
" clip-path="url(#p25b7759b38)" style="fill: none; stroke-dasharray: 9.6,2.4,1.5,2.4; stroke-dashoffset: 0; stroke: #bb5566; stroke-width: 1.5"/>
   </g>
   <g id="line2d_73">
    <path d="M 16.881102 354.615587 
" clip-path="url(#p25b7759b38)" style="fill: none; stroke-dasharray: 1.5,2.475; stroke-dashoffset: 0; stroke: #bb5566; stroke-width: 1.5"/>
   </g>
   <g id="line2d_74">
    <path d="M 16.881102 354.615587 
" clip-path="url(#p25b7759b38)" style="fill: none; stroke: #000000; stroke-width: 1.5; stroke-linecap: square"/>
   </g>
   <g id="patch_8">
    <path d="M 49.833858 342.338028 
L 49.833858 195.007319 
" style="fill: none; stroke: #000000; stroke-width: 0.8; stroke-linejoin: miter; stroke-linecap: square"/>
   </g>
   <g id="patch_9">
    <path d="M 511.172441 342.338028 
L 511.172441 195.007319 
" style="fill: none; stroke: #000000; stroke-width: 0.8; stroke-linejoin: miter; stroke-linecap: square"/>
   </g>
   <g id="patch_10">
    <path d="M 49.833858 342.338028 
L 511.172441 342.338028 
" style="fill: none; stroke: #000000; stroke-width: 0.8; stroke-linejoin: miter; stroke-linecap: square"/>
   </g>
   <g id="patch_11">
    <path d="M 49.833858 195.007319 
L 511.172441 195.007319 
" style="fill: none; stroke: #000000; stroke-width: 0.8; stroke-linejoin: miter; stroke-linecap: square"/>
   </g>
   <g id="legend_1">
    <g id="patch_12">
     <path d="M 8.6 409.556768 
L 529.552031 409.556768 
Q 530.952031 409.556768 530.952031 408.156768 
L 530.952031 379.151612 
Q 530.952031 377.751612 529.552031 377.751612 
L 8.6 377.751612 
Q 7.2 377.751612 7.2 379.151612 
L 7.2 408.156768 
Q 7.2 409.556768 8.6 409.556768 
z
" style="fill: #ffffff; opacity: 0.8; stroke: #cccccc; stroke-linejoin: miter"/>
    </g>
    <g id="line2d_75">
     <path d="M 10 383.11208 
L 17 383.11208 
L 24 383.11208 
" style="fill: none; stroke-dasharray: 5.55,2.4; stroke-dashoffset: 0; stroke: #6699cc; stroke-width: 1.5"/>
    </g>
    <g id="text_28">
     <text style="font: 7px 'Arial'; text-anchor: start" x="29.6" y="385.56208" transform="rotate(-0 29.6 385.56208)">GRU Att 1</text>
    </g>
    <g id="line2d_76">
     <path d="M 10 393.013799 
L 17 393.013799 
L 24 393.013799 
" style="fill: none; stroke-dasharray: 1.5,2.475; stroke-dashoffset: 0; stroke: #6699cc; stroke-width: 1.5"/>
    </g>
    <g id="text_29">
     <text style="font: 7px 'Arial'; text-anchor: start" x="29.6" y="395.463799" transform="rotate(-0 29.6 395.463799)">GRU Att 2</text>
    </g>
    <g id="line2d_77">
     <path d="M 10 402.915518 
L 17 402.915518 
L 24 402.915518 
" style="fill: none; stroke-dasharray: 9.6,2.4,1.5,2.4; stroke-dashoffset: 0; stroke: #6699cc; stroke-width: 1.5"/>
    </g>
    <g id="text_30">
     <text style="font: 7px 'Arial'; text-anchor: start" x="29.6" y="405.365518" transform="rotate(-0 29.6 405.365518)">GRU Att 3</text>
    </g>
    <g id="line2d_78">
     <path d="M 75.110938 383.11208 
L 82.110938 383.11208 
L 89.110938 383.11208 
" style="fill: none; stroke: #6699cc; stroke-width: 1.5; stroke-linecap: square"/>
    </g>
    <g id="text_31">
     <text style="font: 7px 'Arial'; text-anchor: start" x="94.710938" y="385.56208" transform="rotate(-0 94.710938 385.56208)">GRU Att 4</text>
    </g>
    <g id="line2d_79">
     <path d="M 75.110938 393.013799 
L 82.110938 393.013799 
L 89.110938 393.013799 
" style="fill: none; stroke-dasharray: 5.55,2.4; stroke-dashoffset: 0; stroke: #004488; stroke-width: 1.5"/>
    </g>
    <g id="text_32">
     <text style="font: 7px 'Arial'; text-anchor: start" x="94.710938" y="395.463799" transform="rotate(-0 94.710938 395.463799)">GRU Linear</text>
    </g>
    <g id="line2d_80">
     <path d="M 75.110938 402.915518 
L 82.110938 402.915518 
L 89.110938 402.915518 
" style="fill: none; stroke: #004488; stroke-width: 1.5; stroke-linecap: square"/>
    </g>
    <g id="text_33">
     <text style="font: 7px 'Arial'; text-anchor: start" x="94.710938" y="405.365518" transform="rotate(-0 94.710938 405.365518)">GRU Reference</text>
    </g>
    <g id="line2d_81">
     <path d="M 158.505 383.11208 
L 165.505 383.11208 
L 172.505 383.11208 
" style="fill: none; stroke-dasharray: 9.6,2.4,1.5,2.4; stroke-dashoffset: 0; stroke: #004488; stroke-width: 1.5"/>
    </g>
    <g id="text_34">
     <text style="font: 7px 'Arial'; text-anchor: start" x="178.105" y="385.56208" transform="rotate(-0 178.105 385.56208)">GRU Third</text>
    </g>
    <g id="line2d_82">
     <path d="M 158.505 393.013799 
L 165.505 393.013799 
L 172.505 393.013799 
" style="fill: none; stroke-dasharray: 1.5,2.475; stroke-dashoffset: 0; stroke: #004488; stroke-width: 1.5"/>
    </g>
    <g id="text_35">
     <text style="font: 7px 'Arial'; text-anchor: start" x="178.105" y="395.463799" transform="rotate(-0 178.105 395.463799)">GRU Twice</text>
    </g>
    <g id="line2d_83">
     <path d="M 158.505 402.915518 
L 165.505 402.915518 
L 172.505 402.915518 
" style="fill: none; stroke-dasharray: 5.55,2.4; stroke-dashoffset: 0; stroke: #ddaa33; stroke-width: 1.5"/>
    </g>
    <g id="text_36">
     <text style="font: 7px 'Arial'; text-anchor: start" x="178.105" y="405.365518" transform="rotate(-0 178.105 405.365518)">LSTM Linear</text>
    </g>
    <g id="line2d_84">
     <path d="M 232.174531 383.11208 
L 239.174531 383.11208 
L 246.174531 383.11208 
" style="fill: none; stroke: #ddaa33; stroke-width: 1.5; stroke-linecap: square"/>
    </g>
    <g id="text_37">
     <text style="font: 7px 'Arial'; text-anchor: start" x="251.774531" y="385.56208" transform="rotate(-0 251.774531 385.56208)">LSTM Reference</text>
    </g>
    <g id="line2d_85">
     <path d="M 232.174531 393.013799 
L 239.174531 393.013799 
L 246.174531 393.013799 
" style="fill: none; stroke-dasharray: 9.6,2.4,1.5,2.4; stroke-dashoffset: 0; stroke: #ddaa33; stroke-width: 1.5"/>
    </g>
    <g id="text_38">
     <text style="font: 7px 'Arial'; text-anchor: start" x="251.774531" y="395.463799" transform="rotate(-0 251.774531 395.463799)">LSTM Third</text>
    </g>
    <g id="line2d_86">
     <path d="M 318.681406 383.11208 
L 325.681406 383.11208 
L 332.681406 383.11208 
" style="fill: none; stroke-dasharray: 1.5,2.475; stroke-dashoffset: 0; stroke: #ddaa33; stroke-width: 1.5"/>
    </g>
    <g id="text_39">
     <text style="font: 7px 'Arial'; text-anchor: start" x="338.281406" y="385.56208" transform="rotate(-0 338.281406 385.56208)">LSTM Twice</text>
    </g>
    <g id="line2d_87">
     <path d="M 318.681406 393.013799 
L 325.681406 393.013799 
L 332.681406 393.013799 
" style="fill: none; stroke-dasharray: 5.55,2.4; stroke-dashoffset: 0; stroke: #bb5566; stroke-width: 1.5"/>
    </g>
    <g id="text_40">
     <text style="font: 7px 'Arial'; text-anchor: start" x="338.281406" y="395.463799" transform="rotate(-0 338.281406 395.463799)">RNN Linear</text>
    </g>
    <g id="line2d_88">
     <path d="M 390.665469 383.11208 
L 397.665469 383.11208 
L 404.665469 383.11208 
" style="fill: none; stroke: #bb5566; stroke-width: 1.5; stroke-linecap: square"/>
    </g>
    <g id="text_41">
     <text style="font: 7px 'Arial'; text-anchor: start" x="410.265469" y="385.56208" transform="rotate(-0 410.265469 385.56208)">RNN Reference</text>
    </g>
    <g id="line2d_89">
     <path d="M 390.665469 393.013799 
L 397.665469 393.013799 
L 404.665469 393.013799 
" style="fill: none; stroke-dasharray: 9.6,2.4,1.5,2.4; stroke-dashoffset: 0; stroke: #bb5566; stroke-width: 1.5"/>
    </g>
    <g id="text_42">
     <text style="font: 7px 'Arial'; text-anchor: start" x="410.265469" y="395.463799" transform="rotate(-0 410.265469 395.463799)">RNN Third</text>
    </g>
    <g id="line2d_90">
     <path d="M 473.670156 383.11208 
L 480.670156 383.11208 
L 487.670156 383.11208 
" style="fill: none; stroke-dasharray: 1.5,2.475; stroke-dashoffset: 0; stroke: #bb5566; stroke-width: 1.5"/>
    </g>
    <g id="text_43">
     <text style="font: 7px 'Arial'; text-anchor: start" x="493.270156" y="385.56208" transform="rotate(-0 493.270156 385.56208)">RNN Twice</text>
    </g>
    <g id="line2d_91">
     <path d="M 473.670156 393.013799 
L 480.670156 393.013799 
L 487.670156 393.013799 
" style="fill: none; stroke: #000000; stroke-width: 1.5; stroke-linecap: square"/>
    </g>
    <g id="text_44">
     <text style="font: 7px 'Arial'; text-anchor: start" x="493.270156" y="395.463799" transform="rotate(-0 493.270156 395.463799)">UniTS</text>
    </g>
   </g>
  </g>
 </g>
 <defs>
  <clipPath id="p041ad4d010">
   <rect x="49.833858" y="18.210469" width="461.338583" height="147.330709"/>
  </clipPath>
  <clipPath id="p25b7759b38">
   <rect x="49.833858" y="195.007319" width="461.338583" height="147.330709"/>
  </clipPath>
 </defs>
</svg>
