<?xml version="1.0" encoding="utf-8" standalone="no"?>
<!DOCTYPE svg PUBLIC "-//W3C//DTD SVG 1.1//EN"
  "http://www.w3.org/Graphics/SVG/1.1/DTD/svg11.dtd">
<svg xmlns:xlink="http://www.w3.org/1999/xlink" width="560.366142pt" height="488.554414pt" viewBox="0 0 560.366142 488.554414" xmlns="http://www.w3.org/2000/svg" version="1.1">
 <metadata>
  <rdf:RDF xmlns:dc="http://purl.org/dc/elements/1.1/" xmlns:cc="http://creativecommons.org/ns#" xmlns:rdf="http://www.w3.org/1999/02/22-rdf-syntax-ns#">
   <cc:Work>
    <dc:type rdf:resource="http://purl.org/dc/dcmitype/StillImage"/>
    <dc:date>2024-10-10T18:55:49.964386</dc:date>
    <dc:format>image/svg+xml</dc:format>
    <dc:creator>
     <cc:Agent>
      <dc:title>Matplotlib v3.7.0, https://matplotlib.org/</dc:title>
     </cc:Agent>
    </dc:creator>
   </cc:Work>
  </rdf:RDF>
 </metadata>
 <defs>
  <style type="text/css">*{stroke-linejoin: round; stroke-linecap: butt}</style>
 </defs>
 <g id="figure_1">
  <g id="patch_1">
   <path d="M 0 488.554414 
L 560.366142 488.554414 
L 560.366142 0 
L 0 0 
z
" style="fill: #ffffff"/>
  </g>
  <g id="axes_1">
   <g id="patch_2">
    <path d="M 53.193125 169.120084 
L 514.531708 169.120084 
L 514.531708 21.789375 
L 53.193125 21.789375 
z
" style="fill: #ffffff"/>
   </g>
   <g id="matplotlib.axis_1"/>
   <g id="matplotlib.axis_2">
    <g id="ytick_1">
     <g id="line2d_1">
      <defs>
       <path id="me44e2b3059" d="M 0 0 
L -3.5 0 
" style="stroke: #000000; stroke-width: 0.8"/>
      </defs>
      <g>
       <use xlink:href="#me44e2b3059" x="53.193125" y="158.203371" style="stroke: #000000; stroke-width: 0.8"/>
      </g>
     </g>
     <g id="text_1">
      <text style="font: 12px 'Arial'; text-anchor: end" x="46.193125" y="162.498058" transform="rotate(-0 46.193125 162.498058)">0.00</text>
     </g>
    </g>
    <g id="ytick_2">
     <g id="line2d_2">
      <g>
       <use xlink:href="#me44e2b3059" x="53.193125" y="123.264929" style="stroke: #000000; stroke-width: 0.8"/>
      </g>
     </g>
     <g id="text_2">
      <text style="font: 12px 'Arial'; text-anchor: end" x="46.193125" y="127.559616" transform="rotate(-0 46.193125 127.559616)">0.05</text>
     </g>
    </g>
    <g id="ytick_3">
     <g id="line2d_3">
      <g>
       <use xlink:href="#me44e2b3059" x="53.193125" y="88.326487" style="stroke: #000000; stroke-width: 0.8"/>
      </g>
     </g>
     <g id="text_3">
      <text style="font: 12px 'Arial'; text-anchor: end" x="46.193125" y="92.621174" transform="rotate(-0 46.193125 92.621174)">0.10</text>
     </g>
    </g>
    <g id="ytick_4">
     <g id="line2d_4">
      <g>
       <use xlink:href="#me44e2b3059" x="53.193125" y="53.388045" style="stroke: #000000; stroke-width: 0.8"/>
      </g>
     </g>
     <g id="text_4">
      <text style="font: 12px 'Arial'; text-anchor: end" x="46.193125" y="57.682733" transform="rotate(-0 46.193125 57.682733)">0.15</text>
     </g>
    </g>
    <g id="text_5">
     <!-- $x$ and $y$ offset ($\degree$) -->
     <g transform="translate(16.2 140.934729) rotate(-90)">
      <text>
       <tspan style="font: oblique 12px 'DejaVu Sans'" x="0 33.791016" y="-0.09375">xy</tspan>
       <tspan style="font: 12px 'Arial'" x="7.101562 10.435547 17.109375 23.783203 30.457031 40.892578 44.226562 50.900391 54.234375 57.568359 63.568359 70.242188 73.576172 76.910156 86.90625" y="-0.09375"> and  offset ()</tspan>
       <tspan style="font: 12px 'DejaVu Sans'" x="80.90625" y="-0.09375">°</tspan>
      </text>
     </g>
    </g>
   </g>
   <g id="line2d_5">
    <path d="M 53.193125 156.764339 
L 69.669503 156.428832 
L 86.145881 155.934745 
L 102.622259 155.172678 
L 185.004149 141.466855 
L 349.767928 132.754961 
L 514.531708 129.370258 
" clip-path="url(#p8ee7936106)" style="fill: none; stroke-dasharray: 5.55,2.4; stroke-dashoffset: 0; stroke: #6699cc; stroke-width: 1.5"/>
   </g>
   <g id="line2d_6">
    <path d="M 53.193125 156.575733 
L 69.669503 156.088479 
L 86.145881 155.686631 
L 102.622259 154.73447 
L 185.004149 150.940931 
L 349.767928 142.438864 
L 514.531708 130.408582 
" clip-path="url(#p8ee7936106)" style="fill: none; stroke-dasharray: 1.5,2.475; stroke-dashoffset: 0; stroke: #6699cc; stroke-width: 1.5"/>
   </g>
   <g id="line2d_7">
    <path d="M 53.193125 156.699177 
L 69.669503 156.081428 
L 86.145881 155.593011 
L 102.622259 154.999761 
L 185.004149 148.65911 
L 349.767928 136.01697 
L 514.531708 127.242861 
" clip-path="url(#p8ee7936106)" style="fill: none; stroke-dasharray: 9.6,2.4,1.5,2.4; stroke-dashoffset: 0; stroke: #6699cc; stroke-width: 1.5"/>
   </g>
   <g id="line2d_8">
    <path d="M 53.193125 156.842525 
L 69.669503 156.407848 
L 86.145881 155.953754 
L 102.622259 155.363892 
L 185.004149 148.325049 
L 349.767928 134.829424 
L 514.531708 128.988499 
" clip-path="url(#p8ee7936106)" style="fill: none; stroke: #6699cc; stroke-width: 1.5; stroke-linecap: square"/>
   </g>
   <g id="line2d_9">
    <path d="M 53.193125 138.202972 
L 69.669503 136.675929 
L 86.145881 137.077209 
L 102.622259 134.465574 
L 185.004149 127.46547 
L 349.767928 122.206688 
L 514.531708 121.517165 
" clip-path="url(#p8ee7936106)" style="fill: none; stroke-dasharray: 5.55,2.4; stroke-dashoffset: 0; stroke: #004488; stroke-width: 1.5"/>
   </g>
   <g id="line2d_10">
    <path d="M 53.193125 138.489539 
L 69.669503 132.756382 
L 86.145881 134.131204 
L 102.622259 132.89675 
L 185.004149 129.79546 
L 349.767928 124.608274 
L 514.531708 123.557509 
" clip-path="url(#p8ee7936106)" style="fill: none; stroke: #004488; stroke-width: 1.5; stroke-linecap: square"/>
   </g>
   <g id="line2d_11">
    <path d="M 53.193125 138.28066 
L 69.669503 132.682976 
L 86.145881 134.297555 
L 102.622259 132.515149 
L 185.004149 130.229391 
L 349.767928 124.539696 
L 514.531708 123.521667 
" clip-path="url(#p8ee7936106)" style="fill: none; stroke-dasharray: 9.6,2.4,1.5,2.4; stroke-dashoffset: 0; stroke: #004488; stroke-width: 1.5"/>
   </g>
   <g id="line2d_12">
    <path d="M 53.193125 140.63963 
L 69.669503 133.669196 
L 86.145881 133.350797 
L 102.622259 132.442061 
L 185.004149 133.896279 
L 349.767928 125.371431 
L 514.531708 122.718629 
" clip-path="url(#p8ee7936106)" style="fill: none; stroke-dasharray: 1.5,2.475; stroke-dashoffset: 0; stroke: #004488; stroke-width: 1.5"/>
   </g>
   <g id="line2d_13">
    <path d="M 53.193125 131.945572 
L 69.669503 133.662894 
L 86.145881 135.823615 
L 102.622259 126.884118 
L 185.004149 127.437173 
L 349.767928 130.581662 
L 514.531708 124.675619 
" clip-path="url(#p8ee7936106)" style="fill: none; stroke-dasharray: 5.55,2.4; stroke-dashoffset: 0; stroke: #ddaa33; stroke-width: 1.5"/>
   </g>
   <g id="line2d_14">
    <path d="M 69.669503 -1 
L 69.669503 130.578063 
L 86.145881 131.782656 
L 102.622259 135.167417 
L 185.004149 130.713793 
L 349.767928 127.364394 
L 514.531708 124.182644 
" clip-path="url(#p8ee7936106)" style="fill: none; stroke: #ddaa33; stroke-width: 1.5; stroke-linecap: square"/>
   </g>
   <g id="line2d_15">
    <path d="M 53.193125 136.251801 
L 69.669503 129.284591 
L 86.145881 131.490329 
L 102.622259 126.695509 
L 185.004149 129.36974 
L 349.767928 122.613856 
L 514.531708 121.808967 
" clip-path="url(#p8ee7936106)" style="fill: none; stroke-dasharray: 9.6,2.4,1.5,2.4; stroke-dashoffset: 0; stroke: #ddaa33; stroke-width: 1.5"/>
   </g>
   <g id="line2d_16">
    <path d="M 53.193125 124.818061 
L 69.669503 127.76259 
L 86.145881 128.740868 
L 102.622259 121.243396 
L 185.004149 126.388522 
L 349.767928 117.458975 
L 514.531708 119.573394 
" clip-path="url(#p8ee7936106)" style="fill: none; stroke-dasharray: 1.5,2.475; stroke-dashoffset: 0; stroke: #ddaa33; stroke-width: 1.5"/>
   </g>
   <g id="line2d_17">
    <path d="M 53.193125 78.954375 
L 69.669503 113.660784 
L 86.145881 105.958702 
L 102.622259 120.010166 
L 185.004149 128.627021 
L 349.767928 127.954294 
L 514.531708 123.235384 
" clip-path="url(#p8ee7936106)" style="fill: none; stroke-dasharray: 5.55,2.4; stroke-dashoffset: 0; stroke: #bb5566; stroke-width: 1.5"/>
   </g>
   <g id="line2d_18">
    <path d="M 53.193125 86.484955 
L 69.669503 88.693477 
L 86.145881 125.584316 
L 102.622259 124.124376 
L 185.004149 129.089419 
L 349.767928 126.192089 
L 514.531708 122.296316 
" clip-path="url(#p8ee7936106)" style="fill: none; stroke: #bb5566; stroke-width: 1.5; stroke-linecap: square"/>
   </g>
   <g id="line2d_19">
    <path d="M 53.193125 116.34721 
L 69.669503 126.960347 
L 86.145881 127.2439 
L 102.622259 125.949812 
L 185.004149 128.545872 
L 349.767928 117.367304 
L 514.531708 119.952152 
" clip-path="url(#p8ee7936106)" style="fill: none; stroke-dasharray: 9.6,2.4,1.5,2.4; stroke-dashoffset: 0; stroke: #bb5566; stroke-width: 1.5"/>
   </g>
   <g id="line2d_20">
    <path d="M 53.193125 34.066934 
L 69.669503 60.089696 
L 86.145881 43.060759 
L 102.622259 74.048551 
L 185.004149 108.534705 
L 349.767928 114.749879 
L 514.531708 118.544653 
" clip-path="url(#p8ee7936106)" style="fill: none; stroke-dasharray: 1.5,2.475; stroke-dashoffset: 0; stroke: #bb5566; stroke-width: 1.5"/>
   </g>
   <g id="line2d_21">
    <path d="M 53.193125 156.212695 
L 69.669503 156.007043 
L 86.145881 155.995415 
L 102.622259 155.604319 
L 185.004149 154.018256 
L 349.767928 152.12708 
L 514.531708 150.172082 
" clip-path="url(#p8ee7936106)" style="fill: none; stroke: #000000; stroke-width: 1.5; stroke-linecap: square"/>
   </g>
   <g id="patch_3">
    <path d="M 53.193125 169.120084 
L 53.193125 21.789375 
" style="fill: none; stroke: #000000; stroke-width: 0.8; stroke-linejoin: miter; stroke-linecap: square"/>
   </g>
   <g id="patch_4">
    <path d="M 514.531708 169.120084 
L 514.531708 21.789375 
" style="fill: none; stroke: #000000; stroke-width: 0.8; stroke-linejoin: miter; stroke-linecap: square"/>
   </g>
   <g id="patch_5">
    <path d="M 53.193125 169.120084 
L 514.531708 169.120084 
" style="fill: none; stroke: #000000; stroke-width: 0.8; stroke-linejoin: miter; stroke-linecap: square"/>
   </g>
   <g id="patch_6">
    <path d="M 53.193125 21.789375 
L 514.531708 21.789375 
" style="fill: none; stroke: #000000; stroke-width: 0.8; stroke-linejoin: miter; stroke-linecap: square"/>
   </g>
   <g id="text_6">
    <text style="font: 12px 'Arial'; text-anchor: middle" x="283.862416" y="15.789375" transform="rotate(-0 283.862416 15.789375)">MAE</text>
   </g>
  </g>
  <g id="axes_2">
   <g id="patch_7">
    <path d="M 53.193125 345.916934 
L 514.531708 345.916934 
L 514.531708 198.586225 
L 53.193125 198.586225 
z
" style="fill: #ffffff"/>
   </g>
   <g id="matplotlib.axis_3">
    <g id="xtick_1">
     <g id="line2d_22">
      <defs>
       <path id="m15a1a17724" d="M 0 0 
L 0 3.5 
" style="stroke: #000000; stroke-width: 0.8"/>
      </defs>
      <g>
       <use xlink:href="#m15a1a17724" x="53.193125" y="345.916934" style="stroke: #000000; stroke-width: 0.8"/>
      </g>
     </g>
     <g id="text_7">
      <text style="font: 12px 'Arial'; text-anchor: middle" x="53.193125" y="361.506309" transform="rotate(-0 53.193125 361.506309)">2</text>
     </g>
    </g>
    <g id="xtick_2">
     <g id="line2d_23">
      <g>
       <use xlink:href="#m15a1a17724" x="69.669503" y="345.916934" style="stroke: #000000; stroke-width: 0.8"/>
      </g>
     </g>
     <g id="text_8">
      <text style="font: 12px 'Arial'; text-anchor: middle" x="69.669503" y="361.506309" transform="rotate(-0 69.669503 361.506309)">3</text>
     </g>
    </g>
    <g id="xtick_3">
     <g id="line2d_24">
      <g>
       <use xlink:href="#m15a1a17724" x="86.145881" y="345.916934" style="stroke: #000000; stroke-width: 0.8"/>
      </g>
     </g>
     <g id="text_9">
      <text style="font: 12px 'Arial'; text-anchor: middle" x="86.145881" y="361.506309" transform="rotate(-0 86.145881 361.506309)">4</text>
     </g>
    </g>
    <g id="xtick_4">
     <g id="line2d_25">
      <g>
       <use xlink:href="#m15a1a17724" x="102.622259" y="345.916934" style="stroke: #000000; stroke-width: 0.8"/>
      </g>
     </g>
     <g id="text_10">
      <text style="font: 12px 'Arial'; text-anchor: middle" x="102.622259" y="361.506309" transform="rotate(-0 102.622259 361.506309)">5</text>
     </g>
    </g>
    <g id="xtick_5">
     <g id="line2d_26">
      <g>
       <use xlink:href="#m15a1a17724" x="185.004149" y="345.916934" style="stroke: #000000; stroke-width: 0.8"/>
      </g>
     </g>
     <g id="text_11">
      <text style="font: 12px 'Arial'; text-anchor: middle" x="185.004149" y="361.506309" transform="rotate(-0 185.004149 361.506309)">10</text>
     </g>
    </g>
    <g id="xtick_6">
     <g id="line2d_27">
      <g>
       <use xlink:href="#m15a1a17724" x="349.767928" y="345.916934" style="stroke: #000000; stroke-width: 0.8"/>
      </g>
     </g>
     <g id="text_12">
      <text style="font: 12px 'Arial'; text-anchor: middle" x="349.767928" y="361.506309" transform="rotate(-0 349.767928 361.506309)">20</text>
     </g>
    </g>
    <g id="xtick_7">
     <g id="line2d_28">
      <g>
       <use xlink:href="#m15a1a17724" x="514.531708" y="345.916934" style="stroke: #000000; stroke-width: 0.8"/>
      </g>
     </g>
     <g id="text_13">
      <text style="font: 12px 'Arial'; text-anchor: middle" x="514.531708" y="361.506309" transform="rotate(-0 514.531708 361.506309)">30</text>
     </g>
    </g>
    <g id="text_14">
     <text style="font: 12px 'Arial'; text-anchor: middle" x="283.862416" y="376.480684" transform="rotate(-0 283.862416 376.480684)">Forecasting time</text>
    </g>
   </g>
   <g id="matplotlib.axis_4">
    <g id="ytick_5">
     <g id="line2d_29">
      <g>
       <use xlink:href="#me44e2b3059" x="53.193125" y="340.362474" style="stroke: #000000; stroke-width: 0.8"/>
      </g>
     </g>
     <g id="text_15">
      <text style="font: 12px 'Arial'; text-anchor: end" x="46.193125" y="344.657162" transform="rotate(-0 46.193125 344.657162)">0.00</text>
     </g>
    </g>
    <g id="ytick_6">
     <g id="line2d_30">
      <g>
       <use xlink:href="#me44e2b3059" x="53.193125" y="294.160516" style="stroke: #000000; stroke-width: 0.8"/>
      </g>
     </g>
     <g id="text_16">
      <text style="font: 12px 'Arial'; text-anchor: end" x="46.193125" y="298.455204" transform="rotate(-0 46.193125 298.455204)">0.05</text>
     </g>
    </g>
    <g id="ytick_7">
     <g id="line2d_31">
      <g>
       <use xlink:href="#me44e2b3059" x="53.193125" y="247.958559" style="stroke: #000000; stroke-width: 0.8"/>
      </g>
     </g>
     <g id="text_17">
      <text style="font: 12px 'Arial'; text-anchor: end" x="46.193125" y="252.253246" transform="rotate(-0 46.193125 252.253246)">0.10</text>
     </g>
    </g>
    <g id="ytick_8">
     <g id="line2d_32">
      <g>
       <use xlink:href="#me44e2b3059" x="53.193125" y="201.756601" style="stroke: #000000; stroke-width: 0.8"/>
      </g>
     </g>
     <g id="text_18">
      <text style="font: 12px 'Arial'; text-anchor: end" x="46.193125" y="206.051288" transform="rotate(-0 46.193125 206.051288)">0.15</text>
     </g>
    </g>
    <g id="text_19">
     <!-- Speed, heading, and time ($\degree$) -->
     <g transform="translate(16.2 349.35158) rotate(-90)">
      <text>
       <tspan style="font: 12px 'Arial'" x="0 8.003906 14.677734 21.351562 28.025391 34.699219 38.033203 41.367188 48.041016 54.714844 61.388672 68.0625 70.728516 77.402344 84.076172 87.410156 90.744141 97.417969 104.091797 110.765625 114.099609 117.433594 120.099609 130.095703 136.769531 140.103516 150.099609" y="-0.09375">Speed, heading, and time ()</tspan>
       <tspan style="font: 12px 'DejaVu Sans'" x="144.099609" y="-0.09375">°</tspan>
      </text>
     </g>
    </g>
   </g>
   <g id="line2d_33">
    <path d="M 53.193125 333.609449 
L 69.669503 333.175042 
L 86.145881 332.583517 
L 102.622259 332.368694 
L 185.004149 330.894798 
L 349.767928 324.578452 
L 514.531708 295.673966 
" clip-path="url(#p3c8bf0469e)" style="fill: none; stroke-dasharray: 5.55,2.4; stroke-dashoffset: 0; stroke: #6699cc; stroke-width: 1.5"/>
   </g>
   <g id="line2d_34">
    <path d="M 53.193125 333.601263 
L 69.669503 333.028268 
L 86.145881 332.555809 
L 102.622259 332.2235 
L 185.004149 330.380807 
L 349.767928 324.190294 
L 514.531708 317.731997 
" clip-path="url(#p3c8bf0469e)" style="fill: none; stroke-dasharray: 1.5,2.475; stroke-dashoffset: 0; stroke: #6699cc; stroke-width: 1.5"/>
   </g>
   <g id="line2d_35">
    <path d="M 53.193125 333.528768 
L 69.669503 332.993263 
L 86.145881 332.402142 
L 102.622259 331.976092 
L 185.004149 329.874087 
L 349.767928 323.807973 
L 514.531708 317.191817 
" clip-path="url(#p3c8bf0469e)" style="fill: none; stroke-dasharray: 9.6,2.4,1.5,2.4; stroke-dashoffset: 0; stroke: #6699cc; stroke-width: 1.5"/>
   </g>
   <g id="line2d_36">
    <path d="M 53.193125 333.639375 
L 69.669503 333.263279 
L 86.145881 332.56377 
L 102.622259 332.011357 
L 185.004149 329.845589 
L 349.767928 323.996766 
L 514.531708 310.056258 
" clip-path="url(#p3c8bf0469e)" style="fill: none; stroke: #6699cc; stroke-width: 1.5; stroke-linecap: square"/>
   </g>
   <g id="line2d_37">
    <path d="M 53.193125 315.11594 
L 69.669503 307.712855 
L 86.145881 303.455189 
L 102.622259 298.131228 
L 185.004149 262.746046 
L 349.767928 226.327783 
L 514.531708 213.099646 
" clip-path="url(#p3c8bf0469e)" style="fill: none; stroke-dasharray: 5.55,2.4; stroke-dashoffset: 0; stroke: #004488; stroke-width: 1.5"/>
   </g>
   <g id="line2d_38">
    <path d="M 53.193125 297.424138 
L 69.669503 297.396413 
L 86.145881 297.368574 
L 102.622259 297.351009 
L 185.004149 297.383595 
L 349.767928 297.745297 
L 514.531708 298.30567 
" clip-path="url(#p3c8bf0469e)" style="fill: none; stroke: #004488; stroke-width: 1.5; stroke-linecap: square"/>
   </g>
   <g id="line2d_39">
    <path d="M 53.193125 297.424118 
L 69.669503 297.396315 
L 86.145881 297.368574 
L 102.622259 297.351005 
L 185.004149 297.383595 
L 349.767928 297.745297 
L 514.531708 298.30567 
" clip-path="url(#p3c8bf0469e)" style="fill: none; stroke-dasharray: 9.6,2.4,1.5,2.4; stroke-dashoffset: 0; stroke: #004488; stroke-width: 1.5"/>
   </g>
   <g id="line2d_40">
    <path d="M 53.193125 297.4241 
L 69.669503 297.396367 
L 86.145881 297.368574 
L 102.622259 297.351008 
L 185.004149 297.383595 
L 349.767928 297.745297 
L 514.531708 298.30567 
" clip-path="url(#p3c8bf0469e)" style="fill: none; stroke-dasharray: 1.5,2.475; stroke-dashoffset: 0; stroke: #004488; stroke-width: 1.5"/>
   </g>
   <g id="line2d_41">
    <path d="M 53.193125 317.277504 
L 69.669503 311.015489 
L 86.145881 298.284848 
L 102.622259 297.066879 
L 185.004149 271.994875 
L 349.767928 237.797573 
L 514.531708 218.946083 
" clip-path="url(#p3c8bf0469e)" style="fill: none; stroke-dasharray: 5.55,2.4; stroke-dashoffset: 0; stroke: #ddaa33; stroke-width: 1.5"/>
   </g>
   <g id="line2d_42">
    <path d="M 69.669503 -1 
L 69.669503 297.397277 
L 86.145881 297.368579 
L 102.622259 297.351006 
L 185.004149 297.383595 
L 349.767928 297.745297 
L 514.531708 298.30567 
" clip-path="url(#p3c8bf0469e)" style="fill: none; stroke: #ddaa33; stroke-width: 1.5; stroke-linecap: square"/>
   </g>
   <g id="line2d_43">
    <path d="M 53.193125 297.424099 
L 69.669503 297.396325 
L 86.145881 297.36858 
L 102.622259 297.351005 
L 185.004149 297.383595 
L 349.767928 297.745297 
L 514.531708 298.30567 
" clip-path="url(#p3c8bf0469e)" style="fill: none; stroke-dasharray: 9.6,2.4,1.5,2.4; stroke-dashoffset: 0; stroke: #ddaa33; stroke-width: 1.5"/>
   </g>
   <g id="line2d_44">
    <path d="M 53.193125 297.432377 
L 69.669503 297.396307 
L 86.145881 297.368574 
L 102.622259 297.351005 
L 185.004149 297.383595 
L 349.767928 297.745297 
L 514.531708 298.30567 
" clip-path="url(#p3c8bf0469e)" style="fill: none; stroke-dasharray: 1.5,2.475; stroke-dashoffset: 0; stroke: #ddaa33; stroke-width: 1.5"/>
   </g>
   <g id="line2d_45">
    <path d="M 53.193125 315.870503 
L 69.669503 308.184214 
L 86.145881 301.884871 
L 102.622259 295.938456 
L 185.004149 268.656849 
L 349.767928 230.828502 
L 514.531708 210.863784 
" clip-path="url(#p3c8bf0469e)" style="fill: none; stroke-dasharray: 5.55,2.4; stroke-dashoffset: 0; stroke: #bb5566; stroke-width: 1.5"/>
   </g>
   <g id="line2d_46">
    <path d="M 53.193125 297.426507 
L 69.669503 297.396482 
L 86.145881 297.368574 
L 102.622259 297.351005 
L 185.004149 297.383595 
L 349.767928 297.745297 
L 514.531708 298.30567 
" clip-path="url(#p3c8bf0469e)" style="fill: none; stroke: #bb5566; stroke-width: 1.5; stroke-linecap: square"/>
   </g>
   <g id="line2d_47">
    <path d="M 53.193125 297.424099 
L 69.669503 297.396306 
L 86.145881 297.368574 
L 102.622259 297.35101 
L 185.004149 297.383595 
L 349.767928 297.745297 
L 514.531708 298.30567 
" clip-path="url(#p3c8bf0469e)" style="fill: none; stroke-dasharray: 9.6,2.4,1.5,2.4; stroke-dashoffset: 0; stroke: #bb5566; stroke-width: 1.5"/>
   </g>
   <g id="line2d_48">
    <path d="M 53.193125 297.42414 
L 69.669503 297.396475 
L 86.145881 297.368574 
L 102.622259 297.351005 
L 185.004149 297.383595 
L 349.767928 297.745297 
L 514.531708 298.30567 
" clip-path="url(#p3c8bf0469e)" style="fill: none; stroke-dasharray: 1.5,2.475; stroke-dashoffset: 0; stroke: #bb5566; stroke-width: 1.5"/>
   </g>
   <g id="line2d_49">
    <path d="M 53.193125 328.837161 
L 69.669503 325.730279 
L 86.145881 323.210106 
L 102.622259 320.10027 
L 185.004149 307.774536 
L 349.767928 285.758587 
L 514.531708 267.602801 
" clip-path="url(#p3c8bf0469e)" style="fill: none; stroke: #000000; stroke-width: 1.5; stroke-linecap: square"/>
   </g>
   <g id="line2d_50">
    <path d="M 20.240369 358.194493 
" clip-path="url(#p3c8bf0469e)" style="fill: none; stroke-dasharray: 5.55,2.4; stroke-dashoffset: 0; stroke: #6699cc; stroke-width: 1.5"/>
   </g>
   <g id="line2d_51">
    <path d="M 20.240369 358.194493 
" clip-path="url(#p3c8bf0469e)" style="fill: none; stroke-dasharray: 1.5,2.475; stroke-dashoffset: 0; stroke: #6699cc; stroke-width: 1.5"/>
   </g>
   <g id="line2d_52">
    <path d="M 20.240369 358.194493 
" clip-path="url(#p3c8bf0469e)" style="fill: none; stroke-dasharray: 9.6,2.4,1.5,2.4; stroke-dashoffset: 0; stroke: #6699cc; stroke-width: 1.5"/>
   </g>
   <g id="line2d_53">
    <path d="M 20.240369 358.194493 
" clip-path="url(#p3c8bf0469e)" style="fill: none; stroke: #6699cc; stroke-width: 1.5; stroke-linecap: square"/>
   </g>
   <g id="line2d_54">
    <path d="M 20.240369 358.194493 
" clip-path="url(#p3c8bf0469e)" style="fill: none; stroke-dasharray: 5.55,2.4; stroke-dashoffset: 0; stroke: #004488; stroke-width: 1.5"/>
   </g>
   <g id="line2d_55">
    <path d="M 20.240369 358.194493 
" clip-path="url(#p3c8bf0469e)" style="fill: none; stroke: #004488; stroke-width: 1.5; stroke-linecap: square"/>
   </g>
   <g id="line2d_56">
    <path d="M 20.240369 358.194493 
" clip-path="url(#p3c8bf0469e)" style="fill: none; stroke-dasharray: 9.6,2.4,1.5,2.4; stroke-dashoffset: 0; stroke: #004488; stroke-width: 1.5"/>
   </g>
   <g id="line2d_57">
    <path d="M 20.240369 358.194493 
" clip-path="url(#p3c8bf0469e)" style="fill: none; stroke-dasharray: 1.5,2.475; stroke-dashoffset: 0; stroke: #004488; stroke-width: 1.5"/>
   </g>
   <g id="line2d_58">
    <path d="M 20.240369 358.194493 
" clip-path="url(#p3c8bf0469e)" style="fill: none; stroke-dasharray: 5.55,2.4; stroke-dashoffset: 0; stroke: #ddaa33; stroke-width: 1.5"/>
   </g>
   <g id="line2d_59">
    <path d="M 20.240369 358.194493 
" clip-path="url(#p3c8bf0469e)" style="fill: none; stroke: #ddaa33; stroke-width: 1.5; stroke-linecap: square"/>
   </g>
   <g id="line2d_60">
    <path d="M 20.240369 358.194493 
" clip-path="url(#p3c8bf0469e)" style="fill: none; stroke-dasharray: 9.6,2.4,1.5,2.4; stroke-dashoffset: 0; stroke: #ddaa33; stroke-width: 1.5"/>
   </g>
   <g id="line2d_61">
    <path d="M 20.240369 358.194493 
" clip-path="url(#p3c8bf0469e)" style="fill: none; stroke-dasharray: 1.5,2.475; stroke-dashoffset: 0; stroke: #ddaa33; stroke-width: 1.5"/>
   </g>
   <g id="line2d_62">
    <path d="M 20.240369 358.194493 
" clip-path="url(#p3c8bf0469e)" style="fill: none; stroke-dasharray: 5.55,2.4; stroke-dashoffset: 0; stroke: #bb5566; stroke-width: 1.5"/>
   </g>
   <g id="line2d_63">
    <path d="M 20.240369 358.194493 
" clip-path="url(#p3c8bf0469e)" style="fill: none; stroke: #bb5566; stroke-width: 1.5; stroke-linecap: square"/>
   </g>
   <g id="line2d_64">
    <path d="M 20.240369 358.194493 
" clip-path="url(#p3c8bf0469e)" style="fill: none; stroke-dasharray: 9.6,2.4,1.5,2.4; stroke-dashoffset: 0; stroke: #bb5566; stroke-width: 1.5"/>
   </g>
   <g id="line2d_65">
    <path d="M 20.240369 358.194493 
" clip-path="url(#p3c8bf0469e)" style="fill: none; stroke-dasharray: 1.5,2.475; stroke-dashoffset: 0; stroke: #bb5566; stroke-width: 1.5"/>
   </g>
   <g id="line2d_66">
    <path d="M 20.240369 358.194493 
" clip-path="url(#p3c8bf0469e)" style="fill: none; stroke: #000000; stroke-width: 1.5; stroke-linecap: square"/>
   </g>
   <g id="patch_8">
    <path d="M 53.193125 345.916934 
L 53.193125 198.586225 
" style="fill: none; stroke: #000000; stroke-width: 0.8; stroke-linejoin: miter; stroke-linecap: square"/>
   </g>
   <g id="patch_9">
    <path d="M 514.531708 345.916934 
L 514.531708 198.586225 
" style="fill: none; stroke: #000000; stroke-width: 0.8; stroke-linejoin: miter; stroke-linecap: square"/>
   </g>
   <g id="patch_10">
    <path d="M 53.193125 345.916934 
L 514.531708 345.916934 
" style="fill: none; stroke: #000000; stroke-width: 0.8; stroke-linejoin: miter; stroke-linecap: square"/>
   </g>
   <g id="patch_11">
    <path d="M 53.193125 198.586225 
L 514.531708 198.586225 
" style="fill: none; stroke: #000000; stroke-width: 0.8; stroke-linejoin: miter; stroke-linecap: square"/>
   </g>
   <g id="legend_1">
    <g id="patch_12">
     <path d="M 15.459267 481.354414 
L 550.766142 481.354414 
Q 553.166142 481.354414 553.166142 478.954414 
L 553.166142 395.282539 
Q 553.166142 392.882539 550.766142 392.882539 
L 15.459267 392.882539 
Q 13.059267 392.882539 13.059267 395.282539 
L 13.059267 478.954414 
Q 13.059267 481.354414 15.459267 481.354414 
z
" style="fill: #ffffff; opacity: 0.8; stroke: #cccccc; stroke-linejoin: miter"/>
    </g>
    <g id="line2d_67">
     <path d="M 17.859267 402.071914 
L 29.859267 402.071914 
L 41.859267 402.071914 
" style="fill: none; stroke-dasharray: 5.55,2.4; stroke-dashoffset: 0; stroke: #6699cc; stroke-width: 1.5"/>
    </g>
    <g id="text_20">
     <text style="font: 12px 'Arial'; text-anchor: start" x="51.459267" y="406.271914" transform="rotate(-0 51.459267 406.271914)">GRU Att 1</text>
    </g>
    <g id="line2d_68">
     <path d="M 17.859267 419.046289 
L 29.859267 419.046289 
L 41.859267 419.046289 
" style="fill: none; stroke-dasharray: 1.5,2.475; stroke-dashoffset: 0; stroke: #6699cc; stroke-width: 1.5"/>
    </g>
    <g id="text_21">
     <text style="font: 12px 'Arial'; text-anchor: start" x="51.459267" y="423.246289" transform="rotate(-0 51.459267 423.246289)">GRU Att 2</text>
    </g>
    <g id="line2d_69">
     <path d="M 17.859267 436.020664 
L 29.859267 436.020664 
L 41.859267 436.020664 
" style="fill: none; stroke-dasharray: 9.6,2.4,1.5,2.4; stroke-dashoffset: 0; stroke: #6699cc; stroke-width: 1.5"/>
    </g>
    <g id="text_22">
     <text style="font: 12px 'Arial'; text-anchor: start" x="51.459267" y="440.220664" transform="rotate(-0 51.459267 440.220664)">GRU Att 3</text>
    </g>
    <g id="line2d_70">
     <path d="M 17.859267 452.995039 
L 29.859267 452.995039 
L 41.859267 452.995039 
" style="fill: none; stroke: #6699cc; stroke-width: 1.5; stroke-linecap: square"/>
    </g>
    <g id="text_23">
     <text style="font: 12px 'Arial'; text-anchor: start" x="51.459267" y="457.195039" transform="rotate(-0 51.459267 457.195039)">GRU Att 4</text>
    </g>
    <g id="line2d_71">
     <path d="M 17.859267 469.969414 
L 29.859267 469.969414 
L 41.859267 469.969414 
" style="fill: none; stroke-dasharray: 5.55,2.4; stroke-dashoffset: 0; stroke: #004488; stroke-width: 1.5"/>
    </g>
    <g id="text_24">
     <text style="font: 12px 'Arial'; text-anchor: start" x="51.459267" y="474.169414" transform="rotate(-0 51.459267 474.169414)">GRU Linear</text>
    </g>
    <g id="line2d_72">
     <path d="M 138.813642 402.071914 
L 150.813642 402.071914 
L 162.813642 402.071914 
" style="fill: none; stroke: #004488; stroke-width: 1.5; stroke-linecap: square"/>
    </g>
    <g id="text_25">
     <text style="font: 12px 'Arial'; text-anchor: start" x="172.413642" y="406.271914" transform="rotate(-0 172.413642 406.271914)">GRU Reference</text>
    </g>
    <g id="line2d_73">
     <path d="M 138.813642 419.046289 
L 150.813642 419.046289 
L 162.813642 419.046289 
" style="fill: none; stroke-dasharray: 9.6,2.4,1.5,2.4; stroke-dashoffset: 0; stroke: #004488; stroke-width: 1.5"/>
    </g>
    <g id="text_26">
     <text style="font: 12px 'Arial'; text-anchor: start" x="172.413642" y="423.246289" transform="rotate(-0 172.413642 423.246289)">GRU Third</text>
    </g>
    <g id="line2d_74">
     <path d="M 138.813642 436.020664 
L 150.813642 436.020664 
L 162.813642 436.020664 
" style="fill: none; stroke-dasharray: 1.5,2.475; stroke-dashoffset: 0; stroke: #004488; stroke-width: 1.5"/>
    </g>
    <g id="text_27">
     <text style="font: 12px 'Arial'; text-anchor: start" x="172.413642" y="440.220664" transform="rotate(-0 172.413642 440.220664)">GRU Twice</text>
    </g>
    <g id="line2d_75">
     <path d="M 138.813642 452.995039 
L 150.813642 452.995039 
L 162.813642 452.995039 
" style="fill: none; stroke-dasharray: 5.55,2.4; stroke-dashoffset: 0; stroke: #ddaa33; stroke-width: 1.5"/>
    </g>
    <g id="text_28">
     <text style="font: 12px 'Arial'; text-anchor: start" x="172.413642" y="457.195039" transform="rotate(-0 172.413642 457.195039)">LSTM Linear</text>
    </g>
    <g id="line2d_76">
     <path d="M 281.774892 402.071914 
L 293.774892 402.071914 
L 305.774892 402.071914 
" style="fill: none; stroke: #ddaa33; stroke-width: 1.5; stroke-linecap: square"/>
    </g>
    <g id="text_29">
     <text style="font: 12px 'Arial'; text-anchor: start" x="315.374892" y="406.271914" transform="rotate(-0 315.374892 406.271914)">LSTM Reference</text>
    </g>
    <g id="line2d_77">
     <path d="M 281.774892 419.046289 
L 293.774892 419.046289 
L 305.774892 419.046289 
" style="fill: none; stroke-dasharray: 9.6,2.4,1.5,2.4; stroke-dashoffset: 0; stroke: #ddaa33; stroke-width: 1.5"/>
    </g>
    <g id="text_30">
     <text style="font: 12px 'Arial'; text-anchor: start" x="315.374892" y="423.246289" transform="rotate(-0 315.374892 423.246289)">LSTM Third</text>
    </g>
    <g id="line2d_78">
     <path d="M 281.774892 436.020664 
L 293.774892 436.020664 
L 305.774892 436.020664 
" style="fill: none; stroke-dasharray: 1.5,2.475; stroke-dashoffset: 0; stroke: #ddaa33; stroke-width: 1.5"/>
    </g>
    <g id="text_31">
     <text style="font: 12px 'Arial'; text-anchor: start" x="315.374892" y="440.220664" transform="rotate(-0 315.374892 440.220664)">LSTM Twice</text>
    </g>
    <g id="line2d_79">
     <path d="M 281.774892 452.995039 
L 293.774892 452.995039 
L 305.774892 452.995039 
" style="fill: none; stroke-dasharray: 5.55,2.4; stroke-dashoffset: 0; stroke: #bb5566; stroke-width: 1.5"/>
    </g>
    <g id="text_32">
     <text style="font: 12px 'Arial'; text-anchor: start" x="315.374892" y="457.195039" transform="rotate(-0 315.374892 457.195039)">RNN Linear</text>
    </g>
    <g id="line2d_80">
     <path d="M 430.072392 402.071914 
L 442.072392 402.071914 
L 454.072392 402.071914 
" style="fill: none; stroke: #bb5566; stroke-width: 1.5; stroke-linecap: square"/>
    </g>
    <g id="text_33">
     <text style="font: 12px 'Arial'; text-anchor: start" x="463.672392" y="406.271914" transform="rotate(-0 463.672392 406.271914)">RNN Reference</text>
    </g>
    <g id="line2d_81">
     <path d="M 430.072392 419.046289 
L 442.072392 419.046289 
L 454.072392 419.046289 
" style="fill: none; stroke-dasharray: 9.6,2.4,1.5,2.4; stroke-dashoffset: 0; stroke: #bb5566; stroke-width: 1.5"/>
    </g>
    <g id="text_34">
     <text style="font: 12px 'Arial'; text-anchor: start" x="463.672392" y="423.246289" transform="rotate(-0 463.672392 423.246289)">RNN Third</text>
    </g>
    <g id="line2d_82">
     <path d="M 430.072392 436.020664 
L 442.072392 436.020664 
L 454.072392 436.020664 
" style="fill: none; stroke-dasharray: 1.5,2.475; stroke-dashoffset: 0; stroke: #bb5566; stroke-width: 1.5"/>
    </g>
    <g id="text_35">
     <text style="font: 12px 'Arial'; text-anchor: start" x="463.672392" y="440.220664" transform="rotate(-0 463.672392 440.220664)">RNN Twice</text>
    </g>
    <g id="line2d_83">
     <path d="M 430.072392 452.995039 
L 442.072392 452.995039 
L 454.072392 452.995039 
" style="fill: none; stroke: #000000; stroke-width: 1.5; stroke-linecap: square"/>
    </g>
    <g id="text_36">
     <text style="font: 12px 'Arial'; text-anchor: start" x="463.672392" y="457.195039" transform="rotate(-0 463.672392 457.195039)">UniTS</text>
    </g>
   </g>
  </g>
 </g>
 <defs>
  <clipPath id="p8ee7936106">
   <rect x="53.193125" y="21.789375" width="461.338583" height="147.330709"/>
  </clipPath>
  <clipPath id="p3c8bf0469e">
   <rect x="53.193125" y="198.586225" width="461.338583" height="147.330709"/>
  </clipPath>
 </defs>
</svg>
