<?xml version="1.0" encoding="utf-8" standalone="no"?>
<!DOCTYPE svg PUBLIC "-//W3C//DTD SVG 1.1//EN"
  "http://www.w3.org/Graphics/SVG/1.1/DTD/svg11.dtd">
<svg xmlns:xlink="http://www.w3.org/1999/xlink" width="579.719892pt" height="482.404959pt" viewBox="0 0 579.719892 482.404959" xmlns="http://www.w3.org/2000/svg" version="1.1">
 <metadata>
  <rdf:RDF xmlns:dc="http://purl.org/dc/elements/1.1/" xmlns:cc="http://creativecommons.org/ns#" xmlns:rdf="http://www.w3.org/1999/02/22-rdf-syntax-ns#">
   <cc:Work>
    <dc:type rdf:resource="http://purl.org/dc/dcmitype/StillImage"/>
    <dc:date>2024-10-10T13:36:43.911054</dc:date>
    <dc:format>image/svg+xml</dc:format>
    <dc:creator>
     <cc:Agent>
      <dc:title>Matplotlib v3.7.0, https://matplotlib.org/</dc:title>
     </cc:Agent>
    </dc:creator>
   </cc:Work>
  </rdf:RDF>
 </metadata>
 <defs>
  <style type="text/css">*{stroke-linejoin: round; stroke-linecap: butt}</style>
 </defs>
 <g id="figure_1">
  <g id="patch_1">
   <path d="M 0 482.404959 
L 579.719892 482.404959 
L 579.719892 -0 
L 0 -0 
z
" style="fill: #ffffff"/>
  </g>
  <g id="axes_1">
   <g id="patch_2">
    <path d="M 72.546875 92.251888 
L 533.885458 92.251888 
L 533.885458 21.789375 
L 72.546875 21.789375 
z
" style="fill: #ffffff"/>
   </g>
   <g id="matplotlib.axis_1"/>
   <g id="matplotlib.axis_2">
    <g id="ytick_1">
     <g id="line2d_1">
      <defs>
       <path id="m185d664923" d="M 0 0 
L -3.5 0 
" style="stroke: #000000; stroke-width: 0.8"/>
      </defs>
      <g>
       <use xlink:href="#m185d664923" x="72.546875" y="90.432627" style="stroke: #000000; stroke-width: 0.8"/>
      </g>
     </g>
     <g id="text_1">
      <text style="font: 12px 'Arial'; text-anchor: end" x="65.546875" y="94.727314" transform="rotate(-0 65.546875 94.727314)">0</text>
     </g>
    </g>
    <g id="ytick_2">
     <g id="line2d_2">
      <g>
       <use xlink:href="#m185d664923" x="72.546875" y="55.868824" style="stroke: #000000; stroke-width: 0.8"/>
      </g>
     </g>
     <g id="text_2">
      <text style="font: 12px 'Arial'; text-anchor: end" x="65.546875" y="60.163512" transform="rotate(-0 65.546875 60.163512)">100</text>
     </g>
    </g>
    <g id="text_3">
     <text style="font: 12px 'Arial'; text-anchor: middle" x="39.001875" y="57.020631" transform="rotate(-90 39.001875 57.020631)">Heading</text>
    </g>
   </g>
   <g id="line2d_3">
    <path d="M 72.546875 86.380012 
L 89.023253 85.036272 
L 105.499631 83.778549 
L 121.976009 82.896733 
L 204.357899 79.164527 
L 369.121678 73.412495 
L 533.885458 68.439184 
" clip-path="url(#p4fd54b4124)" style="fill: none; stroke-dasharray: 5.55,2.4; stroke-dashoffset: 0; stroke: #6699cc; stroke-width: 1.5"/>
   </g>
   <g id="line2d_4">
    <path d="M 72.546875 86.10504 
L 89.023253 84.832701 
L 105.499631 83.757044 
L 121.976009 82.826019 
L 204.357899 78.850395 
L 369.121678 73.491132 
L 533.885458 69.814282 
" clip-path="url(#p4fd54b4124)" style="fill: none; stroke-dasharray: 1.5,2.475; stroke-dashoffset: 0; stroke: #6699cc; stroke-width: 1.5"/>
   </g>
   <g id="line2d_5">
    <path d="M 72.546875 86.264174 
L 89.023253 84.471177 
L 105.499631 83.144484 
L 121.976009 82.093835 
L 204.357899 78.391447 
L 369.121678 73.133535 
L 533.885458 69.495021 
" clip-path="url(#p4fd54b4124)" style="fill: none; stroke-dasharray: 9.6,2.4,1.5,2.4; stroke-dashoffset: 0; stroke: #6699cc; stroke-width: 1.5"/>
   </g>
   <g id="line2d_6">
    <path d="M 72.546875 86.289663 
L 89.023253 84.806809 
L 105.499631 83.47528 
L 121.976009 82.504475 
L 204.357899 78.515567 
L 369.121678 73.182978 
L 533.885458 69.057211 
" clip-path="url(#p4fd54b4124)" style="fill: none; stroke: #6699cc; stroke-width: 1.5; stroke-linecap: square"/>
   </g>
   <g id="line2d_7">
    <path d="M 72.546875 83.986463 
L 89.023253 81.787702 
L 105.499631 80.339157 
L 121.976009 78.9691 
L 204.357899 73.391673 
L 369.121678 67.095396 
L 533.885458 63.79779 
" clip-path="url(#p4fd54b4124)" style="fill: none; stroke-dasharray: 5.55,2.4; stroke-dashoffset: 0; stroke: #004488; stroke-width: 1.5"/>
   </g>
   <g id="line2d_8">
    <path d="M 72.546875 28.228431 
L 89.023253 28.211578 
L 105.499631 28.194801 
L 121.976009 28.175873 
L 204.357899 28.093438 
L 369.121678 27.883017 
L 533.885458 27.661251 
" clip-path="url(#p4fd54b4124)" style="fill: none; stroke: #004488; stroke-width: 1.5; stroke-linecap: square"/>
   </g>
   <g id="line2d_9">
    <path d="M 72.546875 28.228431 
L 89.023253 28.211578 
L 105.499631 28.194801 
L 121.976009 28.175873 
L 204.357899 28.093438 
L 369.121678 27.883017 
L 533.885458 27.661251 
" clip-path="url(#p4fd54b4124)" style="fill: none; stroke-dasharray: 9.6,2.4,1.5,2.4; stroke-dashoffset: 0; stroke: #004488; stroke-width: 1.5"/>
   </g>
   <g id="line2d_10">
    <path d="M 72.546875 28.228431 
L 89.023253 28.211578 
L 105.499631 28.194801 
L 121.976009 28.175873 
L 204.357899 28.093438 
L 369.121678 27.883017 
L 533.885458 27.661251 
" clip-path="url(#p4fd54b4124)" style="fill: none; stroke-dasharray: 1.5,2.475; stroke-dashoffset: 0; stroke: #004488; stroke-width: 1.5"/>
   </g>
   <g id="line2d_11">
    <path d="M 72.546875 84.394332 
L 89.023253 82.293543 
L 105.499631 79.74537 
L 121.976009 79.277582 
L 204.357899 74.371227 
L 369.121678 68.463254 
L 533.885458 65.243712 
" clip-path="url(#p4fd54b4124)" style="fill: none; stroke-dasharray: 5.55,2.4; stroke-dashoffset: 0; stroke: #ddaa33; stroke-width: 1.5"/>
   </g>
   <g id="line2d_12">
    <path d="M 72.546875 28.228431 
L 89.023253 28.211578 
L 105.499631 28.194801 
L 121.976009 28.175873 
L 204.357899 28.093438 
L 369.121678 27.883017 
L 533.885458 27.661251 
" clip-path="url(#p4fd54b4124)" style="fill: none; stroke: #ddaa33; stroke-width: 1.5; stroke-linecap: square"/>
   </g>
   <g id="line2d_13">
    <path d="M 72.546875 28.228431 
L 89.023253 28.211578 
L 105.499631 28.194801 
L 121.976009 28.175873 
L 204.357899 28.093438 
L 369.121678 27.883017 
L 533.885458 27.661251 
" clip-path="url(#p4fd54b4124)" style="fill: none; stroke-dasharray: 9.6,2.4,1.5,2.4; stroke-dashoffset: 0; stroke: #ddaa33; stroke-width: 1.5"/>
   </g>
   <g id="line2d_14">
    <path d="M 72.546875 28.228431 
L 89.023253 28.211578 
L 105.499631 28.194801 
L 121.976009 28.175873 
L 204.357899 28.093438 
L 369.121678 27.883017 
L 533.885458 27.661251 
" clip-path="url(#p4fd54b4124)" style="fill: none; stroke-dasharray: 1.5,2.475; stroke-dashoffset: 0; stroke: #ddaa33; stroke-width: 1.5"/>
   </g>
   <g id="line2d_15">
    <path d="M 72.546875 84.173139 
L 89.023253 82.121839 
L 105.499631 80.467783 
L 121.976009 79.14025 
L 204.357899 73.994616 
L 369.121678 67.353725 
L 533.885458 64.053573 
" clip-path="url(#p4fd54b4124)" style="fill: none; stroke-dasharray: 5.55,2.4; stroke-dashoffset: 0; stroke: #bb5566; stroke-width: 1.5"/>
   </g>
   <g id="line2d_16">
    <path d="M 72.546875 28.228431 
L 89.023253 28.211578 
L 105.499631 28.194801 
L 121.976009 28.175873 
L 204.357899 28.093438 
L 369.121678 27.883017 
L 533.885458 27.661251 
" clip-path="url(#p4fd54b4124)" style="fill: none; stroke: #bb5566; stroke-width: 1.5; stroke-linecap: square"/>
   </g>
   <g id="line2d_17">
    <path d="M 72.546875 28.228431 
L 89.023253 28.211578 
L 105.499631 28.194801 
L 121.976009 28.175873 
L 204.357899 28.093438 
L 369.121678 27.883017 
L 533.885458 27.661251 
" clip-path="url(#p4fd54b4124)" style="fill: none; stroke-dasharray: 9.6,2.4,1.5,2.4; stroke-dashoffset: 0; stroke: #bb5566; stroke-width: 1.5"/>
   </g>
   <g id="line2d_18">
    <path d="M 72.546875 28.228431 
L 89.023253 28.211578 
L 105.499631 28.194801 
L 121.976009 28.175873 
L 204.357899 28.093438 
L 369.121678 27.883017 
L 533.885458 27.661251 
" clip-path="url(#p4fd54b4124)" style="fill: none; stroke-dasharray: 1.5,2.475; stroke-dashoffset: 0; stroke: #bb5566; stroke-width: 1.5"/>
   </g>
   <g id="line2d_19">
    <path d="M 72.546875 84.869278 
L 89.023253 83.710045 
L 105.499631 82.703505 
L 121.976009 81.813857 
L 204.357899 78.413672 
L 369.121678 74.076537 
L 533.885458 71.209876 
" clip-path="url(#p4fd54b4124)" style="fill: none; stroke: #000000; stroke-width: 1.5; stroke-linecap: square"/>
   </g>
   <g id="patch_3">
    <path d="M 72.546875 92.251888 
L 72.546875 21.789375 
" style="fill: none; stroke: #000000; stroke-width: 0.8; stroke-linejoin: miter; stroke-linecap: square"/>
   </g>
   <g id="patch_4">
    <path d="M 533.885458 92.251888 
L 533.885458 21.789375 
" style="fill: none; stroke: #000000; stroke-width: 0.8; stroke-linejoin: miter; stroke-linecap: square"/>
   </g>
   <g id="patch_5">
    <path d="M 72.546875 92.251888 
L 533.885458 92.251888 
" style="fill: none; stroke: #000000; stroke-width: 0.8; stroke-linejoin: miter; stroke-linecap: square"/>
   </g>
   <g id="patch_6">
    <path d="M 72.546875 21.789375 
L 533.885458 21.789375 
" style="fill: none; stroke: #000000; stroke-width: 0.8; stroke-linejoin: miter; stroke-linecap: square"/>
   </g>
   <g id="text_4">
    <text style="font: 12px 'Arial'; text-anchor: middle" x="303.216166" y="15.789375" transform="rotate(-0 303.216166 15.789375)">MAE</text>
   </g>
  </g>
  <g id="axes_2">
   <g id="patch_7">
    <path d="M 72.546875 176.806903 
L 533.885458 176.806903 
L 533.885458 106.34439 
L 72.546875 106.34439 
z
" style="fill: #ffffff"/>
   </g>
   <g id="matplotlib.axis_3"/>
   <g id="matplotlib.axis_4">
    <g id="ytick_3">
     <g id="line2d_20">
      <g>
       <use xlink:href="#m185d664923" x="72.546875" y="146.676889" style="stroke: #000000; stroke-width: 0.8"/>
      </g>
     </g>
     <g id="text_5">
      <text style="font: 12px 'Arial'; text-anchor: end" x="65.546875" y="150.971577" transform="rotate(-0 65.546875 150.971577)">0.0002</text>
     </g>
    </g>
    <g id="ytick_4">
     <g id="line2d_21">
      <g>
       <use xlink:href="#m185d664923" x="72.546875" y="113.136089" style="stroke: #000000; stroke-width: 0.8"/>
      </g>
     </g>
     <g id="text_6">
      <text style="font: 12px 'Arial'; text-anchor: end" x="65.546875" y="117.430776" transform="rotate(-0 65.546875 117.430776)">0.0004</text>
     </g>
    </g>
    <g id="text_7">
     <!-- $y$ offset -->
     <g transform="translate(22.3275 161.495647) rotate(-90)">
      <text>
       <tspan style="font: oblique 12px 'DejaVu Sans'" x="0" y="-0.265625">y</tspan>
       <tspan style="font: 12px 'Arial'" x="7.101562 10.435547 17.109375 20.443359 23.777344 29.777344 36.451172" y="-0.265625"> offset</tspan>
      </text>
     </g>
    </g>
   </g>
   <g id="line2d_22">
    <path d="M 72.546875 170.935027 
L 89.023253 167.769364 
L 105.499631 165.381651 
L 121.976009 163.244274 
L 204.357899 145.713692 
L 369.121678 132.844505 
L 533.885458 125.619027 
" clip-path="url(#p3c67d063a5)" style="fill: none; stroke-dasharray: 5.55,2.4; stroke-dashoffset: 0; stroke: #6699cc; stroke-width: 1.5"/>
   </g>
   <g id="line2d_23">
    <path d="M 72.546875 169.887404 
L 89.023253 167.028169 
L 105.499631 165.494951 
L 121.976009 163.312613 
L 204.357899 152.614447 
L 369.121678 140.264348 
L 533.885458 130.586174 
" clip-path="url(#p3c67d063a5)" style="fill: none; stroke-dasharray: 1.5,2.475; stroke-dashoffset: 0; stroke: #6699cc; stroke-width: 1.5"/>
   </g>
   <g id="line2d_24">
    <path d="M 72.546875 169.43133 
L 89.023253 165.588011 
L 105.499631 162.604186 
L 121.976009 160.312036 
L 204.357899 150.396432 
L 369.121678 136.990914 
L 533.885458 127.730067 
" clip-path="url(#p3c67d063a5)" style="fill: none; stroke-dasharray: 9.6,2.4,1.5,2.4; stroke-dashoffset: 0; stroke: #6699cc; stroke-width: 1.5"/>
   </g>
   <g id="line2d_25">
    <path d="M 72.546875 170.426519 
L 89.023253 166.467658 
L 105.499631 163.615864 
L 121.976009 161.205999 
L 204.357899 153.173106 
L 369.121678 135.449599 
L 533.885458 125.95634 
" clip-path="url(#p3c67d063a5)" style="fill: none; stroke: #6699cc; stroke-width: 1.5; stroke-linecap: square"/>
   </g>
   <g id="line2d_26">
    <path d="M 72.546875 167.589029 
L 89.023253 160.739108 
L 105.499631 157.607252 
L 121.976009 153.046285 
L 204.357899 138.356272 
L 369.121678 122.813091 
L 533.885458 114.767775 
" clip-path="url(#p3c67d063a5)" style="fill: none; stroke-dasharray: 5.55,2.4; stroke-dashoffset: 0; stroke: #004488; stroke-width: 1.5"/>
   </g>
   <g id="line2d_27">
    <path d="M 72.546875 168.225414 
L 89.023253 160.713721 
L 105.499631 155.637752 
L 121.976009 151.580531 
L 204.357899 139.235326 
L 369.121678 122.876858 
L 533.885458 114.008687 
" clip-path="url(#p3c67d063a5)" style="fill: none; stroke: #004488; stroke-width: 1.5; stroke-linecap: square"/>
   </g>
   <g id="line2d_28">
    <path d="M 72.546875 165.500412 
L 89.023253 161.062519 
L 105.499631 154.377696 
L 121.976009 151.96093 
L 204.357899 138.572746 
L 369.121678 121.883962 
L 533.885458 113.782377 
" clip-path="url(#p3c67d063a5)" style="fill: none; stroke-dasharray: 9.6,2.4,1.5,2.4; stroke-dashoffset: 0; stroke: #004488; stroke-width: 1.5"/>
   </g>
   <g id="line2d_29">
    <path d="M 72.546875 166.87459 
L 89.023253 162.230838 
L 105.499631 155.218785 
L 121.976009 152.509094 
L 204.357899 139.074329 
L 369.121678 122.630147 
L 533.885458 114.781572 
" clip-path="url(#p3c67d063a5)" style="fill: none; stroke-dasharray: 1.5,2.475; stroke-dashoffset: 0; stroke: #004488; stroke-width: 1.5"/>
   </g>
   <g id="line2d_30">
    <path d="M 72.546875 163.581992 
L 89.023253 160.91055 
L 105.499631 156.353036 
L 121.976009 151.847969 
L 204.357899 139.728482 
L 369.121678 124.040485 
L 533.885458 114.425272 
" clip-path="url(#p3c67d063a5)" style="fill: none; stroke-dasharray: 5.55,2.4; stroke-dashoffset: 0; stroke: #ddaa33; stroke-width: 1.5"/>
   </g>
   <g id="line2d_31">
    <path d="M 72.546875 166.105843 
L 89.023253 159.885734 
L 105.499631 156.367911 
L 121.976009 153.04533 
L 204.357899 139.657159 
L 369.121678 122.382551 
L 533.885458 115.388252 
" clip-path="url(#p3c67d063a5)" style="fill: none; stroke: #ddaa33; stroke-width: 1.5; stroke-linecap: square"/>
   </g>
   <g id="line2d_32">
    <path d="M 72.546875 164.323524 
L 89.023253 161.865495 
L 105.499631 155.447142 
L 121.976009 152.976185 
L 204.357899 138.53595 
L 369.121678 121.830885 
L 533.885458 113.313855 
" clip-path="url(#p3c67d063a5)" style="fill: none; stroke-dasharray: 9.6,2.4,1.5,2.4; stroke-dashoffset: 0; stroke: #ddaa33; stroke-width: 1.5"/>
   </g>
   <g id="line2d_33">
    <path d="M 72.546875 134.484373 
L 89.023253 133.809999 
L 105.499631 140.733233 
L 121.976009 142.26239 
L 204.357899 138.113052 
L 369.121678 121.109272 
L 533.885458 114.528277 
" clip-path="url(#p3c67d063a5)" style="fill: none; stroke-dasharray: 1.5,2.475; stroke-dashoffset: 0; stroke: #ddaa33; stroke-width: 1.5"/>
   </g>
   <g id="line2d_34">
    <path d="M 72.546875 136.402517 
L 89.023253 149.464715 
L 105.499631 144.624934 
L 121.976009 146.461892 
L 204.357899 138.669623 
L 369.121678 121.272049 
L 533.885458 115.204466 
" clip-path="url(#p3c67d063a5)" style="fill: none; stroke-dasharray: 5.55,2.4; stroke-dashoffset: 0; stroke: #bb5566; stroke-width: 1.5"/>
   </g>
   <g id="line2d_35">
    <path d="M 72.546875 139.273358 
L 89.023253 136.788949 
L 105.499631 150.45031 
L 121.976009 147.739915 
L 204.357899 137.566518 
L 369.121678 121.642887 
L 533.885458 114.044626 
" clip-path="url(#p3c67d063a5)" style="fill: none; stroke: #bb5566; stroke-width: 1.5; stroke-linecap: square"/>
   </g>
   <g id="line2d_36">
    <path d="M 72.546875 149.101151 
L 89.023253 155.274192 
L 105.499631 154.343712 
L 121.976009 152.257329 
L 204.357899 138.42315 
L 369.121678 119.861353 
L 533.885458 112.216266 
" clip-path="url(#p3c67d063a5)" style="fill: none; stroke-dasharray: 9.6,2.4,1.5,2.4; stroke-dashoffset: 0; stroke: #bb5566; stroke-width: 1.5"/>
   </g>
   <g id="line2d_37">
    <path d="M 72.546875 113.215046 
L 89.023253 118.343899 
L 105.499631 118.69441 
L 121.976009 120.969248 
L 204.357899 128.580792 
L 369.121678 116.697573 
L 533.885458 113.878837 
" clip-path="url(#p3c67d063a5)" style="fill: none; stroke-dasharray: 1.5,2.475; stroke-dashoffset: 0; stroke: #bb5566; stroke-width: 1.5"/>
   </g>
   <g id="line2d_38">
    <path d="M 72.546875 168.236779 
L 89.023253 165.588499 
L 105.499631 163.222866 
L 121.976009 161.079476 
L 204.357899 152.583018 
L 369.121678 141.503413 
L 533.885458 134.582825 
" clip-path="url(#p3c67d063a5)" style="fill: none; stroke: #000000; stroke-width: 1.5; stroke-linecap: square"/>
   </g>
   <g id="patch_8">
    <path d="M 72.546875 176.806903 
L 72.546875 106.34439 
" style="fill: none; stroke: #000000; stroke-width: 0.8; stroke-linejoin: miter; stroke-linecap: square"/>
   </g>
   <g id="patch_9">
    <path d="M 533.885458 176.806903 
L 533.885458 106.34439 
" style="fill: none; stroke: #000000; stroke-width: 0.8; stroke-linejoin: miter; stroke-linecap: square"/>
   </g>
   <g id="patch_10">
    <path d="M 72.546875 176.806903 
L 533.885458 176.806903 
" style="fill: none; stroke: #000000; stroke-width: 0.8; stroke-linejoin: miter; stroke-linecap: square"/>
   </g>
   <g id="patch_11">
    <path d="M 72.546875 106.34439 
L 533.885458 106.34439 
" style="fill: none; stroke: #000000; stroke-width: 0.8; stroke-linejoin: miter; stroke-linecap: square"/>
   </g>
  </g>
  <g id="axes_3">
   <g id="patch_12">
    <path d="M 72.546875 261.361919 
L 533.885458 261.361919 
L 533.885458 190.899406 
L 72.546875 190.899406 
z
" style="fill: #ffffff"/>
   </g>
   <g id="matplotlib.axis_5"/>
   <g id="matplotlib.axis_6">
    <g id="ytick_5">
     <g id="line2d_39">
      <g>
       <use xlink:href="#m185d664923" x="72.546875" y="231.570336" style="stroke: #000000; stroke-width: 0.8"/>
      </g>
     </g>
     <g id="text_8">
      <text style="font: 12px 'Arial'; text-anchor: end" x="65.546875" y="235.865024" transform="rotate(-0 65.546875 235.865024)">0.00025</text>
     </g>
    </g>
    <g id="ytick_6">
     <g id="line2d_40">
      <g>
       <use xlink:href="#m185d664923" x="72.546875" y="198.767833" style="stroke: #000000; stroke-width: 0.8"/>
      </g>
     </g>
     <g id="text_9">
      <text style="font: 12px 'Arial'; text-anchor: end" x="65.546875" y="203.06252" transform="rotate(-0 65.546875 203.06252)">0.00050</text>
     </g>
    </g>
    <g id="text_10">
     <!-- $x$ offset -->
     <g transform="translate(15.789375 246.050662) rotate(-90)">
      <text>
       <tspan style="font: oblique 12px 'DejaVu Sans'" x="0" y="-0.265625">x</tspan>
       <tspan style="font: 12px 'Arial'" x="7.101562 10.435547 17.109375 20.443359 23.777344 29.777344 36.451172" y="-0.265625"> offset</tspan>
      </text>
     </g>
    </g>
   </g>
   <g id="line2d_41">
    <path d="M 72.546875 255.490043 
L 89.023253 252.469913 
L 105.499631 249.50584 
L 121.976009 247.697236 
L 204.357899 231.244435 
L 369.121678 214.757071 
L 533.885458 208.71598 
" clip-path="url(#p64dafbd344)" style="fill: none; stroke-dasharray: 5.55,2.4; stroke-dashoffset: 0; stroke: #6699cc; stroke-width: 1.5"/>
   </g>
   <g id="line2d_42">
    <path d="M 72.546875 255.037706 
L 89.023253 251.759566 
L 105.499631 249.259685 
L 121.976009 247.239586 
L 204.357899 237.475139 
L 369.121678 222.730841 
L 533.885458 211.330252 
" clip-path="url(#p64dafbd344)" style="fill: none; stroke-dasharray: 1.5,2.475; stroke-dashoffset: 0; stroke: #6699cc; stroke-width: 1.5"/>
   </g>
   <g id="line2d_43">
    <path d="M 72.546875 254.258725 
L 89.023253 250.805794 
L 105.499631 248.203676 
L 121.976009 245.4698 
L 204.357899 234.383868 
L 369.121678 218.72938 
L 533.885458 208.083979 
" clip-path="url(#p64dafbd344)" style="fill: none; stroke-dasharray: 9.6,2.4,1.5,2.4; stroke-dashoffset: 0; stroke: #6699cc; stroke-width: 1.5"/>
   </g>
   <g id="line2d_44">
    <path d="M 72.546875 254.997238 
L 89.023253 251.226074 
L 105.499631 248.573991 
L 121.976009 245.642828 
L 204.357899 236.262245 
L 369.121678 218.100961 
L 533.885458 207.784394 
" clip-path="url(#p64dafbd344)" style="fill: none; stroke: #6699cc; stroke-width: 1.5; stroke-linecap: square"/>
   </g>
   <g id="line2d_45">
    <path d="M 72.546875 252.297457 
L 89.023253 246.570143 
L 105.499631 240.466688 
L 121.976009 238.374355 
L 204.357899 224.227994 
L 369.121678 205.394422 
L 533.885458 197.646007 
" clip-path="url(#p64dafbd344)" style="fill: none; stroke-dasharray: 5.55,2.4; stroke-dashoffset: 0; stroke: #004488; stroke-width: 1.5"/>
   </g>
   <g id="line2d_46">
    <path d="M 72.546875 252.00292 
L 89.023253 245.134059 
L 105.499631 241.814294 
L 121.976009 238.22952 
L 204.357899 224.455849 
L 369.121678 206.373604 
L 533.885458 197.6167 
" clip-path="url(#p64dafbd344)" style="fill: none; stroke: #004488; stroke-width: 1.5; stroke-linecap: square"/>
   </g>
   <g id="line2d_47">
    <path d="M 72.546875 253.344514 
L 89.023253 245.409318 
L 105.499631 239.993815 
L 121.976009 237.386066 
L 204.357899 223.319399 
L 369.121678 205.462131 
L 533.885458 197.73711 
" clip-path="url(#p64dafbd344)" style="fill: none; stroke-dasharray: 9.6,2.4,1.5,2.4; stroke-dashoffset: 0; stroke: #004488; stroke-width: 1.5"/>
   </g>
   <g id="line2d_48">
    <path d="M 72.546875 252.701423 
L 89.023253 245.911835 
L 105.499631 241.553776 
L 121.976009 237.519258 
L 204.357899 224.107342 
L 369.121678 207.210332 
L 533.885458 197.962687 
" clip-path="url(#p64dafbd344)" style="fill: none; stroke-dasharray: 1.5,2.475; stroke-dashoffset: 0; stroke: #004488; stroke-width: 1.5"/>
   </g>
   <g id="line2d_49">
    <path d="M 72.546875 252.096637 
L 89.023253 245.857328 
L 105.499631 242.090756 
L 121.976009 236.883437 
L 204.357899 224.004225 
L 369.121678 205.953458 
L 533.885458 199.33649 
" clip-path="url(#p64dafbd344)" style="fill: none; stroke-dasharray: 5.55,2.4; stroke-dashoffset: 0; stroke: #ddaa33; stroke-width: 1.5"/>
   </g>
   <g id="line2d_50">
    <path d="M 72.546875 252.168824 
L 89.023253 244.952918 
L 105.499631 239.961785 
L 121.976009 238.071567 
L 204.357899 224.360406 
L 369.121678 207.215487 
L 533.885458 198.101993 
" clip-path="url(#p64dafbd344)" style="fill: none; stroke: #ddaa33; stroke-width: 1.5; stroke-linecap: square"/>
   </g>
   <g id="line2d_51">
    <path d="M 72.546875 253.392318 
L 89.023253 244.926698 
L 105.499631 241.266711 
L 121.976009 236.131034 
L 204.357899 224.116018 
L 369.121678 205.904355 
L 533.885458 198.180562 
" clip-path="url(#p64dafbd344)" style="fill: none; stroke-dasharray: 9.6,2.4,1.5,2.4; stroke-dashoffset: 0; stroke: #ddaa33; stroke-width: 1.5"/>
   </g>
   <g id="line2d_52">
    <path d="M 72.546875 232.132757 
L 89.023253 241.651366 
L 105.499631 240.860222 
L 121.976009 237.178247 
L 204.357899 224.581373 
L 369.121678 206.437784 
L 533.885458 199.024839 
" clip-path="url(#p64dafbd344)" style="fill: none; stroke-dasharray: 1.5,2.475; stroke-dashoffset: 0; stroke: #ddaa33; stroke-width: 1.5"/>
   </g>
   <g id="line2d_53">
    <path d="M 72.546875 231.765515 
L 89.023253 232.253459 
L 105.499631 236.303526 
L 121.976009 236.636839 
L 204.357899 223.461521 
L 369.121678 205.945324 
L 533.885458 197.003867 
" clip-path="url(#p64dafbd344)" style="fill: none; stroke-dasharray: 5.55,2.4; stroke-dashoffset: 0; stroke: #bb5566; stroke-width: 1.5"/>
   </g>
   <g id="line2d_54">
    <path d="M 72.546875 230.180225 
L 89.023253 237.3086 
L 105.499631 238.086127 
L 121.976009 234.766093 
L 204.357899 223.813302 
L 369.121678 206.03471 
L 533.885458 197.143782 
" clip-path="url(#p64dafbd344)" style="fill: none; stroke: #bb5566; stroke-width: 1.5; stroke-linecap: square"/>
   </g>
   <g id="line2d_55">
    <path d="M 72.546875 246.733936 
L 89.023253 244.381815 
L 105.499631 238.918061 
L 121.976009 234.613752 
L 204.357899 223.848648 
L 369.121678 203.862382 
L 533.885458 196.771282 
" clip-path="url(#p64dafbd344)" style="fill: none; stroke-dasharray: 9.6,2.4,1.5,2.4; stroke-dashoffset: 0; stroke: #bb5566; stroke-width: 1.5"/>
   </g>
   <g id="line2d_56">
    <path d="M 72.546875 212.827431 
L 89.023253 216.859659 
L 105.499631 210.078215 
L 121.976009 215.691043 
L 204.357899 217.740498 
L 369.121678 205.147815 
L 533.885458 197.315779 
" clip-path="url(#p64dafbd344)" style="fill: none; stroke-dasharray: 1.5,2.475; stroke-dashoffset: 0; stroke: #bb5566; stroke-width: 1.5"/>
   </g>
   <g id="line2d_57">
    <path d="M 72.546875 252.608821 
L 89.023253 249.96328 
L 105.499631 247.602306 
L 121.976009 245.46236 
L 204.357899 236.907586 
L 369.121678 225.58512 
L 533.885458 218.450694 
" clip-path="url(#p64dafbd344)" style="fill: none; stroke: #000000; stroke-width: 1.5; stroke-linecap: square"/>
   </g>
   <g id="patch_13">
    <path d="M 72.546875 261.361919 
L 72.546875 190.899406 
" style="fill: none; stroke: #000000; stroke-width: 0.8; stroke-linejoin: miter; stroke-linecap: square"/>
   </g>
   <g id="patch_14">
    <path d="M 533.885458 261.361919 
L 533.885458 190.899406 
" style="fill: none; stroke: #000000; stroke-width: 0.8; stroke-linejoin: miter; stroke-linecap: square"/>
   </g>
   <g id="patch_15">
    <path d="M 72.546875 261.361919 
L 533.885458 261.361919 
" style="fill: none; stroke: #000000; stroke-width: 0.8; stroke-linejoin: miter; stroke-linecap: square"/>
   </g>
   <g id="patch_16">
    <path d="M 72.546875 190.899406 
L 533.885458 190.899406 
" style="fill: none; stroke: #000000; stroke-width: 0.8; stroke-linejoin: miter; stroke-linecap: square"/>
   </g>
  </g>
  <g id="axes_4">
   <g id="patch_17">
    <path d="M 72.546875 345.916934 
L 533.885458 345.916934 
L 533.885458 275.454421 
L 72.546875 275.454421 
z
" style="fill: #ffffff"/>
   </g>
   <g id="matplotlib.axis_7">
    <g id="xtick_1">
     <g id="line2d_58">
      <defs>
       <path id="m90289d2161" d="M 0 0 
L 0 3.5 
" style="stroke: #000000; stroke-width: 0.8"/>
      </defs>
      <g>
       <use xlink:href="#m90289d2161" x="72.546875" y="345.916934" style="stroke: #000000; stroke-width: 0.8"/>
      </g>
     </g>
     <g id="text_11">
      <text style="font: 12px 'Arial'; text-anchor: middle" x="72.546875" y="361.506309" transform="rotate(-0 72.546875 361.506309)">2</text>
     </g>
    </g>
    <g id="xtick_2">
     <g id="line2d_59">
      <g>
       <use xlink:href="#m90289d2161" x="89.023253" y="345.916934" style="stroke: #000000; stroke-width: 0.8"/>
      </g>
     </g>
     <g id="text_12">
      <text style="font: 12px 'Arial'; text-anchor: middle" x="89.023253" y="361.506309" transform="rotate(-0 89.023253 361.506309)">3</text>
     </g>
    </g>
    <g id="xtick_3">
     <g id="line2d_60">
      <g>
       <use xlink:href="#m90289d2161" x="105.499631" y="345.916934" style="stroke: #000000; stroke-width: 0.8"/>
      </g>
     </g>
     <g id="text_13">
      <text style="font: 12px 'Arial'; text-anchor: middle" x="105.499631" y="361.506309" transform="rotate(-0 105.499631 361.506309)">4</text>
     </g>
    </g>
    <g id="xtick_4">
     <g id="line2d_61">
      <g>
       <use xlink:href="#m90289d2161" x="121.976009" y="345.916934" style="stroke: #000000; stroke-width: 0.8"/>
      </g>
     </g>
     <g id="text_14">
      <text style="font: 12px 'Arial'; text-anchor: middle" x="121.976009" y="361.506309" transform="rotate(-0 121.976009 361.506309)">5</text>
     </g>
    </g>
    <g id="xtick_5">
     <g id="line2d_62">
      <g>
       <use xlink:href="#m90289d2161" x="204.357899" y="345.916934" style="stroke: #000000; stroke-width: 0.8"/>
      </g>
     </g>
     <g id="text_15">
      <text style="font: 12px 'Arial'; text-anchor: middle" x="204.357899" y="361.506309" transform="rotate(-0 204.357899 361.506309)">10</text>
     </g>
    </g>
    <g id="xtick_6">
     <g id="line2d_63">
      <g>
       <use xlink:href="#m90289d2161" x="369.121678" y="345.916934" style="stroke: #000000; stroke-width: 0.8"/>
      </g>
     </g>
     <g id="text_16">
      <text style="font: 12px 'Arial'; text-anchor: middle" x="369.121678" y="361.506309" transform="rotate(-0 369.121678 361.506309)">20</text>
     </g>
    </g>
    <g id="xtick_7">
     <g id="line2d_64">
      <g>
       <use xlink:href="#m90289d2161" x="533.885458" y="345.916934" style="stroke: #000000; stroke-width: 0.8"/>
      </g>
     </g>
     <g id="text_17">
      <text style="font: 12px 'Arial'; text-anchor: middle" x="533.885458" y="361.506309" transform="rotate(-0 533.885458 361.506309)">30</text>
     </g>
    </g>
    <g id="text_18">
     <text style="font: 12px 'Arial'; text-anchor: middle" x="303.216166" y="376.480684" transform="rotate(-0 303.216166 376.480684)">Forecasting length</text>
    </g>
   </g>
   <g id="matplotlib.axis_8">
    <g id="ytick_7">
     <g id="line2d_65">
      <g>
       <use xlink:href="#m185d664923" x="72.546875" y="317.636079" style="stroke: #000000; stroke-width: 0.8"/>
      </g>
     </g>
     <g id="text_19">
      <text style="font: 12px 'Arial'; text-anchor: end" x="65.546875" y="321.930766" transform="rotate(-0 65.546875 321.930766)">10</text>
     </g>
    </g>
    <g id="ytick_8">
     <g id="line2d_66">
      <g>
       <use xlink:href="#m185d664923" x="72.546875" y="287.95226" style="stroke: #000000; stroke-width: 0.8"/>
      </g>
     </g>
     <g id="text_20">
      <text style="font: 12px 'Arial'; text-anchor: end" x="65.546875" y="292.246947" transform="rotate(-0 65.546875 292.246947)">20</text>
     </g>
    </g>
    <g id="text_21">
     <text style="font: 12px 'Arial'; text-anchor: middle" x="45.815625" y="310.685678" transform="rotate(-90 45.815625 310.685678)">Speed</text>
    </g>
   </g>
   <g id="line2d_67">
    <path d="M 72.546875 339.359152 
L 89.023253 336.221413 
L 105.499631 334.59983 
L 121.976009 334.123865 
L 204.357899 330.341234 
L 369.121678 324.511735 
L 533.885458 321.561924 
" clip-path="url(#p36c292518b)" style="fill: none; stroke-dasharray: 5.55,2.4; stroke-dashoffset: 0; stroke: #6699cc; stroke-width: 1.5"/>
   </g>
   <g id="line2d_68">
    <path d="M 72.546875 339.436741 
L 89.023253 336.37018 
L 105.499631 334.409534 
L 121.976009 332.836959 
L 204.357899 328.872417 
L 369.121678 323.390605 
L 533.885458 320.331149 
" clip-path="url(#p36c292518b)" style="fill: none; stroke-dasharray: 1.5,2.475; stroke-dashoffset: 0; stroke: #6699cc; stroke-width: 1.5"/>
   </g>
   <g id="line2d_69">
    <path d="M 72.546875 339.395241 
L 89.023253 336.331116 
L 105.499631 334.008318 
L 121.976009 331.983732 
L 204.357899 326.88041 
L 369.121678 322.337981 
L 533.885458 318.416544 
" clip-path="url(#p36c292518b)" style="fill: none; stroke-dasharray: 9.6,2.4,1.5,2.4; stroke-dashoffset: 0; stroke: #6699cc; stroke-width: 1.5"/>
   </g>
   <g id="line2d_70">
    <path d="M 72.546875 339.234179 
L 89.023253 336.06412 
L 105.499631 333.629678 
L 121.976009 331.696132 
L 204.357899 326.652709 
L 369.121678 322.796269 
L 533.885458 318.981649 
" clip-path="url(#p36c292518b)" style="fill: none; stroke: #6699cc; stroke-width: 1.5; stroke-linecap: square"/>
   </g>
   <g id="line2d_71">
    <path d="M 72.546875 339.902071 
L 89.023253 336.976644 
L 105.499631 334.495401 
L 121.976009 332.715784 
L 204.357899 326.893435 
L 369.121678 323.527503 
L 533.885458 322.021079 
" clip-path="url(#p36c292518b)" style="fill: none; stroke-dasharray: 5.55,2.4; stroke-dashoffset: 0; stroke: #004488; stroke-width: 1.5"/>
   </g>
   <g id="line2d_72">
    <path d="M 72.546875 283.140396 
L 89.023253 283.040875 
L 105.499631 282.956599 
L 121.976009 282.868187 
L 204.357899 282.478702 
L 369.121678 281.868012 
L 533.885458 281.326297 
" clip-path="url(#p36c292518b)" style="fill: none; stroke: #004488; stroke-width: 1.5; stroke-linecap: square"/>
   </g>
   <g id="line2d_73">
    <path d="M 72.546875 283.14039 
L 89.023253 283.040819 
L 105.499631 282.956599 
L 121.976009 282.868186 
L 204.357899 282.478702 
L 369.121678 281.868012 
L 533.885458 281.326297 
" clip-path="url(#p36c292518b)" style="fill: none; stroke-dasharray: 9.6,2.4,1.5,2.4; stroke-dashoffset: 0; stroke: #004488; stroke-width: 1.5"/>
   </g>
   <g id="line2d_74">
    <path d="M 72.546875 283.140386 
L 89.023253 283.040817 
L 105.499631 282.956599 
L 121.976009 282.868187 
L 204.357899 282.478702 
L 369.121678 281.868012 
L 533.885458 281.326297 
" clip-path="url(#p36c292518b)" style="fill: none; stroke-dasharray: 1.5,2.475; stroke-dashoffset: 0; stroke: #004488; stroke-width: 1.5"/>
   </g>
   <g id="line2d_75">
    <path d="M 72.546875 340.045058 
L 89.023253 337.212458 
L 105.499631 334.836726 
L 121.976009 332.917448 
L 204.357899 327.302965 
L 369.121678 323.914953 
L 533.885458 322.315452 
" clip-path="url(#p36c292518b)" style="fill: none; stroke-dasharray: 5.55,2.4; stroke-dashoffset: 0; stroke: #ddaa33; stroke-width: 1.5"/>
   </g>
   <g id="line2d_76">
    <path d="M 72.546875 283.140389 
L 89.023253 283.040844 
L 105.499631 282.9566 
L 121.976009 282.868187 
L 204.357899 282.478702 
L 369.121678 281.868012 
L 533.885458 281.326297 
" clip-path="url(#p36c292518b)" style="fill: none; stroke: #ddaa33; stroke-width: 1.5; stroke-linecap: square"/>
   </g>
   <g id="line2d_77">
    <path d="M 72.546875 283.140385 
L 89.023253 283.040821 
L 105.499631 282.9566 
L 121.976009 282.868186 
L 204.357899 282.478702 
L 369.121678 281.868012 
L 533.885458 281.326297 
" clip-path="url(#p36c292518b)" style="fill: none; stroke-dasharray: 9.6,2.4,1.5,2.4; stroke-dashoffset: 0; stroke: #ddaa33; stroke-width: 1.5"/>
   </g>
   <g id="line2d_78">
    <path d="M 72.546875 283.112351 
L 89.023253 283.040818 
L 105.499631 282.956599 
L 121.976009 282.868186 
L 204.357899 282.478702 
L 369.121678 281.868012 
L 533.885458 281.326297 
" clip-path="url(#p36c292518b)" style="fill: none; stroke-dasharray: 1.5,2.475; stroke-dashoffset: 0; stroke: #ddaa33; stroke-width: 1.5"/>
   </g>
   <g id="line2d_79">
    <path d="M 72.546875 339.732547 
L 89.023253 336.947415 
L 105.499631 334.652101 
L 121.976009 332.82154 
L 204.357899 327.358546 
L 369.121678 323.964802 
L 533.885458 322.351563 
" clip-path="url(#p36c292518b)" style="fill: none; stroke-dasharray: 5.55,2.4; stroke-dashoffset: 0; stroke: #bb5566; stroke-width: 1.5"/>
   </g>
   <g id="line2d_80">
    <path d="M 72.546875 283.139544 
L 89.023253 283.040819 
L 105.499631 282.956599 
L 121.976009 282.868186 
L 204.357899 282.478702 
L 369.121678 281.868012 
L 533.885458 281.326297 
" clip-path="url(#p36c292518b)" style="fill: none; stroke: #bb5566; stroke-width: 1.5; stroke-linecap: square"/>
   </g>
   <g id="line2d_81">
    <path d="M 72.546875 283.140385 
L 89.023253 283.040818 
L 105.499631 282.956599 
L 121.976009 282.868179 
L 204.357899 282.478702 
L 369.121678 281.868012 
L 533.885458 281.326297 
" clip-path="url(#p36c292518b)" style="fill: none; stroke-dasharray: 9.6,2.4,1.5,2.4; stroke-dashoffset: 0; stroke: #bb5566; stroke-width: 1.5"/>
   </g>
   <g id="line2d_82">
    <path d="M 72.546875 283.140382 
L 89.023253 283.040794 
L 105.499631 282.956599 
L 121.976009 282.868186 
L 204.357899 282.478702 
L 369.121678 281.868012 
L 533.885458 281.326297 
" clip-path="url(#p36c292518b)" style="fill: none; stroke-dasharray: 1.5,2.475; stroke-dashoffset: 0; stroke: #bb5566; stroke-width: 1.5"/>
   </g>
   <g id="line2d_83">
    <path d="M 72.546875 339.174668 
L 89.023253 337.532012 
L 105.499631 336.097523 
L 121.976009 334.837576 
L 204.357899 330.485486 
L 369.121678 326.592269 
L 533.885458 324.718492 
" clip-path="url(#p36c292518b)" style="fill: none; stroke: #000000; stroke-width: 1.5; stroke-linecap: square"/>
   </g>
   <g id="line2d_84">
    <path d="M 39.594119 351.78881 
" clip-path="url(#p36c292518b)" style="fill: none; stroke-dasharray: 5.55,2.4; stroke-dashoffset: 0; stroke: #6699cc; stroke-width: 1.5"/>
   </g>
   <g id="line2d_85">
    <path d="M 39.594119 351.78881 
" clip-path="url(#p36c292518b)" style="fill: none; stroke-dasharray: 1.5,2.475; stroke-dashoffset: 0; stroke: #6699cc; stroke-width: 1.5"/>
   </g>
   <g id="line2d_86">
    <path d="M 39.594119 351.78881 
" clip-path="url(#p36c292518b)" style="fill: none; stroke-dasharray: 9.6,2.4,1.5,2.4; stroke-dashoffset: 0; stroke: #6699cc; stroke-width: 1.5"/>
   </g>
   <g id="line2d_87">
    <path d="M 39.594119 351.78881 
" clip-path="url(#p36c292518b)" style="fill: none; stroke: #6699cc; stroke-width: 1.5; stroke-linecap: square"/>
   </g>
   <g id="line2d_88">
    <path d="M 39.594119 351.78881 
" clip-path="url(#p36c292518b)" style="fill: none; stroke-dasharray: 5.55,2.4; stroke-dashoffset: 0; stroke: #004488; stroke-width: 1.5"/>
   </g>
   <g id="line2d_89">
    <path d="M 39.594119 351.78881 
" clip-path="url(#p36c292518b)" style="fill: none; stroke: #004488; stroke-width: 1.5; stroke-linecap: square"/>
   </g>
   <g id="line2d_90">
    <path d="M 39.594119 351.78881 
" clip-path="url(#p36c292518b)" style="fill: none; stroke-dasharray: 9.6,2.4,1.5,2.4; stroke-dashoffset: 0; stroke: #004488; stroke-width: 1.5"/>
   </g>
   <g id="line2d_91">
    <path d="M 39.594119 351.78881 
" clip-path="url(#p36c292518b)" style="fill: none; stroke-dasharray: 1.5,2.475; stroke-dashoffset: 0; stroke: #004488; stroke-width: 1.5"/>
   </g>
   <g id="line2d_92">
    <path d="M 39.594119 351.78881 
" clip-path="url(#p36c292518b)" style="fill: none; stroke-dasharray: 5.55,2.4; stroke-dashoffset: 0; stroke: #ddaa33; stroke-width: 1.5"/>
   </g>
   <g id="line2d_93">
    <path d="M 39.594119 351.78881 
" clip-path="url(#p36c292518b)" style="fill: none; stroke: #ddaa33; stroke-width: 1.5; stroke-linecap: square"/>
   </g>
   <g id="line2d_94">
    <path d="M 39.594119 351.78881 
" clip-path="url(#p36c292518b)" style="fill: none; stroke-dasharray: 9.6,2.4,1.5,2.4; stroke-dashoffset: 0; stroke: #ddaa33; stroke-width: 1.5"/>
   </g>
   <g id="line2d_95">
    <path d="M 39.594119 351.78881 
" clip-path="url(#p36c292518b)" style="fill: none; stroke-dasharray: 1.5,2.475; stroke-dashoffset: 0; stroke: #ddaa33; stroke-width: 1.5"/>
   </g>
   <g id="line2d_96">
    <path d="M 39.594119 351.78881 
" clip-path="url(#p36c292518b)" style="fill: none; stroke-dasharray: 5.55,2.4; stroke-dashoffset: 0; stroke: #bb5566; stroke-width: 1.5"/>
   </g>
   <g id="line2d_97">
    <path d="M 39.594119 351.78881 
" clip-path="url(#p36c292518b)" style="fill: none; stroke: #bb5566; stroke-width: 1.5; stroke-linecap: square"/>
   </g>
   <g id="line2d_98">
    <path d="M 39.594119 351.78881 
" clip-path="url(#p36c292518b)" style="fill: none; stroke-dasharray: 9.6,2.4,1.5,2.4; stroke-dashoffset: 0; stroke: #bb5566; stroke-width: 1.5"/>
   </g>
   <g id="line2d_99">
    <path d="M 39.594119 351.78881 
" clip-path="url(#p36c292518b)" style="fill: none; stroke-dasharray: 1.5,2.475; stroke-dashoffset: 0; stroke: #bb5566; stroke-width: 1.5"/>
   </g>
   <g id="line2d_100">
    <path d="M 39.594119 351.78881 
" clip-path="url(#p36c292518b)" style="fill: none; stroke: #000000; stroke-width: 1.5; stroke-linecap: square"/>
   </g>
   <g id="patch_18">
    <path d="M 72.546875 345.916934 
L 72.546875 275.454421 
" style="fill: none; stroke: #000000; stroke-width: 0.8; stroke-linejoin: miter; stroke-linecap: square"/>
   </g>
   <g id="patch_19">
    <path d="M 533.885458 345.916934 
L 533.885458 275.454421 
" style="fill: none; stroke: #000000; stroke-width: 0.8; stroke-linejoin: miter; stroke-linecap: square"/>
   </g>
   <g id="patch_20">
    <path d="M 72.546875 345.916934 
L 533.885458 345.916934 
" style="fill: none; stroke: #000000; stroke-width: 0.8; stroke-linejoin: miter; stroke-linecap: square"/>
   </g>
   <g id="patch_21">
    <path d="M 72.546875 275.454421 
L 533.885458 275.454421 
" style="fill: none; stroke: #000000; stroke-width: 0.8; stroke-linejoin: miter; stroke-linecap: square"/>
   </g>
   <g id="legend_1">
    <g id="patch_22">
     <path d="M 34.813017 475.204959 
L 570.119892 475.204959 
Q 572.519892 475.204959 572.519892 472.804959 
L 572.519892 389.133084 
Q 572.519892 386.733084 570.119892 386.733084 
L 34.813017 386.733084 
Q 32.413017 386.733084 32.413017 389.133084 
L 32.413017 472.804959 
Q 32.413017 475.204959 34.813017 475.204959 
z
" style="fill: #ffffff; opacity: 0.8; stroke: #cccccc; stroke-linejoin: miter"/>
    </g>
    <g id="line2d_101">
     <path d="M 37.213017 395.922459 
L 49.213017 395.922459 
L 61.213017 395.922459 
" style="fill: none; stroke-dasharray: 5.55,2.4; stroke-dashoffset: 0; stroke: #6699cc; stroke-width: 1.5"/>
    </g>
    <g id="text_22">
     <text style="font: 12px 'Arial'; text-anchor: start" x="70.813017" y="400.122459" transform="rotate(-0 70.813017 400.122459)">GRU Att 1</text>
    </g>
    <g id="line2d_102">
     <path d="M 37.213017 412.896834 
L 49.213017 412.896834 
L 61.213017 412.896834 
" style="fill: none; stroke-dasharray: 1.5,2.475; stroke-dashoffset: 0; stroke: #6699cc; stroke-width: 1.5"/>
    </g>
    <g id="text_23">
     <text style="font: 12px 'Arial'; text-anchor: start" x="70.813017" y="417.096834" transform="rotate(-0 70.813017 417.096834)">GRU Att 2</text>
    </g>
    <g id="line2d_103">
     <path d="M 37.213017 429.871209 
L 49.213017 429.871209 
L 61.213017 429.871209 
" style="fill: none; stroke-dasharray: 9.6,2.4,1.5,2.4; stroke-dashoffset: 0; stroke: #6699cc; stroke-width: 1.5"/>
    </g>
    <g id="text_24">
     <text style="font: 12px 'Arial'; text-anchor: start" x="70.813017" y="434.071209" transform="rotate(-0 70.813017 434.071209)">GRU Att 3</text>
    </g>
    <g id="line2d_104">
     <path d="M 37.213017 446.845584 
L 49.213017 446.845584 
L 61.213017 446.845584 
" style="fill: none; stroke: #6699cc; stroke-width: 1.5; stroke-linecap: square"/>
    </g>
    <g id="text_25">
     <text style="font: 12px 'Arial'; text-anchor: start" x="70.813017" y="451.045584" transform="rotate(-0 70.813017 451.045584)">GRU Att 4</text>
    </g>
    <g id="line2d_105">
     <path d="M 37.213017 463.819959 
L 49.213017 463.819959 
L 61.213017 463.819959 
" style="fill: none; stroke-dasharray: 5.55,2.4; stroke-dashoffset: 0; stroke: #004488; stroke-width: 1.5"/>
    </g>
    <g id="text_26">
     <text style="font: 12px 'Arial'; text-anchor: start" x="70.813017" y="468.019959" transform="rotate(-0 70.813017 468.019959)">GRU Linear</text>
    </g>
    <g id="line2d_106">
     <path d="M 158.167392 395.922459 
L 170.167392 395.922459 
L 182.167392 395.922459 
" style="fill: none; stroke: #004488; stroke-width: 1.5; stroke-linecap: square"/>
    </g>
    <g id="text_27">
     <text style="font: 12px 'Arial'; text-anchor: start" x="191.767392" y="400.122459" transform="rotate(-0 191.767392 400.122459)">GRU Reference</text>
    </g>
    <g id="line2d_107">
     <path d="M 158.167392 412.896834 
L 170.167392 412.896834 
L 182.167392 412.896834 
" style="fill: none; stroke-dasharray: 9.6,2.4,1.5,2.4; stroke-dashoffset: 0; stroke: #004488; stroke-width: 1.5"/>
    </g>
    <g id="text_28">
     <text style="font: 12px 'Arial'; text-anchor: start" x="191.767392" y="417.096834" transform="rotate(-0 191.767392 417.096834)">GRU Third</text>
    </g>
    <g id="line2d_108">
     <path d="M 158.167392 429.871209 
L 170.167392 429.871209 
L 182.167392 429.871209 
" style="fill: none; stroke-dasharray: 1.5,2.475; stroke-dashoffset: 0; stroke: #004488; stroke-width: 1.5"/>
    </g>
    <g id="text_29">
     <text style="font: 12px 'Arial'; text-anchor: start" x="191.767392" y="434.071209" transform="rotate(-0 191.767392 434.071209)">GRU Twice</text>
    </g>
    <g id="line2d_109">
     <path d="M 158.167392 446.845584 
L 170.167392 446.845584 
L 182.167392 446.845584 
" style="fill: none; stroke-dasharray: 5.55,2.4; stroke-dashoffset: 0; stroke: #ddaa33; stroke-width: 1.5"/>
    </g>
    <g id="text_30">
     <text style="font: 12px 'Arial'; text-anchor: start" x="191.767392" y="451.045584" transform="rotate(-0 191.767392 451.045584)">LSTM Linear</text>
    </g>
    <g id="line2d_110">
     <path d="M 301.128642 395.922459 
L 313.128642 395.922459 
L 325.128642 395.922459 
" style="fill: none; stroke: #ddaa33; stroke-width: 1.5; stroke-linecap: square"/>
    </g>
    <g id="text_31">
     <text style="font: 12px 'Arial'; text-anchor: start" x="334.728642" y="400.122459" transform="rotate(-0 334.728642 400.122459)">LSTM Reference</text>
    </g>
    <g id="line2d_111">
     <path d="M 301.128642 412.896834 
L 313.128642 412.896834 
L 325.128642 412.896834 
" style="fill: none; stroke-dasharray: 9.6,2.4,1.5,2.4; stroke-dashoffset: 0; stroke: #ddaa33; stroke-width: 1.5"/>
    </g>
    <g id="text_32">
     <text style="font: 12px 'Arial'; text-anchor: start" x="334.728642" y="417.096834" transform="rotate(-0 334.728642 417.096834)">LSTM Third</text>
    </g>
    <g id="line2d_112">
     <path d="M 301.128642 429.871209 
L 313.128642 429.871209 
L 325.128642 429.871209 
" style="fill: none; stroke-dasharray: 1.5,2.475; stroke-dashoffset: 0; stroke: #ddaa33; stroke-width: 1.5"/>
    </g>
    <g id="text_33">
     <text style="font: 12px 'Arial'; text-anchor: start" x="334.728642" y="434.071209" transform="rotate(-0 334.728642 434.071209)">LSTM Twice</text>
    </g>
    <g id="line2d_113">
     <path d="M 301.128642 446.845584 
L 313.128642 446.845584 
L 325.128642 446.845584 
" style="fill: none; stroke-dasharray: 5.55,2.4; stroke-dashoffset: 0; stroke: #bb5566; stroke-width: 1.5"/>
    </g>
    <g id="text_34">
     <text style="font: 12px 'Arial'; text-anchor: start" x="334.728642" y="451.045584" transform="rotate(-0 334.728642 451.045584)">RNN Linear</text>
    </g>
    <g id="line2d_114">
     <path d="M 449.426142 395.922459 
L 461.426142 395.922459 
L 473.426142 395.922459 
" style="fill: none; stroke: #bb5566; stroke-width: 1.5; stroke-linecap: square"/>
    </g>
    <g id="text_35">
     <text style="font: 12px 'Arial'; text-anchor: start" x="483.026142" y="400.122459" transform="rotate(-0 483.026142 400.122459)">RNN Reference</text>
    </g>
    <g id="line2d_115">
     <path d="M 449.426142 412.896834 
L 461.426142 412.896834 
L 473.426142 412.896834 
" style="fill: none; stroke-dasharray: 9.6,2.4,1.5,2.4; stroke-dashoffset: 0; stroke: #bb5566; stroke-width: 1.5"/>
    </g>
    <g id="text_36">
     <text style="font: 12px 'Arial'; text-anchor: start" x="483.026142" y="417.096834" transform="rotate(-0 483.026142 417.096834)">RNN Third</text>
    </g>
    <g id="line2d_116">
     <path d="M 449.426142 429.871209 
L 461.426142 429.871209 
L 473.426142 429.871209 
" style="fill: none; stroke-dasharray: 1.5,2.475; stroke-dashoffset: 0; stroke: #bb5566; stroke-width: 1.5"/>
    </g>
    <g id="text_37">
     <text style="font: 12px 'Arial'; text-anchor: start" x="483.026142" y="434.071209" transform="rotate(-0 483.026142 434.071209)">RNN Twice</text>
    </g>
    <g id="line2d_117">
     <path d="M 449.426142 446.845584 
L 461.426142 446.845584 
L 473.426142 446.845584 
" style="fill: none; stroke: #000000; stroke-width: 1.5; stroke-linecap: square"/>
    </g>
    <g id="text_38">
     <text style="font: 12px 'Arial'; text-anchor: start" x="483.026142" y="451.045584" transform="rotate(-0 483.026142 451.045584)">UniTS</text>
    </g>
   </g>
  </g>
 </g>
 <defs>
  <clipPath id="p4fd54b4124">
   <rect x="72.546875" y="21.789375" width="461.338583" height="70.462513"/>
  </clipPath>
  <clipPath id="p3c67d063a5">
   <rect x="72.546875" y="106.34439" width="461.338583" height="70.462513"/>
  </clipPath>
  <clipPath id="p64dafbd344">
   <rect x="72.546875" y="190.899406" width="461.338583" height="70.462513"/>
  </clipPath>
  <clipPath id="p36c292518b">
   <rect x="72.546875" y="275.454421" width="461.338583" height="70.462513"/>
  </clipPath>
 </defs>
</svg>
