<?xml version="1.0" encoding="utf-8" standalone="no"?>
<!DOCTYPE svg PUBLIC "-//W3C//DTD SVG 1.1//EN"
  "http://www.w3.org/Graphics/SVG/1.1/DTD/svg11.dtd">
<svg xmlns:xlink="http://www.w3.org/1999/xlink" width="580.385517pt" height="482.404959pt" viewBox="0 0 580.385517 482.404959" xmlns="http://www.w3.org/2000/svg" version="1.1">
 <metadata>
  <rdf:RDF xmlns:dc="http://purl.org/dc/elements/1.1/" xmlns:cc="http://creativecommons.org/ns#" xmlns:rdf="http://www.w3.org/1999/02/22-rdf-syntax-ns#">
   <cc:Work>
    <dc:type rdf:resource="http://purl.org/dc/dcmitype/StillImage"/>
    <dc:date>2024-10-14T08:15:47.502193</dc:date>
    <dc:format>image/svg+xml</dc:format>
    <dc:creator>
     <cc:Agent>
      <dc:title>Matplotlib v3.7.0, https://matplotlib.org/</dc:title>
     </cc:Agent>
    </dc:creator>
   </cc:Work>
  </rdf:RDF>
 </metadata>
 <defs>
  <style type="text/css">*{stroke-linejoin: round; stroke-linecap: butt}</style>
 </defs>
 <g id="figure_1">
  <g id="patch_1">
   <path d="M -0 482.404959 
L 580.385517 482.404959 
L 580.385517 -0 
L -0 -0 
z
" style="fill: #ffffff"/>
  </g>
  <g id="axes_1">
   <g id="patch_2">
    <path d="M 73.2125 92.251888 
L 534.551083 92.251888 
L 534.551083 21.789375 
L 73.2125 21.789375 
z
" style="fill: #ffffff"/>
   </g>
   <g id="matplotlib.axis_1"/>
   <g id="matplotlib.axis_2">
    <g id="ytick_1">
     <g id="line2d_1">
      <defs>
       <path id="m0736987c23" d="M 0 0 
L -3.5 0 
" style="stroke: #000000; stroke-width: 0.8"/>
      </defs>
      <g>
       <use xlink:href="#m0736987c23" x="73.2125" y="90.432627" style="stroke: #000000; stroke-width: 0.8"/>
      </g>
     </g>
     <g id="text_1">
      <text style="font: 12px 'Arial'; text-anchor: end" x="66.2125" y="94.727314" transform="rotate(-0 66.2125 94.727314)">0</text>
     </g>
    </g>
    <g id="ytick_2">
     <g id="line2d_2">
      <g>
       <use xlink:href="#m0736987c23" x="73.2125" y="55.868824" style="stroke: #000000; stroke-width: 0.8"/>
      </g>
     </g>
     <g id="text_2">
      <text style="font: 12px 'Arial'; text-anchor: end" x="66.2125" y="60.163512" transform="rotate(-0 66.2125 60.163512)">100</text>
     </g>
    </g>
    <g id="text_3">
     <!-- Heading ($\degree$) -->
     <g transform="translate(39.553125 88.040631) rotate(-90)">
      <text>
       <tspan style="font: 12px 'Arial'" x="0 8.666016 15.339844 22.013672 28.6875 31.353516 38.027344 44.701172 48.035156 58.03125" y="-0.09375">Heading ()</tspan>
       <tspan style="font: 12px 'DejaVu Sans'" x="52.03125" y="-0.09375">°</tspan>
      </text>
     </g>
    </g>
   </g>
   <g id="line2d_3">
    <path d="M 73.2125 86.380012 
L 89.688878 85.036272 
L 106.165256 83.778549 
L 122.641634 82.896733 
L 205.023524 79.164527 
L 369.787303 73.412495 
L 534.551083 68.439184 
" clip-path="url(#p053181156f)" style="fill: none; stroke-dasharray: 5.55,2.4; stroke-dashoffset: 0; stroke: #6699cc; stroke-width: 1.5"/>
   </g>
   <g id="line2d_4">
    <path d="M 73.2125 86.10504 
L 89.688878 84.832701 
L 106.165256 83.757044 
L 122.641634 82.826019 
L 205.023524 78.850395 
L 369.787303 73.491132 
L 534.551083 69.814282 
" clip-path="url(#p053181156f)" style="fill: none; stroke-dasharray: 1.5,2.475; stroke-dashoffset: 0; stroke: #6699cc; stroke-width: 1.5"/>
   </g>
   <g id="line2d_5">
    <path d="M 73.2125 86.264174 
L 89.688878 84.471177 
L 106.165256 83.144484 
L 122.641634 82.093835 
L 205.023524 78.391447 
L 369.787303 73.133535 
L 534.551083 69.495021 
" clip-path="url(#p053181156f)" style="fill: none; stroke-dasharray: 9.6,2.4,1.5,2.4; stroke-dashoffset: 0; stroke: #6699cc; stroke-width: 1.5"/>
   </g>
   <g id="line2d_6">
    <path d="M 73.2125 86.289663 
L 89.688878 84.806809 
L 106.165256 83.47528 
L 122.641634 82.504475 
L 205.023524 78.515567 
L 369.787303 73.182978 
L 534.551083 69.057211 
" clip-path="url(#p053181156f)" style="fill: none; stroke: #6699cc; stroke-width: 1.5; stroke-linecap: square"/>
   </g>
   <g id="line2d_7">
    <path d="M 73.2125 83.986463 
L 89.688878 81.787702 
L 106.165256 80.339157 
L 122.641634 78.9691 
L 205.023524 73.391673 
L 369.787303 67.095396 
L 534.551083 63.79779 
" clip-path="url(#p053181156f)" style="fill: none; stroke-dasharray: 5.55,2.4; stroke-dashoffset: 0; stroke: #004488; stroke-width: 1.5"/>
   </g>
   <g id="line2d_8">
    <path d="M 73.2125 28.228431 
L 89.688878 28.211578 
L 106.165256 28.194801 
L 122.641634 28.175873 
L 205.023524 28.093438 
L 369.787303 27.883017 
L 534.551083 27.661251 
" clip-path="url(#p053181156f)" style="fill: none; stroke: #004488; stroke-width: 1.5; stroke-linecap: square"/>
   </g>
   <g id="line2d_9">
    <path d="M 73.2125 28.228431 
L 89.688878 28.211578 
L 106.165256 28.194801 
L 122.641634 28.175873 
L 205.023524 28.093438 
L 369.787303 27.883017 
L 534.551083 27.661251 
" clip-path="url(#p053181156f)" style="fill: none; stroke-dasharray: 9.6,2.4,1.5,2.4; stroke-dashoffset: 0; stroke: #004488; stroke-width: 1.5"/>
   </g>
   <g id="line2d_10">
    <path d="M 73.2125 28.228431 
L 89.688878 28.211578 
L 106.165256 28.194801 
L 122.641634 28.175873 
L 205.023524 28.093438 
L 369.787303 27.883017 
L 534.551083 27.661251 
" clip-path="url(#p053181156f)" style="fill: none; stroke-dasharray: 1.5,2.475; stroke-dashoffset: 0; stroke: #004488; stroke-width: 1.5"/>
   </g>
   <g id="line2d_11">
    <path d="M 73.2125 84.394332 
L 89.688878 82.293543 
L 106.165256 79.74537 
L 122.641634 79.277582 
L 205.023524 74.371227 
L 369.787303 68.463254 
L 534.551083 65.243712 
" clip-path="url(#p053181156f)" style="fill: none; stroke-dasharray: 5.55,2.4; stroke-dashoffset: 0; stroke: #ddaa33; stroke-width: 1.5"/>
   </g>
   <g id="line2d_12">
    <path d="M 73.2125 28.228431 
L 89.688878 28.211578 
L 106.165256 28.194801 
L 122.641634 28.175873 
L 205.023524 28.093438 
L 369.787303 27.883017 
L 534.551083 27.661251 
" clip-path="url(#p053181156f)" style="fill: none; stroke: #ddaa33; stroke-width: 1.5; stroke-linecap: square"/>
   </g>
   <g id="line2d_13">
    <path d="M 73.2125 28.228431 
L 89.688878 28.211578 
L 106.165256 28.194801 
L 122.641634 28.175873 
L 205.023524 28.093438 
L 369.787303 27.883017 
L 534.551083 27.661251 
" clip-path="url(#p053181156f)" style="fill: none; stroke-dasharray: 9.6,2.4,1.5,2.4; stroke-dashoffset: 0; stroke: #ddaa33; stroke-width: 1.5"/>
   </g>
   <g id="line2d_14">
    <path d="M 73.2125 28.228431 
L 89.688878 28.211578 
L 106.165256 28.194801 
L 122.641634 28.175873 
L 205.023524 28.093438 
L 369.787303 27.883017 
L 534.551083 27.661251 
" clip-path="url(#p053181156f)" style="fill: none; stroke-dasharray: 1.5,2.475; stroke-dashoffset: 0; stroke: #ddaa33; stroke-width: 1.5"/>
   </g>
   <g id="line2d_15">
    <path d="M 73.2125 84.173139 
L 89.688878 82.121839 
L 106.165256 80.467783 
L 122.641634 79.14025 
L 205.023524 73.994616 
L 369.787303 67.353725 
L 534.551083 64.053573 
" clip-path="url(#p053181156f)" style="fill: none; stroke-dasharray: 5.55,2.4; stroke-dashoffset: 0; stroke: #bb5566; stroke-width: 1.5"/>
   </g>
   <g id="line2d_16">
    <path d="M 73.2125 28.228431 
L 89.688878 28.211578 
L 106.165256 28.194801 
L 122.641634 28.175873 
L 205.023524 28.093438 
L 369.787303 27.883017 
L 534.551083 27.661251 
" clip-path="url(#p053181156f)" style="fill: none; stroke: #bb5566; stroke-width: 1.5; stroke-linecap: square"/>
   </g>
   <g id="line2d_17">
    <path d="M 73.2125 28.228431 
L 89.688878 28.211578 
L 106.165256 28.194801 
L 122.641634 28.175873 
L 205.023524 28.093438 
L 369.787303 27.883017 
L 534.551083 27.661251 
" clip-path="url(#p053181156f)" style="fill: none; stroke-dasharray: 9.6,2.4,1.5,2.4; stroke-dashoffset: 0; stroke: #bb5566; stroke-width: 1.5"/>
   </g>
   <g id="line2d_18">
    <path d="M 73.2125 28.228431 
L 89.688878 28.211578 
L 106.165256 28.194801 
L 122.641634 28.175873 
L 205.023524 28.093438 
L 369.787303 27.883017 
L 534.551083 27.661251 
" clip-path="url(#p053181156f)" style="fill: none; stroke-dasharray: 1.5,2.475; stroke-dashoffset: 0; stroke: #bb5566; stroke-width: 1.5"/>
   </g>
   <g id="line2d_19">
    <path d="M 73.2125 84.869278 
L 89.688878 83.710045 
L 106.165256 82.703505 
L 122.641634 81.813857 
L 205.023524 78.413672 
L 369.787303 74.076537 
L 534.551083 71.209876 
" clip-path="url(#p053181156f)" style="fill: none; stroke: #000000; stroke-width: 1.5; stroke-linecap: square"/>
   </g>
   <g id="patch_3">
    <path d="M 73.2125 92.251888 
L 73.2125 21.789375 
" style="fill: none; stroke: #000000; stroke-width: 0.8; stroke-linejoin: miter; stroke-linecap: square"/>
   </g>
   <g id="patch_4">
    <path d="M 534.551083 92.251888 
L 534.551083 21.789375 
" style="fill: none; stroke: #000000; stroke-width: 0.8; stroke-linejoin: miter; stroke-linecap: square"/>
   </g>
   <g id="patch_5">
    <path d="M 73.2125 92.251888 
L 534.551083 92.251888 
" style="fill: none; stroke: #000000; stroke-width: 0.8; stroke-linejoin: miter; stroke-linecap: square"/>
   </g>
   <g id="patch_6">
    <path d="M 73.2125 21.789375 
L 534.551083 21.789375 
" style="fill: none; stroke: #000000; stroke-width: 0.8; stroke-linejoin: miter; stroke-linecap: square"/>
   </g>
   <g id="text_4">
    <text style="font: 12px 'Arial'; text-anchor: middle" x="303.881791" y="15.789375" transform="rotate(-0 303.881791 15.789375)">MAE</text>
   </g>
  </g>
  <g id="axes_2">
   <g id="patch_7">
    <path d="M 73.2125 176.806903 
L 534.551083 176.806903 
L 534.551083 106.34439 
L 73.2125 106.34439 
z
" style="fill: #ffffff"/>
   </g>
   <g id="matplotlib.axis_3"/>
   <g id="matplotlib.axis_4">
    <g id="ytick_3">
     <g id="line2d_20">
      <g>
       <use xlink:href="#m0736987c23" x="73.2125" y="146.676889" style="stroke: #000000; stroke-width: 0.8"/>
      </g>
     </g>
     <g id="text_5">
      <text style="font: 12px 'Arial'; text-anchor: end" x="66.2125" y="150.971577" transform="rotate(-0 66.2125 150.971577)">0.0002</text>
     </g>
    </g>
    <g id="ytick_4">
     <g id="line2d_21">
      <g>
       <use xlink:href="#m0736987c23" x="73.2125" y="113.136089" style="stroke: #000000; stroke-width: 0.8"/>
      </g>
     </g>
     <g id="text_6">
      <text style="font: 12px 'Arial'; text-anchor: end" x="66.2125" y="117.430776" transform="rotate(-0 66.2125 117.430776)">0.0004</text>
     </g>
    </g>
    <g id="text_7">
     <!-- $y$ offset ($\degree$) -->
     <g transform="translate(22.873125 170.135647) rotate(-90)">
      <text>
       <tspan style="font: oblique 12px 'DejaVu Sans'" x="0" y="-0.09375">y</tspan>
       <tspan style="font: 12px 'Arial'" x="7.101562 10.435547 17.109375 20.443359 23.777344 29.777344 36.451172 39.785156 43.119141 53.115234" y="-0.09375"> offset ()</tspan>
       <tspan style="font: 12px 'DejaVu Sans'" x="47.115234" y="-0.09375">°</tspan>
      </text>
     </g>
    </g>
   </g>
   <g id="line2d_22">
    <path d="M 73.2125 170.935027 
L 89.688878 167.769364 
L 106.165256 165.381651 
L 122.641634 163.244274 
L 205.023524 145.713692 
L 369.787303 132.844505 
L 534.551083 125.619027 
" clip-path="url(#p3246b17c67)" style="fill: none; stroke-dasharray: 5.55,2.4; stroke-dashoffset: 0; stroke: #6699cc; stroke-width: 1.5"/>
   </g>
   <g id="line2d_23">
    <path d="M 73.2125 169.887404 
L 89.688878 167.028169 
L 106.165256 165.494951 
L 122.641634 163.312613 
L 205.023524 152.614447 
L 369.787303 140.264348 
L 534.551083 130.586174 
" clip-path="url(#p3246b17c67)" style="fill: none; stroke-dasharray: 1.5,2.475; stroke-dashoffset: 0; stroke: #6699cc; stroke-width: 1.5"/>
   </g>
   <g id="line2d_24">
    <path d="M 73.2125 169.43133 
L 89.688878 165.588011 
L 106.165256 162.604186 
L 122.641634 160.312036 
L 205.023524 150.396432 
L 369.787303 136.990914 
L 534.551083 127.730067 
" clip-path="url(#p3246b17c67)" style="fill: none; stroke-dasharray: 9.6,2.4,1.5,2.4; stroke-dashoffset: 0; stroke: #6699cc; stroke-width: 1.5"/>
   </g>
   <g id="line2d_25">
    <path d="M 73.2125 170.426519 
L 89.688878 166.467658 
L 106.165256 163.615864 
L 122.641634 161.205999 
L 205.023524 153.173106 
L 369.787303 135.449599 
L 534.551083 125.95634 
" clip-path="url(#p3246b17c67)" style="fill: none; stroke: #6699cc; stroke-width: 1.5; stroke-linecap: square"/>
   </g>
   <g id="line2d_26">
    <path d="M 73.2125 167.589029 
L 89.688878 160.739108 
L 106.165256 157.607252 
L 122.641634 153.046285 
L 205.023524 138.356272 
L 369.787303 122.813091 
L 534.551083 114.767775 
" clip-path="url(#p3246b17c67)" style="fill: none; stroke-dasharray: 5.55,2.4; stroke-dashoffset: 0; stroke: #004488; stroke-width: 1.5"/>
   </g>
   <g id="line2d_27">
    <path d="M 73.2125 168.225414 
L 89.688878 160.713721 
L 106.165256 155.637752 
L 122.641634 151.580531 
L 205.023524 139.235326 
L 369.787303 122.876858 
L 534.551083 114.008687 
" clip-path="url(#p3246b17c67)" style="fill: none; stroke: #004488; stroke-width: 1.5; stroke-linecap: square"/>
   </g>
   <g id="line2d_28">
    <path d="M 73.2125 165.500412 
L 89.688878 161.062519 
L 106.165256 154.377696 
L 122.641634 151.96093 
L 205.023524 138.572746 
L 369.787303 121.883962 
L 534.551083 113.782377 
" clip-path="url(#p3246b17c67)" style="fill: none; stroke-dasharray: 9.6,2.4,1.5,2.4; stroke-dashoffset: 0; stroke: #004488; stroke-width: 1.5"/>
   </g>
   <g id="line2d_29">
    <path d="M 73.2125 166.87459 
L 89.688878 162.230838 
L 106.165256 155.218785 
L 122.641634 152.509094 
L 205.023524 139.074329 
L 369.787303 122.630147 
L 534.551083 114.781572 
" clip-path="url(#p3246b17c67)" style="fill: none; stroke-dasharray: 1.5,2.475; stroke-dashoffset: 0; stroke: #004488; stroke-width: 1.5"/>
   </g>
   <g id="line2d_30">
    <path d="M 73.2125 163.581992 
L 89.688878 160.91055 
L 106.165256 156.353036 
L 122.641634 151.847969 
L 205.023524 139.728482 
L 369.787303 124.040485 
L 534.551083 114.425272 
" clip-path="url(#p3246b17c67)" style="fill: none; stroke-dasharray: 5.55,2.4; stroke-dashoffset: 0; stroke: #ddaa33; stroke-width: 1.5"/>
   </g>
   <g id="line2d_31">
    <path d="M 73.2125 166.105843 
L 89.688878 159.885734 
L 106.165256 156.367911 
L 122.641634 153.04533 
L 205.023524 139.657159 
L 369.787303 122.382551 
L 534.551083 115.388252 
" clip-path="url(#p3246b17c67)" style="fill: none; stroke: #ddaa33; stroke-width: 1.5; stroke-linecap: square"/>
   </g>
   <g id="line2d_32">
    <path d="M 73.2125 164.323524 
L 89.688878 161.865495 
L 106.165256 155.447142 
L 122.641634 152.976185 
L 205.023524 138.53595 
L 369.787303 121.830885 
L 534.551083 113.313855 
" clip-path="url(#p3246b17c67)" style="fill: none; stroke-dasharray: 9.6,2.4,1.5,2.4; stroke-dashoffset: 0; stroke: #ddaa33; stroke-width: 1.5"/>
   </g>
   <g id="line2d_33">
    <path d="M 73.2125 134.484373 
L 89.688878 133.809999 
L 106.165256 140.733233 
L 122.641634 142.26239 
L 205.023524 138.113052 
L 369.787303 121.109272 
L 534.551083 114.528277 
" clip-path="url(#p3246b17c67)" style="fill: none; stroke-dasharray: 1.5,2.475; stroke-dashoffset: 0; stroke: #ddaa33; stroke-width: 1.5"/>
   </g>
   <g id="line2d_34">
    <path d="M 73.2125 136.402517 
L 89.688878 149.464715 
L 106.165256 144.624934 
L 122.641634 146.461892 
L 205.023524 138.669623 
L 369.787303 121.272049 
L 534.551083 115.204466 
" clip-path="url(#p3246b17c67)" style="fill: none; stroke-dasharray: 5.55,2.4; stroke-dashoffset: 0; stroke: #bb5566; stroke-width: 1.5"/>
   </g>
   <g id="line2d_35">
    <path d="M 73.2125 139.273358 
L 89.688878 136.788949 
L 106.165256 150.45031 
L 122.641634 147.739915 
L 205.023524 137.566518 
L 369.787303 121.642887 
L 534.551083 114.044626 
" clip-path="url(#p3246b17c67)" style="fill: none; stroke: #bb5566; stroke-width: 1.5; stroke-linecap: square"/>
   </g>
   <g id="line2d_36">
    <path d="M 73.2125 149.101151 
L 89.688878 155.274192 
L 106.165256 154.343712 
L 122.641634 152.257329 
L 205.023524 138.42315 
L 369.787303 119.861353 
L 534.551083 112.216266 
" clip-path="url(#p3246b17c67)" style="fill: none; stroke-dasharray: 9.6,2.4,1.5,2.4; stroke-dashoffset: 0; stroke: #bb5566; stroke-width: 1.5"/>
   </g>
   <g id="line2d_37">
    <path d="M 73.2125 113.215046 
L 89.688878 118.343899 
L 106.165256 118.69441 
L 122.641634 120.969248 
L 205.023524 128.580792 
L 369.787303 116.697573 
L 534.551083 113.878837 
" clip-path="url(#p3246b17c67)" style="fill: none; stroke-dasharray: 1.5,2.475; stroke-dashoffset: 0; stroke: #bb5566; stroke-width: 1.5"/>
   </g>
   <g id="line2d_38">
    <path d="M 73.2125 168.236779 
L 89.688878 165.588499 
L 106.165256 163.222866 
L 122.641634 161.079476 
L 205.023524 152.583018 
L 369.787303 141.503413 
L 534.551083 134.582825 
" clip-path="url(#p3246b17c67)" style="fill: none; stroke: #000000; stroke-width: 1.5; stroke-linecap: square"/>
   </g>
   <g id="patch_8">
    <path d="M 73.2125 176.806903 
L 73.2125 106.34439 
" style="fill: none; stroke: #000000; stroke-width: 0.8; stroke-linejoin: miter; stroke-linecap: square"/>
   </g>
   <g id="patch_9">
    <path d="M 534.551083 176.806903 
L 534.551083 106.34439 
" style="fill: none; stroke: #000000; stroke-width: 0.8; stroke-linejoin: miter; stroke-linecap: square"/>
   </g>
   <g id="patch_10">
    <path d="M 73.2125 176.806903 
L 534.551083 176.806903 
" style="fill: none; stroke: #000000; stroke-width: 0.8; stroke-linejoin: miter; stroke-linecap: square"/>
   </g>
   <g id="patch_11">
    <path d="M 73.2125 106.34439 
L 534.551083 106.34439 
" style="fill: none; stroke: #000000; stroke-width: 0.8; stroke-linejoin: miter; stroke-linecap: square"/>
   </g>
  </g>
  <g id="axes_3">
   <g id="patch_12">
    <path d="M 73.2125 261.361919 
L 534.551083 261.361919 
L 534.551083 190.899406 
L 73.2125 190.899406 
z
" style="fill: #ffffff"/>
   </g>
   <g id="matplotlib.axis_5"/>
   <g id="matplotlib.axis_6">
    <g id="ytick_5">
     <g id="line2d_39">
      <g>
       <use xlink:href="#m0736987c23" x="73.2125" y="231.570336" style="stroke: #000000; stroke-width: 0.8"/>
      </g>
     </g>
     <g id="text_8">
      <text style="font: 12px 'Arial'; text-anchor: end" x="66.2125" y="235.865024" transform="rotate(-0 66.2125 235.865024)">0.00025</text>
     </g>
    </g>
    <g id="ytick_6">
     <g id="line2d_40">
      <g>
       <use xlink:href="#m0736987c23" x="73.2125" y="198.767833" style="stroke: #000000; stroke-width: 0.8"/>
      </g>
     </g>
     <g id="text_9">
      <text style="font: 12px 'Arial'; text-anchor: end" x="66.2125" y="203.06252" transform="rotate(-0 66.2125 203.06252)">0.00050</text>
     </g>
    </g>
    <g id="text_10">
     <!-- $x$ offset ($\degree$) -->
     <g transform="translate(16.2 254.690662) rotate(-90)">
      <text>
       <tspan style="font: oblique 12px 'DejaVu Sans'" x="0" y="-0.09375">x</tspan>
       <tspan style="font: 12px 'Arial'" x="7.101562 10.435547 17.109375 20.443359 23.777344 29.777344 36.451172 39.785156 43.119141 53.115234" y="-0.09375"> offset ()</tspan>
       <tspan style="font: 12px 'DejaVu Sans'" x="47.115234" y="-0.09375">°</tspan>
      </text>
     </g>
    </g>
   </g>
   <g id="line2d_41">
    <path d="M 73.2125 255.490043 
L 89.688878 252.469913 
L 106.165256 249.50584 
L 122.641634 247.697236 
L 205.023524 231.244435 
L 369.787303 214.757071 
L 534.551083 208.71598 
" clip-path="url(#p2028edeca4)" style="fill: none; stroke-dasharray: 5.55,2.4; stroke-dashoffset: 0; stroke: #6699cc; stroke-width: 1.5"/>
   </g>
   <g id="line2d_42">
    <path d="M 73.2125 255.037706 
L 89.688878 251.759566 
L 106.165256 249.259685 
L 122.641634 247.239586 
L 205.023524 237.475139 
L 369.787303 222.730841 
L 534.551083 211.330252 
" clip-path="url(#p2028edeca4)" style="fill: none; stroke-dasharray: 1.5,2.475; stroke-dashoffset: 0; stroke: #6699cc; stroke-width: 1.5"/>
   </g>
   <g id="line2d_43">
    <path d="M 73.2125 254.258725 
L 89.688878 250.805794 
L 106.165256 248.203676 
L 122.641634 245.4698 
L 205.023524 234.383868 
L 369.787303 218.72938 
L 534.551083 208.083979 
" clip-path="url(#p2028edeca4)" style="fill: none; stroke-dasharray: 9.6,2.4,1.5,2.4; stroke-dashoffset: 0; stroke: #6699cc; stroke-width: 1.5"/>
   </g>
   <g id="line2d_44">
    <path d="M 73.2125 254.997238 
L 89.688878 251.226074 
L 106.165256 248.573991 
L 122.641634 245.642828 
L 205.023524 236.262245 
L 369.787303 218.100961 
L 534.551083 207.784394 
" clip-path="url(#p2028edeca4)" style="fill: none; stroke: #6699cc; stroke-width: 1.5; stroke-linecap: square"/>
   </g>
   <g id="line2d_45">
    <path d="M 73.2125 252.297457 
L 89.688878 246.570143 
L 106.165256 240.466688 
L 122.641634 238.374355 
L 205.023524 224.227994 
L 369.787303 205.394422 
L 534.551083 197.646007 
" clip-path="url(#p2028edeca4)" style="fill: none; stroke-dasharray: 5.55,2.4; stroke-dashoffset: 0; stroke: #004488; stroke-width: 1.5"/>
   </g>
   <g id="line2d_46">
    <path d="M 73.2125 252.00292 
L 89.688878 245.134059 
L 106.165256 241.814294 
L 122.641634 238.22952 
L 205.023524 224.455849 
L 369.787303 206.373604 
L 534.551083 197.6167 
" clip-path="url(#p2028edeca4)" style="fill: none; stroke: #004488; stroke-width: 1.5; stroke-linecap: square"/>
   </g>
   <g id="line2d_47">
    <path d="M 73.2125 253.344514 
L 89.688878 245.409318 
L 106.165256 239.993815 
L 122.641634 237.386066 
L 205.023524 223.319399 
L 369.787303 205.462131 
L 534.551083 197.73711 
" clip-path="url(#p2028edeca4)" style="fill: none; stroke-dasharray: 9.6,2.4,1.5,2.4; stroke-dashoffset: 0; stroke: #004488; stroke-width: 1.5"/>
   </g>
   <g id="line2d_48">
    <path d="M 73.2125 252.701423 
L 89.688878 245.911835 
L 106.165256 241.553776 
L 122.641634 237.519258 
L 205.023524 224.107342 
L 369.787303 207.210332 
L 534.551083 197.962687 
" clip-path="url(#p2028edeca4)" style="fill: none; stroke-dasharray: 1.5,2.475; stroke-dashoffset: 0; stroke: #004488; stroke-width: 1.5"/>
   </g>
   <g id="line2d_49">
    <path d="M 73.2125 252.096637 
L 89.688878 245.857328 
L 106.165256 242.090756 
L 122.641634 236.883437 
L 205.023524 224.004225 
L 369.787303 205.953458 
L 534.551083 199.33649 
" clip-path="url(#p2028edeca4)" style="fill: none; stroke-dasharray: 5.55,2.4; stroke-dashoffset: 0; stroke: #ddaa33; stroke-width: 1.5"/>
   </g>
   <g id="line2d_50">
    <path d="M 73.2125 252.168824 
L 89.688878 244.952918 
L 106.165256 239.961785 
L 122.641634 238.071567 
L 205.023524 224.360406 
L 369.787303 207.215487 
L 534.551083 198.101993 
" clip-path="url(#p2028edeca4)" style="fill: none; stroke: #ddaa33; stroke-width: 1.5; stroke-linecap: square"/>
   </g>
   <g id="line2d_51">
    <path d="M 73.2125 253.392318 
L 89.688878 244.926698 
L 106.165256 241.266711 
L 122.641634 236.131034 
L 205.023524 224.116018 
L 369.787303 205.904355 
L 534.551083 198.180562 
" clip-path="url(#p2028edeca4)" style="fill: none; stroke-dasharray: 9.6,2.4,1.5,2.4; stroke-dashoffset: 0; stroke: #ddaa33; stroke-width: 1.5"/>
   </g>
   <g id="line2d_52">
    <path d="M 73.2125 232.132757 
L 89.688878 241.651366 
L 106.165256 240.860222 
L 122.641634 237.178247 
L 205.023524 224.581373 
L 369.787303 206.437784 
L 534.551083 199.024839 
" clip-path="url(#p2028edeca4)" style="fill: none; stroke-dasharray: 1.5,2.475; stroke-dashoffset: 0; stroke: #ddaa33; stroke-width: 1.5"/>
   </g>
   <g id="line2d_53">
    <path d="M 73.2125 231.765515 
L 89.688878 232.253459 
L 106.165256 236.303526 
L 122.641634 236.636839 
L 205.023524 223.461521 
L 369.787303 205.945324 
L 534.551083 197.003867 
" clip-path="url(#p2028edeca4)" style="fill: none; stroke-dasharray: 5.55,2.4; stroke-dashoffset: 0; stroke: #bb5566; stroke-width: 1.5"/>
   </g>
   <g id="line2d_54">
    <path d="M 73.2125 230.180225 
L 89.688878 237.3086 
L 106.165256 238.086127 
L 122.641634 234.766093 
L 205.023524 223.813302 
L 369.787303 206.03471 
L 534.551083 197.143782 
" clip-path="url(#p2028edeca4)" style="fill: none; stroke: #bb5566; stroke-width: 1.5; stroke-linecap: square"/>
   </g>
   <g id="line2d_55">
    <path d="M 73.2125 246.733936 
L 89.688878 244.381815 
L 106.165256 238.918061 
L 122.641634 234.613752 
L 205.023524 223.848648 
L 369.787303 203.862382 
L 534.551083 196.771282 
" clip-path="url(#p2028edeca4)" style="fill: none; stroke-dasharray: 9.6,2.4,1.5,2.4; stroke-dashoffset: 0; stroke: #bb5566; stroke-width: 1.5"/>
   </g>
   <g id="line2d_56">
    <path d="M 73.2125 212.827431 
L 89.688878 216.859659 
L 106.165256 210.078215 
L 122.641634 215.691043 
L 205.023524 217.740498 
L 369.787303 205.147815 
L 534.551083 197.315779 
" clip-path="url(#p2028edeca4)" style="fill: none; stroke-dasharray: 1.5,2.475; stroke-dashoffset: 0; stroke: #bb5566; stroke-width: 1.5"/>
   </g>
   <g id="line2d_57">
    <path d="M 73.2125 252.608821 
L 89.688878 249.96328 
L 106.165256 247.602306 
L 122.641634 245.46236 
L 205.023524 236.907586 
L 369.787303 225.58512 
L 534.551083 218.450694 
" clip-path="url(#p2028edeca4)" style="fill: none; stroke: #000000; stroke-width: 1.5; stroke-linecap: square"/>
   </g>
   <g id="patch_13">
    <path d="M 73.2125 261.361919 
L 73.2125 190.899406 
" style="fill: none; stroke: #000000; stroke-width: 0.8; stroke-linejoin: miter; stroke-linecap: square"/>
   </g>
   <g id="patch_14">
    <path d="M 534.551083 261.361919 
L 534.551083 190.899406 
" style="fill: none; stroke: #000000; stroke-width: 0.8; stroke-linejoin: miter; stroke-linecap: square"/>
   </g>
   <g id="patch_15">
    <path d="M 73.2125 261.361919 
L 534.551083 261.361919 
" style="fill: none; stroke: #000000; stroke-width: 0.8; stroke-linejoin: miter; stroke-linecap: square"/>
   </g>
   <g id="patch_16">
    <path d="M 73.2125 190.899406 
L 534.551083 190.899406 
" style="fill: none; stroke: #000000; stroke-width: 0.8; stroke-linejoin: miter; stroke-linecap: square"/>
   </g>
  </g>
  <g id="axes_4">
   <g id="patch_17">
    <path d="M 73.2125 345.916934 
L 534.551083 345.916934 
L 534.551083 275.454421 
L 73.2125 275.454421 
z
" style="fill: #ffffff"/>
   </g>
   <g id="matplotlib.axis_7">
    <g id="xtick_1">
     <g id="line2d_58">
      <defs>
       <path id="m378279f808" d="M 0 0 
L 0 3.5 
" style="stroke: #000000; stroke-width: 0.8"/>
      </defs>
      <g>
       <use xlink:href="#m378279f808" x="73.2125" y="345.916934" style="stroke: #000000; stroke-width: 0.8"/>
      </g>
     </g>
     <g id="text_11">
      <text style="font: 12px 'Arial'; text-anchor: middle" x="73.2125" y="361.506309" transform="rotate(-0 73.2125 361.506309)">2</text>
     </g>
    </g>
    <g id="xtick_2">
     <g id="line2d_59">
      <g>
       <use xlink:href="#m378279f808" x="89.688878" y="345.916934" style="stroke: #000000; stroke-width: 0.8"/>
      </g>
     </g>
     <g id="text_12">
      <text style="font: 12px 'Arial'; text-anchor: middle" x="89.688878" y="361.506309" transform="rotate(-0 89.688878 361.506309)">3</text>
     </g>
    </g>
    <g id="xtick_3">
     <g id="line2d_60">
      <g>
       <use xlink:href="#m378279f808" x="106.165256" y="345.916934" style="stroke: #000000; stroke-width: 0.8"/>
      </g>
     </g>
     <g id="text_13">
      <text style="font: 12px 'Arial'; text-anchor: middle" x="106.165256" y="361.506309" transform="rotate(-0 106.165256 361.506309)">4</text>
     </g>
    </g>
    <g id="xtick_4">
     <g id="line2d_61">
      <g>
       <use xlink:href="#m378279f808" x="122.641634" y="345.916934" style="stroke: #000000; stroke-width: 0.8"/>
      </g>
     </g>
     <g id="text_14">
      <text style="font: 12px 'Arial'; text-anchor: middle" x="122.641634" y="361.506309" transform="rotate(-0 122.641634 361.506309)">5</text>
     </g>
    </g>
    <g id="xtick_5">
     <g id="line2d_62">
      <g>
       <use xlink:href="#m378279f808" x="205.023524" y="345.916934" style="stroke: #000000; stroke-width: 0.8"/>
      </g>
     </g>
     <g id="text_15">
      <text style="font: 12px 'Arial'; text-anchor: middle" x="205.023524" y="361.506309" transform="rotate(-0 205.023524 361.506309)">10</text>
     </g>
    </g>
    <g id="xtick_6">
     <g id="line2d_63">
      <g>
       <use xlink:href="#m378279f808" x="369.787303" y="345.916934" style="stroke: #000000; stroke-width: 0.8"/>
      </g>
     </g>
     <g id="text_16">
      <text style="font: 12px 'Arial'; text-anchor: middle" x="369.787303" y="361.506309" transform="rotate(-0 369.787303 361.506309)">20</text>
     </g>
    </g>
    <g id="xtick_7">
     <g id="line2d_64">
      <g>
       <use xlink:href="#m378279f808" x="534.551083" y="345.916934" style="stroke: #000000; stroke-width: 0.8"/>
      </g>
     </g>
     <g id="text_17">
      <text style="font: 12px 'Arial'; text-anchor: middle" x="534.551083" y="361.506309" transform="rotate(-0 534.551083 361.506309)">30</text>
     </g>
    </g>
    <g id="text_18">
     <text style="font: 12px 'Arial'; text-anchor: middle" x="303.881791" y="376.480684" transform="rotate(-0 303.881791 376.480684)">Forecasting time</text>
    </g>
   </g>
   <g id="matplotlib.axis_8">
    <g id="ytick_7">
     <g id="line2d_65">
      <g>
       <use xlink:href="#m0736987c23" x="73.2125" y="317.636079" style="stroke: #000000; stroke-width: 0.8"/>
      </g>
     </g>
     <g id="text_19">
      <text style="font: 12px 'Arial'; text-anchor: end" x="66.2125" y="321.930766" transform="rotate(-0 66.2125 321.930766)">10</text>
     </g>
    </g>
    <g id="ytick_8">
     <g id="line2d_66">
      <g>
       <use xlink:href="#m0736987c23" x="73.2125" y="287.95226" style="stroke: #000000; stroke-width: 0.8"/>
      </g>
     </g>
     <g id="text_20">
      <text style="font: 12px 'Arial'; text-anchor: end" x="66.2125" y="292.246947" transform="rotate(-0 66.2125 292.246947)">20</text>
     </g>
    </g>
    <g id="text_21">
     <!-- Speed ($km/h$) -->
     <g transform="translate(46.22625 348.845678) rotate(-90)">
      <text>
       <tspan style="font: 12px 'Arial'" x="0 8.003906 14.677734 21.351562 28.025391 34.699219 38.033203 72.316406" y="-0.875">Speed ()</tspan>
       <tspan style="font: oblique 12px 'DejaVu Sans'" x="42.029297 48.978516 64.710938" y="-0.875">kmh</tspan>
       <tspan style="font: 12px 'DejaVu Sans'" x="60.667969" y="-0.875">/</tspan>
      </text>
     </g>
    </g>
   </g>
   <g id="line2d_67">
    <path d="M 73.2125 339.359152 
L 89.688878 336.221413 
L 106.165256 334.59983 
L 122.641634 334.123865 
L 205.023524 330.341234 
L 369.787303 324.511735 
L 534.551083 321.561924 
" clip-path="url(#p8bb6b34619)" style="fill: none; stroke-dasharray: 5.55,2.4; stroke-dashoffset: 0; stroke: #6699cc; stroke-width: 1.5"/>
   </g>
   <g id="line2d_68">
    <path d="M 73.2125 339.436741 
L 89.688878 336.37018 
L 106.165256 334.409534 
L 122.641634 332.836959 
L 205.023524 328.872417 
L 369.787303 323.390605 
L 534.551083 320.331149 
" clip-path="url(#p8bb6b34619)" style="fill: none; stroke-dasharray: 1.5,2.475; stroke-dashoffset: 0; stroke: #6699cc; stroke-width: 1.5"/>
   </g>
   <g id="line2d_69">
    <path d="M 73.2125 339.395241 
L 89.688878 336.331116 
L 106.165256 334.008318 
L 122.641634 331.983732 
L 205.023524 326.88041 
L 369.787303 322.337981 
L 534.551083 318.416544 
" clip-path="url(#p8bb6b34619)" style="fill: none; stroke-dasharray: 9.6,2.4,1.5,2.4; stroke-dashoffset: 0; stroke: #6699cc; stroke-width: 1.5"/>
   </g>
   <g id="line2d_70">
    <path d="M 73.2125 339.234179 
L 89.688878 336.06412 
L 106.165256 333.629678 
L 122.641634 331.696132 
L 205.023524 326.652709 
L 369.787303 322.796269 
L 534.551083 318.981649 
" clip-path="url(#p8bb6b34619)" style="fill: none; stroke: #6699cc; stroke-width: 1.5; stroke-linecap: square"/>
   </g>
   <g id="line2d_71">
    <path d="M 73.2125 339.902071 
L 89.688878 336.976644 
L 106.165256 334.495401 
L 122.641634 332.715784 
L 205.023524 326.893435 
L 369.787303 323.527503 
L 534.551083 322.021079 
" clip-path="url(#p8bb6b34619)" style="fill: none; stroke-dasharray: 5.55,2.4; stroke-dashoffset: 0; stroke: #004488; stroke-width: 1.5"/>
   </g>
   <g id="line2d_72">
    <path d="M 73.2125 283.140396 
L 89.688878 283.040875 
L 106.165256 282.956599 
L 122.641634 282.868187 
L 205.023524 282.478702 
L 369.787303 281.868012 
L 534.551083 281.326297 
" clip-path="url(#p8bb6b34619)" style="fill: none; stroke: #004488; stroke-width: 1.5; stroke-linecap: square"/>
   </g>
   <g id="line2d_73">
    <path d="M 73.2125 283.14039 
L 89.688878 283.040819 
L 106.165256 282.956599 
L 122.641634 282.868186 
L 205.023524 282.478702 
L 369.787303 281.868012 
L 534.551083 281.326297 
" clip-path="url(#p8bb6b34619)" style="fill: none; stroke-dasharray: 9.6,2.4,1.5,2.4; stroke-dashoffset: 0; stroke: #004488; stroke-width: 1.5"/>
   </g>
   <g id="line2d_74">
    <path d="M 73.2125 283.140386 
L 89.688878 283.040817 
L 106.165256 282.956599 
L 122.641634 282.868187 
L 205.023524 282.478702 
L 369.787303 281.868012 
L 534.551083 281.326297 
" clip-path="url(#p8bb6b34619)" style="fill: none; stroke-dasharray: 1.5,2.475; stroke-dashoffset: 0; stroke: #004488; stroke-width: 1.5"/>
   </g>
   <g id="line2d_75">
    <path d="M 73.2125 340.045058 
L 89.688878 337.212458 
L 106.165256 334.836726 
L 122.641634 332.917448 
L 205.023524 327.302965 
L 369.787303 323.914953 
L 534.551083 322.315452 
" clip-path="url(#p8bb6b34619)" style="fill: none; stroke-dasharray: 5.55,2.4; stroke-dashoffset: 0; stroke: #ddaa33; stroke-width: 1.5"/>
   </g>
   <g id="line2d_76">
    <path d="M 73.2125 283.140389 
L 89.688878 283.040844 
L 106.165256 282.9566 
L 122.641634 282.868187 
L 205.023524 282.478702 
L 369.787303 281.868012 
L 534.551083 281.326297 
" clip-path="url(#p8bb6b34619)" style="fill: none; stroke: #ddaa33; stroke-width: 1.5; stroke-linecap: square"/>
   </g>
   <g id="line2d_77">
    <path d="M 73.2125 283.140385 
L 89.688878 283.040821 
L 106.165256 282.9566 
L 122.641634 282.868186 
L 205.023524 282.478702 
L 369.787303 281.868012 
L 534.551083 281.326297 
" clip-path="url(#p8bb6b34619)" style="fill: none; stroke-dasharray: 9.6,2.4,1.5,2.4; stroke-dashoffset: 0; stroke: #ddaa33; stroke-width: 1.5"/>
   </g>
   <g id="line2d_78">
    <path d="M 73.2125 283.112351 
L 89.688878 283.040818 
L 106.165256 282.956599 
L 122.641634 282.868186 
L 205.023524 282.478702 
L 369.787303 281.868012 
L 534.551083 281.326297 
" clip-path="url(#p8bb6b34619)" style="fill: none; stroke-dasharray: 1.5,2.475; stroke-dashoffset: 0; stroke: #ddaa33; stroke-width: 1.5"/>
   </g>
   <g id="line2d_79">
    <path d="M 73.2125 339.732547 
L 89.688878 336.947415 
L 106.165256 334.652101 
L 122.641634 332.82154 
L 205.023524 327.358546 
L 369.787303 323.964802 
L 534.551083 322.351563 
" clip-path="url(#p8bb6b34619)" style="fill: none; stroke-dasharray: 5.55,2.4; stroke-dashoffset: 0; stroke: #bb5566; stroke-width: 1.5"/>
   </g>
   <g id="line2d_80">
    <path d="M 73.2125 283.139544 
L 89.688878 283.040819 
L 106.165256 282.956599 
L 122.641634 282.868186 
L 205.023524 282.478702 
L 369.787303 281.868012 
L 534.551083 281.326297 
" clip-path="url(#p8bb6b34619)" style="fill: none; stroke: #bb5566; stroke-width: 1.5; stroke-linecap: square"/>
   </g>
   <g id="line2d_81">
    <path d="M 73.2125 283.140385 
L 89.688878 283.040818 
L 106.165256 282.956599 
L 122.641634 282.868179 
L 205.023524 282.478702 
L 369.787303 281.868012 
L 534.551083 281.326297 
" clip-path="url(#p8bb6b34619)" style="fill: none; stroke-dasharray: 9.6,2.4,1.5,2.4; stroke-dashoffset: 0; stroke: #bb5566; stroke-width: 1.5"/>
   </g>
   <g id="line2d_82">
    <path d="M 73.2125 283.140382 
L 89.688878 283.040794 
L 106.165256 282.956599 
L 122.641634 282.868186 
L 205.023524 282.478702 
L 369.787303 281.868012 
L 534.551083 281.326297 
" clip-path="url(#p8bb6b34619)" style="fill: none; stroke-dasharray: 1.5,2.475; stroke-dashoffset: 0; stroke: #bb5566; stroke-width: 1.5"/>
   </g>
   <g id="line2d_83">
    <path d="M 73.2125 339.174668 
L 89.688878 337.532012 
L 106.165256 336.097523 
L 122.641634 334.837576 
L 205.023524 330.485486 
L 369.787303 326.592269 
L 534.551083 324.718492 
" clip-path="url(#p8bb6b34619)" style="fill: none; stroke: #000000; stroke-width: 1.5; stroke-linecap: square"/>
   </g>
   <g id="line2d_84">
    <path d="M 40.259744 351.78881 
" clip-path="url(#p8bb6b34619)" style="fill: none; stroke-dasharray: 5.55,2.4; stroke-dashoffset: 0; stroke: #6699cc; stroke-width: 1.5"/>
   </g>
   <g id="line2d_85">
    <path d="M 40.259744 351.78881 
" clip-path="url(#p8bb6b34619)" style="fill: none; stroke-dasharray: 1.5,2.475; stroke-dashoffset: 0; stroke: #6699cc; stroke-width: 1.5"/>
   </g>
   <g id="line2d_86">
    <path d="M 40.259744 351.78881 
" clip-path="url(#p8bb6b34619)" style="fill: none; stroke-dasharray: 9.6,2.4,1.5,2.4; stroke-dashoffset: 0; stroke: #6699cc; stroke-width: 1.5"/>
   </g>
   <g id="line2d_87">
    <path d="M 40.259744 351.78881 
" clip-path="url(#p8bb6b34619)" style="fill: none; stroke: #6699cc; stroke-width: 1.5; stroke-linecap: square"/>
   </g>
   <g id="line2d_88">
    <path d="M 40.259744 351.78881 
" clip-path="url(#p8bb6b34619)" style="fill: none; stroke-dasharray: 5.55,2.4; stroke-dashoffset: 0; stroke: #004488; stroke-width: 1.5"/>
   </g>
   <g id="line2d_89">
    <path d="M 40.259744 351.78881 
" clip-path="url(#p8bb6b34619)" style="fill: none; stroke: #004488; stroke-width: 1.5; stroke-linecap: square"/>
   </g>
   <g id="line2d_90">
    <path d="M 40.259744 351.78881 
" clip-path="url(#p8bb6b34619)" style="fill: none; stroke-dasharray: 9.6,2.4,1.5,2.4; stroke-dashoffset: 0; stroke: #004488; stroke-width: 1.5"/>
   </g>
   <g id="line2d_91">
    <path d="M 40.259744 351.78881 
" clip-path="url(#p8bb6b34619)" style="fill: none; stroke-dasharray: 1.5,2.475; stroke-dashoffset: 0; stroke: #004488; stroke-width: 1.5"/>
   </g>
   <g id="line2d_92">
    <path d="M 40.259744 351.78881 
" clip-path="url(#p8bb6b34619)" style="fill: none; stroke-dasharray: 5.55,2.4; stroke-dashoffset: 0; stroke: #ddaa33; stroke-width: 1.5"/>
   </g>
   <g id="line2d_93">
    <path d="M 40.259744 351.78881 
" clip-path="url(#p8bb6b34619)" style="fill: none; stroke: #ddaa33; stroke-width: 1.5; stroke-linecap: square"/>
   </g>
   <g id="line2d_94">
    <path d="M 40.259744 351.78881 
" clip-path="url(#p8bb6b34619)" style="fill: none; stroke-dasharray: 9.6,2.4,1.5,2.4; stroke-dashoffset: 0; stroke: #ddaa33; stroke-width: 1.5"/>
   </g>
   <g id="line2d_95">
    <path d="M 40.259744 351.78881 
" clip-path="url(#p8bb6b34619)" style="fill: none; stroke-dasharray: 1.5,2.475; stroke-dashoffset: 0; stroke: #ddaa33; stroke-width: 1.5"/>
   </g>
   <g id="line2d_96">
    <path d="M 40.259744 351.78881 
" clip-path="url(#p8bb6b34619)" style="fill: none; stroke-dasharray: 5.55,2.4; stroke-dashoffset: 0; stroke: #bb5566; stroke-width: 1.5"/>
   </g>
   <g id="line2d_97">
    <path d="M 40.259744 351.78881 
" clip-path="url(#p8bb6b34619)" style="fill: none; stroke: #bb5566; stroke-width: 1.5; stroke-linecap: square"/>
   </g>
   <g id="line2d_98">
    <path d="M 40.259744 351.78881 
" clip-path="url(#p8bb6b34619)" style="fill: none; stroke-dasharray: 9.6,2.4,1.5,2.4; stroke-dashoffset: 0; stroke: #bb5566; stroke-width: 1.5"/>
   </g>
   <g id="line2d_99">
    <path d="M 40.259744 351.78881 
" clip-path="url(#p8bb6b34619)" style="fill: none; stroke-dasharray: 1.5,2.475; stroke-dashoffset: 0; stroke: #bb5566; stroke-width: 1.5"/>
   </g>
   <g id="line2d_100">
    <path d="M 40.259744 351.78881 
" clip-path="url(#p8bb6b34619)" style="fill: none; stroke: #000000; stroke-width: 1.5; stroke-linecap: square"/>
   </g>
   <g id="patch_18">
    <path d="M 73.2125 345.916934 
L 73.2125 275.454421 
" style="fill: none; stroke: #000000; stroke-width: 0.8; stroke-linejoin: miter; stroke-linecap: square"/>
   </g>
   <g id="patch_19">
    <path d="M 534.551083 345.916934 
L 534.551083 275.454421 
" style="fill: none; stroke: #000000; stroke-width: 0.8; stroke-linejoin: miter; stroke-linecap: square"/>
   </g>
   <g id="patch_20">
    <path d="M 73.2125 345.916934 
L 534.551083 345.916934 
" style="fill: none; stroke: #000000; stroke-width: 0.8; stroke-linejoin: miter; stroke-linecap: square"/>
   </g>
   <g id="patch_21">
    <path d="M 73.2125 275.454421 
L 534.551083 275.454421 
" style="fill: none; stroke: #000000; stroke-width: 0.8; stroke-linejoin: miter; stroke-linecap: square"/>
   </g>
   <g id="legend_1">
    <g id="patch_22">
     <path d="M 35.478642 475.204959 
L 570.785517 475.204959 
Q 573.185517 475.204959 573.185517 472.804959 
L 573.185517 389.133084 
Q 573.185517 386.733084 570.785517 386.733084 
L 35.478642 386.733084 
Q 33.078642 386.733084 33.078642 389.133084 
L 33.078642 472.804959 
Q 33.078642 475.204959 35.478642 475.204959 
z
" style="fill: #ffffff; opacity: 0.8; stroke: #cccccc; stroke-linejoin: miter"/>
    </g>
    <g id="line2d_101">
     <path d="M 37.878642 395.922459 
L 49.878642 395.922459 
L 61.878642 395.922459 
" style="fill: none; stroke-dasharray: 5.55,2.4; stroke-dashoffset: 0; stroke: #6699cc; stroke-width: 1.5"/>
    </g>
    <g id="text_22">
     <text style="font: 12px 'Arial'; text-anchor: start" x="71.478642" y="400.122459" transform="rotate(-0 71.478642 400.122459)">GRU Att 1</text>
    </g>
    <g id="line2d_102">
     <path d="M 37.878642 412.896834 
L 49.878642 412.896834 
L 61.878642 412.896834 
" style="fill: none; stroke-dasharray: 1.5,2.475; stroke-dashoffset: 0; stroke: #6699cc; stroke-width: 1.5"/>
    </g>
    <g id="text_23">
     <text style="font: 12px 'Arial'; text-anchor: start" x="71.478642" y="417.096834" transform="rotate(-0 71.478642 417.096834)">GRU Att 2</text>
    </g>
    <g id="line2d_103">
     <path d="M 37.878642 429.871209 
L 49.878642 429.871209 
L 61.878642 429.871209 
" style="fill: none; stroke-dasharray: 9.6,2.4,1.5,2.4; stroke-dashoffset: 0; stroke: #6699cc; stroke-width: 1.5"/>
    </g>
    <g id="text_24">
     <text style="font: 12px 'Arial'; text-anchor: start" x="71.478642" y="434.071209" transform="rotate(-0 71.478642 434.071209)">GRU Att 3</text>
    </g>
    <g id="line2d_104">
     <path d="M 37.878642 446.845584 
L 49.878642 446.845584 
L 61.878642 446.845584 
" style="fill: none; stroke: #6699cc; stroke-width: 1.5; stroke-linecap: square"/>
    </g>
    <g id="text_25">
     <text style="font: 12px 'Arial'; text-anchor: start" x="71.478642" y="451.045584" transform="rotate(-0 71.478642 451.045584)">GRU Att 4</text>
    </g>
    <g id="line2d_105">
     <path d="M 37.878642 463.819959 
L 49.878642 463.819959 
L 61.878642 463.819959 
" style="fill: none; stroke-dasharray: 5.55,2.4; stroke-dashoffset: 0; stroke: #004488; stroke-width: 1.5"/>
    </g>
    <g id="text_26">
     <text style="font: 12px 'Arial'; text-anchor: start" x="71.478642" y="468.019959" transform="rotate(-0 71.478642 468.019959)">GRU Linear</text>
    </g>
    <g id="line2d_106">
     <path d="M 158.833017 395.922459 
L 170.833017 395.922459 
L 182.833017 395.922459 
" style="fill: none; stroke: #004488; stroke-width: 1.5; stroke-linecap: square"/>
    </g>
    <g id="text_27">
     <text style="font: 12px 'Arial'; text-anchor: start" x="192.433017" y="400.122459" transform="rotate(-0 192.433017 400.122459)">GRU Reference</text>
    </g>
    <g id="line2d_107">
     <path d="M 158.833017 412.896834 
L 170.833017 412.896834 
L 182.833017 412.896834 
" style="fill: none; stroke-dasharray: 9.6,2.4,1.5,2.4; stroke-dashoffset: 0; stroke: #004488; stroke-width: 1.5"/>
    </g>
    <g id="text_28">
     <text style="font: 12px 'Arial'; text-anchor: start" x="192.433017" y="417.096834" transform="rotate(-0 192.433017 417.096834)">GRU Third</text>
    </g>
    <g id="line2d_108">
     <path d="M 158.833017 429.871209 
L 170.833017 429.871209 
L 182.833017 429.871209 
" style="fill: none; stroke-dasharray: 1.5,2.475; stroke-dashoffset: 0; stroke: #004488; stroke-width: 1.5"/>
    </g>
    <g id="text_29">
     <text style="font: 12px 'Arial'; text-anchor: start" x="192.433017" y="434.071209" transform="rotate(-0 192.433017 434.071209)">GRU Twice</text>
    </g>
    <g id="line2d_109">
     <path d="M 158.833017 446.845584 
L 170.833017 446.845584 
L 182.833017 446.845584 
" style="fill: none; stroke-dasharray: 5.55,2.4; stroke-dashoffset: 0; stroke: #ddaa33; stroke-width: 1.5"/>
    </g>
    <g id="text_30">
     <text style="font: 12px 'Arial'; text-anchor: start" x="192.433017" y="451.045584" transform="rotate(-0 192.433017 451.045584)">LSTM Linear</text>
    </g>
    <g id="line2d_110">
     <path d="M 301.794267 395.922459 
L 313.794267 395.922459 
L 325.794267 395.922459 
" style="fill: none; stroke: #ddaa33; stroke-width: 1.5; stroke-linecap: square"/>
    </g>
    <g id="text_31">
     <text style="font: 12px 'Arial'; text-anchor: start" x="335.394267" y="400.122459" transform="rotate(-0 335.394267 400.122459)">LSTM Reference</text>
    </g>
    <g id="line2d_111">
     <path d="M 301.794267 412.896834 
L 313.794267 412.896834 
L 325.794267 412.896834 
" style="fill: none; stroke-dasharray: 9.6,2.4,1.5,2.4; stroke-dashoffset: 0; stroke: #ddaa33; stroke-width: 1.5"/>
    </g>
    <g id="text_32">
     <text style="font: 12px 'Arial'; text-anchor: start" x="335.394267" y="417.096834" transform="rotate(-0 335.394267 417.096834)">LSTM Third</text>
    </g>
    <g id="line2d_112">
     <path d="M 301.794267 429.871209 
L 313.794267 429.871209 
L 325.794267 429.871209 
" style="fill: none; stroke-dasharray: 1.5,2.475; stroke-dashoffset: 0; stroke: #ddaa33; stroke-width: 1.5"/>
    </g>
    <g id="text_33">
     <text style="font: 12px 'Arial'; text-anchor: start" x="335.394267" y="434.071209" transform="rotate(-0 335.394267 434.071209)">LSTM Twice</text>
    </g>
    <g id="line2d_113">
     <path d="M 301.794267 446.845584 
L 313.794267 446.845584 
L 325.794267 446.845584 
" style="fill: none; stroke-dasharray: 5.55,2.4; stroke-dashoffset: 0; stroke: #bb5566; stroke-width: 1.5"/>
    </g>
    <g id="text_34">
     <text style="font: 12px 'Arial'; text-anchor: start" x="335.394267" y="451.045584" transform="rotate(-0 335.394267 451.045584)">RNN Linear</text>
    </g>
    <g id="line2d_114">
     <path d="M 450.091767 395.922459 
L 462.091767 395.922459 
L 474.091767 395.922459 
" style="fill: none; stroke: #bb5566; stroke-width: 1.5; stroke-linecap: square"/>
    </g>
    <g id="text_35">
     <text style="font: 12px 'Arial'; text-anchor: start" x="483.691767" y="400.122459" transform="rotate(-0 483.691767 400.122459)">RNN Reference</text>
    </g>
    <g id="line2d_115">
     <path d="M 450.091767 412.896834 
L 462.091767 412.896834 
L 474.091767 412.896834 
" style="fill: none; stroke-dasharray: 9.6,2.4,1.5,2.4; stroke-dashoffset: 0; stroke: #bb5566; stroke-width: 1.5"/>
    </g>
    <g id="text_36">
     <text style="font: 12px 'Arial'; text-anchor: start" x="483.691767" y="417.096834" transform="rotate(-0 483.691767 417.096834)">RNN Third</text>
    </g>
    <g id="line2d_116">
     <path d="M 450.091767 429.871209 
L 462.091767 429.871209 
L 474.091767 429.871209 
" style="fill: none; stroke-dasharray: 1.5,2.475; stroke-dashoffset: 0; stroke: #bb5566; stroke-width: 1.5"/>
    </g>
    <g id="text_37">
     <text style="font: 12px 'Arial'; text-anchor: start" x="483.691767" y="434.071209" transform="rotate(-0 483.691767 434.071209)">RNN Twice</text>
    </g>
    <g id="line2d_117">
     <path d="M 450.091767 446.845584 
L 462.091767 446.845584 
L 474.091767 446.845584 
" style="fill: none; stroke: #000000; stroke-width: 1.5; stroke-linecap: square"/>
    </g>
    <g id="text_38">
     <text style="font: 12px 'Arial'; text-anchor: start" x="483.691767" y="451.045584" transform="rotate(-0 483.691767 451.045584)">UniTS</text>
    </g>
   </g>
  </g>
 </g>
 <defs>
  <clipPath id="p053181156f">
   <rect x="73.2125" y="21.789375" width="461.338583" height="70.462513"/>
  </clipPath>
  <clipPath id="p3246b17c67">
   <rect x="73.2125" y="106.34439" width="461.338583" height="70.462513"/>
  </clipPath>
  <clipPath id="p2028edeca4">
   <rect x="73.2125" y="190.899406" width="461.338583" height="70.462513"/>
  </clipPath>
  <clipPath id="p8bb6b34619">
   <rect x="73.2125" y="275.454421" width="461.338583" height="70.462513"/>
  </clipPath>
 </defs>
</svg>
