<?xml version="1.0" encoding="utf-8" standalone="no"?>
<!DOCTYPE svg PUBLIC "-//W3C//DTD SVG 1.1//EN"
  "http://www.w3.org/Graphics/SVG/1.1/DTD/svg11.dtd">
<svg xmlns:xlink="http://www.w3.org/1999/xlink" width="538.152031pt" height="416.756768pt" viewBox="0 0 538.152031 416.756768" xmlns="http://www.w3.org/2000/svg" version="1.1">
 <metadata>
  <rdf:RDF xmlns:dc="http://purl.org/dc/elements/1.1/" xmlns:cc="http://creativecommons.org/ns#" xmlns:rdf="http://www.w3.org/1999/02/22-rdf-syntax-ns#">
   <cc:Work>
    <dc:type rdf:resource="http://purl.org/dc/dcmitype/StillImage"/>
    <dc:date>2024-10-09T11:40:46.993228</dc:date>
    <dc:format>image/svg+xml</dc:format>
    <dc:creator>
     <cc:Agent>
      <dc:title>Matplotlib v3.7.0, https://matplotlib.org/</dc:title>
     </cc:Agent>
    </dc:creator>
   </cc:Work>
  </rdf:RDF>
 </metadata>
 <defs>
  <style type="text/css">*{stroke-linejoin: round; stroke-linecap: butt}</style>
 </defs>
 <g id="figure_1">
  <g id="patch_1">
   <path d="M 0 416.756768 
L 538.152031 416.756768 
L 538.152031 0 
L 0 0 
z
" style="fill: #ffffff"/>
  </g>
  <g id="axes_1">
   <g id="patch_2">
    <path d="M 49.833858 165.541177 
L 511.172441 165.541177 
L 511.172441 18.210469 
L 49.833858 18.210469 
z
" style="fill: #ffffff"/>
   </g>
   <g id="matplotlib.axis_1"/>
   <g id="matplotlib.axis_2">
    <g id="ytick_1">
     <g id="line2d_1">
      <defs>
       <path id="mfd289e7035" d="M 0 0 
L -3.5 0 
" style="stroke: #000000; stroke-width: 0.8"/>
      </defs>
      <g>
       <use xlink:href="#mfd289e7035" x="49.833858" y="154.693632" style="stroke: #000000; stroke-width: 0.8"/>
      </g>
     </g>
     <g id="text_1">
      <text style="font: 7px 'Arial'; text-anchor: end" x="42.833858" y="157.198866" transform="rotate(-0 42.833858 157.198866)">0.00</text>
     </g>
    </g>
    <g id="ytick_2">
     <g id="line2d_2">
      <g>
       <use xlink:href="#mfd289e7035" x="49.833858" y="131.677343" style="stroke: #000000; stroke-width: 0.8"/>
      </g>
     </g>
     <g id="text_2">
      <text style="font: 7px 'Arial'; text-anchor: end" x="42.833858" y="134.182578" transform="rotate(-0 42.833858 134.182578)">0.05</text>
     </g>
    </g>
    <g id="ytick_3">
     <g id="line2d_3">
      <g>
       <use xlink:href="#mfd289e7035" x="49.833858" y="108.661054" style="stroke: #000000; stroke-width: 0.8"/>
      </g>
     </g>
     <g id="text_3">
      <text style="font: 7px 'Arial'; text-anchor: end" x="42.833858" y="111.166289" transform="rotate(-0 42.833858 111.166289)">0.10</text>
     </g>
    </g>
    <g id="ytick_4">
     <g id="line2d_4">
      <g>
       <use xlink:href="#mfd289e7035" x="49.833858" y="85.644766" style="stroke: #000000; stroke-width: 0.8"/>
      </g>
     </g>
     <g id="text_4">
      <text style="font: 7px 'Arial'; text-anchor: end" x="42.833858" y="88.15" transform="rotate(-0 42.833858 88.15)">0.15</text>
     </g>
    </g>
    <g id="ytick_5">
     <g id="line2d_5">
      <g>
       <use xlink:href="#mfd289e7035" x="49.833858" y="62.628477" style="stroke: #000000; stroke-width: 0.8"/>
      </g>
     </g>
     <g id="text_5">
      <text style="font: 7px 'Arial'; text-anchor: end" x="42.833858" y="65.133711" transform="rotate(-0 42.833858 65.133711)">0.20</text>
     </g>
    </g>
    <g id="ytick_6">
     <g id="line2d_6">
      <g>
       <use xlink:href="#mfd289e7035" x="49.833858" y="39.612188" style="stroke: #000000; stroke-width: 0.8"/>
      </g>
     </g>
     <g id="text_6">
      <text style="font: 7px 'Arial'; text-anchor: end" x="42.833858" y="42.117422" transform="rotate(-0 42.833858 42.117422)">0.25</text>
     </g>
    </g>
    <g id="text_7">
     <!-- $x$ and $y$ offset -->
     <g transform="translate(23.741202 113.365823) rotate(-90)">
      <text>
       <tspan style="font: oblique 7px 'DejaVu Sans'" x="0 19.711426" y="-0.90625">xy</tspan>
       <tspan style="font: 7px 'Arial'" x="4.142578 6.087402 9.980469 13.873535 17.766602 23.854004 25.798828 29.691895 31.636719 33.581543 37.081543 40.974609" y="-0.90625"> and  offset</tspan>
      </text>
     </g>
    </g>
   </g>
   <g id="line2d_7">
    <path d="M 49.833858 153.175991 
L 66.310236 152.819508 
L 82.786614 152.302216 
L 99.262992 151.484602 
L 181.644882 136.847956 
L 346.408661 127.347577 
L 511.172441 124.301048 
" clip-path="url(#pca5c70679e)" style="fill: none; stroke-dasharray: 5.55,2.4; stroke-dashoffset: 0; stroke: #6699cc; stroke-width: 1.5"/>
   </g>
   <g id="line2d_8">
    <path d="M 49.833858 152.977766 
L 66.310236 152.465299 
L 82.786614 152.026359 
L 99.262992 150.982676 
L 181.644882 146.93476 
L 346.408661 137.848594 
L 511.172441 124.251983 
" clip-path="url(#pca5c70679e)" style="fill: none; stroke-dasharray: 1.5,2.475; stroke-dashoffset: 0; stroke: #6699cc; stroke-width: 1.5"/>
   </g>
   <g id="line2d_9">
    <path d="M 49.833858 153.121765 
L 66.310236 152.46025 
L 82.786614 151.964054 
L 99.262992 151.343187 
L 181.644882 144.37167 
L 346.408661 130.130964 
L 511.172441 121.006144 
" clip-path="url(#pca5c70679e)" style="fill: none; stroke-dasharray: 9.6,2.4,1.5,2.4; stroke-dashoffset: 0; stroke: #6699cc; stroke-width: 1.5"/>
   </g>
   <g id="line2d_10">
    <path d="M 49.833858 153.263618 
L 66.310236 152.818161 
L 82.786614 152.342451 
L 99.262992 151.727712 
L 181.644882 144.018235 
L 346.408661 129.683759 
L 511.172441 123.344978 
" clip-path="url(#pca5c70679e)" style="fill: none; stroke: #6699cc; stroke-width: 1.5; stroke-linecap: square"/>
   </g>
   <g id="line2d_11">
    <path d="M 49.833858 134.40897 
L 66.310236 131.797149 
L 82.786614 132.549672 
L 99.262992 129.969899 
L 181.644882 123.646663 
L 346.408661 117.158143 
L 511.172441 116.378285 
" clip-path="url(#pca5c70679e)" style="fill: none; stroke-dasharray: 5.55,2.4; stroke-dashoffset: 0; stroke: #004488; stroke-width: 1.5"/>
   </g>
   <g id="line2d_12">
    <path d="M 49.833858 134.743497 
L 66.310236 129.25535 
L 82.786614 129.975184 
L 99.262992 129.119293 
L 181.644882 125.737887 
L 346.408661 120.033632 
L 511.172441 119.100601 
" clip-path="url(#pca5c70679e)" style="fill: none; stroke: #004488; stroke-width: 1.5; stroke-linecap: square"/>
   </g>
   <g id="line2d_13">
    <path d="M 49.833858 134.24224 
L 66.310236 128.465992 
L 82.786614 130.366433 
L 99.262992 127.466321 
L 181.644882 125.301428 
L 346.408661 119.409352 
L 511.172441 118.56838 
" clip-path="url(#pca5c70679e)" style="fill: none; stroke-dasharray: 9.6,2.4,1.5,2.4; stroke-dashoffset: 0; stroke: #004488; stroke-width: 1.5"/>
   </g>
   <g id="line2d_14">
    <path d="M 49.833858 136.574556 
L 66.310236 128.770485 
L 82.786614 128.936354 
L 99.262992 126.823262 
L 181.644882 129.165502 
L 346.408661 120.663001 
L 511.172441 117.383133 
" clip-path="url(#pca5c70679e)" style="fill: none; stroke-dasharray: 1.5,2.475; stroke-dashoffset: 0; stroke: #004488; stroke-width: 1.5"/>
   </g>
   <g id="line2d_15">
    <path d="M 49.833858 128.147495 
L 66.310236 129.223092 
L 82.786614 132.461234 
L 99.262992 121.402791 
L 181.644882 122.536887 
L 346.408661 125.550627 
L 511.172441 120.273889 
" clip-path="url(#pca5c70679e)" style="fill: none; stroke-dasharray: 5.55,2.4; stroke-dashoffset: 0; stroke: #ddaa33; stroke-width: 1.5"/>
   </g>
   <g id="line2d_16">
    <path d="M 66.310236 -1 
L 66.310236 125.451971 
L 82.786614 127.388012 
L 99.262992 130.521998 
L 181.644882 126.492347 
L 346.408661 122.353515 
L 511.172441 119.375256 
" clip-path="url(#pca5c70679e)" style="fill: none; stroke: #ddaa33; stroke-width: 1.5; stroke-linecap: square"/>
   </g>
   <g id="line2d_17">
    <path d="M 49.833858 130.755775 
L 66.310236 124.747262 
L 82.786614 126.936102 
L 99.262992 122.835491 
L 181.644882 124.792795 
L 346.408661 118.110701 
L 511.172441 117.211165 
" clip-path="url(#pca5c70679e)" style="fill: none; stroke-dasharray: 9.6,2.4,1.5,2.4; stroke-dashoffset: 0; stroke: #ddaa33; stroke-width: 1.5"/>
   </g>
   <g id="line2d_18">
    <path d="M 49.833858 119.160546 
L 66.310236 122.578918 
L 82.786614 123.827042 
L 99.262992 115.596069 
L 181.644882 121.828682 
L 346.408661 112.882 
L 511.172441 115.069576 
" clip-path="url(#pca5c70679e)" style="fill: none; stroke-dasharray: 1.5,2.475; stroke-dashoffset: 0; stroke: #ddaa33; stroke-width: 1.5"/>
   </g>
   <g id="line2d_19">
    <path d="M 49.833858 72.745182 
L 66.310236 106.700876 
L 82.786614 99.958297 
L 99.262992 116.412309 
L 181.644882 124.469271 
L 346.408661 122.794231 
L 511.172441 118.609034 
" clip-path="url(#pca5c70679e)" style="fill: none; stroke-dasharray: 5.55,2.4; stroke-dashoffset: 0; stroke: #bb5566; stroke-width: 1.5"/>
   </g>
   <g id="line2d_20">
    <path d="M 49.833858 77.054207 
L 66.310236 79.864828 
L 82.786614 120.645514 
L 99.262992 116.973968 
L 181.644882 123.72241 
L 346.408661 121.907728 
L 511.172441 117.522684 
" clip-path="url(#pca5c70679e)" style="fill: none; stroke: #bb5566; stroke-width: 1.5; stroke-linecap: square"/>
   </g>
   <g id="line2d_21">
    <path d="M 49.833858 109.168504 
L 66.310236 122.414414 
L 82.786614 121.977892 
L 99.262992 120.88973 
L 181.644882 123.737477 
L 346.408661 111.723334 
L 511.172441 114.933212 
" clip-path="url(#pca5c70679e)" style="fill: none; stroke-dasharray: 9.6,2.4,1.5,2.4; stroke-dashoffset: 0; stroke: #bb5566; stroke-width: 1.5"/>
   </g>
   <g id="line2d_22">
    <path d="M 49.833858 30.488028 
L 66.310236 51.148291 
L 82.786614 37.214402 
L 99.262992 64.588295 
L 181.644882 101.08703 
L 346.408661 109.115906 
L 511.172441 113.840052 
" clip-path="url(#pca5c70679e)" style="fill: none; stroke-dasharray: 1.5,2.475; stroke-dashoffset: 0; stroke: #bb5566; stroke-width: 1.5"/>
   </g>
   <g id="line2d_23">
    <path d="M 49.833858 152.676573 
L 66.310236 152.435975 
L 82.786614 152.387125 
L 99.262992 152.009426 
L 181.644882 150.318578 
L 346.408661 148.351171 
L 511.172441 146.326769 
" clip-path="url(#pca5c70679e)" style="fill: none; stroke: #000000; stroke-width: 1.5; stroke-linecap: square"/>
   </g>
   <g id="patch_3">
    <path d="M 49.833858 165.541177 
L 49.833858 18.210469 
" style="fill: none; stroke: #000000; stroke-width: 0.8; stroke-linejoin: miter; stroke-linecap: square"/>
   </g>
   <g id="patch_4">
    <path d="M 511.172441 165.541177 
L 511.172441 18.210469 
" style="fill: none; stroke: #000000; stroke-width: 0.8; stroke-linejoin: miter; stroke-linecap: square"/>
   </g>
   <g id="patch_5">
    <path d="M 49.833858 165.541177 
L 511.172441 165.541177 
" style="fill: none; stroke: #000000; stroke-width: 0.8; stroke-linejoin: miter; stroke-linecap: square"/>
   </g>
   <g id="patch_6">
    <path d="M 49.833858 18.210469 
L 511.172441 18.210469 
" style="fill: none; stroke: #000000; stroke-width: 0.8; stroke-linejoin: miter; stroke-linecap: square"/>
   </g>
   <g id="text_8">
    <text style="font: 7px 'Arial'; text-anchor: middle" x="280.50315" y="12.210469" transform="rotate(-0 280.50315 12.210469)">Euclidean distance</text>
   </g>
  </g>
  <g id="axes_2">
   <g id="patch_7">
    <path d="M 49.833858 342.338028 
L 511.172441 342.338028 
L 511.172441 195.007319 
L 49.833858 195.007319 
z
" style="fill: #ffffff"/>
   </g>
   <g id="matplotlib.axis_3">
    <g id="xtick_1">
     <g id="line2d_24">
      <defs>
       <path id="m72b13df776" d="M 0 0 
L 0 3.5 
" style="stroke: #000000; stroke-width: 0.8"/>
      </defs>
      <g>
       <use xlink:href="#m72b13df776" x="49.833858" y="342.338028" style="stroke: #000000; stroke-width: 0.8"/>
      </g>
     </g>
     <g id="text_9">
      <text style="font: 7px 'Arial'; text-anchor: middle" x="49.833858" y="354.348497" transform="rotate(-0 49.833858 354.348497)">2</text>
     </g>
    </g>
    <g id="xtick_2">
     <g id="line2d_25">
      <g>
       <use xlink:href="#m72b13df776" x="66.310236" y="342.338028" style="stroke: #000000; stroke-width: 0.8"/>
      </g>
     </g>
     <g id="text_10">
      <text style="font: 7px 'Arial'; text-anchor: middle" x="66.310236" y="354.348497" transform="rotate(-0 66.310236 354.348497)">3</text>
     </g>
    </g>
    <g id="xtick_3">
     <g id="line2d_26">
      <g>
       <use xlink:href="#m72b13df776" x="82.786614" y="342.338028" style="stroke: #000000; stroke-width: 0.8"/>
      </g>
     </g>
     <g id="text_11">
      <text style="font: 7px 'Arial'; text-anchor: middle" x="82.786614" y="354.348497" transform="rotate(-0 82.786614 354.348497)">4</text>
     </g>
    </g>
    <g id="xtick_4">
     <g id="line2d_27">
      <g>
       <use xlink:href="#m72b13df776" x="99.262992" y="342.338028" style="stroke: #000000; stroke-width: 0.8"/>
      </g>
     </g>
     <g id="text_12">
      <text style="font: 7px 'Arial'; text-anchor: middle" x="99.262992" y="354.348497" transform="rotate(-0 99.262992 354.348497)">5</text>
     </g>
    </g>
    <g id="xtick_5">
     <g id="line2d_28">
      <g>
       <use xlink:href="#m72b13df776" x="181.644882" y="342.338028" style="stroke: #000000; stroke-width: 0.8"/>
      </g>
     </g>
     <g id="text_13">
      <text style="font: 7px 'Arial'; text-anchor: middle" x="181.644882" y="354.348497" transform="rotate(-0 181.644882 354.348497)">10</text>
     </g>
    </g>
    <g id="xtick_6">
     <g id="line2d_29">
      <g>
       <use xlink:href="#m72b13df776" x="346.408661" y="342.338028" style="stroke: #000000; stroke-width: 0.8"/>
      </g>
     </g>
     <g id="text_14">
      <text style="font: 7px 'Arial'; text-anchor: middle" x="346.408661" y="354.348497" transform="rotate(-0 346.408661 354.348497)">20</text>
     </g>
    </g>
    <g id="xtick_7">
     <g id="line2d_30">
      <g>
       <use xlink:href="#m72b13df776" x="511.172441" y="342.338028" style="stroke: #000000; stroke-width: 0.8"/>
      </g>
     </g>
     <g id="text_15">
      <text style="font: 7px 'Arial'; text-anchor: middle" x="511.172441" y="354.348497" transform="rotate(-0 511.172441 354.348497)">30</text>
     </g>
    </g>
    <g id="text_16">
     <text style="font: 7px 'Arial'; text-anchor: middle" x="280.50315" y="364.750215" transform="rotate(-0 280.50315 364.750215)">Forecasting length</text>
    </g>
   </g>
   <g id="matplotlib.axis_4">
    <g id="ytick_7">
     <g id="line2d_31">
      <g>
       <use xlink:href="#mfd289e7035" x="49.833858" y="337.092408" style="stroke: #000000; stroke-width: 0.8"/>
      </g>
     </g>
     <g id="text_17">
      <text style="font: 7px 'Arial'; text-anchor: end" x="42.833858" y="339.597643" transform="rotate(-0 42.833858 339.597643)">0.00</text>
     </g>
    </g>
    <g id="ytick_8">
     <g id="line2d_32">
      <g>
       <use xlink:href="#mfd289e7035" x="49.833858" y="310.475362" style="stroke: #000000; stroke-width: 0.8"/>
      </g>
     </g>
     <g id="text_18">
      <text style="font: 7px 'Arial'; text-anchor: end" x="42.833858" y="312.980596" transform="rotate(-0 42.833858 312.980596)">0.05</text>
     </g>
    </g>
    <g id="ytick_9">
     <g id="line2d_33">
      <g>
       <use xlink:href="#mfd289e7035" x="49.833858" y="283.858315" style="stroke: #000000; stroke-width: 0.8"/>
      </g>
     </g>
     <g id="text_19">
      <text style="font: 7px 'Arial'; text-anchor: end" x="42.833858" y="286.363549" transform="rotate(-0 42.833858 286.363549)">0.10</text>
     </g>
    </g>
    <g id="ytick_10">
     <g id="line2d_34">
      <g>
       <use xlink:href="#mfd289e7035" x="49.833858" y="257.241268" style="stroke: #000000; stroke-width: 0.8"/>
      </g>
     </g>
     <g id="text_20">
      <text style="font: 7px 'Arial'; text-anchor: end" x="42.833858" y="259.746503" transform="rotate(-0 42.833858 259.746503)">0.15</text>
     </g>
    </g>
    <g id="ytick_11">
     <g id="line2d_35">
      <g>
       <use xlink:href="#mfd289e7035" x="49.833858" y="230.624222" style="stroke: #000000; stroke-width: 0.8"/>
      </g>
     </g>
     <g id="text_21">
      <text style="font: 7px 'Arial'; text-anchor: end" x="42.833858" y="233.129456" transform="rotate(-0 42.833858 233.129456)">0.20</text>
     </g>
    </g>
    <g id="ytick_12">
     <g id="line2d_36">
      <g>
       <use xlink:href="#mfd289e7035" x="49.833858" y="204.007175" style="stroke: #000000; stroke-width: 0.8"/>
      </g>
     </g>
     <g id="text_22">
      <text style="font: 7px 'Arial'; text-anchor: end" x="42.833858" y="206.512409" transform="rotate(-0 42.833858 206.512409)">0.25</text>
     </g>
    </g>
    <g id="text_23">
     <text style="font: 7px 'Arial'; text-anchor: middle" x="23.737921" y="268.672673" transform="rotate(-90 23.737921 268.672673)">speed, heading, and time</text>
    </g>
   </g>
   <g id="line2d_37">
    <path d="M 49.833858 330.024651 
L 66.310236 329.745226 
L 82.786614 329.255392 
L 99.262992 329.104876 
L 181.644882 327.941104 
L 346.408661 322.391581 
L 511.172441 297.397189 
" clip-path="url(#p4df59afaa9)" style="fill: none; stroke-dasharray: 5.55,2.4; stroke-dashoffset: 0; stroke: #6699cc; stroke-width: 1.5"/>
   </g>
   <g id="line2d_38">
    <path d="M 49.833858 330.042634 
L 66.310236 329.63965 
L 82.786614 329.265025 
L 99.262992 329.035626 
L 181.644882 327.490053 
L 346.408661 322.047706 
L 511.172441 316.247365 
" clip-path="url(#p4df59afaa9)" style="fill: none; stroke-dasharray: 1.5,2.475; stroke-dashoffset: 0; stroke: #6699cc; stroke-width: 1.5"/>
   </g>
   <g id="line2d_39">
    <path d="M 49.833858 329.970325 
L 66.310236 329.594215 
L 82.786614 329.116302 
L 99.262992 328.868302 
L 181.644882 327.09514 
L 346.408661 321.73385 
L 511.172441 315.75723 
" clip-path="url(#p4df59afaa9)" style="fill: none; stroke-dasharray: 9.6,2.4,1.5,2.4; stroke-dashoffset: 0; stroke: #6699cc; stroke-width: 1.5"/>
   </g>
   <g id="line2d_40">
    <path d="M 49.833858 330.060469 
L 66.310236 329.813212 
L 82.786614 329.250878 
L 99.262992 328.864401 
L 181.644882 327.032197 
L 346.408661 321.938001 
L 511.172441 309.474225 
" clip-path="url(#p4df59afaa9)" style="fill: none; stroke: #6699cc; stroke-width: 1.5; stroke-linecap: square"/>
   </g>
   <g id="line2d_41">
    <path d="M 49.833858 313.844921 
L 66.310236 306.992142 
L 82.786614 302.917449 
L 99.262992 297.284539 
L 181.644882 262.001028 
L 346.408661 224.563557 
L 511.172441 209.117051 
" clip-path="url(#p4df59afaa9)" style="fill: none; stroke-dasharray: 5.55,2.4; stroke-dashoffset: 0; stroke: #004488; stroke-width: 1.5"/>
   </g>
   <g id="line2d_42">
    <path d="M 49.833858 298.23639 
L 66.310236 298.212711 
L 82.786614 298.189191 
L 99.262992 298.174436 
L 181.644882 298.208821 
L 346.408661 298.535603 
L 511.172441 299.024844 
" clip-path="url(#p4df59afaa9)" style="fill: none; stroke: #004488; stroke-width: 1.5; stroke-linecap: square"/>
   </g>
   <g id="line2d_43">
    <path d="M 49.833858 298.23637 
L 66.310236 298.212609 
L 82.786614 298.18919 
L 99.262992 298.174432 
L 181.644882 298.208821 
L 346.408661 298.535603 
L 511.172441 299.024844 
" clip-path="url(#p4df59afaa9)" style="fill: none; stroke-dasharray: 9.6,2.4,1.5,2.4; stroke-dashoffset: 0; stroke: #004488; stroke-width: 1.5"/>
   </g>
   <g id="line2d_44">
    <path d="M 49.833858 298.236352 
L 66.310236 298.212662 
L 82.786614 298.18919 
L 99.262992 298.174435 
L 181.644882 298.208821 
L 346.408661 298.535603 
L 511.172441 299.024844 
" clip-path="url(#p4df59afaa9)" style="fill: none; stroke-dasharray: 1.5,2.475; stroke-dashoffset: 0; stroke: #004488; stroke-width: 1.5"/>
   </g>
   <g id="line2d_45">
    <path d="M 49.833858 315.767066 
L 66.310236 309.717793 
L 82.786614 296.862843 
L 99.262992 296.049557 
L 181.644882 270.621576 
L 346.408661 235.661328 
L 511.172441 215.199818 
" clip-path="url(#p4df59afaa9)" style="fill: none; stroke-dasharray: 5.55,2.4; stroke-dashoffset: 0; stroke: #ddaa33; stroke-width: 1.5"/>
   </g>
   <g id="line2d_46">
    <path d="M 66.310236 -1 
L 66.310236 298.213595 
L 82.786614 298.189196 
L 99.262992 298.174433 
L 181.644882 298.208821 
L 346.408661 298.535603 
L 511.172441 299.024844 
" clip-path="url(#p4df59afaa9)" style="fill: none; stroke: #ddaa33; stroke-width: 1.5; stroke-linecap: square"/>
   </g>
   <g id="line2d_47">
    <path d="M 49.833858 298.23635 
L 66.310236 298.212618 
L 82.786614 298.189196 
L 99.262992 298.174432 
L 181.644882 298.208821 
L 346.408661 298.535603 
L 511.172441 299.024844 
" clip-path="url(#p4df59afaa9)" style="fill: none; stroke-dasharray: 9.6,2.4,1.5,2.4; stroke-dashoffset: 0; stroke: #ddaa33; stroke-width: 1.5"/>
   </g>
   <g id="line2d_48">
    <path d="M 49.833858 298.242862 
L 66.310236 298.2126 
L 82.786614 298.18919 
L 99.262992 298.174432 
L 181.644882 298.208821 
L 346.408661 298.535603 
L 511.172441 299.024844 
" clip-path="url(#p4df59afaa9)" style="fill: none; stroke-dasharray: 1.5,2.475; stroke-dashoffset: 0; stroke: #ddaa33; stroke-width: 1.5"/>
   </g>
   <g id="line2d_49">
    <path d="M 49.833858 314.662796 
L 66.310236 307.151134 
L 82.786614 301.170167 
L 99.262992 295.151775 
L 181.644882 267.259204 
L 346.408661 228.161448 
L 511.172441 207.284878 
" clip-path="url(#p4df59afaa9)" style="fill: none; stroke-dasharray: 5.55,2.4; stroke-dashoffset: 0; stroke: #bb5566; stroke-width: 1.5"/>
   </g>
   <g id="line2d_50">
    <path d="M 49.833858 298.238112 
L 66.310236 298.212803 
L 82.786614 298.189191 
L 99.262992 298.174432 
L 181.644882 298.208821 
L 346.408661 298.535603 
L 511.172441 299.024844 
" clip-path="url(#p4df59afaa9)" style="fill: none; stroke: #bb5566; stroke-width: 1.5; stroke-linecap: square"/>
   </g>
   <g id="line2d_51">
    <path d="M 49.833858 298.23635 
L 66.310236 298.212599 
L 82.786614 298.18919 
L 99.262992 298.174439 
L 181.644882 298.208821 
L 346.408661 298.535603 
L 511.172441 299.024844 
" clip-path="url(#p4df59afaa9)" style="fill: none; stroke-dasharray: 9.6,2.4,1.5,2.4; stroke-dashoffset: 0; stroke: #bb5566; stroke-width: 1.5"/>
   </g>
   <g id="line2d_52">
    <path d="M 49.833858 298.236393 
L 66.310236 298.212772 
L 82.786614 298.18919 
L 99.262992 298.174432 
L 181.644882 298.208821 
L 346.408661 298.535603 
L 511.172441 299.024844 
" clip-path="url(#p4df59afaa9)" style="fill: none; stroke-dasharray: 1.5,2.475; stroke-dashoffset: 0; stroke: #bb5566; stroke-width: 1.5"/>
   </g>
   <g id="line2d_53">
    <path d="M 49.833858 326.053337 
L 66.310236 323.180293 
L 82.786614 320.662221 
L 99.262992 317.755912 
L 181.644882 305.405558 
L 346.408661 284.294346 
L 511.172441 266.80786 
" clip-path="url(#p4df59afaa9)" style="fill: none; stroke: #000000; stroke-width: 1.5; stroke-linecap: square"/>
   </g>
   <g id="line2d_54">
    <path d="M 16.881102 354.615587 
" clip-path="url(#p4df59afaa9)" style="fill: none; stroke-dasharray: 5.55,2.4; stroke-dashoffset: 0; stroke: #6699cc; stroke-width: 1.5"/>
   </g>
   <g id="line2d_55">
    <path d="M 16.881102 354.615587 
" clip-path="url(#p4df59afaa9)" style="fill: none; stroke-dasharray: 1.5,2.475; stroke-dashoffset: 0; stroke: #6699cc; stroke-width: 1.5"/>
   </g>
   <g id="line2d_56">
    <path d="M 16.881102 354.615587 
" clip-path="url(#p4df59afaa9)" style="fill: none; stroke-dasharray: 9.6,2.4,1.5,2.4; stroke-dashoffset: 0; stroke: #6699cc; stroke-width: 1.5"/>
   </g>
   <g id="line2d_57">
    <path d="M 16.881102 354.615587 
" clip-path="url(#p4df59afaa9)" style="fill: none; stroke: #6699cc; stroke-width: 1.5; stroke-linecap: square"/>
   </g>
   <g id="line2d_58">
    <path d="M 16.881102 354.615587 
" clip-path="url(#p4df59afaa9)" style="fill: none; stroke-dasharray: 5.55,2.4; stroke-dashoffset: 0; stroke: #004488; stroke-width: 1.5"/>
   </g>
   <g id="line2d_59">
    <path d="M 16.881102 354.615587 
" clip-path="url(#p4df59afaa9)" style="fill: none; stroke: #004488; stroke-width: 1.5; stroke-linecap: square"/>
   </g>
   <g id="line2d_60">
    <path d="M 16.881102 354.615587 
" clip-path="url(#p4df59afaa9)" style="fill: none; stroke-dasharray: 9.6,2.4,1.5,2.4; stroke-dashoffset: 0; stroke: #004488; stroke-width: 1.5"/>
   </g>
   <g id="line2d_61">
    <path d="M 16.881102 354.615587 
" clip-path="url(#p4df59afaa9)" style="fill: none; stroke-dasharray: 1.5,2.475; stroke-dashoffset: 0; stroke: #004488; stroke-width: 1.5"/>
   </g>
   <g id="line2d_62">
    <path d="M 16.881102 354.615587 
" clip-path="url(#p4df59afaa9)" style="fill: none; stroke-dasharray: 5.55,2.4; stroke-dashoffset: 0; stroke: #ddaa33; stroke-width: 1.5"/>
   </g>
   <g id="line2d_63">
    <path d="M 16.881102 354.615587 
" clip-path="url(#p4df59afaa9)" style="fill: none; stroke: #ddaa33; stroke-width: 1.5; stroke-linecap: square"/>
   </g>
   <g id="line2d_64">
    <path d="M 16.881102 354.615587 
" clip-path="url(#p4df59afaa9)" style="fill: none; stroke-dasharray: 9.6,2.4,1.5,2.4; stroke-dashoffset: 0; stroke: #ddaa33; stroke-width: 1.5"/>
   </g>
   <g id="line2d_65">
    <path d="M 16.881102 354.615587 
" clip-path="url(#p4df59afaa9)" style="fill: none; stroke-dasharray: 1.5,2.475; stroke-dashoffset: 0; stroke: #ddaa33; stroke-width: 1.5"/>
   </g>
   <g id="line2d_66">
    <path d="M 16.881102 354.615587 
" clip-path="url(#p4df59afaa9)" style="fill: none; stroke-dasharray: 5.55,2.4; stroke-dashoffset: 0; stroke: #bb5566; stroke-width: 1.5"/>
   </g>
   <g id="line2d_67">
    <path d="M 16.881102 354.615587 
" clip-path="url(#p4df59afaa9)" style="fill: none; stroke: #bb5566; stroke-width: 1.5; stroke-linecap: square"/>
   </g>
   <g id="line2d_68">
    <path d="M 16.881102 354.615587 
" clip-path="url(#p4df59afaa9)" style="fill: none; stroke-dasharray: 9.6,2.4,1.5,2.4; stroke-dashoffset: 0; stroke: #bb5566; stroke-width: 1.5"/>
   </g>
   <g id="line2d_69">
    <path d="M 16.881102 354.615587 
" clip-path="url(#p4df59afaa9)" style="fill: none; stroke-dasharray: 1.5,2.475; stroke-dashoffset: 0; stroke: #bb5566; stroke-width: 1.5"/>
   </g>
   <g id="line2d_70">
    <path d="M 16.881102 354.615587 
" clip-path="url(#p4df59afaa9)" style="fill: none; stroke: #000000; stroke-width: 1.5; stroke-linecap: square"/>
   </g>
   <g id="patch_8">
    <path d="M 49.833858 342.338028 
L 49.833858 195.007319 
" style="fill: none; stroke: #000000; stroke-width: 0.8; stroke-linejoin: miter; stroke-linecap: square"/>
   </g>
   <g id="patch_9">
    <path d="M 511.172441 342.338028 
L 511.172441 195.007319 
" style="fill: none; stroke: #000000; stroke-width: 0.8; stroke-linejoin: miter; stroke-linecap: square"/>
   </g>
   <g id="patch_10">
    <path d="M 49.833858 342.338028 
L 511.172441 342.338028 
" style="fill: none; stroke: #000000; stroke-width: 0.8; stroke-linejoin: miter; stroke-linecap: square"/>
   </g>
   <g id="patch_11">
    <path d="M 49.833858 195.007319 
L 511.172441 195.007319 
" style="fill: none; stroke: #000000; stroke-width: 0.8; stroke-linejoin: miter; stroke-linecap: square"/>
   </g>
   <g id="legend_1">
    <g id="patch_12">
     <path d="M 8.6 409.556768 
L 529.552031 409.556768 
Q 530.952031 409.556768 530.952031 408.156768 
L 530.952031 379.151612 
Q 530.952031 377.751612 529.552031 377.751612 
L 8.6 377.751612 
Q 7.2 377.751612 7.2 379.151612 
L 7.2 408.156768 
Q 7.2 409.556768 8.6 409.556768 
z
" style="fill: #ffffff; opacity: 0.8; stroke: #cccccc; stroke-linejoin: miter"/>
    </g>
    <g id="line2d_71">
     <path d="M 10 383.11208 
L 17 383.11208 
L 24 383.11208 
" style="fill: none; stroke-dasharray: 5.55,2.4; stroke-dashoffset: 0; stroke: #6699cc; stroke-width: 1.5"/>
    </g>
    <g id="text_24">
     <text style="font: 7px 'Arial'; text-anchor: start" x="29.6" y="385.56208" transform="rotate(-0 29.6 385.56208)">GRU Att 1</text>
    </g>
    <g id="line2d_72">
     <path d="M 10 393.013799 
L 17 393.013799 
L 24 393.013799 
" style="fill: none; stroke-dasharray: 1.5,2.475; stroke-dashoffset: 0; stroke: #6699cc; stroke-width: 1.5"/>
    </g>
    <g id="text_25">
     <text style="font: 7px 'Arial'; text-anchor: start" x="29.6" y="395.463799" transform="rotate(-0 29.6 395.463799)">GRU Att 2</text>
    </g>
    <g id="line2d_73">
     <path d="M 10 402.915518 
L 17 402.915518 
L 24 402.915518 
" style="fill: none; stroke-dasharray: 9.6,2.4,1.5,2.4; stroke-dashoffset: 0; stroke: #6699cc; stroke-width: 1.5"/>
    </g>
    <g id="text_26">
     <text style="font: 7px 'Arial'; text-anchor: start" x="29.6" y="405.365518" transform="rotate(-0 29.6 405.365518)">GRU Att 3</text>
    </g>
    <g id="line2d_74">
     <path d="M 75.110938 383.11208 
L 82.110938 383.11208 
L 89.110938 383.11208 
" style="fill: none; stroke: #6699cc; stroke-width: 1.5; stroke-linecap: square"/>
    </g>
    <g id="text_27">
     <text style="font: 7px 'Arial'; text-anchor: start" x="94.710938" y="385.56208" transform="rotate(-0 94.710938 385.56208)">GRU Att 4</text>
    </g>
    <g id="line2d_75">
     <path d="M 75.110938 393.013799 
L 82.110938 393.013799 
L 89.110938 393.013799 
" style="fill: none; stroke-dasharray: 5.55,2.4; stroke-dashoffset: 0; stroke: #004488; stroke-width: 1.5"/>
    </g>
    <g id="text_28">
     <text style="font: 7px 'Arial'; text-anchor: start" x="94.710938" y="395.463799" transform="rotate(-0 94.710938 395.463799)">GRU Linear</text>
    </g>
    <g id="line2d_76">
     <path d="M 75.110938 402.915518 
L 82.110938 402.915518 
L 89.110938 402.915518 
" style="fill: none; stroke: #004488; stroke-width: 1.5; stroke-linecap: square"/>
    </g>
    <g id="text_29">
     <text style="font: 7px 'Arial'; text-anchor: start" x="94.710938" y="405.365518" transform="rotate(-0 94.710938 405.365518)">GRU Reference</text>
    </g>
    <g id="line2d_77">
     <path d="M 158.505 383.11208 
L 165.505 383.11208 
L 172.505 383.11208 
" style="fill: none; stroke-dasharray: 9.6,2.4,1.5,2.4; stroke-dashoffset: 0; stroke: #004488; stroke-width: 1.5"/>
    </g>
    <g id="text_30">
     <text style="font: 7px 'Arial'; text-anchor: start" x="178.105" y="385.56208" transform="rotate(-0 178.105 385.56208)">GRU Third</text>
    </g>
    <g id="line2d_78">
     <path d="M 158.505 393.013799 
L 165.505 393.013799 
L 172.505 393.013799 
" style="fill: none; stroke-dasharray: 1.5,2.475; stroke-dashoffset: 0; stroke: #004488; stroke-width: 1.5"/>
    </g>
    <g id="text_31">
     <text style="font: 7px 'Arial'; text-anchor: start" x="178.105" y="395.463799" transform="rotate(-0 178.105 395.463799)">GRU Twice</text>
    </g>
    <g id="line2d_79">
     <path d="M 158.505 402.915518 
L 165.505 402.915518 
L 172.505 402.915518 
" style="fill: none; stroke-dasharray: 5.55,2.4; stroke-dashoffset: 0; stroke: #ddaa33; stroke-width: 1.5"/>
    </g>
    <g id="text_32">
     <text style="font: 7px 'Arial'; text-anchor: start" x="178.105" y="405.365518" transform="rotate(-0 178.105 405.365518)">LSTM Linear</text>
    </g>
    <g id="line2d_80">
     <path d="M 232.174531 383.11208 
L 239.174531 383.11208 
L 246.174531 383.11208 
" style="fill: none; stroke: #ddaa33; stroke-width: 1.5; stroke-linecap: square"/>
    </g>
    <g id="text_33">
     <text style="font: 7px 'Arial'; text-anchor: start" x="251.774531" y="385.56208" transform="rotate(-0 251.774531 385.56208)">LSTM Reference</text>
    </g>
    <g id="line2d_81">
     <path d="M 232.174531 393.013799 
L 239.174531 393.013799 
L 246.174531 393.013799 
" style="fill: none; stroke-dasharray: 9.6,2.4,1.5,2.4; stroke-dashoffset: 0; stroke: #ddaa33; stroke-width: 1.5"/>
    </g>
    <g id="text_34">
     <text style="font: 7px 'Arial'; text-anchor: start" x="251.774531" y="395.463799" transform="rotate(-0 251.774531 395.463799)">LSTM Third</text>
    </g>
    <g id="line2d_82">
     <path d="M 318.681406 383.11208 
L 325.681406 383.11208 
L 332.681406 383.11208 
" style="fill: none; stroke-dasharray: 1.5,2.475; stroke-dashoffset: 0; stroke: #ddaa33; stroke-width: 1.5"/>
    </g>
    <g id="text_35">
     <text style="font: 7px 'Arial'; text-anchor: start" x="338.281406" y="385.56208" transform="rotate(-0 338.281406 385.56208)">LSTM Twice</text>
    </g>
    <g id="line2d_83">
     <path d="M 318.681406 393.013799 
L 325.681406 393.013799 
L 332.681406 393.013799 
" style="fill: none; stroke-dasharray: 5.55,2.4; stroke-dashoffset: 0; stroke: #bb5566; stroke-width: 1.5"/>
    </g>
    <g id="text_36">
     <text style="font: 7px 'Arial'; text-anchor: start" x="338.281406" y="395.463799" transform="rotate(-0 338.281406 395.463799)">RNN Linear</text>
    </g>
    <g id="line2d_84">
     <path d="M 390.665469 383.11208 
L 397.665469 383.11208 
L 404.665469 383.11208 
" style="fill: none; stroke: #bb5566; stroke-width: 1.5; stroke-linecap: square"/>
    </g>
    <g id="text_37">
     <text style="font: 7px 'Arial'; text-anchor: start" x="410.265469" y="385.56208" transform="rotate(-0 410.265469 385.56208)">RNN Reference</text>
    </g>
    <g id="line2d_85">
     <path d="M 390.665469 393.013799 
L 397.665469 393.013799 
L 404.665469 393.013799 
" style="fill: none; stroke-dasharray: 9.6,2.4,1.5,2.4; stroke-dashoffset: 0; stroke: #bb5566; stroke-width: 1.5"/>
    </g>
    <g id="text_38">
     <text style="font: 7px 'Arial'; text-anchor: start" x="410.265469" y="395.463799" transform="rotate(-0 410.265469 395.463799)">RNN Third</text>
    </g>
    <g id="line2d_86">
     <path d="M 473.670156 383.11208 
L 480.670156 383.11208 
L 487.670156 383.11208 
" style="fill: none; stroke-dasharray: 1.5,2.475; stroke-dashoffset: 0; stroke: #bb5566; stroke-width: 1.5"/>
    </g>
    <g id="text_39">
     <text style="font: 7px 'Arial'; text-anchor: start" x="493.270156" y="385.56208" transform="rotate(-0 493.270156 385.56208)">RNN Twice</text>
    </g>
    <g id="line2d_87">
     <path d="M 473.670156 393.013799 
L 480.670156 393.013799 
L 487.670156 393.013799 
" style="fill: none; stroke: #000000; stroke-width: 1.5; stroke-linecap: square"/>
    </g>
    <g id="text_40">
     <text style="font: 7px 'Arial'; text-anchor: start" x="493.270156" y="395.463799" transform="rotate(-0 493.270156 395.463799)">UniTS</text>
    </g>
   </g>
  </g>
 </g>
 <defs>
  <clipPath id="pca5c70679e">
   <rect x="49.833858" y="18.210469" width="461.338583" height="147.330709"/>
  </clipPath>
  <clipPath id="p4df59afaa9">
   <rect x="49.833858" y="195.007319" width="461.338583" height="147.330709"/>
  </clipPath>
 </defs>
</svg>
