<?xml version="1.0" encoding="utf-8" standalone="no"?>
<!DOCTYPE svg PUBLIC "-//W3C//DTD SVG 1.1//EN"
  "http://www.w3.org/Graphics/SVG/1.1/DTD/svg11.dtd">
<svg xmlns:xlink="http://www.w3.org/1999/xlink" width="554.506875pt" height="488.554414pt" viewBox="0 0 554.506875 488.554414" xmlns="http://www.w3.org/2000/svg" version="1.1">
 <metadata>
  <rdf:RDF xmlns:dc="http://purl.org/dc/elements/1.1/" xmlns:cc="http://creativecommons.org/ns#" xmlns:rdf="http://www.w3.org/1999/02/22-rdf-syntax-ns#">
   <cc:Work>
    <dc:type rdf:resource="http://purl.org/dc/dcmitype/StillImage"/>
    <dc:date>2024-10-10T13:36:56.417612</dc:date>
    <dc:format>image/svg+xml</dc:format>
    <dc:creator>
     <cc:Agent>
      <dc:title>Matplotlib v3.7.0, https://matplotlib.org/</dc:title>
     </cc:Agent>
    </dc:creator>
   </cc:Work>
  </rdf:RDF>
 </metadata>
 <defs>
  <style type="text/css">*{stroke-linejoin: round; stroke-linecap: butt}</style>
 </defs>
 <g id="figure_1">
  <g id="patch_1">
   <path d="M 0 488.554414 
L 554.506875 488.554414 
L 554.506875 0 
L 0 0 
z
" style="fill: #ffffff"/>
  </g>
  <g id="axes_1">
   <g id="patch_2">
    <path d="M 47.333858 169.120084 
L 508.672441 169.120084 
L 508.672441 21.789375 
L 47.333858 21.789375 
z
" style="fill: #ffffff"/>
   </g>
   <g id="matplotlib.axis_1"/>
   <g id="matplotlib.axis_2">
    <g id="ytick_1">
     <g id="line2d_1">
      <defs>
       <path id="m2e8ca05fc7" d="M 0 0 
L -3.5 0 
" style="stroke: #000000; stroke-width: 0.8"/>
      </defs>
      <g>
       <use xlink:href="#m2e8ca05fc7" x="47.333858" y="158.272546" style="stroke: #000000; stroke-width: 0.8"/>
      </g>
     </g>
     <g id="text_1">
      <text style="font: 12px 'Arial'; text-anchor: end" x="40.333858" y="162.567234" transform="rotate(-0 40.333858 162.567234)">0</text>
     </g>
    </g>
    <g id="ytick_2">
     <g id="line2d_2">
      <g>
       <use xlink:href="#m2e8ca05fc7" x="47.333858" y="116.874269" style="stroke: #000000; stroke-width: 0.8"/>
      </g>
     </g>
     <g id="text_2">
      <text style="font: 12px 'Arial'; text-anchor: end" x="40.333858" y="121.168957" transform="rotate(-0 40.333858 121.168957)">10</text>
     </g>
    </g>
    <g id="ytick_3">
     <g id="line2d_3">
      <g>
       <use xlink:href="#m2e8ca05fc7" x="47.333858" y="75.475992" style="stroke: #000000; stroke-width: 0.8"/>
      </g>
     </g>
     <g id="text_3">
      <text style="font: 12px 'Arial'; text-anchor: end" x="40.333858" y="79.77068" transform="rotate(-0 40.333858 79.77068)">20</text>
     </g>
    </g>
    <g id="ytick_4">
     <g id="line2d_4">
      <g>
       <use xlink:href="#m2e8ca05fc7" x="47.333858" y="34.077715" style="stroke: #000000; stroke-width: 0.8"/>
      </g>
     </g>
     <g id="text_4">
      <text style="font: 12px 'Arial'; text-anchor: end" x="40.333858" y="38.372403" transform="rotate(-0 40.333858 38.372403)">30</text>
     </g>
    </g>
    <g id="text_5">
     <!-- $x$ and $y$ offset -->
     <g transform="translate(20.467608 132.294729) rotate(-90)">
      <text>
       <tspan style="font: oblique 12px 'DejaVu Sans'" x="0 33.791016" y="-0.265625">xy</tspan>
       <tspan style="font: 12px 'Arial'" x="7.101562 10.435547 17.109375 23.783203 30.457031 40.892578 44.226562 50.900391 54.234375 57.568359 63.568359 70.242188" y="-0.265625"> and  offset</tspan>
      </text>
     </g>
    </g>
   </g>
   <g id="line2d_5">
    <path d="M 47.333858 156.754897 
L 63.810236 156.398412 
L 80.286614 155.881117 
L 96.762992 155.063499 
L 179.144882 140.426771 
L 343.908661 130.92634 
L 508.672441 127.879794 
" clip-path="url(#pcbb37a7ae2)" style="fill: none; stroke-dasharray: 5.55,2.4; stroke-dashoffset: 0; stroke: #6699cc; stroke-width: 1.5"/>
   </g>
   <g id="line2d_6">
    <path d="M 47.333858 156.55667 
L 63.810236 156.044201 
L 80.286614 155.605259 
L 96.762992 154.56157 
L 179.144882 150.513631 
L 343.908661 141.427416 
L 508.672441 127.830733 
" clip-path="url(#pcbb37a7ae2)" style="fill: none; stroke-dasharray: 1.5,2.475; stroke-dashoffset: 0; stroke: #6699cc; stroke-width: 1.5"/>
   </g>
   <g id="line2d_7">
    <path d="M 47.333858 156.700671 
L 63.810236 156.039151 
L 80.286614 155.542953 
L 96.762992 154.922083 
L 179.144882 147.950527 
L 343.908661 133.709743 
L 508.672441 124.584877 
" clip-path="url(#pcbb37a7ae2)" style="fill: none; stroke-dasharray: 9.6,2.4,1.5,2.4; stroke-dashoffset: 0; stroke: #6699cc; stroke-width: 1.5"/>
   </g>
   <g id="line2d_8">
    <path d="M 47.333858 156.842525 
L 63.810236 156.397065 
L 80.286614 155.921352 
L 96.762992 155.30661 
L 179.144882 147.597091 
L 343.908661 133.262536 
L 508.672441 126.923718 
" clip-path="url(#pcbb37a7ae2)" style="fill: none; stroke: #6699cc; stroke-width: 1.5; stroke-linecap: square"/>
   </g>
   <g id="line2d_9">
    <path d="M 47.333858 137.987771 
L 63.810236 135.375937 
L 80.286614 136.128465 
L 96.762992 133.548675 
L 179.144882 127.225412 
L 343.908661 120.736853 
L 508.672441 119.956989 
" clip-path="url(#pcbb37a7ae2)" style="fill: none; stroke-dasharray: 5.55,2.4; stroke-dashoffset: 0; stroke: #004488; stroke-width: 1.5"/>
   </g>
   <g id="line2d_10">
    <path d="M 47.333858 138.322302 
L 63.810236 132.834128 
L 80.286614 133.553964 
L 96.762992 132.698068 
L 179.144882 129.316645 
L 343.908661 123.612357 
L 508.672441 122.679319 
" clip-path="url(#pcbb37a7ae2)" style="fill: none; stroke: #004488; stroke-width: 1.5; stroke-linecap: square"/>
   </g>
   <g id="line2d_11">
    <path d="M 47.333858 137.821039 
L 63.810236 132.044764 
L 80.286614 133.945215 
L 96.762992 131.045083 
L 179.144882 128.880182 
L 343.908661 122.988073 
L 508.672441 122.147096 
" clip-path="url(#pcbb37a7ae2)" style="fill: none; stroke-dasharray: 9.6,2.4,1.5,2.4; stroke-dashoffset: 0; stroke: #004488; stroke-width: 1.5"/>
   </g>
   <g id="line2d_12">
    <path d="M 47.333858 140.153369 
L 63.810236 132.349256 
L 80.286614 132.515124 
L 96.762992 130.402023 
L 179.144882 132.744274 
L 343.908661 124.241726 
L 508.672441 120.961842 
" clip-path="url(#pcbb37a7ae2)" style="fill: none; stroke-dasharray: 1.5,2.475; stroke-dashoffset: 0; stroke: #004488; stroke-width: 1.5"/>
   </g>
   <g id="line2d_13">
    <path d="M 47.333858 131.726265 
L 63.810236 132.801866 
L 80.286614 136.040025 
L 96.762992 124.981525 
L 179.144882 126.115628 
L 343.908661 129.129379 
L 508.672441 123.852613 
" clip-path="url(#pcbb37a7ae2)" style="fill: none; stroke-dasharray: 5.55,2.4; stroke-dashoffset: 0; stroke: #ddaa33; stroke-width: 1.5"/>
   </g>
   <g id="line2d_14">
    <path d="M 47.333858 107.335836 
L 63.810236 129.030724 
L 80.286614 130.966779 
L 96.762992 134.100777 
L 179.144882 130.071108 
L 343.908661 125.932249 
L 508.672441 122.953976 
" clip-path="url(#pcbb37a7ae2)" style="fill: none; stroke: #ddaa33; stroke-width: 1.5; stroke-linecap: square"/>
   </g>
   <g id="line2d_15">
    <path d="M 47.333858 134.334557 
L 63.810236 128.326025 
L 80.286614 130.514865 
L 96.762992 126.414242 
L 179.144882 128.371545 
L 343.908661 121.689416 
L 508.672441 120.789875 
" clip-path="url(#pcbb37a7ae2)" style="fill: none; stroke-dasharray: 9.6,2.4,1.5,2.4; stroke-dashoffset: 0; stroke: #ddaa33; stroke-width: 1.5"/>
   </g>
   <g id="line2d_16">
    <path d="M 47.333858 122.739264 
L 63.810236 126.157651 
L 80.286614 127.405783 
L 96.762992 119.174774 
L 179.144882 125.407416 
L 343.908661 116.460688 
L 508.672441 118.64827 
" clip-path="url(#pcbb37a7ae2)" style="fill: none; stroke-dasharray: 1.5,2.475; stroke-dashoffset: 0; stroke: #ddaa33; stroke-width: 1.5"/>
   </g>
   <g id="line2d_17">
    <path d="M 47.333858 76.323947 
L 63.810236 110.279546 
L 80.286614 103.536954 
L 96.762992 119.991028 
L 179.144882 128.048023 
L 343.908661 126.372967 
L 508.672441 122.187749 
" clip-path="url(#pcbb37a7ae2)" style="fill: none; stroke-dasharray: 5.55,2.4; stroke-dashoffset: 0; stroke: #bb5566; stroke-width: 1.5"/>
   </g>
   <g id="line2d_18">
    <path d="M 47.333858 80.632769 
L 63.810236 83.443426 
L 80.286614 124.224251 
L 96.762992 120.552678 
L 179.144882 127.301154 
L 343.908661 125.486464 
L 508.672441 121.101393 
" clip-path="url(#pcbb37a7ae2)" style="fill: none; stroke: #bb5566; stroke-width: 1.5; stroke-linecap: square"/>
   </g>
   <g id="line2d_19">
    <path d="M 47.333858 112.747165 
L 63.810236 125.993158 
L 80.286614 125.556627 
L 96.762992 124.46846 
L 179.144882 127.316219 
L 343.908661 115.302013 
L 508.672441 118.511908 
" clip-path="url(#pcbb37a7ae2)" style="fill: none; stroke-dasharray: 9.6,2.4,1.5,2.4; stroke-dashoffset: 0; stroke: #bb5566; stroke-width: 1.5"/>
   </g>
   <g id="line2d_20">
    <path d="M 47.333858 34.066934 
L 63.810236 54.726789 
L 80.286614 40.793055 
L 96.762992 68.166825 
L 179.144882 104.665657 
L 343.908661 112.694583 
L 508.672441 117.418743 
" clip-path="url(#pcbb37a7ae2)" style="fill: none; stroke-dasharray: 1.5,2.475; stroke-dashoffset: 0; stroke: #bb5566; stroke-width: 1.5"/>
   </g>
   <g id="line2d_21">
    <path d="M 47.333858 156.255477 
L 63.810236 156.014876 
L 80.286614 155.966026 
L 96.762992 155.588325 
L 179.144882 153.897468 
L 343.908661 151.93005 
L 508.672441 149.905636 
" clip-path="url(#pcbb37a7ae2)" style="fill: none; stroke: #000000; stroke-width: 1.5; stroke-linecap: square"/>
   </g>
   <g id="patch_3">
    <path d="M 47.333858 169.120084 
L 47.333858 21.789375 
" style="fill: none; stroke: #000000; stroke-width: 0.8; stroke-linejoin: miter; stroke-linecap: square"/>
   </g>
   <g id="patch_4">
    <path d="M 508.672441 169.120084 
L 508.672441 21.789375 
" style="fill: none; stroke: #000000; stroke-width: 0.8; stroke-linejoin: miter; stroke-linecap: square"/>
   </g>
   <g id="patch_5">
    <path d="M 47.333858 169.120084 
L 508.672441 169.120084 
" style="fill: none; stroke: #000000; stroke-width: 0.8; stroke-linejoin: miter; stroke-linecap: square"/>
   </g>
   <g id="patch_6">
    <path d="M 47.333858 21.789375 
L 508.672441 21.789375 
" style="fill: none; stroke: #000000; stroke-width: 0.8; stroke-linejoin: miter; stroke-linecap: square"/>
   </g>
   <g id="text_6">
    <text style="font: 12px 'Arial'; text-anchor: middle" x="278.00315" y="15.789375" transform="rotate(-0 278.00315 15.789375)">Haversine distance</text>
   </g>
  </g>
  <g id="axes_2">
   <g id="patch_7">
    <path d="M 47.333858 345.916934 
L 508.672441 345.916934 
L 508.672441 198.586225 
L 47.333858 198.586225 
z
" style="fill: #ffffff"/>
   </g>
   <g id="matplotlib.axis_3">
    <g id="xtick_1">
     <g id="line2d_22">
      <defs>
       <path id="m3ccd7ba92d" d="M 0 0 
L 0 3.5 
" style="stroke: #000000; stroke-width: 0.8"/>
      </defs>
      <g>
       <use xlink:href="#m3ccd7ba92d" x="47.333858" y="345.916934" style="stroke: #000000; stroke-width: 0.8"/>
      </g>
     </g>
     <g id="text_7">
      <text style="font: 12px 'Arial'; text-anchor: middle" x="47.333858" y="361.506309" transform="rotate(-0 47.333858 361.506309)">2</text>
     </g>
    </g>
    <g id="xtick_2">
     <g id="line2d_23">
      <g>
       <use xlink:href="#m3ccd7ba92d" x="63.810236" y="345.916934" style="stroke: #000000; stroke-width: 0.8"/>
      </g>
     </g>
     <g id="text_8">
      <text style="font: 12px 'Arial'; text-anchor: middle" x="63.810236" y="361.506309" transform="rotate(-0 63.810236 361.506309)">3</text>
     </g>
    </g>
    <g id="xtick_3">
     <g id="line2d_24">
      <g>
       <use xlink:href="#m3ccd7ba92d" x="80.286614" y="345.916934" style="stroke: #000000; stroke-width: 0.8"/>
      </g>
     </g>
     <g id="text_9">
      <text style="font: 12px 'Arial'; text-anchor: middle" x="80.286614" y="361.506309" transform="rotate(-0 80.286614 361.506309)">4</text>
     </g>
    </g>
    <g id="xtick_4">
     <g id="line2d_25">
      <g>
       <use xlink:href="#m3ccd7ba92d" x="96.762992" y="345.916934" style="stroke: #000000; stroke-width: 0.8"/>
      </g>
     </g>
     <g id="text_10">
      <text style="font: 12px 'Arial'; text-anchor: middle" x="96.762992" y="361.506309" transform="rotate(-0 96.762992 361.506309)">5</text>
     </g>
    </g>
    <g id="xtick_5">
     <g id="line2d_26">
      <g>
       <use xlink:href="#m3ccd7ba92d" x="179.144882" y="345.916934" style="stroke: #000000; stroke-width: 0.8"/>
      </g>
     </g>
     <g id="text_11">
      <text style="font: 12px 'Arial'; text-anchor: middle" x="179.144882" y="361.506309" transform="rotate(-0 179.144882 361.506309)">10</text>
     </g>
    </g>
    <g id="xtick_6">
     <g id="line2d_27">
      <g>
       <use xlink:href="#m3ccd7ba92d" x="343.908661" y="345.916934" style="stroke: #000000; stroke-width: 0.8"/>
      </g>
     </g>
     <g id="text_12">
      <text style="font: 12px 'Arial'; text-anchor: middle" x="343.908661" y="361.506309" transform="rotate(-0 343.908661 361.506309)">20</text>
     </g>
    </g>
    <g id="xtick_7">
     <g id="line2d_28">
      <g>
       <use xlink:href="#m3ccd7ba92d" x="508.672441" y="345.916934" style="stroke: #000000; stroke-width: 0.8"/>
      </g>
     </g>
     <g id="text_13">
      <text style="font: 12px 'Arial'; text-anchor: middle" x="508.672441" y="361.506309" transform="rotate(-0 508.672441 361.506309)">30</text>
     </g>
    </g>
    <g id="text_14">
     <text style="font: 12px 'Arial'; text-anchor: middle" x="278.00315" y="376.480684" transform="rotate(-0 278.00315 376.480684)">Forecasting length</text>
    </g>
   </g>
   <g id="matplotlib.axis_4">
    <g id="ytick_5">
     <g id="line2d_29">
      <g>
       <use xlink:href="#m2e8ca05fc7" x="47.333858" y="340.67131" style="stroke: #000000; stroke-width: 0.8"/>
      </g>
     </g>
     <g id="text_15">
      <text style="font: 12px 'Arial'; text-anchor: end" x="40.333858" y="344.965998" transform="rotate(-0 40.333858 344.965998)">0</text>
     </g>
    </g>
    <g id="ytick_6">
     <g id="line2d_30">
      <g>
       <use xlink:href="#m2e8ca05fc7" x="47.333858" y="292.796784" style="stroke: #000000; stroke-width: 0.8"/>
      </g>
     </g>
     <g id="text_16">
      <text style="font: 12px 'Arial'; text-anchor: end" x="40.333858" y="297.091472" transform="rotate(-0 40.333858 297.091472)">10</text>
     </g>
    </g>
    <g id="ytick_7">
     <g id="line2d_31">
      <g>
       <use xlink:href="#m2e8ca05fc7" x="47.333858" y="244.922258" style="stroke: #000000; stroke-width: 0.8"/>
      </g>
     </g>
     <g id="text_17">
      <text style="font: 12px 'Arial'; text-anchor: end" x="40.333858" y="249.216946" transform="rotate(-0 40.333858 249.216946)">20</text>
     </g>
    </g>
    <g id="text_18">
     <text style="font: 12px 'Arial'; text-anchor: middle" x="20.461983" y="272.25158" transform="rotate(-90 20.461983 272.25158)">Speed, heading, and time</text>
    </g>
   </g>
   <g id="line2d_32">
    <path d="M 47.333858 333.603557 
L 63.810236 333.324132 
L 80.286614 332.834299 
L 96.762992 332.683783 
L 179.144882 331.520011 
L 343.908661 325.970484 
L 508.672441 300.976132 
" clip-path="url(#p94e464f3a0)" style="fill: none; stroke-dasharray: 5.55,2.4; stroke-dashoffset: 0; stroke: #6699cc; stroke-width: 1.5"/>
   </g>
   <g id="line2d_33">
    <path d="M 47.333858 333.62154 
L 63.810236 333.218557 
L 80.286614 332.843931 
L 96.762992 332.614533 
L 179.144882 331.06896 
L 343.908661 325.626609 
L 508.672441 319.826267 
" clip-path="url(#p94e464f3a0)" style="fill: none; stroke-dasharray: 1.5,2.475; stroke-dashoffset: 0; stroke: #6699cc; stroke-width: 1.5"/>
   </g>
   <g id="line2d_34">
    <path d="M 47.333858 333.549232 
L 63.810236 333.173121 
L 80.286614 332.695209 
L 96.762992 332.447209 
L 179.144882 330.674046 
L 343.908661 325.312754 
L 508.672441 319.336132 
" clip-path="url(#p94e464f3a0)" style="fill: none; stroke-dasharray: 9.6,2.4,1.5,2.4; stroke-dashoffset: 0; stroke: #6699cc; stroke-width: 1.5"/>
   </g>
   <g id="line2d_35">
    <path d="M 47.333858 333.639375 
L 63.810236 333.392119 
L 80.286614 332.829785 
L 96.762992 332.443308 
L 179.144882 330.611103 
L 343.908661 325.516904 
L 508.672441 313.053138 
" clip-path="url(#p94e464f3a0)" style="fill: none; stroke: #6699cc; stroke-width: 1.5; stroke-linecap: square"/>
   </g>
   <g id="line2d_36">
    <path d="M 47.333858 317.423824 
L 63.810236 310.571043 
L 80.286614 306.496351 
L 96.762992 300.863439 
L 179.144882 265.579933 
L 343.908661 228.14248 
L 508.672441 212.695954 
" clip-path="url(#p94e464f3a0)" style="fill: none; stroke-dasharray: 5.55,2.4; stroke-dashoffset: 0; stroke: #004488; stroke-width: 1.5"/>
   </g>
   <g id="line2d_37">
    <path d="M 47.333858 301.815283 
L 63.810236 301.791604 
L 80.286614 301.768083 
L 96.762992 301.753329 
L 179.144882 301.787713 
L 343.908661 302.114496 
L 508.672441 302.603737 
" clip-path="url(#p94e464f3a0)" style="fill: none; stroke: #004488; stroke-width: 1.5; stroke-linecap: square"/>
   </g>
   <g id="line2d_38">
    <path d="M 47.333858 301.815263 
L 63.810236 301.791501 
L 80.286614 301.768083 
L 96.762992 301.753324 
L 179.144882 301.787713 
L 343.908661 302.114496 
L 508.672441 302.603737 
" clip-path="url(#p94e464f3a0)" style="fill: none; stroke-dasharray: 9.6,2.4,1.5,2.4; stroke-dashoffset: 0; stroke: #004488; stroke-width: 1.5"/>
   </g>
   <g id="line2d_39">
    <path d="M 47.333858 301.815244 
L 63.810236 301.791554 
L 80.286614 301.768083 
L 96.762992 301.753327 
L 179.144882 301.787713 
L 343.908661 302.114496 
L 508.672441 302.603737 
" clip-path="url(#p94e464f3a0)" style="fill: none; stroke-dasharray: 1.5,2.475; stroke-dashoffset: 0; stroke: #004488; stroke-width: 1.5"/>
   </g>
   <g id="line2d_40">
    <path d="M 47.333858 319.345966 
L 63.810236 313.296694 
L 80.286614 300.441744 
L 96.762992 299.628459 
L 179.144882 274.200478 
L 343.908661 239.240237 
L 508.672441 218.778725 
" clip-path="url(#p94e464f3a0)" style="fill: none; stroke-dasharray: 5.55,2.4; stroke-dashoffset: 0; stroke: #ddaa33; stroke-width: 1.5"/>
   </g>
   <g id="line2d_41">
    <path d="M 47.333858 268.338995 
L 63.810236 301.792488 
L 80.286614 301.768088 
L 96.762992 301.753325 
L 179.144882 301.787713 
L 343.908661 302.114496 
L 508.672441 302.603737 
" clip-path="url(#p94e464f3a0)" style="fill: none; stroke: #ddaa33; stroke-width: 1.5; stroke-linecap: square"/>
   </g>
   <g id="line2d_42">
    <path d="M 47.333858 301.815243 
L 63.810236 301.791511 
L 80.286614 301.768089 
L 96.762992 301.753324 
L 179.144882 301.787713 
L 343.908661 302.114496 
L 508.672441 302.603737 
" clip-path="url(#p94e464f3a0)" style="fill: none; stroke-dasharray: 9.6,2.4,1.5,2.4; stroke-dashoffset: 0; stroke: #ddaa33; stroke-width: 1.5"/>
   </g>
   <g id="line2d_43">
    <path d="M 47.333858 301.821754 
L 63.810236 301.791493 
L 80.286614 301.768083 
L 96.762992 301.753324 
L 179.144882 301.787713 
L 343.908661 302.114496 
L 508.672441 302.603737 
" clip-path="url(#p94e464f3a0)" style="fill: none; stroke-dasharray: 1.5,2.475; stroke-dashoffset: 0; stroke: #ddaa33; stroke-width: 1.5"/>
   </g>
   <g id="line2d_44">
    <path d="M 47.333858 318.241697 
L 63.810236 310.730034 
L 80.286614 304.749066 
L 96.762992 298.730679 
L 179.144882 270.838106 
L 343.908661 231.740354 
L 508.672441 210.863784 
" clip-path="url(#p94e464f3a0)" style="fill: none; stroke-dasharray: 5.55,2.4; stroke-dashoffset: 0; stroke: #bb5566; stroke-width: 1.5"/>
   </g>
   <g id="line2d_45">
    <path d="M 47.333858 301.817005 
L 63.810236 301.791695 
L 80.286614 301.768083 
L 96.762992 301.753324 
L 179.144882 301.787713 
L 343.908661 302.114496 
L 508.672441 302.603737 
" clip-path="url(#p94e464f3a0)" style="fill: none; stroke: #bb5566; stroke-width: 1.5; stroke-linecap: square"/>
   </g>
   <g id="line2d_46">
    <path d="M 47.333858 301.815243 
L 63.810236 301.791492 
L 80.286614 301.768083 
L 96.762992 301.753332 
L 179.144882 301.787713 
L 343.908661 302.114496 
L 508.672441 302.603737 
" clip-path="url(#p94e464f3a0)" style="fill: none; stroke-dasharray: 9.6,2.4,1.5,2.4; stroke-dashoffset: 0; stroke: #bb5566; stroke-width: 1.5"/>
   </g>
   <g id="line2d_47">
    <path d="M 47.333858 301.815285 
L 63.810236 301.791665 
L 80.286614 301.768083 
L 96.762992 301.753324 
L 179.144882 301.787713 
L 343.908661 302.114496 
L 508.672441 302.603737 
" clip-path="url(#p94e464f3a0)" style="fill: none; stroke-dasharray: 1.5,2.475; stroke-dashoffset: 0; stroke: #bb5566; stroke-width: 1.5"/>
   </g>
   <g id="line2d_48">
    <path d="M 47.333858 329.632242 
L 63.810236 326.759196 
L 80.286614 324.241123 
L 96.762992 321.334812 
L 179.144882 308.984453 
L 343.908661 287.873243 
L 508.672441 270.386768 
" clip-path="url(#p94e464f3a0)" style="fill: none; stroke: #000000; stroke-width: 1.5; stroke-linecap: square"/>
   </g>
   <g id="line2d_49">
    <path d="M 14.381102 358.194493 
" clip-path="url(#p94e464f3a0)" style="fill: none; stroke-dasharray: 5.55,2.4; stroke-dashoffset: 0; stroke: #6699cc; stroke-width: 1.5"/>
   </g>
   <g id="line2d_50">
    <path d="M 14.381102 358.194493 
" clip-path="url(#p94e464f3a0)" style="fill: none; stroke-dasharray: 1.5,2.475; stroke-dashoffset: 0; stroke: #6699cc; stroke-width: 1.5"/>
   </g>
   <g id="line2d_51">
    <path d="M 14.381102 358.194493 
" clip-path="url(#p94e464f3a0)" style="fill: none; stroke-dasharray: 9.6,2.4,1.5,2.4; stroke-dashoffset: 0; stroke: #6699cc; stroke-width: 1.5"/>
   </g>
   <g id="line2d_52">
    <path d="M 14.381102 358.194493 
" clip-path="url(#p94e464f3a0)" style="fill: none; stroke: #6699cc; stroke-width: 1.5; stroke-linecap: square"/>
   </g>
   <g id="line2d_53">
    <path d="M 14.381102 358.194493 
" clip-path="url(#p94e464f3a0)" style="fill: none; stroke-dasharray: 5.55,2.4; stroke-dashoffset: 0; stroke: #004488; stroke-width: 1.5"/>
   </g>
   <g id="line2d_54">
    <path d="M 14.381102 358.194493 
" clip-path="url(#p94e464f3a0)" style="fill: none; stroke: #004488; stroke-width: 1.5; stroke-linecap: square"/>
   </g>
   <g id="line2d_55">
    <path d="M 14.381102 358.194493 
" clip-path="url(#p94e464f3a0)" style="fill: none; stroke-dasharray: 9.6,2.4,1.5,2.4; stroke-dashoffset: 0; stroke: #004488; stroke-width: 1.5"/>
   </g>
   <g id="line2d_56">
    <path d="M 14.381102 358.194493 
" clip-path="url(#p94e464f3a0)" style="fill: none; stroke-dasharray: 1.5,2.475; stroke-dashoffset: 0; stroke: #004488; stroke-width: 1.5"/>
   </g>
   <g id="line2d_57">
    <path d="M 14.381102 358.194493 
" clip-path="url(#p94e464f3a0)" style="fill: none; stroke-dasharray: 5.55,2.4; stroke-dashoffset: 0; stroke: #ddaa33; stroke-width: 1.5"/>
   </g>
   <g id="line2d_58">
    <path d="M 14.381102 358.194493 
" clip-path="url(#p94e464f3a0)" style="fill: none; stroke: #ddaa33; stroke-width: 1.5; stroke-linecap: square"/>
   </g>
   <g id="line2d_59">
    <path d="M 14.381102 358.194493 
" clip-path="url(#p94e464f3a0)" style="fill: none; stroke-dasharray: 9.6,2.4,1.5,2.4; stroke-dashoffset: 0; stroke: #ddaa33; stroke-width: 1.5"/>
   </g>
   <g id="line2d_60">
    <path d="M 14.381102 358.194493 
" clip-path="url(#p94e464f3a0)" style="fill: none; stroke-dasharray: 1.5,2.475; stroke-dashoffset: 0; stroke: #ddaa33; stroke-width: 1.5"/>
   </g>
   <g id="line2d_61">
    <path d="M 14.381102 358.194493 
" clip-path="url(#p94e464f3a0)" style="fill: none; stroke-dasharray: 5.55,2.4; stroke-dashoffset: 0; stroke: #bb5566; stroke-width: 1.5"/>
   </g>
   <g id="line2d_62">
    <path d="M 14.381102 358.194493 
" clip-path="url(#p94e464f3a0)" style="fill: none; stroke: #bb5566; stroke-width: 1.5; stroke-linecap: square"/>
   </g>
   <g id="line2d_63">
    <path d="M 14.381102 358.194493 
" clip-path="url(#p94e464f3a0)" style="fill: none; stroke-dasharray: 9.6,2.4,1.5,2.4; stroke-dashoffset: 0; stroke: #bb5566; stroke-width: 1.5"/>
   </g>
   <g id="line2d_64">
    <path d="M 14.381102 358.194493 
" clip-path="url(#p94e464f3a0)" style="fill: none; stroke-dasharray: 1.5,2.475; stroke-dashoffset: 0; stroke: #bb5566; stroke-width: 1.5"/>
   </g>
   <g id="line2d_65">
    <path d="M 14.381102 358.194493 
" clip-path="url(#p94e464f3a0)" style="fill: none; stroke: #000000; stroke-width: 1.5; stroke-linecap: square"/>
   </g>
   <g id="patch_8">
    <path d="M 47.333858 345.916934 
L 47.333858 198.586225 
" style="fill: none; stroke: #000000; stroke-width: 0.8; stroke-linejoin: miter; stroke-linecap: square"/>
   </g>
   <g id="patch_9">
    <path d="M 508.672441 345.916934 
L 508.672441 198.586225 
" style="fill: none; stroke: #000000; stroke-width: 0.8; stroke-linejoin: miter; stroke-linecap: square"/>
   </g>
   <g id="patch_10">
    <path d="M 47.333858 345.916934 
L 508.672441 345.916934 
" style="fill: none; stroke: #000000; stroke-width: 0.8; stroke-linejoin: miter; stroke-linecap: square"/>
   </g>
   <g id="patch_11">
    <path d="M 47.333858 198.586225 
L 508.672441 198.586225 
" style="fill: none; stroke: #000000; stroke-width: 0.8; stroke-linejoin: miter; stroke-linecap: square"/>
   </g>
   <g id="legend_1">
    <g id="patch_12">
     <path d="M 9.6 481.354414 
L 544.906875 481.354414 
Q 547.306875 481.354414 547.306875 478.954414 
L 547.306875 395.282539 
Q 547.306875 392.882539 544.906875 392.882539 
L 9.6 392.882539 
Q 7.2 392.882539 7.2 395.282539 
L 7.2 478.954414 
Q 7.2 481.354414 9.6 481.354414 
z
" style="fill: #ffffff; opacity: 0.8; stroke: #cccccc; stroke-linejoin: miter"/>
    </g>
    <g id="line2d_66">
     <path d="M 12 402.071914 
L 24 402.071914 
L 36 402.071914 
" style="fill: none; stroke-dasharray: 5.55,2.4; stroke-dashoffset: 0; stroke: #6699cc; stroke-width: 1.5"/>
    </g>
    <g id="text_19">
     <text style="font: 12px 'Arial'; text-anchor: start" x="45.6" y="406.271914" transform="rotate(-0 45.6 406.271914)">GRU Att 1</text>
    </g>
    <g id="line2d_67">
     <path d="M 12 419.046289 
L 24 419.046289 
L 36 419.046289 
" style="fill: none; stroke-dasharray: 1.5,2.475; stroke-dashoffset: 0; stroke: #6699cc; stroke-width: 1.5"/>
    </g>
    <g id="text_20">
     <text style="font: 12px 'Arial'; text-anchor: start" x="45.6" y="423.246289" transform="rotate(-0 45.6 423.246289)">GRU Att 2</text>
    </g>
    <g id="line2d_68">
     <path d="M 12 436.020664 
L 24 436.020664 
L 36 436.020664 
" style="fill: none; stroke-dasharray: 9.6,2.4,1.5,2.4; stroke-dashoffset: 0; stroke: #6699cc; stroke-width: 1.5"/>
    </g>
    <g id="text_21">
     <text style="font: 12px 'Arial'; text-anchor: start" x="45.6" y="440.220664" transform="rotate(-0 45.6 440.220664)">GRU Att 3</text>
    </g>
    <g id="line2d_69">
     <path d="M 12 452.995039 
L 24 452.995039 
L 36 452.995039 
" style="fill: none; stroke: #6699cc; stroke-width: 1.5; stroke-linecap: square"/>
    </g>
    <g id="text_22">
     <text style="font: 12px 'Arial'; text-anchor: start" x="45.6" y="457.195039" transform="rotate(-0 45.6 457.195039)">GRU Att 4</text>
    </g>
    <g id="line2d_70">
     <path d="M 12 469.969414 
L 24 469.969414 
L 36 469.969414 
" style="fill: none; stroke-dasharray: 5.55,2.4; stroke-dashoffset: 0; stroke: #004488; stroke-width: 1.5"/>
    </g>
    <g id="text_23">
     <text style="font: 12px 'Arial'; text-anchor: start" x="45.6" y="474.169414" transform="rotate(-0 45.6 474.169414)">GRU Linear</text>
    </g>
    <g id="line2d_71">
     <path d="M 132.954375 402.071914 
L 144.954375 402.071914 
L 156.954375 402.071914 
" style="fill: none; stroke: #004488; stroke-width: 1.5; stroke-linecap: square"/>
    </g>
    <g id="text_24">
     <text style="font: 12px 'Arial'; text-anchor: start" x="166.554375" y="406.271914" transform="rotate(-0 166.554375 406.271914)">GRU Reference</text>
    </g>
    <g id="line2d_72">
     <path d="M 132.954375 419.046289 
L 144.954375 419.046289 
L 156.954375 419.046289 
" style="fill: none; stroke-dasharray: 9.6,2.4,1.5,2.4; stroke-dashoffset: 0; stroke: #004488; stroke-width: 1.5"/>
    </g>
    <g id="text_25">
     <text style="font: 12px 'Arial'; text-anchor: start" x="166.554375" y="423.246289" transform="rotate(-0 166.554375 423.246289)">GRU Third</text>
    </g>
    <g id="line2d_73">
     <path d="M 132.954375 436.020664 
L 144.954375 436.020664 
L 156.954375 436.020664 
" style="fill: none; stroke-dasharray: 1.5,2.475; stroke-dashoffset: 0; stroke: #004488; stroke-width: 1.5"/>
    </g>
    <g id="text_26">
     <text style="font: 12px 'Arial'; text-anchor: start" x="166.554375" y="440.220664" transform="rotate(-0 166.554375 440.220664)">GRU Twice</text>
    </g>
    <g id="line2d_74">
     <path d="M 132.954375 452.995039 
L 144.954375 452.995039 
L 156.954375 452.995039 
" style="fill: none; stroke-dasharray: 5.55,2.4; stroke-dashoffset: 0; stroke: #ddaa33; stroke-width: 1.5"/>
    </g>
    <g id="text_27">
     <text style="font: 12px 'Arial'; text-anchor: start" x="166.554375" y="457.195039" transform="rotate(-0 166.554375 457.195039)">LSTM Linear</text>
    </g>
    <g id="line2d_75">
     <path d="M 275.915625 402.071914 
L 287.915625 402.071914 
L 299.915625 402.071914 
" style="fill: none; stroke: #ddaa33; stroke-width: 1.5; stroke-linecap: square"/>
    </g>
    <g id="text_28">
     <text style="font: 12px 'Arial'; text-anchor: start" x="309.515625" y="406.271914" transform="rotate(-0 309.515625 406.271914)">LSTM Reference</text>
    </g>
    <g id="line2d_76">
     <path d="M 275.915625 419.046289 
L 287.915625 419.046289 
L 299.915625 419.046289 
" style="fill: none; stroke-dasharray: 9.6,2.4,1.5,2.4; stroke-dashoffset: 0; stroke: #ddaa33; stroke-width: 1.5"/>
    </g>
    <g id="text_29">
     <text style="font: 12px 'Arial'; text-anchor: start" x="309.515625" y="423.246289" transform="rotate(-0 309.515625 423.246289)">LSTM Third</text>
    </g>
    <g id="line2d_77">
     <path d="M 275.915625 436.020664 
L 287.915625 436.020664 
L 299.915625 436.020664 
" style="fill: none; stroke-dasharray: 1.5,2.475; stroke-dashoffset: 0; stroke: #ddaa33; stroke-width: 1.5"/>
    </g>
    <g id="text_30">
     <text style="font: 12px 'Arial'; text-anchor: start" x="309.515625" y="440.220664" transform="rotate(-0 309.515625 440.220664)">LSTM Twice</text>
    </g>
    <g id="line2d_78">
     <path d="M 275.915625 452.995039 
L 287.915625 452.995039 
L 299.915625 452.995039 
" style="fill: none; stroke-dasharray: 5.55,2.4; stroke-dashoffset: 0; stroke: #bb5566; stroke-width: 1.5"/>
    </g>
    <g id="text_31">
     <text style="font: 12px 'Arial'; text-anchor: start" x="309.515625" y="457.195039" transform="rotate(-0 309.515625 457.195039)">RNN Linear</text>
    </g>
    <g id="line2d_79">
     <path d="M 424.213125 402.071914 
L 436.213125 402.071914 
L 448.213125 402.071914 
" style="fill: none; stroke: #bb5566; stroke-width: 1.5; stroke-linecap: square"/>
    </g>
    <g id="text_32">
     <text style="font: 12px 'Arial'; text-anchor: start" x="457.813125" y="406.271914" transform="rotate(-0 457.813125 406.271914)">RNN Reference</text>
    </g>
    <g id="line2d_80">
     <path d="M 424.213125 419.046289 
L 436.213125 419.046289 
L 448.213125 419.046289 
" style="fill: none; stroke-dasharray: 9.6,2.4,1.5,2.4; stroke-dashoffset: 0; stroke: #bb5566; stroke-width: 1.5"/>
    </g>
    <g id="text_33">
     <text style="font: 12px 'Arial'; text-anchor: start" x="457.813125" y="423.246289" transform="rotate(-0 457.813125 423.246289)">RNN Third</text>
    </g>
    <g id="line2d_81">
     <path d="M 424.213125 436.020664 
L 436.213125 436.020664 
L 448.213125 436.020664 
" style="fill: none; stroke-dasharray: 1.5,2.475; stroke-dashoffset: 0; stroke: #bb5566; stroke-width: 1.5"/>
    </g>
    <g id="text_34">
     <text style="font: 12px 'Arial'; text-anchor: start" x="457.813125" y="440.220664" transform="rotate(-0 457.813125 440.220664)">RNN Twice</text>
    </g>
    <g id="line2d_82">
     <path d="M 424.213125 452.995039 
L 436.213125 452.995039 
L 448.213125 452.995039 
" style="fill: none; stroke: #000000; stroke-width: 1.5; stroke-linecap: square"/>
    </g>
    <g id="text_35">
     <text style="font: 12px 'Arial'; text-anchor: start" x="457.813125" y="457.195039" transform="rotate(-0 457.813125 457.195039)">UniTS</text>
    </g>
   </g>
  </g>
 </g>
 <defs>
  <clipPath id="pcbb37a7ae2">
   <rect x="47.333858" y="21.789375" width="461.338583" height="147.330709"/>
  </clipPath>
  <clipPath id="p94e464f3a0">
   <rect x="47.333858" y="198.586225" width="461.338583" height="147.330709"/>
  </clipPath>
 </defs>
</svg>
