<?xml version="1.0" encoding="utf-8" standalone="no"?>
<!DOCTYPE svg PUBLIC "-//W3C//DTD SVG 1.1//EN"
  "http://www.w3.org/Graphics/SVG/1.1/DTD/svg11.dtd">
<svg xmlns:xlink="http://www.w3.org/1999/xlink" width="538.152031pt" height="413.68204pt" viewBox="0 0 538.152031 413.68204" xmlns="http://www.w3.org/2000/svg" version="1.1">
 <metadata>
  <rdf:RDF xmlns:dc="http://purl.org/dc/elements/1.1/" xmlns:cc="http://creativecommons.org/ns#" xmlns:rdf="http://www.w3.org/1999/02/22-rdf-syntax-ns#">
   <cc:Work>
    <dc:type rdf:resource="http://purl.org/dc/dcmitype/StillImage"/>
    <dc:date>2024-10-10T01:45:09.587549</dc:date>
    <dc:format>image/svg+xml</dc:format>
    <dc:creator>
     <cc:Agent>
      <dc:title>Matplotlib v3.7.0, https://matplotlib.org/</dc:title>
     </cc:Agent>
    </dc:creator>
   </cc:Work>
  </rdf:RDF>
 </metadata>
 <defs>
  <style type="text/css">*{stroke-linejoin: round; stroke-linecap: butt}</style>
 </defs>
 <g id="figure_1">
  <g id="patch_1">
   <path d="M 0 413.68204 
L 538.152031 413.68204 
L 538.152031 0 
L 0 0 
z
" style="fill: #ffffff"/>
  </g>
  <g id="axes_1">
   <g id="patch_2">
    <path d="M 49.833858 88.672982 
L 511.172441 88.672982 
L 511.172441 18.210469 
L 49.833858 18.210469 
z
" style="fill: #ffffff"/>
   </g>
   <g id="matplotlib.axis_1"/>
   <g id="matplotlib.axis_2">
    <g id="ytick_1">
     <g id="line2d_1">
      <defs>
       <path id="madcd81c0fe" d="M 0 0 
L -3.5 0 
" style="stroke: #000000; stroke-width: 0.8"/>
      </defs>
      <g>
       <use xlink:href="#madcd81c0fe" x="49.833858" y="86.85372" style="stroke: #000000; stroke-width: 0.8"/>
      </g>
     </g>
     <g id="text_1">
      <text style="font: 7px 'Arial'; text-anchor: end" x="42.833858" y="89.358955" transform="rotate(-0 42.833858 89.358955)">0</text>
     </g>
    </g>
    <g id="ytick_2">
     <g id="line2d_2">
      <g>
       <use xlink:href="#madcd81c0fe" x="49.833858" y="69.571819" style="stroke: #000000; stroke-width: 0.8"/>
      </g>
     </g>
     <g id="text_2">
      <text style="font: 7px 'Arial'; text-anchor: end" x="42.833858" y="72.077054" transform="rotate(-0 42.833858 72.077054)">50</text>
     </g>
    </g>
    <g id="ytick_3">
     <g id="line2d_3">
      <g>
       <use xlink:href="#madcd81c0fe" x="49.833858" y="52.289918" style="stroke: #000000; stroke-width: 0.8"/>
      </g>
     </g>
     <g id="text_3">
      <text style="font: 7px 'Arial'; text-anchor: end" x="42.833858" y="54.795152" transform="rotate(-0 42.833858 54.795152)">100</text>
     </g>
    </g>
    <g id="ytick_4">
     <g id="line2d_4">
      <g>
       <use xlink:href="#madcd81c0fe" x="49.833858" y="35.008017" style="stroke: #000000; stroke-width: 0.8"/>
      </g>
     </g>
     <g id="text_4">
      <text style="font: 7px 'Arial'; text-anchor: end" x="42.833858" y="37.513251" transform="rotate(-0 42.833858 37.513251)">150</text>
     </g>
    </g>
    <g id="text_5">
     <text style="font: 7px 'Arial'; text-anchor: middle" x="25.682608" y="53.441725" transform="rotate(-90 25.682608 53.441725)">Heading</text>
    </g>
   </g>
   <g id="line2d_5">
    <path d="M 49.833858 82.801106 
L 66.310236 81.457366 
L 82.786614 80.199642 
L 99.262992 79.317827 
L 181.644882 75.585621 
L 346.408661 69.833588 
L 511.172441 64.860277 
" clip-path="url(#p5776005abd)" style="fill: none; stroke-dasharray: 5.55,2.4; stroke-dashoffset: 0; stroke: #6699cc; stroke-width: 1.5"/>
   </g>
   <g id="line2d_6">
    <path d="M 49.833858 82.526134 
L 66.310236 81.253795 
L 82.786614 80.178138 
L 99.262992 79.247113 
L 181.644882 75.271489 
L 346.408661 69.912225 
L 511.172441 66.235376 
" clip-path="url(#p5776005abd)" style="fill: none; stroke-dasharray: 1.5,2.475; stroke-dashoffset: 0; stroke: #6699cc; stroke-width: 1.5"/>
   </g>
   <g id="line2d_7">
    <path d="M 49.833858 82.685268 
L 66.310236 80.892271 
L 82.786614 79.565577 
L 99.262992 78.514929 
L 181.644882 74.81254 
L 346.408661 69.554629 
L 511.172441 65.916114 
" clip-path="url(#p5776005abd)" style="fill: none; stroke-dasharray: 9.6,2.4,1.5,2.4; stroke-dashoffset: 0; stroke: #6699cc; stroke-width: 1.5"/>
   </g>
   <g id="line2d_8">
    <path d="M 49.833858 82.710757 
L 66.310236 81.227903 
L 82.786614 79.896374 
L 99.262992 78.925569 
L 181.644882 74.936661 
L 346.408661 69.604071 
L 511.172441 65.478305 
" clip-path="url(#p5776005abd)" style="fill: none; stroke: #6699cc; stroke-width: 1.5; stroke-linecap: square"/>
   </g>
   <g id="line2d_9">
    <path d="M 49.833858 80.407556 
L 66.310236 78.208795 
L 82.786614 76.760251 
L 99.262992 75.390194 
L 181.644882 69.812766 
L 346.408661 63.51649 
L 511.172441 60.218884 
" clip-path="url(#p5776005abd)" style="fill: none; stroke-dasharray: 5.55,2.4; stroke-dashoffset: 0; stroke: #004488; stroke-width: 1.5"/>
   </g>
   <g id="line2d_10">
    <path d="M 49.833858 24.649525 
L 66.310236 24.632671 
L 82.786614 24.615895 
L 99.262992 24.596966 
L 181.644882 24.514532 
L 346.408661 24.304111 
L 511.172441 24.082345 
" clip-path="url(#p5776005abd)" style="fill: none; stroke: #004488; stroke-width: 1.5; stroke-linecap: square"/>
   </g>
   <g id="line2d_11">
    <path d="M 49.833858 24.649525 
L 66.310236 24.632671 
L 82.786614 24.615895 
L 99.262992 24.596966 
L 181.644882 24.514532 
L 346.408661 24.304111 
L 511.172441 24.082345 
" clip-path="url(#p5776005abd)" style="fill: none; stroke-dasharray: 9.6,2.4,1.5,2.4; stroke-dashoffset: 0; stroke: #004488; stroke-width: 1.5"/>
   </g>
   <g id="line2d_12">
    <path d="M 49.833858 24.649525 
L 66.310236 24.632671 
L 82.786614 24.615895 
L 99.262992 24.596966 
L 181.644882 24.514532 
L 346.408661 24.304111 
L 511.172441 24.082345 
" clip-path="url(#p5776005abd)" style="fill: none; stroke-dasharray: 1.5,2.475; stroke-dashoffset: 0; stroke: #004488; stroke-width: 1.5"/>
   </g>
   <g id="line2d_13">
    <path d="M 49.833858 80.815425 
L 66.310236 78.714637 
L 82.786614 76.166464 
L 99.262992 75.698676 
L 181.644882 70.792321 
L 346.408661 64.884348 
L 511.172441 61.664806 
" clip-path="url(#p5776005abd)" style="fill: none; stroke-dasharray: 5.55,2.4; stroke-dashoffset: 0; stroke: #ddaa33; stroke-width: 1.5"/>
   </g>
   <g id="line2d_14">
    <path d="M 49.833858 24.649525 
L 66.310236 24.632671 
L 82.786614 24.615895 
L 99.262992 24.596966 
L 181.644882 24.514532 
L 346.408661 24.304111 
L 511.172441 24.082345 
" clip-path="url(#p5776005abd)" style="fill: none; stroke: #ddaa33; stroke-width: 1.5; stroke-linecap: square"/>
   </g>
   <g id="line2d_15">
    <path d="M 49.833858 24.649525 
L 66.310236 24.632671 
L 82.786614 24.615895 
L 99.262992 24.596966 
L 181.644882 24.514532 
L 346.408661 24.304111 
L 511.172441 24.082345 
" clip-path="url(#p5776005abd)" style="fill: none; stroke-dasharray: 9.6,2.4,1.5,2.4; stroke-dashoffset: 0; stroke: #ddaa33; stroke-width: 1.5"/>
   </g>
   <g id="line2d_16">
    <path d="M 49.833858 24.649525 
L 66.310236 24.632671 
L 82.786614 24.615895 
L 99.262992 24.596966 
L 181.644882 24.514532 
L 346.408661 24.304111 
L 511.172441 24.082345 
" clip-path="url(#p5776005abd)" style="fill: none; stroke-dasharray: 1.5,2.475; stroke-dashoffset: 0; stroke: #ddaa33; stroke-width: 1.5"/>
   </g>
   <g id="line2d_17">
    <path d="M 49.833858 80.594233 
L 66.310236 78.542932 
L 82.786614 76.888876 
L 99.262992 75.561344 
L 181.644882 70.41571 
L 346.408661 63.774819 
L 511.172441 60.474667 
" clip-path="url(#p5776005abd)" style="fill: none; stroke-dasharray: 5.55,2.4; stroke-dashoffset: 0; stroke: #bb5566; stroke-width: 1.5"/>
   </g>
   <g id="line2d_18">
    <path d="M 49.833858 24.649525 
L 66.310236 24.632671 
L 82.786614 24.615895 
L 99.262992 24.596966 
L 181.644882 24.514532 
L 346.408661 24.304111 
L 511.172441 24.082345 
" clip-path="url(#p5776005abd)" style="fill: none; stroke: #bb5566; stroke-width: 1.5; stroke-linecap: square"/>
   </g>
   <g id="line2d_19">
    <path d="M 49.833858 24.649525 
L 66.310236 24.632671 
L 82.786614 24.615895 
L 99.262992 24.596966 
L 181.644882 24.514532 
L 346.408661 24.304111 
L 511.172441 24.082345 
" clip-path="url(#p5776005abd)" style="fill: none; stroke-dasharray: 9.6,2.4,1.5,2.4; stroke-dashoffset: 0; stroke: #bb5566; stroke-width: 1.5"/>
   </g>
   <g id="line2d_20">
    <path d="M 49.833858 24.649525 
L 66.310236 24.632671 
L 82.786614 24.615895 
L 99.262992 24.596966 
L 181.644882 24.514532 
L 346.408661 24.304111 
L 511.172441 24.082345 
" clip-path="url(#p5776005abd)" style="fill: none; stroke-dasharray: 1.5,2.475; stroke-dashoffset: 0; stroke: #bb5566; stroke-width: 1.5"/>
   </g>
   <g id="line2d_21">
    <path d="M 49.833858 81.290372 
L 66.310236 80.131139 
L 82.786614 79.124599 
L 99.262992 78.234951 
L 181.644882 74.834766 
L 346.408661 70.497631 
L 511.172441 67.63097 
" clip-path="url(#p5776005abd)" style="fill: none; stroke: #000000; stroke-width: 1.5; stroke-linecap: square"/>
   </g>
   <g id="patch_3">
    <path d="M 49.833858 88.672982 
L 49.833858 18.210469 
" style="fill: none; stroke: #000000; stroke-width: 0.8; stroke-linejoin: miter; stroke-linecap: square"/>
   </g>
   <g id="patch_4">
    <path d="M 511.172441 88.672982 
L 511.172441 18.210469 
" style="fill: none; stroke: #000000; stroke-width: 0.8; stroke-linejoin: miter; stroke-linecap: square"/>
   </g>
   <g id="patch_5">
    <path d="M 49.833858 88.672982 
L 511.172441 88.672982 
" style="fill: none; stroke: #000000; stroke-width: 0.8; stroke-linejoin: miter; stroke-linecap: square"/>
   </g>
   <g id="patch_6">
    <path d="M 49.833858 18.210469 
L 511.172441 18.210469 
" style="fill: none; stroke: #000000; stroke-width: 0.8; stroke-linejoin: miter; stroke-linecap: square"/>
   </g>
   <g id="text_6">
    <text style="font: 7px 'Arial'; text-anchor: middle" x="280.50315" y="12.210469" transform="rotate(-0 280.50315 12.210469)">MAE</text>
   </g>
  </g>
  <g id="axes_2">
   <g id="patch_7">
    <path d="M 49.833858 173.227997 
L 511.172441 173.227997 
L 511.172441 102.765484 
L 49.833858 102.765484 
z
" style="fill: #ffffff"/>
   </g>
   <g id="matplotlib.axis_3"/>
   <g id="matplotlib.axis_4">
    <g id="ytick_5">
     <g id="line2d_22">
      <g>
       <use xlink:href="#madcd81c0fe" x="49.833858" y="159.868384" style="stroke: #000000; stroke-width: 0.8"/>
      </g>
     </g>
     <g id="text_7">
      <text style="font: 7px 'Arial'; text-anchor: end" x="42.833858" y="162.373618" transform="rotate(-0 42.833858 162.373618)">0.0001</text>
     </g>
    </g>
    <g id="ytick_6">
     <g id="line2d_23">
      <g>
       <use xlink:href="#madcd81c0fe" x="49.833858" y="143.097983" style="stroke: #000000; stroke-width: 0.8"/>
      </g>
     </g>
     <g id="text_8">
      <text style="font: 7px 'Arial'; text-anchor: end" x="42.833858" y="145.603218" transform="rotate(-0 42.833858 145.603218)">0.0002</text>
     </g>
    </g>
    <g id="ytick_7">
     <g id="line2d_24">
      <g>
       <use xlink:href="#madcd81c0fe" x="49.833858" y="126.327583" style="stroke: #000000; stroke-width: 0.8"/>
      </g>
     </g>
     <g id="text_9">
      <text style="font: 7px 'Arial'; text-anchor: end" x="42.833858" y="128.832817" transform="rotate(-0 42.833858 128.832817)">0.0003</text>
     </g>
    </g>
    <g id="ytick_8">
     <g id="line2d_25">
      <g>
       <use xlink:href="#madcd81c0fe" x="49.833858" y="109.557183" style="stroke: #000000; stroke-width: 0.8"/>
      </g>
     </g>
     <g id="text_10">
      <text style="font: 7px 'Arial'; text-anchor: end" x="42.833858" y="112.062417" transform="rotate(-0 42.833858 112.062417)">0.0004</text>
     </g>
    </g>
    <g id="text_11">
     <!-- $y$ offset -->
     <g transform="translate(15.95589 149.616741) rotate(-90)">
      <text>
       <tspan style="font: oblique 7px 'DejaVu Sans'" x="0" y="-0.90625">y</tspan>
       <tspan style="font: 7px 'Arial'" x="4.142578 6.087402 9.980469 11.925293 13.870117 17.370117 21.263184" y="-0.90625"> offset</tspan>
      </text>
     </g>
    </g>
   </g>
   <g id="line2d_26">
    <path d="M 49.833858 167.356121 
L 66.310236 164.190457 
L 82.786614 161.802744 
L 99.262992 159.665368 
L 181.644882 142.134786 
L 346.408661 129.265599 
L 511.172441 122.040121 
" clip-path="url(#pf0afe2ee0a)" style="fill: none; stroke-dasharray: 5.55,2.4; stroke-dashoffset: 0; stroke: #6699cc; stroke-width: 1.5"/>
   </g>
   <g id="line2d_27">
    <path d="M 49.833858 166.308498 
L 66.310236 163.449263 
L 82.786614 161.916045 
L 99.262992 159.733707 
L 181.644882 149.035541 
L 346.408661 136.685442 
L 511.172441 127.007267 
" clip-path="url(#pf0afe2ee0a)" style="fill: none; stroke-dasharray: 1.5,2.475; stroke-dashoffset: 0; stroke: #6699cc; stroke-width: 1.5"/>
   </g>
   <g id="line2d_28">
    <path d="M 49.833858 165.852424 
L 66.310236 162.009105 
L 82.786614 159.02528 
L 99.262992 156.733129 
L 181.644882 146.817525 
L 346.408661 133.412007 
L 511.172441 124.151161 
" clip-path="url(#pf0afe2ee0a)" style="fill: none; stroke-dasharray: 9.6,2.4,1.5,2.4; stroke-dashoffset: 0; stroke: #6699cc; stroke-width: 1.5"/>
   </g>
   <g id="line2d_29">
    <path d="M 49.833858 166.847613 
L 66.310236 162.888752 
L 82.786614 160.036958 
L 99.262992 157.627092 
L 181.644882 149.5942 
L 346.408661 131.870693 
L 511.172441 122.377433 
" clip-path="url(#pf0afe2ee0a)" style="fill: none; stroke: #6699cc; stroke-width: 1.5; stroke-linecap: square"/>
   </g>
   <g id="line2d_30">
    <path d="M 49.833858 164.010123 
L 66.310236 157.160202 
L 82.786614 154.028346 
L 99.262992 149.467378 
L 181.644882 134.777366 
L 346.408661 119.234184 
L 511.172441 111.188869 
" clip-path="url(#pf0afe2ee0a)" style="fill: none; stroke-dasharray: 5.55,2.4; stroke-dashoffset: 0; stroke: #004488; stroke-width: 1.5"/>
   </g>
   <g id="line2d_31">
    <path d="M 49.833858 164.646508 
L 66.310236 157.134815 
L 82.786614 152.058846 
L 99.262992 148.001624 
L 181.644882 135.65642 
L 346.408661 119.297952 
L 511.172441 110.429781 
" clip-path="url(#pf0afe2ee0a)" style="fill: none; stroke: #004488; stroke-width: 1.5; stroke-linecap: square"/>
   </g>
   <g id="line2d_32">
    <path d="M 49.833858 161.921506 
L 66.310236 157.483613 
L 82.786614 150.79879 
L 99.262992 148.382024 
L 181.644882 134.99384 
L 346.408661 118.305056 
L 511.172441 110.203471 
" clip-path="url(#pf0afe2ee0a)" style="fill: none; stroke-dasharray: 9.6,2.4,1.5,2.4; stroke-dashoffset: 0; stroke: #004488; stroke-width: 1.5"/>
   </g>
   <g id="line2d_33">
    <path d="M 49.833858 163.295684 
L 66.310236 158.651932 
L 82.786614 151.639879 
L 99.262992 148.930187 
L 181.644882 135.495423 
L 346.408661 119.051241 
L 511.172441 111.202666 
" clip-path="url(#pf0afe2ee0a)" style="fill: none; stroke-dasharray: 1.5,2.475; stroke-dashoffset: 0; stroke: #004488; stroke-width: 1.5"/>
   </g>
   <g id="line2d_34">
    <path d="M 49.833858 160.003085 
L 66.310236 157.331643 
L 82.786614 152.77413 
L 99.262992 148.269063 
L 181.644882 136.149575 
L 346.408661 120.461578 
L 511.172441 110.846366 
" clip-path="url(#pf0afe2ee0a)" style="fill: none; stroke-dasharray: 5.55,2.4; stroke-dashoffset: 0; stroke: #ddaa33; stroke-width: 1.5"/>
   </g>
   <g id="line2d_35">
    <path d="M 49.833858 162.526936 
L 66.310236 156.306828 
L 82.786614 152.789005 
L 99.262992 149.466424 
L 181.644882 136.078253 
L 346.408661 118.803644 
L 511.172441 111.809345 
" clip-path="url(#pf0afe2ee0a)" style="fill: none; stroke: #ddaa33; stroke-width: 1.5; stroke-linecap: square"/>
   </g>
   <g id="line2d_36">
    <path d="M 49.833858 160.744618 
L 66.310236 158.286589 
L 82.786614 151.868236 
L 99.262992 149.397278 
L 181.644882 134.957044 
L 346.408661 118.251979 
L 511.172441 109.734949 
" clip-path="url(#pf0afe2ee0a)" style="fill: none; stroke-dasharray: 9.6,2.4,1.5,2.4; stroke-dashoffset: 0; stroke: #ddaa33; stroke-width: 1.5"/>
   </g>
   <g id="line2d_37">
    <path d="M 49.833858 130.905466 
L 66.310236 130.231093 
L 82.786614 137.154327 
L 99.262992 138.683483 
L 181.644882 134.534146 
L 346.408661 117.530366 
L 511.172441 110.949371 
" clip-path="url(#pf0afe2ee0a)" style="fill: none; stroke-dasharray: 1.5,2.475; stroke-dashoffset: 0; stroke: #ddaa33; stroke-width: 1.5"/>
   </g>
   <g id="line2d_38">
    <path d="M 49.833858 132.823611 
L 66.310236 145.885809 
L 82.786614 141.046028 
L 99.262992 142.882986 
L 181.644882 135.090717 
L 346.408661 117.693143 
L 511.172441 111.625559 
" clip-path="url(#pf0afe2ee0a)" style="fill: none; stroke-dasharray: 5.55,2.4; stroke-dashoffset: 0; stroke: #bb5566; stroke-width: 1.5"/>
   </g>
   <g id="line2d_39">
    <path d="M 49.833858 135.694452 
L 66.310236 133.210043 
L 82.786614 146.871404 
L 99.262992 144.161009 
L 181.644882 133.987611 
L 346.408661 118.063981 
L 511.172441 110.46572 
" clip-path="url(#pf0afe2ee0a)" style="fill: none; stroke: #bb5566; stroke-width: 1.5; stroke-linecap: square"/>
   </g>
   <g id="line2d_40">
    <path d="M 49.833858 145.522245 
L 66.310236 151.695286 
L 82.786614 150.764806 
L 99.262992 148.678423 
L 181.644882 134.844244 
L 346.408661 116.282447 
L 511.172441 108.63736 
" clip-path="url(#pf0afe2ee0a)" style="fill: none; stroke-dasharray: 9.6,2.4,1.5,2.4; stroke-dashoffset: 0; stroke: #bb5566; stroke-width: 1.5"/>
   </g>
   <g id="line2d_41">
    <path d="M 49.833858 109.63614 
L 66.310236 114.764993 
L 82.786614 115.115504 
L 99.262992 117.390342 
L 181.644882 125.001886 
L 346.408661 113.118667 
L 511.172441 110.299931 
" clip-path="url(#pf0afe2ee0a)" style="fill: none; stroke-dasharray: 1.5,2.475; stroke-dashoffset: 0; stroke: #bb5566; stroke-width: 1.5"/>
   </g>
   <g id="line2d_42">
    <path d="M 49.833858 164.657873 
L 66.310236 162.009592 
L 82.786614 159.643959 
L 99.262992 157.50057 
L 181.644882 149.004112 
L 346.408661 137.924507 
L 511.172441 131.003919 
" clip-path="url(#pf0afe2ee0a)" style="fill: none; stroke: #000000; stroke-width: 1.5; stroke-linecap: square"/>
   </g>
   <g id="patch_8">
    <path d="M 49.833858 173.227997 
L 49.833858 102.765484 
" style="fill: none; stroke: #000000; stroke-width: 0.8; stroke-linejoin: miter; stroke-linecap: square"/>
   </g>
   <g id="patch_9">
    <path d="M 511.172441 173.227997 
L 511.172441 102.765484 
" style="fill: none; stroke: #000000; stroke-width: 0.8; stroke-linejoin: miter; stroke-linecap: square"/>
   </g>
   <g id="patch_10">
    <path d="M 49.833858 173.227997 
L 511.172441 173.227997 
" style="fill: none; stroke: #000000; stroke-width: 0.8; stroke-linejoin: miter; stroke-linecap: square"/>
   </g>
   <g id="patch_11">
    <path d="M 49.833858 102.765484 
L 511.172441 102.765484 
" style="fill: none; stroke: #000000; stroke-width: 0.8; stroke-linejoin: miter; stroke-linecap: square"/>
   </g>
  </g>
  <g id="axes_3">
   <g id="patch_12">
    <path d="M 49.833858 257.783012 
L 511.172441 257.783012 
L 511.172441 187.3205 
L 49.833858 187.3205 
z
" style="fill: #ffffff"/>
   </g>
   <g id="matplotlib.axis_5"/>
   <g id="matplotlib.axis_6">
    <g id="ytick_9">
     <g id="line2d_43">
      <g>
       <use xlink:href="#madcd81c0fe" x="49.833858" y="234.551931" style="stroke: #000000; stroke-width: 0.8"/>
      </g>
     </g>
     <g id="text_12">
      <text style="font: 7px 'Arial'; text-anchor: end" x="42.833858" y="237.057165" transform="rotate(-0 42.833858 237.057165)">0.0002</text>
     </g>
    </g>
    <g id="ytick_10">
     <g id="line2d_44">
      <g>
       <use xlink:href="#madcd81c0fe" x="49.833858" y="208.309928" style="stroke: #000000; stroke-width: 0.8"/>
      </g>
     </g>
     <g id="text_13">
      <text style="font: 7px 'Arial'; text-anchor: end" x="42.833858" y="210.815162" transform="rotate(-0 42.833858 210.815162)">0.0004</text>
     </g>
    </g>
    <g id="text_14">
     <!-- $x$ offset -->
     <g transform="translate(16.03464 234.171756) rotate(-90)">
      <text>
       <tspan style="font: oblique 7px 'DejaVu Sans'" x="0" y="-0.90625">x</tspan>
       <tspan style="font: 7px 'Arial'" x="4.142578 6.087402 9.980469 11.925293 13.870117 17.370117 21.263184" y="-0.90625"> offset</tspan>
      </text>
     </g>
    </g>
   </g>
   <g id="line2d_45">
    <path d="M 49.833858 251.911136 
L 66.310236 248.891006 
L 82.786614 245.926934 
L 99.262992 244.11833 
L 181.644882 227.665529 
L 346.408661 211.178165 
L 511.172441 205.137074 
" clip-path="url(#p514983c4aa)" style="fill: none; stroke-dasharray: 5.55,2.4; stroke-dashoffset: 0; stroke: #6699cc; stroke-width: 1.5"/>
   </g>
   <g id="line2d_46">
    <path d="M 49.833858 251.4588 
L 66.310236 248.18066 
L 82.786614 245.680778 
L 99.262992 243.66068 
L 181.644882 233.896233 
L 346.408661 219.151935 
L 511.172441 207.751346 
" clip-path="url(#p514983c4aa)" style="fill: none; stroke-dasharray: 1.5,2.475; stroke-dashoffset: 0; stroke: #6699cc; stroke-width: 1.5"/>
   </g>
   <g id="line2d_47">
    <path d="M 49.833858 250.679818 
L 66.310236 247.226888 
L 82.786614 244.624769 
L 99.262992 241.890894 
L 181.644882 230.804962 
L 346.408661 215.150474 
L 511.172441 204.505073 
" clip-path="url(#p514983c4aa)" style="fill: none; stroke-dasharray: 9.6,2.4,1.5,2.4; stroke-dashoffset: 0; stroke: #6699cc; stroke-width: 1.5"/>
   </g>
   <g id="line2d_48">
    <path d="M 49.833858 251.418332 
L 66.310236 247.647167 
L 82.786614 244.995085 
L 99.262992 242.063922 
L 181.644882 232.683339 
L 346.408661 214.522054 
L 511.172441 204.205488 
" clip-path="url(#p514983c4aa)" style="fill: none; stroke: #6699cc; stroke-width: 1.5; stroke-linecap: square"/>
   </g>
   <g id="line2d_49">
    <path d="M 49.833858 248.718551 
L 66.310236 242.991237 
L 82.786614 236.887782 
L 99.262992 234.795449 
L 181.644882 220.649088 
L 346.408661 201.815515 
L 511.172441 194.067101 
" clip-path="url(#p514983c4aa)" style="fill: none; stroke-dasharray: 5.55,2.4; stroke-dashoffset: 0; stroke: #004488; stroke-width: 1.5"/>
   </g>
   <g id="line2d_50">
    <path d="M 49.833858 248.424014 
L 66.310236 241.555153 
L 82.786614 238.235388 
L 99.262992 234.650613 
L 181.644882 220.876943 
L 346.408661 202.794698 
L 511.172441 194.037793 
" clip-path="url(#p514983c4aa)" style="fill: none; stroke: #004488; stroke-width: 1.5; stroke-linecap: square"/>
   </g>
   <g id="line2d_51">
    <path d="M 49.833858 249.765607 
L 66.310236 241.830412 
L 82.786614 236.414909 
L 99.262992 233.80716 
L 181.644882 219.740493 
L 346.408661 201.883224 
L 511.172441 194.158204 
" clip-path="url(#p514983c4aa)" style="fill: none; stroke-dasharray: 9.6,2.4,1.5,2.4; stroke-dashoffset: 0; stroke: #004488; stroke-width: 1.5"/>
   </g>
   <g id="line2d_52">
    <path d="M 49.833858 249.122517 
L 66.310236 242.332929 
L 82.786614 237.974869 
L 99.262992 233.940352 
L 181.644882 220.528436 
L 346.408661 203.631425 
L 511.172441 194.383781 
" clip-path="url(#p514983c4aa)" style="fill: none; stroke-dasharray: 1.5,2.475; stroke-dashoffset: 0; stroke: #004488; stroke-width: 1.5"/>
   </g>
   <g id="line2d_53">
    <path d="M 49.833858 248.517731 
L 66.310236 242.278421 
L 82.786614 238.51185 
L 99.262992 233.304531 
L 181.644882 220.425318 
L 346.408661 202.374552 
L 511.172441 195.757584 
" clip-path="url(#p514983c4aa)" style="fill: none; stroke-dasharray: 5.55,2.4; stroke-dashoffset: 0; stroke: #ddaa33; stroke-width: 1.5"/>
   </g>
   <g id="line2d_54">
    <path d="M 49.833858 248.589918 
L 66.310236 241.374012 
L 82.786614 236.382879 
L 99.262992 234.492661 
L 181.644882 220.7815 
L 346.408661 203.636581 
L 511.172441 194.523086 
" clip-path="url(#p514983c4aa)" style="fill: none; stroke: #ddaa33; stroke-width: 1.5; stroke-linecap: square"/>
   </g>
   <g id="line2d_55">
    <path d="M 49.833858 249.813412 
L 66.310236 241.347791 
L 82.786614 237.687805 
L 99.262992 232.552128 
L 181.644882 220.537111 
L 346.408661 202.325449 
L 511.172441 194.601656 
" clip-path="url(#p514983c4aa)" style="fill: none; stroke-dasharray: 9.6,2.4,1.5,2.4; stroke-dashoffset: 0; stroke: #ddaa33; stroke-width: 1.5"/>
   </g>
   <g id="line2d_56">
    <path d="M 49.833858 228.553851 
L 66.310236 238.07246 
L 82.786614 237.281316 
L 99.262992 233.599341 
L 181.644882 221.002467 
L 346.408661 202.858877 
L 511.172441 195.445933 
" clip-path="url(#p514983c4aa)" style="fill: none; stroke-dasharray: 1.5,2.475; stroke-dashoffset: 0; stroke: #ddaa33; stroke-width: 1.5"/>
   </g>
   <g id="line2d_57">
    <path d="M 49.833858 228.186608 
L 66.310236 228.674553 
L 82.786614 232.724619 
L 99.262992 233.057933 
L 181.644882 219.882614 
L 346.408661 202.366417 
L 511.172441 193.424961 
" clip-path="url(#p514983c4aa)" style="fill: none; stroke-dasharray: 5.55,2.4; stroke-dashoffset: 0; stroke: #bb5566; stroke-width: 1.5"/>
   </g>
   <g id="line2d_58">
    <path d="M 49.833858 226.601319 
L 66.310236 233.729694 
L 82.786614 234.50722 
L 99.262992 231.187187 
L 181.644882 220.234396 
L 346.408661 202.455803 
L 511.172441 193.564875 
" clip-path="url(#p514983c4aa)" style="fill: none; stroke: #bb5566; stroke-width: 1.5; stroke-linecap: square"/>
   </g>
   <g id="line2d_59">
    <path d="M 49.833858 243.15503 
L 66.310236 240.802909 
L 82.786614 235.339154 
L 99.262992 231.034846 
L 181.644882 220.269741 
L 346.408661 200.283475 
L 511.172441 193.192376 
" clip-path="url(#p514983c4aa)" style="fill: none; stroke-dasharray: 9.6,2.4,1.5,2.4; stroke-dashoffset: 0; stroke: #bb5566; stroke-width: 1.5"/>
   </g>
   <g id="line2d_60">
    <path d="M 49.833858 209.248525 
L 66.310236 213.280753 
L 82.786614 206.499308 
L 99.262992 212.112137 
L 181.644882 214.161592 
L 346.408661 201.568908 
L 511.172441 193.736873 
" clip-path="url(#p514983c4aa)" style="fill: none; stroke-dasharray: 1.5,2.475; stroke-dashoffset: 0; stroke: #bb5566; stroke-width: 1.5"/>
   </g>
   <g id="line2d_61">
    <path d="M 49.833858 249.029915 
L 66.310236 246.384374 
L 82.786614 244.0234 
L 99.262992 241.883454 
L 181.644882 233.32868 
L 346.408661 222.006213 
L 511.172441 214.871787 
" clip-path="url(#p514983c4aa)" style="fill: none; stroke: #000000; stroke-width: 1.5; stroke-linecap: square"/>
   </g>
   <g id="patch_13">
    <path d="M 49.833858 257.783012 
L 49.833858 187.3205 
" style="fill: none; stroke: #000000; stroke-width: 0.8; stroke-linejoin: miter; stroke-linecap: square"/>
   </g>
   <g id="patch_14">
    <path d="M 511.172441 257.783012 
L 511.172441 187.3205 
" style="fill: none; stroke: #000000; stroke-width: 0.8; stroke-linejoin: miter; stroke-linecap: square"/>
   </g>
   <g id="patch_15">
    <path d="M 49.833858 257.783012 
L 511.172441 257.783012 
" style="fill: none; stroke: #000000; stroke-width: 0.8; stroke-linejoin: miter; stroke-linecap: square"/>
   </g>
   <g id="patch_16">
    <path d="M 49.833858 187.3205 
L 511.172441 187.3205 
" style="fill: none; stroke: #000000; stroke-width: 0.8; stroke-linejoin: miter; stroke-linecap: square"/>
   </g>
  </g>
  <g id="axes_4">
   <g id="patch_17">
    <path d="M 49.833858 342.338028 
L 511.172441 342.338028 
L 511.172441 271.875515 
L 49.833858 271.875515 
z
" style="fill: #ffffff"/>
   </g>
   <g id="matplotlib.axis_7">
    <g id="xtick_1">
     <g id="line2d_62">
      <defs>
       <path id="mc278d76dbf" d="M 0 0 
L 0 3.5 
" style="stroke: #000000; stroke-width: 0.8"/>
      </defs>
      <g>
       <use xlink:href="#mc278d76dbf" x="49.833858" y="342.338028" style="stroke: #000000; stroke-width: 0.8"/>
      </g>
     </g>
     <g id="text_15">
      <text style="font: 7px 'Arial'; text-anchor: middle" x="49.833858" y="354.348497" transform="rotate(-0 49.833858 354.348497)">2</text>
     </g>
    </g>
    <g id="xtick_2">
     <g id="line2d_63">
      <g>
       <use xlink:href="#mc278d76dbf" x="66.310236" y="342.338028" style="stroke: #000000; stroke-width: 0.8"/>
      </g>
     </g>
     <g id="text_16">
      <text style="font: 7px 'Arial'; text-anchor: middle" x="66.310236" y="354.348497" transform="rotate(-0 66.310236 354.348497)">3</text>
     </g>
    </g>
    <g id="xtick_3">
     <g id="line2d_64">
      <g>
       <use xlink:href="#mc278d76dbf" x="82.786614" y="342.338028" style="stroke: #000000; stroke-width: 0.8"/>
      </g>
     </g>
     <g id="text_17">
      <text style="font: 7px 'Arial'; text-anchor: middle" x="82.786614" y="354.348497" transform="rotate(-0 82.786614 354.348497)">4</text>
     </g>
    </g>
    <g id="xtick_4">
     <g id="line2d_65">
      <g>
       <use xlink:href="#mc278d76dbf" x="99.262992" y="342.338028" style="stroke: #000000; stroke-width: 0.8"/>
      </g>
     </g>
     <g id="text_18">
      <text style="font: 7px 'Arial'; text-anchor: middle" x="99.262992" y="354.348497" transform="rotate(-0 99.262992 354.348497)">5</text>
     </g>
    </g>
    <g id="xtick_5">
     <g id="line2d_66">
      <g>
       <use xlink:href="#mc278d76dbf" x="181.644882" y="342.338028" style="stroke: #000000; stroke-width: 0.8"/>
      </g>
     </g>
     <g id="text_19">
      <text style="font: 7px 'Arial'; text-anchor: middle" x="181.644882" y="354.348497" transform="rotate(-0 181.644882 354.348497)">10</text>
     </g>
    </g>
    <g id="xtick_6">
     <g id="line2d_67">
      <g>
       <use xlink:href="#mc278d76dbf" x="346.408661" y="342.338028" style="stroke: #000000; stroke-width: 0.8"/>
      </g>
     </g>
     <g id="text_20">
      <text style="font: 7px 'Arial'; text-anchor: middle" x="346.408661" y="354.348497" transform="rotate(-0 346.408661 354.348497)">20</text>
     </g>
    </g>
    <g id="xtick_7">
     <g id="line2d_68">
      <g>
       <use xlink:href="#mc278d76dbf" x="511.172441" y="342.338028" style="stroke: #000000; stroke-width: 0.8"/>
      </g>
     </g>
     <g id="text_21">
      <text style="font: 7px 'Arial'; text-anchor: middle" x="511.172441" y="354.348497" transform="rotate(-0 511.172441 354.348497)">30</text>
     </g>
    </g>
    <g id="text_22">
     <text style="font: 7px 'Arial'; text-anchor: middle" x="280.50315" y="364.750215" transform="rotate(-0 280.50315 364.750215)">Forecasting length</text>
    </g>
   </g>
   <g id="matplotlib.axis_8">
    <g id="ytick_11">
     <g id="line2d_69">
      <g>
       <use xlink:href="#madcd81c0fe" x="49.833858" y="328.899082" style="stroke: #000000; stroke-width: 0.8"/>
      </g>
     </g>
     <g id="text_23">
      <text style="font: 7px 'Arial'; text-anchor: end" x="42.833858" y="331.404316" transform="rotate(-0 42.833858 331.404316)">5</text>
     </g>
    </g>
    <g id="ytick_12">
     <g id="line2d_70">
      <g>
       <use xlink:href="#madcd81c0fe" x="49.833858" y="314.057172" style="stroke: #000000; stroke-width: 0.8"/>
      </g>
     </g>
     <g id="text_24">
      <text style="font: 7px 'Arial'; text-anchor: end" x="42.833858" y="316.562407" transform="rotate(-0 42.833858 316.562407)">10</text>
     </g>
    </g>
    <g id="ytick_13">
     <g id="line2d_71">
      <g>
       <use xlink:href="#madcd81c0fe" x="49.833858" y="299.215263" style="stroke: #000000; stroke-width: 0.8"/>
      </g>
     </g>
     <g id="text_25">
      <text style="font: 7px 'Arial'; text-anchor: end" x="42.833858" y="301.720497" transform="rotate(-0 42.833858 301.720497)">15</text>
     </g>
    </g>
    <g id="ytick_14">
     <g id="line2d_72">
      <g>
       <use xlink:href="#madcd81c0fe" x="49.833858" y="284.373354" style="stroke: #000000; stroke-width: 0.8"/>
      </g>
     </g>
     <g id="text_26">
      <text style="font: 7px 'Arial'; text-anchor: end" x="42.833858" y="286.878588" transform="rotate(-0 42.833858 286.878588)">20</text>
     </g>
    </g>
    <g id="text_27">
     <text style="font: 7px 'Arial'; text-anchor: middle" x="29.657296" y="307.106771" transform="rotate(-90 29.657296 307.106771)">Speed</text>
    </g>
   </g>
   <g id="line2d_73">
    <path d="M 49.833858 335.780246 
L 66.310236 332.642507 
L 82.786614 331.020924 
L 99.262992 330.544959 
L 181.644882 326.762328 
L 346.408661 320.932828 
L 511.172441 317.983018 
" clip-path="url(#p0b29b47385)" style="fill: none; stroke-dasharray: 5.55,2.4; stroke-dashoffset: 0; stroke: #6699cc; stroke-width: 1.5"/>
   </g>
   <g id="line2d_74">
    <path d="M 49.833858 335.857835 
L 66.310236 332.791274 
L 82.786614 330.830627 
L 99.262992 329.258053 
L 181.644882 325.293511 
L 346.408661 319.811699 
L 511.172441 316.752243 
" clip-path="url(#p0b29b47385)" style="fill: none; stroke-dasharray: 1.5,2.475; stroke-dashoffset: 0; stroke: #6699cc; stroke-width: 1.5"/>
   </g>
   <g id="line2d_75">
    <path d="M 49.833858 335.816335 
L 66.310236 332.75221 
L 82.786614 330.429411 
L 99.262992 328.404826 
L 181.644882 323.301504 
L 346.408661 318.759074 
L 511.172441 314.837638 
" clip-path="url(#p0b29b47385)" style="fill: none; stroke-dasharray: 9.6,2.4,1.5,2.4; stroke-dashoffset: 0; stroke: #6699cc; stroke-width: 1.5"/>
   </g>
   <g id="line2d_76">
    <path d="M 49.833858 335.655273 
L 66.310236 332.485213 
L 82.786614 330.050771 
L 99.262992 328.117226 
L 181.644882 323.073803 
L 346.408661 319.217363 
L 511.172441 315.402743 
" clip-path="url(#p0b29b47385)" style="fill: none; stroke: #6699cc; stroke-width: 1.5; stroke-linecap: square"/>
   </g>
   <g id="line2d_77">
    <path d="M 49.833858 336.323165 
L 66.310236 333.397737 
L 82.786614 330.916495 
L 99.262992 329.136878 
L 181.644882 323.314529 
L 346.408661 319.948597 
L 511.172441 318.442173 
" clip-path="url(#p0b29b47385)" style="fill: none; stroke-dasharray: 5.55,2.4; stroke-dashoffset: 0; stroke: #004488; stroke-width: 1.5"/>
   </g>
   <g id="line2d_78">
    <path d="M 49.833858 279.56149 
L 66.310236 279.461969 
L 82.786614 279.377693 
L 99.262992 279.28928 
L 181.644882 278.899796 
L 346.408661 278.289106 
L 511.172441 277.747391 
" clip-path="url(#p0b29b47385)" style="fill: none; stroke: #004488; stroke-width: 1.5; stroke-linecap: square"/>
   </g>
   <g id="line2d_79">
    <path d="M 49.833858 279.561483 
L 66.310236 279.461913 
L 82.786614 279.377693 
L 99.262992 279.28928 
L 181.644882 278.899796 
L 346.408661 278.289106 
L 511.172441 277.747391 
" clip-path="url(#p0b29b47385)" style="fill: none; stroke-dasharray: 9.6,2.4,1.5,2.4; stroke-dashoffset: 0; stroke: #004488; stroke-width: 1.5"/>
   </g>
   <g id="line2d_80">
    <path d="M 49.833858 279.56148 
L 66.310236 279.46191 
L 82.786614 279.377693 
L 99.262992 279.28928 
L 181.644882 278.899796 
L 346.408661 278.289106 
L 511.172441 277.747391 
" clip-path="url(#p0b29b47385)" style="fill: none; stroke-dasharray: 1.5,2.475; stroke-dashoffset: 0; stroke: #004488; stroke-width: 1.5"/>
   </g>
   <g id="line2d_81">
    <path d="M 49.833858 336.466152 
L 66.310236 333.633551 
L 82.786614 331.25782 
L 99.262992 329.338542 
L 181.644882 323.724059 
L 346.408661 320.336046 
L 511.172441 318.736546 
" clip-path="url(#p0b29b47385)" style="fill: none; stroke-dasharray: 5.55,2.4; stroke-dashoffset: 0; stroke: #ddaa33; stroke-width: 1.5"/>
   </g>
   <g id="line2d_82">
    <path d="M 49.833858 279.561483 
L 66.310236 279.461937 
L 82.786614 279.377694 
L 99.262992 279.28928 
L 181.644882 278.899796 
L 346.408661 278.289106 
L 511.172441 277.747391 
" clip-path="url(#p0b29b47385)" style="fill: none; stroke: #ddaa33; stroke-width: 1.5; stroke-linecap: square"/>
   </g>
   <g id="line2d_83">
    <path d="M 49.833858 279.561479 
L 66.310236 279.461915 
L 82.786614 279.377694 
L 99.262992 279.28928 
L 181.644882 278.899796 
L 346.408661 278.289106 
L 511.172441 277.747391 
" clip-path="url(#p0b29b47385)" style="fill: none; stroke-dasharray: 9.6,2.4,1.5,2.4; stroke-dashoffset: 0; stroke: #ddaa33; stroke-width: 1.5"/>
   </g>
   <g id="line2d_84">
    <path d="M 49.833858 279.533444 
L 66.310236 279.461912 
L 82.786614 279.377693 
L 99.262992 279.28928 
L 181.644882 278.899796 
L 346.408661 278.289106 
L 511.172441 277.747391 
" clip-path="url(#p0b29b47385)" style="fill: none; stroke-dasharray: 1.5,2.475; stroke-dashoffset: 0; stroke: #ddaa33; stroke-width: 1.5"/>
   </g>
   <g id="line2d_85">
    <path d="M 49.833858 336.153641 
L 66.310236 333.368508 
L 82.786614 331.073195 
L 99.262992 329.242633 
L 181.644882 323.77964 
L 346.408661 320.385896 
L 511.172441 318.772656 
" clip-path="url(#p0b29b47385)" style="fill: none; stroke-dasharray: 5.55,2.4; stroke-dashoffset: 0; stroke: #bb5566; stroke-width: 1.5"/>
   </g>
   <g id="line2d_86">
    <path d="M 49.833858 279.560638 
L 66.310236 279.461913 
L 82.786614 279.377693 
L 99.262992 279.28928 
L 181.644882 278.899796 
L 346.408661 278.289106 
L 511.172441 277.747391 
" clip-path="url(#p0b29b47385)" style="fill: none; stroke: #bb5566; stroke-width: 1.5; stroke-linecap: square"/>
   </g>
   <g id="line2d_87">
    <path d="M 49.833858 279.561479 
L 66.310236 279.461911 
L 82.786614 279.377693 
L 99.262992 279.289273 
L 181.644882 278.899796 
L 346.408661 278.289106 
L 511.172441 277.747391 
" clip-path="url(#p0b29b47385)" style="fill: none; stroke-dasharray: 9.6,2.4,1.5,2.4; stroke-dashoffset: 0; stroke: #bb5566; stroke-width: 1.5"/>
   </g>
   <g id="line2d_88">
    <path d="M 49.833858 279.561475 
L 66.310236 279.461888 
L 82.786614 279.377693 
L 99.262992 279.28928 
L 181.644882 278.899796 
L 346.408661 278.289106 
L 511.172441 277.747391 
" clip-path="url(#p0b29b47385)" style="fill: none; stroke-dasharray: 1.5,2.475; stroke-dashoffset: 0; stroke: #bb5566; stroke-width: 1.5"/>
   </g>
   <g id="line2d_89">
    <path d="M 49.833858 335.595762 
L 66.310236 333.953106 
L 82.786614 332.518617 
L 99.262992 331.25867 
L 181.644882 326.90658 
L 346.408661 323.013363 
L 511.172441 321.139586 
" clip-path="url(#p0b29b47385)" style="fill: none; stroke: #000000; stroke-width: 1.5; stroke-linecap: square"/>
   </g>
   <g id="line2d_90">
    <path d="M 16.881102 348.209904 
" clip-path="url(#p0b29b47385)" style="fill: none; stroke-dasharray: 5.55,2.4; stroke-dashoffset: 0; stroke: #6699cc; stroke-width: 1.5"/>
   </g>
   <g id="line2d_91">
    <path d="M 16.881102 348.209904 
" clip-path="url(#p0b29b47385)" style="fill: none; stroke-dasharray: 1.5,2.475; stroke-dashoffset: 0; stroke: #6699cc; stroke-width: 1.5"/>
   </g>
   <g id="line2d_92">
    <path d="M 16.881102 348.209904 
" clip-path="url(#p0b29b47385)" style="fill: none; stroke-dasharray: 9.6,2.4,1.5,2.4; stroke-dashoffset: 0; stroke: #6699cc; stroke-width: 1.5"/>
   </g>
   <g id="line2d_93">
    <path d="M 16.881102 348.209904 
" clip-path="url(#p0b29b47385)" style="fill: none; stroke: #6699cc; stroke-width: 1.5; stroke-linecap: square"/>
   </g>
   <g id="line2d_94">
    <path d="M 16.881102 348.209904 
" clip-path="url(#p0b29b47385)" style="fill: none; stroke-dasharray: 5.55,2.4; stroke-dashoffset: 0; stroke: #004488; stroke-width: 1.5"/>
   </g>
   <g id="line2d_95">
    <path d="M 16.881102 348.209904 
" clip-path="url(#p0b29b47385)" style="fill: none; stroke: #004488; stroke-width: 1.5; stroke-linecap: square"/>
   </g>
   <g id="line2d_96">
    <path d="M 16.881102 348.209904 
" clip-path="url(#p0b29b47385)" style="fill: none; stroke-dasharray: 9.6,2.4,1.5,2.4; stroke-dashoffset: 0; stroke: #004488; stroke-width: 1.5"/>
   </g>
   <g id="line2d_97">
    <path d="M 16.881102 348.209904 
" clip-path="url(#p0b29b47385)" style="fill: none; stroke-dasharray: 1.5,2.475; stroke-dashoffset: 0; stroke: #004488; stroke-width: 1.5"/>
   </g>
   <g id="line2d_98">
    <path d="M 16.881102 348.209904 
" clip-path="url(#p0b29b47385)" style="fill: none; stroke-dasharray: 5.55,2.4; stroke-dashoffset: 0; stroke: #ddaa33; stroke-width: 1.5"/>
   </g>
   <g id="line2d_99">
    <path d="M 16.881102 348.209904 
" clip-path="url(#p0b29b47385)" style="fill: none; stroke: #ddaa33; stroke-width: 1.5; stroke-linecap: square"/>
   </g>
   <g id="line2d_100">
    <path d="M 16.881102 348.209904 
" clip-path="url(#p0b29b47385)" style="fill: none; stroke-dasharray: 9.6,2.4,1.5,2.4; stroke-dashoffset: 0; stroke: #ddaa33; stroke-width: 1.5"/>
   </g>
   <g id="line2d_101">
    <path d="M 16.881102 348.209904 
" clip-path="url(#p0b29b47385)" style="fill: none; stroke-dasharray: 1.5,2.475; stroke-dashoffset: 0; stroke: #ddaa33; stroke-width: 1.5"/>
   </g>
   <g id="line2d_102">
    <path d="M 16.881102 348.209904 
" clip-path="url(#p0b29b47385)" style="fill: none; stroke-dasharray: 5.55,2.4; stroke-dashoffset: 0; stroke: #bb5566; stroke-width: 1.5"/>
   </g>
   <g id="line2d_103">
    <path d="M 16.881102 348.209904 
" clip-path="url(#p0b29b47385)" style="fill: none; stroke: #bb5566; stroke-width: 1.5; stroke-linecap: square"/>
   </g>
   <g id="line2d_104">
    <path d="M 16.881102 348.209904 
" clip-path="url(#p0b29b47385)" style="fill: none; stroke-dasharray: 9.6,2.4,1.5,2.4; stroke-dashoffset: 0; stroke: #bb5566; stroke-width: 1.5"/>
   </g>
   <g id="line2d_105">
    <path d="M 16.881102 348.209904 
" clip-path="url(#p0b29b47385)" style="fill: none; stroke-dasharray: 1.5,2.475; stroke-dashoffset: 0; stroke: #bb5566; stroke-width: 1.5"/>
   </g>
   <g id="line2d_106">
    <path d="M 16.881102 348.209904 
" clip-path="url(#p0b29b47385)" style="fill: none; stroke: #000000; stroke-width: 1.5; stroke-linecap: square"/>
   </g>
   <g id="patch_18">
    <path d="M 49.833858 342.338028 
L 49.833858 271.875515 
" style="fill: none; stroke: #000000; stroke-width: 0.8; stroke-linejoin: miter; stroke-linecap: square"/>
   </g>
   <g id="patch_19">
    <path d="M 511.172441 342.338028 
L 511.172441 271.875515 
" style="fill: none; stroke: #000000; stroke-width: 0.8; stroke-linejoin: miter; stroke-linecap: square"/>
   </g>
   <g id="patch_20">
    <path d="M 49.833858 342.338028 
L 511.172441 342.338028 
" style="fill: none; stroke: #000000; stroke-width: 0.8; stroke-linejoin: miter; stroke-linecap: square"/>
   </g>
   <g id="patch_21">
    <path d="M 49.833858 271.875515 
L 511.172441 271.875515 
" style="fill: none; stroke: #000000; stroke-width: 0.8; stroke-linejoin: miter; stroke-linecap: square"/>
   </g>
   <g id="legend_1">
    <g id="patch_22">
     <path d="M 8.6 406.48204 
L 529.552031 406.48204 
Q 530.952031 406.48204 530.952031 405.08204 
L 530.952031 376.076884 
Q 530.952031 374.676884 529.552031 374.676884 
L 8.6 374.676884 
Q 7.2 374.676884 7.2 376.076884 
L 7.2 405.08204 
Q 7.2 406.48204 8.6 406.48204 
z
" style="fill: #ffffff; opacity: 0.8; stroke: #cccccc; stroke-linejoin: miter"/>
    </g>
    <g id="line2d_107">
     <path d="M 10 380.037353 
L 17 380.037353 
L 24 380.037353 
" style="fill: none; stroke-dasharray: 5.55,2.4; stroke-dashoffset: 0; stroke: #6699cc; stroke-width: 1.5"/>
    </g>
    <g id="text_28">
     <text style="font: 7px 'Arial'; text-anchor: start" x="29.6" y="382.487353" transform="rotate(-0 29.6 382.487353)">GRU Att 1</text>
    </g>
    <g id="line2d_108">
     <path d="M 10 389.939071 
L 17 389.939071 
L 24 389.939071 
" style="fill: none; stroke-dasharray: 1.5,2.475; stroke-dashoffset: 0; stroke: #6699cc; stroke-width: 1.5"/>
    </g>
    <g id="text_29">
     <text style="font: 7px 'Arial'; text-anchor: start" x="29.6" y="392.389071" transform="rotate(-0 29.6 392.389071)">GRU Att 2</text>
    </g>
    <g id="line2d_109">
     <path d="M 10 399.84079 
L 17 399.84079 
L 24 399.84079 
" style="fill: none; stroke-dasharray: 9.6,2.4,1.5,2.4; stroke-dashoffset: 0; stroke: #6699cc; stroke-width: 1.5"/>
    </g>
    <g id="text_30">
     <text style="font: 7px 'Arial'; text-anchor: start" x="29.6" y="402.29079" transform="rotate(-0 29.6 402.29079)">GRU Att 3</text>
    </g>
    <g id="line2d_110">
     <path d="M 75.110938 380.037353 
L 82.110938 380.037353 
L 89.110938 380.037353 
" style="fill: none; stroke: #6699cc; stroke-width: 1.5; stroke-linecap: square"/>
    </g>
    <g id="text_31">
     <text style="font: 7px 'Arial'; text-anchor: start" x="94.710938" y="382.487353" transform="rotate(-0 94.710938 382.487353)">GRU Att 4</text>
    </g>
    <g id="line2d_111">
     <path d="M 75.110938 389.939071 
L 82.110938 389.939071 
L 89.110938 389.939071 
" style="fill: none; stroke-dasharray: 5.55,2.4; stroke-dashoffset: 0; stroke: #004488; stroke-width: 1.5"/>
    </g>
    <g id="text_32">
     <text style="font: 7px 'Arial'; text-anchor: start" x="94.710938" y="392.389071" transform="rotate(-0 94.710938 392.389071)">GRU Linear</text>
    </g>
    <g id="line2d_112">
     <path d="M 75.110938 399.84079 
L 82.110938 399.84079 
L 89.110938 399.84079 
" style="fill: none; stroke: #004488; stroke-width: 1.5; stroke-linecap: square"/>
    </g>
    <g id="text_33">
     <text style="font: 7px 'Arial'; text-anchor: start" x="94.710938" y="402.29079" transform="rotate(-0 94.710938 402.29079)">GRU Reference</text>
    </g>
    <g id="line2d_113">
     <path d="M 158.505 380.037353 
L 165.505 380.037353 
L 172.505 380.037353 
" style="fill: none; stroke-dasharray: 9.6,2.4,1.5,2.4; stroke-dashoffset: 0; stroke: #004488; stroke-width: 1.5"/>
    </g>
    <g id="text_34">
     <text style="font: 7px 'Arial'; text-anchor: start" x="178.105" y="382.487353" transform="rotate(-0 178.105 382.487353)">GRU Third</text>
    </g>
    <g id="line2d_114">
     <path d="M 158.505 389.939071 
L 165.505 389.939071 
L 172.505 389.939071 
" style="fill: none; stroke-dasharray: 1.5,2.475; stroke-dashoffset: 0; stroke: #004488; stroke-width: 1.5"/>
    </g>
    <g id="text_35">
     <text style="font: 7px 'Arial'; text-anchor: start" x="178.105" y="392.389071" transform="rotate(-0 178.105 392.389071)">GRU Twice</text>
    </g>
    <g id="line2d_115">
     <path d="M 158.505 399.84079 
L 165.505 399.84079 
L 172.505 399.84079 
" style="fill: none; stroke-dasharray: 5.55,2.4; stroke-dashoffset: 0; stroke: #ddaa33; stroke-width: 1.5"/>
    </g>
    <g id="text_36">
     <text style="font: 7px 'Arial'; text-anchor: start" x="178.105" y="402.29079" transform="rotate(-0 178.105 402.29079)">LSTM Linear</text>
    </g>
    <g id="line2d_116">
     <path d="M 232.174531 380.037353 
L 239.174531 380.037353 
L 246.174531 380.037353 
" style="fill: none; stroke: #ddaa33; stroke-width: 1.5; stroke-linecap: square"/>
    </g>
    <g id="text_37">
     <text style="font: 7px 'Arial'; text-anchor: start" x="251.774531" y="382.487353" transform="rotate(-0 251.774531 382.487353)">LSTM Reference</text>
    </g>
    <g id="line2d_117">
     <path d="M 232.174531 389.939071 
L 239.174531 389.939071 
L 246.174531 389.939071 
" style="fill: none; stroke-dasharray: 9.6,2.4,1.5,2.4; stroke-dashoffset: 0; stroke: #ddaa33; stroke-width: 1.5"/>
    </g>
    <g id="text_38">
     <text style="font: 7px 'Arial'; text-anchor: start" x="251.774531" y="392.389071" transform="rotate(-0 251.774531 392.389071)">LSTM Third</text>
    </g>
    <g id="line2d_118">
     <path d="M 318.681406 380.037353 
L 325.681406 380.037353 
L 332.681406 380.037353 
" style="fill: none; stroke-dasharray: 1.5,2.475; stroke-dashoffset: 0; stroke: #ddaa33; stroke-width: 1.5"/>
    </g>
    <g id="text_39">
     <text style="font: 7px 'Arial'; text-anchor: start" x="338.281406" y="382.487353" transform="rotate(-0 338.281406 382.487353)">LSTM Twice</text>
    </g>
    <g id="line2d_119">
     <path d="M 318.681406 389.939071 
L 325.681406 389.939071 
L 332.681406 389.939071 
" style="fill: none; stroke-dasharray: 5.55,2.4; stroke-dashoffset: 0; stroke: #bb5566; stroke-width: 1.5"/>
    </g>
    <g id="text_40">
     <text style="font: 7px 'Arial'; text-anchor: start" x="338.281406" y="392.389071" transform="rotate(-0 338.281406 392.389071)">RNN Linear</text>
    </g>
    <g id="line2d_120">
     <path d="M 390.665469 380.037353 
L 397.665469 380.037353 
L 404.665469 380.037353 
" style="fill: none; stroke: #bb5566; stroke-width: 1.5; stroke-linecap: square"/>
    </g>
    <g id="text_41">
     <text style="font: 7px 'Arial'; text-anchor: start" x="410.265469" y="382.487353" transform="rotate(-0 410.265469 382.487353)">RNN Reference</text>
    </g>
    <g id="line2d_121">
     <path d="M 390.665469 389.939071 
L 397.665469 389.939071 
L 404.665469 389.939071 
" style="fill: none; stroke-dasharray: 9.6,2.4,1.5,2.4; stroke-dashoffset: 0; stroke: #bb5566; stroke-width: 1.5"/>
    </g>
    <g id="text_42">
     <text style="font: 7px 'Arial'; text-anchor: start" x="410.265469" y="392.389071" transform="rotate(-0 410.265469 392.389071)">RNN Third</text>
    </g>
    <g id="line2d_122">
     <path d="M 473.670156 380.037353 
L 480.670156 380.037353 
L 487.670156 380.037353 
" style="fill: none; stroke-dasharray: 1.5,2.475; stroke-dashoffset: 0; stroke: #bb5566; stroke-width: 1.5"/>
    </g>
    <g id="text_43">
     <text style="font: 7px 'Arial'; text-anchor: start" x="493.270156" y="382.487353" transform="rotate(-0 493.270156 382.487353)">RNN Twice</text>
    </g>
    <g id="line2d_123">
     <path d="M 473.670156 389.939071 
L 480.670156 389.939071 
L 487.670156 389.939071 
" style="fill: none; stroke: #000000; stroke-width: 1.5; stroke-linecap: square"/>
    </g>
    <g id="text_44">
     <text style="font: 7px 'Arial'; text-anchor: start" x="493.270156" y="392.389071" transform="rotate(-0 493.270156 392.389071)">UniTS</text>
    </g>
   </g>
  </g>
 </g>
 <defs>
  <clipPath id="p5776005abd">
   <rect x="49.833858" y="18.210469" width="461.338583" height="70.462513"/>
  </clipPath>
  <clipPath id="pf0afe2ee0a">
   <rect x="49.833858" y="102.765484" width="461.338583" height="70.462513"/>
  </clipPath>
  <clipPath id="p514983c4aa">
   <rect x="49.833858" y="187.3205" width="461.338583" height="70.462513"/>
  </clipPath>
  <clipPath id="p0b29b47385">
   <rect x="49.833858" y="271.875515" width="461.338583" height="70.462513"/>
  </clipPath>
 </defs>
</svg>
