<?xml version="1.0" encoding="utf-8" standalone="no"?>
<!DOCTYPE svg PUBLIC "-//W3C//DTD SVG 1.1//EN"
  "http://www.w3.org/Graphics/SVG/1.1/DTD/svg11.dtd">
<svg xmlns:xlink="http://www.w3.org/1999/xlink" width="538.152031pt" height="416.756768pt" viewBox="0 0 538.152031 416.756768" xmlns="http://www.w3.org/2000/svg" version="1.1">
 <metadata>
  <rdf:RDF xmlns:dc="http://purl.org/dc/elements/1.1/" xmlns:cc="http://creativecommons.org/ns#" xmlns:rdf="http://www.w3.org/1999/02/22-rdf-syntax-ns#">
   <cc:Work>
    <dc:type rdf:resource="http://purl.org/dc/dcmitype/StillImage"/>
    <dc:date>2024-10-10T01:45:23.906256</dc:date>
    <dc:format>image/svg+xml</dc:format>
    <dc:creator>
     <cc:Agent>
      <dc:title>Matplotlib v3.7.0, https://matplotlib.org/</dc:title>
     </cc:Agent>
    </dc:creator>
   </cc:Work>
  </rdf:RDF>
 </metadata>
 <defs>
  <style type="text/css">*{stroke-linejoin: round; stroke-linecap: butt}</style>
 </defs>
 <g id="figure_1">
  <g id="patch_1">
   <path d="M 0 416.756768 
L 538.152031 416.756768 
L 538.152031 0 
L 0 0 
z
" style="fill: #ffffff"/>
  </g>
  <g id="axes_1">
   <g id="patch_2">
    <path d="M 49.833858 165.541177 
L 511.172441 165.541177 
L 511.172441 18.210469 
L 49.833858 18.210469 
z
" style="fill: #ffffff"/>
   </g>
   <g id="matplotlib.axis_1"/>
   <g id="matplotlib.axis_2">
    <g id="ytick_1">
     <g id="line2d_1">
      <defs>
       <path id="md7a685118f" d="M 0 0 
L -3.5 0 
" style="stroke: #000000; stroke-width: 0.8"/>
      </defs>
      <g>
       <use xlink:href="#md7a685118f" x="49.833858" y="154.69364" style="stroke: #000000; stroke-width: 0.8"/>
      </g>
     </g>
     <g id="text_1">
      <text style="font: 7px 'Arial'; text-anchor: end" x="42.833858" y="157.198874" transform="rotate(-0 42.833858 157.198874)">0</text>
     </g>
    </g>
    <g id="ytick_2">
     <g id="line2d_2">
      <g>
       <use xlink:href="#md7a685118f" x="49.833858" y="133.994502" style="stroke: #000000; stroke-width: 0.8"/>
      </g>
     </g>
     <g id="text_2">
      <text style="font: 7px 'Arial'; text-anchor: end" x="42.833858" y="136.499736" transform="rotate(-0 42.833858 136.499736)">5</text>
     </g>
    </g>
    <g id="ytick_3">
     <g id="line2d_3">
      <g>
       <use xlink:href="#md7a685118f" x="49.833858" y="113.295363" style="stroke: #000000; stroke-width: 0.8"/>
      </g>
     </g>
     <g id="text_3">
      <text style="font: 7px 'Arial'; text-anchor: end" x="42.833858" y="115.800597" transform="rotate(-0 42.833858 115.800597)">10</text>
     </g>
    </g>
    <g id="ytick_4">
     <g id="line2d_4">
      <g>
       <use xlink:href="#md7a685118f" x="49.833858" y="92.596224" style="stroke: #000000; stroke-width: 0.8"/>
      </g>
     </g>
     <g id="text_4">
      <text style="font: 7px 'Arial'; text-anchor: end" x="42.833858" y="95.101459" transform="rotate(-0 42.833858 95.101459)">15</text>
     </g>
    </g>
    <g id="ytick_5">
     <g id="line2d_5">
      <g>
       <use xlink:href="#md7a685118f" x="49.833858" y="71.897086" style="stroke: #000000; stroke-width: 0.8"/>
      </g>
     </g>
     <g id="text_5">
      <text style="font: 7px 'Arial'; text-anchor: end" x="42.833858" y="74.40232" transform="rotate(-0 42.833858 74.40232)">20</text>
     </g>
    </g>
    <g id="ytick_6">
     <g id="line2d_6">
      <g>
       <use xlink:href="#md7a685118f" x="49.833858" y="51.197947" style="stroke: #000000; stroke-width: 0.8"/>
      </g>
     </g>
     <g id="text_6">
      <text style="font: 7px 'Arial'; text-anchor: end" x="42.833858" y="53.703182" transform="rotate(-0 42.833858 53.703182)">25</text>
     </g>
    </g>
    <g id="ytick_7">
     <g id="line2d_7">
      <g>
       <use xlink:href="#md7a685118f" x="49.833858" y="30.498809" style="stroke: #000000; stroke-width: 0.8"/>
      </g>
     </g>
     <g id="text_7">
      <text style="font: 7px 'Arial'; text-anchor: end" x="42.833858" y="33.004043" transform="rotate(-0 42.833858 33.004043)">30</text>
     </g>
    </g>
    <g id="text_8">
     <!-- $x$ and $y$ offset -->
     <g transform="translate(29.578546 113.365823) rotate(-90)">
      <text>
       <tspan style="font: oblique 7px 'DejaVu Sans'" x="0 19.711426" y="-0.90625">xy</tspan>
       <tspan style="font: 7px 'Arial'" x="4.142578 6.087402 9.980469 13.873535 17.766602 23.854004 25.798828 29.691895 31.636719 33.581543 37.081543 40.974609" y="-0.90625"> and  offset</tspan>
      </text>
     </g>
    </g>
   </g>
   <g id="line2d_8">
    <path d="M 49.833858 153.175991 
L 66.310236 152.819506 
L 82.786614 152.302211 
L 99.262992 151.484592 
L 181.644882 136.847865 
L 346.408661 127.347434 
L 511.172441 124.300887 
" clip-path="url(#p67a1bd2e05)" style="fill: none; stroke-dasharray: 5.55,2.4; stroke-dashoffset: 0; stroke: #6699cc; stroke-width: 1.5"/>
   </g>
   <g id="line2d_9">
    <path d="M 49.833858 152.977764 
L 66.310236 152.465295 
L 82.786614 152.026352 
L 99.262992 150.982663 
L 181.644882 146.934725 
L 346.408661 137.84851 
L 511.172441 124.251826 
" clip-path="url(#p67a1bd2e05)" style="fill: none; stroke-dasharray: 1.5,2.475; stroke-dashoffset: 0; stroke: #6699cc; stroke-width: 1.5"/>
   </g>
   <g id="line2d_10">
    <path d="M 49.833858 153.121765 
L 66.310236 152.460245 
L 82.786614 151.964047 
L 99.262992 151.343176 
L 181.644882 144.371621 
L 346.408661 130.130837 
L 511.172441 121.005971 
" clip-path="url(#p67a1bd2e05)" style="fill: none; stroke-dasharray: 9.6,2.4,1.5,2.4; stroke-dashoffset: 0; stroke: #6699cc; stroke-width: 1.5"/>
   </g>
   <g id="line2d_11">
    <path d="M 49.833858 153.263618 
L 66.310236 152.818159 
L 82.786614 152.342446 
L 99.262992 151.727703 
L 181.644882 144.018185 
L 346.408661 129.68363 
L 511.172441 123.344811 
" clip-path="url(#p67a1bd2e05)" style="fill: none; stroke: #6699cc; stroke-width: 1.5; stroke-linecap: square"/>
   </g>
   <g id="line2d_12">
    <path d="M 49.833858 134.408865 
L 66.310236 131.797031 
L 82.786614 132.549559 
L 99.262992 129.969769 
L 181.644882 123.646505 
L 346.408661 117.157946 
L 511.172441 116.378083 
" clip-path="url(#p67a1bd2e05)" style="fill: none; stroke-dasharray: 5.55,2.4; stroke-dashoffset: 0; stroke: #004488; stroke-width: 1.5"/>
   </g>
   <g id="line2d_13">
    <path d="M 49.833858 134.743396 
L 66.310236 129.255222 
L 82.786614 129.975058 
L 99.262992 129.119162 
L 181.644882 125.737739 
L 346.408661 120.033451 
L 511.172441 119.100413 
" clip-path="url(#p67a1bd2e05)" style="fill: none; stroke: #004488; stroke-width: 1.5; stroke-linecap: square"/>
   </g>
   <g id="line2d_14">
    <path d="M 49.833858 134.242133 
L 66.310236 128.465858 
L 82.786614 130.366309 
L 99.262992 127.466177 
L 181.644882 125.301275 
L 346.408661 119.409167 
L 511.172441 118.568189 
" clip-path="url(#p67a1bd2e05)" style="fill: none; stroke-dasharray: 9.6,2.4,1.5,2.4; stroke-dashoffset: 0; stroke: #004488; stroke-width: 1.5"/>
   </g>
   <g id="line2d_15">
    <path d="M 49.833858 136.574463 
L 66.310236 128.77035 
L 82.786614 128.936218 
L 99.262992 126.823117 
L 181.644882 129.165368 
L 346.408661 120.66282 
L 511.172441 117.382935 
" clip-path="url(#p67a1bd2e05)" style="fill: none; stroke-dasharray: 1.5,2.475; stroke-dashoffset: 0; stroke: #004488; stroke-width: 1.5"/>
   </g>
   <g id="line2d_16">
    <path d="M 49.833858 128.147359 
L 66.310236 129.22296 
L 82.786614 132.461119 
L 99.262992 121.402618 
L 181.644882 122.536722 
L 346.408661 125.550473 
L 511.172441 120.273707 
" clip-path="url(#p67a1bd2e05)" style="fill: none; stroke-dasharray: 5.55,2.4; stroke-dashoffset: 0; stroke: #ddaa33; stroke-width: 1.5"/>
   </g>
   <g id="line2d_17">
    <path d="M 49.833858 103.75693 
L 66.310236 125.451818 
L 82.786614 127.387873 
L 99.262992 130.52187 
L 181.644882 126.492202 
L 346.408661 122.353342 
L 511.172441 119.375069 
" clip-path="url(#p67a1bd2e05)" style="fill: none; stroke: #ddaa33; stroke-width: 1.5; stroke-linecap: square"/>
   </g>
   <g id="line2d_18">
    <path d="M 49.833858 130.755651 
L 66.310236 124.747118 
L 82.786614 126.935959 
L 99.262992 122.835335 
L 181.644882 124.792639 
L 346.408661 118.11051 
L 511.172441 117.210968 
" clip-path="url(#p67a1bd2e05)" style="fill: none; stroke-dasharray: 9.6,2.4,1.5,2.4; stroke-dashoffset: 0; stroke: #ddaa33; stroke-width: 1.5"/>
   </g>
   <g id="line2d_19">
    <path d="M 49.833858 119.160358 
L 66.310236 122.578745 
L 82.786614 123.826877 
L 99.262992 115.595867 
L 181.644882 121.82851 
L 346.408661 112.881781 
L 511.172441 115.069363 
" clip-path="url(#p67a1bd2e05)" style="fill: none; stroke-dasharray: 1.5,2.475; stroke-dashoffset: 0; stroke: #ddaa33; stroke-width: 1.5"/>
   </g>
   <g id="line2d_20">
    <path d="M 49.833858 72.745041 
L 66.310236 106.700639 
L 82.786614 99.958048 
L 99.262992 116.412122 
L 181.644882 124.469117 
L 346.408661 122.794061 
L 511.172441 118.608843 
" clip-path="url(#p67a1bd2e05)" style="fill: none; stroke-dasharray: 5.55,2.4; stroke-dashoffset: 0; stroke: #bb5566; stroke-width: 1.5"/>
   </g>
   <g id="line2d_21">
    <path d="M 49.833858 77.053863 
L 66.310236 79.86452 
L 82.786614 120.645344 
L 99.262992 116.973772 
L 181.644882 123.722248 
L 346.408661 121.907557 
L 511.172441 117.522487 
" clip-path="url(#p67a1bd2e05)" style="fill: none; stroke: #bb5566; stroke-width: 1.5; stroke-linecap: square"/>
   </g>
   <g id="line2d_22">
    <path d="M 49.833858 109.168259 
L 66.310236 122.414252 
L 82.786614 121.977721 
L 99.262992 120.889553 
L 181.644882 123.737313 
L 346.408661 111.723107 
L 511.172441 114.933002 
" clip-path="url(#p67a1bd2e05)" style="fill: none; stroke-dasharray: 9.6,2.4,1.5,2.4; stroke-dashoffset: 0; stroke: #bb5566; stroke-width: 1.5"/>
   </g>
   <g id="line2d_23">
    <path d="M 49.833858 30.488028 
L 66.310236 51.147883 
L 82.786614 37.214148 
L 99.262992 64.587918 
L 181.644882 101.086751 
L 346.408661 109.115677 
L 511.172441 113.839837 
" clip-path="url(#p67a1bd2e05)" style="fill: none; stroke-dasharray: 1.5,2.475; stroke-dashoffset: 0; stroke: #bb5566; stroke-width: 1.5"/>
   </g>
   <g id="line2d_24">
    <path d="M 49.833858 152.67657 
L 66.310236 152.43597 
L 82.786614 152.38712 
L 99.262992 152.009419 
L 181.644882 150.318562 
L 346.408661 148.351144 
L 511.172441 146.32673 
" clip-path="url(#p67a1bd2e05)" style="fill: none; stroke: #000000; stroke-width: 1.5; stroke-linecap: square"/>
   </g>
   <g id="patch_3">
    <path d="M 49.833858 165.541177 
L 49.833858 18.210469 
" style="fill: none; stroke: #000000; stroke-width: 0.8; stroke-linejoin: miter; stroke-linecap: square"/>
   </g>
   <g id="patch_4">
    <path d="M 511.172441 165.541177 
L 511.172441 18.210469 
" style="fill: none; stroke: #000000; stroke-width: 0.8; stroke-linejoin: miter; stroke-linecap: square"/>
   </g>
   <g id="patch_5">
    <path d="M 49.833858 165.541177 
L 511.172441 165.541177 
" style="fill: none; stroke: #000000; stroke-width: 0.8; stroke-linejoin: miter; stroke-linecap: square"/>
   </g>
   <g id="patch_6">
    <path d="M 49.833858 18.210469 
L 511.172441 18.210469 
" style="fill: none; stroke: #000000; stroke-width: 0.8; stroke-linejoin: miter; stroke-linecap: square"/>
   </g>
   <g id="text_9">
    <text style="font: 7px 'Arial'; text-anchor: middle" x="280.50315" y="12.210469" transform="rotate(-0 280.50315 12.210469)">Haversine distance</text>
   </g>
  </g>
  <g id="axes_2">
   <g id="patch_7">
    <path d="M 49.833858 342.338028 
L 511.172441 342.338028 
L 511.172441 195.007319 
L 49.833858 195.007319 
z
" style="fill: #ffffff"/>
   </g>
   <g id="matplotlib.axis_3">
    <g id="xtick_1">
     <g id="line2d_25">
      <defs>
       <path id="m2211e1500c" d="M 0 0 
L 0 3.5 
" style="stroke: #000000; stroke-width: 0.8"/>
      </defs>
      <g>
       <use xlink:href="#m2211e1500c" x="49.833858" y="342.338028" style="stroke: #000000; stroke-width: 0.8"/>
      </g>
     </g>
     <g id="text_10">
      <text style="font: 7px 'Arial'; text-anchor: middle" x="49.833858" y="354.348497" transform="rotate(-0 49.833858 354.348497)">2</text>
     </g>
    </g>
    <g id="xtick_2">
     <g id="line2d_26">
      <g>
       <use xlink:href="#m2211e1500c" x="66.310236" y="342.338028" style="stroke: #000000; stroke-width: 0.8"/>
      </g>
     </g>
     <g id="text_11">
      <text style="font: 7px 'Arial'; text-anchor: middle" x="66.310236" y="354.348497" transform="rotate(-0 66.310236 354.348497)">3</text>
     </g>
    </g>
    <g id="xtick_3">
     <g id="line2d_27">
      <g>
       <use xlink:href="#m2211e1500c" x="82.786614" y="342.338028" style="stroke: #000000; stroke-width: 0.8"/>
      </g>
     </g>
     <g id="text_12">
      <text style="font: 7px 'Arial'; text-anchor: middle" x="82.786614" y="354.348497" transform="rotate(-0 82.786614 354.348497)">4</text>
     </g>
    </g>
    <g id="xtick_4">
     <g id="line2d_28">
      <g>
       <use xlink:href="#m2211e1500c" x="99.262992" y="342.338028" style="stroke: #000000; stroke-width: 0.8"/>
      </g>
     </g>
     <g id="text_13">
      <text style="font: 7px 'Arial'; text-anchor: middle" x="99.262992" y="354.348497" transform="rotate(-0 99.262992 354.348497)">5</text>
     </g>
    </g>
    <g id="xtick_5">
     <g id="line2d_29">
      <g>
       <use xlink:href="#m2211e1500c" x="181.644882" y="342.338028" style="stroke: #000000; stroke-width: 0.8"/>
      </g>
     </g>
     <g id="text_14">
      <text style="font: 7px 'Arial'; text-anchor: middle" x="181.644882" y="354.348497" transform="rotate(-0 181.644882 354.348497)">10</text>
     </g>
    </g>
    <g id="xtick_6">
     <g id="line2d_30">
      <g>
       <use xlink:href="#m2211e1500c" x="346.408661" y="342.338028" style="stroke: #000000; stroke-width: 0.8"/>
      </g>
     </g>
     <g id="text_15">
      <text style="font: 7px 'Arial'; text-anchor: middle" x="346.408661" y="354.348497" transform="rotate(-0 346.408661 354.348497)">20</text>
     </g>
    </g>
    <g id="xtick_7">
     <g id="line2d_31">
      <g>
       <use xlink:href="#m2211e1500c" x="511.172441" y="342.338028" style="stroke: #000000; stroke-width: 0.8"/>
      </g>
     </g>
     <g id="text_16">
      <text style="font: 7px 'Arial'; text-anchor: middle" x="511.172441" y="354.348497" transform="rotate(-0 511.172441 354.348497)">30</text>
     </g>
    </g>
    <g id="text_17">
     <text style="font: 7px 'Arial'; text-anchor: middle" x="280.50315" y="364.750215" transform="rotate(-0 280.50315 364.750215)">Forecasting length</text>
    </g>
   </g>
   <g id="matplotlib.axis_4">
    <g id="ytick_8">
     <g id="line2d_32">
      <g>
       <use xlink:href="#md7a685118f" x="49.833858" y="337.092404" style="stroke: #000000; stroke-width: 0.8"/>
      </g>
     </g>
     <g id="text_18">
      <text style="font: 7px 'Arial'; text-anchor: end" x="42.833858" y="339.597638" transform="rotate(-0 42.833858 339.597638)">0</text>
     </g>
    </g>
    <g id="ytick_9">
     <g id="line2d_33">
      <g>
       <use xlink:href="#md7a685118f" x="49.833858" y="313.155141" style="stroke: #000000; stroke-width: 0.8"/>
      </g>
     </g>
     <g id="text_19">
      <text style="font: 7px 'Arial'; text-anchor: end" x="42.833858" y="315.660375" transform="rotate(-0 42.833858 315.660375)">5</text>
     </g>
    </g>
    <g id="ytick_10">
     <g id="line2d_34">
      <g>
       <use xlink:href="#md7a685118f" x="49.833858" y="289.217878" style="stroke: #000000; stroke-width: 0.8"/>
      </g>
     </g>
     <g id="text_20">
      <text style="font: 7px 'Arial'; text-anchor: end" x="42.833858" y="291.723112" transform="rotate(-0 42.833858 291.723112)">10</text>
     </g>
    </g>
    <g id="ytick_11">
     <g id="line2d_35">
      <g>
       <use xlink:href="#md7a685118f" x="49.833858" y="265.280615" style="stroke: #000000; stroke-width: 0.8"/>
      </g>
     </g>
     <g id="text_21">
      <text style="font: 7px 'Arial'; text-anchor: end" x="42.833858" y="267.785849" transform="rotate(-0 42.833858 267.785849)">15</text>
     </g>
    </g>
    <g id="ytick_12">
     <g id="line2d_36">
      <g>
       <use xlink:href="#md7a685118f" x="49.833858" y="241.343352" style="stroke: #000000; stroke-width: 0.8"/>
      </g>
     </g>
     <g id="text_22">
      <text style="font: 7px 'Arial'; text-anchor: end" x="42.833858" y="243.848586" transform="rotate(-0 42.833858 243.848586)">20</text>
     </g>
    </g>
    <g id="ytick_13">
     <g id="line2d_37">
      <g>
       <use xlink:href="#md7a685118f" x="49.833858" y="217.406089" style="stroke: #000000; stroke-width: 0.8"/>
      </g>
     </g>
     <g id="text_23">
      <text style="font: 7px 'Arial'; text-anchor: end" x="42.833858" y="219.911323" transform="rotate(-0 42.833858 219.911323)">25</text>
     </g>
    </g>
    <g id="text_24">
     <text style="font: 7px 'Arial'; text-anchor: middle" x="29.575265" y="268.672673" transform="rotate(-90 29.575265 268.672673)">Speed, heading, and time</text>
    </g>
   </g>
   <g id="line2d_38">
    <path d="M 49.833858 330.024651 
L 66.310236 329.745226 
L 82.786614 329.255393 
L 99.262992 329.104877 
L 181.644882 327.941104 
L 346.408661 322.391578 
L 511.172441 297.397226 
" clip-path="url(#p5a571be1c8)" style="fill: none; stroke-dasharray: 5.55,2.4; stroke-dashoffset: 0; stroke: #6699cc; stroke-width: 1.5"/>
   </g>
   <g id="line2d_39">
    <path d="M 49.833858 330.042634 
L 66.310236 329.63965 
L 82.786614 329.265025 
L 99.262992 329.035627 
L 181.644882 327.490053 
L 346.408661 322.047703 
L 511.172441 316.247361 
" clip-path="url(#p5a571be1c8)" style="fill: none; stroke-dasharray: 1.5,2.475; stroke-dashoffset: 0; stroke: #6699cc; stroke-width: 1.5"/>
   </g>
   <g id="line2d_40">
    <path d="M 49.833858 329.970325 
L 66.310236 329.594215 
L 82.786614 329.116302 
L 99.262992 328.868302 
L 181.644882 327.09514 
L 346.408661 321.733847 
L 511.172441 315.757225 
" clip-path="url(#p5a571be1c8)" style="fill: none; stroke-dasharray: 9.6,2.4,1.5,2.4; stroke-dashoffset: 0; stroke: #6699cc; stroke-width: 1.5"/>
   </g>
   <g id="line2d_41">
    <path d="M 49.833858 330.060469 
L 66.310236 329.813212 
L 82.786614 329.250878 
L 99.262992 328.864401 
L 181.644882 327.032197 
L 346.408661 321.937998 
L 511.172441 309.474232 
" clip-path="url(#p5a571be1c8)" style="fill: none; stroke: #6699cc; stroke-width: 1.5; stroke-linecap: square"/>
   </g>
   <g id="line2d_42">
    <path d="M 49.833858 313.844918 
L 66.310236 306.992137 
L 82.786614 302.917444 
L 99.262992 297.284533 
L 181.644882 262.001027 
L 346.408661 224.563573 
L 511.172441 209.117048 
" clip-path="url(#p5a571be1c8)" style="fill: none; stroke-dasharray: 5.55,2.4; stroke-dashoffset: 0; stroke: #004488; stroke-width: 1.5"/>
   </g>
   <g id="line2d_43">
    <path d="M 49.833858 298.236377 
L 66.310236 298.212697 
L 82.786614 298.189177 
L 99.262992 298.174423 
L 181.644882 298.208807 
L 346.408661 298.535589 
L 511.172441 299.02483 
" clip-path="url(#p5a571be1c8)" style="fill: none; stroke: #004488; stroke-width: 1.5; stroke-linecap: square"/>
   </g>
   <g id="line2d_44">
    <path d="M 49.833858 298.236357 
L 66.310236 298.212595 
L 82.786614 298.189176 
L 99.262992 298.174418 
L 181.644882 298.208807 
L 346.408661 298.535589 
L 511.172441 299.02483 
" clip-path="url(#p5a571be1c8)" style="fill: none; stroke-dasharray: 9.6,2.4,1.5,2.4; stroke-dashoffset: 0; stroke: #004488; stroke-width: 1.5"/>
   </g>
   <g id="line2d_45">
    <path d="M 49.833858 298.236338 
L 66.310236 298.212648 
L 82.786614 298.189176 
L 99.262992 298.174421 
L 181.644882 298.208807 
L 346.408661 298.535589 
L 511.172441 299.02483 
" clip-path="url(#p5a571be1c8)" style="fill: none; stroke-dasharray: 1.5,2.475; stroke-dashoffset: 0; stroke: #004488; stroke-width: 1.5"/>
   </g>
   <g id="line2d_46">
    <path d="M 49.833858 315.767059 
L 66.310236 309.717788 
L 82.786614 296.862838 
L 99.262992 296.049553 
L 181.644882 270.621572 
L 346.408661 235.661331 
L 511.172441 215.199819 
" clip-path="url(#p5a571be1c8)" style="fill: none; stroke-dasharray: 5.55,2.4; stroke-dashoffset: 0; stroke: #ddaa33; stroke-width: 1.5"/>
   </g>
   <g id="line2d_47">
    <path d="M 49.833858 264.760089 
L 66.310236 298.213582 
L 82.786614 298.189182 
L 99.262992 298.174419 
L 181.644882 298.208807 
L 346.408661 298.535589 
L 511.172441 299.02483 
" clip-path="url(#p5a571be1c8)" style="fill: none; stroke: #ddaa33; stroke-width: 1.5; stroke-linecap: square"/>
   </g>
   <g id="line2d_48">
    <path d="M 49.833858 298.236337 
L 66.310236 298.212605 
L 82.786614 298.189182 
L 99.262992 298.174418 
L 181.644882 298.208807 
L 346.408661 298.535589 
L 511.172441 299.02483 
" clip-path="url(#p5a571be1c8)" style="fill: none; stroke-dasharray: 9.6,2.4,1.5,2.4; stroke-dashoffset: 0; stroke: #ddaa33; stroke-width: 1.5"/>
   </g>
   <g id="line2d_49">
    <path d="M 49.833858 298.242848 
L 66.310236 298.212586 
L 82.786614 298.189176 
L 99.262992 298.174418 
L 181.644882 298.208807 
L 346.408661 298.535589 
L 511.172441 299.02483 
" clip-path="url(#p5a571be1c8)" style="fill: none; stroke-dasharray: 1.5,2.475; stroke-dashoffset: 0; stroke: #ddaa33; stroke-width: 1.5"/>
   </g>
   <g id="line2d_50">
    <path d="M 49.833858 314.662791 
L 66.310236 307.151128 
L 82.786614 301.170159 
L 99.262992 295.151773 
L 181.644882 267.2592 
L 346.408661 228.161448 
L 511.172441 207.284878 
" clip-path="url(#p5a571be1c8)" style="fill: none; stroke-dasharray: 5.55,2.4; stroke-dashoffset: 0; stroke: #bb5566; stroke-width: 1.5"/>
   </g>
   <g id="line2d_51">
    <path d="M 49.833858 298.238099 
L 66.310236 298.212789 
L 82.786614 298.189177 
L 99.262992 298.174418 
L 181.644882 298.208807 
L 346.408661 298.535589 
L 511.172441 299.02483 
" clip-path="url(#p5a571be1c8)" style="fill: none; stroke: #bb5566; stroke-width: 1.5; stroke-linecap: square"/>
   </g>
   <g id="line2d_52">
    <path d="M 49.833858 298.236337 
L 66.310236 298.212585 
L 82.786614 298.189176 
L 99.262992 298.174426 
L 181.644882 298.208807 
L 346.408661 298.535589 
L 511.172441 299.02483 
" clip-path="url(#p5a571be1c8)" style="fill: none; stroke-dasharray: 9.6,2.4,1.5,2.4; stroke-dashoffset: 0; stroke: #bb5566; stroke-width: 1.5"/>
   </g>
   <g id="line2d_53">
    <path d="M 49.833858 298.236379 
L 66.310236 298.212759 
L 82.786614 298.189176 
L 99.262992 298.174418 
L 181.644882 298.208807 
L 346.408661 298.535589 
L 511.172441 299.02483 
" clip-path="url(#p5a571be1c8)" style="fill: none; stroke-dasharray: 1.5,2.475; stroke-dashoffset: 0; stroke: #bb5566; stroke-width: 1.5"/>
   </g>
   <g id="line2d_54">
    <path d="M 49.833858 326.053335 
L 66.310236 323.180289 
L 82.786614 320.662217 
L 99.262992 317.755906 
L 181.644882 305.405547 
L 346.408661 284.294337 
L 511.172441 266.807862 
" clip-path="url(#p5a571be1c8)" style="fill: none; stroke: #000000; stroke-width: 1.5; stroke-linecap: square"/>
   </g>
   <g id="line2d_55">
    <path d="M 16.881102 354.615587 
" clip-path="url(#p5a571be1c8)" style="fill: none; stroke-dasharray: 5.55,2.4; stroke-dashoffset: 0; stroke: #6699cc; stroke-width: 1.5"/>
   </g>
   <g id="line2d_56">
    <path d="M 16.881102 354.615587 
" clip-path="url(#p5a571be1c8)" style="fill: none; stroke-dasharray: 1.5,2.475; stroke-dashoffset: 0; stroke: #6699cc; stroke-width: 1.5"/>
   </g>
   <g id="line2d_57">
    <path d="M 16.881102 354.615587 
" clip-path="url(#p5a571be1c8)" style="fill: none; stroke-dasharray: 9.6,2.4,1.5,2.4; stroke-dashoffset: 0; stroke: #6699cc; stroke-width: 1.5"/>
   </g>
   <g id="line2d_58">
    <path d="M 16.881102 354.615587 
" clip-path="url(#p5a571be1c8)" style="fill: none; stroke: #6699cc; stroke-width: 1.5; stroke-linecap: square"/>
   </g>
   <g id="line2d_59">
    <path d="M 16.881102 354.615587 
" clip-path="url(#p5a571be1c8)" style="fill: none; stroke-dasharray: 5.55,2.4; stroke-dashoffset: 0; stroke: #004488; stroke-width: 1.5"/>
   </g>
   <g id="line2d_60">
    <path d="M 16.881102 354.615587 
" clip-path="url(#p5a571be1c8)" style="fill: none; stroke: #004488; stroke-width: 1.5; stroke-linecap: square"/>
   </g>
   <g id="line2d_61">
    <path d="M 16.881102 354.615587 
" clip-path="url(#p5a571be1c8)" style="fill: none; stroke-dasharray: 9.6,2.4,1.5,2.4; stroke-dashoffset: 0; stroke: #004488; stroke-width: 1.5"/>
   </g>
   <g id="line2d_62">
    <path d="M 16.881102 354.615587 
" clip-path="url(#p5a571be1c8)" style="fill: none; stroke-dasharray: 1.5,2.475; stroke-dashoffset: 0; stroke: #004488; stroke-width: 1.5"/>
   </g>
   <g id="line2d_63">
    <path d="M 16.881102 354.615587 
" clip-path="url(#p5a571be1c8)" style="fill: none; stroke-dasharray: 5.55,2.4; stroke-dashoffset: 0; stroke: #ddaa33; stroke-width: 1.5"/>
   </g>
   <g id="line2d_64">
    <path d="M 16.881102 354.615587 
" clip-path="url(#p5a571be1c8)" style="fill: none; stroke: #ddaa33; stroke-width: 1.5; stroke-linecap: square"/>
   </g>
   <g id="line2d_65">
    <path d="M 16.881102 354.615587 
" clip-path="url(#p5a571be1c8)" style="fill: none; stroke-dasharray: 9.6,2.4,1.5,2.4; stroke-dashoffset: 0; stroke: #ddaa33; stroke-width: 1.5"/>
   </g>
   <g id="line2d_66">
    <path d="M 16.881102 354.615587 
" clip-path="url(#p5a571be1c8)" style="fill: none; stroke-dasharray: 1.5,2.475; stroke-dashoffset: 0; stroke: #ddaa33; stroke-width: 1.5"/>
   </g>
   <g id="line2d_67">
    <path d="M 16.881102 354.615587 
" clip-path="url(#p5a571be1c8)" style="fill: none; stroke-dasharray: 5.55,2.4; stroke-dashoffset: 0; stroke: #bb5566; stroke-width: 1.5"/>
   </g>
   <g id="line2d_68">
    <path d="M 16.881102 354.615587 
" clip-path="url(#p5a571be1c8)" style="fill: none; stroke: #bb5566; stroke-width: 1.5; stroke-linecap: square"/>
   </g>
   <g id="line2d_69">
    <path d="M 16.881102 354.615587 
" clip-path="url(#p5a571be1c8)" style="fill: none; stroke-dasharray: 9.6,2.4,1.5,2.4; stroke-dashoffset: 0; stroke: #bb5566; stroke-width: 1.5"/>
   </g>
   <g id="line2d_70">
    <path d="M 16.881102 354.615587 
" clip-path="url(#p5a571be1c8)" style="fill: none; stroke-dasharray: 1.5,2.475; stroke-dashoffset: 0; stroke: #bb5566; stroke-width: 1.5"/>
   </g>
   <g id="line2d_71">
    <path d="M 16.881102 354.615587 
" clip-path="url(#p5a571be1c8)" style="fill: none; stroke: #000000; stroke-width: 1.5; stroke-linecap: square"/>
   </g>
   <g id="patch_8">
    <path d="M 49.833858 342.338028 
L 49.833858 195.007319 
" style="fill: none; stroke: #000000; stroke-width: 0.8; stroke-linejoin: miter; stroke-linecap: square"/>
   </g>
   <g id="patch_9">
    <path d="M 511.172441 342.338028 
L 511.172441 195.007319 
" style="fill: none; stroke: #000000; stroke-width: 0.8; stroke-linejoin: miter; stroke-linecap: square"/>
   </g>
   <g id="patch_10">
    <path d="M 49.833858 342.338028 
L 511.172441 342.338028 
" style="fill: none; stroke: #000000; stroke-width: 0.8; stroke-linejoin: miter; stroke-linecap: square"/>
   </g>
   <g id="patch_11">
    <path d="M 49.833858 195.007319 
L 511.172441 195.007319 
" style="fill: none; stroke: #000000; stroke-width: 0.8; stroke-linejoin: miter; stroke-linecap: square"/>
   </g>
   <g id="legend_1">
    <g id="patch_12">
     <path d="M 8.6 409.556768 
L 529.552031 409.556768 
Q 530.952031 409.556768 530.952031 408.156768 
L 530.952031 379.151612 
Q 530.952031 377.751612 529.552031 377.751612 
L 8.6 377.751612 
Q 7.2 377.751612 7.2 379.151612 
L 7.2 408.156768 
Q 7.2 409.556768 8.6 409.556768 
z
" style="fill: #ffffff; opacity: 0.8; stroke: #cccccc; stroke-linejoin: miter"/>
    </g>
    <g id="line2d_72">
     <path d="M 10 383.11208 
L 17 383.11208 
L 24 383.11208 
" style="fill: none; stroke-dasharray: 5.55,2.4; stroke-dashoffset: 0; stroke: #6699cc; stroke-width: 1.5"/>
    </g>
    <g id="text_25">
     <text style="font: 7px 'Arial'; text-anchor: start" x="29.6" y="385.56208" transform="rotate(-0 29.6 385.56208)">GRU Att 1</text>
    </g>
    <g id="line2d_73">
     <path d="M 10 393.013799 
L 17 393.013799 
L 24 393.013799 
" style="fill: none; stroke-dasharray: 1.5,2.475; stroke-dashoffset: 0; stroke: #6699cc; stroke-width: 1.5"/>
    </g>
    <g id="text_26">
     <text style="font: 7px 'Arial'; text-anchor: start" x="29.6" y="395.463799" transform="rotate(-0 29.6 395.463799)">GRU Att 2</text>
    </g>
    <g id="line2d_74">
     <path d="M 10 402.915518 
L 17 402.915518 
L 24 402.915518 
" style="fill: none; stroke-dasharray: 9.6,2.4,1.5,2.4; stroke-dashoffset: 0; stroke: #6699cc; stroke-width: 1.5"/>
    </g>
    <g id="text_27">
     <text style="font: 7px 'Arial'; text-anchor: start" x="29.6" y="405.365518" transform="rotate(-0 29.6 405.365518)">GRU Att 3</text>
    </g>
    <g id="line2d_75">
     <path d="M 75.110938 383.11208 
L 82.110938 383.11208 
L 89.110938 383.11208 
" style="fill: none; stroke: #6699cc; stroke-width: 1.5; stroke-linecap: square"/>
    </g>
    <g id="text_28">
     <text style="font: 7px 'Arial'; text-anchor: start" x="94.710938" y="385.56208" transform="rotate(-0 94.710938 385.56208)">GRU Att 4</text>
    </g>
    <g id="line2d_76">
     <path d="M 75.110938 393.013799 
L 82.110938 393.013799 
L 89.110938 393.013799 
" style="fill: none; stroke-dasharray: 5.55,2.4; stroke-dashoffset: 0; stroke: #004488; stroke-width: 1.5"/>
    </g>
    <g id="text_29">
     <text style="font: 7px 'Arial'; text-anchor: start" x="94.710938" y="395.463799" transform="rotate(-0 94.710938 395.463799)">GRU Linear</text>
    </g>
    <g id="line2d_77">
     <path d="M 75.110938 402.915518 
L 82.110938 402.915518 
L 89.110938 402.915518 
" style="fill: none; stroke: #004488; stroke-width: 1.5; stroke-linecap: square"/>
    </g>
    <g id="text_30">
     <text style="font: 7px 'Arial'; text-anchor: start" x="94.710938" y="405.365518" transform="rotate(-0 94.710938 405.365518)">GRU Reference</text>
    </g>
    <g id="line2d_78">
     <path d="M 158.505 383.11208 
L 165.505 383.11208 
L 172.505 383.11208 
" style="fill: none; stroke-dasharray: 9.6,2.4,1.5,2.4; stroke-dashoffset: 0; stroke: #004488; stroke-width: 1.5"/>
    </g>
    <g id="text_31">
     <text style="font: 7px 'Arial'; text-anchor: start" x="178.105" y="385.56208" transform="rotate(-0 178.105 385.56208)">GRU Third</text>
    </g>
    <g id="line2d_79">
     <path d="M 158.505 393.013799 
L 165.505 393.013799 
L 172.505 393.013799 
" style="fill: none; stroke-dasharray: 1.5,2.475; stroke-dashoffset: 0; stroke: #004488; stroke-width: 1.5"/>
    </g>
    <g id="text_32">
     <text style="font: 7px 'Arial'; text-anchor: start" x="178.105" y="395.463799" transform="rotate(-0 178.105 395.463799)">GRU Twice</text>
    </g>
    <g id="line2d_80">
     <path d="M 158.505 402.915518 
L 165.505 402.915518 
L 172.505 402.915518 
" style="fill: none; stroke-dasharray: 5.55,2.4; stroke-dashoffset: 0; stroke: #ddaa33; stroke-width: 1.5"/>
    </g>
    <g id="text_33">
     <text style="font: 7px 'Arial'; text-anchor: start" x="178.105" y="405.365518" transform="rotate(-0 178.105 405.365518)">LSTM Linear</text>
    </g>
    <g id="line2d_81">
     <path d="M 232.174531 383.11208 
L 239.174531 383.11208 
L 246.174531 383.11208 
" style="fill: none; stroke: #ddaa33; stroke-width: 1.5; stroke-linecap: square"/>
    </g>
    <g id="text_34">
     <text style="font: 7px 'Arial'; text-anchor: start" x="251.774531" y="385.56208" transform="rotate(-0 251.774531 385.56208)">LSTM Reference</text>
    </g>
    <g id="line2d_82">
     <path d="M 232.174531 393.013799 
L 239.174531 393.013799 
L 246.174531 393.013799 
" style="fill: none; stroke-dasharray: 9.6,2.4,1.5,2.4; stroke-dashoffset: 0; stroke: #ddaa33; stroke-width: 1.5"/>
    </g>
    <g id="text_35">
     <text style="font: 7px 'Arial'; text-anchor: start" x="251.774531" y="395.463799" transform="rotate(-0 251.774531 395.463799)">LSTM Third</text>
    </g>
    <g id="line2d_83">
     <path d="M 318.681406 383.11208 
L 325.681406 383.11208 
L 332.681406 383.11208 
" style="fill: none; stroke-dasharray: 1.5,2.475; stroke-dashoffset: 0; stroke: #ddaa33; stroke-width: 1.5"/>
    </g>
    <g id="text_36">
     <text style="font: 7px 'Arial'; text-anchor: start" x="338.281406" y="385.56208" transform="rotate(-0 338.281406 385.56208)">LSTM Twice</text>
    </g>
    <g id="line2d_84">
     <path d="M 318.681406 393.013799 
L 325.681406 393.013799 
L 332.681406 393.013799 
" style="fill: none; stroke-dasharray: 5.55,2.4; stroke-dashoffset: 0; stroke: #bb5566; stroke-width: 1.5"/>
    </g>
    <g id="text_37">
     <text style="font: 7px 'Arial'; text-anchor: start" x="338.281406" y="395.463799" transform="rotate(-0 338.281406 395.463799)">RNN Linear</text>
    </g>
    <g id="line2d_85">
     <path d="M 390.665469 383.11208 
L 397.665469 383.11208 
L 404.665469 383.11208 
" style="fill: none; stroke: #bb5566; stroke-width: 1.5; stroke-linecap: square"/>
    </g>
    <g id="text_38">
     <text style="font: 7px 'Arial'; text-anchor: start" x="410.265469" y="385.56208" transform="rotate(-0 410.265469 385.56208)">RNN Reference</text>
    </g>
    <g id="line2d_86">
     <path d="M 390.665469 393.013799 
L 397.665469 393.013799 
L 404.665469 393.013799 
" style="fill: none; stroke-dasharray: 9.6,2.4,1.5,2.4; stroke-dashoffset: 0; stroke: #bb5566; stroke-width: 1.5"/>
    </g>
    <g id="text_39">
     <text style="font: 7px 'Arial'; text-anchor: start" x="410.265469" y="395.463799" transform="rotate(-0 410.265469 395.463799)">RNN Third</text>
    </g>
    <g id="line2d_87">
     <path d="M 473.670156 383.11208 
L 480.670156 383.11208 
L 487.670156 383.11208 
" style="fill: none; stroke-dasharray: 1.5,2.475; stroke-dashoffset: 0; stroke: #bb5566; stroke-width: 1.5"/>
    </g>
    <g id="text_40">
     <text style="font: 7px 'Arial'; text-anchor: start" x="493.270156" y="385.56208" transform="rotate(-0 493.270156 385.56208)">RNN Twice</text>
    </g>
    <g id="line2d_88">
     <path d="M 473.670156 393.013799 
L 480.670156 393.013799 
L 487.670156 393.013799 
" style="fill: none; stroke: #000000; stroke-width: 1.5; stroke-linecap: square"/>
    </g>
    <g id="text_41">
     <text style="font: 7px 'Arial'; text-anchor: start" x="493.270156" y="395.463799" transform="rotate(-0 493.270156 395.463799)">UniTS</text>
    </g>
   </g>
  </g>
 </g>
 <defs>
  <clipPath id="p67a1bd2e05">
   <rect x="49.833858" y="18.210469" width="461.338583" height="147.330709"/>
  </clipPath>
  <clipPath id="p5a571be1c8">
   <rect x="49.833858" y="195.007319" width="461.338583" height="147.330709"/>
  </clipPath>
 </defs>
</svg>
