<?xml version="1.0" encoding="utf-8" standalone="no"?>
<!DOCTYPE svg PUBLIC "-//W3C//DTD SVG 1.1//EN"
  "http://www.w3.org/Graphics/SVG/1.1/DTD/svg11.dtd">
<svg xmlns:xlink="http://www.w3.org/1999/xlink" width="580.025517pt" height="482.404959pt" viewBox="0 0 580.025517 482.404959" xmlns="http://www.w3.org/2000/svg" version="1.1">
 <metadata>
  <rdf:RDF xmlns:dc="http://purl.org/dc/elements/1.1/" xmlns:cc="http://creativecommons.org/ns#" xmlns:rdf="http://www.w3.org/1999/02/22-rdf-syntax-ns#">
   <cc:Work>
    <dc:type rdf:resource="http://purl.org/dc/dcmitype/StillImage"/>
    <dc:date>2024-10-28T14:46:13.819405</dc:date>
    <dc:format>image/svg+xml</dc:format>
    <dc:creator>
     <cc:Agent>
      <dc:title>Matplotlib v3.7.0, https://matplotlib.org/</dc:title>
     </cc:Agent>
    </dc:creator>
   </cc:Work>
  </rdf:RDF>
 </metadata>
 <defs>
  <style type="text/css">*{stroke-linejoin: round; stroke-linecap: butt}</style>
 </defs>
 <g id="figure_1">
  <g id="patch_1">
   <path d="M 0 482.404959 
L 580.025517 482.404959 
L 580.025517 -0 
L 0 -0 
z
" style="fill: #ffffff"/>
  </g>
  <g id="axes_1">
   <g id="patch_2">
    <path d="M 72.8525 92.251888 
L 534.191083 92.251888 
L 534.191083 21.789375 
L 72.8525 21.789375 
z
" style="fill: #ffffff"/>
   </g>
   <g id="matplotlib.axis_1"/>
   <g id="matplotlib.axis_2">
    <g id="ytick_1">
     <g id="line2d_1">
      <defs>
       <path id="mdcbcfac16d" d="M 0 0 
L -3.5 0 
" style="stroke: #000000; stroke-width: 0.8"/>
      </defs>
      <g>
       <use xlink:href="#mdcbcfac16d" x="72.8525" y="65.318996" style="stroke: #000000; stroke-width: 0.8"/>
      </g>
     </g>
     <g id="text_1">
      <text style="font: 12px 'Arial'; text-anchor: end" x="65.8525" y="69.613684" transform="rotate(-0 65.8525 69.613684)">100</text>
     </g>
    </g>
    <g id="ytick_2">
     <g id="line2d_2">
      <g>
       <use xlink:href="#mdcbcfac16d" x="72.8525" y="30.907873" style="stroke: #000000; stroke-width: 0.8"/>
      </g>
     </g>
     <g id="text_2">
      <text style="font: 12px 'Arial'; text-anchor: end" x="65.8525" y="35.202561" transform="rotate(-0 65.8525 35.202561)">200</text>
     </g>
    </g>
    <g id="text_3">
     <text style="font: 12px 'Arial'; text-anchor: middle" x="39.3075" y="57.020631" transform="rotate(-90 39.3075 57.020631)">Heading</text>
    </g>
   </g>
   <g id="line2d_3">
    <path d="M 72.8525 83.532983 
L 89.328878 81.136775 
L 105.805256 79.042045 
L 122.281634 77.957152 
L 204.663524 73.304017 
L 369.427303 67.264555 
L 534.191083 63.369731 
" clip-path="url(#pee5ea03097)" style="fill: none; stroke-dasharray: 5.55,2.4; stroke-dashoffset: 0; stroke: #6699cc; stroke-width: 1.5"/>
   </g>
   <g id="line2d_4">
    <path d="M 72.8525 83.094478 
L 89.328878 80.890531 
L 105.805256 79.098644 
L 122.281634 77.874417 
L 204.663524 72.95582 
L 369.427303 67.367002 
L 534.191083 64.134035 
" clip-path="url(#pee5ea03097)" style="fill: none; stroke-dasharray: 1.5,2.475; stroke-dashoffset: 0; stroke: #6699cc; stroke-width: 1.5"/>
   </g>
   <g id="line2d_5">
    <path d="M 72.8525 83.987972 
L 89.328878 80.387469 
L 105.805256 78.300183 
L 122.281634 76.841425 
L 204.663524 72.404553 
L 369.427303 67.048973 
L 534.191083 63.837239 
" clip-path="url(#pee5ea03097)" style="fill: none; stroke-dasharray: 9.6,2.4,1.5,2.4; stroke-dashoffset: 0; stroke: #6699cc; stroke-width: 1.5"/>
   </g>
   <g id="line2d_6">
    <path d="M 72.8525 83.385148 
L 89.328878 80.759404 
L 105.805256 78.587914 
L 122.281634 77.40036 
L 204.663524 72.61808 
L 369.427303 67.076371 
L 534.191083 63.60208 
" clip-path="url(#pee5ea03097)" style="fill: none; stroke: #6699cc; stroke-width: 1.5; stroke-linecap: square"/>
   </g>
   <g id="line2d_7">
    <path d="M 72.8525 85.790849 
L 89.328878 82.74043 
L 105.805256 80.731341 
L 122.281634 79.265285 
L 204.663524 74.465091 
L 369.427303 69.286123 
L 534.191083 66.65988 
" clip-path="url(#pee5ea03097)" style="fill: none; stroke-dasharray: 5.55,2.4; stroke-dashoffset: 0; stroke: #004488; stroke-width: 1.5"/>
   </g>
   <g id="line2d_8">
    <path d="M 72.8525 28.146284 
L 89.328878 28.1271 
L 105.805256 28.109533 
L 122.281634 28.089636 
L 204.663524 28.006799 
L 369.427303 27.82961 
L 534.191083 27.661251 
" clip-path="url(#pee5ea03097)" style="fill: none; stroke: #004488; stroke-width: 1.5; stroke-linecap: square"/>
   </g>
   <g id="line2d_9">
    <path d="M 72.8525 28.146284 
L 89.328878 28.1271 
L 105.805256 28.109533 
L 122.281634 28.089636 
L 204.663524 28.006799 
L 369.427303 27.82961 
L 534.191083 27.661251 
" clip-path="url(#pee5ea03097)" style="fill: none; stroke-dasharray: 9.6,2.4,1.5,2.4; stroke-dashoffset: 0; stroke: #004488; stroke-width: 1.5"/>
   </g>
   <g id="line2d_10">
    <path d="M 72.8525 28.146284 
L 89.328878 28.1271 
L 105.805256 28.109533 
L 122.281634 28.089636 
L 204.663524 28.006799 
L 369.427303 27.82961 
L 534.191083 27.661251 
" clip-path="url(#pee5ea03097)" style="fill: none; stroke-dasharray: 1.5,2.475; stroke-dashoffset: 0; stroke: #004488; stroke-width: 1.5"/>
   </g>
   <g id="line2d_11">
    <path d="M 72.8525 85.780004 
L 89.328878 82.830674 
L 105.805256 79.652892 
L 122.281634 79.291421 
L 204.663524 74.698851 
L 369.427303 69.902686 
L 534.191083 67.458263 
" clip-path="url(#pee5ea03097)" style="fill: none; stroke-dasharray: 5.55,2.4; stroke-dashoffset: 0; stroke: #ddaa33; stroke-width: 1.5"/>
   </g>
   <g id="line2d_12">
    <path d="M 72.8525 28.146284 
L 89.328878 28.1271 
L 105.805256 28.109533 
L 122.281634 28.089636 
L 204.663524 28.006799 
L 369.427303 27.82961 
L 534.191083 27.661251 
" clip-path="url(#pee5ea03097)" style="fill: none; stroke: #ddaa33; stroke-width: 1.5; stroke-linecap: square"/>
   </g>
   <g id="line2d_13">
    <path d="M 72.8525 28.146284 
L 89.328878 28.1271 
L 105.805256 28.109533 
L 122.281634 28.089636 
L 204.663524 28.006799 
L 369.427303 27.82961 
L 534.191083 27.661251 
" clip-path="url(#pee5ea03097)" style="fill: none; stroke-dasharray: 9.6,2.4,1.5,2.4; stroke-dashoffset: 0; stroke: #ddaa33; stroke-width: 1.5"/>
   </g>
   <g id="line2d_14">
    <path d="M 72.8525 28.146284 
L 89.328878 28.1271 
L 105.805256 28.109533 
L 122.281634 28.089636 
L 204.663524 28.006799 
L 369.427303 27.82961 
L 534.191083 27.661251 
" clip-path="url(#pee5ea03097)" style="fill: none; stroke-dasharray: 1.5,2.475; stroke-dashoffset: 0; stroke: #ddaa33; stroke-width: 1.5"/>
   </g>
   <g id="line2d_15">
    <path d="M 72.8525 86.380012 
L 89.328878 83.367186 
L 105.805256 81.046492 
L 122.281634 79.554387 
L 204.663524 74.794576 
L 369.427303 69.363169 
L 534.191083 66.909228 
" clip-path="url(#pee5ea03097)" style="fill: none; stroke-dasharray: 5.55,2.4; stroke-dashoffset: 0; stroke: #bb5566; stroke-width: 1.5"/>
   </g>
   <g id="line2d_16">
    <path d="M 72.8525 28.146284 
L 89.328878 28.1271 
L 105.805256 28.109533 
L 122.281634 28.089636 
L 204.663524 28.006799 
L 369.427303 27.82961 
L 534.191083 27.661251 
" clip-path="url(#pee5ea03097)" style="fill: none; stroke: #bb5566; stroke-width: 1.5; stroke-linecap: square"/>
   </g>
   <g id="line2d_17">
    <path d="M 72.8525 28.146284 
L 89.328878 28.1271 
L 105.805256 28.109533 
L 122.281634 28.089636 
L 204.663524 28.006799 
L 369.427303 27.82961 
L 534.191083 27.661251 
" clip-path="url(#pee5ea03097)" style="fill: none; stroke-dasharray: 9.6,2.4,1.5,2.4; stroke-dashoffset: 0; stroke: #bb5566; stroke-width: 1.5"/>
   </g>
   <g id="line2d_18">
    <path d="M 72.8525 28.146284 
L 89.328878 28.1271 
L 105.805256 28.109533 
L 122.281634 28.089636 
L 204.663524 28.006799 
L 369.427303 27.82961 
L 534.191083 27.661251 
" clip-path="url(#pee5ea03097)" style="fill: none; stroke-dasharray: 1.5,2.475; stroke-dashoffset: 0; stroke: #bb5566; stroke-width: 1.5"/>
   </g>
   <g id="line2d_19">
    <path d="M 72.8525 82.595311 
L 89.328878 81.47684 
L 105.805256 80.48882 
L 122.281634 79.601951 
L 204.663524 76.438524 
L 369.427303 72.91875 
L 534.191083 70.836971 
" clip-path="url(#pee5ea03097)" style="fill: none; stroke: #000000; stroke-width: 1.5; stroke-linecap: square"/>
   </g>
   <g id="patch_3">
    <path d="M 72.8525 92.251888 
L 72.8525 21.789375 
" style="fill: none; stroke: #000000; stroke-width: 0.8; stroke-linejoin: miter; stroke-linecap: square"/>
   </g>
   <g id="patch_4">
    <path d="M 534.191083 92.251888 
L 534.191083 21.789375 
" style="fill: none; stroke: #000000; stroke-width: 0.8; stroke-linejoin: miter; stroke-linecap: square"/>
   </g>
   <g id="patch_5">
    <path d="M 72.8525 92.251888 
L 534.191083 92.251888 
" style="fill: none; stroke: #000000; stroke-width: 0.8; stroke-linejoin: miter; stroke-linecap: square"/>
   </g>
   <g id="patch_6">
    <path d="M 72.8525 21.789375 
L 534.191083 21.789375 
" style="fill: none; stroke: #000000; stroke-width: 0.8; stroke-linejoin: miter; stroke-linecap: square"/>
   </g>
   <g id="text_4">
    <text style="font: 12px 'Arial'; text-anchor: middle" x="303.521791" y="15.789375" transform="rotate(-0 303.521791 15.789375)">RMSE</text>
   </g>
  </g>
  <g id="axes_2">
   <g id="patch_7">
    <path d="M 72.8525 176.806903 
L 534.191083 176.806903 
L 534.191083 106.34439 
L 72.8525 106.34439 
z
" style="fill: #ffffff"/>
   </g>
   <g id="matplotlib.axis_3"/>
   <g id="matplotlib.axis_4">
    <g id="ytick_3">
     <g id="line2d_20">
      <g>
       <use xlink:href="#mdcbcfac16d" x="72.8525" y="152.480481" style="stroke: #000000; stroke-width: 0.8"/>
      </g>
     </g>
     <g id="text_5">
      <text style="font: 12px 'Arial'; text-anchor: end" x="65.8525" y="156.775169" transform="rotate(-0 65.8525 156.775169)">0.00025</text>
     </g>
    </g>
    <g id="ytick_4">
     <g id="line2d_21">
      <g>
       <use xlink:href="#mdcbcfac16d" x="72.8525" y="120.649609" style="stroke: #000000; stroke-width: 0.8"/>
      </g>
     </g>
     <g id="text_6">
      <text style="font: 12px 'Arial'; text-anchor: end" x="65.8525" y="124.944296" transform="rotate(-0 65.8525 124.944296)">0.00050</text>
     </g>
    </g>
    <g id="text_7">
     <!-- $y$ offset -->
     <g transform="translate(15.96 161.495647) rotate(-90)">
      <text>
       <tspan style="font: oblique 12px 'DejaVu Sans'" x="0" y="-0.265625">y</tspan>
       <tspan style="font: 12px 'Arial'" x="7.101562 10.435547 17.109375 20.443359 23.777344 29.777344 36.451172" y="-0.265625"> offset</tspan>
      </text>
     </g>
    </g>
   </g>
   <g id="line2d_22">
    <path d="M 72.8525 168.834187 
L 89.328878 164.750978 
L 105.805256 161.448377 
L 122.281634 158.167284 
L 204.663524 136.776706 
L 369.427303 126.398973 
L 534.191083 121.585687 
" clip-path="url(#p8a30646643)" style="fill: none; stroke-dasharray: 5.55,2.4; stroke-dashoffset: 0; stroke: #6699cc; stroke-width: 1.5"/>
   </g>
   <g id="line2d_23">
    <path d="M 72.8525 167.676928 
L 89.328878 164.096272 
L 105.805256 161.909716 
L 122.281634 158.762193 
L 204.663524 144.594012 
L 369.427303 129.809444 
L 534.191083 120.106999 
" clip-path="url(#p8a30646643)" style="fill: none; stroke-dasharray: 1.5,2.475; stroke-dashoffset: 0; stroke: #6699cc; stroke-width: 1.5"/>
   </g>
   <g id="line2d_24">
    <path d="M 72.8525 167.409778 
L 89.328878 162.47747 
L 105.805256 158.479886 
L 122.281634 155.366971 
L 204.663524 141.883425 
L 369.427303 125.565109 
L 534.191083 117.067931 
" clip-path="url(#p8a30646643)" style="fill: none; stroke-dasharray: 9.6,2.4,1.5,2.4; stroke-dashoffset: 0; stroke: #6699cc; stroke-width: 1.5"/>
   </g>
   <g id="line2d_25">
    <path d="M 72.8525 168.363598 
L 89.328878 163.18931 
L 105.805256 159.399198 
L 122.281634 156.022022 
L 204.663524 144.768388 
L 369.427303 127.93546 
L 534.191083 121.609531 
" clip-path="url(#p8a30646643)" style="fill: none; stroke: #6699cc; stroke-width: 1.5; stroke-linecap: square"/>
   </g>
   <g id="line2d_26">
    <path d="M 72.8525 170.573583 
L 89.328878 162.223927 
L 105.805256 157.777513 
L 122.281634 152.909741 
L 204.663524 136.688139 
L 369.427303 120.194145 
L 534.191083 113.543748 
" clip-path="url(#p8a30646643)" style="fill: none; stroke-dasharray: 5.55,2.4; stroke-dashoffset: 0; stroke: #004488; stroke-width: 1.5"/>
   </g>
   <g id="line2d_27">
    <path d="M 72.8525 170.935027 
L 89.328878 161.755543 
L 105.805256 155.839166 
L 122.281634 152.03772 
L 204.663524 137.120114 
L 369.427303 120.538973 
L 534.191083 112.952352 
" clip-path="url(#p8a30646643)" style="fill: none; stroke: #004488; stroke-width: 1.5; stroke-linecap: square"/>
   </g>
   <g id="line2d_28">
    <path d="M 72.8525 169.07749 
L 89.328878 163.47511 
L 105.805256 156.142597 
L 122.281634 152.091635 
L 204.663524 136.93085 
L 369.427303 120.041542 
L 534.191083 113.082477 
" clip-path="url(#p8a30646643)" style="fill: none; stroke-dasharray: 9.6,2.4,1.5,2.4; stroke-dashoffset: 0; stroke: #004488; stroke-width: 1.5"/>
   </g>
   <g id="line2d_29">
    <path d="M 72.8525 170.311158 
L 89.328878 164.799643 
L 105.805256 157.226994 
L 122.281634 152.63375 
L 204.663524 137.00706 
L 369.427303 120.494671 
L 534.191083 113.684945 
" clip-path="url(#p8a30646643)" style="fill: none; stroke-dasharray: 1.5,2.475; stroke-dashoffset: 0; stroke: #004488; stroke-width: 1.5"/>
   </g>
   <g id="line2d_30">
    <path d="M 72.8525 167.618046 
L 89.328878 163.286313 
L 105.805256 157.347865 
L 122.281634 151.619359 
L 204.663524 137.428516 
L 369.427303 121.37774 
L 534.191083 113.604379 
" clip-path="url(#p8a30646643)" style="fill: none; stroke-dasharray: 5.55,2.4; stroke-dashoffset: 0; stroke: #ddaa33; stroke-width: 1.5"/>
   </g>
   <g id="line2d_31">
    <path d="M 72.8525 169.598064 
L 89.328878 162.230466 
L 105.805256 157.084203 
L 122.281634 153.091611 
L 204.663524 137.518286 
L 369.427303 120.431658 
L 534.191083 114.039401 
" clip-path="url(#p8a30646643)" style="fill: none; stroke: #ddaa33; stroke-width: 1.5; stroke-linecap: square"/>
   </g>
   <g id="line2d_32">
    <path d="M 72.8525 168.515151 
L 89.328878 165.091159 
L 105.805256 157.736383 
L 122.281634 153.839033 
L 204.663524 137.233002 
L 369.427303 120.248738 
L 534.191083 112.95727 
" clip-path="url(#p8a30646643)" style="fill: none; stroke-dasharray: 9.6,2.4,1.5,2.4; stroke-dashoffset: 0; stroke: #ddaa33; stroke-width: 1.5"/>
   </g>
   <g id="line2d_33">
    <path d="M 72.8525 132.368043 
L 89.328878 132.327649 
L 105.805256 138.016274 
L 122.281634 142.243251 
L 204.663524 136.857427 
L 369.427303 120.703612 
L 534.191083 115.315947 
" clip-path="url(#p8a30646643)" style="fill: none; stroke-dasharray: 1.5,2.475; stroke-dashoffset: 0; stroke: #ddaa33; stroke-width: 1.5"/>
   </g>
   <g id="line2d_34">
    <path d="M 72.8525 137.920428 
L 89.328878 153.497965 
L 105.805256 145.557627 
L 122.281634 148.150813 
L 204.663524 136.932971 
L 369.427303 119.506016 
L 534.191083 113.821063 
" clip-path="url(#p8a30646643)" style="fill: none; stroke-dasharray: 5.55,2.4; stroke-dashoffset: 0; stroke: #bb5566; stroke-width: 1.5"/>
   </g>
   <g id="line2d_35">
    <path d="M 72.8525 141.623077 
L 89.328878 135.578874 
L 105.805256 151.311749 
L 122.281634 148.627046 
L 204.663524 136.379657 
L 369.427303 119.874218 
L 534.191083 113.11741 
" clip-path="url(#p8a30646643)" style="fill: none; stroke: #bb5566; stroke-width: 1.5; stroke-linecap: square"/>
   </g>
   <g id="line2d_36">
    <path d="M 72.8525 151.833148 
L 89.328878 157.75197 
L 105.805256 156.052182 
L 122.281634 153.164368 
L 204.663524 136.965005 
L 369.427303 118.771453 
L 534.191083 112.216266 
" clip-path="url(#p8a30646643)" style="fill: none; stroke-dasharray: 9.6,2.4,1.5,2.4; stroke-dashoffset: 0; stroke: #bb5566; stroke-width: 1.5"/>
   </g>
   <g id="line2d_37">
    <path d="M 72.8525 119.206126 
L 89.328878 123.825738 
L 105.805256 124.332827 
L 122.281634 119.996442 
L 204.663524 129.817627 
L 369.427303 116.044775 
L 534.191083 113.179924 
" clip-path="url(#p8a30646643)" style="fill: none; stroke-dasharray: 1.5,2.475; stroke-dashoffset: 0; stroke: #bb5566; stroke-width: 1.5"/>
   </g>
   <g id="line2d_38">
    <path d="M 72.8525 167.10516 
L 89.328878 164.09699 
L 105.805256 161.260374 
L 122.281634 158.64998 
L 204.663524 148.334814 
L 369.427303 135.767187 
L 534.191083 128.959062 
" clip-path="url(#p8a30646643)" style="fill: none; stroke: #000000; stroke-width: 1.5; stroke-linecap: square"/>
   </g>
   <g id="patch_8">
    <path d="M 72.8525 176.806903 
L 72.8525 106.34439 
" style="fill: none; stroke: #000000; stroke-width: 0.8; stroke-linejoin: miter; stroke-linecap: square"/>
   </g>
   <g id="patch_9">
    <path d="M 534.191083 176.806903 
L 534.191083 106.34439 
" style="fill: none; stroke: #000000; stroke-width: 0.8; stroke-linejoin: miter; stroke-linecap: square"/>
   </g>
   <g id="patch_10">
    <path d="M 72.8525 176.806903 
L 534.191083 176.806903 
" style="fill: none; stroke: #000000; stroke-width: 0.8; stroke-linejoin: miter; stroke-linecap: square"/>
   </g>
   <g id="patch_11">
    <path d="M 72.8525 106.34439 
L 534.191083 106.34439 
" style="fill: none; stroke: #000000; stroke-width: 0.8; stroke-linejoin: miter; stroke-linecap: square"/>
   </g>
  </g>
  <g id="axes_3">
   <g id="patch_12">
    <path d="M 72.8525 261.361919 
L 534.191083 261.361919 
L 534.191083 190.899406 
L 72.8525 190.899406 
z
" style="fill: #ffffff"/>
   </g>
   <g id="matplotlib.axis_5"/>
   <g id="matplotlib.axis_6">
    <g id="ytick_5">
     <g id="line2d_39">
      <g>
       <use xlink:href="#mdcbcfac16d" x="72.8525" y="242.710526" style="stroke: #000000; stroke-width: 0.8"/>
      </g>
     </g>
     <g id="text_8">
      <text style="font: 12px 'Arial'; text-anchor: end" x="65.8525" y="247.005214" transform="rotate(-0 65.8525 247.005214)">0.00025</text>
     </g>
    </g>
    <g id="ytick_6">
     <g id="line2d_40">
      <g>
       <use xlink:href="#mdcbcfac16d" x="72.8525" y="219.234651" style="stroke: #000000; stroke-width: 0.8"/>
      </g>
     </g>
     <g id="text_9">
      <text style="font: 12px 'Arial'; text-anchor: end" x="65.8525" y="223.529339" transform="rotate(-0 65.8525 223.529339)">0.00050</text>
     </g>
    </g>
    <g id="ytick_7">
     <g id="line2d_41">
      <g>
       <use xlink:href="#mdcbcfac16d" x="72.8525" y="195.758776" style="stroke: #000000; stroke-width: 0.8"/>
      </g>
     </g>
     <g id="text_10">
      <text style="font: 12px 'Arial'; text-anchor: end" x="65.8525" y="200.053464" transform="rotate(-0 65.8525 200.053464)">0.00075</text>
     </g>
    </g>
    <g id="text_11">
     <!-- $x$ offset -->
     <g transform="translate(16.095 246.050662) rotate(-90)">
      <text>
       <tspan style="font: oblique 12px 'DejaVu Sans'" x="0" y="-0.265625">x</tspan>
       <tspan style="font: 12px 'Arial'" x="7.101562 10.435547 17.109375 20.443359 23.777344 29.777344 36.451172" y="-0.265625"> offset</tspan>
      </text>
     </g>
    </g>
   </g>
   <g id="line2d_42">
    <path d="M 72.8525 253.014889 
L 89.328878 248.832314 
L 105.805256 244.90197 
L 122.281634 242.316672 
L 204.663524 223.135925 
L 369.427303 209.406968 
L 534.191083 205.399006 
" clip-path="url(#pb3bd0800ff)" style="fill: none; stroke-dasharray: 5.55,2.4; stroke-dashoffset: 0; stroke: #6699cc; stroke-width: 1.5"/>
   </g>
   <g id="line2d_43">
    <path d="M 72.8525 252.656422 
L 89.328878 248.29489 
L 105.805256 244.987936 
L 122.281634 241.889953 
L 204.663524 229.945098 
L 369.427303 212.706682 
L 534.191083 202.598078 
" clip-path="url(#pb3bd0800ff)" style="fill: none; stroke-dasharray: 1.5,2.475; stroke-dashoffset: 0; stroke: #6699cc; stroke-width: 1.5"/>
   </g>
   <g id="line2d_44">
    <path d="M 72.8525 251.95853 
L 89.328878 247.624093 
L 105.805256 244.220962 
L 122.281634 240.611366 
L 204.663524 226.058577 
L 369.427303 206.110412 
L 534.191083 197.27248 
" clip-path="url(#pb3bd0800ff)" style="fill: none; stroke-dasharray: 9.6,2.4,1.5,2.4; stroke-dashoffset: 0; stroke: #6699cc; stroke-width: 1.5"/>
   </g>
   <g id="line2d_45">
    <path d="M 72.8525 252.646188 
L 89.328878 247.818683 
L 105.805256 244.281872 
L 122.281634 240.330342 
L 204.663524 228.355416 
L 369.427303 210.436858 
L 534.191083 201.430991 
" clip-path="url(#pb3bd0800ff)" style="fill: none; stroke: #6699cc; stroke-width: 1.5; stroke-linecap: square"/>
   </g>
   <g id="line2d_46">
    <path d="M 72.8525 253.447432 
L 89.328878 246.810994 
L 105.805256 240.549404 
L 122.281634 237.379059 
L 204.663524 222.084754 
L 369.427303 203.934447 
L 534.191083 197.212957 
" clip-path="url(#pb3bd0800ff)" style="fill: none; stroke-dasharray: 5.55,2.4; stroke-dashoffset: 0; stroke: #004488; stroke-width: 1.5"/>
   </g>
   <g id="line2d_47">
    <path d="M 72.8525 253.459097 
L 89.328878 245.848417 
L 105.805256 241.450583 
L 122.281634 237.382804 
L 204.663524 222.201655 
L 369.427303 204.846956 
L 534.191083 197.11393 
" clip-path="url(#pb3bd0800ff)" style="fill: none; stroke: #004488; stroke-width: 1.5; stroke-linecap: square"/>
   </g>
   <g id="line2d_48">
    <path d="M 72.8525 255.376908 
L 89.328878 246.391094 
L 105.805256 240.24162 
L 122.281634 236.662612 
L 204.663524 221.52316 
L 369.427303 204.330588 
L 534.191083 197.406236 
" clip-path="url(#pb3bd0800ff)" style="fill: none; stroke-dasharray: 9.6,2.4,1.5,2.4; stroke-dashoffset: 0; stroke: #004488; stroke-width: 1.5"/>
   </g>
   <g id="line2d_49">
    <path d="M 72.8525 254.548518 
L 89.328878 246.729492 
L 105.805256 241.363354 
L 122.281634 236.810458 
L 204.663524 221.752191 
L 369.427303 205.173332 
L 534.191083 197.768249 
" clip-path="url(#pb3bd0800ff)" style="fill: none; stroke-dasharray: 1.5,2.475; stroke-dashoffset: 0; stroke: #004488; stroke-width: 1.5"/>
   </g>
   <g id="line2d_50">
    <path d="M 72.8525 253.95772 
L 89.328878 246.519449 
L 105.805256 241.695402 
L 122.281634 236.684434 
L 204.663524 221.872177 
L 369.427303 204.207141 
L 534.191083 198.271584 
" clip-path="url(#pb3bd0800ff)" style="fill: none; stroke-dasharray: 5.55,2.4; stroke-dashoffset: 0; stroke: #ddaa33; stroke-width: 1.5"/>
   </g>
   <g id="line2d_51">
    <path d="M 72.8525 254.162036 
L 89.328878 245.617494 
L 105.805256 240.404109 
L 122.281634 237.216126 
L 204.663524 222.097547 
L 369.427303 205.220937 
L 534.191083 197.603908 
" clip-path="url(#pb3bd0800ff)" style="fill: none; stroke: #ddaa33; stroke-width: 1.5; stroke-linecap: square"/>
   </g>
   <g id="line2d_52">
    <path d="M 72.8525 255.490043 
L 89.328878 247.002281 
L 105.805256 241.651627 
L 122.281634 236.517269 
L 204.663524 222.060764 
L 369.427303 204.616561 
L 534.191083 198.002549 
" clip-path="url(#pb3bd0800ff)" style="fill: none; stroke-dasharray: 9.6,2.4,1.5,2.4; stroke-dashoffset: 0; stroke: #ddaa33; stroke-width: 1.5"/>
   </g>
   <g id="line2d_53">
    <path d="M 72.8525 227.589081 
L 89.328878 239.541301 
L 105.805256 241.304422 
L 122.281634 237.418348 
L 204.663524 222.540663 
L 369.427303 205.158144 
L 534.191083 198.674913 
" clip-path="url(#pb3bd0800ff)" style="fill: none; stroke-dasharray: 1.5,2.475; stroke-dashoffset: 0; stroke: #ddaa33; stroke-width: 1.5"/>
   </g>
   <g id="line2d_54">
    <path d="M 72.8525 234.496872 
L 89.328878 223.388247 
L 105.805256 237.613393 
L 122.281634 236.611979 
L 204.663524 221.861625 
L 369.427303 204.422716 
L 534.191083 196.771282 
" clip-path="url(#pb3bd0800ff)" style="fill: none; stroke-dasharray: 5.55,2.4; stroke-dashoffset: 0; stroke: #bb5566; stroke-width: 1.5"/>
   </g>
   <g id="line2d_55">
    <path d="M 72.8525 234.631426 
L 89.328878 239.651126 
L 105.805256 238.988057 
L 122.281634 235.056339 
L 204.663524 221.896382 
L 369.427303 204.556008 
L 534.191083 196.815573 
" clip-path="url(#pb3bd0800ff)" style="fill: none; stroke: #bb5566; stroke-width: 1.5; stroke-linecap: square"/>
   </g>
   <g id="line2d_56">
    <path d="M 72.8525 248.869705 
L 89.328878 246.410499 
L 105.805256 239.984863 
L 122.281634 235.61794 
L 204.663524 221.984635 
L 369.427303 203.39074 
L 534.191083 197.010604 
" clip-path="url(#pb3bd0800ff)" style="fill: none; stroke-dasharray: 9.6,2.4,1.5,2.4; stroke-dashoffset: 0; stroke: #bb5566; stroke-width: 1.5"/>
   </g>
   <g id="line2d_57">
    <path d="M 72.8525 219.659971 
L 89.328878 221.320943 
L 105.805256 214.804196 
L 122.281634 220.216348 
L 204.663524 218.388465 
L 369.427303 204.355662 
L 534.191083 197.243316 
" clip-path="url(#pb3bd0800ff)" style="fill: none; stroke-dasharray: 1.5,2.475; stroke-dashoffset: 0; stroke: #bb5566; stroke-width: 1.5"/>
   </g>
   <g id="line2d_58">
    <path d="M 72.8525 251.336835 
L 89.328878 248.186434 
L 105.805256 245.355448 
L 122.281634 242.783422 
L 204.663524 232.739489 
L 369.427303 220.274663 
L 534.191083 213.156881 
" clip-path="url(#pb3bd0800ff)" style="fill: none; stroke: #000000; stroke-width: 1.5; stroke-linecap: square"/>
   </g>
   <g id="patch_13">
    <path d="M 72.8525 261.361919 
L 72.8525 190.899406 
" style="fill: none; stroke: #000000; stroke-width: 0.8; stroke-linejoin: miter; stroke-linecap: square"/>
   </g>
   <g id="patch_14">
    <path d="M 534.191083 261.361919 
L 534.191083 190.899406 
" style="fill: none; stroke: #000000; stroke-width: 0.8; stroke-linejoin: miter; stroke-linecap: square"/>
   </g>
   <g id="patch_15">
    <path d="M 72.8525 261.361919 
L 534.191083 261.361919 
" style="fill: none; stroke: #000000; stroke-width: 0.8; stroke-linejoin: miter; stroke-linecap: square"/>
   </g>
   <g id="patch_16">
    <path d="M 72.8525 190.899406 
L 534.191083 190.899406 
" style="fill: none; stroke: #000000; stroke-width: 0.8; stroke-linejoin: miter; stroke-linecap: square"/>
   </g>
  </g>
  <g id="axes_4">
   <g id="patch_17">
    <path d="M 72.8525 345.916934 
L 534.191083 345.916934 
L 534.191083 275.454421 
L 72.8525 275.454421 
z
" style="fill: #ffffff"/>
   </g>
   <g id="matplotlib.axis_7">
    <g id="xtick_1">
     <g id="line2d_59">
      <defs>
       <path id="mcfc7ecd59c" d="M 0 0 
L 0 3.5 
" style="stroke: #000000; stroke-width: 0.8"/>
      </defs>
      <g>
       <use xlink:href="#mcfc7ecd59c" x="72.8525" y="345.916934" style="stroke: #000000; stroke-width: 0.8"/>
      </g>
     </g>
     <g id="text_12">
      <text style="font: 12px 'Arial'; text-anchor: middle" x="72.8525" y="361.506309" transform="rotate(-0 72.8525 361.506309)">2</text>
     </g>
    </g>
    <g id="xtick_2">
     <g id="line2d_60">
      <g>
       <use xlink:href="#mcfc7ecd59c" x="89.328878" y="345.916934" style="stroke: #000000; stroke-width: 0.8"/>
      </g>
     </g>
     <g id="text_13">
      <text style="font: 12px 'Arial'; text-anchor: middle" x="89.328878" y="361.506309" transform="rotate(-0 89.328878 361.506309)">3</text>
     </g>
    </g>
    <g id="xtick_3">
     <g id="line2d_61">
      <g>
       <use xlink:href="#mcfc7ecd59c" x="105.805256" y="345.916934" style="stroke: #000000; stroke-width: 0.8"/>
      </g>
     </g>
     <g id="text_14">
      <text style="font: 12px 'Arial'; text-anchor: middle" x="105.805256" y="361.506309" transform="rotate(-0 105.805256 361.506309)">4</text>
     </g>
    </g>
    <g id="xtick_4">
     <g id="line2d_62">
      <g>
       <use xlink:href="#mcfc7ecd59c" x="122.281634" y="345.916934" style="stroke: #000000; stroke-width: 0.8"/>
      </g>
     </g>
     <g id="text_15">
      <text style="font: 12px 'Arial'; text-anchor: middle" x="122.281634" y="361.506309" transform="rotate(-0 122.281634 361.506309)">5</text>
     </g>
    </g>
    <g id="xtick_5">
     <g id="line2d_63">
      <g>
       <use xlink:href="#mcfc7ecd59c" x="204.663524" y="345.916934" style="stroke: #000000; stroke-width: 0.8"/>
      </g>
     </g>
     <g id="text_16">
      <text style="font: 12px 'Arial'; text-anchor: middle" x="204.663524" y="361.506309" transform="rotate(-0 204.663524 361.506309)">10</text>
     </g>
    </g>
    <g id="xtick_6">
     <g id="line2d_64">
      <g>
       <use xlink:href="#mcfc7ecd59c" x="369.427303" y="345.916934" style="stroke: #000000; stroke-width: 0.8"/>
      </g>
     </g>
     <g id="text_17">
      <text style="font: 12px 'Arial'; text-anchor: middle" x="369.427303" y="361.506309" transform="rotate(-0 369.427303 361.506309)">20</text>
     </g>
    </g>
    <g id="xtick_7">
     <g id="line2d_65">
      <g>
       <use xlink:href="#mcfc7ecd59c" x="534.191083" y="345.916934" style="stroke: #000000; stroke-width: 0.8"/>
      </g>
     </g>
     <g id="text_18">
      <text style="font: 12px 'Arial'; text-anchor: middle" x="534.191083" y="361.506309" transform="rotate(-0 534.191083 361.506309)">30</text>
     </g>
    </g>
    <g id="text_19">
     <!-- Forecasting time ($s$) -->
     <g transform="translate(250.361791 376.651309)">
      <text>
       <tspan style="font: 12px 'Arial'" x="0 7.330078 14.003906 18 24.673828 30.673828 37.347656 43.347656 46.681641 49.347656 56.021484 62.695312 66.029297 69.363281 72.029297 82.025391 88.699219 92.033203 102.28125" y="-0.265625">Forecasting time ()</tspan>
       <tspan style="font: oblique 12px 'DejaVu Sans'" x="96.029297" y="-0.265625">s</tspan>
      </text>
     </g>
    </g>
   </g>
   <g id="matplotlib.axis_8">
    <g id="ytick_8">
     <g id="line2d_66">
      <g>
       <use xlink:href="#mdcbcfac16d" x="72.8525" y="325.428352" style="stroke: #000000; stroke-width: 0.8"/>
      </g>
     </g>
     <g id="text_20">
      <text style="font: 12px 'Arial'; text-anchor: end" x="65.8525" y="329.72304" transform="rotate(-0 65.8525 329.72304)">10</text>
     </g>
    </g>
    <g id="ytick_9">
     <g id="line2d_67">
      <g>
       <use xlink:href="#mdcbcfac16d" x="72.8525" y="300.988829" style="stroke: #000000; stroke-width: 0.8"/>
      </g>
     </g>
     <g id="text_21">
      <text style="font: 12px 'Arial'; text-anchor: end" x="65.8525" y="305.283517" transform="rotate(-0 65.8525 305.283517)">20</text>
     </g>
    </g>
    <g id="ytick_10">
     <g id="line2d_68">
      <g>
       <use xlink:href="#mdcbcfac16d" x="72.8525" y="276.549306" style="stroke: #000000; stroke-width: 0.8"/>
      </g>
     </g>
     <g id="text_22">
      <text style="font: 12px 'Arial'; text-anchor: end" x="65.8525" y="280.843994" transform="rotate(-0 65.8525 280.843994)">30</text>
     </g>
    </g>
    <g id="text_23">
     <text style="font: 12px 'Arial'; text-anchor: middle" x="46.12125" y="310.685678" transform="rotate(-90 46.12125 310.685678)">Speed</text>
    </g>
   </g>
   <g id="line2d_69">
    <path d="M 72.8525 337.39057 
L 89.328878 332.618605 
L 105.805256 329.985049 
L 122.281634 329.331815 
L 204.663524 325.199989 
L 369.427303 318.677968 
L 534.191083 315.773723 
" clip-path="url(#p7bbbe5ffa8)" style="fill: none; stroke-dasharray: 5.55,2.4; stroke-dashoffset: 0; stroke: #6699cc; stroke-width: 1.5"/>
   </g>
   <g id="line2d_70">
    <path d="M 72.8525 337.634102 
L 89.328878 332.921286 
L 105.805256 329.95105 
L 122.281634 327.501319 
L 204.663524 322.975332 
L 369.427303 317.237603 
L 534.191083 314.288457 
" clip-path="url(#p7bbbe5ffa8)" style="fill: none; stroke-dasharray: 1.5,2.475; stroke-dashoffset: 0; stroke: #6699cc; stroke-width: 1.5"/>
   </g>
   <g id="line2d_71">
    <path d="M 72.8525 337.647946 
L 89.328878 333.1362 
L 105.805256 329.62674 
L 122.281634 326.709902 
L 204.663524 320.354601 
L 369.427303 315.971889 
L 534.191083 311.94014 
" clip-path="url(#p7bbbe5ffa8)" style="fill: none; stroke-dasharray: 9.6,2.4,1.5,2.4; stroke-dashoffset: 0; stroke: #6699cc; stroke-width: 1.5"/>
   </g>
   <g id="line2d_72">
    <path d="M 72.8525 337.346817 
L 89.328878 332.607849 
L 105.805256 328.945755 
L 122.281634 326.129649 
L 204.663524 319.803986 
L 369.427303 316.536361 
L 534.191083 312.601509 
" clip-path="url(#p7bbbe5ffa8)" style="fill: none; stroke: #6699cc; stroke-width: 1.5; stroke-linecap: square"/>
   </g>
   <g id="line2d_73">
    <path d="M 72.8525 339.959338 
L 89.328878 336.066234 
L 105.805256 332.817003 
L 122.281634 330.59857 
L 204.663524 324.381714 
L 369.427303 321.881686 
L 534.191083 320.94007 
" clip-path="url(#p7bbbe5ffa8)" style="fill: none; stroke-dasharray: 5.55,2.4; stroke-dashoffset: 0; stroke: #004488; stroke-width: 1.5"/>
   </g>
   <g id="line2d_74">
    <path d="M 72.8525 282.614162 
L 89.328878 282.551792 
L 105.805256 282.496666 
L 122.281634 282.438459 
L 204.663524 282.1708 
L 369.427303 281.730736 
L 534.191083 281.326297 
" clip-path="url(#p7bbbe5ffa8)" style="fill: none; stroke: #004488; stroke-width: 1.5; stroke-linecap: square"/>
   </g>
   <g id="line2d_75">
    <path d="M 72.8525 282.614162 
L 89.328878 282.55179 
L 105.805256 282.496666 
L 122.281634 282.438459 
L 204.663524 282.1708 
L 369.427303 281.730736 
L 534.191083 281.326297 
" clip-path="url(#p7bbbe5ffa8)" style="fill: none; stroke-dasharray: 9.6,2.4,1.5,2.4; stroke-dashoffset: 0; stroke: #004488; stroke-width: 1.5"/>
   </g>
   <g id="line2d_76">
    <path d="M 72.8525 282.614162 
L 89.328878 282.55179 
L 105.805256 282.496666 
L 122.281634 282.438459 
L 204.663524 282.1708 
L 369.427303 281.730736 
L 534.191083 281.326297 
" clip-path="url(#p7bbbe5ffa8)" style="fill: none; stroke-dasharray: 1.5,2.475; stroke-dashoffset: 0; stroke: #004488; stroke-width: 1.5"/>
   </g>
   <g id="line2d_77">
    <path d="M 72.8525 340.045058 
L 89.328878 336.17114 
L 105.805256 333.104671 
L 122.281634 330.637171 
L 204.663524 324.554868 
L 369.427303 321.968632 
L 534.191083 320.826853 
" clip-path="url(#p7bbbe5ffa8)" style="fill: none; stroke-dasharray: 5.55,2.4; stroke-dashoffset: 0; stroke: #ddaa33; stroke-width: 1.5"/>
   </g>
   <g id="line2d_78">
    <path d="M 72.8525 282.614162 
L 89.328878 282.551791 
L 105.805256 282.496666 
L 122.281634 282.438459 
L 204.663524 282.1708 
L 369.427303 281.730736 
L 534.191083 281.326297 
" clip-path="url(#p7bbbe5ffa8)" style="fill: none; stroke: #ddaa33; stroke-width: 1.5; stroke-linecap: square"/>
   </g>
   <g id="line2d_79">
    <path d="M 72.8525 282.614162 
L 89.328878 282.55179 
L 105.805256 282.496666 
L 122.281634 282.438459 
L 204.663524 282.1708 
L 369.427303 281.730736 
L 534.191083 281.326297 
" clip-path="url(#p7bbbe5ffa8)" style="fill: none; stroke-dasharray: 9.6,2.4,1.5,2.4; stroke-dashoffset: 0; stroke: #ddaa33; stroke-width: 1.5"/>
   </g>
   <g id="line2d_80">
    <path d="M 72.8525 282.607498 
L 89.328878 282.55179 
L 105.805256 282.496666 
L 122.281634 282.438459 
L 204.663524 282.1708 
L 369.427303 281.730736 
L 534.191083 281.326297 
" clip-path="url(#p7bbbe5ffa8)" style="fill: none; stroke-dasharray: 1.5,2.475; stroke-dashoffset: 0; stroke: #ddaa33; stroke-width: 1.5"/>
   </g>
   <g id="line2d_81">
    <path d="M 72.8525 339.964634 
L 89.328878 336.219365 
L 105.805256 333.121329 
L 122.281634 330.926945 
L 204.663524 324.893944 
L 369.427303 322.245977 
L 534.191083 321.0558 
" clip-path="url(#p7bbbe5ffa8)" style="fill: none; stroke-dasharray: 5.55,2.4; stroke-dashoffset: 0; stroke: #bb5566; stroke-width: 1.5"/>
   </g>
   <g id="line2d_82">
    <path d="M 72.8525 282.614111 
L 89.328878 282.55179 
L 105.805256 282.496666 
L 122.281634 282.438459 
L 204.663524 282.1708 
L 369.427303 281.730736 
L 534.191083 281.326297 
" clip-path="url(#p7bbbe5ffa8)" style="fill: none; stroke: #bb5566; stroke-width: 1.5; stroke-linecap: square"/>
   </g>
   <g id="line2d_83">
    <path d="M 72.8525 282.614162 
L 89.328878 282.55179 
L 105.805256 282.496666 
L 122.281634 282.438459 
L 204.663524 282.1708 
L 369.427303 281.730736 
L 534.191083 281.326297 
" clip-path="url(#p7bbbe5ffa8)" style="fill: none; stroke-dasharray: 9.6,2.4,1.5,2.4; stroke-dashoffset: 0; stroke: #bb5566; stroke-width: 1.5"/>
   </g>
   <g id="line2d_84">
    <path d="M 72.8525 282.614162 
L 89.328878 282.551788 
L 105.805256 282.496666 
L 122.281634 282.438459 
L 204.663524 282.1708 
L 369.427303 281.730736 
L 534.191083 281.326297 
" clip-path="url(#p7bbbe5ffa8)" style="fill: none; stroke-dasharray: 1.5,2.475; stroke-dashoffset: 0; stroke: #bb5566; stroke-width: 1.5"/>
   </g>
   <g id="line2d_85">
    <path d="M 72.8525 339.246549 
L 89.328878 337.068295 
L 105.805256 335.175549 
L 122.281634 333.541887 
L 204.663524 328.246102 
L 369.427303 324.109286 
L 534.191083 322.384832 
" clip-path="url(#p7bbbe5ffa8)" style="fill: none; stroke: #000000; stroke-width: 1.5; stroke-linecap: square"/>
   </g>
   <g id="line2d_86">
    <path d="M 39.899744 351.78881 
" clip-path="url(#p7bbbe5ffa8)" style="fill: none; stroke-dasharray: 5.55,2.4; stroke-dashoffset: 0; stroke: #6699cc; stroke-width: 1.5"/>
   </g>
   <g id="line2d_87">
    <path d="M 39.899744 351.78881 
" clip-path="url(#p7bbbe5ffa8)" style="fill: none; stroke-dasharray: 1.5,2.475; stroke-dashoffset: 0; stroke: #6699cc; stroke-width: 1.5"/>
   </g>
   <g id="line2d_88">
    <path d="M 39.899744 351.78881 
" clip-path="url(#p7bbbe5ffa8)" style="fill: none; stroke-dasharray: 9.6,2.4,1.5,2.4; stroke-dashoffset: 0; stroke: #6699cc; stroke-width: 1.5"/>
   </g>
   <g id="line2d_89">
    <path d="M 39.899744 351.78881 
" clip-path="url(#p7bbbe5ffa8)" style="fill: none; stroke: #6699cc; stroke-width: 1.5; stroke-linecap: square"/>
   </g>
   <g id="line2d_90">
    <path d="M 39.899744 351.78881 
" clip-path="url(#p7bbbe5ffa8)" style="fill: none; stroke-dasharray: 5.55,2.4; stroke-dashoffset: 0; stroke: #004488; stroke-width: 1.5"/>
   </g>
   <g id="line2d_91">
    <path d="M 39.899744 351.78881 
" clip-path="url(#p7bbbe5ffa8)" style="fill: none; stroke: #004488; stroke-width: 1.5; stroke-linecap: square"/>
   </g>
   <g id="line2d_92">
    <path d="M 39.899744 351.78881 
" clip-path="url(#p7bbbe5ffa8)" style="fill: none; stroke-dasharray: 9.6,2.4,1.5,2.4; stroke-dashoffset: 0; stroke: #004488; stroke-width: 1.5"/>
   </g>
   <g id="line2d_93">
    <path d="M 39.899744 351.78881 
" clip-path="url(#p7bbbe5ffa8)" style="fill: none; stroke-dasharray: 1.5,2.475; stroke-dashoffset: 0; stroke: #004488; stroke-width: 1.5"/>
   </g>
   <g id="line2d_94">
    <path d="M 39.899744 351.78881 
" clip-path="url(#p7bbbe5ffa8)" style="fill: none; stroke-dasharray: 5.55,2.4; stroke-dashoffset: 0; stroke: #ddaa33; stroke-width: 1.5"/>
   </g>
   <g id="line2d_95">
    <path d="M 39.899744 351.78881 
" clip-path="url(#p7bbbe5ffa8)" style="fill: none; stroke: #ddaa33; stroke-width: 1.5; stroke-linecap: square"/>
   </g>
   <g id="line2d_96">
    <path d="M 39.899744 351.78881 
" clip-path="url(#p7bbbe5ffa8)" style="fill: none; stroke-dasharray: 9.6,2.4,1.5,2.4; stroke-dashoffset: 0; stroke: #ddaa33; stroke-width: 1.5"/>
   </g>
   <g id="line2d_97">
    <path d="M 39.899744 351.78881 
" clip-path="url(#p7bbbe5ffa8)" style="fill: none; stroke-dasharray: 1.5,2.475; stroke-dashoffset: 0; stroke: #ddaa33; stroke-width: 1.5"/>
   </g>
   <g id="line2d_98">
    <path d="M 39.899744 351.78881 
" clip-path="url(#p7bbbe5ffa8)" style="fill: none; stroke-dasharray: 5.55,2.4; stroke-dashoffset: 0; stroke: #bb5566; stroke-width: 1.5"/>
   </g>
   <g id="line2d_99">
    <path d="M 39.899744 351.78881 
" clip-path="url(#p7bbbe5ffa8)" style="fill: none; stroke: #bb5566; stroke-width: 1.5; stroke-linecap: square"/>
   </g>
   <g id="line2d_100">
    <path d="M 39.899744 351.78881 
" clip-path="url(#p7bbbe5ffa8)" style="fill: none; stroke-dasharray: 9.6,2.4,1.5,2.4; stroke-dashoffset: 0; stroke: #bb5566; stroke-width: 1.5"/>
   </g>
   <g id="line2d_101">
    <path d="M 39.899744 351.78881 
" clip-path="url(#p7bbbe5ffa8)" style="fill: none; stroke-dasharray: 1.5,2.475; stroke-dashoffset: 0; stroke: #bb5566; stroke-width: 1.5"/>
   </g>
   <g id="line2d_102">
    <path d="M 39.899744 351.78881 
" clip-path="url(#p7bbbe5ffa8)" style="fill: none; stroke: #000000; stroke-width: 1.5; stroke-linecap: square"/>
   </g>
   <g id="patch_18">
    <path d="M 72.8525 345.916934 
L 72.8525 275.454421 
" style="fill: none; stroke: #000000; stroke-width: 0.8; stroke-linejoin: miter; stroke-linecap: square"/>
   </g>
   <g id="patch_19">
    <path d="M 534.191083 345.916934 
L 534.191083 275.454421 
" style="fill: none; stroke: #000000; stroke-width: 0.8; stroke-linejoin: miter; stroke-linecap: square"/>
   </g>
   <g id="patch_20">
    <path d="M 72.8525 345.916934 
L 534.191083 345.916934 
" style="fill: none; stroke: #000000; stroke-width: 0.8; stroke-linejoin: miter; stroke-linecap: square"/>
   </g>
   <g id="patch_21">
    <path d="M 72.8525 275.454421 
L 534.191083 275.454421 
" style="fill: none; stroke: #000000; stroke-width: 0.8; stroke-linejoin: miter; stroke-linecap: square"/>
   </g>
   <g id="legend_1">
    <g id="patch_22">
     <path d="M 35.118642 475.204959 
L 570.425517 475.204959 
Q 572.825517 475.204959 572.825517 472.804959 
L 572.825517 389.133084 
Q 572.825517 386.733084 570.425517 386.733084 
L 35.118642 386.733084 
Q 32.718642 386.733084 32.718642 389.133084 
L 32.718642 472.804959 
Q 32.718642 475.204959 35.118642 475.204959 
z
" style="fill: #ffffff; opacity: 0.8; stroke: #cccccc; stroke-linejoin: miter"/>
    </g>
    <g id="line2d_103">
     <path d="M 37.518642 395.922459 
L 49.518642 395.922459 
L 61.518642 395.922459 
" style="fill: none; stroke-dasharray: 5.55,2.4; stroke-dashoffset: 0; stroke: #6699cc; stroke-width: 1.5"/>
    </g>
    <g id="text_24">
     <text style="font: 12px 'Arial'; text-anchor: start" x="71.118642" y="400.122459" transform="rotate(-0 71.118642 400.122459)">GRU Att 1</text>
    </g>
    <g id="line2d_104">
     <path d="M 37.518642 412.896834 
L 49.518642 412.896834 
L 61.518642 412.896834 
" style="fill: none; stroke-dasharray: 1.5,2.475; stroke-dashoffset: 0; stroke: #6699cc; stroke-width: 1.5"/>
    </g>
    <g id="text_25">
     <text style="font: 12px 'Arial'; text-anchor: start" x="71.118642" y="417.096834" transform="rotate(-0 71.118642 417.096834)">GRU Att 2</text>
    </g>
    <g id="line2d_105">
     <path d="M 37.518642 429.871209 
L 49.518642 429.871209 
L 61.518642 429.871209 
" style="fill: none; stroke-dasharray: 9.6,2.4,1.5,2.4; stroke-dashoffset: 0; stroke: #6699cc; stroke-width: 1.5"/>
    </g>
    <g id="text_26">
     <text style="font: 12px 'Arial'; text-anchor: start" x="71.118642" y="434.071209" transform="rotate(-0 71.118642 434.071209)">GRU Att 3</text>
    </g>
    <g id="line2d_106">
     <path d="M 37.518642 446.845584 
L 49.518642 446.845584 
L 61.518642 446.845584 
" style="fill: none; stroke: #6699cc; stroke-width: 1.5; stroke-linecap: square"/>
    </g>
    <g id="text_27">
     <text style="font: 12px 'Arial'; text-anchor: start" x="71.118642" y="451.045584" transform="rotate(-0 71.118642 451.045584)">GRU Att 4</text>
    </g>
    <g id="line2d_107">
     <path d="M 37.518642 463.819959 
L 49.518642 463.819959 
L 61.518642 463.819959 
" style="fill: none; stroke-dasharray: 5.55,2.4; stroke-dashoffset: 0; stroke: #004488; stroke-width: 1.5"/>
    </g>
    <g id="text_28">
     <text style="font: 12px 'Arial'; text-anchor: start" x="71.118642" y="468.019959" transform="rotate(-0 71.118642 468.019959)">GRU Linear</text>
    </g>
    <g id="line2d_108">
     <path d="M 158.473017 395.922459 
L 170.473017 395.922459 
L 182.473017 395.922459 
" style="fill: none; stroke: #004488; stroke-width: 1.5; stroke-linecap: square"/>
    </g>
    <g id="text_29">
     <text style="font: 12px 'Arial'; text-anchor: start" x="192.073017" y="400.122459" transform="rotate(-0 192.073017 400.122459)">GRU Reference</text>
    </g>
    <g id="line2d_109">
     <path d="M 158.473017 412.896834 
L 170.473017 412.896834 
L 182.473017 412.896834 
" style="fill: none; stroke-dasharray: 9.6,2.4,1.5,2.4; stroke-dashoffset: 0; stroke: #004488; stroke-width: 1.5"/>
    </g>
    <g id="text_30">
     <text style="font: 12px 'Arial'; text-anchor: start" x="192.073017" y="417.096834" transform="rotate(-0 192.073017 417.096834)">GRU Third</text>
    </g>
    <g id="line2d_110">
     <path d="M 158.473017 429.871209 
L 170.473017 429.871209 
L 182.473017 429.871209 
" style="fill: none; stroke-dasharray: 1.5,2.475; stroke-dashoffset: 0; stroke: #004488; stroke-width: 1.5"/>
    </g>
    <g id="text_31">
     <text style="font: 12px 'Arial'; text-anchor: start" x="192.073017" y="434.071209" transform="rotate(-0 192.073017 434.071209)">GRU Twice</text>
    </g>
    <g id="line2d_111">
     <path d="M 158.473017 446.845584 
L 170.473017 446.845584 
L 182.473017 446.845584 
" style="fill: none; stroke-dasharray: 5.55,2.4; stroke-dashoffset: 0; stroke: #ddaa33; stroke-width: 1.5"/>
    </g>
    <g id="text_32">
     <text style="font: 12px 'Arial'; text-anchor: start" x="192.073017" y="451.045584" transform="rotate(-0 192.073017 451.045584)">LSTM Linear</text>
    </g>
    <g id="line2d_112">
     <path d="M 301.434267 395.922459 
L 313.434267 395.922459 
L 325.434267 395.922459 
" style="fill: none; stroke: #ddaa33; stroke-width: 1.5; stroke-linecap: square"/>
    </g>
    <g id="text_33">
     <text style="font: 12px 'Arial'; text-anchor: start" x="335.034267" y="400.122459" transform="rotate(-0 335.034267 400.122459)">LSTM Reference</text>
    </g>
    <g id="line2d_113">
     <path d="M 301.434267 412.896834 
L 313.434267 412.896834 
L 325.434267 412.896834 
" style="fill: none; stroke-dasharray: 9.6,2.4,1.5,2.4; stroke-dashoffset: 0; stroke: #ddaa33; stroke-width: 1.5"/>
    </g>
    <g id="text_34">
     <text style="font: 12px 'Arial'; text-anchor: start" x="335.034267" y="417.096834" transform="rotate(-0 335.034267 417.096834)">LSTM Third</text>
    </g>
    <g id="line2d_114">
     <path d="M 301.434267 429.871209 
L 313.434267 429.871209 
L 325.434267 429.871209 
" style="fill: none; stroke-dasharray: 1.5,2.475; stroke-dashoffset: 0; stroke: #ddaa33; stroke-width: 1.5"/>
    </g>
    <g id="text_35">
     <text style="font: 12px 'Arial'; text-anchor: start" x="335.034267" y="434.071209" transform="rotate(-0 335.034267 434.071209)">LSTM Twice</text>
    </g>
    <g id="line2d_115">
     <path d="M 301.434267 446.845584 
L 313.434267 446.845584 
L 325.434267 446.845584 
" style="fill: none; stroke-dasharray: 5.55,2.4; stroke-dashoffset: 0; stroke: #bb5566; stroke-width: 1.5"/>
    </g>
    <g id="text_36">
     <text style="font: 12px 'Arial'; text-anchor: start" x="335.034267" y="451.045584" transform="rotate(-0 335.034267 451.045584)">RNN Linear</text>
    </g>
    <g id="line2d_116">
     <path d="M 449.731767 395.922459 
L 461.731767 395.922459 
L 473.731767 395.922459 
" style="fill: none; stroke: #bb5566; stroke-width: 1.5; stroke-linecap: square"/>
    </g>
    <g id="text_37">
     <text style="font: 12px 'Arial'; text-anchor: start" x="483.331767" y="400.122459" transform="rotate(-0 483.331767 400.122459)">RNN Reference</text>
    </g>
    <g id="line2d_117">
     <path d="M 449.731767 412.896834 
L 461.731767 412.896834 
L 473.731767 412.896834 
" style="fill: none; stroke-dasharray: 9.6,2.4,1.5,2.4; stroke-dashoffset: 0; stroke: #bb5566; stroke-width: 1.5"/>
    </g>
    <g id="text_38">
     <text style="font: 12px 'Arial'; text-anchor: start" x="483.331767" y="417.096834" transform="rotate(-0 483.331767 417.096834)">RNN Third</text>
    </g>
    <g id="line2d_118">
     <path d="M 449.731767 429.871209 
L 461.731767 429.871209 
L 473.731767 429.871209 
" style="fill: none; stroke-dasharray: 1.5,2.475; stroke-dashoffset: 0; stroke: #bb5566; stroke-width: 1.5"/>
    </g>
    <g id="text_39">
     <text style="font: 12px 'Arial'; text-anchor: start" x="483.331767" y="434.071209" transform="rotate(-0 483.331767 434.071209)">RNN Twice</text>
    </g>
    <g id="line2d_119">
     <path d="M 449.731767 446.845584 
L 461.731767 446.845584 
L 473.731767 446.845584 
" style="fill: none; stroke: #000000; stroke-width: 1.5; stroke-linecap: square"/>
    </g>
    <g id="text_40">
     <text style="font: 12px 'Arial'; text-anchor: start" x="483.331767" y="451.045584" transform="rotate(-0 483.331767 451.045584)">UniTS</text>
    </g>
   </g>
  </g>
 </g>
 <defs>
  <clipPath id="pee5ea03097">
   <rect x="72.8525" y="21.789375" width="461.338583" height="70.462513"/>
  </clipPath>
  <clipPath id="p8a30646643">
   <rect x="72.8525" y="106.34439" width="461.338583" height="70.462513"/>
  </clipPath>
  <clipPath id="pb3bd0800ff">
   <rect x="72.8525" y="190.899406" width="461.338583" height="70.462513"/>
  </clipPath>
  <clipPath id="p7bbbe5ffa8">
   <rect x="72.8525" y="275.454421" width="461.338583" height="70.462513"/>
  </clipPath>
 </defs>
</svg>
