<?xml version="1.0" encoding="utf-8" standalone="no"?>
<!DOCTYPE svg PUBLIC "-//W3C//DTD SVG 1.1//EN"
  "http://www.w3.org/Graphics/SVG/1.1/DTD/svg11.dtd">
<svg xmlns:xlink="http://www.w3.org/1999/xlink" width="538.152031pt" height="418.116299pt" viewBox="0 0 538.152031 418.116299" xmlns="http://www.w3.org/2000/svg" version="1.1">
 <metadata>
  <rdf:RDF xmlns:dc="http://purl.org/dc/elements/1.1/" xmlns:cc="http://creativecommons.org/ns#" xmlns:rdf="http://www.w3.org/1999/02/22-rdf-syntax-ns#">
   <cc:Work>
    <dc:type rdf:resource="http://purl.org/dc/dcmitype/StillImage"/>
    <dc:date>2024-10-09T11:40:41.971008</dc:date>
    <dc:format>image/svg+xml</dc:format>
    <dc:creator>
     <cc:Agent>
      <dc:title>Matplotlib v3.7.0, https://matplotlib.org/</dc:title>
     </cc:Agent>
    </dc:creator>
   </cc:Work>
  </rdf:RDF>
 </metadata>
 <defs>
  <style type="text/css">*{stroke-linejoin: round; stroke-linecap: butt}</style>
 </defs>
 <g id="figure_1">
  <g id="patch_1">
   <path d="M 0 418.116299 
L 538.152031 418.116299 
L 538.152031 0 
L 0 0 
z
" style="fill: #ffffff"/>
  </g>
  <g id="axes_1">
   <g id="patch_2">
    <path d="M 49.833858 166.900709 
L 511.172441 166.900709 
L 511.172441 19.57 
L 49.833858 19.57 
z
" style="fill: #ffffff"/>
   </g>
   <g id="matplotlib.axis_1"/>
   <g id="matplotlib.axis_2">
    <g id="ytick_1">
     <g id="line2d_1">
      <defs>
       <path id="m18252cd8a5" d="M 0 0 
L -3.5 0 
" style="stroke: #000000; stroke-width: 0.8"/>
      </defs>
      <g>
       <use xlink:href="#m18252cd8a5" x="49.833858" y="157.874881" style="stroke: #000000; stroke-width: 0.8"/>
      </g>
     </g>
     <g id="text_1">
      <text style="font: 7px 'Arial'; text-anchor: end" x="42.833858" y="160.380116" transform="rotate(-0 42.833858 160.380116)">−20</text>
     </g>
    </g>
    <g id="ytick_2">
     <g id="line2d_2">
      <g>
       <use xlink:href="#m18252cd8a5" x="49.833858" y="127.865491" style="stroke: #000000; stroke-width: 0.8"/>
      </g>
     </g>
     <g id="text_2">
      <text style="font: 7px 'Arial'; text-anchor: end" x="42.833858" y="130.370725" transform="rotate(-0 42.833858 130.370725)">−15</text>
     </g>
    </g>
    <g id="ytick_3">
     <g id="line2d_3">
      <g>
       <use xlink:href="#m18252cd8a5" x="49.833858" y="97.8561" style="stroke: #000000; stroke-width: 0.8"/>
      </g>
     </g>
     <g id="text_3">
      <text style="font: 7px 'Arial'; text-anchor: end" x="42.833858" y="100.361334" transform="rotate(-0 42.833858 100.361334)">−10</text>
     </g>
    </g>
    <g id="ytick_4">
     <g id="line2d_4">
      <g>
       <use xlink:href="#m18252cd8a5" x="49.833858" y="67.846709" style="stroke: #000000; stroke-width: 0.8"/>
      </g>
     </g>
     <g id="text_4">
      <text style="font: 7px 'Arial'; text-anchor: end" x="42.833858" y="70.351943" transform="rotate(-0 42.833858 70.351943)">−5</text>
     </g>
    </g>
    <g id="ytick_5">
     <g id="line2d_5">
      <g>
       <use xlink:href="#m18252cd8a5" x="49.833858" y="37.837318" style="stroke: #000000; stroke-width: 0.8"/>
      </g>
     </g>
     <g id="text_5">
      <text style="font: 7px 'Arial'; text-anchor: end" x="42.833858" y="40.342552" transform="rotate(-0 42.833858 40.342552)">0</text>
     </g>
    </g>
    <g id="text_6">
     <!-- $x$ and $y$ offset -->
     <g transform="translate(25.490108 114.725354) rotate(-90)">
      <text>
       <tspan style="font: oblique 7px 'DejaVu Sans'" x="0 19.711426" y="-0.90625">xy</tspan>
       <tspan style="font: 7px 'Arial'" x="4.142578 6.087402 9.980469 13.873535 17.766602 23.854004 25.798828 29.691895 31.636719 33.581543 37.081543 40.974609" y="-0.90625"> and  offset</tspan>
      </text>
     </g>
    </g>
   </g>
   <g id="line2d_6">
    <path d="M 49.833858 31.850693 
L 66.310236 31.860199 
L 82.786614 31.872625 
L 99.262992 31.913692 
L 181.644882 34.483535 
L 346.408661 36.822663 
L 511.172441 37.662022 
" clip-path="url(#p22bd1e04cd)" style="fill: none; stroke-dasharray: 5.55,2.4; stroke-dashoffset: 0; stroke: #6699cc; stroke-width: 1.5"/>
   </g>
   <g id="line2d_7">
    <path d="M 49.833858 31.854722 
L 66.310236 31.869842 
L 82.786614 31.883405 
L 99.262992 31.945654 
L 181.644882 32.295808 
L 346.408661 33.845193 
L 511.172441 37.974346 
" clip-path="url(#p22bd1e04cd)" style="fill: none; stroke-dasharray: 1.5,2.475; stroke-dashoffset: 0; stroke: #6699cc; stroke-width: 1.5"/>
   </g>
   <g id="line2d_8">
    <path d="M 49.833858 31.849546 
L 66.310236 31.864221 
L 82.786614 31.882809 
L 99.262992 31.908205 
L 181.644882 32.588421 
L 346.408661 37.04748 
L 511.172441 40.368548 
" clip-path="url(#p22bd1e04cd)" style="fill: none; stroke-dasharray: 9.6,2.4,1.5,2.4; stroke-dashoffset: 0; stroke: #6699cc; stroke-width: 1.5"/>
   </g>
   <g id="line2d_9">
    <path d="M 49.833858 31.847559 
L 66.310236 31.855223 
L 82.786614 31.865819 
L 99.262992 31.888873 
L 181.644882 32.697796 
L 346.408661 36.135806 
L 511.172441 38.417683 
" clip-path="url(#p22bd1e04cd)" style="fill: none; stroke: #6699cc; stroke-width: 1.5; stroke-linecap: square"/>
   </g>
   <g id="line2d_10">
    <path d="M 49.833858 34.583622 
L 66.310236 36.112365 
L 82.786614 35.032804 
L 99.262992 35.963624 
L 181.644882 38.297359 
L 346.408661 39.837933 
L 511.172441 40.076374 
" clip-path="url(#p22bd1e04cd)" style="fill: none; stroke-dasharray: 5.55,2.4; stroke-dashoffset: 0; stroke: #004488; stroke-width: 1.5"/>
   </g>
   <g id="line2d_11">
    <path d="M 49.833858 34.558142 
L 66.310236 36.17836 
L 82.786614 36.228429 
L 99.262992 36.180005 
L 181.644882 37.238245 
L 346.408661 38.790549 
L 511.172441 39.127153 
" clip-path="url(#p22bd1e04cd)" style="fill: none; stroke: #004488; stroke-width: 1.5; stroke-linecap: square"/>
   </g>
   <g id="line2d_12">
    <path d="M 49.833858 35.484046 
L 66.310236 37.344899 
L 82.786614 35.952737 
L 99.262992 37.051327 
L 181.644882 37.054873 
L 346.408661 39.58579 
L 511.172441 39.402337 
" clip-path="url(#p22bd1e04cd)" style="fill: none; stroke-dasharray: 9.6,2.4,1.5,2.4; stroke-dashoffset: 0; stroke: #004488; stroke-width: 1.5"/>
   </g>
   <g id="line2d_13">
    <path d="M 49.833858 34.293877 
L 66.310236 36.496425 
L 82.786614 36.170776 
L 99.262992 37.175913 
L 181.644882 35.719403 
L 346.408661 38.557533 
L 511.172441 39.578477 
" clip-path="url(#p22bd1e04cd)" style="fill: none; stroke-dasharray: 1.5,2.475; stroke-dashoffset: 0; stroke: #004488; stroke-width: 1.5"/>
   </g>
   <g id="line2d_14">
    <path d="M 49.833858 37.600591 
L 66.310236 35.971586 
L 82.786614 35.127722 
L 99.262992 39.015009 
L 181.644882 38.016934 
L 346.408661 36.597757 
L 511.172441 39.632138 
" clip-path="url(#p22bd1e04cd)" style="fill: none; stroke-dasharray: 5.55,2.4; stroke-dashoffset: 0; stroke: #ddaa33; stroke-width: 1.5"/>
   </g>
   <g id="line2d_15">
    <path d="M 49.833858 36.884541 
L 66.310236 37.870312 
L 82.786614 36.69821 
L 99.262992 35.763514 
L 181.644882 37.23455 
L 346.408661 38.086345 
L 511.172441 39.044373 
" clip-path="url(#p22bd1e04cd)" style="fill: none; stroke: #ddaa33; stroke-width: 1.5; stroke-linecap: square"/>
   </g>
   <g id="line2d_16">
    <path d="M 49.833858 36.69259 
L 66.310236 38.4409 
L 82.786614 37.927961 
L 99.262992 38.747133 
L 181.644882 37.633054 
L 346.408661 39.13217 
L 511.172441 39.977529 
" clip-path="url(#p22bd1e04cd)" style="fill: none; stroke-dasharray: 9.6,2.4,1.5,2.4; stroke-dashoffset: 0; stroke: #ddaa33; stroke-width: 1.5"/>
   </g>
   <g id="line2d_17">
    <path d="M 49.833858 40.239404 
L 66.310236 38.568448 
L 82.786614 38.533844 
L 99.262992 44.808406 
L 181.644882 39.457851 
L 346.408661 42.440754 
L 511.172441 41.254078 
" clip-path="url(#p22bd1e04cd)" style="fill: none; stroke-dasharray: 1.5,2.475; stroke-dashoffset: 0; stroke: #ddaa33; stroke-width: 1.5"/>
   </g>
   <g id="line2d_18">
    <path d="M 49.833858 96.300256 
L 66.310236 49.484367 
L 82.786614 59.513939 
L 99.262992 44.227506 
L 181.644882 37.470071 
L 346.408661 37.428999 
L 511.172441 39.264341 
" clip-path="url(#p22bd1e04cd)" style="fill: none; stroke-dasharray: 5.55,2.4; stroke-dashoffset: 0; stroke: #bb5566; stroke-width: 1.5"/>
   </g>
   <g id="line2d_19">
    <path d="M 49.833858 73.090787 
L 66.310236 91.269633 
L 82.786614 40.84504 
L 99.262992 42.04496 
L 181.644882 38.90429 
L 346.408661 37.935634 
L 511.172441 39.782885 
" clip-path="url(#p22bd1e04cd)" style="fill: none; stroke: #bb5566; stroke-width: 1.5; stroke-linecap: square"/>
   </g>
   <g id="line2d_20">
    <path d="M 49.833858 49.337318 
L 66.310236 40.03654 
L 82.786614 39.721632 
L 99.262992 39.329231 
L 181.644882 37.640684 
L 346.408661 41.794878 
L 511.172441 40.865754 
" clip-path="url(#p22bd1e04cd)" style="fill: none; stroke-dasharray: 9.6,2.4,1.5,2.4; stroke-dashoffset: 0; stroke: #bb5566; stroke-width: 1.5"/>
   </g>
   <g id="line2d_21">
    <path d="M 49.833858 154.62315 
L 66.310236 116.009039 
L 82.786614 133.144206 
L 99.262992 92.475204 
L 181.644882 53.184929 
L 346.408661 46.859148 
L 511.172441 42.615689 
" clip-path="url(#p22bd1e04cd)" style="fill: none; stroke-dasharray: 1.5,2.475; stroke-dashoffset: 0; stroke: #bb5566; stroke-width: 1.5"/>
   </g>
   <g id="line2d_22">
    <path d="M 49.833858 31.877223 
L 66.310236 31.872987 
L 82.786614 31.861809 
L 99.262992 31.873836 
L 181.644882 31.933314 
L 346.408661 32.032989 
L 511.172441 32.168454 
" clip-path="url(#p22bd1e04cd)" style="fill: none; stroke: #000000; stroke-width: 1.5; stroke-linecap: square"/>
   </g>
   <g id="patch_3">
    <path d="M 49.833858 166.900709 
L 49.833858 19.57 
" style="fill: none; stroke: #000000; stroke-width: 0.8; stroke-linejoin: miter; stroke-linecap: square"/>
   </g>
   <g id="patch_4">
    <path d="M 511.172441 166.900709 
L 511.172441 19.57 
" style="fill: none; stroke: #000000; stroke-width: 0.8; stroke-linejoin: miter; stroke-linecap: square"/>
   </g>
   <g id="patch_5">
    <path d="M 49.833858 166.900709 
L 511.172441 166.900709 
" style="fill: none; stroke: #000000; stroke-width: 0.8; stroke-linejoin: miter; stroke-linecap: square"/>
   </g>
   <g id="patch_6">
    <path d="M 49.833858 19.57 
L 511.172441 19.57 
" style="fill: none; stroke: #000000; stroke-width: 0.8; stroke-linejoin: miter; stroke-linecap: square"/>
   </g>
   <g id="text_7">
    <!-- $R^{2}$ (%) -->
    <g transform="translate(269.72315 13.57)">
     <text>
      <tspan style="font: oblique 7px 'DejaVu Sans'" x="0" y="-0.6781249999999996">R</tspan>
      <tspan style="font: 4.9px 'DejaVu Sans'" x="5.355775" y="-3.3578124999999996">2</tspan>
      <tspan style="font: 7px 'Arial'" x="8.66471 10.609535 12.940589 19.16471" y="-0.6781249999999996"> (%)</tspan>
     </text>
    </g>
   </g>
  </g>
  <g id="axes_2">
   <g id="patch_7">
    <path d="M 49.833858 343.697559 
L 511.172441 343.697559 
L 511.172441 196.36685 
L 49.833858 196.36685 
z
" style="fill: #ffffff"/>
   </g>
   <g id="matplotlib.axis_3">
    <g id="xtick_1">
     <g id="line2d_23">
      <defs>
       <path id="mf2ae6b646d" d="M 0 0 
L 0 3.5 
" style="stroke: #000000; stroke-width: 0.8"/>
      </defs>
      <g>
       <use xlink:href="#mf2ae6b646d" x="49.833858" y="343.697559" style="stroke: #000000; stroke-width: 0.8"/>
      </g>
     </g>
     <g id="text_8">
      <text style="font: 7px 'Arial'; text-anchor: middle" x="49.833858" y="355.708028" transform="rotate(-0 49.833858 355.708028)">2</text>
     </g>
    </g>
    <g id="xtick_2">
     <g id="line2d_24">
      <g>
       <use xlink:href="#mf2ae6b646d" x="66.310236" y="343.697559" style="stroke: #000000; stroke-width: 0.8"/>
      </g>
     </g>
     <g id="text_9">
      <text style="font: 7px 'Arial'; text-anchor: middle" x="66.310236" y="355.708028" transform="rotate(-0 66.310236 355.708028)">3</text>
     </g>
    </g>
    <g id="xtick_3">
     <g id="line2d_25">
      <g>
       <use xlink:href="#mf2ae6b646d" x="82.786614" y="343.697559" style="stroke: #000000; stroke-width: 0.8"/>
      </g>
     </g>
     <g id="text_10">
      <text style="font: 7px 'Arial'; text-anchor: middle" x="82.786614" y="355.708028" transform="rotate(-0 82.786614 355.708028)">4</text>
     </g>
    </g>
    <g id="xtick_4">
     <g id="line2d_26">
      <g>
       <use xlink:href="#mf2ae6b646d" x="99.262992" y="343.697559" style="stroke: #000000; stroke-width: 0.8"/>
      </g>
     </g>
     <g id="text_11">
      <text style="font: 7px 'Arial'; text-anchor: middle" x="99.262992" y="355.708028" transform="rotate(-0 99.262992 355.708028)">5</text>
     </g>
    </g>
    <g id="xtick_5">
     <g id="line2d_27">
      <g>
       <use xlink:href="#mf2ae6b646d" x="181.644882" y="343.697559" style="stroke: #000000; stroke-width: 0.8"/>
      </g>
     </g>
     <g id="text_12">
      <text style="font: 7px 'Arial'; text-anchor: middle" x="181.644882" y="355.708028" transform="rotate(-0 181.644882 355.708028)">10</text>
     </g>
    </g>
    <g id="xtick_6">
     <g id="line2d_28">
      <g>
       <use xlink:href="#mf2ae6b646d" x="346.408661" y="343.697559" style="stroke: #000000; stroke-width: 0.8"/>
      </g>
     </g>
     <g id="text_13">
      <text style="font: 7px 'Arial'; text-anchor: middle" x="346.408661" y="355.708028" transform="rotate(-0 346.408661 355.708028)">20</text>
     </g>
    </g>
    <g id="xtick_7">
     <g id="line2d_29">
      <g>
       <use xlink:href="#mf2ae6b646d" x="511.172441" y="343.697559" style="stroke: #000000; stroke-width: 0.8"/>
      </g>
     </g>
     <g id="text_14">
      <text style="font: 7px 'Arial'; text-anchor: middle" x="511.172441" y="355.708028" transform="rotate(-0 511.172441 355.708028)">30</text>
     </g>
    </g>
    <g id="text_15">
     <text style="font: 7px 'Arial'; text-anchor: middle" x="280.50315" y="366.109747" transform="rotate(-0 280.50315 366.109747)">Forecasting length</text>
    </g>
   </g>
   <g id="matplotlib.axis_4">
    <g id="ytick_6">
     <g id="line2d_30">
      <g>
       <use xlink:href="#m18252cd8a5" x="49.833858" y="337.900501" style="stroke: #000000; stroke-width: 0.8"/>
      </g>
     </g>
     <g id="text_16">
      <text style="font: 7px 'Arial'; text-anchor: end" x="42.833858" y="340.405735" transform="rotate(-0 42.833858 340.405735)">−17.5</text>
     </g>
    </g>
    <g id="ytick_7">
     <g id="line2d_31">
      <g>
       <use xlink:href="#m18252cd8a5" x="49.833858" y="320.401803" style="stroke: #000000; stroke-width: 0.8"/>
      </g>
     </g>
     <g id="text_17">
      <text style="font: 7px 'Arial'; text-anchor: end" x="42.833858" y="322.907037" transform="rotate(-0 42.833858 322.907037)">−15.0</text>
     </g>
    </g>
    <g id="ytick_8">
     <g id="line2d_32">
      <g>
       <use xlink:href="#m18252cd8a5" x="49.833858" y="302.903104" style="stroke: #000000; stroke-width: 0.8"/>
      </g>
     </g>
     <g id="text_18">
      <text style="font: 7px 'Arial'; text-anchor: end" x="42.833858" y="305.408338" transform="rotate(-0 42.833858 305.408338)">−12.5</text>
     </g>
    </g>
    <g id="ytick_9">
     <g id="line2d_33">
      <g>
       <use xlink:href="#m18252cd8a5" x="49.833858" y="285.404405" style="stroke: #000000; stroke-width: 0.8"/>
      </g>
     </g>
     <g id="text_19">
      <text style="font: 7px 'Arial'; text-anchor: end" x="42.833858" y="287.90964" transform="rotate(-0 42.833858 287.90964)">−10.0</text>
     </g>
    </g>
    <g id="ytick_10">
     <g id="line2d_34">
      <g>
       <use xlink:href="#m18252cd8a5" x="49.833858" y="267.905707" style="stroke: #000000; stroke-width: 0.8"/>
      </g>
     </g>
     <g id="text_20">
      <text style="font: 7px 'Arial'; text-anchor: end" x="42.833858" y="270.410941" transform="rotate(-0 42.833858 270.410941)">−7.5</text>
     </g>
    </g>
    <g id="ytick_11">
     <g id="line2d_35">
      <g>
       <use xlink:href="#m18252cd8a5" x="49.833858" y="250.407008" style="stroke: #000000; stroke-width: 0.8"/>
      </g>
     </g>
     <g id="text_21">
      <text style="font: 7px 'Arial'; text-anchor: end" x="42.833858" y="252.912243" transform="rotate(-0 42.833858 252.912243)">−5.0</text>
     </g>
    </g>
    <g id="ytick_12">
     <g id="line2d_36">
      <g>
       <use xlink:href="#m18252cd8a5" x="49.833858" y="232.90831" style="stroke: #000000; stroke-width: 0.8"/>
      </g>
     </g>
     <g id="text_22">
      <text style="font: 7px 'Arial'; text-anchor: end" x="42.833858" y="235.413544" transform="rotate(-0 42.833858 235.413544)">−2.5</text>
     </g>
    </g>
    <g id="ytick_13">
     <g id="line2d_37">
      <g>
       <use xlink:href="#m18252cd8a5" x="49.833858" y="215.409611" style="stroke: #000000; stroke-width: 0.8"/>
      </g>
     </g>
     <g id="text_23">
      <text style="font: 7px 'Arial'; text-anchor: end" x="42.833858" y="217.914846" transform="rotate(-0 42.833858 217.914846)">0.0</text>
     </g>
    </g>
    <g id="ytick_14">
     <g id="line2d_38">
      <g>
       <use xlink:href="#m18252cd8a5" x="49.833858" y="197.910913" style="stroke: #000000; stroke-width: 0.8"/>
      </g>
     </g>
     <g id="text_24">
      <text style="font: 7px 'Arial'; text-anchor: end" x="42.833858" y="200.416147" transform="rotate(-0 42.833858 200.416147)">2.5</text>
     </g>
    </g>
    <g id="text_25">
     <text style="font: 7px 'Arial'; text-anchor: middle" x="19.649483" y="270.032205" transform="rotate(-90 19.649483 270.032205)">speed, heading, and time</text>
    </g>
   </g>
   <g id="line2d_39">
    <path d="M 49.833858 208.646807 
L 66.310236 208.657453 
L 82.786614 208.682484 
L 99.262992 208.690183 
L 181.644882 208.769686 
L 346.408661 209.418785 
L 511.172441 222.157847 
" clip-path="url(#pf6a298d6b0)" style="fill: none; stroke-dasharray: 5.55,2.4; stroke-dashoffset: 0; stroke: #6699cc; stroke-width: 1.5"/>
   </g>
   <g id="line2d_40">
    <path d="M 49.833858 208.646018 
L 66.310236 208.6644 
L 82.786614 208.684446 
L 99.262992 208.703234 
L 181.644882 208.809914 
L 346.408661 209.479575 
L 511.172441 210.763454 
" clip-path="url(#pf6a298d6b0)" style="fill: none; stroke-dasharray: 1.5,2.475; stroke-dashoffset: 0; stroke: #6699cc; stroke-width: 1.5"/>
   </g>
   <g id="line2d_41">
    <path d="M 49.833858 208.649347 
L 66.310236 208.664787 
L 82.786614 208.693265 
L 99.262992 208.709831 
L 181.644882 208.834311 
L 346.408661 209.537035 
L 511.172441 210.911208 
" clip-path="url(#pf6a298d6b0)" style="fill: none; stroke-dasharray: 9.6,2.4,1.5,2.4; stroke-dashoffset: 0; stroke: #6699cc; stroke-width: 1.5"/>
   </g>
   <g id="line2d_42">
    <path d="M 49.833858 208.644409 
L 66.310236 208.654856 
L 82.786614 208.681755 
L 99.262992 208.705747 
L 181.644882 208.832395 
L 346.408661 209.495788 
L 511.172441 215.654548 
" clip-path="url(#pf6a298d6b0)" style="fill: none; stroke: #6699cc; stroke-width: 1.5; stroke-linecap: square"/>
   </g>
   <g id="line2d_43">
    <path d="M 49.833858 212.686935 
L 66.310236 215.608275 
L 82.786614 217.755761 
L 99.262992 221.014751 
L 181.644882 250.027952 
L 346.408661 299.774817 
L 511.172441 327.49622 
" clip-path="url(#pf6a298d6b0)" style="fill: none; stroke-dasharray: 5.55,2.4; stroke-dashoffset: 0; stroke: #004488; stroke-width: 1.5"/>
   </g>
   <g id="line2d_44">
    <path d="M 49.833858 216.1985 
L 66.310236 216.198503 
L 82.786614 216.199074 
L 99.262992 216.198023 
L 181.644882 216.199051 
L 346.408661 216.193085 
L 511.172441 216.177047 
" clip-path="url(#pf6a298d6b0)" style="fill: none; stroke: #004488; stroke-width: 1.5; stroke-linecap: square"/>
   </g>
   <g id="line2d_45">
    <path d="M 49.833858 216.198502 
L 66.310236 216.198511 
L 82.786614 216.199075 
L 99.262992 216.198024 
L 181.644882 216.199051 
L 346.408661 216.193085 
L 511.172441 216.177047 
" clip-path="url(#pf6a298d6b0)" style="fill: none; stroke-dasharray: 9.6,2.4,1.5,2.4; stroke-dashoffset: 0; stroke: #004488; stroke-width: 1.5"/>
   </g>
   <g id="line2d_46">
    <path d="M 49.833858 216.198507 
L 66.310236 216.198499 
L 82.786614 216.199075 
L 99.262992 216.198023 
L 181.644882 216.199051 
L 346.408661 216.193085 
L 511.172441 216.177047 
" clip-path="url(#pf6a298d6b0)" style="fill: none; stroke-dasharray: 1.5,2.475; stroke-dashoffset: 0; stroke: #004488; stroke-width: 1.5"/>
   </g>
   <g id="line2d_47">
    <path d="M 49.833858 212.009991 
L 66.310236 214.522688 
L 82.786614 227.675502 
L 99.262992 221.709431 
L 181.644882 242.693033 
L 346.408661 284.345097 
L 511.172441 319.828044 
" clip-path="url(#pf6a298d6b0)" style="fill: none; stroke-dasharray: 5.55,2.4; stroke-dashoffset: 0; stroke: #ddaa33; stroke-width: 1.5"/>
   </g>
   <g id="line2d_48">
    <path d="M 49.833858 215.942101 
L 66.310236 216.198361 
L 82.786614 216.199073 
L 99.262992 216.198024 
L 181.644882 216.199051 
L 346.408661 216.193085 
L 511.172441 216.177047 
" clip-path="url(#pf6a298d6b0)" style="fill: none; stroke: #ddaa33; stroke-width: 1.5; stroke-linecap: square"/>
   </g>
   <g id="line2d_49">
    <path d="M 49.833858 216.198507 
L 66.310236 216.198509 
L 82.786614 216.199073 
L 99.262992 216.198024 
L 181.644882 216.199051 
L 346.408661 216.193085 
L 511.172441 216.177047 
" clip-path="url(#pf6a298d6b0)" style="fill: none; stroke-dasharray: 9.6,2.4,1.5,2.4; stroke-dashoffset: 0; stroke: #ddaa33; stroke-width: 1.5"/>
   </g>
   <g id="line2d_50">
    <path d="M 49.833858 216.201117 
L 66.310236 216.198513 
L 82.786614 216.199075 
L 99.262992 216.198024 
L 181.644882 216.199051 
L 346.408661 216.193085 
L 511.172441 216.177047 
" clip-path="url(#pf6a298d6b0)" style="fill: none; stroke-dasharray: 1.5,2.475; stroke-dashoffset: 0; stroke: #ddaa33; stroke-width: 1.5"/>
   </g>
   <g id="line2d_51">
    <path d="M 49.833858 212.533591 
L 66.310236 215.482761 
L 82.786614 218.733732 
L 99.262992 222.236153 
L 181.644882 245.439309 
L 346.408661 294.139616 
L 511.172441 331.42 
" clip-path="url(#pf6a298d6b0)" style="fill: none; stroke-dasharray: 5.55,2.4; stroke-dashoffset: 0; stroke: #bb5566; stroke-width: 1.5"/>
   </g>
   <g id="line2d_52">
    <path d="M 49.833858 216.198338 
L 66.310236 216.1985 
L 82.786614 216.199074 
L 99.262992 216.198024 
L 181.644882 216.199051 
L 346.408661 216.193085 
L 511.172441 216.177047 
" clip-path="url(#pf6a298d6b0)" style="fill: none; stroke: #bb5566; stroke-width: 1.5; stroke-linecap: square"/>
   </g>
   <g id="line2d_53">
    <path d="M 49.833858 216.198507 
L 66.310236 216.198513 
L 82.786614 216.199075 
L 99.262992 216.198024 
L 181.644882 216.199051 
L 346.408661 216.193085 
L 511.172441 216.177047 
" clip-path="url(#pf6a298d6b0)" style="fill: none; stroke-dasharray: 9.6,2.4,1.5,2.4; stroke-dashoffset: 0; stroke: #bb5566; stroke-width: 1.5"/>
   </g>
   <g id="line2d_54">
    <path d="M 49.833858 216.198497 
L 66.310236 216.198474 
L 82.786614 216.199075 
L 99.262992 216.198024 
L 181.644882 216.199051 
L 346.408661 216.193085 
L 511.172441 216.177047 
" clip-path="url(#pf6a298d6b0)" style="fill: none; stroke-dasharray: 1.5,2.475; stroke-dashoffset: 0; stroke: #bb5566; stroke-width: 1.5"/>
   </g>
   <g id="line2d_55">
    <path d="M 49.833858 209.098553 
L 66.310236 209.577978 
L 82.786614 210.188573 
L 99.262992 210.987004 
L 181.644882 216.050223 
L 346.408661 229.917525 
L 511.172441 246.739684 
" clip-path="url(#pf6a298d6b0)" style="fill: none; stroke: #000000; stroke-width: 1.5; stroke-linecap: square"/>
   </g>
   <g id="line2d_56">
    <path d="M 16.881102 355.975118 
" clip-path="url(#pf6a298d6b0)" style="fill: none; stroke-dasharray: 5.55,2.4; stroke-dashoffset: 0; stroke: #6699cc; stroke-width: 1.5"/>
   </g>
   <g id="line2d_57">
    <path d="M 16.881102 355.975118 
" clip-path="url(#pf6a298d6b0)" style="fill: none; stroke-dasharray: 1.5,2.475; stroke-dashoffset: 0; stroke: #6699cc; stroke-width: 1.5"/>
   </g>
   <g id="line2d_58">
    <path d="M 16.881102 355.975118 
" clip-path="url(#pf6a298d6b0)" style="fill: none; stroke-dasharray: 9.6,2.4,1.5,2.4; stroke-dashoffset: 0; stroke: #6699cc; stroke-width: 1.5"/>
   </g>
   <g id="line2d_59">
    <path d="M 16.881102 355.975118 
" clip-path="url(#pf6a298d6b0)" style="fill: none; stroke: #6699cc; stroke-width: 1.5; stroke-linecap: square"/>
   </g>
   <g id="line2d_60">
    <path d="M 16.881102 355.975118 
" clip-path="url(#pf6a298d6b0)" style="fill: none; stroke-dasharray: 5.55,2.4; stroke-dashoffset: 0; stroke: #004488; stroke-width: 1.5"/>
   </g>
   <g id="line2d_61">
    <path d="M 16.881102 355.975118 
" clip-path="url(#pf6a298d6b0)" style="fill: none; stroke: #004488; stroke-width: 1.5; stroke-linecap: square"/>
   </g>
   <g id="line2d_62">
    <path d="M 16.881102 355.975118 
" clip-path="url(#pf6a298d6b0)" style="fill: none; stroke-dasharray: 9.6,2.4,1.5,2.4; stroke-dashoffset: 0; stroke: #004488; stroke-width: 1.5"/>
   </g>
   <g id="line2d_63">
    <path d="M 16.881102 355.975118 
" clip-path="url(#pf6a298d6b0)" style="fill: none; stroke-dasharray: 1.5,2.475; stroke-dashoffset: 0; stroke: #004488; stroke-width: 1.5"/>
   </g>
   <g id="line2d_64">
    <path d="M 16.881102 355.975118 
" clip-path="url(#pf6a298d6b0)" style="fill: none; stroke-dasharray: 5.55,2.4; stroke-dashoffset: 0; stroke: #ddaa33; stroke-width: 1.5"/>
   </g>
   <g id="line2d_65">
    <path d="M 16.881102 355.975118 
" clip-path="url(#pf6a298d6b0)" style="fill: none; stroke: #ddaa33; stroke-width: 1.5; stroke-linecap: square"/>
   </g>
   <g id="line2d_66">
    <path d="M 16.881102 355.975118 
" clip-path="url(#pf6a298d6b0)" style="fill: none; stroke-dasharray: 9.6,2.4,1.5,2.4; stroke-dashoffset: 0; stroke: #ddaa33; stroke-width: 1.5"/>
   </g>
   <g id="line2d_67">
    <path d="M 16.881102 355.975118 
" clip-path="url(#pf6a298d6b0)" style="fill: none; stroke-dasharray: 1.5,2.475; stroke-dashoffset: 0; stroke: #ddaa33; stroke-width: 1.5"/>
   </g>
   <g id="line2d_68">
    <path d="M 16.881102 355.975118 
" clip-path="url(#pf6a298d6b0)" style="fill: none; stroke-dasharray: 5.55,2.4; stroke-dashoffset: 0; stroke: #bb5566; stroke-width: 1.5"/>
   </g>
   <g id="line2d_69">
    <path d="M 16.881102 355.975118 
" clip-path="url(#pf6a298d6b0)" style="fill: none; stroke: #bb5566; stroke-width: 1.5; stroke-linecap: square"/>
   </g>
   <g id="line2d_70">
    <path d="M 16.881102 355.975118 
" clip-path="url(#pf6a298d6b0)" style="fill: none; stroke-dasharray: 9.6,2.4,1.5,2.4; stroke-dashoffset: 0; stroke: #bb5566; stroke-width: 1.5"/>
   </g>
   <g id="line2d_71">
    <path d="M 16.881102 355.975118 
" clip-path="url(#pf6a298d6b0)" style="fill: none; stroke-dasharray: 1.5,2.475; stroke-dashoffset: 0; stroke: #bb5566; stroke-width: 1.5"/>
   </g>
   <g id="line2d_72">
    <path d="M 16.881102 355.975118 
" clip-path="url(#pf6a298d6b0)" style="fill: none; stroke: #000000; stroke-width: 1.5; stroke-linecap: square"/>
   </g>
   <g id="patch_8">
    <path d="M 49.833858 343.697559 
L 49.833858 196.36685 
" style="fill: none; stroke: #000000; stroke-width: 0.8; stroke-linejoin: miter; stroke-linecap: square"/>
   </g>
   <g id="patch_9">
    <path d="M 511.172441 343.697559 
L 511.172441 196.36685 
" style="fill: none; stroke: #000000; stroke-width: 0.8; stroke-linejoin: miter; stroke-linecap: square"/>
   </g>
   <g id="patch_10">
    <path d="M 49.833858 343.697559 
L 511.172441 343.697559 
" style="fill: none; stroke: #000000; stroke-width: 0.8; stroke-linejoin: miter; stroke-linecap: square"/>
   </g>
   <g id="patch_11">
    <path d="M 49.833858 196.36685 
L 511.172441 196.36685 
" style="fill: none; stroke: #000000; stroke-width: 0.8; stroke-linejoin: miter; stroke-linecap: square"/>
   </g>
   <g id="legend_1">
    <g id="patch_12">
     <path d="M 8.6 410.916299 
L 529.552031 410.916299 
Q 530.952031 410.916299 530.952031 409.516299 
L 530.952031 380.511143 
Q 530.952031 379.111143 529.552031 379.111143 
L 8.6 379.111143 
Q 7.2 379.111143 7.2 380.511143 
L 7.2 409.516299 
Q 7.2 410.916299 8.6 410.916299 
z
" style="fill: #ffffff; opacity: 0.8; stroke: #cccccc; stroke-linejoin: miter"/>
    </g>
    <g id="line2d_73">
     <path d="M 10 384.471612 
L 17 384.471612 
L 24 384.471612 
" style="fill: none; stroke-dasharray: 5.55,2.4; stroke-dashoffset: 0; stroke: #6699cc; stroke-width: 1.5"/>
    </g>
    <g id="text_26">
     <text style="font: 7px 'Arial'; text-anchor: start" x="29.6" y="386.921612" transform="rotate(-0 29.6 386.921612)">GRU Att 1</text>
    </g>
    <g id="line2d_74">
     <path d="M 10 394.37333 
L 17 394.37333 
L 24 394.37333 
" style="fill: none; stroke-dasharray: 1.5,2.475; stroke-dashoffset: 0; stroke: #6699cc; stroke-width: 1.5"/>
    </g>
    <g id="text_27">
     <text style="font: 7px 'Arial'; text-anchor: start" x="29.6" y="396.82333" transform="rotate(-0 29.6 396.82333)">GRU Att 2</text>
    </g>
    <g id="line2d_75">
     <path d="M 10 404.275049 
L 17 404.275049 
L 24 404.275049 
" style="fill: none; stroke-dasharray: 9.6,2.4,1.5,2.4; stroke-dashoffset: 0; stroke: #6699cc; stroke-width: 1.5"/>
    </g>
    <g id="text_28">
     <text style="font: 7px 'Arial'; text-anchor: start" x="29.6" y="406.725049" transform="rotate(-0 29.6 406.725049)">GRU Att 3</text>
    </g>
    <g id="line2d_76">
     <path d="M 75.110938 384.471612 
L 82.110938 384.471612 
L 89.110938 384.471612 
" style="fill: none; stroke: #6699cc; stroke-width: 1.5; stroke-linecap: square"/>
    </g>
    <g id="text_29">
     <text style="font: 7px 'Arial'; text-anchor: start" x="94.710938" y="386.921612" transform="rotate(-0 94.710938 386.921612)">GRU Att 4</text>
    </g>
    <g id="line2d_77">
     <path d="M 75.110938 394.37333 
L 82.110938 394.37333 
L 89.110938 394.37333 
" style="fill: none; stroke-dasharray: 5.55,2.4; stroke-dashoffset: 0; stroke: #004488; stroke-width: 1.5"/>
    </g>
    <g id="text_30">
     <text style="font: 7px 'Arial'; text-anchor: start" x="94.710938" y="396.82333" transform="rotate(-0 94.710938 396.82333)">GRU Linear</text>
    </g>
    <g id="line2d_78">
     <path d="M 75.110938 404.275049 
L 82.110938 404.275049 
L 89.110938 404.275049 
" style="fill: none; stroke: #004488; stroke-width: 1.5; stroke-linecap: square"/>
    </g>
    <g id="text_31">
     <text style="font: 7px 'Arial'; text-anchor: start" x="94.710938" y="406.725049" transform="rotate(-0 94.710938 406.725049)">GRU Reference</text>
    </g>
    <g id="line2d_79">
     <path d="M 158.505 384.471612 
L 165.505 384.471612 
L 172.505 384.471612 
" style="fill: none; stroke-dasharray: 9.6,2.4,1.5,2.4; stroke-dashoffset: 0; stroke: #004488; stroke-width: 1.5"/>
    </g>
    <g id="text_32">
     <text style="font: 7px 'Arial'; text-anchor: start" x="178.105" y="386.921612" transform="rotate(-0 178.105 386.921612)">GRU Third</text>
    </g>
    <g id="line2d_80">
     <path d="M 158.505 394.37333 
L 165.505 394.37333 
L 172.505 394.37333 
" style="fill: none; stroke-dasharray: 1.5,2.475; stroke-dashoffset: 0; stroke: #004488; stroke-width: 1.5"/>
    </g>
    <g id="text_33">
     <text style="font: 7px 'Arial'; text-anchor: start" x="178.105" y="396.82333" transform="rotate(-0 178.105 396.82333)">GRU Twice</text>
    </g>
    <g id="line2d_81">
     <path d="M 158.505 404.275049 
L 165.505 404.275049 
L 172.505 404.275049 
" style="fill: none; stroke-dasharray: 5.55,2.4; stroke-dashoffset: 0; stroke: #ddaa33; stroke-width: 1.5"/>
    </g>
    <g id="text_34">
     <text style="font: 7px 'Arial'; text-anchor: start" x="178.105" y="406.725049" transform="rotate(-0 178.105 406.725049)">LSTM Linear</text>
    </g>
    <g id="line2d_82">
     <path d="M 232.174531 384.471612 
L 239.174531 384.471612 
L 246.174531 384.471612 
" style="fill: none; stroke: #ddaa33; stroke-width: 1.5; stroke-linecap: square"/>
    </g>
    <g id="text_35">
     <text style="font: 7px 'Arial'; text-anchor: start" x="251.774531" y="386.921612" transform="rotate(-0 251.774531 386.921612)">LSTM Reference</text>
    </g>
    <g id="line2d_83">
     <path d="M 232.174531 394.37333 
L 239.174531 394.37333 
L 246.174531 394.37333 
" style="fill: none; stroke-dasharray: 9.6,2.4,1.5,2.4; stroke-dashoffset: 0; stroke: #ddaa33; stroke-width: 1.5"/>
    </g>
    <g id="text_36">
     <text style="font: 7px 'Arial'; text-anchor: start" x="251.774531" y="396.82333" transform="rotate(-0 251.774531 396.82333)">LSTM Third</text>
    </g>
    <g id="line2d_84">
     <path d="M 318.681406 384.471612 
L 325.681406 384.471612 
L 332.681406 384.471612 
" style="fill: none; stroke-dasharray: 1.5,2.475; stroke-dashoffset: 0; stroke: #ddaa33; stroke-width: 1.5"/>
    </g>
    <g id="text_37">
     <text style="font: 7px 'Arial'; text-anchor: start" x="338.281406" y="386.921612" transform="rotate(-0 338.281406 386.921612)">LSTM Twice</text>
    </g>
    <g id="line2d_85">
     <path d="M 318.681406 394.37333 
L 325.681406 394.37333 
L 332.681406 394.37333 
" style="fill: none; stroke-dasharray: 5.55,2.4; stroke-dashoffset: 0; stroke: #bb5566; stroke-width: 1.5"/>
    </g>
    <g id="text_38">
     <text style="font: 7px 'Arial'; text-anchor: start" x="338.281406" y="396.82333" transform="rotate(-0 338.281406 396.82333)">RNN Linear</text>
    </g>
    <g id="line2d_86">
     <path d="M 390.665469 384.471612 
L 397.665469 384.471612 
L 404.665469 384.471612 
" style="fill: none; stroke: #bb5566; stroke-width: 1.5; stroke-linecap: square"/>
    </g>
    <g id="text_39">
     <text style="font: 7px 'Arial'; text-anchor: start" x="410.265469" y="386.921612" transform="rotate(-0 410.265469 386.921612)">RNN Reference</text>
    </g>
    <g id="line2d_87">
     <path d="M 390.665469 394.37333 
L 397.665469 394.37333 
L 404.665469 394.37333 
" style="fill: none; stroke-dasharray: 9.6,2.4,1.5,2.4; stroke-dashoffset: 0; stroke: #bb5566; stroke-width: 1.5"/>
    </g>
    <g id="text_40">
     <text style="font: 7px 'Arial'; text-anchor: start" x="410.265469" y="396.82333" transform="rotate(-0 410.265469 396.82333)">RNN Third</text>
    </g>
    <g id="line2d_88">
     <path d="M 473.670156 384.471612 
L 480.670156 384.471612 
L 487.670156 384.471612 
" style="fill: none; stroke-dasharray: 1.5,2.475; stroke-dashoffset: 0; stroke: #bb5566; stroke-width: 1.5"/>
    </g>
    <g id="text_41">
     <text style="font: 7px 'Arial'; text-anchor: start" x="493.270156" y="386.921612" transform="rotate(-0 493.270156 386.921612)">RNN Twice</text>
    </g>
    <g id="line2d_89">
     <path d="M 473.670156 394.37333 
L 480.670156 394.37333 
L 487.670156 394.37333 
" style="fill: none; stroke: #000000; stroke-width: 1.5; stroke-linecap: square"/>
    </g>
    <g id="text_42">
     <text style="font: 7px 'Arial'; text-anchor: start" x="493.270156" y="396.82333" transform="rotate(-0 493.270156 396.82333)">UniTS</text>
    </g>
   </g>
  </g>
 </g>
 <defs>
  <clipPath id="p22bd1e04cd">
   <rect x="49.833858" y="19.57" width="461.338583" height="147.330709"/>
  </clipPath>
  <clipPath id="pf6a298d6b0">
   <rect x="49.833858" y="196.36685" width="461.338583" height="147.330709"/>
  </clipPath>
 </defs>
</svg>
