<?xml version="1.0" encoding="utf-8" standalone="no"?>
<!DOCTYPE svg PUBLIC "-//W3C//DTD SVG 1.1//EN"
  "http://www.w3.org/Graphics/SVG/1.1/DTD/svg11.dtd">
<svg xmlns:xlink="http://www.w3.org/1999/xlink" width="557.008017pt" height="490.885039pt" viewBox="0 0 557.008017 490.885039" xmlns="http://www.w3.org/2000/svg" version="1.1">
 <metadata>
  <rdf:RDF xmlns:dc="http://purl.org/dc/elements/1.1/" xmlns:cc="http://creativecommons.org/ns#" xmlns:rdf="http://www.w3.org/1999/02/22-rdf-syntax-ns#">
   <cc:Work>
    <dc:type rdf:resource="http://purl.org/dc/dcmitype/StillImage"/>
    <dc:date>2024-10-16T10:12:51.315021</dc:date>
    <dc:format>image/svg+xml</dc:format>
    <dc:creator>
     <cc:Agent>
      <dc:title>Matplotlib v3.7.0, https://matplotlib.org/</dc:title>
     </cc:Agent>
    </dc:creator>
   </cc:Work>
  </rdf:RDF>
 </metadata>
 <defs>
  <style type="text/css">*{stroke-linejoin: round; stroke-linecap: butt}</style>
 </defs>
 <g id="figure_1">
  <g id="patch_1">
   <path d="M 0 490.885039 
L 557.008017 490.885039 
L 557.008017 0 
L 0 0 
z
" style="fill: #ffffff"/>
  </g>
  <g id="axes_1">
   <g id="patch_2">
    <path d="M 49.835 171.450709 
L 511.173583 171.450709 
L 511.173583 24.12 
L 49.835 24.12 
z
" style="fill: #ffffff"/>
   </g>
   <g id="matplotlib.axis_1"/>
   <g id="matplotlib.axis_2">
    <g id="ytick_1">
     <g id="line2d_1">
      <defs>
       <path id="md7cc33090b" d="M 0 0 
L -3.5 0 
" style="stroke: #000000; stroke-width: 0.8"/>
      </defs>
      <g>
       <use xlink:href="#md7cc33090b" x="49.835" y="162.424881" style="stroke: #000000; stroke-width: 0.8"/>
      </g>
     </g>
     <g id="text_1">
      <text style="font: 12px 'Arial'; text-anchor: end" x="42.835" y="166.719569" transform="rotate(-0 42.835 166.719569)">−20</text>
     </g>
    </g>
    <g id="ytick_2">
     <g id="line2d_2">
      <g>
       <use xlink:href="#md7cc33090b" x="49.835" y="132.415491" style="stroke: #000000; stroke-width: 0.8"/>
      </g>
     </g>
     <g id="text_2">
      <text style="font: 12px 'Arial'; text-anchor: end" x="42.835" y="136.710178" transform="rotate(-0 42.835 136.710178)">−15</text>
     </g>
    </g>
    <g id="ytick_3">
     <g id="line2d_3">
      <g>
       <use xlink:href="#md7cc33090b" x="49.835" y="102.4061" style="stroke: #000000; stroke-width: 0.8"/>
      </g>
     </g>
     <g id="text_3">
      <text style="font: 12px 'Arial'; text-anchor: end" x="42.835" y="106.700787" transform="rotate(-0 42.835 106.700787)">−10</text>
     </g>
    </g>
    <g id="ytick_4">
     <g id="line2d_4">
      <g>
       <use xlink:href="#md7cc33090b" x="49.835" y="72.396709" style="stroke: #000000; stroke-width: 0.8"/>
      </g>
     </g>
     <g id="text_4">
      <text style="font: 12px 'Arial'; text-anchor: end" x="42.835" y="76.691396" transform="rotate(-0 42.835 76.691396)">−5</text>
     </g>
    </g>
    <g id="ytick_5">
     <g id="line2d_5">
      <g>
       <use xlink:href="#md7cc33090b" x="49.835" y="42.387318" style="stroke: #000000; stroke-width: 0.8"/>
      </g>
     </g>
     <g id="text_5">
      <text style="font: 12px 'Arial'; text-anchor: end" x="42.835" y="46.682006" transform="rotate(-0 42.835 46.682006)">0</text>
     </g>
    </g>
    <g id="text_6">
     <!-- $x$ and $y$ offset -->
     <g transform="translate(15.96 134.625354) rotate(-90)">
      <text>
       <tspan style="font: oblique 12px 'DejaVu Sans'" x="0 33.791016" y="-0.265625">xy</tspan>
       <tspan style="font: 12px 'Arial'" x="7.101562 10.435547 17.109375 23.783203 30.457031 40.892578 44.226562 50.900391 54.234375 57.568359 63.568359 70.242188" y="-0.265625"> and  offset</tspan>
      </text>
     </g>
    </g>
   </g>
   <g id="line2d_6">
    <path d="M 49.835 36.400693 
L 66.311378 36.410199 
L 82.787756 36.422625 
L 99.264134 36.463692 
L 181.646024 39.033535 
L 346.409803 41.372663 
L 511.173583 42.212022 
" clip-path="url(#pe892d3cb71)" style="fill: none; stroke-dasharray: 5.55,2.4; stroke-dashoffset: 0; stroke: #6699cc; stroke-width: 1.5"/>
   </g>
   <g id="line2d_7">
    <path d="M 49.835 36.404722 
L 66.311378 36.419842 
L 82.787756 36.433405 
L 99.264134 36.495654 
L 181.646024 36.845808 
L 346.409803 38.395193 
L 511.173583 42.524346 
" clip-path="url(#pe892d3cb71)" style="fill: none; stroke-dasharray: 1.5,2.475; stroke-dashoffset: 0; stroke: #6699cc; stroke-width: 1.5"/>
   </g>
   <g id="line2d_8">
    <path d="M 49.835 36.399546 
L 66.311378 36.414221 
L 82.787756 36.432809 
L 99.264134 36.458205 
L 181.646024 37.138421 
L 346.409803 41.59748 
L 511.173583 44.918548 
" clip-path="url(#pe892d3cb71)" style="fill: none; stroke-dasharray: 9.6,2.4,1.5,2.4; stroke-dashoffset: 0; stroke: #6699cc; stroke-width: 1.5"/>
   </g>
   <g id="line2d_9">
    <path d="M 49.835 36.397559 
L 66.311378 36.405223 
L 82.787756 36.415819 
L 99.264134 36.438873 
L 181.646024 37.247796 
L 346.409803 40.685806 
L 511.173583 42.967683 
" clip-path="url(#pe892d3cb71)" style="fill: none; stroke: #6699cc; stroke-width: 1.5; stroke-linecap: square"/>
   </g>
   <g id="line2d_10">
    <path d="M 49.835 39.133622 
L 66.311378 40.662365 
L 82.787756 39.582804 
L 99.264134 40.513624 
L 181.646024 42.847359 
L 346.409803 44.387933 
L 511.173583 44.626374 
" clip-path="url(#pe892d3cb71)" style="fill: none; stroke-dasharray: 5.55,2.4; stroke-dashoffset: 0; stroke: #004488; stroke-width: 1.5"/>
   </g>
   <g id="line2d_11">
    <path d="M 49.835 39.108142 
L 66.311378 40.72836 
L 82.787756 40.778429 
L 99.264134 40.730005 
L 181.646024 41.788245 
L 346.409803 43.340549 
L 511.173583 43.677153 
" clip-path="url(#pe892d3cb71)" style="fill: none; stroke: #004488; stroke-width: 1.5; stroke-linecap: square"/>
   </g>
   <g id="line2d_12">
    <path d="M 49.835 40.034046 
L 66.311378 41.894899 
L 82.787756 40.502737 
L 99.264134 41.601327 
L 181.646024 41.604873 
L 346.409803 44.13579 
L 511.173583 43.952337 
" clip-path="url(#pe892d3cb71)" style="fill: none; stroke-dasharray: 9.6,2.4,1.5,2.4; stroke-dashoffset: 0; stroke: #004488; stroke-width: 1.5"/>
   </g>
   <g id="line2d_13">
    <path d="M 49.835 38.843877 
L 66.311378 41.046425 
L 82.787756 40.720776 
L 99.264134 41.725913 
L 181.646024 40.269403 
L 346.409803 43.107533 
L 511.173583 44.128477 
" clip-path="url(#pe892d3cb71)" style="fill: none; stroke-dasharray: 1.5,2.475; stroke-dashoffset: 0; stroke: #004488; stroke-width: 1.5"/>
   </g>
   <g id="line2d_14">
    <path d="M 49.835 42.150591 
L 66.311378 40.521586 
L 82.787756 39.677722 
L 99.264134 43.565009 
L 181.646024 42.566934 
L 346.409803 41.147757 
L 511.173583 44.182138 
" clip-path="url(#pe892d3cb71)" style="fill: none; stroke-dasharray: 5.55,2.4; stroke-dashoffset: 0; stroke: #ddaa33; stroke-width: 1.5"/>
   </g>
   <g id="line2d_15">
    <path d="M 49.835 41.434541 
L 66.311378 42.420312 
L 82.787756 41.24821 
L 99.264134 40.313514 
L 181.646024 41.78455 
L 346.409803 42.636345 
L 511.173583 43.594373 
" clip-path="url(#pe892d3cb71)" style="fill: none; stroke: #ddaa33; stroke-width: 1.5; stroke-linecap: square"/>
   </g>
   <g id="line2d_16">
    <path d="M 49.835 41.24259 
L 66.311378 42.9909 
L 82.787756 42.477961 
L 99.264134 43.297133 
L 181.646024 42.183054 
L 346.409803 43.68217 
L 511.173583 44.527529 
" clip-path="url(#pe892d3cb71)" style="fill: none; stroke-dasharray: 9.6,2.4,1.5,2.4; stroke-dashoffset: 0; stroke: #ddaa33; stroke-width: 1.5"/>
   </g>
   <g id="line2d_17">
    <path d="M 49.835 44.789404 
L 66.311378 43.118448 
L 82.787756 43.083844 
L 99.264134 49.358406 
L 181.646024 44.007851 
L 346.409803 46.990754 
L 511.173583 45.804078 
" clip-path="url(#pe892d3cb71)" style="fill: none; stroke-dasharray: 1.5,2.475; stroke-dashoffset: 0; stroke: #ddaa33; stroke-width: 1.5"/>
   </g>
   <g id="line2d_18">
    <path d="M 49.835 100.850256 
L 66.311378 54.034367 
L 82.787756 64.063939 
L 99.264134 48.777506 
L 181.646024 42.020071 
L 346.409803 41.978999 
L 511.173583 43.814341 
" clip-path="url(#pe892d3cb71)" style="fill: none; stroke-dasharray: 5.55,2.4; stroke-dashoffset: 0; stroke: #bb5566; stroke-width: 1.5"/>
   </g>
   <g id="line2d_19">
    <path d="M 49.835 77.640787 
L 66.311378 95.819633 
L 82.787756 45.39504 
L 99.264134 46.59496 
L 181.646024 43.45429 
L 346.409803 42.485634 
L 511.173583 44.332885 
" clip-path="url(#pe892d3cb71)" style="fill: none; stroke: #bb5566; stroke-width: 1.5; stroke-linecap: square"/>
   </g>
   <g id="line2d_20">
    <path d="M 49.835 53.887318 
L 66.311378 44.58654 
L 82.787756 44.271632 
L 99.264134 43.879231 
L 181.646024 42.190684 
L 346.409803 46.344878 
L 511.173583 45.415754 
" clip-path="url(#pe892d3cb71)" style="fill: none; stroke-dasharray: 9.6,2.4,1.5,2.4; stroke-dashoffset: 0; stroke: #bb5566; stroke-width: 1.5"/>
   </g>
   <g id="line2d_21">
    <path d="M 49.835 159.17315 
L 66.311378 120.559039 
L 82.787756 137.694206 
L 99.264134 97.025204 
L 181.646024 57.734929 
L 346.409803 51.409148 
L 511.173583 47.165689 
" clip-path="url(#pe892d3cb71)" style="fill: none; stroke-dasharray: 1.5,2.475; stroke-dashoffset: 0; stroke: #bb5566; stroke-width: 1.5"/>
   </g>
   <g id="line2d_22">
    <path d="M 49.835 36.427223 
L 66.311378 36.422987 
L 82.787756 36.411809 
L 99.264134 36.423836 
L 181.646024 36.483314 
L 346.409803 36.582989 
L 511.173583 36.718454 
" clip-path="url(#pe892d3cb71)" style="fill: none; stroke: #000000; stroke-width: 1.5; stroke-linecap: square"/>
   </g>
   <g id="patch_3">
    <path d="M 49.835 171.450709 
L 49.835 24.12 
" style="fill: none; stroke: #000000; stroke-width: 0.8; stroke-linejoin: miter; stroke-linecap: square"/>
   </g>
   <g id="patch_4">
    <path d="M 511.173583 171.450709 
L 511.173583 24.12 
" style="fill: none; stroke: #000000; stroke-width: 0.8; stroke-linejoin: miter; stroke-linecap: square"/>
   </g>
   <g id="patch_5">
    <path d="M 49.835 171.450709 
L 511.173583 171.450709 
" style="fill: none; stroke: #000000; stroke-width: 0.8; stroke-linejoin: miter; stroke-linecap: square"/>
   </g>
   <g id="patch_6">
    <path d="M 49.835 24.12 
L 511.173583 24.12 
" style="fill: none; stroke: #000000; stroke-width: 0.8; stroke-linejoin: miter; stroke-linecap: square"/>
   </g>
   <g id="text_7">
    <!-- $R^{2}$ (%) -->
    <g transform="translate(262.024291 18.12)">
     <text>
      <tspan style="font: oblique 12px 'DejaVu Sans'" x="0" y="-0.171875">R</tspan>
      <tspan style="font: 8.4px 'DejaVu Sans'" x="9.180078" y="-4.765625">2</tspan>
      <tspan style="font: 12px 'Arial'" x="14.852539 18.186523 22.182617 32.852539" y="-0.171875"> (%)</tspan>
     </text>
    </g>
   </g>
  </g>
  <g id="axes_2">
   <g id="patch_7">
    <path d="M 49.835 348.247559 
L 511.173583 348.247559 
L 511.173583 200.91685 
L 49.835 200.91685 
z
" style="fill: #ffffff"/>
   </g>
   <g id="matplotlib.axis_3">
    <g id="xtick_1">
     <g id="line2d_23">
      <defs>
       <path id="m4bc7f73c22" d="M 0 0 
L 0 3.5 
" style="stroke: #000000; stroke-width: 0.8"/>
      </defs>
      <g>
       <use xlink:href="#m4bc7f73c22" x="49.835" y="348.247559" style="stroke: #000000; stroke-width: 0.8"/>
      </g>
     </g>
     <g id="text_8">
      <text style="font: 12px 'Arial'; text-anchor: middle" x="49.835" y="363.836934" transform="rotate(-0 49.835 363.836934)">2</text>
     </g>
    </g>
    <g id="xtick_2">
     <g id="line2d_24">
      <g>
       <use xlink:href="#m4bc7f73c22" x="66.311378" y="348.247559" style="stroke: #000000; stroke-width: 0.8"/>
      </g>
     </g>
     <g id="text_9">
      <text style="font: 12px 'Arial'; text-anchor: middle" x="66.311378" y="363.836934" transform="rotate(-0 66.311378 363.836934)">3</text>
     </g>
    </g>
    <g id="xtick_3">
     <g id="line2d_25">
      <g>
       <use xlink:href="#m4bc7f73c22" x="82.787756" y="348.247559" style="stroke: #000000; stroke-width: 0.8"/>
      </g>
     </g>
     <g id="text_10">
      <text style="font: 12px 'Arial'; text-anchor: middle" x="82.787756" y="363.836934" transform="rotate(-0 82.787756 363.836934)">4</text>
     </g>
    </g>
    <g id="xtick_4">
     <g id="line2d_26">
      <g>
       <use xlink:href="#m4bc7f73c22" x="99.264134" y="348.247559" style="stroke: #000000; stroke-width: 0.8"/>
      </g>
     </g>
     <g id="text_11">
      <text style="font: 12px 'Arial'; text-anchor: middle" x="99.264134" y="363.836934" transform="rotate(-0 99.264134 363.836934)">5</text>
     </g>
    </g>
    <g id="xtick_5">
     <g id="line2d_27">
      <g>
       <use xlink:href="#m4bc7f73c22" x="181.646024" y="348.247559" style="stroke: #000000; stroke-width: 0.8"/>
      </g>
     </g>
     <g id="text_12">
      <text style="font: 12px 'Arial'; text-anchor: middle" x="181.646024" y="363.836934" transform="rotate(-0 181.646024 363.836934)">10</text>
     </g>
    </g>
    <g id="xtick_6">
     <g id="line2d_28">
      <g>
       <use xlink:href="#m4bc7f73c22" x="346.409803" y="348.247559" style="stroke: #000000; stroke-width: 0.8"/>
      </g>
     </g>
     <g id="text_13">
      <text style="font: 12px 'Arial'; text-anchor: middle" x="346.409803" y="363.836934" transform="rotate(-0 346.409803 363.836934)">20</text>
     </g>
    </g>
    <g id="xtick_7">
     <g id="line2d_29">
      <g>
       <use xlink:href="#m4bc7f73c22" x="511.173583" y="348.247559" style="stroke: #000000; stroke-width: 0.8"/>
      </g>
     </g>
     <g id="text_14">
      <text style="font: 12px 'Arial'; text-anchor: middle" x="511.173583" y="363.836934" transform="rotate(-0 511.173583 363.836934)">30</text>
     </g>
    </g>
    <g id="text_15">
     <!-- Forecasting time ($s$) -->
     <g transform="translate(227.344291 378.981934)">
      <text>
       <tspan style="font: 12px 'Arial'" x="0 7.330078 14.003906 18 24.673828 30.673828 37.347656 43.347656 46.681641 49.347656 56.021484 62.695312 66.029297 69.363281 72.029297 82.025391 88.699219 92.033203 102.28125" y="-0.265625">Forecasting time ()</tspan>
       <tspan style="font: oblique 12px 'DejaVu Sans'" x="96.029297" y="-0.265625">s</tspan>
      </text>
     </g>
    </g>
   </g>
   <g id="matplotlib.axis_4">
    <g id="ytick_6">
     <g id="line2d_30">
      <g>
       <use xlink:href="#md7cc33090b" x="49.835" y="324.951803" style="stroke: #000000; stroke-width: 0.8"/>
      </g>
     </g>
     <g id="text_16">
      <text style="font: 12px 'Arial'; text-anchor: end" x="42.835" y="329.24649" transform="rotate(-0 42.835 329.24649)">−15</text>
     </g>
    </g>
    <g id="ytick_7">
     <g id="line2d_31">
      <g>
       <use xlink:href="#md7cc33090b" x="49.835" y="289.954405" style="stroke: #000000; stroke-width: 0.8"/>
      </g>
     </g>
     <g id="text_17">
      <text style="font: 12px 'Arial'; text-anchor: end" x="42.835" y="294.249093" transform="rotate(-0 42.835 294.249093)">−10</text>
     </g>
    </g>
    <g id="ytick_8">
     <g id="line2d_32">
      <g>
       <use xlink:href="#md7cc33090b" x="49.835" y="254.957008" style="stroke: #000000; stroke-width: 0.8"/>
      </g>
     </g>
     <g id="text_18">
      <text style="font: 12px 'Arial'; text-anchor: end" x="42.835" y="259.251696" transform="rotate(-0 42.835 259.251696)">−5</text>
     </g>
    </g>
    <g id="ytick_9">
     <g id="line2d_33">
      <g>
       <use xlink:href="#md7cc33090b" x="49.835" y="219.959611" style="stroke: #000000; stroke-width: 0.8"/>
      </g>
     </g>
     <g id="text_19">
      <text style="font: 12px 'Arial'; text-anchor: end" x="42.835" y="224.254299" transform="rotate(-0 42.835 224.254299)">0</text>
     </g>
    </g>
    <g id="text_20">
     <text style="font: 12px 'Arial'; text-anchor: middle" x="15.954375" y="274.582205" transform="rotate(-90 15.954375 274.582205)">Speed, heading, and time</text>
    </g>
   </g>
   <g id="line2d_34">
    <path d="M 49.835 213.196807 
L 66.311378 213.207453 
L 82.787756 213.232484 
L 99.264134 213.240183 
L 181.646024 213.319686 
L 346.409803 213.968785 
L 511.173583 226.707847 
" clip-path="url(#p8d21a68645)" style="fill: none; stroke-dasharray: 5.55,2.4; stroke-dashoffset: 0; stroke: #6699cc; stroke-width: 1.5"/>
   </g>
   <g id="line2d_35">
    <path d="M 49.835 213.196018 
L 66.311378 213.2144 
L 82.787756 213.234446 
L 99.264134 213.253234 
L 181.646024 213.359914 
L 346.409803 214.029575 
L 511.173583 215.313454 
" clip-path="url(#p8d21a68645)" style="fill: none; stroke-dasharray: 1.5,2.475; stroke-dashoffset: 0; stroke: #6699cc; stroke-width: 1.5"/>
   </g>
   <g id="line2d_36">
    <path d="M 49.835 213.199347 
L 66.311378 213.214787 
L 82.787756 213.243265 
L 99.264134 213.259831 
L 181.646024 213.384311 
L 346.409803 214.087035 
L 511.173583 215.461208 
" clip-path="url(#p8d21a68645)" style="fill: none; stroke-dasharray: 9.6,2.4,1.5,2.4; stroke-dashoffset: 0; stroke: #6699cc; stroke-width: 1.5"/>
   </g>
   <g id="line2d_37">
    <path d="M 49.835 213.194409 
L 66.311378 213.204856 
L 82.787756 213.231755 
L 99.264134 213.255747 
L 181.646024 213.382395 
L 346.409803 214.045788 
L 511.173583 220.204548 
" clip-path="url(#p8d21a68645)" style="fill: none; stroke: #6699cc; stroke-width: 1.5; stroke-linecap: square"/>
   </g>
   <g id="line2d_38">
    <path d="M 49.835 217.236935 
L 66.311378 220.158275 
L 82.787756 222.305761 
L 99.264134 225.564751 
L 181.646024 254.577952 
L 346.409803 304.324817 
L 511.173583 332.04622 
" clip-path="url(#p8d21a68645)" style="fill: none; stroke-dasharray: 5.55,2.4; stroke-dashoffset: 0; stroke: #004488; stroke-width: 1.5"/>
   </g>
   <g id="line2d_39">
    <path d="M 49.835 220.7485 
L 66.311378 220.748503 
L 82.787756 220.749074 
L 99.264134 220.748023 
L 181.646024 220.749051 
L 346.409803 220.743085 
L 511.173583 220.727047 
" clip-path="url(#p8d21a68645)" style="fill: none; stroke: #004488; stroke-width: 1.5; stroke-linecap: square"/>
   </g>
   <g id="line2d_40">
    <path d="M 49.835 220.748502 
L 66.311378 220.748511 
L 82.787756 220.749075 
L 99.264134 220.748024 
L 181.646024 220.749051 
L 346.409803 220.743085 
L 511.173583 220.727047 
" clip-path="url(#p8d21a68645)" style="fill: none; stroke-dasharray: 9.6,2.4,1.5,2.4; stroke-dashoffset: 0; stroke: #004488; stroke-width: 1.5"/>
   </g>
   <g id="line2d_41">
    <path d="M 49.835 220.748507 
L 66.311378 220.748499 
L 82.787756 220.749075 
L 99.264134 220.748023 
L 181.646024 220.749051 
L 346.409803 220.743085 
L 511.173583 220.727047 
" clip-path="url(#p8d21a68645)" style="fill: none; stroke-dasharray: 1.5,2.475; stroke-dashoffset: 0; stroke: #004488; stroke-width: 1.5"/>
   </g>
   <g id="line2d_42">
    <path d="M 49.835 216.559991 
L 66.311378 219.072688 
L 82.787756 232.225502 
L 99.264134 226.259431 
L 181.646024 247.243033 
L 346.409803 288.895097 
L 511.173583 324.378044 
" clip-path="url(#p8d21a68645)" style="fill: none; stroke-dasharray: 5.55,2.4; stroke-dashoffset: 0; stroke: #ddaa33; stroke-width: 1.5"/>
   </g>
   <g id="line2d_43">
    <path d="M 49.835 220.492101 
L 66.311378 220.748361 
L 82.787756 220.749073 
L 99.264134 220.748024 
L 181.646024 220.749051 
L 346.409803 220.743085 
L 511.173583 220.727047 
" clip-path="url(#p8d21a68645)" style="fill: none; stroke: #ddaa33; stroke-width: 1.5; stroke-linecap: square"/>
   </g>
   <g id="line2d_44">
    <path d="M 49.835 220.748507 
L 66.311378 220.748509 
L 82.787756 220.749073 
L 99.264134 220.748024 
L 181.646024 220.749051 
L 346.409803 220.743085 
L 511.173583 220.727047 
" clip-path="url(#p8d21a68645)" style="fill: none; stroke-dasharray: 9.6,2.4,1.5,2.4; stroke-dashoffset: 0; stroke: #ddaa33; stroke-width: 1.5"/>
   </g>
   <g id="line2d_45">
    <path d="M 49.835 220.751117 
L 66.311378 220.748513 
L 82.787756 220.749075 
L 99.264134 220.748024 
L 181.646024 220.749051 
L 346.409803 220.743085 
L 511.173583 220.727047 
" clip-path="url(#p8d21a68645)" style="fill: none; stroke-dasharray: 1.5,2.475; stroke-dashoffset: 0; stroke: #ddaa33; stroke-width: 1.5"/>
   </g>
   <g id="line2d_46">
    <path d="M 49.835 217.083591 
L 66.311378 220.032761 
L 82.787756 223.283732 
L 99.264134 226.786153 
L 181.646024 249.989309 
L 346.409803 298.689616 
L 511.173583 335.97 
" clip-path="url(#p8d21a68645)" style="fill: none; stroke-dasharray: 5.55,2.4; stroke-dashoffset: 0; stroke: #bb5566; stroke-width: 1.5"/>
   </g>
   <g id="line2d_47">
    <path d="M 49.835 220.748338 
L 66.311378 220.7485 
L 82.787756 220.749074 
L 99.264134 220.748024 
L 181.646024 220.749051 
L 346.409803 220.743085 
L 511.173583 220.727047 
" clip-path="url(#p8d21a68645)" style="fill: none; stroke: #bb5566; stroke-width: 1.5; stroke-linecap: square"/>
   </g>
   <g id="line2d_48">
    <path d="M 49.835 220.748507 
L 66.311378 220.748513 
L 82.787756 220.749075 
L 99.264134 220.748024 
L 181.646024 220.749051 
L 346.409803 220.743085 
L 511.173583 220.727047 
" clip-path="url(#p8d21a68645)" style="fill: none; stroke-dasharray: 9.6,2.4,1.5,2.4; stroke-dashoffset: 0; stroke: #bb5566; stroke-width: 1.5"/>
   </g>
   <g id="line2d_49">
    <path d="M 49.835 220.748497 
L 66.311378 220.748474 
L 82.787756 220.749075 
L 99.264134 220.748024 
L 181.646024 220.749051 
L 346.409803 220.743085 
L 511.173583 220.727047 
" clip-path="url(#p8d21a68645)" style="fill: none; stroke-dasharray: 1.5,2.475; stroke-dashoffset: 0; stroke: #bb5566; stroke-width: 1.5"/>
   </g>
   <g id="line2d_50">
    <path d="M 49.835 213.648553 
L 66.311378 214.127978 
L 82.787756 214.738573 
L 99.264134 215.537004 
L 181.646024 220.600223 
L 346.409803 234.467525 
L 511.173583 251.289684 
" clip-path="url(#p8d21a68645)" style="fill: none; stroke: #000000; stroke-width: 1.5; stroke-linecap: square"/>
   </g>
   <g id="line2d_51">
    <path d="M 16.882244 360.525118 
" clip-path="url(#p8d21a68645)" style="fill: none; stroke-dasharray: 5.55,2.4; stroke-dashoffset: 0; stroke: #6699cc; stroke-width: 1.5"/>
   </g>
   <g id="line2d_52">
    <path d="M 16.882244 360.525118 
" clip-path="url(#p8d21a68645)" style="fill: none; stroke-dasharray: 1.5,2.475; stroke-dashoffset: 0; stroke: #6699cc; stroke-width: 1.5"/>
   </g>
   <g id="line2d_53">
    <path d="M 16.882244 360.525118 
" clip-path="url(#p8d21a68645)" style="fill: none; stroke-dasharray: 9.6,2.4,1.5,2.4; stroke-dashoffset: 0; stroke: #6699cc; stroke-width: 1.5"/>
   </g>
   <g id="line2d_54">
    <path d="M 16.882244 360.525118 
" clip-path="url(#p8d21a68645)" style="fill: none; stroke: #6699cc; stroke-width: 1.5; stroke-linecap: square"/>
   </g>
   <g id="line2d_55">
    <path d="M 16.882244 360.525118 
" clip-path="url(#p8d21a68645)" style="fill: none; stroke-dasharray: 5.55,2.4; stroke-dashoffset: 0; stroke: #004488; stroke-width: 1.5"/>
   </g>
   <g id="line2d_56">
    <path d="M 16.882244 360.525118 
" clip-path="url(#p8d21a68645)" style="fill: none; stroke: #004488; stroke-width: 1.5; stroke-linecap: square"/>
   </g>
   <g id="line2d_57">
    <path d="M 16.882244 360.525118 
" clip-path="url(#p8d21a68645)" style="fill: none; stroke-dasharray: 9.6,2.4,1.5,2.4; stroke-dashoffset: 0; stroke: #004488; stroke-width: 1.5"/>
   </g>
   <g id="line2d_58">
    <path d="M 16.882244 360.525118 
" clip-path="url(#p8d21a68645)" style="fill: none; stroke-dasharray: 1.5,2.475; stroke-dashoffset: 0; stroke: #004488; stroke-width: 1.5"/>
   </g>
   <g id="line2d_59">
    <path d="M 16.882244 360.525118 
" clip-path="url(#p8d21a68645)" style="fill: none; stroke-dasharray: 5.55,2.4; stroke-dashoffset: 0; stroke: #ddaa33; stroke-width: 1.5"/>
   </g>
   <g id="line2d_60">
    <path d="M 16.882244 360.525118 
" clip-path="url(#p8d21a68645)" style="fill: none; stroke: #ddaa33; stroke-width: 1.5; stroke-linecap: square"/>
   </g>
   <g id="line2d_61">
    <path d="M 16.882244 360.525118 
" clip-path="url(#p8d21a68645)" style="fill: none; stroke-dasharray: 9.6,2.4,1.5,2.4; stroke-dashoffset: 0; stroke: #ddaa33; stroke-width: 1.5"/>
   </g>
   <g id="line2d_62">
    <path d="M 16.882244 360.525118 
" clip-path="url(#p8d21a68645)" style="fill: none; stroke-dasharray: 1.5,2.475; stroke-dashoffset: 0; stroke: #ddaa33; stroke-width: 1.5"/>
   </g>
   <g id="line2d_63">
    <path d="M 16.882244 360.525118 
" clip-path="url(#p8d21a68645)" style="fill: none; stroke-dasharray: 5.55,2.4; stroke-dashoffset: 0; stroke: #bb5566; stroke-width: 1.5"/>
   </g>
   <g id="line2d_64">
    <path d="M 16.882244 360.525118 
" clip-path="url(#p8d21a68645)" style="fill: none; stroke: #bb5566; stroke-width: 1.5; stroke-linecap: square"/>
   </g>
   <g id="line2d_65">
    <path d="M 16.882244 360.525118 
" clip-path="url(#p8d21a68645)" style="fill: none; stroke-dasharray: 9.6,2.4,1.5,2.4; stroke-dashoffset: 0; stroke: #bb5566; stroke-width: 1.5"/>
   </g>
   <g id="line2d_66">
    <path d="M 16.882244 360.525118 
" clip-path="url(#p8d21a68645)" style="fill: none; stroke-dasharray: 1.5,2.475; stroke-dashoffset: 0; stroke: #bb5566; stroke-width: 1.5"/>
   </g>
   <g id="line2d_67">
    <path d="M 16.882244 360.525118 
" clip-path="url(#p8d21a68645)" style="fill: none; stroke: #000000; stroke-width: 1.5; stroke-linecap: square"/>
   </g>
   <g id="patch_8">
    <path d="M 49.835 348.247559 
L 49.835 200.91685 
" style="fill: none; stroke: #000000; stroke-width: 0.8; stroke-linejoin: miter; stroke-linecap: square"/>
   </g>
   <g id="patch_9">
    <path d="M 511.173583 348.247559 
L 511.173583 200.91685 
" style="fill: none; stroke: #000000; stroke-width: 0.8; stroke-linejoin: miter; stroke-linecap: square"/>
   </g>
   <g id="patch_10">
    <path d="M 49.835 348.247559 
L 511.173583 348.247559 
" style="fill: none; stroke: #000000; stroke-width: 0.8; stroke-linejoin: miter; stroke-linecap: square"/>
   </g>
   <g id="patch_11">
    <path d="M 49.835 200.91685 
L 511.173583 200.91685 
" style="fill: none; stroke: #000000; stroke-width: 0.8; stroke-linejoin: miter; stroke-linecap: square"/>
   </g>
   <g id="legend_1">
    <g id="patch_12">
     <path d="M 12.101142 483.685039 
L 547.408017 483.685039 
Q 549.808017 483.685039 549.808017 481.285039 
L 549.808017 397.613164 
Q 549.808017 395.213164 547.408017 395.213164 
L 12.101142 395.213164 
Q 9.701142 395.213164 9.701142 397.613164 
L 9.701142 481.285039 
Q 9.701142 483.685039 12.101142 483.685039 
z
" style="fill: #ffffff; opacity: 0.8; stroke: #cccccc; stroke-linejoin: miter"/>
    </g>
    <g id="line2d_68">
     <path d="M 14.501142 404.402539 
L 26.501142 404.402539 
L 38.501142 404.402539 
" style="fill: none; stroke-dasharray: 5.55,2.4; stroke-dashoffset: 0; stroke: #6699cc; stroke-width: 1.5"/>
    </g>
    <g id="text_21">
     <text style="font: 12px 'Arial'; text-anchor: start" x="48.101142" y="408.602539" transform="rotate(-0 48.101142 408.602539)">GRU Att 1</text>
    </g>
    <g id="line2d_69">
     <path d="M 14.501142 421.376914 
L 26.501142 421.376914 
L 38.501142 421.376914 
" style="fill: none; stroke-dasharray: 1.5,2.475; stroke-dashoffset: 0; stroke: #6699cc; stroke-width: 1.5"/>
    </g>
    <g id="text_22">
     <text style="font: 12px 'Arial'; text-anchor: start" x="48.101142" y="425.576914" transform="rotate(-0 48.101142 425.576914)">GRU Att 2</text>
    </g>
    <g id="line2d_70">
     <path d="M 14.501142 438.351289 
L 26.501142 438.351289 
L 38.501142 438.351289 
" style="fill: none; stroke-dasharray: 9.6,2.4,1.5,2.4; stroke-dashoffset: 0; stroke: #6699cc; stroke-width: 1.5"/>
    </g>
    <g id="text_23">
     <text style="font: 12px 'Arial'; text-anchor: start" x="48.101142" y="442.551289" transform="rotate(-0 48.101142 442.551289)">GRU Att 3</text>
    </g>
    <g id="line2d_71">
     <path d="M 14.501142 455.325664 
L 26.501142 455.325664 
L 38.501142 455.325664 
" style="fill: none; stroke: #6699cc; stroke-width: 1.5; stroke-linecap: square"/>
    </g>
    <g id="text_24">
     <text style="font: 12px 'Arial'; text-anchor: start" x="48.101142" y="459.525664" transform="rotate(-0 48.101142 459.525664)">GRU Att 4</text>
    </g>
    <g id="line2d_72">
     <path d="M 14.501142 472.300039 
L 26.501142 472.300039 
L 38.501142 472.300039 
" style="fill: none; stroke-dasharray: 5.55,2.4; stroke-dashoffset: 0; stroke: #004488; stroke-width: 1.5"/>
    </g>
    <g id="text_25">
     <text style="font: 12px 'Arial'; text-anchor: start" x="48.101142" y="476.500039" transform="rotate(-0 48.101142 476.500039)">GRU Linear</text>
    </g>
    <g id="line2d_73">
     <path d="M 135.455517 404.402539 
L 147.455517 404.402539 
L 159.455517 404.402539 
" style="fill: none; stroke: #004488; stroke-width: 1.5; stroke-linecap: square"/>
    </g>
    <g id="text_26">
     <text style="font: 12px 'Arial'; text-anchor: start" x="169.055517" y="408.602539" transform="rotate(-0 169.055517 408.602539)">GRU Reference</text>
    </g>
    <g id="line2d_74">
     <path d="M 135.455517 421.376914 
L 147.455517 421.376914 
L 159.455517 421.376914 
" style="fill: none; stroke-dasharray: 9.6,2.4,1.5,2.4; stroke-dashoffset: 0; stroke: #004488; stroke-width: 1.5"/>
    </g>
    <g id="text_27">
     <text style="font: 12px 'Arial'; text-anchor: start" x="169.055517" y="425.576914" transform="rotate(-0 169.055517 425.576914)">GRU Third</text>
    </g>
    <g id="line2d_75">
     <path d="M 135.455517 438.351289 
L 147.455517 438.351289 
L 159.455517 438.351289 
" style="fill: none; stroke-dasharray: 1.5,2.475; stroke-dashoffset: 0; stroke: #004488; stroke-width: 1.5"/>
    </g>
    <g id="text_28">
     <text style="font: 12px 'Arial'; text-anchor: start" x="169.055517" y="442.551289" transform="rotate(-0 169.055517 442.551289)">GRU Twice</text>
    </g>
    <g id="line2d_76">
     <path d="M 135.455517 455.325664 
L 147.455517 455.325664 
L 159.455517 455.325664 
" style="fill: none; stroke-dasharray: 5.55,2.4; stroke-dashoffset: 0; stroke: #ddaa33; stroke-width: 1.5"/>
    </g>
    <g id="text_29">
     <text style="font: 12px 'Arial'; text-anchor: start" x="169.055517" y="459.525664" transform="rotate(-0 169.055517 459.525664)">LSTM Linear</text>
    </g>
    <g id="line2d_77">
     <path d="M 278.416767 404.402539 
L 290.416767 404.402539 
L 302.416767 404.402539 
" style="fill: none; stroke: #ddaa33; stroke-width: 1.5; stroke-linecap: square"/>
    </g>
    <g id="text_30">
     <text style="font: 12px 'Arial'; text-anchor: start" x="312.016767" y="408.602539" transform="rotate(-0 312.016767 408.602539)">LSTM Reference</text>
    </g>
    <g id="line2d_78">
     <path d="M 278.416767 421.376914 
L 290.416767 421.376914 
L 302.416767 421.376914 
" style="fill: none; stroke-dasharray: 9.6,2.4,1.5,2.4; stroke-dashoffset: 0; stroke: #ddaa33; stroke-width: 1.5"/>
    </g>
    <g id="text_31">
     <text style="font: 12px 'Arial'; text-anchor: start" x="312.016767" y="425.576914" transform="rotate(-0 312.016767 425.576914)">LSTM Third</text>
    </g>
    <g id="line2d_79">
     <path d="M 278.416767 438.351289 
L 290.416767 438.351289 
L 302.416767 438.351289 
" style="fill: none; stroke-dasharray: 1.5,2.475; stroke-dashoffset: 0; stroke: #ddaa33; stroke-width: 1.5"/>
    </g>
    <g id="text_32">
     <text style="font: 12px 'Arial'; text-anchor: start" x="312.016767" y="442.551289" transform="rotate(-0 312.016767 442.551289)">LSTM Twice</text>
    </g>
    <g id="line2d_80">
     <path d="M 278.416767 455.325664 
L 290.416767 455.325664 
L 302.416767 455.325664 
" style="fill: none; stroke-dasharray: 5.55,2.4; stroke-dashoffset: 0; stroke: #bb5566; stroke-width: 1.5"/>
    </g>
    <g id="text_33">
     <text style="font: 12px 'Arial'; text-anchor: start" x="312.016767" y="459.525664" transform="rotate(-0 312.016767 459.525664)">RNN Linear</text>
    </g>
    <g id="line2d_81">
     <path d="M 426.714267 404.402539 
L 438.714267 404.402539 
L 450.714267 404.402539 
" style="fill: none; stroke: #bb5566; stroke-width: 1.5; stroke-linecap: square"/>
    </g>
    <g id="text_34">
     <text style="font: 12px 'Arial'; text-anchor: start" x="460.314267" y="408.602539" transform="rotate(-0 460.314267 408.602539)">RNN Reference</text>
    </g>
    <g id="line2d_82">
     <path d="M 426.714267 421.376914 
L 438.714267 421.376914 
L 450.714267 421.376914 
" style="fill: none; stroke-dasharray: 9.6,2.4,1.5,2.4; stroke-dashoffset: 0; stroke: #bb5566; stroke-width: 1.5"/>
    </g>
    <g id="text_35">
     <text style="font: 12px 'Arial'; text-anchor: start" x="460.314267" y="425.576914" transform="rotate(-0 460.314267 425.576914)">RNN Third</text>
    </g>
    <g id="line2d_83">
     <path d="M 426.714267 438.351289 
L 438.714267 438.351289 
L 450.714267 438.351289 
" style="fill: none; stroke-dasharray: 1.5,2.475; stroke-dashoffset: 0; stroke: #bb5566; stroke-width: 1.5"/>
    </g>
    <g id="text_36">
     <text style="font: 12px 'Arial'; text-anchor: start" x="460.314267" y="442.551289" transform="rotate(-0 460.314267 442.551289)">RNN Twice</text>
    </g>
    <g id="line2d_84">
     <path d="M 426.714267 455.325664 
L 438.714267 455.325664 
L 450.714267 455.325664 
" style="fill: none; stroke: #000000; stroke-width: 1.5; stroke-linecap: square"/>
    </g>
    <g id="text_37">
     <text style="font: 12px 'Arial'; text-anchor: start" x="460.314267" y="459.525664" transform="rotate(-0 460.314267 459.525664)">UniTS</text>
    </g>
   </g>
  </g>
 </g>
 <defs>
  <clipPath id="pe892d3cb71">
   <rect x="49.835" y="24.12" width="461.338583" height="147.330709"/>
  </clipPath>
  <clipPath id="p8d21a68645">
   <rect x="49.835" y="200.91685" width="461.338583" height="147.330709"/>
  </clipPath>
 </defs>
</svg>
