<?xml version="1.0" encoding="utf-8" standalone="no"?>
<!DOCTYPE svg PUBLIC "-//W3C//DTD SVG 1.1//EN"
  "http://www.w3.org/Graphics/SVG/1.1/DTD/svg11.dtd">
<svg xmlns:xlink="http://www.w3.org/1999/xlink" width="559.987392pt" height="488.554414pt" viewBox="0 0 559.987392 488.554414" xmlns="http://www.w3.org/2000/svg" version="1.1">
 <metadata>
  <rdf:RDF xmlns:dc="http://purl.org/dc/elements/1.1/" xmlns:cc="http://creativecommons.org/ns#" xmlns:rdf="http://www.w3.org/1999/02/22-rdf-syntax-ns#">
   <cc:Work>
    <dc:type rdf:resource="http://purl.org/dc/dcmitype/StillImage"/>
    <dc:date>2024-10-10T13:37:00.459331</dc:date>
    <dc:format>image/svg+xml</dc:format>
    <dc:creator>
     <cc:Agent>
      <dc:title>Matplotlib v3.7.0, https://matplotlib.org/</dc:title>
     </cc:Agent>
    </dc:creator>
   </cc:Work>
  </rdf:RDF>
 </metadata>
 <defs>
  <style type="text/css">*{stroke-linejoin: round; stroke-linecap: butt}</style>
 </defs>
 <g id="figure_1">
  <g id="patch_1">
   <path d="M 0 488.554414 
L 559.987392 488.554414 
L 559.987392 0 
L 0 0 
z
" style="fill: #ffffff"/>
  </g>
  <g id="axes_1">
   <g id="patch_2">
    <path d="M 52.814375 169.120084 
L 514.152958 169.120084 
L 514.152958 21.789375 
L 52.814375 21.789375 
z
" style="fill: #ffffff"/>
   </g>
   <g id="matplotlib.axis_1"/>
   <g id="matplotlib.axis_2">
    <g id="ytick_1">
     <g id="line2d_1">
      <defs>
       <path id="m32f831f658" d="M 0 0 
L -3.5 0 
" style="stroke: #000000; stroke-width: 0.8"/>
      </defs>
      <g>
       <use xlink:href="#m32f831f658" x="52.814375" y="158.272538" style="stroke: #000000; stroke-width: 0.8"/>
      </g>
     </g>
     <g id="text_1">
      <text style="font: 12px 'Arial'; text-anchor: end" x="45.814375" y="162.567226" transform="rotate(-0 45.814375 162.567226)">0.0</text>
     </g>
    </g>
    <g id="ytick_2">
     <g id="line2d_2">
      <g>
       <use xlink:href="#m32f831f658" x="52.814375" y="112.239961" style="stroke: #000000; stroke-width: 0.8"/>
      </g>
     </g>
     <g id="text_2">
      <text style="font: 12px 'Arial'; text-anchor: end" x="45.814375" y="116.534648" transform="rotate(-0 45.814375 116.534648)">0.1</text>
     </g>
    </g>
    <g id="ytick_3">
     <g id="line2d_3">
      <g>
       <use xlink:href="#m32f831f658" x="52.814375" y="66.207383" style="stroke: #000000; stroke-width: 0.8"/>
      </g>
     </g>
     <g id="text_3">
      <text style="font: 12px 'Arial'; text-anchor: end" x="45.814375" y="70.502071" transform="rotate(-0 45.814375 70.502071)">0.2</text>
     </g>
    </g>
    <g id="text_4">
     <!-- $x$ and $y$ offset -->
     <g transform="translate(22.614375 132.294729) rotate(-90)">
      <text>
       <tspan style="font: oblique 12px 'DejaVu Sans'" x="0 33.791016" y="-0.265625">xy</tspan>
       <tspan style="font: 12px 'Arial'" x="7.101562 10.435547 17.109375 23.783203 30.457031 40.892578 44.226562 50.900391 54.234375 57.568359 63.568359 70.242188" y="-0.265625"> and  offset</tspan>
      </text>
     </g>
    </g>
   </g>
   <g id="line2d_4">
    <path d="M 52.814375 156.754897 
L 69.290753 156.398414 
L 85.767131 155.881123 
L 102.243509 155.063508 
L 184.625399 140.426862 
L 349.389178 130.926484 
L 514.152958 127.879955 
" clip-path="url(#pcac3b9c999)" style="fill: none; stroke-dasharray: 5.55,2.4; stroke-dashoffset: 0; stroke: #6699cc; stroke-width: 1.5"/>
   </g>
   <g id="line2d_5">
    <path d="M 52.814375 156.556672 
L 69.290753 156.044206 
L 85.767131 155.605266 
L 102.243509 154.561582 
L 184.625399 150.513666 
L 349.389178 141.427501 
L 514.152958 127.830889 
" clip-path="url(#pcac3b9c999)" style="fill: none; stroke-dasharray: 1.5,2.475; stroke-dashoffset: 0; stroke: #6699cc; stroke-width: 1.5"/>
   </g>
   <g id="line2d_6">
    <path d="M 52.814375 156.700672 
L 69.290753 156.039156 
L 85.767131 155.542961 
L 102.243509 154.922093 
L 184.625399 147.950576 
L 349.389178 133.70987 
L 514.152958 124.585051 
" clip-path="url(#pcac3b9c999)" style="fill: none; stroke-dasharray: 9.6,2.4,1.5,2.4; stroke-dashoffset: 0; stroke: #6699cc; stroke-width: 1.5"/>
   </g>
   <g id="line2d_7">
    <path d="M 52.814375 156.842525 
L 69.290753 156.397068 
L 85.767131 155.921357 
L 102.243509 155.306618 
L 184.625399 147.597141 
L 349.389178 133.262665 
L 514.152958 126.923884 
" clip-path="url(#pcac3b9c999)" style="fill: none; stroke: #6699cc; stroke-width: 1.5; stroke-linecap: square"/>
   </g>
   <g id="line2d_8">
    <path d="M 52.814375 137.987876 
L 69.290753 135.376055 
L 85.767131 136.128578 
L 102.243509 133.548805 
L 184.625399 127.22557 
L 349.389178 120.737049 
L 514.152958 119.957191 
" clip-path="url(#pcac3b9c999)" style="fill: none; stroke-dasharray: 5.55,2.4; stroke-dashoffset: 0; stroke: #004488; stroke-width: 1.5"/>
   </g>
   <g id="line2d_9">
    <path d="M 52.814375 138.322403 
L 69.290753 132.834256 
L 85.767131 133.55409 
L 102.243509 132.698199 
L 184.625399 129.316793 
L 349.389178 123.612538 
L 514.152958 122.679508 
" clip-path="url(#pcac3b9c999)" style="fill: none; stroke: #004488; stroke-width: 1.5; stroke-linecap: square"/>
   </g>
   <g id="line2d_10">
    <path d="M 52.814375 137.821146 
L 69.290753 132.044899 
L 85.767131 133.945339 
L 102.243509 131.045227 
L 184.625399 128.880334 
L 349.389178 122.988259 
L 514.152958 122.147287 
" clip-path="url(#pcac3b9c999)" style="fill: none; stroke-dasharray: 9.6,2.4,1.5,2.4; stroke-dashoffset: 0; stroke: #004488; stroke-width: 1.5"/>
   </g>
   <g id="line2d_11">
    <path d="M 52.814375 140.153463 
L 69.290753 132.349391 
L 85.767131 132.51526 
L 102.243509 130.402169 
L 184.625399 132.744408 
L 349.389178 124.241907 
L 514.152958 120.962039 
" clip-path="url(#pcac3b9c999)" style="fill: none; stroke-dasharray: 1.5,2.475; stroke-dashoffset: 0; stroke: #004488; stroke-width: 1.5"/>
   </g>
   <g id="line2d_12">
    <path d="M 52.814375 131.726401 
L 69.290753 132.801998 
L 85.767131 136.04014 
L 102.243509 124.981697 
L 184.625399 126.115794 
L 349.389178 129.129533 
L 514.152958 123.852795 
" clip-path="url(#pcac3b9c999)" style="fill: none; stroke-dasharray: 5.55,2.4; stroke-dashoffset: 0; stroke: #ddaa33; stroke-width: 1.5"/>
   </g>
   <g id="line2d_13">
    <path d="M 69.290753 -1 
L 69.290753 129.030878 
L 85.767131 130.966919 
L 102.243509 134.100904 
L 184.625399 130.071254 
L 349.389178 125.932421 
L 514.152958 122.954162 
" clip-path="url(#pcac3b9c999)" style="fill: none; stroke: #ddaa33; stroke-width: 1.5; stroke-linecap: square"/>
   </g>
   <g id="line2d_14">
    <path d="M 52.814375 134.334681 
L 69.290753 128.326168 
L 85.767131 130.515008 
L 102.243509 126.414397 
L 184.625399 128.371701 
L 349.389178 121.689607 
L 514.152958 120.790071 
" clip-path="url(#pcac3b9c999)" style="fill: none; stroke-dasharray: 9.6,2.4,1.5,2.4; stroke-dashoffset: 0; stroke: #ddaa33; stroke-width: 1.5"/>
   </g>
   <g id="line2d_15">
    <path d="M 52.814375 122.739452 
L 69.290753 126.157824 
L 85.767131 127.405948 
L 102.243509 119.174975 
L 184.625399 125.407589 
L 349.389178 116.460907 
L 514.152958 118.648482 
" clip-path="url(#pcac3b9c999)" style="fill: none; stroke-dasharray: 1.5,2.475; stroke-dashoffset: 0; stroke: #ddaa33; stroke-width: 1.5"/>
   </g>
   <g id="line2d_16">
    <path d="M 52.814375 76.324088 
L 69.290753 110.279782 
L 85.767131 103.537203 
L 102.243509 119.991215 
L 184.625399 128.048177 
L 349.389178 126.373137 
L 514.152958 122.187941 
" clip-path="url(#pcac3b9c999)" style="fill: none; stroke-dasharray: 5.55,2.4; stroke-dashoffset: 0; stroke: #bb5566; stroke-width: 1.5"/>
   </g>
   <g id="line2d_17">
    <path d="M 52.814375 80.633114 
L 69.290753 83.443735 
L 85.767131 124.22442 
L 102.243509 120.552874 
L 184.625399 127.301317 
L 349.389178 125.486634 
L 514.152958 121.10159 
" clip-path="url(#pcac3b9c999)" style="fill: none; stroke: #bb5566; stroke-width: 1.5; stroke-linecap: square"/>
   </g>
   <g id="line2d_18">
    <path d="M 52.814375 112.74741 
L 69.290753 125.99332 
L 85.767131 125.556799 
L 102.243509 124.468636 
L 184.625399 127.316383 
L 349.389178 115.30224 
L 514.152958 118.512119 
" clip-path="url(#pcac3b9c999)" style="fill: none; stroke-dasharray: 9.6,2.4,1.5,2.4; stroke-dashoffset: 0; stroke: #bb5566; stroke-width: 1.5"/>
   </g>
   <g id="line2d_19">
    <path d="M 52.814375 34.066934 
L 69.290753 54.727197 
L 85.767131 40.793309 
L 102.243509 68.167202 
L 184.625399 104.665936 
L 349.389178 112.694812 
L 514.152958 117.418958 
" clip-path="url(#pcac3b9c999)" style="fill: none; stroke-dasharray: 1.5,2.475; stroke-dashoffset: 0; stroke: #bb5566; stroke-width: 1.5"/>
   </g>
   <g id="line2d_20">
    <path d="M 52.814375 156.25548 
L 69.290753 156.014881 
L 85.767131 155.966031 
L 102.243509 155.588332 
L 184.625399 153.897484 
L 349.389178 151.930078 
L 514.152958 149.905675 
" clip-path="url(#pcac3b9c999)" style="fill: none; stroke: #000000; stroke-width: 1.5; stroke-linecap: square"/>
   </g>
   <g id="patch_3">
    <path d="M 52.814375 169.120084 
L 52.814375 21.789375 
" style="fill: none; stroke: #000000; stroke-width: 0.8; stroke-linejoin: miter; stroke-linecap: square"/>
   </g>
   <g id="patch_4">
    <path d="M 514.152958 169.120084 
L 514.152958 21.789375 
" style="fill: none; stroke: #000000; stroke-width: 0.8; stroke-linejoin: miter; stroke-linecap: square"/>
   </g>
   <g id="patch_5">
    <path d="M 52.814375 169.120084 
L 514.152958 169.120084 
" style="fill: none; stroke: #000000; stroke-width: 0.8; stroke-linejoin: miter; stroke-linecap: square"/>
   </g>
   <g id="patch_6">
    <path d="M 52.814375 21.789375 
L 514.152958 21.789375 
" style="fill: none; stroke: #000000; stroke-width: 0.8; stroke-linejoin: miter; stroke-linecap: square"/>
   </g>
   <g id="text_5">
    <text style="font: 12px 'Arial'; text-anchor: middle" x="283.483666" y="15.789375" transform="rotate(-0 283.483666 15.789375)">Euclidean distance</text>
   </g>
  </g>
  <g id="axes_2">
   <g id="patch_7">
    <path d="M 52.814375 345.916934 
L 514.152958 345.916934 
L 514.152958 198.586225 
L 52.814375 198.586225 
z
" style="fill: #ffffff"/>
   </g>
   <g id="matplotlib.axis_3">
    <g id="xtick_1">
     <g id="line2d_21">
      <defs>
       <path id="m5496ae9d5f" d="M 0 0 
L 0 3.5 
" style="stroke: #000000; stroke-width: 0.8"/>
      </defs>
      <g>
       <use xlink:href="#m5496ae9d5f" x="52.814375" y="345.916934" style="stroke: #000000; stroke-width: 0.8"/>
      </g>
     </g>
     <g id="text_6">
      <text style="font: 12px 'Arial'; text-anchor: middle" x="52.814375" y="361.506309" transform="rotate(-0 52.814375 361.506309)">2</text>
     </g>
    </g>
    <g id="xtick_2">
     <g id="line2d_22">
      <g>
       <use xlink:href="#m5496ae9d5f" x="69.290753" y="345.916934" style="stroke: #000000; stroke-width: 0.8"/>
      </g>
     </g>
     <g id="text_7">
      <text style="font: 12px 'Arial'; text-anchor: middle" x="69.290753" y="361.506309" transform="rotate(-0 69.290753 361.506309)">3</text>
     </g>
    </g>
    <g id="xtick_3">
     <g id="line2d_23">
      <g>
       <use xlink:href="#m5496ae9d5f" x="85.767131" y="345.916934" style="stroke: #000000; stroke-width: 0.8"/>
      </g>
     </g>
     <g id="text_8">
      <text style="font: 12px 'Arial'; text-anchor: middle" x="85.767131" y="361.506309" transform="rotate(-0 85.767131 361.506309)">4</text>
     </g>
    </g>
    <g id="xtick_4">
     <g id="line2d_24">
      <g>
       <use xlink:href="#m5496ae9d5f" x="102.243509" y="345.916934" style="stroke: #000000; stroke-width: 0.8"/>
      </g>
     </g>
     <g id="text_9">
      <text style="font: 12px 'Arial'; text-anchor: middle" x="102.243509" y="361.506309" transform="rotate(-0 102.243509 361.506309)">5</text>
     </g>
    </g>
    <g id="xtick_5">
     <g id="line2d_25">
      <g>
       <use xlink:href="#m5496ae9d5f" x="184.625399" y="345.916934" style="stroke: #000000; stroke-width: 0.8"/>
      </g>
     </g>
     <g id="text_10">
      <text style="font: 12px 'Arial'; text-anchor: middle" x="184.625399" y="361.506309" transform="rotate(-0 184.625399 361.506309)">10</text>
     </g>
    </g>
    <g id="xtick_6">
     <g id="line2d_26">
      <g>
       <use xlink:href="#m5496ae9d5f" x="349.389178" y="345.916934" style="stroke: #000000; stroke-width: 0.8"/>
      </g>
     </g>
     <g id="text_11">
      <text style="font: 12px 'Arial'; text-anchor: middle" x="349.389178" y="361.506309" transform="rotate(-0 349.389178 361.506309)">20</text>
     </g>
    </g>
    <g id="xtick_7">
     <g id="line2d_27">
      <g>
       <use xlink:href="#m5496ae9d5f" x="514.152958" y="345.916934" style="stroke: #000000; stroke-width: 0.8"/>
      </g>
     </g>
     <g id="text_12">
      <text style="font: 12px 'Arial'; text-anchor: middle" x="514.152958" y="361.506309" transform="rotate(-0 514.152958 361.506309)">30</text>
     </g>
    </g>
    <g id="text_13">
     <text style="font: 12px 'Arial'; text-anchor: middle" x="283.483666" y="376.480684" transform="rotate(-0 283.483666 376.480684)">Forecasting length</text>
    </g>
   </g>
   <g id="matplotlib.axis_4">
    <g id="ytick_4">
     <g id="line2d_28">
      <g>
       <use xlink:href="#m32f831f658" x="52.814375" y="340.671315" style="stroke: #000000; stroke-width: 0.8"/>
      </g>
     </g>
     <g id="text_14">
      <text style="font: 12px 'Arial'; text-anchor: end" x="45.814375" y="344.966002" transform="rotate(-0 45.814375 344.966002)">0.00</text>
     </g>
    </g>
    <g id="ytick_5">
     <g id="line2d_29">
      <g>
       <use xlink:href="#m32f831f658" x="52.814375" y="314.054268" style="stroke: #000000; stroke-width: 0.8"/>
      </g>
     </g>
     <g id="text_15">
      <text style="font: 12px 'Arial'; text-anchor: end" x="45.814375" y="318.348955" transform="rotate(-0 45.814375 318.348955)">0.05</text>
     </g>
    </g>
    <g id="ytick_6">
     <g id="line2d_30">
      <g>
       <use xlink:href="#m32f831f658" x="52.814375" y="287.437221" style="stroke: #000000; stroke-width: 0.8"/>
      </g>
     </g>
     <g id="text_16">
      <text style="font: 12px 'Arial'; text-anchor: end" x="45.814375" y="291.731909" transform="rotate(-0 45.814375 291.731909)">0.10</text>
     </g>
    </g>
    <g id="ytick_7">
     <g id="line2d_31">
      <g>
       <use xlink:href="#m32f831f658" x="52.814375" y="260.820175" style="stroke: #000000; stroke-width: 0.8"/>
      </g>
     </g>
     <g id="text_17">
      <text style="font: 12px 'Arial'; text-anchor: end" x="45.814375" y="265.114862" transform="rotate(-0 45.814375 265.114862)">0.15</text>
     </g>
    </g>
    <g id="ytick_8">
     <g id="line2d_32">
      <g>
       <use xlink:href="#m32f831f658" x="52.814375" y="234.203128" style="stroke: #000000; stroke-width: 0.8"/>
      </g>
     </g>
     <g id="text_18">
      <text style="font: 12px 'Arial'; text-anchor: end" x="45.814375" y="238.497815" transform="rotate(-0 45.814375 238.497815)">0.20</text>
     </g>
    </g>
    <g id="ytick_9">
     <g id="line2d_33">
      <g>
       <use xlink:href="#m32f831f658" x="52.814375" y="207.586081" style="stroke: #000000; stroke-width: 0.8"/>
      </g>
     </g>
     <g id="text_19">
      <text style="font: 12px 'Arial'; text-anchor: end" x="45.814375" y="211.880769" transform="rotate(-0 45.814375 211.880769)">0.25</text>
     </g>
    </g>
    <g id="text_20">
     <text style="font: 12px 'Arial'; text-anchor: middle" x="15.935625" y="272.25158" transform="rotate(-90 15.935625 272.25158)">Speed, heading, and time</text>
    </g>
   </g>
   <g id="line2d_34">
    <path d="M 52.814375 333.603557 
L 69.290753 333.324132 
L 85.767131 332.834298 
L 102.243509 332.683783 
L 184.625399 331.520011 
L 349.389178 325.970487 
L 514.152958 300.976095 
" clip-path="url(#pb021bc9a86)" style="fill: none; stroke-dasharray: 5.55,2.4; stroke-dashoffset: 0; stroke: #6699cc; stroke-width: 1.5"/>
   </g>
   <g id="line2d_35">
    <path d="M 52.814375 333.62154 
L 69.290753 333.218556 
L 85.767131 332.843931 
L 102.243509 332.614533 
L 184.625399 331.068959 
L 349.389178 325.626612 
L 514.152958 319.826272 
" clip-path="url(#pb021bc9a86)" style="fill: none; stroke-dasharray: 1.5,2.475; stroke-dashoffset: 0; stroke: #6699cc; stroke-width: 1.5"/>
   </g>
   <g id="line2d_36">
    <path d="M 52.814375 333.549232 
L 69.290753 333.173121 
L 85.767131 332.695208 
L 102.243509 332.447208 
L 184.625399 330.674046 
L 349.389178 325.312756 
L 514.152958 319.336136 
" clip-path="url(#pb021bc9a86)" style="fill: none; stroke-dasharray: 9.6,2.4,1.5,2.4; stroke-dashoffset: 0; stroke: #6699cc; stroke-width: 1.5"/>
   </g>
   <g id="line2d_37">
    <path d="M 52.814375 333.639375 
L 69.290753 333.392118 
L 85.767131 332.829784 
L 102.243509 332.443308 
L 184.625399 330.611103 
L 349.389178 325.516907 
L 514.152958 313.053132 
" clip-path="url(#pb021bc9a86)" style="fill: none; stroke: #6699cc; stroke-width: 1.5; stroke-linecap: square"/>
   </g>
   <g id="line2d_38">
    <path d="M 52.814375 317.423828 
L 69.290753 310.571048 
L 85.767131 306.496355 
L 102.243509 300.863446 
L 184.625399 265.579934 
L 349.389178 228.142463 
L 514.152958 212.695957 
" clip-path="url(#pb021bc9a86)" style="fill: none; stroke-dasharray: 5.55,2.4; stroke-dashoffset: 0; stroke: #004488; stroke-width: 1.5"/>
   </g>
   <g id="line2d_39">
    <path d="M 52.814375 301.815297 
L 69.290753 301.791617 
L 85.767131 301.768097 
L 102.243509 301.753343 
L 184.625399 301.787727 
L 349.389178 302.114509 
L 514.152958 302.60375 
" clip-path="url(#pb021bc9a86)" style="fill: none; stroke: #004488; stroke-width: 1.5; stroke-linecap: square"/>
   </g>
   <g id="line2d_40">
    <path d="M 52.814375 301.815277 
L 69.290753 301.791515 
L 85.767131 301.768096 
L 102.243509 301.753338 
L 184.625399 301.787727 
L 349.389178 302.114509 
L 514.152958 302.60375 
" clip-path="url(#pb021bc9a86)" style="fill: none; stroke-dasharray: 9.6,2.4,1.5,2.4; stroke-dashoffset: 0; stroke: #004488; stroke-width: 1.5"/>
   </g>
   <g id="line2d_41">
    <path d="M 52.814375 301.815258 
L 69.290753 301.791568 
L 85.767131 301.768096 
L 102.243509 301.753341 
L 184.625399 301.787727 
L 349.389178 302.114509 
L 514.152958 302.60375 
" clip-path="url(#pb021bc9a86)" style="fill: none; stroke-dasharray: 1.5,2.475; stroke-dashoffset: 0; stroke: #004488; stroke-width: 1.5"/>
   </g>
   <g id="line2d_42">
    <path d="M 52.814375 319.345972 
L 69.290753 313.2967 
L 85.767131 300.441749 
L 102.243509 299.628463 
L 184.625399 274.200482 
L 349.389178 239.240234 
L 514.152958 218.778725 
" clip-path="url(#pb021bc9a86)" style="fill: none; stroke-dasharray: 5.55,2.4; stroke-dashoffset: 0; stroke: #ddaa33; stroke-width: 1.5"/>
   </g>
   <g id="line2d_43">
    <path d="M 69.290753 -1 
L 69.290753 301.792502 
L 85.767131 301.768102 
L 102.243509 301.753339 
L 184.625399 301.787727 
L 349.389178 302.114509 
L 514.152958 302.60375 
" clip-path="url(#pb021bc9a86)" style="fill: none; stroke: #ddaa33; stroke-width: 1.5; stroke-linecap: square"/>
   </g>
   <g id="line2d_44">
    <path d="M 52.814375 301.815257 
L 69.290753 301.791525 
L 85.767131 301.768102 
L 102.243509 301.753338 
L 184.625399 301.787727 
L 349.389178 302.114509 
L 514.152958 302.60375 
" clip-path="url(#pb021bc9a86)" style="fill: none; stroke-dasharray: 9.6,2.4,1.5,2.4; stroke-dashoffset: 0; stroke: #ddaa33; stroke-width: 1.5"/>
   </g>
   <g id="line2d_45">
    <path d="M 52.814375 301.821768 
L 69.290753 301.791506 
L 85.767131 301.768097 
L 102.243509 301.753338 
L 184.625399 301.787727 
L 349.389178 302.114509 
L 514.152958 302.60375 
" clip-path="url(#pb021bc9a86)" style="fill: none; stroke-dasharray: 1.5,2.475; stroke-dashoffset: 0; stroke: #ddaa33; stroke-width: 1.5"/>
   </g>
   <g id="line2d_46">
    <path d="M 52.814375 318.241702 
L 69.290753 310.73004 
L 85.767131 304.749074 
L 102.243509 298.730682 
L 184.625399 270.83811 
L 349.389178 231.740354 
L 514.152958 210.863784 
" clip-path="url(#pb021bc9a86)" style="fill: none; stroke-dasharray: 5.55,2.4; stroke-dashoffset: 0; stroke: #bb5566; stroke-width: 1.5"/>
   </g>
   <g id="line2d_47">
    <path d="M 52.814375 301.817019 
L 69.290753 301.791709 
L 85.767131 301.768097 
L 102.243509 301.753338 
L 184.625399 301.787727 
L 349.389178 302.114509 
L 514.152958 302.60375 
" clip-path="url(#pb021bc9a86)" style="fill: none; stroke: #bb5566; stroke-width: 1.5; stroke-linecap: square"/>
   </g>
   <g id="line2d_48">
    <path d="M 52.814375 301.815257 
L 69.290753 301.791505 
L 85.767131 301.768096 
L 102.243509 301.753346 
L 184.625399 301.787727 
L 349.389178 302.114509 
L 514.152958 302.60375 
" clip-path="url(#pb021bc9a86)" style="fill: none; stroke-dasharray: 9.6,2.4,1.5,2.4; stroke-dashoffset: 0; stroke: #bb5566; stroke-width: 1.5"/>
   </g>
   <g id="line2d_49">
    <path d="M 52.814375 301.815299 
L 69.290753 301.791679 
L 85.767131 301.768096 
L 102.243509 301.753338 
L 184.625399 301.787727 
L 349.389178 302.114509 
L 514.152958 302.60375 
" clip-path="url(#pb021bc9a86)" style="fill: none; stroke-dasharray: 1.5,2.475; stroke-dashoffset: 0; stroke: #bb5566; stroke-width: 1.5"/>
   </g>
   <g id="line2d_50">
    <path d="M 52.814375 329.632244 
L 69.290753 326.7592 
L 85.767131 324.241128 
L 102.243509 321.334818 
L 184.625399 308.984464 
L 349.389178 287.873252 
L 514.152958 270.386766 
" clip-path="url(#pb021bc9a86)" style="fill: none; stroke: #000000; stroke-width: 1.5; stroke-linecap: square"/>
   </g>
   <g id="line2d_51">
    <path d="M 19.861619 358.194493 
" clip-path="url(#pb021bc9a86)" style="fill: none; stroke-dasharray: 5.55,2.4; stroke-dashoffset: 0; stroke: #6699cc; stroke-width: 1.5"/>
   </g>
   <g id="line2d_52">
    <path d="M 19.861619 358.194493 
" clip-path="url(#pb021bc9a86)" style="fill: none; stroke-dasharray: 1.5,2.475; stroke-dashoffset: 0; stroke: #6699cc; stroke-width: 1.5"/>
   </g>
   <g id="line2d_53">
    <path d="M 19.861619 358.194493 
" clip-path="url(#pb021bc9a86)" style="fill: none; stroke-dasharray: 9.6,2.4,1.5,2.4; stroke-dashoffset: 0; stroke: #6699cc; stroke-width: 1.5"/>
   </g>
   <g id="line2d_54">
    <path d="M 19.861619 358.194493 
" clip-path="url(#pb021bc9a86)" style="fill: none; stroke: #6699cc; stroke-width: 1.5; stroke-linecap: square"/>
   </g>
   <g id="line2d_55">
    <path d="M 19.861619 358.194493 
" clip-path="url(#pb021bc9a86)" style="fill: none; stroke-dasharray: 5.55,2.4; stroke-dashoffset: 0; stroke: #004488; stroke-width: 1.5"/>
   </g>
   <g id="line2d_56">
    <path d="M 19.861619 358.194493 
" clip-path="url(#pb021bc9a86)" style="fill: none; stroke: #004488; stroke-width: 1.5; stroke-linecap: square"/>
   </g>
   <g id="line2d_57">
    <path d="M 19.861619 358.194493 
" clip-path="url(#pb021bc9a86)" style="fill: none; stroke-dasharray: 9.6,2.4,1.5,2.4; stroke-dashoffset: 0; stroke: #004488; stroke-width: 1.5"/>
   </g>
   <g id="line2d_58">
    <path d="M 19.861619 358.194493 
" clip-path="url(#pb021bc9a86)" style="fill: none; stroke-dasharray: 1.5,2.475; stroke-dashoffset: 0; stroke: #004488; stroke-width: 1.5"/>
   </g>
   <g id="line2d_59">
    <path d="M 19.861619 358.194493 
" clip-path="url(#pb021bc9a86)" style="fill: none; stroke-dasharray: 5.55,2.4; stroke-dashoffset: 0; stroke: #ddaa33; stroke-width: 1.5"/>
   </g>
   <g id="line2d_60">
    <path d="M 19.861619 358.194493 
" clip-path="url(#pb021bc9a86)" style="fill: none; stroke: #ddaa33; stroke-width: 1.5; stroke-linecap: square"/>
   </g>
   <g id="line2d_61">
    <path d="M 19.861619 358.194493 
" clip-path="url(#pb021bc9a86)" style="fill: none; stroke-dasharray: 9.6,2.4,1.5,2.4; stroke-dashoffset: 0; stroke: #ddaa33; stroke-width: 1.5"/>
   </g>
   <g id="line2d_62">
    <path d="M 19.861619 358.194493 
" clip-path="url(#pb021bc9a86)" style="fill: none; stroke-dasharray: 1.5,2.475; stroke-dashoffset: 0; stroke: #ddaa33; stroke-width: 1.5"/>
   </g>
   <g id="line2d_63">
    <path d="M 19.861619 358.194493 
" clip-path="url(#pb021bc9a86)" style="fill: none; stroke-dasharray: 5.55,2.4; stroke-dashoffset: 0; stroke: #bb5566; stroke-width: 1.5"/>
   </g>
   <g id="line2d_64">
    <path d="M 19.861619 358.194493 
" clip-path="url(#pb021bc9a86)" style="fill: none; stroke: #bb5566; stroke-width: 1.5; stroke-linecap: square"/>
   </g>
   <g id="line2d_65">
    <path d="M 19.861619 358.194493 
" clip-path="url(#pb021bc9a86)" style="fill: none; stroke-dasharray: 9.6,2.4,1.5,2.4; stroke-dashoffset: 0; stroke: #bb5566; stroke-width: 1.5"/>
   </g>
   <g id="line2d_66">
    <path d="M 19.861619 358.194493 
" clip-path="url(#pb021bc9a86)" style="fill: none; stroke-dasharray: 1.5,2.475; stroke-dashoffset: 0; stroke: #bb5566; stroke-width: 1.5"/>
   </g>
   <g id="line2d_67">
    <path d="M 19.861619 358.194493 
" clip-path="url(#pb021bc9a86)" style="fill: none; stroke: #000000; stroke-width: 1.5; stroke-linecap: square"/>
   </g>
   <g id="patch_8">
    <path d="M 52.814375 345.916934 
L 52.814375 198.586225 
" style="fill: none; stroke: #000000; stroke-width: 0.8; stroke-linejoin: miter; stroke-linecap: square"/>
   </g>
   <g id="patch_9">
    <path d="M 514.152958 345.916934 
L 514.152958 198.586225 
" style="fill: none; stroke: #000000; stroke-width: 0.8; stroke-linejoin: miter; stroke-linecap: square"/>
   </g>
   <g id="patch_10">
    <path d="M 52.814375 345.916934 
L 514.152958 345.916934 
" style="fill: none; stroke: #000000; stroke-width: 0.8; stroke-linejoin: miter; stroke-linecap: square"/>
   </g>
   <g id="patch_11">
    <path d="M 52.814375 198.586225 
L 514.152958 198.586225 
" style="fill: none; stroke: #000000; stroke-width: 0.8; stroke-linejoin: miter; stroke-linecap: square"/>
   </g>
   <g id="legend_1">
    <g id="patch_12">
     <path d="M 15.080517 481.354414 
L 550.387392 481.354414 
Q 552.787392 481.354414 552.787392 478.954414 
L 552.787392 395.282539 
Q 552.787392 392.882539 550.387392 392.882539 
L 15.080517 392.882539 
Q 12.680517 392.882539 12.680517 395.282539 
L 12.680517 478.954414 
Q 12.680517 481.354414 15.080517 481.354414 
z
" style="fill: #ffffff; opacity: 0.8; stroke: #cccccc; stroke-linejoin: miter"/>
    </g>
    <g id="line2d_68">
     <path d="M 17.480517 402.071914 
L 29.480517 402.071914 
L 41.480517 402.071914 
" style="fill: none; stroke-dasharray: 5.55,2.4; stroke-dashoffset: 0; stroke: #6699cc; stroke-width: 1.5"/>
    </g>
    <g id="text_21">
     <text style="font: 12px 'Arial'; text-anchor: start" x="51.080517" y="406.271914" transform="rotate(-0 51.080517 406.271914)">GRU Att 1</text>
    </g>
    <g id="line2d_69">
     <path d="M 17.480517 419.046289 
L 29.480517 419.046289 
L 41.480517 419.046289 
" style="fill: none; stroke-dasharray: 1.5,2.475; stroke-dashoffset: 0; stroke: #6699cc; stroke-width: 1.5"/>
    </g>
    <g id="text_22">
     <text style="font: 12px 'Arial'; text-anchor: start" x="51.080517" y="423.246289" transform="rotate(-0 51.080517 423.246289)">GRU Att 2</text>
    </g>
    <g id="line2d_70">
     <path d="M 17.480517 436.020664 
L 29.480517 436.020664 
L 41.480517 436.020664 
" style="fill: none; stroke-dasharray: 9.6,2.4,1.5,2.4; stroke-dashoffset: 0; stroke: #6699cc; stroke-width: 1.5"/>
    </g>
    <g id="text_23">
     <text style="font: 12px 'Arial'; text-anchor: start" x="51.080517" y="440.220664" transform="rotate(-0 51.080517 440.220664)">GRU Att 3</text>
    </g>
    <g id="line2d_71">
     <path d="M 17.480517 452.995039 
L 29.480517 452.995039 
L 41.480517 452.995039 
" style="fill: none; stroke: #6699cc; stroke-width: 1.5; stroke-linecap: square"/>
    </g>
    <g id="text_24">
     <text style="font: 12px 'Arial'; text-anchor: start" x="51.080517" y="457.195039" transform="rotate(-0 51.080517 457.195039)">GRU Att 4</text>
    </g>
    <g id="line2d_72">
     <path d="M 17.480517 469.969414 
L 29.480517 469.969414 
L 41.480517 469.969414 
" style="fill: none; stroke-dasharray: 5.55,2.4; stroke-dashoffset: 0; stroke: #004488; stroke-width: 1.5"/>
    </g>
    <g id="text_25">
     <text style="font: 12px 'Arial'; text-anchor: start" x="51.080517" y="474.169414" transform="rotate(-0 51.080517 474.169414)">GRU Linear</text>
    </g>
    <g id="line2d_73">
     <path d="M 138.434892 402.071914 
L 150.434892 402.071914 
L 162.434892 402.071914 
" style="fill: none; stroke: #004488; stroke-width: 1.5; stroke-linecap: square"/>
    </g>
    <g id="text_26">
     <text style="font: 12px 'Arial'; text-anchor: start" x="172.034892" y="406.271914" transform="rotate(-0 172.034892 406.271914)">GRU Reference</text>
    </g>
    <g id="line2d_74">
     <path d="M 138.434892 419.046289 
L 150.434892 419.046289 
L 162.434892 419.046289 
" style="fill: none; stroke-dasharray: 9.6,2.4,1.5,2.4; stroke-dashoffset: 0; stroke: #004488; stroke-width: 1.5"/>
    </g>
    <g id="text_27">
     <text style="font: 12px 'Arial'; text-anchor: start" x="172.034892" y="423.246289" transform="rotate(-0 172.034892 423.246289)">GRU Third</text>
    </g>
    <g id="line2d_75">
     <path d="M 138.434892 436.020664 
L 150.434892 436.020664 
L 162.434892 436.020664 
" style="fill: none; stroke-dasharray: 1.5,2.475; stroke-dashoffset: 0; stroke: #004488; stroke-width: 1.5"/>
    </g>
    <g id="text_28">
     <text style="font: 12px 'Arial'; text-anchor: start" x="172.034892" y="440.220664" transform="rotate(-0 172.034892 440.220664)">GRU Twice</text>
    </g>
    <g id="line2d_76">
     <path d="M 138.434892 452.995039 
L 150.434892 452.995039 
L 162.434892 452.995039 
" style="fill: none; stroke-dasharray: 5.55,2.4; stroke-dashoffset: 0; stroke: #ddaa33; stroke-width: 1.5"/>
    </g>
    <g id="text_29">
     <text style="font: 12px 'Arial'; text-anchor: start" x="172.034892" y="457.195039" transform="rotate(-0 172.034892 457.195039)">LSTM Linear</text>
    </g>
    <g id="line2d_77">
     <path d="M 281.396142 402.071914 
L 293.396142 402.071914 
L 305.396142 402.071914 
" style="fill: none; stroke: #ddaa33; stroke-width: 1.5; stroke-linecap: square"/>
    </g>
    <g id="text_30">
     <text style="font: 12px 'Arial'; text-anchor: start" x="314.996142" y="406.271914" transform="rotate(-0 314.996142 406.271914)">LSTM Reference</text>
    </g>
    <g id="line2d_78">
     <path d="M 281.396142 419.046289 
L 293.396142 419.046289 
L 305.396142 419.046289 
" style="fill: none; stroke-dasharray: 9.6,2.4,1.5,2.4; stroke-dashoffset: 0; stroke: #ddaa33; stroke-width: 1.5"/>
    </g>
    <g id="text_31">
     <text style="font: 12px 'Arial'; text-anchor: start" x="314.996142" y="423.246289" transform="rotate(-0 314.996142 423.246289)">LSTM Third</text>
    </g>
    <g id="line2d_79">
     <path d="M 281.396142 436.020664 
L 293.396142 436.020664 
L 305.396142 436.020664 
" style="fill: none; stroke-dasharray: 1.5,2.475; stroke-dashoffset: 0; stroke: #ddaa33; stroke-width: 1.5"/>
    </g>
    <g id="text_32">
     <text style="font: 12px 'Arial'; text-anchor: start" x="314.996142" y="440.220664" transform="rotate(-0 314.996142 440.220664)">LSTM Twice</text>
    </g>
    <g id="line2d_80">
     <path d="M 281.396142 452.995039 
L 293.396142 452.995039 
L 305.396142 452.995039 
" style="fill: none; stroke-dasharray: 5.55,2.4; stroke-dashoffset: 0; stroke: #bb5566; stroke-width: 1.5"/>
    </g>
    <g id="text_33">
     <text style="font: 12px 'Arial'; text-anchor: start" x="314.996142" y="457.195039" transform="rotate(-0 314.996142 457.195039)">RNN Linear</text>
    </g>
    <g id="line2d_81">
     <path d="M 429.693642 402.071914 
L 441.693642 402.071914 
L 453.693642 402.071914 
" style="fill: none; stroke: #bb5566; stroke-width: 1.5; stroke-linecap: square"/>
    </g>
    <g id="text_34">
     <text style="font: 12px 'Arial'; text-anchor: start" x="463.293642" y="406.271914" transform="rotate(-0 463.293642 406.271914)">RNN Reference</text>
    </g>
    <g id="line2d_82">
     <path d="M 429.693642 419.046289 
L 441.693642 419.046289 
L 453.693642 419.046289 
" style="fill: none; stroke-dasharray: 9.6,2.4,1.5,2.4; stroke-dashoffset: 0; stroke: #bb5566; stroke-width: 1.5"/>
    </g>
    <g id="text_35">
     <text style="font: 12px 'Arial'; text-anchor: start" x="463.293642" y="423.246289" transform="rotate(-0 463.293642 423.246289)">RNN Third</text>
    </g>
    <g id="line2d_83">
     <path d="M 429.693642 436.020664 
L 441.693642 436.020664 
L 453.693642 436.020664 
" style="fill: none; stroke-dasharray: 1.5,2.475; stroke-dashoffset: 0; stroke: #bb5566; stroke-width: 1.5"/>
    </g>
    <g id="text_36">
     <text style="font: 12px 'Arial'; text-anchor: start" x="463.293642" y="440.220664" transform="rotate(-0 463.293642 440.220664)">RNN Twice</text>
    </g>
    <g id="line2d_84">
     <path d="M 429.693642 452.995039 
L 441.693642 452.995039 
L 453.693642 452.995039 
" style="fill: none; stroke: #000000; stroke-width: 1.5; stroke-linecap: square"/>
    </g>
    <g id="text_37">
     <text style="font: 12px 'Arial'; text-anchor: start" x="463.293642" y="457.195039" transform="rotate(-0 463.293642 457.195039)">UniTS</text>
    </g>
   </g>
  </g>
 </g>
 <defs>
  <clipPath id="pcac3b9c999">
   <rect x="52.814375" y="21.789375" width="461.338583" height="147.330709"/>
  </clipPath>
  <clipPath id="pb021bc9a86">
   <rect x="52.814375" y="198.586225" width="461.338583" height="147.330709"/>
  </clipPath>
 </defs>
</svg>
