<?xml version="1.0" encoding="utf-8" standalone="no"?>
<!DOCTYPE svg PUBLIC "-//W3C//DTD SVG 1.1//EN"
  "http://www.w3.org/Graphics/SVG/1.1/DTD/svg11.dtd">
<svg xmlns:xlink="http://www.w3.org/1999/xlink" width="541.391083pt" height="431.671949pt" viewBox="0 0 541.391083 431.671949" xmlns="http://www.w3.org/2000/svg" version="1.1">
 <metadata>
  <rdf:RDF xmlns:dc="http://purl.org/dc/elements/1.1/" xmlns:cc="http://creativecommons.org/ns#" xmlns:rdf="http://www.w3.org/1999/02/22-rdf-syntax-ns#">
   <cc:Work>
    <dc:type rdf:resource="http://purl.org/dc/dcmitype/StillImage"/>
    <dc:date>2024-10-10T13:36:45.292019</dc:date>
    <dc:format>image/svg+xml</dc:format>
    <dc:creator>
     <cc:Agent>
      <dc:title>Matplotlib v3.7.0, https://matplotlib.org/</dc:title>
     </cc:Agent>
    </dc:creator>
   </cc:Work>
  </rdf:RDF>
 </metadata>
 <defs>
  <style type="text/css">*{stroke-linejoin: round; stroke-linecap: butt}</style>
 </defs>
 <g id="figure_1">
  <g id="patch_1">
   <path d="M 0 431.671949 
L 541.391083 431.671949 
L 541.391083 0 
L 0 0 
z
" style="fill: #ffffff"/>
  </g>
  <g id="axes_1">
   <g id="patch_2">
    <path d="M 66.179375 92.251888 
L 527.517958 92.251888 
L 527.517958 21.789375 
L 66.179375 21.789375 
z
" style="fill: #ffffff"/>
   </g>
   <g id="matplotlib.axis_1"/>
   <g id="matplotlib.axis_2">
    <g id="ytick_1">
     <g id="line2d_1">
      <defs>
       <path id="m5b45bb59d8" d="M 0 0 
L -3.5 0 
" style="stroke: #000000; stroke-width: 0.8"/>
      </defs>
      <g>
       <use xlink:href="#m5b45bb59d8" x="66.179375" y="71.36279" style="stroke: #000000; stroke-width: 0.8"/>
      </g>
     </g>
     <g id="text_1">
      <text style="font: 12px 'Arial'; text-anchor: end" x="59.179375" y="75.657478" transform="rotate(-0 59.179375 75.657478)">25</text>
     </g>
    </g>
    <g id="ytick_2">
     <g id="line2d_2">
      <g>
       <use xlink:href="#m5b45bb59d8" x="66.179375" y="43.081715" style="stroke: #000000; stroke-width: 0.8"/>
      </g>
     </g>
     <g id="text_2">
      <text style="font: 12px 'Arial'; text-anchor: end" x="59.179375" y="47.376402" transform="rotate(-0 59.179375 47.376402)">50</text>
     </g>
    </g>
    <g id="text_3">
     <text style="font: 12px 'Arial'; text-anchor: middle" x="39.3075" y="57.020631" transform="rotate(-90 39.3075 57.020631)">Heading</text>
    </g>
   </g>
   <g id="line2d_3">
    <path d="M 66.179375 86.380012 
L 82.655753 81.982071 
L 99.132131 77.865651 
L 115.608509 74.979546 
L 197.990399 62.764362 
L 362.754178 43.938462 
L 527.517958 27.661251 
" clip-path="url(#p51a6021614)" style="fill: none; stroke-dasharray: 5.55,2.4; stroke-dashoffset: 0; stroke: #6699cc; stroke-width: 1.5"/>
   </g>
   <g id="line2d_4">
    <path d="M 66.179375 81.435512 
L 82.655753 77.641446 
L 99.132131 74.347127 
L 115.608509 71.435387 
L 197.990399 60.306879 
L 362.754178 46.111816 
L 527.517958 36.729485 
" clip-path="url(#p51a6021614)" style="fill: none; stroke: #000000; stroke-width: 1.5; stroke-linecap: square"/>
   </g>
   <g id="patch_3">
    <path d="M 66.179375 92.251888 
L 66.179375 21.789375 
" style="fill: none; stroke: #000000; stroke-width: 0.8; stroke-linejoin: miter; stroke-linecap: square"/>
   </g>
   <g id="patch_4">
    <path d="M 527.517958 92.251888 
L 527.517958 21.789375 
" style="fill: none; stroke: #000000; stroke-width: 0.8; stroke-linejoin: miter; stroke-linecap: square"/>
   </g>
   <g id="patch_5">
    <path d="M 66.179375 92.251888 
L 527.517958 92.251888 
" style="fill: none; stroke: #000000; stroke-width: 0.8; stroke-linejoin: miter; stroke-linecap: square"/>
   </g>
   <g id="patch_6">
    <path d="M 66.179375 21.789375 
L 527.517958 21.789375 
" style="fill: none; stroke: #000000; stroke-width: 0.8; stroke-linejoin: miter; stroke-linecap: square"/>
   </g>
   <g id="text_4">
    <text style="font: 12px 'Arial'; text-anchor: middle" x="296.848666" y="15.789375" transform="rotate(-0 296.848666 15.789375)">MAE</text>
   </g>
  </g>
  <g id="axes_2">
   <g id="patch_7">
    <path d="M 66.179375 176.806903 
L 527.517958 176.806903 
L 527.517958 106.34439 
L 66.179375 106.34439 
z
" style="fill: #ffffff"/>
   </g>
   <g id="matplotlib.axis_3"/>
   <g id="matplotlib.axis_4">
    <g id="ytick_3">
     <g id="line2d_5">
      <g>
       <use xlink:href="#m5b45bb59d8" x="66.179375" y="161.2327" style="stroke: #000000; stroke-width: 0.8"/>
      </g>
     </g>
     <g id="text_5">
      <text style="font: 12px 'Arial'; text-anchor: end" x="59.179375" y="165.527388" transform="rotate(-0 59.179375 165.527388)">0.0001</text>
     </g>
    </g>
    <g id="ytick_4">
     <g id="line2d_6">
      <g>
       <use xlink:href="#m5b45bb59d8" x="66.179375" y="139.502249" style="stroke: #000000; stroke-width: 0.8"/>
      </g>
     </g>
     <g id="text_6">
      <text style="font: 12px 'Arial'; text-anchor: end" x="59.179375" y="143.796936" transform="rotate(-0 59.179375 143.796936)">0.0002</text>
     </g>
    </g>
    <g id="ytick_5">
     <g id="line2d_7">
      <g>
       <use xlink:href="#m5b45bb59d8" x="66.179375" y="117.771798" style="stroke: #000000; stroke-width: 0.8"/>
      </g>
     </g>
     <g id="text_7">
      <text style="font: 12px 'Arial'; text-anchor: end" x="59.179375" y="122.066485" transform="rotate(-0 59.179375 122.066485)">0.0003</text>
     </g>
    </g>
    <g id="text_8">
     <!-- $y$ offset -->
     <g transform="translate(15.96 161.495647) rotate(-90)">
      <text>
       <tspan style="font: oblique 12px 'DejaVu Sans'" x="0" y="-0.265625">y</tspan>
       <tspan style="font: 12px 'Arial'" x="7.101562 10.435547 17.109375 20.443359 23.777344 29.777344 36.451172" y="-0.265625"> offset</tspan>
      </text>
     </g>
    </g>
   </g>
   <g id="line2d_8">
    <path d="M 66.179375 170.935027 
L 82.655753 166.83308 
L 99.132131 163.739172 
L 115.608509 160.96964 
L 197.990399 138.254174 
L 362.754178 121.578768 
L 527.517958 112.216266 
" clip-path="url(#p5a1b3779b3)" style="fill: none; stroke-dasharray: 5.55,2.4; stroke-dashoffset: 0; stroke: #6699cc; stroke-width: 1.5"/>
   </g>
   <g id="line2d_9">
    <path d="M 66.179375 169.577557 
L 82.655753 165.872668 
L 99.132131 163.885982 
L 115.608509 161.058192 
L 197.990399 147.195912 
L 362.754178 131.19312 
L 527.517958 118.652507 
" clip-path="url(#p5a1b3779b3)" style="fill: none; stroke-dasharray: 1.5,2.475; stroke-dashoffset: 0; stroke: #6699cc; stroke-width: 1.5"/>
   </g>
   <g id="line2d_10">
    <path d="M 66.179375 170.276122 
L 82.655753 165.146379 
L 99.132131 161.451132 
L 115.608509 158.32852 
L 197.990399 147.919801 
L 362.754178 124.95435 
L 527.517958 112.653343 
" clip-path="url(#p5a1b3779b3)" style="fill: none; stroke: #6699cc; stroke-width: 1.5; stroke-linecap: square"/>
   </g>
   <g id="line2d_11">
    <path d="M 66.179375 167.438739 
L 82.655753 164.007197 
L 99.132131 160.9419 
L 115.608509 158.164577 
L 197.990399 147.155188 
L 362.754178 132.798654 
L 527.517958 123.831217 
" clip-path="url(#p5a1b3779b3)" style="fill: none; stroke: #000000; stroke-width: 1.5; stroke-linecap: square"/>
   </g>
   <g id="patch_8">
    <path d="M 66.179375 176.806903 
L 66.179375 106.34439 
" style="fill: none; stroke: #000000; stroke-width: 0.8; stroke-linejoin: miter; stroke-linecap: square"/>
   </g>
   <g id="patch_9">
    <path d="M 527.517958 176.806903 
L 527.517958 106.34439 
" style="fill: none; stroke: #000000; stroke-width: 0.8; stroke-linejoin: miter; stroke-linecap: square"/>
   </g>
   <g id="patch_10">
    <path d="M 66.179375 176.806903 
L 527.517958 176.806903 
" style="fill: none; stroke: #000000; stroke-width: 0.8; stroke-linejoin: miter; stroke-linecap: square"/>
   </g>
   <g id="patch_11">
    <path d="M 66.179375 106.34439 
L 527.517958 106.34439 
" style="fill: none; stroke: #000000; stroke-width: 0.8; stroke-linejoin: miter; stroke-linecap: square"/>
   </g>
  </g>
  <g id="axes_3">
   <g id="patch_12">
    <path d="M 66.179375 261.361919 
L 527.517958 261.361919 
L 527.517958 190.899406 
L 66.179375 190.899406 
z
" style="fill: #ffffff"/>
   </g>
   <g id="matplotlib.axis_5"/>
   <g id="matplotlib.axis_6">
    <g id="ytick_6">
     <g id="line2d_12">
      <g>
       <use xlink:href="#m5b45bb59d8" x="66.179375" y="233.697815" style="stroke: #000000; stroke-width: 0.8"/>
      </g>
     </g>
     <g id="text_9">
      <text style="font: 12px 'Arial'; text-anchor: end" x="59.179375" y="237.992502" transform="rotate(-0 59.179375 237.992502)">0.0002</text>
     </g>
    </g>
    <g id="ytick_7">
     <g id="line2d_13">
      <g>
       <use xlink:href="#m5b45bb59d8" x="66.179375" y="200.754388" style="stroke: #000000; stroke-width: 0.8"/>
      </g>
     </g>
     <g id="text_10">
      <text style="font: 12px 'Arial'; text-anchor: end" x="59.179375" y="205.049076" transform="rotate(-0 59.179375 205.049076)">0.0004</text>
     </g>
    </g>
    <g id="text_11">
     <!-- $x$ offset -->
     <g transform="translate(16.095 246.050662) rotate(-90)">
      <text>
       <tspan style="font: oblique 12px 'DejaVu Sans'" x="0" y="-0.265625">x</tspan>
       <tspan style="font: 12px 'Arial'" x="7.101562 10.435547 17.109375 20.443359 23.777344 29.777344 36.451172" y="-0.265625"> offset</tspan>
      </text>
     </g>
    </g>
   </g>
   <g id="line2d_14">
    <path d="M 66.179375 255.490043 
L 82.655753 251.698662 
L 99.132131 247.977653 
L 115.608509 245.707186 
L 197.990399 225.052831 
L 362.754178 204.355087 
L 527.517958 196.771282 
" clip-path="url(#p6daa293f87)" style="fill: none; stroke-dasharray: 5.55,2.4; stroke-dashoffset: 0; stroke: #6699cc; stroke-width: 1.5"/>
   </g>
   <g id="line2d_15">
    <path d="M 66.179375 254.922193 
L 82.655753 250.806914 
L 99.132131 247.668637 
L 115.608509 245.132666 
L 197.990399 232.874671 
L 362.754178 214.36512 
L 527.517958 200.053161 
" clip-path="url(#p6daa293f87)" style="fill: none; stroke-dasharray: 1.5,2.475; stroke-dashoffset: 0; stroke: #6699cc; stroke-width: 1.5"/>
   </g>
   <g id="line2d_16">
    <path d="M 66.179375 251.873044 
L 82.655753 248.55191 
L 99.132131 245.588014 
L 115.608509 242.90159 
L 197.990399 232.162182 
L 362.754178 217.948296 
L 527.517958 208.991951 
" clip-path="url(#p6daa293f87)" style="fill: none; stroke: #000000; stroke-width: 1.5; stroke-linecap: square"/>
   </g>
   <g id="patch_13">
    <path d="M 66.179375 261.361919 
L 66.179375 190.899406 
" style="fill: none; stroke: #000000; stroke-width: 0.8; stroke-linejoin: miter; stroke-linecap: square"/>
   </g>
   <g id="patch_14">
    <path d="M 527.517958 261.361919 
L 527.517958 190.899406 
" style="fill: none; stroke: #000000; stroke-width: 0.8; stroke-linejoin: miter; stroke-linecap: square"/>
   </g>
   <g id="patch_15">
    <path d="M 66.179375 261.361919 
L 527.517958 261.361919 
" style="fill: none; stroke: #000000; stroke-width: 0.8; stroke-linejoin: miter; stroke-linecap: square"/>
   </g>
   <g id="patch_16">
    <path d="M 66.179375 190.899406 
L 527.517958 190.899406 
" style="fill: none; stroke: #000000; stroke-width: 0.8; stroke-linejoin: miter; stroke-linecap: square"/>
   </g>
  </g>
  <g id="axes_4">
   <g id="patch_17">
    <path d="M 66.179375 345.916934 
L 527.517958 345.916934 
L 527.517958 275.454421 
L 66.179375 275.454421 
z
" style="fill: #ffffff"/>
   </g>
   <g id="matplotlib.axis_7">
    <g id="xtick_1">
     <g id="line2d_17">
      <defs>
       <path id="m3019dc4cc7" d="M 0 0 
L 0 3.5 
" style="stroke: #000000; stroke-width: 0.8"/>
      </defs>
      <g>
       <use xlink:href="#m3019dc4cc7" x="66.179375" y="345.916934" style="stroke: #000000; stroke-width: 0.8"/>
      </g>
     </g>
     <g id="text_12">
      <text style="font: 12px 'Arial'; text-anchor: middle" x="66.179375" y="361.506309" transform="rotate(-0 66.179375 361.506309)">2</text>
     </g>
    </g>
    <g id="xtick_2">
     <g id="line2d_18">
      <g>
       <use xlink:href="#m3019dc4cc7" x="82.655753" y="345.916934" style="stroke: #000000; stroke-width: 0.8"/>
      </g>
     </g>
     <g id="text_13">
      <text style="font: 12px 'Arial'; text-anchor: middle" x="82.655753" y="361.506309" transform="rotate(-0 82.655753 361.506309)">3</text>
     </g>
    </g>
    <g id="xtick_3">
     <g id="line2d_19">
      <g>
       <use xlink:href="#m3019dc4cc7" x="99.132131" y="345.916934" style="stroke: #000000; stroke-width: 0.8"/>
      </g>
     </g>
     <g id="text_14">
      <text style="font: 12px 'Arial'; text-anchor: middle" x="99.132131" y="361.506309" transform="rotate(-0 99.132131 361.506309)">4</text>
     </g>
    </g>
    <g id="xtick_4">
     <g id="line2d_20">
      <g>
       <use xlink:href="#m3019dc4cc7" x="115.608509" y="345.916934" style="stroke: #000000; stroke-width: 0.8"/>
      </g>
     </g>
     <g id="text_15">
      <text style="font: 12px 'Arial'; text-anchor: middle" x="115.608509" y="361.506309" transform="rotate(-0 115.608509 361.506309)">5</text>
     </g>
    </g>
    <g id="xtick_5">
     <g id="line2d_21">
      <g>
       <use xlink:href="#m3019dc4cc7" x="197.990399" y="345.916934" style="stroke: #000000; stroke-width: 0.8"/>
      </g>
     </g>
     <g id="text_16">
      <text style="font: 12px 'Arial'; text-anchor: middle" x="197.990399" y="361.506309" transform="rotate(-0 197.990399 361.506309)">10</text>
     </g>
    </g>
    <g id="xtick_6">
     <g id="line2d_22">
      <g>
       <use xlink:href="#m3019dc4cc7" x="362.754178" y="345.916934" style="stroke: #000000; stroke-width: 0.8"/>
      </g>
     </g>
     <g id="text_17">
      <text style="font: 12px 'Arial'; text-anchor: middle" x="362.754178" y="361.506309" transform="rotate(-0 362.754178 361.506309)">20</text>
     </g>
    </g>
    <g id="xtick_7">
     <g id="line2d_23">
      <g>
       <use xlink:href="#m3019dc4cc7" x="527.517958" y="345.916934" style="stroke: #000000; stroke-width: 0.8"/>
      </g>
     </g>
     <g id="text_18">
      <text style="font: 12px 'Arial'; text-anchor: middle" x="527.517958" y="361.506309" transform="rotate(-0 527.517958 361.506309)">30</text>
     </g>
    </g>
    <g id="text_19">
     <text style="font: 12px 'Arial'; text-anchor: middle" x="296.848666" y="376.480684" transform="rotate(-0 296.848666 376.480684)">Forecasting length</text>
    </g>
   </g>
   <g id="matplotlib.axis_8">
    <g id="ytick_8">
     <g id="line2d_24">
      <g>
       <use xlink:href="#m5b45bb59d8" x="66.179375" y="339.561138" style="stroke: #000000; stroke-width: 0.8"/>
      </g>
     </g>
     <g id="text_20">
      <text style="font: 12px 'Arial'; text-anchor: end" x="59.179375" y="343.855826" transform="rotate(-0 59.179375 343.855826)">2.5</text>
     </g>
    </g>
    <g id="ytick_9">
     <g id="line2d_25">
      <g>
       <use xlink:href="#m5b45bb59d8" x="66.179375" y="314.983646" style="stroke: #000000; stroke-width: 0.8"/>
      </g>
     </g>
     <g id="text_21">
      <text style="font: 12px 'Arial'; text-anchor: end" x="59.179375" y="319.278333" transform="rotate(-0 59.179375 319.278333)">5.0</text>
     </g>
    </g>
    <g id="ytick_10">
     <g id="line2d_26">
      <g>
       <use xlink:href="#m5b45bb59d8" x="66.179375" y="290.406153" style="stroke: #000000; stroke-width: 0.8"/>
      </g>
     </g>
     <g id="text_22">
      <text style="font: 12px 'Arial'; text-anchor: end" x="59.179375" y="294.700841" transform="rotate(-0 59.179375 294.700841)">7.5</text>
     </g>
    </g>
    <g id="text_23">
     <text style="font: 12px 'Arial'; text-anchor: middle" x="36.114375" y="310.685678" transform="rotate(-90 36.114375 310.685678)">Speed</text>
    </g>
   </g>
   <g id="line2d_27">
    <path d="M 66.179375 340.045058 
L 82.655753 330.663757 
L 99.132131 322.795561 
L 115.608509 316.439095 
L 197.990399 297.844464 
L 362.754178 286.623692 
L 527.517958 281.326297 
" clip-path="url(#p061c44611b)" style="fill: none; stroke-dasharray: 5.55,2.4; stroke-dashoffset: 0; stroke: #ddaa33; stroke-width: 1.5"/>
   </g>
   <g id="line2d_28">
    <path d="M 66.179375 337.162409 
L 82.655753 331.722091 
L 99.132131 326.971201 
L 115.608509 322.798375 
L 197.990399 308.384671 
L 362.754178 295.490707 
L 527.517958 289.284937 
" clip-path="url(#p061c44611b)" style="fill: none; stroke: #000000; stroke-width: 1.5; stroke-linecap: square"/>
   </g>
   <g id="line2d_29">
    <path d="M 33.226619 351.78881 
" clip-path="url(#p061c44611b)" style="fill: none; stroke-dasharray: 5.55,2.4; stroke-dashoffset: 0; stroke: #6699cc; stroke-width: 1.5"/>
   </g>
   <g id="line2d_30">
    <path d="M 33.226619 351.78881 
" clip-path="url(#p061c44611b)" style="fill: none; stroke-dasharray: 1.5,2.475; stroke-dashoffset: 0; stroke: #6699cc; stroke-width: 1.5"/>
   </g>
   <g id="line2d_31">
    <path d="M 33.226619 351.78881 
" clip-path="url(#p061c44611b)" style="fill: none; stroke: #6699cc; stroke-width: 1.5; stroke-linecap: square"/>
   </g>
   <g id="line2d_32">
    <path d="M 33.226619 351.78881 
" clip-path="url(#p061c44611b)" style="fill: none; stroke-dasharray: 5.55,2.4; stroke-dashoffset: 0; stroke: #ddaa33; stroke-width: 1.5"/>
   </g>
   <g id="line2d_33">
    <path d="M 33.226619 351.78881 
" clip-path="url(#p061c44611b)" style="fill: none; stroke: #000000; stroke-width: 1.5; stroke-linecap: square"/>
   </g>
   <g id="patch_18">
    <path d="M 66.179375 345.916934 
L 66.179375 275.454421 
" style="fill: none; stroke: #000000; stroke-width: 0.8; stroke-linejoin: miter; stroke-linecap: square"/>
   </g>
   <g id="patch_19">
    <path d="M 527.517958 345.916934 
L 527.517958 275.454421 
" style="fill: none; stroke: #000000; stroke-width: 0.8; stroke-linejoin: miter; stroke-linecap: square"/>
   </g>
   <g id="patch_20">
    <path d="M 66.179375 345.916934 
L 527.517958 345.916934 
" style="fill: none; stroke: #000000; stroke-width: 0.8; stroke-linejoin: miter; stroke-linecap: square"/>
   </g>
   <g id="patch_21">
    <path d="M 66.179375 275.454421 
L 527.517958 275.454421 
" style="fill: none; stroke: #000000; stroke-width: 0.8; stroke-linejoin: miter; stroke-linecap: square"/>
   </g>
   <g id="legend_1">
    <g id="patch_22">
     <path d="M 51.512446 424.471949 
L 472.779946 424.471949 
Q 475.179946 424.471949 475.179946 422.071949 
L 475.179946 389.323199 
Q 475.179946 386.923199 472.779946 386.923199 
L 51.512446 386.923199 
Q 49.112446 386.923199 49.112446 389.323199 
L 49.112446 422.071949 
Q 49.112446 424.471949 51.512446 424.471949 
z
" style="fill: #ffffff; opacity: 0.8; stroke: #cccccc; stroke-linejoin: miter"/>
    </g>
    <g id="line2d_34">
     <path d="M 53.912446 396.112574 
L 65.912446 396.112574 
L 77.912446 396.112574 
" style="fill: none; stroke-dasharray: 5.55,2.4; stroke-dashoffset: 0; stroke: #6699cc; stroke-width: 1.5"/>
    </g>
    <g id="text_24">
     <text style="font: 12px 'Arial'; text-anchor: start" x="87.512446" y="400.312574" transform="rotate(-0 87.512446 400.312574)">GRU Att 1</text>
    </g>
    <g id="line2d_35">
     <path d="M 53.912446 413.086949 
L 65.912446 413.086949 
L 77.912446 413.086949 
" style="fill: none; stroke-dasharray: 1.5,2.475; stroke-dashoffset: 0; stroke: #6699cc; stroke-width: 1.5"/>
    </g>
    <g id="text_25">
     <text style="font: 12px 'Arial'; text-anchor: start" x="87.512446" y="417.286949" transform="rotate(-0 87.512446 417.286949)">GRU Att 2</text>
    </g>
    <g id="line2d_36">
     <path d="M 165.531196 396.112574 
L 177.531196 396.112574 
L 189.531196 396.112574 
" style="fill: none; stroke: #6699cc; stroke-width: 1.5; stroke-linecap: square"/>
    </g>
    <g id="text_26">
     <text style="font: 12px 'Arial'; text-anchor: start" x="199.131196" y="400.312574" transform="rotate(-0 199.131196 400.312574)">GRU Att 4</text>
    </g>
    <g id="line2d_37">
     <path d="M 277.149946 396.112574 
L 289.149946 396.112574 
L 301.149946 396.112574 
" style="fill: none; stroke-dasharray: 5.55,2.4; stroke-dashoffset: 0; stroke: #ddaa33; stroke-width: 1.5"/>
    </g>
    <g id="text_27">
     <text style="font: 12px 'Arial'; text-anchor: start" x="310.749946" y="400.312574" transform="rotate(-0 310.749946 400.312574)">LSTM Linear</text>
    </g>
    <g id="line2d_38">
     <path d="M 403.440571 396.112574 
L 415.440571 396.112574 
L 427.440571 396.112574 
" style="fill: none; stroke: #000000; stroke-width: 1.5; stroke-linecap: square"/>
    </g>
    <g id="text_28">
     <text style="font: 12px 'Arial'; text-anchor: start" x="437.040571" y="400.312574" transform="rotate(-0 437.040571 400.312574)">UniTS</text>
    </g>
   </g>
  </g>
 </g>
 <defs>
  <clipPath id="p51a6021614">
   <rect x="66.179375" y="21.789375" width="461.338583" height="70.462513"/>
  </clipPath>
  <clipPath id="p5a1b3779b3">
   <rect x="66.179375" y="106.34439" width="461.338583" height="70.462513"/>
  </clipPath>
  <clipPath id="p6daa293f87">
   <rect x="66.179375" y="190.899406" width="461.338583" height="70.462513"/>
  </clipPath>
  <clipPath id="p061c44611b">
   <rect x="66.179375" y="275.454421" width="461.338583" height="70.462513"/>
  </clipPath>
 </defs>
</svg>
