<?xml version="1.0" encoding="utf-8" standalone="no"?>
<!DOCTYPE svg PUBLIC "-//W3C//DTD SVG 1.1//EN"
  "http://www.w3.org/Graphics/SVG/1.1/DTD/svg11.dtd">
<svg xmlns:xlink="http://www.w3.org/1999/xlink" width="527.885458pt" height="434.002574pt" viewBox="0 0 527.885458 434.002574" xmlns="http://www.w3.org/2000/svg" version="1.1">
 <metadata>
  <rdf:RDF xmlns:dc="http://purl.org/dc/elements/1.1/" xmlns:cc="http://creativecommons.org/ns#" xmlns:rdf="http://www.w3.org/1999/02/22-rdf-syntax-ns#">
   <cc:Work>
    <dc:type rdf:resource="http://purl.org/dc/dcmitype/StillImage"/>
    <dc:date>2024-10-28T14:46:21.291931</dc:date>
    <dc:format>image/svg+xml</dc:format>
    <dc:creator>
     <cc:Agent>
      <dc:title>Matplotlib v3.7.0, https://matplotlib.org/</dc:title>
     </cc:Agent>
    </dc:creator>
   </cc:Work>
  </rdf:RDF>
 </metadata>
 <defs>
  <style type="text/css">*{stroke-linejoin: round; stroke-linecap: butt}</style>
 </defs>
 <g id="figure_1">
  <g id="patch_1">
   <path d="M 0 434.002574 
L 527.885458 434.002574 
L 527.885458 -0 
L 0 -0 
z
" style="fill: #ffffff"/>
  </g>
  <g id="axes_1">
   <g id="patch_2">
    <path d="M 52.67375 94.582513 
L 514.012333 94.582513 
L 514.012333 24.12 
L 52.67375 24.12 
z
" style="fill: #ffffff"/>
   </g>
   <g id="matplotlib.axis_1"/>
   <g id="matplotlib.axis_2">
    <g id="ytick_1">
     <g id="line2d_1">
      <defs>
       <path id="mad248717bd" d="M 0 0 
L -3.5 0 
" style="stroke: #000000; stroke-width: 0.8"/>
      </defs>
      <g>
       <use xlink:href="#mad248717bd" x="52.67375" y="81.479073" style="stroke: #000000; stroke-width: 0.8"/>
      </g>
     </g>
     <g id="text_1">
      <text style="font: 12px 'Arial'; text-anchor: end" x="45.67375" y="85.773761" transform="rotate(-0 45.67375 85.773761)">0.25</text>
     </g>
    </g>
    <g id="ytick_2">
     <g id="line2d_2">
      <g>
       <use xlink:href="#mad248717bd" x="52.67375" y="60.438397" style="stroke: #000000; stroke-width: 0.8"/>
      </g>
     </g>
     <g id="text_2">
      <text style="font: 12px 'Arial'; text-anchor: end" x="45.67375" y="64.733085" transform="rotate(-0 45.67375 64.733085)">0.50</text>
     </g>
    </g>
    <g id="ytick_3">
     <g id="line2d_3">
      <g>
       <use xlink:href="#mad248717bd" x="52.67375" y="39.397722" style="stroke: #000000; stroke-width: 0.8"/>
      </g>
     </g>
     <g id="text_3">
      <text style="font: 12px 'Arial'; text-anchor: end" x="45.67375" y="43.692409" transform="rotate(-0 45.67375 43.692409)">0.75</text>
     </g>
    </g>
    <g id="text_4">
     <text style="font: 12px 'Arial'; text-anchor: middle" x="15.795" y="59.351256" transform="rotate(-90 15.795 59.351256)">Heading</text>
    </g>
   </g>
   <g id="line2d_4">
    <path d="M 52.67375 29.991876 
L 69.150128 35.82683 
L 85.626506 41.125694 
L 102.102884 44.897 
L 184.484774 58.843382 
L 349.248553 78.429267 
L 514.012333 88.710637 
" clip-path="url(#p0cc483467f)" style="fill: none; stroke-dasharray: 5.55,2.4; stroke-dashoffset: 0; stroke: #bb5566; stroke-width: 1.5"/>
   </g>
   <g id="line2d_5">
    <path d="M 52.67375 37.533851 
L 69.150128 40.119112 
L 85.626506 42.538778 
L 102.102884 44.819274 
L 184.484774 53.78989 
L 349.248553 65.305789 
L 514.012333 72.877545 
" clip-path="url(#p0cc483467f)" style="fill: none; stroke: #000000; stroke-width: 1.5; stroke-linecap: square"/>
   </g>
   <g id="patch_3">
    <path d="M 52.67375 94.582513 
L 52.67375 24.12 
" style="fill: none; stroke: #000000; stroke-width: 0.8; stroke-linejoin: miter; stroke-linecap: square"/>
   </g>
   <g id="patch_4">
    <path d="M 514.012333 94.582513 
L 514.012333 24.12 
" style="fill: none; stroke: #000000; stroke-width: 0.8; stroke-linejoin: miter; stroke-linecap: square"/>
   </g>
   <g id="patch_5">
    <path d="M 52.67375 94.582513 
L 514.012333 94.582513 
" style="fill: none; stroke: #000000; stroke-width: 0.8; stroke-linejoin: miter; stroke-linecap: square"/>
   </g>
   <g id="patch_6">
    <path d="M 52.67375 24.12 
L 514.012333 24.12 
" style="fill: none; stroke: #000000; stroke-width: 0.8; stroke-linejoin: miter; stroke-linecap: square"/>
   </g>
   <g id="text_5">
    <!-- $R^{2}$ (%) -->
    <g transform="translate(264.863041 18.12)">
     <text>
      <tspan style="font: oblique 12px 'DejaVu Sans'" x="0" y="-0.171875">R</tspan>
      <tspan style="font: 8.4px 'DejaVu Sans'" x="9.180078" y="-4.765625">2</tspan>
      <tspan style="font: 12px 'Arial'" x="14.852539 18.186523 22.182617 32.852539" y="-0.171875"> (%)</tspan>
     </text>
    </g>
   </g>
  </g>
  <g id="axes_2">
   <g id="patch_7">
    <path d="M 52.67375 179.137528 
L 514.012333 179.137528 
L 514.012333 108.675015 
L 52.67375 108.675015 
z
" style="fill: #ffffff"/>
   </g>
   <g id="matplotlib.axis_3"/>
   <g id="matplotlib.axis_4">
    <g id="ytick_4">
     <g id="line2d_6">
      <g>
       <use xlink:href="#mad248717bd" x="52.67375" y="162.918268" style="stroke: #000000; stroke-width: 0.8"/>
      </g>
     </g>
     <g id="text_6">
      <text style="font: 12px 'Arial'; text-anchor: end" x="45.67375" y="167.212956" transform="rotate(-0 45.67375 167.212956)">0</text>
     </g>
    </g>
    <g id="ytick_5">
     <g id="line2d_7">
      <g>
       <use xlink:href="#mad248717bd" x="52.67375" y="112.314945" style="stroke: #000000; stroke-width: 0.8"/>
      </g>
     </g>
     <g id="text_7">
      <text style="font: 12px 'Arial'; text-anchor: end" x="45.67375" y="116.609633" transform="rotate(-0 45.67375 116.609633)">1</text>
     </g>
    </g>
    <g id="text_8">
     <!-- $y$ offset -->
     <g transform="translate(32.480625 163.826272) rotate(-90)">
      <text>
       <tspan style="font: oblique 12px 'DejaVu Sans'" x="0" y="-0.265625">y</tspan>
       <tspan style="font: 12px 'Arial'" x="7.101562 10.435547 17.109375 20.443359 23.777344 29.777344 36.451172" y="-0.265625"> offset</tspan>
      </text>
     </g>
    </g>
   </g>
   <g id="line2d_8">
    <path d="M 52.67375 115.766586 
L 69.150128 117.403631 
L 85.626506 118.552475 
L 102.102884 120.414001 
L 184.484774 131.722712 
L 349.248553 148.314416 
L 514.012333 161.6562 
" clip-path="url(#p287ada82a1)" style="fill: none; stroke-dasharray: 1.5,2.475; stroke-dashoffset: 0; stroke: #6699cc; stroke-width: 1.5"/>
   </g>
   <g id="line2d_9">
    <path d="M 52.67375 114.546891 
L 69.150128 118.650308 
L 85.626506 122.391098 
L 102.102884 125.238348 
L 184.484774 139.714152 
L 349.248553 161.602574 
L 514.012333 173.265652 
" clip-path="url(#p287ada82a1)" style="fill: none; stroke: #004488; stroke-width: 1.5; stroke-linecap: square"/>
   </g>
   <g id="line2d_10">
    <path d="M 52.67375 115.427489 
L 69.150128 116.915076 
L 85.626506 121.093007 
L 102.102884 123.835998 
L 184.484774 139.583223 
L 349.248553 162.052223 
L 514.012333 173.257252 
" clip-path="url(#p287ada82a1)" style="fill: none; stroke-dasharray: 9.6,2.4,1.5,2.4; stroke-dashoffset: 0; stroke: #ddaa33; stroke-width: 1.5"/>
   </g>
   <g id="line2d_11">
    <path d="M 52.67375 116.019491 
L 69.150128 117.427976 
L 85.626506 118.963544 
L 102.102884 120.55451 
L 184.484774 128.508757 
L 349.248553 141.794065 
L 514.012333 150.636421 
" clip-path="url(#p287ada82a1)" style="fill: none; stroke: #000000; stroke-width: 1.5; stroke-linecap: square"/>
   </g>
   <g id="patch_8">
    <path d="M 52.67375 179.137528 
L 52.67375 108.675015 
" style="fill: none; stroke: #000000; stroke-width: 0.8; stroke-linejoin: miter; stroke-linecap: square"/>
   </g>
   <g id="patch_9">
    <path d="M 514.012333 179.137528 
L 514.012333 108.675015 
" style="fill: none; stroke: #000000; stroke-width: 0.8; stroke-linejoin: miter; stroke-linecap: square"/>
   </g>
   <g id="patch_10">
    <path d="M 52.67375 179.137528 
L 514.012333 179.137528 
" style="fill: none; stroke: #000000; stroke-width: 0.8; stroke-linejoin: miter; stroke-linecap: square"/>
   </g>
   <g id="patch_11">
    <path d="M 52.67375 108.675015 
L 514.012333 108.675015 
" style="fill: none; stroke: #000000; stroke-width: 0.8; stroke-linejoin: miter; stroke-linecap: square"/>
   </g>
  </g>
  <g id="axes_3">
   <g id="patch_12">
    <path d="M 52.67375 263.692544 
L 514.012333 263.692544 
L 514.012333 193.230031 
L 52.67375 193.230031 
z
" style="fill: #ffffff"/>
   </g>
   <g id="matplotlib.axis_5"/>
   <g id="matplotlib.axis_6">
    <g id="ytick_6">
     <g id="line2d_12">
      <g>
       <use xlink:href="#mad248717bd" x="52.67375" y="246.897312" style="stroke: #000000; stroke-width: 0.8"/>
      </g>
     </g>
     <g id="text_9">
      <text style="font: 12px 'Arial'; text-anchor: end" x="45.67375" y="251.192" transform="rotate(-0 45.67375 251.192)">0</text>
     </g>
    </g>
    <g id="ytick_7">
     <g id="line2d_13">
      <g>
       <use xlink:href="#mad248717bd" x="52.67375" y="197.567082" style="stroke: #000000; stroke-width: 0.8"/>
      </g>
     </g>
     <g id="text_10">
      <text style="font: 12px 'Arial'; text-anchor: end" x="45.67375" y="201.86177" transform="rotate(-0 45.67375 201.86177)">1</text>
     </g>
    </g>
    <g id="text_11">
     <!-- $x$ offset -->
     <g transform="translate(32.615625 248.381287) rotate(-90)">
      <text>
       <tspan style="font: oblique 12px 'DejaVu Sans'" x="0" y="-0.265625">x</tspan>
       <tspan style="font: 12px 'Arial'" x="7.101562 10.435547 17.109375 20.443359 23.777344 29.777344 36.451172" y="-0.265625"> offset</tspan>
      </text>
     </g>
    </g>
   </g>
   <g id="line2d_14">
    <path d="M 52.67375 199.894413 
L 69.150128 201.600779 
L 85.626506 203.62446 
L 102.102884 205.172343 
L 184.484774 222.120954 
L 349.248553 239.795937 
L 514.012333 245.457309 
" clip-path="url(#p08d73b8018)" style="fill: none; stroke-dasharray: 5.55,2.4; stroke-dashoffset: 0; stroke: #6699cc; stroke-width: 1.5"/>
   </g>
   <g id="line2d_15">
    <path d="M 52.67375 199.101907 
L 69.150128 202.496362 
L 85.626506 205.615763 
L 102.102884 209.316837 
L 184.484774 223.362707 
L 349.248553 247.222112 
L 514.012333 257.820668 
" clip-path="url(#p08d73b8018)" style="fill: none; stroke-dasharray: 9.6,2.4,1.5,2.4; stroke-dashoffset: 0; stroke: #ddaa33; stroke-width: 1.5"/>
   </g>
   <g id="line2d_16">
    <path d="M 52.67375 200.534052 
L 69.150128 201.926451 
L 85.626506 203.40549 
L 102.102884 204.936195 
L 184.484774 212.618008 
L 349.248553 225.924145 
L 514.012333 235.39587 
" clip-path="url(#p08d73b8018)" style="fill: none; stroke: #000000; stroke-width: 1.5; stroke-linecap: square"/>
   </g>
   <g id="patch_13">
    <path d="M 52.67375 263.692544 
L 52.67375 193.230031 
" style="fill: none; stroke: #000000; stroke-width: 0.8; stroke-linejoin: miter; stroke-linecap: square"/>
   </g>
   <g id="patch_14">
    <path d="M 514.012333 263.692544 
L 514.012333 193.230031 
" style="fill: none; stroke: #000000; stroke-width: 0.8; stroke-linejoin: miter; stroke-linecap: square"/>
   </g>
   <g id="patch_15">
    <path d="M 52.67375 263.692544 
L 514.012333 263.692544 
" style="fill: none; stroke: #000000; stroke-width: 0.8; stroke-linejoin: miter; stroke-linecap: square"/>
   </g>
   <g id="patch_16">
    <path d="M 52.67375 193.230031 
L 514.012333 193.230031 
" style="fill: none; stroke: #000000; stroke-width: 0.8; stroke-linejoin: miter; stroke-linecap: square"/>
   </g>
  </g>
  <g id="axes_4">
   <g id="patch_17">
    <path d="M 52.67375 348.247559 
L 514.012333 348.247559 
L 514.012333 277.785046 
L 52.67375 277.785046 
z
" style="fill: #ffffff"/>
   </g>
   <g id="matplotlib.axis_7">
    <g id="xtick_1">
     <g id="line2d_17">
      <defs>
       <path id="mea9ed20485" d="M 0 0 
L 0 3.5 
" style="stroke: #000000; stroke-width: 0.8"/>
      </defs>
      <g>
       <use xlink:href="#mea9ed20485" x="52.67375" y="348.247559" style="stroke: #000000; stroke-width: 0.8"/>
      </g>
     </g>
     <g id="text_12">
      <text style="font: 12px 'Arial'; text-anchor: middle" x="52.67375" y="363.836934" transform="rotate(-0 52.67375 363.836934)">2</text>
     </g>
    </g>
    <g id="xtick_2">
     <g id="line2d_18">
      <g>
       <use xlink:href="#mea9ed20485" x="69.150128" y="348.247559" style="stroke: #000000; stroke-width: 0.8"/>
      </g>
     </g>
     <g id="text_13">
      <text style="font: 12px 'Arial'; text-anchor: middle" x="69.150128" y="363.836934" transform="rotate(-0 69.150128 363.836934)">3</text>
     </g>
    </g>
    <g id="xtick_3">
     <g id="line2d_19">
      <g>
       <use xlink:href="#mea9ed20485" x="85.626506" y="348.247559" style="stroke: #000000; stroke-width: 0.8"/>
      </g>
     </g>
     <g id="text_14">
      <text style="font: 12px 'Arial'; text-anchor: middle" x="85.626506" y="363.836934" transform="rotate(-0 85.626506 363.836934)">4</text>
     </g>
    </g>
    <g id="xtick_4">
     <g id="line2d_20">
      <g>
       <use xlink:href="#mea9ed20485" x="102.102884" y="348.247559" style="stroke: #000000; stroke-width: 0.8"/>
      </g>
     </g>
     <g id="text_15">
      <text style="font: 12px 'Arial'; text-anchor: middle" x="102.102884" y="363.836934" transform="rotate(-0 102.102884 363.836934)">5</text>
     </g>
    </g>
    <g id="xtick_5">
     <g id="line2d_21">
      <g>
       <use xlink:href="#mea9ed20485" x="184.484774" y="348.247559" style="stroke: #000000; stroke-width: 0.8"/>
      </g>
     </g>
     <g id="text_16">
      <text style="font: 12px 'Arial'; text-anchor: middle" x="184.484774" y="363.836934" transform="rotate(-0 184.484774 363.836934)">10</text>
     </g>
    </g>
    <g id="xtick_6">
     <g id="line2d_22">
      <g>
       <use xlink:href="#mea9ed20485" x="349.248553" y="348.247559" style="stroke: #000000; stroke-width: 0.8"/>
      </g>
     </g>
     <g id="text_17">
      <text style="font: 12px 'Arial'; text-anchor: middle" x="349.248553" y="363.836934" transform="rotate(-0 349.248553 363.836934)">20</text>
     </g>
    </g>
    <g id="xtick_7">
     <g id="line2d_23">
      <g>
       <use xlink:href="#mea9ed20485" x="514.012333" y="348.247559" style="stroke: #000000; stroke-width: 0.8"/>
      </g>
     </g>
     <g id="text_18">
      <text style="font: 12px 'Arial'; text-anchor: middle" x="514.012333" y="363.836934" transform="rotate(-0 514.012333 363.836934)">30</text>
     </g>
    </g>
    <g id="text_19">
     <!-- Forecasting time ($s$) -->
     <g transform="translate(230.183041 378.981934)">
      <text>
       <tspan style="font: 12px 'Arial'" x="0 7.330078 14.003906 18 24.673828 30.673828 37.347656 43.347656 46.681641 49.347656 56.021484 62.695312 66.029297 69.363281 72.029297 82.025391 88.699219 92.033203 102.28125" y="-0.265625">Forecasting time ()</tspan>
       <tspan style="font: oblique 12px 'DejaVu Sans'" x="96.029297" y="-0.265625">s</tspan>
      </text>
     </g>
    </g>
   </g>
   <g id="matplotlib.axis_8">
    <g id="ytick_8">
     <g id="line2d_24">
      <g>
       <use xlink:href="#mad248717bd" x="52.67375" y="344.906827" style="stroke: #000000; stroke-width: 0.8"/>
      </g>
     </g>
     <g id="text_20">
      <text style="font: 12px 'Arial'; text-anchor: end" x="45.67375" y="349.201514" transform="rotate(-0 45.67375 349.201514)">0.50</text>
     </g>
    </g>
    <g id="ytick_9">
     <g id="line2d_25">
      <g>
       <use xlink:href="#mad248717bd" x="52.67375" y="310.452771" style="stroke: #000000; stroke-width: 0.8"/>
      </g>
     </g>
     <g id="text_21">
      <text style="font: 12px 'Arial'; text-anchor: end" x="45.67375" y="314.747458" transform="rotate(-0 45.67375 314.747458)">0.75</text>
     </g>
    </g>
    <g id="text_22">
     <text style="font: 12px 'Arial'; text-anchor: middle" x="15.935625" y="313.016303" transform="rotate(-90 15.935625 313.016303)">Speed</text>
    </g>
   </g>
   <g id="line2d_26">
    <path d="M 52.67375 283.656922 
L 69.150128 290.891241 
L 85.626506 298.305333 
L 102.102884 305.353921 
L 184.484774 326.801667 
L 349.248553 337.506371 
L 514.012333 342.375683 
" clip-path="url(#pb2d3c6534d)" style="fill: none; stroke-dasharray: 5.55,2.4; stroke-dashoffset: 0; stroke: #ddaa33; stroke-width: 1.5"/>
   </g>
   <g id="line2d_27">
    <path d="M 52.67375 284.946123 
L 69.150128 288.992373 
L 85.626506 293.119397 
L 102.102884 297.138342 
L 184.484774 313.075759 
L 349.248553 328.615804 
L 514.012333 335.8905 
" clip-path="url(#pb2d3c6534d)" style="fill: none; stroke: #000000; stroke-width: 1.5; stroke-linecap: square"/>
   </g>
   <g id="line2d_28">
    <path d="M 19.720994 354.119435 
" clip-path="url(#pb2d3c6534d)" style="fill: none; stroke-dasharray: 5.55,2.4; stroke-dashoffset: 0; stroke: #6699cc; stroke-width: 1.5"/>
   </g>
   <g id="line2d_29">
    <path d="M 19.720994 354.119435 
" clip-path="url(#pb2d3c6534d)" style="fill: none; stroke-dasharray: 1.5,2.475; stroke-dashoffset: 0; stroke: #6699cc; stroke-width: 1.5"/>
   </g>
   <g id="line2d_30">
    <path d="M 19.720994 354.119435 
" clip-path="url(#pb2d3c6534d)" style="fill: none; stroke: #004488; stroke-width: 1.5; stroke-linecap: square"/>
   </g>
   <g id="line2d_31">
    <path d="M 19.720994 354.119435 
" clip-path="url(#pb2d3c6534d)" style="fill: none; stroke-dasharray: 5.55,2.4; stroke-dashoffset: 0; stroke: #ddaa33; stroke-width: 1.5"/>
   </g>
   <g id="line2d_32">
    <path d="M 19.720994 354.119435 
" clip-path="url(#pb2d3c6534d)" style="fill: none; stroke-dasharray: 9.6,2.4,1.5,2.4; stroke-dashoffset: 0; stroke: #ddaa33; stroke-width: 1.5"/>
   </g>
   <g id="line2d_33">
    <path d="M 19.720994 354.119435 
" clip-path="url(#pb2d3c6534d)" style="fill: none; stroke-dasharray: 5.55,2.4; stroke-dashoffset: 0; stroke: #bb5566; stroke-width: 1.5"/>
   </g>
   <g id="line2d_34">
    <path d="M 19.720994 354.119435 
" clip-path="url(#pb2d3c6534d)" style="fill: none; stroke: #000000; stroke-width: 1.5; stroke-linecap: square"/>
   </g>
   <g id="patch_18">
    <path d="M 52.67375 348.247559 
L 52.67375 277.785046 
" style="fill: none; stroke: #000000; stroke-width: 0.8; stroke-linejoin: miter; stroke-linecap: square"/>
   </g>
   <g id="patch_19">
    <path d="M 514.012333 348.247559 
L 514.012333 277.785046 
" style="fill: none; stroke: #000000; stroke-width: 0.8; stroke-linejoin: miter; stroke-linecap: square"/>
   </g>
   <g id="patch_20">
    <path d="M 52.67375 348.247559 
L 514.012333 348.247559 
" style="fill: none; stroke: #000000; stroke-width: 0.8; stroke-linejoin: miter; stroke-linecap: square"/>
   </g>
   <g id="patch_21">
    <path d="M 52.67375 277.785046 
L 514.012333 277.785046 
" style="fill: none; stroke: #000000; stroke-width: 0.8; stroke-linejoin: miter; stroke-linecap: square"/>
   </g>
   <g id="legend_1">
    <g id="patch_22">
     <path d="M 38.006821 426.802574 
L 484.613071 426.802574 
Q 487.013071 426.802574 487.013071 424.402574 
L 487.013071 391.653824 
Q 487.013071 389.253824 484.613071 389.253824 
L 38.006821 389.253824 
Q 35.606821 389.253824 35.606821 391.653824 
L 35.606821 424.402574 
Q 35.606821 426.802574 38.006821 426.802574 
z
" style="fill: #ffffff; opacity: 0.8; stroke: #cccccc; stroke-linejoin: miter"/>
    </g>
    <g id="line2d_35">
     <path d="M 40.406821 398.443199 
L 52.406821 398.443199 
L 64.406821 398.443199 
" style="fill: none; stroke-dasharray: 5.55,2.4; stroke-dashoffset: 0; stroke: #6699cc; stroke-width: 1.5"/>
    </g>
    <g id="text_23">
     <text style="font: 12px 'Arial'; text-anchor: start" x="74.006821" y="402.643199" transform="rotate(-0 74.006821 402.643199)">GRU Att 1</text>
    </g>
    <g id="line2d_36">
     <path d="M 40.406821 415.417574 
L 52.406821 415.417574 
L 64.406821 415.417574 
" style="fill: none; stroke-dasharray: 1.5,2.475; stroke-dashoffset: 0; stroke: #6699cc; stroke-width: 1.5"/>
    </g>
    <g id="text_24">
     <text style="font: 12px 'Arial'; text-anchor: start" x="74.006821" y="419.617574" transform="rotate(-0 74.006821 419.617574)">GRU Att 2</text>
    </g>
    <g id="line2d_37">
     <path d="M 152.025571 398.443199 
L 164.025571 398.443199 
L 176.025571 398.443199 
" style="fill: none; stroke: #004488; stroke-width: 1.5; stroke-linecap: square"/>
    </g>
    <g id="text_25">
     <text style="font: 12px 'Arial'; text-anchor: start" x="185.625571" y="402.643199" transform="rotate(-0 185.625571 402.643199)">GRU Reference</text>
    </g>
    <g id="line2d_38">
     <path d="M 152.025571 415.417574 
L 164.025571 415.417574 
L 176.025571 415.417574 
" style="fill: none; stroke-dasharray: 5.55,2.4; stroke-dashoffset: 0; stroke: #ddaa33; stroke-width: 1.5"/>
    </g>
    <g id="text_26">
     <text style="font: 12px 'Arial'; text-anchor: start" x="185.625571" y="419.617574" transform="rotate(-0 185.625571 419.617574)">LSTM Linear</text>
    </g>
    <g id="line2d_39">
     <path d="M 294.986821 398.443199 
L 306.986821 398.443199 
L 318.986821 398.443199 
" style="fill: none; stroke-dasharray: 9.6,2.4,1.5,2.4; stroke-dashoffset: 0; stroke: #ddaa33; stroke-width: 1.5"/>
    </g>
    <g id="text_27">
     <text style="font: 12px 'Arial'; text-anchor: start" x="328.586821" y="402.643199" transform="rotate(-0 328.586821 402.643199)">LSTM Third</text>
    </g>
    <g id="line2d_40">
     <path d="M 294.986821 415.417574 
L 306.986821 415.417574 
L 318.986821 415.417574 
" style="fill: none; stroke-dasharray: 5.55,2.4; stroke-dashoffset: 0; stroke: #bb5566; stroke-width: 1.5"/>
    </g>
    <g id="text_28">
     <text style="font: 12px 'Arial'; text-anchor: start" x="328.586821" y="419.617574" transform="rotate(-0 328.586821 419.617574)">RNN Linear</text>
    </g>
    <g id="line2d_41">
     <path d="M 415.273696 398.443199 
L 427.273696 398.443199 
L 439.273696 398.443199 
" style="fill: none; stroke: #000000; stroke-width: 1.5; stroke-linecap: square"/>
    </g>
    <g id="text_29">
     <text style="font: 12px 'Arial'; text-anchor: start" x="448.873696" y="402.643199" transform="rotate(-0 448.873696 402.643199)">UniTS</text>
    </g>
   </g>
  </g>
 </g>
 <defs>
  <clipPath id="p0cc483467f">
   <rect x="52.67375" y="24.12" width="461.338583" height="70.462513"/>
  </clipPath>
  <clipPath id="p287ada82a1">
   <rect x="52.67375" y="108.675015" width="461.338583" height="70.462513"/>
  </clipPath>
  <clipPath id="p08d73b8018">
   <rect x="52.67375" y="193.230031" width="461.338583" height="70.462513"/>
  </clipPath>
  <clipPath id="pb2d3c6534d">
   <rect x="52.67375" y="277.785046" width="461.338583" height="70.462513"/>
  </clipPath>
 </defs>
</svg>
