<?xml version="1.0" encoding="utf-8" standalone="no"?>
<!DOCTYPE svg PUBLIC "-//W3C//DTD SVG 1.1//EN"
  "http://www.w3.org/Graphics/SVG/1.1/DTD/svg11.dtd">
<svg xmlns:xlink="http://www.w3.org/1999/xlink" width="506.941239pt" height="406.58607pt" viewBox="0 0 506.941239 406.58607" xmlns="http://www.w3.org/2000/svg" version="1.1">
 <metadata>
  <rdf:RDF xmlns:dc="http://purl.org/dc/elements/1.1/" xmlns:cc="http://creativecommons.org/ns#" xmlns:rdf="http://www.w3.org/1999/02/22-rdf-syntax-ns#">
   <cc:Work>
    <dc:type rdf:resource="http://purl.org/dc/dcmitype/StillImage"/>
    <dc:date>2024-10-09T11:40:39.013981</dc:date>
    <dc:format>image/svg+xml</dc:format>
    <dc:creator>
     <cc:Agent>
      <dc:title>Matplotlib v3.7.0, https://matplotlib.org/</dc:title>
     </cc:Agent>
    </dc:creator>
   </cc:Work>
  </rdf:RDF>
 </metadata>
 <defs>
  <style type="text/css">*{stroke-linejoin: round; stroke-linecap: butt}</style>
 </defs>
 <g id="figure_1">
  <g id="patch_1">
   <path d="M 0 406.58607 
L 506.941239 406.58607 
L 506.941239 0 
L 0 0 
z
" style="fill: #ffffff"/>
  </g>
  <g id="axes_1">
   <g id="patch_2">
    <path d="M 34.51 90.032513 
L 495.848583 90.032513 
L 495.848583 19.57 
L 34.51 19.57 
z
" style="fill: #ffffff"/>
   </g>
   <g id="matplotlib.axis_1"/>
   <g id="matplotlib.axis_2">
    <g id="ytick_1">
     <g id="line2d_1">
      <defs>
       <path id="m4a0a23da14" d="M 0 0 
L -3.5 0 
" style="stroke: #000000; stroke-width: 0.8"/>
      </defs>
      <g>
       <use xlink:href="#m4a0a23da14" x="34.51" y="81.137208" style="stroke: #000000; stroke-width: 0.8"/>
      </g>
     </g>
     <g id="text_1">
      <text style="font: 7px 'Arial'; text-anchor: end" x="27.51" y="83.642443" transform="rotate(-0 27.51 83.642443)">0.2</text>
     </g>
    </g>
    <g id="ytick_2">
     <g id="line2d_2">
      <g>
       <use xlink:href="#m4a0a23da14" x="34.51" y="64.304668" style="stroke: #000000; stroke-width: 0.8"/>
      </g>
     </g>
     <g id="text_2">
      <text style="font: 7px 'Arial'; text-anchor: end" x="27.51" y="66.809902" transform="rotate(-0 27.51 66.809902)">0.4</text>
     </g>
    </g>
    <g id="ytick_3">
     <g id="line2d_3">
      <g>
       <use xlink:href="#m4a0a23da14" x="34.51" y="47.472127" style="stroke: #000000; stroke-width: 0.8"/>
      </g>
     </g>
     <g id="text_3">
      <text style="font: 7px 'Arial'; text-anchor: end" x="27.51" y="49.977361" transform="rotate(-0 27.51 49.977361)">0.6</text>
     </g>
    </g>
    <g id="ytick_4">
     <g id="line2d_4">
      <g>
       <use xlink:href="#m4a0a23da14" x="34.51" y="30.639586" style="stroke: #000000; stroke-width: 0.8"/>
      </g>
     </g>
     <g id="text_4">
      <text style="font: 7px 'Arial'; text-anchor: end" x="27.51" y="33.144821" transform="rotate(-0 27.51 33.144821)">0.8</text>
     </g>
    </g>
    <g id="text_5">
     <text style="font: 7px 'Arial'; text-anchor: middle" x="12.306719" y="54.801256" transform="rotate(-90 12.306719 54.801256)">heading</text>
    </g>
   </g>
   <g id="line2d_5">
    <path d="M 34.51 25.441876 
L 50.986378 31.27683 
L 67.462756 36.575694 
L 83.939134 40.347 
L 166.321024 54.293382 
L 331.084803 73.879267 
L 495.848583 84.160637 
" clip-path="url(#p159fd97da2)" style="fill: none; stroke-dasharray: 5.55,2.4; stroke-dashoffset: 0; stroke: #bb5566; stroke-width: 1.5"/>
   </g>
   <g id="line2d_6">
    <path d="M 34.51 32.983851 
L 50.986378 35.569112 
L 67.462756 37.988778 
L 83.939134 40.269274 
L 166.321024 49.23989 
L 331.084803 60.755789 
L 495.848583 68.327545 
" clip-path="url(#p159fd97da2)" style="fill: none; stroke: #000000; stroke-width: 1.5; stroke-linecap: square"/>
   </g>
   <g id="patch_3">
    <path d="M 34.51 90.032513 
L 34.51 19.57 
" style="fill: none; stroke: #000000; stroke-width: 0.8; stroke-linejoin: miter; stroke-linecap: square"/>
   </g>
   <g id="patch_4">
    <path d="M 495.848583 90.032513 
L 495.848583 19.57 
" style="fill: none; stroke: #000000; stroke-width: 0.8; stroke-linejoin: miter; stroke-linecap: square"/>
   </g>
   <g id="patch_5">
    <path d="M 34.51 90.032513 
L 495.848583 90.032513 
" style="fill: none; stroke: #000000; stroke-width: 0.8; stroke-linejoin: miter; stroke-linecap: square"/>
   </g>
   <g id="patch_6">
    <path d="M 34.51 19.57 
L 495.848583 19.57 
" style="fill: none; stroke: #000000; stroke-width: 0.8; stroke-linejoin: miter; stroke-linecap: square"/>
   </g>
   <g id="text_6">
    <!-- $R^{2}$ (%) -->
    <g transform="translate(254.399291 13.57)">
     <text>
      <tspan style="font: oblique 7px 'DejaVu Sans'" x="0" y="-0.6781249999999996">R</tspan>
      <tspan style="font: 4.9px 'DejaVu Sans'" x="5.355775" y="-3.3578124999999996">2</tspan>
      <tspan style="font: 7px 'Arial'" x="8.66471 10.609535 12.940589 19.16471" y="-0.6781249999999996"> (%)</tspan>
     </text>
    </g>
   </g>
  </g>
  <g id="axes_2">
   <g id="patch_7">
    <path d="M 34.51 174.587528 
L 495.848583 174.587528 
L 495.848583 104.125015 
L 34.51 104.125015 
z
" style="fill: #ffffff"/>
   </g>
   <g id="matplotlib.axis_3"/>
   <g id="matplotlib.axis_4">
    <g id="ytick_5">
     <g id="line2d_7">
      <g>
       <use xlink:href="#m4a0a23da14" x="34.51" y="158.368268" style="stroke: #000000; stroke-width: 0.8"/>
      </g>
     </g>
     <g id="text_7">
      <text style="font: 7px 'Arial'; text-anchor: end" x="27.51" y="160.873502" transform="rotate(-0 27.51 160.873502)">0.0</text>
     </g>
    </g>
    <g id="ytick_6">
     <g id="line2d_8">
      <g>
       <use xlink:href="#m4a0a23da14" x="34.51" y="133.066607" style="stroke: #000000; stroke-width: 0.8"/>
      </g>
     </g>
     <g id="text_8">
      <text style="font: 7px 'Arial'; text-anchor: end" x="27.51" y="135.571841" transform="rotate(-0 27.51 135.571841)">0.5</text>
     </g>
    </g>
    <g id="ytick_7">
     <g id="line2d_9">
      <g>
       <use xlink:href="#m4a0a23da14" x="34.51" y="107.764945" style="stroke: #000000; stroke-width: 0.8"/>
      </g>
     </g>
     <g id="text_9">
      <text style="font: 7px 'Arial'; text-anchor: end" x="27.51" y="110.27018" transform="rotate(-0 27.51 110.27018)">1.0</text>
     </g>
    </g>
    <g id="text_10">
     <!-- $y$ offset -->
     <g transform="translate(12.31 150.976272) rotate(-90)">
      <text>
       <tspan style="font: oblique 7px 'DejaVu Sans'" x="0" y="-0.90625">y</tspan>
       <tspan style="font: 7px 'Arial'" x="4.142578 6.087402 9.980469 11.925293 13.870117 17.370117 21.263184" y="-0.90625"> offset</tspan>
      </text>
     </g>
    </g>
   </g>
   <g id="line2d_10">
    <path d="M 34.51 111.216586 
L 50.986378 112.853631 
L 67.462756 114.002475 
L 83.939134 115.864001 
L 166.321024 127.172712 
L 331.084803 143.764416 
L 495.848583 157.1062 
" clip-path="url(#p67d676ecb7)" style="fill: none; stroke-dasharray: 1.5,2.475; stroke-dashoffset: 0; stroke: #6699cc; stroke-width: 1.5"/>
   </g>
   <g id="line2d_11">
    <path d="M 34.51 109.996891 
L 50.986378 114.100308 
L 67.462756 117.841098 
L 83.939134 120.688348 
L 166.321024 135.164152 
L 331.084803 157.052574 
L 495.848583 168.715652 
" clip-path="url(#p67d676ecb7)" style="fill: none; stroke: #004488; stroke-width: 1.5; stroke-linecap: square"/>
   </g>
   <g id="line2d_12">
    <path d="M 34.51 110.877489 
L 50.986378 112.365076 
L 67.462756 116.543007 
L 83.939134 119.285998 
L 166.321024 135.033223 
L 331.084803 157.502223 
L 495.848583 168.707252 
" clip-path="url(#p67d676ecb7)" style="fill: none; stroke-dasharray: 9.6,2.4,1.5,2.4; stroke-dashoffset: 0; stroke: #ddaa33; stroke-width: 1.5"/>
   </g>
   <g id="line2d_13">
    <path d="M 34.51 111.469491 
L 50.986378 112.877976 
L 67.462756 114.413544 
L 83.939134 116.00451 
L 166.321024 123.958757 
L 331.084803 137.244065 
L 495.848583 146.086421 
" clip-path="url(#p67d676ecb7)" style="fill: none; stroke: #000000; stroke-width: 1.5; stroke-linecap: square"/>
   </g>
   <g id="patch_8">
    <path d="M 34.51 174.587528 
L 34.51 104.125015 
" style="fill: none; stroke: #000000; stroke-width: 0.8; stroke-linejoin: miter; stroke-linecap: square"/>
   </g>
   <g id="patch_9">
    <path d="M 495.848583 174.587528 
L 495.848583 104.125015 
" style="fill: none; stroke: #000000; stroke-width: 0.8; stroke-linejoin: miter; stroke-linecap: square"/>
   </g>
   <g id="patch_10">
    <path d="M 34.51 174.587528 
L 495.848583 174.587528 
" style="fill: none; stroke: #000000; stroke-width: 0.8; stroke-linejoin: miter; stroke-linecap: square"/>
   </g>
   <g id="patch_11">
    <path d="M 34.51 104.125015 
L 495.848583 104.125015 
" style="fill: none; stroke: #000000; stroke-width: 0.8; stroke-linejoin: miter; stroke-linecap: square"/>
   </g>
  </g>
  <g id="axes_3">
   <g id="patch_12">
    <path d="M 34.51 259.142544 
L 495.848583 259.142544 
L 495.848583 188.680031 
L 34.51 188.680031 
z
" style="fill: #ffffff"/>
   </g>
   <g id="matplotlib.axis_5"/>
   <g id="matplotlib.axis_6">
    <g id="ytick_8">
     <g id="line2d_14">
      <g>
       <use xlink:href="#m4a0a23da14" x="34.51" y="242.347312" style="stroke: #000000; stroke-width: 0.8"/>
      </g>
     </g>
     <g id="text_11">
      <text style="font: 7px 'Arial'; text-anchor: end" x="27.51" y="244.852547" transform="rotate(-0 27.51 244.852547)">0.0</text>
     </g>
    </g>
    <g id="ytick_9">
     <g id="line2d_15">
      <g>
       <use xlink:href="#m4a0a23da14" x="34.51" y="217.682197" style="stroke: #000000; stroke-width: 0.8"/>
      </g>
     </g>
     <g id="text_12">
      <text style="font: 7px 'Arial'; text-anchor: end" x="27.51" y="220.187432" transform="rotate(-0 27.51 220.187432)">0.5</text>
     </g>
    </g>
    <g id="ytick_10">
     <g id="line2d_16">
      <g>
       <use xlink:href="#m4a0a23da14" x="34.51" y="193.017082" style="stroke: #000000; stroke-width: 0.8"/>
      </g>
     </g>
     <g id="text_13">
      <text style="font: 7px 'Arial'; text-anchor: end" x="27.51" y="195.522316" transform="rotate(-0 27.51 195.522316)">1.0</text>
     </g>
    </g>
    <g id="text_14">
     <!-- $x$ offset -->
     <g transform="translate(12.38875 235.531287) rotate(-90)">
      <text>
       <tspan style="font: oblique 7px 'DejaVu Sans'" x="0" y="-0.90625">x</tspan>
       <tspan style="font: 7px 'Arial'" x="4.142578 6.087402 9.980469 11.925293 13.870117 17.370117 21.263184" y="-0.90625"> offset</tspan>
      </text>
     </g>
    </g>
   </g>
   <g id="line2d_17">
    <path d="M 34.51 195.344413 
L 50.986378 197.050779 
L 67.462756 199.07446 
L 83.939134 200.622343 
L 166.321024 217.570954 
L 331.084803 235.245937 
L 495.848583 240.907309 
" clip-path="url(#pe1ab384150)" style="fill: none; stroke-dasharray: 5.55,2.4; stroke-dashoffset: 0; stroke: #6699cc; stroke-width: 1.5"/>
   </g>
   <g id="line2d_18">
    <path d="M 34.51 194.551907 
L 50.986378 197.946362 
L 67.462756 201.065763 
L 83.939134 204.766837 
L 166.321024 218.812707 
L 331.084803 242.672112 
L 495.848583 253.270668 
" clip-path="url(#pe1ab384150)" style="fill: none; stroke-dasharray: 9.6,2.4,1.5,2.4; stroke-dashoffset: 0; stroke: #ddaa33; stroke-width: 1.5"/>
   </g>
   <g id="line2d_19">
    <path d="M 34.51 195.984052 
L 50.986378 197.376451 
L 67.462756 198.85549 
L 83.939134 200.386195 
L 166.321024 208.068008 
L 331.084803 221.374145 
L 495.848583 230.84587 
" clip-path="url(#pe1ab384150)" style="fill: none; stroke: #000000; stroke-width: 1.5; stroke-linecap: square"/>
   </g>
   <g id="patch_13">
    <path d="M 34.51 259.142544 
L 34.51 188.680031 
" style="fill: none; stroke: #000000; stroke-width: 0.8; stroke-linejoin: miter; stroke-linecap: square"/>
   </g>
   <g id="patch_14">
    <path d="M 495.848583 259.142544 
L 495.848583 188.680031 
" style="fill: none; stroke: #000000; stroke-width: 0.8; stroke-linejoin: miter; stroke-linecap: square"/>
   </g>
   <g id="patch_15">
    <path d="M 34.51 259.142544 
L 495.848583 259.142544 
" style="fill: none; stroke: #000000; stroke-width: 0.8; stroke-linejoin: miter; stroke-linecap: square"/>
   </g>
   <g id="patch_16">
    <path d="M 34.51 188.680031 
L 495.848583 188.680031 
" style="fill: none; stroke: #000000; stroke-width: 0.8; stroke-linejoin: miter; stroke-linecap: square"/>
   </g>
  </g>
  <g id="axes_4">
   <g id="patch_17">
    <path d="M 34.51 343.697559 
L 495.848583 343.697559 
L 495.848583 273.235046 
L 34.51 273.235046 
z
" style="fill: #ffffff"/>
   </g>
   <g id="matplotlib.axis_7">
    <g id="xtick_1">
     <g id="line2d_20">
      <defs>
       <path id="m2ef9da39cc" d="M 0 0 
L 0 3.5 
" style="stroke: #000000; stroke-width: 0.8"/>
      </defs>
      <g>
       <use xlink:href="#m2ef9da39cc" x="34.51" y="343.697559" style="stroke: #000000; stroke-width: 0.8"/>
      </g>
     </g>
     <g id="text_15">
      <text style="font: 7px 'Arial'; text-anchor: middle" x="34.51" y="355.708028" transform="rotate(-0 34.51 355.708028)">2</text>
     </g>
    </g>
    <g id="xtick_2">
     <g id="line2d_21">
      <g>
       <use xlink:href="#m2ef9da39cc" x="50.986378" y="343.697559" style="stroke: #000000; stroke-width: 0.8"/>
      </g>
     </g>
     <g id="text_16">
      <text style="font: 7px 'Arial'; text-anchor: middle" x="50.986378" y="355.708028" transform="rotate(-0 50.986378 355.708028)">3</text>
     </g>
    </g>
    <g id="xtick_3">
     <g id="line2d_22">
      <g>
       <use xlink:href="#m2ef9da39cc" x="67.462756" y="343.697559" style="stroke: #000000; stroke-width: 0.8"/>
      </g>
     </g>
     <g id="text_17">
      <text style="font: 7px 'Arial'; text-anchor: middle" x="67.462756" y="355.708028" transform="rotate(-0 67.462756 355.708028)">4</text>
     </g>
    </g>
    <g id="xtick_4">
     <g id="line2d_23">
      <g>
       <use xlink:href="#m2ef9da39cc" x="83.939134" y="343.697559" style="stroke: #000000; stroke-width: 0.8"/>
      </g>
     </g>
     <g id="text_18">
      <text style="font: 7px 'Arial'; text-anchor: middle" x="83.939134" y="355.708028" transform="rotate(-0 83.939134 355.708028)">5</text>
     </g>
    </g>
    <g id="xtick_5">
     <g id="line2d_24">
      <g>
       <use xlink:href="#m2ef9da39cc" x="166.321024" y="343.697559" style="stroke: #000000; stroke-width: 0.8"/>
      </g>
     </g>
     <g id="text_19">
      <text style="font: 7px 'Arial'; text-anchor: middle" x="166.321024" y="355.708028" transform="rotate(-0 166.321024 355.708028)">10</text>
     </g>
    </g>
    <g id="xtick_6">
     <g id="line2d_25">
      <g>
       <use xlink:href="#m2ef9da39cc" x="331.084803" y="343.697559" style="stroke: #000000; stroke-width: 0.8"/>
      </g>
     </g>
     <g id="text_20">
      <text style="font: 7px 'Arial'; text-anchor: middle" x="331.084803" y="355.708028" transform="rotate(-0 331.084803 355.708028)">20</text>
     </g>
    </g>
    <g id="xtick_7">
     <g id="line2d_26">
      <g>
       <use xlink:href="#m2ef9da39cc" x="495.848583" y="343.697559" style="stroke: #000000; stroke-width: 0.8"/>
      </g>
     </g>
     <g id="text_21">
      <text style="font: 7px 'Arial'; text-anchor: middle" x="495.848583" y="355.708028" transform="rotate(-0 495.848583 355.708028)">30</text>
     </g>
    </g>
    <g id="text_22">
     <text style="font: 7px 'Arial'; text-anchor: middle" x="265.179291" y="366.109747" transform="rotate(-0 265.179291 366.109747)">Forecasting length</text>
    </g>
   </g>
   <g id="matplotlib.axis_8">
    <g id="ytick_11">
     <g id="line2d_27">
      <g>
       <use xlink:href="#m4a0a23da14" x="34.51" y="326.575204" style="stroke: #000000; stroke-width: 0.8"/>
      </g>
     </g>
     <g id="text_23">
      <text style="font: 7px 'Arial'; text-anchor: end" x="27.51" y="329.080439" transform="rotate(-0 27.51 329.080439)">0.6</text>
     </g>
    </g>
    <g id="ytick_12">
     <g id="line2d_28">
      <g>
       <use xlink:href="#m4a0a23da14" x="34.51" y="299.011959" style="stroke: #000000; stroke-width: 0.8"/>
      </g>
     </g>
     <g id="text_24">
      <text style="font: 7px 'Arial'; text-anchor: end" x="27.51" y="301.517194" transform="rotate(-0 27.51 301.517194)">0.8</text>
     </g>
    </g>
    <g id="text_25">
     <text style="font: 7px 'Arial'; text-anchor: middle" x="12.38875" y="308.466303" transform="rotate(-90 12.38875 308.466303)">speed</text>
    </g>
   </g>
   <g id="line2d_29">
    <path d="M 34.51 279.106922 
L 50.986378 286.341241 
L 67.462756 293.755333 
L 83.939134 300.803921 
L 166.321024 322.251667 
L 331.084803 332.956371 
L 495.848583 337.825683 
" clip-path="url(#p0d01689d69)" style="fill: none; stroke-dasharray: 5.55,2.4; stroke-dashoffset: 0; stroke: #ddaa33; stroke-width: 1.5"/>
   </g>
   <g id="line2d_30">
    <path d="M 34.51 280.396123 
L 50.986378 284.442373 
L 67.462756 288.569397 
L 83.939134 292.588342 
L 166.321024 308.525759 
L 331.084803 324.065804 
L 495.848583 331.3405 
" clip-path="url(#p0d01689d69)" style="fill: none; stroke: #000000; stroke-width: 1.5; stroke-linecap: square"/>
   </g>
   <g id="line2d_31">
    <path d="M 1.557244 349.569435 
" clip-path="url(#p0d01689d69)" style="fill: none; stroke-dasharray: 5.55,2.4; stroke-dashoffset: 0; stroke: #6699cc; stroke-width: 1.5"/>
   </g>
   <g id="line2d_32">
    <path d="M 1.557244 349.569435 
" clip-path="url(#p0d01689d69)" style="fill: none; stroke-dasharray: 1.5,2.475; stroke-dashoffset: 0; stroke: #6699cc; stroke-width: 1.5"/>
   </g>
   <g id="line2d_33">
    <path d="M 1.557244 349.569435 
" clip-path="url(#p0d01689d69)" style="fill: none; stroke: #004488; stroke-width: 1.5; stroke-linecap: square"/>
   </g>
   <g id="line2d_34">
    <path d="M 1.557244 349.569435 
" clip-path="url(#p0d01689d69)" style="fill: none; stroke-dasharray: 5.55,2.4; stroke-dashoffset: 0; stroke: #ddaa33; stroke-width: 1.5"/>
   </g>
   <g id="line2d_35">
    <path d="M 1.557244 349.569435 
" clip-path="url(#p0d01689d69)" style="fill: none; stroke-dasharray: 9.6,2.4,1.5,2.4; stroke-dashoffset: 0; stroke: #ddaa33; stroke-width: 1.5"/>
   </g>
   <g id="line2d_36">
    <path d="M 1.557244 349.569435 
" clip-path="url(#p0d01689d69)" style="fill: none; stroke-dasharray: 5.55,2.4; stroke-dashoffset: 0; stroke: #bb5566; stroke-width: 1.5"/>
   </g>
   <g id="line2d_37">
    <path d="M 1.557244 349.569435 
" clip-path="url(#p0d01689d69)" style="fill: none; stroke: #000000; stroke-width: 1.5; stroke-linecap: square"/>
   </g>
   <g id="patch_18">
    <path d="M 34.51 343.697559 
L 34.51 273.235046 
" style="fill: none; stroke: #000000; stroke-width: 0.8; stroke-linejoin: miter; stroke-linecap: square"/>
   </g>
   <g id="patch_19">
    <path d="M 495.848583 343.697559 
L 495.848583 273.235046 
" style="fill: none; stroke: #000000; stroke-width: 0.8; stroke-linejoin: miter; stroke-linecap: square"/>
   </g>
   <g id="patch_20">
    <path d="M 34.51 343.697559 
L 495.848583 343.697559 
" style="fill: none; stroke: #000000; stroke-width: 0.8; stroke-linejoin: miter; stroke-linecap: square"/>
   </g>
   <g id="patch_21">
    <path d="M 34.51 273.235046 
L 495.848583 273.235046 
" style="fill: none; stroke: #000000; stroke-width: 0.8; stroke-linejoin: miter; stroke-linecap: square"/>
   </g>
   <g id="legend_1">
    <g id="patch_22">
     <path d="M 16.343071 399.38607 
L 485.68104 399.38607 
Q 487.08104 399.38607 487.08104 397.98607 
L 487.08104 388.784351 
Q 487.08104 387.384351 485.68104 387.384351 
L 16.343071 387.384351 
Q 14.943071 387.384351 14.943071 388.784351 
L 14.943071 397.98607 
Q 14.943071 399.38607 16.343071 399.38607 
z
" style="fill: #ffffff; opacity: 0.8; stroke: #cccccc; stroke-linejoin: miter"/>
    </g>
    <g id="line2d_38">
     <path d="M 17.743071 392.74482 
L 24.743071 392.74482 
L 31.743071 392.74482 
" style="fill: none; stroke-dasharray: 5.55,2.4; stroke-dashoffset: 0; stroke: #6699cc; stroke-width: 1.5"/>
    </g>
    <g id="text_26">
     <text style="font: 7px 'Arial'; text-anchor: start" x="37.343071" y="395.19482" transform="rotate(-0 37.343071 395.19482)">GRU Att 1</text>
    </g>
    <g id="line2d_39">
     <path d="M 82.854008 392.74482 
L 89.854008 392.74482 
L 96.854008 392.74482 
" style="fill: none; stroke-dasharray: 1.5,2.475; stroke-dashoffset: 0; stroke: #6699cc; stroke-width: 1.5"/>
    </g>
    <g id="text_27">
     <text style="font: 7px 'Arial'; text-anchor: start" x="102.454008" y="395.19482" transform="rotate(-0 102.454008 395.19482)">GRU Att 2</text>
    </g>
    <g id="line2d_40">
     <path d="M 147.964946 392.74482 
L 154.964946 392.74482 
L 161.964946 392.74482 
" style="fill: none; stroke: #004488; stroke-width: 1.5; stroke-linecap: square"/>
    </g>
    <g id="text_28">
     <text style="font: 7px 'Arial'; text-anchor: start" x="167.564946" y="395.19482" transform="rotate(-0 167.564946 395.19482)">GRU Reference</text>
    </g>
    <g id="line2d_41">
     <path d="M 231.359008 392.74482 
L 238.359008 392.74482 
L 245.359008 392.74482 
" style="fill: none; stroke-dasharray: 5.55,2.4; stroke-dashoffset: 0; stroke: #ddaa33; stroke-width: 1.5"/>
    </g>
    <g id="text_29">
     <text style="font: 7px 'Arial'; text-anchor: start" x="250.959008" y="395.19482" transform="rotate(-0 250.959008 395.19482)">LSTM Linear</text>
    </g>
    <g id="line2d_42">
     <path d="M 305.02854 392.74482 
L 312.02854 392.74482 
L 319.02854 392.74482 
" style="fill: none; stroke-dasharray: 9.6,2.4,1.5,2.4; stroke-dashoffset: 0; stroke: #ddaa33; stroke-width: 1.5"/>
    </g>
    <g id="text_30">
     <text style="font: 7px 'Arial'; text-anchor: start" x="324.62854" y="395.19482" transform="rotate(-0 324.62854 395.19482)">LSTM Third</text>
    </g>
    <g id="line2d_43">
     <path d="M 375.065727 392.74482 
L 382.065727 392.74482 
L 389.065727 392.74482 
" style="fill: none; stroke-dasharray: 5.55,2.4; stroke-dashoffset: 0; stroke: #bb5566; stroke-width: 1.5"/>
    </g>
    <g id="text_31">
     <text style="font: 7px 'Arial'; text-anchor: start" x="394.665727" y="395.19482" transform="rotate(-0 394.665727 395.19482)">RNN Linear</text>
    </g>
    <g id="line2d_44">
     <path d="M 445.233071 392.74482 
L 452.233071 392.74482 
L 459.233071 392.74482 
" style="fill: none; stroke: #000000; stroke-width: 1.5; stroke-linecap: square"/>
    </g>
    <g id="text_32">
     <text style="font: 7px 'Arial'; text-anchor: start" x="464.833071" y="395.19482" transform="rotate(-0 464.833071 395.19482)">UniTS</text>
    </g>
   </g>
  </g>
 </g>
 <defs>
  <clipPath id="p159fd97da2">
   <rect x="34.51" y="19.57" width="461.338583" height="70.462513"/>
  </clipPath>
  <clipPath id="p67d676ecb7">
   <rect x="34.51" y="104.125015" width="461.338583" height="70.462513"/>
  </clipPath>
  <clipPath id="pe1ab384150">
   <rect x="34.51" y="188.680031" width="461.338583" height="70.462513"/>
  </clipPath>
  <clipPath id="p0d01689d69">
   <rect x="34.51" y="273.235046" width="461.338583" height="70.462513"/>
  </clipPath>
 </defs>
</svg>
