<?xml version="1.0" encoding="utf-8" standalone="no"?>
<!DOCTYPE svg PUBLIC "-//W3C//DTD SVG 1.1//EN"
  "http://www.w3.org/Graphics/SVG/1.1/DTD/svg11.dtd">
<svg xmlns:xlink="http://www.w3.org/1999/xlink" width="528.361708pt" height="420.166299pt" viewBox="0 0 528.361708 420.166299" xmlns="http://www.w3.org/2000/svg" version="1.1">
 <metadata>
  <rdf:RDF xmlns:dc="http://purl.org/dc/elements/1.1/" xmlns:cc="http://creativecommons.org/ns#" xmlns:rdf="http://www.w3.org/1999/02/22-rdf-syntax-ns#">
   <cc:Work>
    <dc:type rdf:resource="http://purl.org/dc/dcmitype/StillImage"/>
    <dc:date>2024-10-28T14:46:47.196388</dc:date>
    <dc:format>image/svg+xml</dc:format>
    <dc:creator>
     <cc:Agent>
      <dc:title>Matplotlib v3.7.0, https://matplotlib.org/</dc:title>
     </cc:Agent>
    </dc:creator>
   </cc:Work>
  </rdf:RDF>
 </metadata>
 <defs>
  <style type="text/css">*{stroke-linejoin: round; stroke-linecap: butt}</style>
 </defs>
 <g id="figure_1">
  <g id="patch_1">
   <path d="M 0 420.166299 
L 528.361708 420.166299 
L 528.361708 0 
L 0 0 
z
" style="fill: #ffffff"/>
  </g>
  <g id="axes_1">
   <g id="patch_2">
    <path d="M 53.15 171.450709 
L 514.488583 171.450709 
L 514.488583 24.12 
L 53.15 24.12 
z
" style="fill: #ffffff"/>
   </g>
   <g id="matplotlib.axis_1"/>
   <g id="matplotlib.axis_2">
    <g id="ytick_1">
     <g id="line2d_1">
      <defs>
       <path id="md50a84cf1b" d="M 0 0 
L -3.5 0 
" style="stroke: #000000; stroke-width: 0.8"/>
      </defs>
      <g>
       <use xlink:href="#md50a84cf1b" x="53.15" y="148.327892" style="stroke: #000000; stroke-width: 0.8"/>
      </g>
     </g>
     <g id="text_1">
      <text style="font: 12px 'Arial'; text-anchor: end" x="46.15" y="152.62258" transform="rotate(-0 46.15 152.62258)">0.00</text>
     </g>
    </g>
    <g id="ytick_2">
     <g id="line2d_2">
      <g>
       <use xlink:href="#md50a84cf1b" x="53.15" y="120.288691" style="stroke: #000000; stroke-width: 0.8"/>
      </g>
     </g>
     <g id="text_2">
      <text style="font: 12px 'Arial'; text-anchor: end" x="46.15" y="124.583378" transform="rotate(-0 46.15 124.583378)">0.25</text>
     </g>
    </g>
    <g id="ytick_3">
     <g id="line2d_3">
      <g>
       <use xlink:href="#md50a84cf1b" x="53.15" y="92.24949" style="stroke: #000000; stroke-width: 0.8"/>
      </g>
     </g>
     <g id="text_3">
      <text style="font: 12px 'Arial'; text-anchor: end" x="46.15" y="96.544177" transform="rotate(-0 46.15 96.544177)">0.50</text>
     </g>
    </g>
    <g id="ytick_4">
     <g id="line2d_4">
      <g>
       <use xlink:href="#md50a84cf1b" x="53.15" y="64.210289" style="stroke: #000000; stroke-width: 0.8"/>
      </g>
     </g>
     <g id="text_4">
      <text style="font: 12px 'Arial'; text-anchor: end" x="46.15" y="68.504976" transform="rotate(-0 46.15 68.504976)">0.75</text>
     </g>
    </g>
    <g id="ytick_5">
     <g id="line2d_5">
      <g>
       <use xlink:href="#md50a84cf1b" x="53.15" y="36.171088" style="stroke: #000000; stroke-width: 0.8"/>
      </g>
     </g>
     <g id="text_5">
      <text style="font: 12px 'Arial'; text-anchor: end" x="46.15" y="40.465775" transform="rotate(-0 46.15 40.465775)">1.00</text>
     </g>
    </g>
    <g id="text_6">
     <!-- $x$ and $y$ offset -->
     <g transform="translate(16.276875 134.625354) rotate(-90)">
      <text>
       <tspan style="font: oblique 12px 'DejaVu Sans'" x="0 33.791016" y="-0.265625">xy</tspan>
       <tspan style="font: 12px 'Arial'" x="7.101562 10.435547 17.109375 23.783203 30.457031 40.892578 44.226562 50.900391 54.234375 57.568359 63.568359 70.242188" y="-0.265625"> and  offset</tspan>
      </text>
     </g>
    </g>
   </g>
   <g id="line2d_6">
    <path d="M 53.15 36.397559 
L 69.626378 36.540774 
L 86.102756 36.738789 
L 102.579134 37.169583 
L 184.961024 52.285904 
L 349.724803 116.531822 
L 514.488583 159.17315 
" clip-path="url(#pb1183554d1)" style="fill: none; stroke: #6699cc; stroke-width: 1.5; stroke-linecap: square"/>
   </g>
   <g id="line2d_7">
    <path d="M 53.15 36.951883 
L 69.626378 36.872734 
L 86.102756 36.663848 
L 102.579134 36.888595 
L 184.961024 38.000056 
L 349.724803 39.862675 
L 514.488583 42.394111 
" clip-path="url(#pb1183554d1)" style="fill: none; stroke: #000000; stroke-width: 1.5; stroke-linecap: square"/>
   </g>
   <g id="patch_3">
    <path d="M 53.15 171.450709 
L 53.15 24.12 
" style="fill: none; stroke: #000000; stroke-width: 0.8; stroke-linejoin: miter; stroke-linecap: square"/>
   </g>
   <g id="patch_4">
    <path d="M 514.488583 171.450709 
L 514.488583 24.12 
" style="fill: none; stroke: #000000; stroke-width: 0.8; stroke-linejoin: miter; stroke-linecap: square"/>
   </g>
   <g id="patch_5">
    <path d="M 53.15 171.450709 
L 514.488583 171.450709 
" style="fill: none; stroke: #000000; stroke-width: 0.8; stroke-linejoin: miter; stroke-linecap: square"/>
   </g>
   <g id="patch_6">
    <path d="M 53.15 24.12 
L 514.488583 24.12 
" style="fill: none; stroke: #000000; stroke-width: 0.8; stroke-linejoin: miter; stroke-linecap: square"/>
   </g>
   <g id="text_7">
    <!-- $R^{2}$ (%) -->
    <g transform="translate(265.339291 18.12)">
     <text>
      <tspan style="font: oblique 12px 'DejaVu Sans'" x="0" y="-0.171875">R</tspan>
      <tspan style="font: 8.4px 'DejaVu Sans'" x="9.180078" y="-4.765625">2</tspan>
      <tspan style="font: 12px 'Arial'" x="14.852539 18.186523 22.182617 32.852539" y="-0.171875"> (%)</tspan>
     </text>
    </g>
   </g>
  </g>
  <g id="axes_2">
   <g id="patch_7">
    <path d="M 53.15 348.247559 
L 514.488583 348.247559 
L 514.488583 200.91685 
L 53.15 200.91685 
z
" style="fill: #ffffff"/>
   </g>
   <g id="matplotlib.axis_3">
    <g id="xtick_1">
     <g id="line2d_8">
      <defs>
       <path id="m78bb9ee450" d="M 0 0 
L 0 3.5 
" style="stroke: #000000; stroke-width: 0.8"/>
      </defs>
      <g>
       <use xlink:href="#m78bb9ee450" x="53.15" y="348.247559" style="stroke: #000000; stroke-width: 0.8"/>
      </g>
     </g>
     <g id="text_8">
      <text style="font: 12px 'Arial'; text-anchor: middle" x="53.15" y="363.836934" transform="rotate(-0 53.15 363.836934)">2</text>
     </g>
    </g>
    <g id="xtick_2">
     <g id="line2d_9">
      <g>
       <use xlink:href="#m78bb9ee450" x="69.626378" y="348.247559" style="stroke: #000000; stroke-width: 0.8"/>
      </g>
     </g>
     <g id="text_9">
      <text style="font: 12px 'Arial'; text-anchor: middle" x="69.626378" y="363.836934" transform="rotate(-0 69.626378 363.836934)">3</text>
     </g>
    </g>
    <g id="xtick_3">
     <g id="line2d_10">
      <g>
       <use xlink:href="#m78bb9ee450" x="86.102756" y="348.247559" style="stroke: #000000; stroke-width: 0.8"/>
      </g>
     </g>
     <g id="text_10">
      <text style="font: 12px 'Arial'; text-anchor: middle" x="86.102756" y="363.836934" transform="rotate(-0 86.102756 363.836934)">4</text>
     </g>
    </g>
    <g id="xtick_4">
     <g id="line2d_11">
      <g>
       <use xlink:href="#m78bb9ee450" x="102.579134" y="348.247559" style="stroke: #000000; stroke-width: 0.8"/>
      </g>
     </g>
     <g id="text_11">
      <text style="font: 12px 'Arial'; text-anchor: middle" x="102.579134" y="363.836934" transform="rotate(-0 102.579134 363.836934)">5</text>
     </g>
    </g>
    <g id="xtick_5">
     <g id="line2d_12">
      <g>
       <use xlink:href="#m78bb9ee450" x="184.961024" y="348.247559" style="stroke: #000000; stroke-width: 0.8"/>
      </g>
     </g>
     <g id="text_12">
      <text style="font: 12px 'Arial'; text-anchor: middle" x="184.961024" y="363.836934" transform="rotate(-0 184.961024 363.836934)">10</text>
     </g>
    </g>
    <g id="xtick_6">
     <g id="line2d_13">
      <g>
       <use xlink:href="#m78bb9ee450" x="349.724803" y="348.247559" style="stroke: #000000; stroke-width: 0.8"/>
      </g>
     </g>
     <g id="text_13">
      <text style="font: 12px 'Arial'; text-anchor: middle" x="349.724803" y="363.836934" transform="rotate(-0 349.724803 363.836934)">20</text>
     </g>
    </g>
    <g id="xtick_7">
     <g id="line2d_14">
      <g>
       <use xlink:href="#m78bb9ee450" x="514.488583" y="348.247559" style="stroke: #000000; stroke-width: 0.8"/>
      </g>
     </g>
     <g id="text_14">
      <text style="font: 12px 'Arial'; text-anchor: middle" x="514.488583" y="363.836934" transform="rotate(-0 514.488583 363.836934)">30</text>
     </g>
    </g>
    <g id="text_15">
     <!-- Forecasting time ($s$) -->
     <g transform="translate(230.659291 378.981934)">
      <text>
       <tspan style="font: 12px 'Arial'" x="0 7.330078 14.003906 18 24.673828 30.673828 37.347656 43.347656 46.681641 49.347656 56.021484 62.695312 66.029297 69.363281 72.029297 82.025391 88.699219 92.033203 102.28125" y="-0.265625">Forecasting time ()</tspan>
       <tspan style="font: oblique 12px 'DejaVu Sans'" x="96.029297" y="-0.265625">s</tspan>
      </text>
     </g>
    </g>
   </g>
   <g id="matplotlib.axis_4">
    <g id="ytick_6">
     <g id="line2d_15">
      <g>
       <use xlink:href="#md50a84cf1b" x="53.15" y="338.252663" style="stroke: #000000; stroke-width: 0.8"/>
      </g>
     </g>
     <g id="text_16">
      <text style="font: 12px 'Arial'; text-anchor: end" x="46.15" y="342.547351" transform="rotate(-0 46.15 342.547351)">−1.0</text>
     </g>
    </g>
    <g id="ytick_7">
     <g id="line2d_16">
      <g>
       <use xlink:href="#md50a84cf1b" x="53.15" y="306.45597" style="stroke: #000000; stroke-width: 0.8"/>
      </g>
     </g>
     <g id="text_17">
      <text style="font: 12px 'Arial'; text-anchor: end" x="46.15" y="310.750658" transform="rotate(-0 46.15 310.750658)">−0.5</text>
     </g>
    </g>
    <g id="ytick_8">
     <g id="line2d_17">
      <g>
       <use xlink:href="#md50a84cf1b" x="53.15" y="274.659278" style="stroke: #000000; stroke-width: 0.8"/>
      </g>
     </g>
     <g id="text_18">
      <text style="font: 12px 'Arial'; text-anchor: end" x="46.15" y="278.953965" transform="rotate(-0 46.15 278.953965)">0.0</text>
     </g>
    </g>
    <g id="ytick_9">
     <g id="line2d_18">
      <g>
       <use xlink:href="#md50a84cf1b" x="53.15" y="242.862585" style="stroke: #000000; stroke-width: 0.8"/>
      </g>
     </g>
     <g id="text_19">
      <text style="font: 12px 'Arial'; text-anchor: end" x="46.15" y="247.157272" transform="rotate(-0 46.15 247.157272)">0.5</text>
     </g>
    </g>
    <g id="ytick_10">
     <g id="line2d_19">
      <g>
       <use xlink:href="#md50a84cf1b" x="53.15" y="211.065892" style="stroke: #000000; stroke-width: 0.8"/>
      </g>
     </g>
     <g id="text_20">
      <text style="font: 12px 'Arial'; text-anchor: end" x="46.15" y="215.36058" transform="rotate(-0 46.15 215.36058)">1.0</text>
     </g>
    </g>
    <g id="text_21">
     <text style="font: 12px 'Arial'; text-anchor: middle" x="15.935625" y="274.582205" transform="rotate(-90 15.935625 274.582205)">Speed, heading, and time</text>
    </g>
   </g>
   <g id="line2d_20">
    <path d="M 53.15 213.216191 
L 69.626378 213.312915 
L 86.102756 213.540336 
L 102.579134 213.610286 
L 184.961024 214.332604 
L 349.724803 220.229956 
L 514.488583 335.97 
" clip-path="url(#p0c0fea4d57)" style="fill: none; stroke-dasharray: 5.55,2.4; stroke-dashoffset: 0; stroke: #6699cc; stroke-width: 1.5"/>
   </g>
   <g id="line2d_21">
    <path d="M 53.15 213.209026 
L 69.626378 213.376031 
L 86.102756 213.558156 
L 102.579134 213.728853 
L 184.961024 214.698092 
L 349.724803 220.782262 
L 514.488583 232.44687 
" clip-path="url(#p0c0fea4d57)" style="fill: none; stroke-dasharray: 1.5,2.475; stroke-dashoffset: 0; stroke: #6699cc; stroke-width: 1.5"/>
   </g>
   <g id="line2d_22">
    <path d="M 53.15 213.194409 
L 69.626378 213.289325 
L 86.102756 213.533711 
L 102.579134 213.751688 
L 184.961024 214.902337 
L 349.724803 220.929566 
L 514.488583 276.884637 
" clip-path="url(#p0c0fea4d57)" style="fill: none; stroke: #6699cc; stroke-width: 1.5; stroke-linecap: square"/>
   </g>
   <g id="line2d_23">
    <path d="M 20.197244 360.525118 
" clip-path="url(#p0c0fea4d57)" style="fill: none; stroke-dasharray: 5.55,2.4; stroke-dashoffset: 0; stroke: #6699cc; stroke-width: 1.5"/>
   </g>
   <g id="line2d_24">
    <path d="M 20.197244 360.525118 
" clip-path="url(#p0c0fea4d57)" style="fill: none; stroke-dasharray: 1.5,2.475; stroke-dashoffset: 0; stroke: #6699cc; stroke-width: 1.5"/>
   </g>
   <g id="line2d_25">
    <path d="M 20.197244 360.525118 
" clip-path="url(#p0c0fea4d57)" style="fill: none; stroke: #6699cc; stroke-width: 1.5; stroke-linecap: square"/>
   </g>
   <g id="line2d_26">
    <path d="M 20.197244 360.525118 
" clip-path="url(#p0c0fea4d57)" style="fill: none; stroke: #000000; stroke-width: 1.5; stroke-linecap: square"/>
   </g>
   <g id="patch_8">
    <path d="M 53.15 348.247559 
L 53.15 200.91685 
" style="fill: none; stroke: #000000; stroke-width: 0.8; stroke-linejoin: miter; stroke-linecap: square"/>
   </g>
   <g id="patch_9">
    <path d="M 514.488583 348.247559 
L 514.488583 200.91685 
" style="fill: none; stroke: #000000; stroke-width: 0.8; stroke-linejoin: miter; stroke-linecap: square"/>
   </g>
   <g id="patch_10">
    <path d="M 53.15 348.247559 
L 514.488583 348.247559 
" style="fill: none; stroke: #000000; stroke-width: 0.8; stroke-linejoin: miter; stroke-linecap: square"/>
   </g>
   <g id="patch_11">
    <path d="M 53.15 200.91685 
L 514.488583 200.91685 
" style="fill: none; stroke: #000000; stroke-width: 0.8; stroke-linejoin: miter; stroke-linecap: square"/>
   </g>
   <g id="legend_1">
    <g id="patch_12">
     <path d="M 38.483071 412.966299 
L 445.078696 412.966299 
Q 447.478696 412.966299 447.478696 410.566299 
L 447.478696 394.791924 
Q 447.478696 392.391924 445.078696 392.391924 
L 38.483071 392.391924 
Q 36.083071 392.391924 36.083071 394.791924 
L 36.083071 410.566299 
Q 36.083071 412.966299 38.483071 412.966299 
z
" style="fill: #ffffff; opacity: 0.8; stroke: #cccccc; stroke-linejoin: miter"/>
    </g>
    <g id="line2d_27">
     <path d="M 40.883071 401.581299 
L 52.883071 401.581299 
L 64.883071 401.581299 
" style="fill: none; stroke-dasharray: 5.55,2.4; stroke-dashoffset: 0; stroke: #6699cc; stroke-width: 1.5"/>
    </g>
    <g id="text_22">
     <text style="font: 12px 'Arial'; text-anchor: start" x="74.483071" y="405.781299" transform="rotate(-0 74.483071 405.781299)">GRU Att 1</text>
    </g>
    <g id="line2d_28">
     <path d="M 152.501821 401.581299 
L 164.501821 401.581299 
L 176.501821 401.581299 
" style="fill: none; stroke-dasharray: 1.5,2.475; stroke-dashoffset: 0; stroke: #6699cc; stroke-width: 1.5"/>
    </g>
    <g id="text_23">
     <text style="font: 12px 'Arial'; text-anchor: start" x="186.101821" y="405.781299" transform="rotate(-0 186.101821 405.781299)">GRU Att 2</text>
    </g>
    <g id="line2d_29">
     <path d="M 264.120571 401.581299 
L 276.120571 401.581299 
L 288.120571 401.581299 
" style="fill: none; stroke: #6699cc; stroke-width: 1.5; stroke-linecap: square"/>
    </g>
    <g id="text_24">
     <text style="font: 12px 'Arial'; text-anchor: start" x="297.720571" y="405.781299" transform="rotate(-0 297.720571 405.781299)">GRU Att 4</text>
    </g>
    <g id="line2d_30">
     <path d="M 375.739321 401.581299 
L 387.739321 401.581299 
L 399.739321 401.581299 
" style="fill: none; stroke: #000000; stroke-width: 1.5; stroke-linecap: square"/>
    </g>
    <g id="text_25">
     <text style="font: 12px 'Arial'; text-anchor: start" x="409.339321" y="405.781299" transform="rotate(-0 409.339321 405.781299)">UniTS</text>
    </g>
   </g>
  </g>
 </g>
 <defs>
  <clipPath id="pb1183554d1">
   <rect x="53.15" y="24.12" width="461.338583" height="147.330709"/>
  </clipPath>
  <clipPath id="p0c0fea4d57">
   <rect x="53.15" y="200.91685" width="461.338583" height="147.330709"/>
  </clipPath>
 </defs>
</svg>
